<svg width="40" height="40" viewBox="0 0 40 40" fill="none" xmlns="http://www.w3.org/2000/svg">
<g clip-path="url(#clip0_215_1381)">
<mask id="path-1-outside-1_215_1381" maskUnits="userSpaceOnUse" x="1" y="8" width="38" height="24" fill="black">
<rect fill="white" x="1" y="8" width="38" height="24"/>
<path d="M36.2 9.59476H32C31.5437 9.5932 31.104 9.76642 30.7714 10.0788C30.4388 10.3913 30.2384 10.8192 30.2114 11.2748C25.7072 10.9406 23.666 10.0256 22.2962 9.40936C21.4215 9.02106 20.4501 8.90548 19.5087 9.0777C18.5673 9.24992 17.6998 9.70194 17.0192 10.3748L16.6232 10.7714C14.3089 10.5725 11.9824 10.5603 9.6662 10.7348C9.53836 10.3972 9.31009 10.1069 9.01216 9.90305C8.71423 9.69921 8.36097 9.59161 8 9.59476H3.8C3.32261 9.59476 2.86477 9.7844 2.52721 10.122C2.18964 10.4595 2 10.9174 2 11.3948L2 22.1948C2 22.6722 2.18964 23.13 2.52721 23.4676C2.86477 23.8051 3.32261 23.9948 3.8 23.9948H7.0178C7.33492 23.9958 7.6466 23.9124 7.92078 23.7531C8.19496 23.5937 8.42175 23.3642 8.5778 23.0882C9.6526 24.026 10.6474 25.0518 11.552 26.1548C12.5792 27.3248 13.8578 28.781 15.5798 30.5054C15.8786 30.8053 16.2514 31.0209 16.6604 31.1302C17.0695 31.2395 17.5001 31.2386 17.9087 31.1278C18.3173 31.0169 18.6893 30.7999 18.9869 30.4988C19.2845 30.1977 19.4972 29.8232 19.6034 29.4134C20.0689 29.7715 20.6477 29.9503 21.2341 29.9172C21.8205 29.8842 22.3754 29.6415 22.7978 29.2334C23.1334 28.893 23.36 28.4604 23.4488 27.9908C23.8982 28.2016 24.4012 28.2708 24.8908 28.189C25.3805 28.1073 25.8337 27.8784 26.1902 27.533C26.5925 27.1314 26.8384 26.5996 26.8838 26.033C27.1769 26.1036 27.4804 26.1205 27.7796 26.0828C28.1396 26.0391 28.4846 25.9128 28.7877 25.7136C29.0908 25.5145 29.3438 25.248 29.5268 24.935C29.6853 24.6536 29.7854 24.3432 29.821 24.0222C29.8567 23.7013 29.8272 23.3764 29.7344 23.0672C30.3206 22.7564 30.7964 22.4672 31.1744 22.2182L31.187 22.358C31.226 22.8064 31.4323 23.2237 31.765 23.5269C32.0976 23.8302 32.5321 23.9972 32.9822 23.9948H36.2C36.6774 23.9948 37.1352 23.8051 37.4728 23.4676C37.8104 23.13 38 22.6722 38 22.1948V11.3948C38 10.9174 37.8104 10.4595 37.4728 10.122C37.1352 9.7844 36.6774 9.59476 36.2 9.59476ZM7.0178 22.7948H3.8C3.64087 22.7948 3.48826 22.7315 3.37574 22.619C3.26321 22.5065 3.2 22.3539 3.2 22.1948V11.3948C3.2 11.2356 3.26321 11.083 3.37574 10.9705C3.48826 10.858 3.64087 10.7948 3.8 10.7948H8C8.08355 10.7944 8.16625 10.8115 8.2428 10.845C8.31936 10.8785 8.38808 10.9276 8.44456 10.9891C8.50104 11.0507 8.54404 11.1234 8.57081 11.2025C8.59758 11.2817 8.60752 11.3655 8.6 11.4488L7.6184 22.2488C7.60487 22.3985 7.53566 22.5376 7.42444 22.6387C7.31322 22.7398 7.1681 22.7955 7.0178 22.7948ZM28.4876 24.3338C28.3966 24.4869 28.2714 24.6169 28.1218 24.7137C27.9723 24.8105 27.8024 24.8714 27.6254 24.8918C27.4422 24.9174 27.2555 24.9008 27.0797 24.8433C26.9039 24.7858 26.7435 24.6889 26.6108 24.56L22.3694 20.3144C22.2562 20.2051 22.1047 20.1446 21.9474 20.146C21.79 20.1473 21.6396 20.2104 21.5283 20.3217C21.4171 20.4329 21.354 20.5834 21.3526 20.7407C21.3512 20.898 21.4117 21.0496 21.521 21.1628L25.34 24.9848V24.9884L25.3436 24.9914C25.5667 25.2166 25.6916 25.521 25.6911 25.838C25.6905 26.155 25.5645 26.4589 25.3406 26.6834C25.1126 26.9045 24.8074 27.0281 24.4898 27.0281C24.1722 27.0281 23.867 26.9045 23.639 26.6834L19.4 22.4378C19.3443 22.382 19.2781 22.3377 19.2053 22.3075C19.1325 22.2773 19.0545 22.2617 18.9756 22.2616C18.8968 22.2616 18.8187 22.277 18.7459 22.3072C18.673 22.3373 18.6068 22.3815 18.551 22.4372C18.4952 22.4929 18.4509 22.559 18.4207 22.6318C18.3905 22.7046 18.3749 22.7827 18.3749 22.8615C18.3748 22.9404 18.3903 23.0185 18.4204 23.0913C18.4505 23.1642 18.4947 23.2304 18.5504 23.2862L21.9428 26.6834C22.0544 26.7948 22.1429 26.9272 22.2033 27.0728C22.2637 27.2185 22.2947 27.3747 22.2947 27.5324C22.2947 27.6901 22.2637 27.8462 22.2033 27.9919C22.1429 28.1376 22.0544 28.2699 21.9428 28.3814C21.7151 28.601 21.4111 28.7237 21.0947 28.7237C20.7783 28.7237 20.4743 28.601 20.2466 28.3814L16.4252 24.5534C16.3699 24.4961 16.3036 24.4503 16.2304 24.4189C16.1572 24.3875 16.0785 24.3709 15.9988 24.3702C15.9192 24.3695 15.8402 24.3847 15.7664 24.4149C15.6927 24.445 15.6257 24.4896 15.5694 24.5459C15.513 24.6023 15.4685 24.6693 15.4383 24.743C15.4081 24.8167 15.393 24.8957 15.3937 24.9754C15.3943 25.0551 15.4109 25.1338 15.4423 25.207C15.4738 25.2802 15.5195 25.3464 15.5768 25.4018L18.1226 27.9506L18.131 27.9566C18.3534 28.1825 18.4778 28.487 18.477 28.804C18.4762 29.1211 18.3504 29.425 18.1268 29.6498C17.8967 29.8672 17.592 29.9884 17.2754 29.9884C16.9588 29.9884 16.6541 29.8672 16.424 29.6498C14.729 27.953 13.4648 26.513 12.449 25.3556C11.3921 24.0335 10.1868 22.8372 8.8568 21.7904L9.758 11.9348C11.6677 11.7796 13.5863 11.7686 15.4976 11.9018L13.2458 14.1548C12.8673 14.5331 12.6094 15.0151 12.5048 15.5399C12.4003 16.0648 12.4536 16.6088 12.6582 17.1033C12.8629 17.5978 13.2095 18.0206 13.6543 18.3181C14.0992 18.6156 14.6222 18.7745 15.1574 18.7748H15.1622C15.5163 18.7753 15.867 18.7051 16.1936 18.5682C16.5202 18.4314 16.8162 18.2307 17.0642 17.978L19.8242 15.218C19.8799 15.1622 19.9461 15.1179 20.0189 15.0877C20.0918 15.0575 20.1699 15.042 20.2487 15.042C20.3275 15.042 20.4056 15.0575 20.4785 15.0877C20.5513 15.1179 20.6175 15.1622 20.6732 15.218L28.211 22.7636C28.3038 22.8566 28.3834 22.962 28.4474 23.0768C28.5627 23.2647 28.627 23.4795 28.6341 23.6999C28.6411 23.9203 28.5906 24.1388 28.4876 24.3338ZM29.1476 22.019C29.117 21.9848 29.0876 21.947 29.057 21.9146L21.5222 14.3654C21.1841 14.0284 20.7263 13.8392 20.249 13.8392C19.7717 13.8392 19.3139 14.0284 18.9758 14.3654L16.2128 17.129C16.0757 17.2691 15.912 17.3804 15.7313 17.4563C15.5505 17.5323 15.3564 17.5713 15.1604 17.5712H15.1574C14.9602 17.5714 14.7649 17.5324 14.5829 17.4565C14.4009 17.3806 14.2358 17.2692 14.0972 17.129C13.8162 16.8472 13.6583 16.4655 13.658 16.0676C13.6566 15.8702 13.6946 15.6746 13.7695 15.4921C13.8445 15.3095 13.9551 15.1437 14.0948 15.0044L17.8682 11.2244C18.3761 10.7224 19.0236 10.3852 19.726 10.2568C20.4285 10.1284 21.1533 10.2146 21.806 10.5044C23.1794 11.123 25.454 12.1412 30.2912 12.4844L31.0514 20.8478C30.448 21.2858 29.8122 21.6774 29.1494 22.019H29.1476ZM36.8 22.1948C36.8 22.3539 36.7368 22.5065 36.6243 22.619C36.5117 22.7315 36.3591 22.7948 36.2 22.7948H32.9822C32.832 22.7954 32.687 22.7396 32.5759 22.6385C32.4649 22.5374 32.3957 22.3984 32.3822 22.2488L31.4006 11.4488C31.3931 11.3656 31.403 11.2818 31.4297 11.2027C31.4565 11.1236 31.4994 11.0509 31.5558 10.9894C31.6123 10.9278 31.6809 10.8787 31.7574 10.8452C31.8339 10.8117 31.9165 10.7945 32 10.7948H36.2C36.3591 10.7948 36.5117 10.858 36.6243 10.9705C36.7368 11.083 36.8 11.2356 36.8 11.3948V22.1948Z"/>
</mask>
<path d="M36.2 9.59476H32C31.5437 9.5932 31.104 9.76642 30.7714 10.0788C30.4388 10.3913 30.2384 10.8192 30.2114 11.2748C25.7072 10.9406 23.666 10.0256 22.2962 9.40936C21.4215 9.02106 20.4501 8.90548 19.5087 9.0777C18.5673 9.24992 17.6998 9.70194 17.0192 10.3748L16.6232 10.7714C14.3089 10.5725 11.9824 10.5603 9.6662 10.7348C9.53836 10.3972 9.31009 10.1069 9.01216 9.90305C8.71423 9.69921 8.36097 9.59161 8 9.59476H3.8C3.32261 9.59476 2.86477 9.7844 2.52721 10.122C2.18964 10.4595 2 10.9174 2 11.3948L2 22.1948C2 22.6722 2.18964 23.13 2.52721 23.4676C2.86477 23.8051 3.32261 23.9948 3.8 23.9948H7.0178C7.33492 23.9958 7.6466 23.9124 7.92078 23.7531C8.19496 23.5937 8.42175 23.3642 8.5778 23.0882C9.6526 24.026 10.6474 25.0518 11.552 26.1548C12.5792 27.3248 13.8578 28.781 15.5798 30.5054C15.8786 30.8053 16.2514 31.0209 16.6604 31.1302C17.0695 31.2395 17.5001 31.2386 17.9087 31.1278C18.3173 31.0169 18.6893 30.7999 18.9869 30.4988C19.2845 30.1977 19.4972 29.8232 19.6034 29.4134C20.0689 29.7715 20.6477 29.9503 21.2341 29.9172C21.8205 29.8842 22.3754 29.6415 22.7978 29.2334C23.1334 28.893 23.36 28.4604 23.4488 27.9908C23.8982 28.2016 24.4012 28.2708 24.8908 28.189C25.3805 28.1073 25.8337 27.8784 26.1902 27.533C26.5925 27.1314 26.8384 26.5996 26.8838 26.033C27.1769 26.1036 27.4804 26.1205 27.7796 26.0828C28.1396 26.0391 28.4846 25.9128 28.7877 25.7136C29.0908 25.5145 29.3438 25.248 29.5268 24.935C29.6853 24.6536 29.7854 24.3432 29.821 24.0222C29.8567 23.7013 29.8272 23.3764 29.7344 23.0672C30.3206 22.7564 30.7964 22.4672 31.1744 22.2182L31.187 22.358C31.226 22.8064 31.4323 23.2237 31.765 23.5269C32.0976 23.8302 32.5321 23.9972 32.9822 23.9948H36.2C36.6774 23.9948 37.1352 23.8051 37.4728 23.4676C37.8104 23.13 38 22.6722 38 22.1948V11.3948C38 10.9174 37.8104 10.4595 37.4728 10.122C37.1352 9.7844 36.6774 9.59476 36.2 9.59476ZM7.0178 22.7948H3.8C3.64087 22.7948 3.48826 22.7315 3.37574 22.619C3.26321 22.5065 3.2 22.3539 3.2 22.1948V11.3948C3.2 11.2356 3.26321 11.083 3.37574 10.9705C3.48826 10.858 3.64087 10.7948 3.8 10.7948H8C8.08355 10.7944 8.16625 10.8115 8.2428 10.845C8.31936 10.8785 8.38808 10.9276 8.44456 10.9891C8.50104 11.0507 8.54404 11.1234 8.57081 11.2025C8.59758 11.2817 8.60752 11.3655 8.6 11.4488L7.6184 22.2488C7.60487 22.3985 7.53566 22.5376 7.42444 22.6387C7.31322 22.7398 7.1681 22.7955 7.0178 22.7948ZM28.4876 24.3338C28.3966 24.4869 28.2714 24.6169 28.1218 24.7137C27.9723 24.8105 27.8024 24.8714 27.6254 24.8918C27.4422 24.9174 27.2555 24.9008 27.0797 24.8433C26.9039 24.7858 26.7435 24.6889 26.6108 24.56L22.3694 20.3144C22.2562 20.2051 22.1047 20.1446 21.9474 20.146C21.79 20.1473 21.6396 20.2104 21.5283 20.3217C21.4171 20.4329 21.354 20.5834 21.3526 20.7407C21.3512 20.898 21.4117 21.0496 21.521 21.1628L25.34 24.9848V24.9884L25.3436 24.9914C25.5667 25.2166 25.6916 25.521 25.6911 25.838C25.6905 26.155 25.5645 26.4589 25.3406 26.6834C25.1126 26.9045 24.8074 27.0281 24.4898 27.0281C24.1722 27.0281 23.867 26.9045 23.639 26.6834L19.4 22.4378C19.3443 22.382 19.2781 22.3377 19.2053 22.3075C19.1325 22.2773 19.0545 22.2617 18.9756 22.2616C18.8968 22.2616 18.8187 22.277 18.7459 22.3072C18.673 22.3373 18.6068 22.3815 18.551 22.4372C18.4952 22.4929 18.4509 22.559 18.4207 22.6318C18.3905 22.7046 18.3749 22.7827 18.3749 22.8615C18.3748 22.9404 18.3903 23.0185 18.4204 23.0913C18.4505 23.1642 18.4947 23.2304 18.5504 23.2862L21.9428 26.6834C22.0544 26.7948 22.1429 26.9272 22.2033 27.0728C22.2637 27.2185 22.2947 27.3747 22.2947 27.5324C22.2947 27.6901 22.2637 27.8462 22.2033 27.9919C22.1429 28.1376 22.0544 28.2699 21.9428 28.3814C21.7151 28.601 21.4111 28.7237 21.0947 28.7237C20.7783 28.7237 20.4743 28.601 20.2466 28.3814L16.4252 24.5534C16.3699 24.4961 16.3036 24.4503 16.2304 24.4189C16.1572 24.3875 16.0785 24.3709 15.9988 24.3702C15.9192 24.3695 15.8402 24.3847 15.7664 24.4149C15.6927 24.445 15.6257 24.4896 15.5694 24.5459C15.513 24.6023 15.4685 24.6693 15.4383 24.743C15.4081 24.8167 15.393 24.8957 15.3937 24.9754C15.3943 25.0551 15.4109 25.1338 15.4423 25.207C15.4738 25.2802 15.5195 25.3464 15.5768 25.4018L18.1226 27.9506L18.131 27.9566C18.3534 28.1825 18.4778 28.487 18.477 28.804C18.4762 29.1211 18.3504 29.425 18.1268 29.6498C17.8967 29.8672 17.592 29.9884 17.2754 29.9884C16.9588 29.9884 16.6541 29.8672 16.424 29.6498C14.729 27.953 13.4648 26.513 12.449 25.3556C11.3921 24.0335 10.1868 22.8372 8.8568 21.7904L9.758 11.9348C11.6677 11.7796 13.5863 11.7686 15.4976 11.9018L13.2458 14.1548C12.8673 14.5331 12.6094 15.0151 12.5048 15.5399C12.4003 16.0648 12.4536 16.6088 12.6582 17.1033C12.8629 17.5978 13.2095 18.0206 13.6543 18.3181C14.0992 18.6156 14.6222 18.7745 15.1574 18.7748H15.1622C15.5163 18.7753 15.867 18.7051 16.1936 18.5682C16.5202 18.4314 16.8162 18.2307 17.0642 17.978L19.8242 15.218C19.8799 15.1622 19.9461 15.1179 20.0189 15.0877C20.0918 15.0575 20.1699 15.042 20.2487 15.042C20.3275 15.042 20.4056 15.0575 20.4785 15.0877C20.5513 15.1179 20.6175 15.1622 20.6732 15.218L28.211 22.7636C28.3038 22.8566 28.3834 22.962 28.4474 23.0768C28.5627 23.2647 28.627 23.4795 28.6341 23.6999C28.6411 23.9203 28.5906 24.1388 28.4876 24.3338ZM29.1476 22.019C29.117 21.9848 29.0876 21.947 29.057 21.9146L21.5222 14.3654C21.1841 14.0284 20.7263 13.8392 20.249 13.8392C19.7717 13.8392 19.3139 14.0284 18.9758 14.3654L16.2128 17.129C16.0757 17.2691 15.912 17.3804 15.7313 17.4563C15.5505 17.5323 15.3564 17.5713 15.1604 17.5712H15.1574C14.9602 17.5714 14.7649 17.5324 14.5829 17.4565C14.4009 17.3806 14.2358 17.2692 14.0972 17.129C13.8162 16.8472 13.6583 16.4655 13.658 16.0676C13.6566 15.8702 13.6946 15.6746 13.7695 15.4921C13.8445 15.3095 13.9551 15.1437 14.0948 15.0044L17.8682 11.2244C18.3761 10.7224 19.0236 10.3852 19.726 10.2568C20.4285 10.1284 21.1533 10.2146 21.806 10.5044C23.1794 11.123 25.454 12.1412 30.2912 12.4844L31.0514 20.8478C30.448 21.2858 29.8122 21.6774 29.1494 22.019H29.1476ZM36.8 22.1948C36.8 22.3539 36.7368 22.5065 36.6243 22.619C36.5117 22.7315 36.3591 22.7948 36.2 22.7948H32.9822C32.832 22.7954 32.687 22.7396 32.5759 22.6385C32.4649 22.5374 32.3957 22.3984 32.3822 22.2488L31.4006 11.4488C31.3931 11.3656 31.403 11.2818 31.4297 11.2027C31.4565 11.1236 31.4994 11.0509 31.5558 10.9894C31.6123 10.9278 31.6809 10.8787 31.7574 10.8452C31.8339 10.8117 31.9165 10.7945 32 10.7948H36.2C36.3591 10.7948 36.5117 10.858 36.6243 10.9705C36.7368 11.083 36.8 11.2356 36.8 11.3948V22.1948Z" fill="white"/>
<path d="M36.2 9.59476H32C31.5437 9.5932 31.104 9.76642 30.7714 10.0788C30.4388 10.3913 30.2384 10.8192 30.2114 11.2748C25.7072 10.9406 23.666 10.0256 22.2962 9.40936C21.4215 9.02106 20.4501 8.90548 19.5087 9.0777C18.5673 9.24992 17.6998 9.70194 17.0192 10.3748L16.6232 10.7714C14.3089 10.5725 11.9824 10.5603 9.6662 10.7348C9.53836 10.3972 9.31009 10.1069 9.01216 9.90305C8.71423 9.69921 8.36097 9.59161 8 9.59476H3.8C3.32261 9.59476 2.86477 9.7844 2.52721 10.122C2.18964 10.4595 2 10.9174 2 11.3948L2 22.1948C2 22.6722 2.18964 23.13 2.52721 23.4676C2.86477 23.8051 3.32261 23.9948 3.8 23.9948H7.0178C7.33492 23.9958 7.6466 23.9124 7.92078 23.7531C8.19496 23.5937 8.42175 23.3642 8.5778 23.0882C9.6526 24.026 10.6474 25.0518 11.552 26.1548C12.5792 27.3248 13.8578 28.781 15.5798 30.5054C15.8786 30.8053 16.2514 31.0209 16.6604 31.1302C17.0695 31.2395 17.5001 31.2386 17.9087 31.1278C18.3173 31.0169 18.6893 30.7999 18.9869 30.4988C19.2845 30.1977 19.4972 29.8232 19.6034 29.4134C20.0689 29.7715 20.6477 29.9503 21.2341 29.9172C21.8205 29.8842 22.3754 29.6415 22.7978 29.2334C23.1334 28.893 23.36 28.4604 23.4488 27.9908C23.8982 28.2016 24.4012 28.2708 24.8908 28.189C25.3805 28.1073 25.8337 27.8784 26.1902 27.533C26.5925 27.1314 26.8384 26.5996 26.8838 26.033C27.1769 26.1036 27.4804 26.1205 27.7796 26.0828C28.1396 26.0391 28.4846 25.9128 28.7877 25.7136C29.0908 25.5145 29.3438 25.248 29.5268 24.935C29.6853 24.6536 29.7854 24.3432 29.821 24.0222C29.8567 23.7013 29.8272 23.3764 29.7344 23.0672C30.3206 22.7564 30.7964 22.4672 31.1744 22.2182L31.187 22.358C31.226 22.8064 31.4323 23.2237 31.765 23.5269C32.0976 23.8302 32.5321 23.9972 32.9822 23.9948H36.2C36.6774 23.9948 37.1352 23.8051 37.4728 23.4676C37.8104 23.13 38 22.6722 38 22.1948V11.3948C38 10.9174 37.8104 10.4595 37.4728 10.122C37.1352 9.7844 36.6774 9.59476 36.2 9.59476ZM7.0178 22.7948H3.8C3.64087 22.7948 3.48826 22.7315 3.37574 22.619C3.26321 22.5065 3.2 22.3539 3.2 22.1948V11.3948C3.2 11.2356 3.26321 11.083 3.37574 10.9705C3.48826 10.858 3.64087 10.7948 3.8 10.7948H8C8.08355 10.7944 8.16625 10.8115 8.2428 10.845C8.31936 10.8785 8.38808 10.9276 8.44456 10.9891C8.50104 11.0507 8.54404 11.1234 8.57081 11.2025C8.59758 11.2817 8.60752 11.3655 8.6 11.4488L7.6184 22.2488C7.60487 22.3985 7.53566 22.5376 7.42444 22.6387C7.31322 22.7398 7.1681 22.7955 7.0178 22.7948ZM28.4876 24.3338C28.3966 24.4869 28.2714 24.6169 28.1218 24.7137C27.9723 24.8105 27.8024 24.8714 27.6254 24.8918C27.4422 24.9174 27.2555 24.9008 27.0797 24.8433C26.9039 24.7858 26.7435 24.6889 26.6108 24.56L22.3694 20.3144C22.2562 20.2051 22.1047 20.1446 21.9474 20.146C21.79 20.1473 21.6396 20.2104 21.5283 20.3217C21.4171 20.4329 21.354 20.5834 21.3526 20.7407C21.3512 20.898 21.4117 21.0496 21.521 21.1628L25.34 24.9848V24.9884L25.3436 24.9914C25.5667 25.2166 25.6916 25.521 25.6911 25.838C25.6905 26.155 25.5645 26.4589 25.3406 26.6834C25.1126 26.9045 24.8074 27.0281 24.4898 27.0281C24.1722 27.0281 23.867 26.9045 23.639 26.6834L19.4 22.4378C19.3443 22.382 19.2781 22.3377 19.2053 22.3075C19.1325 22.2773 19.0545 22.2617 18.9756 22.2616C18.8968 22.2616 18.8187 22.277 18.7459 22.3072C18.673 22.3373 18.6068 22.3815 18.551 22.4372C18.4952 22.4929 18.4509 22.559 18.4207 22.6318C18.3905 22.7046 18.3749 22.7827 18.3749 22.8615C18.3748 22.9404 18.3903 23.0185 18.4204 23.0913C18.4505 23.1642 18.4947 23.2304 18.5504 23.2862L21.9428 26.6834C22.0544 26.7948 22.1429 26.9272 22.2033 27.0728C22.2637 27.2185 22.2947 27.3747 22.2947 27.5324C22.2947 27.6901 22.2637 27.8462 22.2033 27.9919C22.1429 28.1376 22.0544 28.2699 21.9428 28.3814C21.7151 28.601 21.4111 28.7237 21.0947 28.7237C20.7783 28.7237 20.4743 28.601 20.2466 28.3814L16.4252 24.5534C16.3699 24.4961 16.3036 24.4503 16.2304 24.4189C16.1572 24.3875 16.0785 24.3709 15.9988 24.3702C15.9192 24.3695 15.8402 24.3847 15.7664 24.4149C15.6927 24.445 15.6257 24.4896 15.5694 24.5459C15.513 24.6023 15.4685 24.6693 15.4383 24.743C15.4081 24.8167 15.393 24.8957 15.3937 24.9754C15.3943 25.0551 15.4109 25.1338 15.4423 25.207C15.4738 25.2802 15.5195 25.3464 15.5768 25.4018L18.1226 27.9506L18.131 27.9566C18.3534 28.1825 18.4778 28.487 18.477 28.804C18.4762 29.1211 18.3504 29.425 18.1268 29.6498C17.8967 29.8672 17.592 29.9884 17.2754 29.9884C16.9588 29.9884 16.6541 29.8672 16.424 29.6498C14.729 27.953 13.4648 26.513 12.449 25.3556C11.3921 24.0335 10.1868 22.8372 8.8568 21.7904L9.758 11.9348C11.6677 11.7796 13.5863 11.7686 15.4976 11.9018L13.2458 14.1548C12.8673 14.5331 12.6094 15.0151 12.5048 15.5399C12.4003 16.0648 12.4536 16.6088 12.6582 17.1033C12.8629 17.5978 13.2095 18.0206 13.6543 18.3181C14.0992 18.6156 14.6222 18.7745 15.1574 18.7748H15.1622C15.5163 18.7753 15.867 18.7051 16.1936 18.5682C16.5202 18.4314 16.8162 18.2307 17.0642 17.978L19.8242 15.218C19.8799 15.1622 19.9461 15.1179 20.0189 15.0877C20.0918 15.0575 20.1699 15.042 20.2487 15.042C20.3275 15.042 20.4056 15.0575 20.4785 15.0877C20.5513 15.1179 20.6175 15.1622 20.6732 15.218L28.211 22.7636C28.3038 22.8566 28.3834 22.962 28.4474 23.0768C28.5627 23.2647 28.627 23.4795 28.6341 23.6999C28.6411 23.9203 28.5906 24.1388 28.4876 24.3338ZM29.1476 22.019C29.117 21.9848 29.0876 21.947 29.057 21.9146L21.5222 14.3654C21.1841 14.0284 20.7263 13.8392 20.249 13.8392C19.7717 13.8392 19.3139 14.0284 18.9758 14.3654L16.2128 17.129C16.0757 17.2691 15.912 17.3804 15.7313 17.4563C15.5505 17.5323 15.3564 17.5713 15.1604 17.5712H15.1574C14.9602 17.5714 14.7649 17.5324 14.5829 17.4565C14.4009 17.3806 14.2358 17.2692 14.0972 17.129C13.8162 16.8472 13.6583 16.4655 13.658 16.0676C13.6566 15.8702 13.6946 15.6746 13.7695 15.4921C13.8445 15.3095 13.9551 15.1437 14.0948 15.0044L17.8682 11.2244C18.3761 10.7224 19.0236 10.3852 19.726 10.2568C20.4285 10.1284 21.1533 10.2146 21.806 10.5044C23.1794 11.123 25.454 12.1412 30.2912 12.4844L31.0514 20.8478C30.448 21.2858 29.8122 21.6774 29.1494 22.019H29.1476ZM36.8 22.1948C36.8 22.3539 36.7368 22.5065 36.6243 22.619C36.5117 22.7315 36.3591 22.7948 36.2 22.7948H32.9822C32.832 22.7954 32.687 22.7396 32.5759 22.6385C32.4649 22.5374 32.3957 22.3984 32.3822 22.2488L31.4006 11.4488C31.3931 11.3656 31.403 11.2818 31.4297 11.2027C31.4565 11.1236 31.4994 11.0509 31.5558 10.9894C31.6123 10.9278 31.6809 10.8787 31.7574 10.8452C31.8339 10.8117 31.9165 10.7945 32 10.7948H36.2C36.3591 10.7948 36.5117 10.858 36.6243 10.9705C36.7368 11.083 36.8 11.2356 36.8 11.3948V22.1948Z" stroke="white" stroke-width="0.4" mask="url(#path-1-outside-1_215_1381)"/>
</g>
<defs>
<clipPath id="clip0_215_1381">
<rect width="40" height="40" fill="white"/>
</clipPath>
</defs>
</svg>
