<svg viewBox="0 0 851 264" fill="none" xmlns="http://www.w3.org/2000/svg">
    <path
        d="M182.892 178.999H164L188.538 106.272H211.94L236.478 178.999H217.586L200.505 124.596H199.937L182.892 178.999ZM180.37 150.377H219.859V163.73H180.37V150.377Z"
        fill="white" />
    <path d="M257.387 106.272V178.999H239.808V106.272H257.387Z" fill="white" />
    <path
        d="M280.906 178.999V106.272H331.616V120.548H298.484V135.463H329.024V149.774H298.484V164.724H331.616V178.999H280.906Z"
        fill="white" />
    <path
        d="M355.49 147.892V178.999H338.125V124.454H354.638V134.468H355.241C356.449 131.13 358.508 128.514 361.42 126.62C364.332 124.702 367.801 123.744 371.825 123.744C375.66 123.744 378.987 124.608 381.804 126.336C384.645 128.041 386.846 130.432 388.409 133.509C389.995 136.563 390.776 140.138 390.753 144.234V178.999H373.388V147.643C373.411 144.613 372.642 142.245 371.079 140.541C369.541 138.836 367.398 137.984 364.652 137.984C362.829 137.984 361.219 138.386 359.822 139.191C358.449 139.972 357.384 141.097 356.626 142.565C355.892 144.033 355.514 145.808 355.49 147.892Z"
        fill="white" />
    <path
        d="M422.43 200.59C417.245 200.59 412.806 199.868 409.113 198.424C405.42 196.98 402.52 195.003 400.413 192.494C398.306 189.984 397.039 187.143 396.613 183.971L413.055 183.048C413.363 184.16 413.931 185.131 414.759 185.96C415.612 186.788 416.713 187.428 418.062 187.877C419.435 188.327 421.045 188.552 422.892 188.552C425.804 188.552 428.206 187.842 430.1 186.421C432.018 185.025 432.977 182.574 432.977 179.07V169.482H432.373C431.687 171.163 430.645 172.667 429.248 173.992C427.851 175.318 426.111 176.36 424.028 177.117C421.968 177.875 419.601 178.254 416.926 178.254C412.948 178.254 409.303 177.33 405.988 175.484C402.697 173.614 400.058 170.725 398.069 166.819C396.104 162.889 395.122 157.835 395.122 151.656C395.122 145.287 396.14 140.044 398.176 135.924C400.212 131.781 402.875 128.715 406.166 126.727C409.48 124.738 413.043 123.744 416.855 123.744C419.719 123.744 422.17 124.241 424.205 125.235C426.265 126.206 427.958 127.46 429.284 128.999C430.609 130.538 431.616 132.136 432.302 133.794H432.799V124.454H450.093V179.213C450.093 183.829 448.933 187.723 446.613 190.896C444.293 194.068 441.05 196.471 436.883 198.105C432.716 199.762 427.899 200.59 422.43 200.59ZM422.963 165.612C425.07 165.612 426.869 165.055 428.36 163.943C429.852 162.83 431 161.232 431.805 159.149C432.61 157.065 433.012 154.568 433.012 151.656C433.012 148.696 432.61 146.151 431.805 144.021C431.024 141.866 429.875 140.209 428.36 139.049C426.869 137.889 425.07 137.309 422.963 137.309C420.808 137.309 418.985 137.901 417.494 139.085C416.002 140.268 414.866 141.937 414.085 144.092C413.327 146.222 412.948 148.744 412.948 151.656C412.948 154.568 413.339 157.065 414.12 159.149C414.902 161.232 416.026 162.83 417.494 163.943C418.985 165.055 420.808 165.612 422.963 165.612Z"
        fill="white" />
    <path
        d="M456.664 178.999V124.454H474.029V178.999H456.664ZM465.364 118.097C462.926 118.097 460.831 117.293 459.079 115.683C457.327 114.049 456.451 112.084 456.451 109.788C456.451 107.515 457.327 105.574 459.079 103.964C460.831 102.33 462.926 101.514 465.364 101.514C467.826 101.514 469.922 102.33 471.65 103.964C473.402 105.574 474.278 107.515 474.278 109.788C474.278 112.084 473.402 114.049 471.65 115.683C469.922 117.293 467.826 118.097 465.364 118.097Z"
        fill="white" />
    <path
        d="M497.947 147.892V178.999H480.582V124.454H497.095V134.468H497.698C498.906 131.13 500.965 128.514 503.877 126.62C506.789 124.702 510.258 123.744 514.282 123.744C518.117 123.744 521.444 124.608 524.261 126.336C527.102 128.041 529.304 130.432 530.866 133.509C532.452 136.563 533.233 140.138 533.21 144.234V178.999H515.845V147.643C515.868 144.613 515.099 142.245 513.536 140.541C511.998 138.836 509.855 137.984 507.109 137.984C505.286 137.984 503.676 138.386 502.279 139.191C500.906 139.972 499.841 141.097 499.083 142.565C498.349 144.033 497.971 145.808 497.947 147.892Z"
        fill="white" />
    <path
        d="M564.958 180.029C559.253 180.029 554.328 178.905 550.185 176.656C546.066 174.383 542.894 171.151 540.668 166.961C538.466 162.747 537.366 157.74 537.366 151.94C537.366 146.305 538.478 141.381 540.704 137.167C542.929 132.929 546.066 129.639 550.114 127.295C554.163 124.927 558.933 123.744 564.425 123.744C568.308 123.744 571.859 124.347 575.079 125.555C578.298 126.762 581.08 128.55 583.424 130.917C585.768 133.285 587.591 136.208 588.893 139.688C590.195 143.145 590.846 147.11 590.846 151.585V155.917H543.438V145.832H574.688C574.664 143.985 574.226 142.34 573.374 140.896C572.522 139.452 571.35 138.327 569.859 137.522C568.391 136.694 566.698 136.279 564.78 136.279C562.839 136.279 561.099 136.717 559.56 137.593C558.021 138.445 556.802 139.617 555.903 141.109C555.003 142.577 554.529 144.246 554.482 146.116V156.379C554.482 158.604 554.92 160.557 555.796 162.238C556.672 163.895 557.915 165.186 559.525 166.109C561.135 167.032 563.052 167.494 565.278 167.494C566.816 167.494 568.213 167.281 569.468 166.855C570.723 166.428 571.8 165.801 572.699 164.972C573.599 164.144 574.274 163.126 574.724 161.919L590.668 162.38C590.005 165.955 588.549 169.068 586.3 171.72C584.075 174.347 581.151 176.395 577.529 177.863C573.907 179.307 569.717 180.029 564.958 180.029Z"
        fill="white" />
    <path
        d="M620.712 180.029C615.006 180.029 610.082 178.905 605.939 176.656C601.82 174.383 598.647 171.151 596.422 166.961C594.22 162.747 593.12 157.74 593.12 151.94C593.12 146.305 594.232 141.381 596.458 137.167C598.683 132.929 601.82 129.639 605.868 127.295C609.916 124.927 614.687 123.744 620.179 123.744C624.062 123.744 627.613 124.347 630.833 125.555C634.052 126.762 636.834 128.55 639.178 130.917C641.522 133.285 643.344 136.208 644.647 139.688C645.949 143.145 646.6 147.11 646.6 151.585V155.917H599.192V145.832H630.442C630.418 143.985 629.98 142.34 629.128 140.896C628.276 139.452 627.104 138.327 625.612 137.522C624.145 136.694 622.452 136.279 620.534 136.279C618.593 136.279 616.853 136.717 615.314 137.593C613.775 138.445 612.556 139.617 611.656 141.109C610.757 142.577 610.283 144.246 610.236 146.116V156.379C610.236 158.604 610.674 160.557 611.55 162.238C612.426 163.895 613.669 165.186 615.279 166.109C616.888 167.032 618.806 167.494 621.031 167.494C622.57 167.494 623.967 167.281 625.222 166.855C626.477 166.428 627.554 165.801 628.453 164.972C629.353 164.144 630.028 163.126 630.478 161.919L646.422 162.38C645.759 165.955 644.303 169.068 642.054 171.72C639.829 174.347 636.905 176.395 633.283 177.863C629.661 179.307 625.47 180.029 620.712 180.029Z"
        fill="white" />
    <path
        d="M650.969 178.999V124.454H667.837V134.397H668.405C669.399 130.799 671.021 128.124 673.27 126.372C675.519 124.596 678.135 123.708 681.118 123.708C681.923 123.708 682.751 123.768 683.604 123.886C684.456 123.981 685.249 124.135 685.983 124.348V139.44C685.154 139.156 684.065 138.931 682.716 138.765C681.39 138.599 680.206 138.517 679.165 138.517C677.105 138.517 675.247 138.978 673.589 139.901C671.956 140.801 670.666 142.068 669.719 143.701C668.795 145.311 668.334 147.205 668.334 149.383V178.999H650.969Z"
        fill="white" />
    <path fill-rule="evenodd" clip-rule="evenodd"
        d="M20 22.1145H831V228.885H560V251H831H851V228.885V22.1145V0H831H20H0V22.1145V228.885V251H20H292V228.885H20V22.1145Z"
        fill="white" />
    <path
        d="M484.057 248.64C484.057 250.08 484.317 251.3 484.837 252.3C485.357 253.3 486.037 254.12 486.877 254.76C487.757 255.36 488.777 255.82 489.937 256.14C491.097 256.42 492.297 256.56 493.537 256.56C494.377 256.56 495.277 256.5 496.237 256.38C497.197 256.22 498.097 255.94 498.937 255.54C499.777 255.14 500.477 254.6 501.037 253.92C501.597 253.2 501.877 252.3 501.877 251.22C501.877 250.06 501.497 249.12 500.737 248.4C500.017 247.68 499.057 247.08 497.857 246.6C496.657 246.12 495.297 245.7 493.777 245.34C492.257 244.98 490.717 244.58 489.157 244.14C487.557 243.74 485.997 243.26 484.477 242.7C482.957 242.1 481.597 241.34 480.397 240.42C479.197 239.5 478.217 238.36 477.457 237C476.737 235.6 476.377 233.92 476.377 231.96C476.377 229.76 476.837 227.86 477.757 226.26C478.717 224.62 479.957 223.26 481.477 222.18C482.997 221.1 484.717 220.3 486.637 219.78C488.557 219.26 490.477 219 492.397 219C494.637 219 496.777 219.26 498.817 219.78C500.897 220.26 502.737 221.06 504.337 222.18C505.937 223.3 507.197 224.74 508.117 226.5C509.077 228.22 509.557 230.32 509.557 232.8H500.437C500.357 231.52 500.077 230.46 499.597 229.62C499.157 228.78 498.557 228.12 497.797 227.64C497.037 227.16 496.157 226.82 495.157 226.62C494.197 226.42 493.137 226.32 491.977 226.32C491.217 226.32 490.457 226.4 489.697 226.56C488.937 226.72 488.237 227 487.597 227.4C486.997 227.8 486.497 228.3 486.097 228.9C485.697 229.5 485.497 230.26 485.497 231.18C485.497 232.02 485.657 232.7 485.977 233.22C486.297 233.74 486.917 234.22 487.837 234.66C488.797 235.1 490.097 235.54 491.737 235.98C493.417 236.42 495.597 236.98 498.277 237.66C499.077 237.82 500.177 238.12 501.577 238.56C503.017 238.96 504.437 239.62 505.837 240.54C507.237 241.46 508.437 242.7 509.437 244.26C510.477 245.78 510.997 247.74 510.997 250.14C510.997 252.1 510.617 253.92 509.857 255.6C509.097 257.28 507.957 258.74 506.437 259.98C504.957 261.18 503.097 262.12 500.857 262.8C498.657 263.48 496.097 263.82 493.177 263.82C490.817 263.82 488.517 263.52 486.277 262.92C484.077 262.36 482.117 261.46 480.397 260.22C478.717 258.98 477.377 257.4 476.377 255.48C475.377 253.56 474.897 251.28 474.937 248.64H484.057Z"
        fill="white" />
    <path d="M459.941 220.02H469.361V262.86H459.941V220.02Z" fill="white" />
    <path
        d="M426.061 239.4H436.381C438.541 239.4 440.161 238.92 441.241 237.96C442.321 237 442.861 235.44 442.861 233.28C442.861 231.2 442.321 229.7 441.241 228.78C440.161 227.82 438.541 227.34 436.381 227.34H426.061V239.4ZM416.641 220.02H439.741C441.661 220.02 443.381 220.34 444.901 220.98C446.461 221.58 447.781 222.42 448.861 223.5C449.981 224.58 450.821 225.84 451.381 227.28C451.981 228.68 452.281 230.2 452.281 231.84C452.281 234.36 451.741 236.54 450.661 238.38C449.621 240.22 447.901 241.62 445.501 242.58V242.7C446.661 243.02 447.621 243.52 448.381 244.2C449.141 244.84 449.761 245.62 450.241 246.54C450.721 247.42 451.061 248.4 451.261 249.48C451.501 250.56 451.661 251.64 451.741 252.72C451.781 253.4 451.821 254.2 451.861 255.12C451.901 256.04 451.961 256.98 452.041 257.94C452.161 258.9 452.321 259.82 452.521 260.7C452.761 261.54 453.101 262.26 453.541 262.86H444.121C443.601 261.5 443.281 259.88 443.161 258C443.041 256.12 442.861 254.32 442.621 252.6C442.301 250.36 441.621 248.72 440.581 247.68C439.541 246.64 437.841 246.12 435.481 246.12H426.061V262.86H416.641V220.02Z"
        fill="white" />
    <path
        d="M386.366 246.3H397.466L392.066 230.58H391.946L386.366 246.3ZM387.266 220.02H396.926L412.946 262.86H403.166L399.926 253.32H383.906L380.546 262.86H371.066L387.266 220.02Z"
        fill="white" />
    <path
        d="M349.42 240.18H356.74C357.82 240.18 358.86 240.1 359.86 239.94C360.86 239.78 361.74 239.48 362.5 239.04C363.26 238.56 363.86 237.9 364.3 237.06C364.78 236.22 365.02 235.12 365.02 233.76C365.02 232.4 364.78 231.3 364.3 230.46C363.86 229.62 363.26 228.98 362.5 228.54C361.74 228.06 360.86 227.74 359.86 227.58C358.86 227.42 357.82 227.34 356.74 227.34H349.42V240.18ZM340 220.02H359.32C362 220.02 364.28 220.42 366.16 221.22C368.04 221.98 369.56 223 370.72 224.28C371.92 225.56 372.78 227.02 373.3 228.66C373.86 230.3 374.14 232 374.14 233.76C374.14 235.48 373.86 237.18 373.3 238.86C372.78 240.5 371.92 241.96 370.72 243.24C369.56 244.52 368.04 245.56 366.16 246.36C364.28 247.12 362 247.5 359.32 247.5H349.42V262.86H340V220.02Z"
        fill="white" />
    <path
        d="M718.07 198.472C716.971 198.472 716.195 198.193 715.741 197.635C715.305 197.076 715.2 196.265 715.427 195.201L717.233 186.489H714.616L714.956 184.736H717.599L718.462 180.628L720.582 180.34L719.666 184.736H722.832L722.492 186.489H719.326L717.547 194.992C717.39 195.707 717.451 196.178 717.73 196.405C718.009 196.614 718.445 196.719 719.038 196.719H720.32L719.954 198.472H718.07Z"
        fill="white" />
    <path
        d="M707.463 198.472L710.315 184.736H712.434L709.53 198.472H707.463ZM712.015 182.381C711.649 182.381 711.353 182.276 711.126 182.067C710.899 181.858 710.786 181.587 710.786 181.256C710.786 180.89 710.917 180.593 711.178 180.366C711.44 180.122 711.78 180 712.199 180C712.565 180 712.861 180.105 713.088 180.314C713.315 180.506 713.428 180.776 713.428 181.125C713.428 181.491 713.297 181.797 713.036 182.041C712.792 182.268 712.451 182.381 712.015 182.381Z"
        fill="white" />
    <path
        d="M692.081 198.472L694.933 184.736H696.869L696.503 187.221H696.66C697.218 186.297 697.942 185.608 698.831 185.154C699.721 184.701 700.628 184.474 701.553 184.474C702.285 184.474 702.931 184.605 703.489 184.867C704.064 185.128 704.527 185.521 704.875 186.044C705.224 186.55 705.451 187.195 705.556 187.98C705.66 188.748 705.599 189.655 705.373 190.701L703.75 198.472H701.657L703.227 190.911C703.436 189.916 703.48 189.079 703.358 188.399C703.236 187.701 702.939 187.169 702.468 186.803C702.015 186.436 701.378 186.253 700.558 186.253C699.791 186.253 699.076 186.436 698.413 186.803C697.767 187.169 697.209 187.684 696.738 188.346C696.285 188.992 695.971 189.759 695.796 190.649L694.148 198.472H692.081Z"
        fill="white" />
    <path
        d="M686 198.472L688.852 184.736H690.971L688.067 198.472H686ZM690.553 182.381C690.186 182.381 689.89 182.276 689.663 182.067C689.436 181.858 689.323 181.587 689.323 181.256C689.323 180.89 689.454 180.593 689.715 180.366C689.977 180.122 690.317 180 690.736 180C691.102 180 691.399 180.105 691.625 180.314C691.852 180.506 691.965 180.776 691.965 181.125C691.965 181.491 691.835 181.797 691.573 182.041C691.329 182.268 690.989 182.381 690.553 182.381Z"
        fill="white" />
</svg>
    