<svg fill="white" id="eNaMDHydnXU1" xmlns="http://www.w3.org/2000/svg" xmlns:xlink="http://www.w3.org/1999/xlink" viewBox="0 0 728 235" shape-rendering="geometricPrecision" text-rendering="geometricPrecision"><g clip-path="url(#eNaMDHydnXU14)"><g id="eNaMDHydnXU3" transform="translate(0 47.000001)" opacity="0.973966"><path d="M253.69,35.9999h-8.69L256.288,2.54537h10.765L278.34,35.9999h-8.69l-7.857-25.0256h-.262L253.69,35.9999Zm-1.159-13.1662h18.164v6.1421h-18.164v-6.1421Z"/><path d="M287.728,2.54537v33.45453h-8.086v-33.45453h8.086Z"/><path d="M298.087,35.9999v-33.45453h23.327v6.56676h-15.241v6.86077h14.048v6.5831h-14.048v6.8772h15.241v6.5667h-23.327Z"/><path d="M332.166,21.6903v14.3096h-7.988v-25.0909h7.596v4.6065h.277c.556-1.5355,1.503-2.7388,2.843-3.61c1.339-.8821,2.934-1.3232,4.786-1.3232c1.764,0,3.294.3975,4.59,1.1925c1.307.7841,2.32,1.884,3.038,3.2997.73,1.4048,1.089,3.0492,1.078,4.9332v15.9922h-7.987v-14.424c.01-1.3939-.343-2.4829-1.062-3.267-.708-.7841-1.694-1.1762-2.957-1.1762-.838,0-1.579.1852-2.222.5554-.631.3594-1.121.8767-1.47,1.5519-.337.6752-.512,1.4919-.522,2.4503Z"/><path d="M362.728,45.9317c-2.385,0-4.427-.3321-6.126-.9964s-3.033-1.5736-4.002-2.728-1.552-2.4612-1.748-3.9205l7.563-.4247c.142.5119.403.9584.785,1.3395.392.3812.898.6752,1.519.8821.631.2069,1.372.3104,2.221.3104c1.34,0,2.445-.3267,3.316-.9801.882-.6425,1.324-1.7697,1.324-3.3814v-4.4105h-.278c-.316.7732-.795,1.4647-1.438,2.0745-.642.6099-1.443,1.0891-2.401,1.4375-.947.3485-2.036.5228-3.267.5228-1.83,0-3.507-.4247-5.031-1.2742-1.514-.8603-2.728-2.1889-3.643-3.9858-.904-1.8077-1.356-4.1328-1.356-6.9751c0-2.9295.468-5.3416,1.405-7.2365.937-1.9058,2.162-3.3161,3.675-4.2308c1.525-.9148,3.164-1.3722,4.917-1.3722c1.318,0,2.445.2287,3.382.6861.947.4465,1.726,1.0237,2.336,1.7315s1.072,1.443,1.388,2.2053h.229v-4.2962h7.955v25.1889c0,2.1236-.533,3.915-1.601,5.3743-1.067,1.4593-2.559,2.5646-4.476,3.3161-1.916.7623-4.132,1.1434-6.648,1.1434Zm.245-16.0902c.969,0,1.797-.2559,2.483-.7677s1.214-1.2469,1.584-2.2053c.371-.9583.556-2.1072.556-3.4467c0-1.3613-.185-2.532-.556-3.5121-.359-.991-.887-1.7533-1.584-2.2869-.686-.5336-1.514-.8004-2.483-.8004-.991,0-1.83.2722-2.516.8167s-1.208,1.3123-1.568,2.3033c-.348.9801-.523,2.1399-.523,3.4794s.18,2.4884.54,3.4467c.359.9584.876,1.6934,1.551,2.2053.686.5118,1.525.7677,2.516.7677Z"/><path d="M378.246,35.9999v-25.0909h7.988v25.0909h-7.988ZM382.248,7.985c-1.122,0-2.086-.37027-2.892-1.1108-.805-.75142-1.208-1.6553-1.208-2.71165c0-1.04545.403-1.93844,1.208-2.67897.806-.751424,1.77-1.127135,2.892-1.127135c1.132,0,2.096.375711,2.891,1.127135.806.74053,1.209,1.63352,1.209,2.67897c0,1.05635-.403,1.96023-1.209,2.71165-.795.74053-1.759,1.1108-2.891,1.1108Z"/><path d="M397.006,21.6903v14.3096h-7.988v-25.0909h7.596v4.6065h.277c.556-1.5355,1.503-2.7388,2.843-3.61c1.339-.8821,2.935-1.3232,4.786-1.3232c1.764,0,3.294.3975,4.59,1.1925c1.307.7841,2.32,1.884,3.039,3.2997.729,1.4048,1.089,3.0492,1.078,4.9332v15.9922h-7.988v-14.424c.011-1.3939-.343-2.4829-1.062-3.267-.708-.7841-1.693-1.1762-2.957-1.1762-.838,0-1.579.1852-2.221.5554-.632.3594-1.122.8767-1.47,1.5519-.338.6752-.512,1.4919-.523,2.4503Z"/><path d="M427.601,36.4736c-2.625,0-4.89-.5172-6.796-1.5518-1.894-1.0455-3.354-2.532-4.377-4.4595-1.013-1.9385-1.52-4.2417-1.52-6.9098c0-2.5919.512-4.857,1.536-6.7955c1.024-1.9493,2.467-3.4631,4.329-4.5412c1.862-1.089,4.056-1.6335,6.583-1.6335c1.786,0,3.419.2777,4.9.8331c1.482.5554,2.761,1.3776,3.839,2.4666s1.917,2.434,2.516,4.0348c.599,1.59.898,3.4141.898,5.4723v1.9929h-21.807v-4.6392h14.375c-.011-.8494-.213-1.6063-.605-2.2706s-.931-1.1816-1.617-1.5518c-.675-.3812-1.454-.5718-2.336-.5718-.893,0-1.693.2015-2.401.6044-.708.3921-1.269.9311-1.683,1.6172-.413.6752-.631,1.443-.653,2.3033v4.7209c0,1.0236.201,1.9221.604,2.6953.403.7623.975,1.3558,1.716,1.7805.74.4247,1.622.6371,2.646.6371.708,0,1.35-.098,1.927-.294.578-.1961,1.073-.4846,1.487-.8658s.724-.8494.931-1.4048l7.335.2123c-.305,1.6444-.975,3.0765-2.01,4.2962-1.023,1.2088-2.368,2.1508-4.034,2.826-1.667.6643-3.594.9964-5.783.9964Z"/><path d="M453.018,36.4736c-2.625,0-4.89-.5172-6.796-1.5518-1.895-1.0455-3.354-2.532-4.378-4.4595-1.012-1.9385-1.519-4.2417-1.519-6.9098c0-2.5919.512-4.857,1.536-6.7955c1.023-1.9493,2.466-3.4631,4.329-4.5412c1.862-1.089,4.056-1.6335,6.583-1.6335c1.786,0,3.419.2777,4.9.8331s2.761,1.3776,3.839,2.4666s1.917,2.434,2.516,4.0348c.599,1.59.898,3.4141.898,5.4723v1.9929h-21.807v-4.6392h14.375c-.011-.8494-.213-1.6063-.605-2.2706s-.931-1.1816-1.617-1.5518c-.675-.3812-1.454-.5718-2.336-.5718-.893,0-1.693.2015-2.401.6044-.708.3921-1.269.9311-1.683,1.6172-.414.6752-.631,1.443-.653,2.3033v4.7209c0,1.0236.201,1.9221.604,2.6953.403.7623.975,1.3558,1.715,1.7805.741.4247,1.623.6371,2.647.6371.708,0,1.35-.098,1.927-.294s1.073-.4846,1.487-.8658.724-.8494.931-1.4048l7.334.2123c-.305,1.6444-.974,3.0765-2.009,4.2962-1.024,1.2088-2.368,2.1508-4.035,2.826-1.666.6643-3.593.9964-5.782.9964Z"/><path d="M466.706,35.9999v-25.0909h7.759v4.5739h.261c.458-1.6553,1.204-2.8859,2.238-3.6918c1.035-.8168,2.238-1.2251,3.61-1.2251.371,0,.752.0272,1.144.0816.392.0436.757.1144,1.094.2124v6.9425c-.381-.1307-.882-.2342-1.503-.3104-.609-.0762-1.154-.1143-1.633-.1143-.947,0-1.802.2123-2.565.637-.751.4139-1.345.9965-1.78,1.7479-.425.7405-.637,1.6117-.637,2.6136v13.6236h-7.988Z"/></g><clipPath id="eNaMDHydnXU14"><rect width="254.542052" height="46.787627" rx="0" ry="0" transform="translate(238.24 0.000001)" fill="#d2dbed" stroke-width="0"/></clipPath></g><g clip-path="url(#eNaMDHydnXU29)"><g id="eNaMDHydnXU17" transform="translate(0 100)"><path d="M76.3977,174L51,86.7273h23.3097L87.4773,143.915h.7244L103.244,86.7273h19.006l15.043,57.3157h.724l13.21-57.3157h23.267L149.139,174h-20.327l-15.724-52.926h-.682L96.6818,174h-20.2841Z"/><path d="M200.497,175.236c-6.875,0-12.784-1.406-17.727-4.219-4.915-2.841-8.708-6.79-11.378-11.846-2.642-5.086-3.963-10.981-3.963-17.685c0-6.733,1.321-12.628,3.963-17.685c2.67-5.085,6.463-9.034,11.378-11.846c4.943-2.841,10.852-4.262,17.727-4.262s12.77,1.421,17.685,4.262c4.943,2.812,8.736,6.761,11.378,11.846c2.67,5.057,4.005,10.952,4.005,17.685c0,6.704-1.335,12.599-4.005,17.685-2.642,5.056-6.435,9.005-11.378,11.846-4.915,2.813-10.81,4.219-17.685,4.219Zm.128-15.725c2.5,0,4.616-.767,6.349-2.301s3.054-3.664,3.964-6.392c.937-2.727,1.406-5.88,1.406-9.46c0-3.636-.469-6.818-1.406-9.545-.91-2.728-2.231-4.858-3.964-6.392-1.733-1.535-3.849-2.302-6.349-2.302-2.585,0-4.773.767-6.563,2.302-1.761,1.534-3.11,3.664-4.048,6.392-.909,2.727-1.363,5.909-1.363,9.545c0,3.58.454,6.733,1.363,9.46.938,2.728,2.287,4.858,4.048,6.392c1.79,1.534,3.978,2.301,6.563,2.301Z"/><path d="M238.24,174v-65.454h20.242v11.931h.681c1.194-4.318,3.14-7.528,5.838-9.63c2.699-2.131,5.838-3.196,9.418-3.196.966,0,1.96.071,2.983.213c1.023.113,1.974.298,2.855.554v18.11c-.994-.34-2.301-.61-3.92-.809-1.591-.199-3.012-.298-4.262-.298-2.471,0-4.701.553-6.69,1.661-1.96,1.08-3.509,2.6-4.645,4.56-1.108,1.932-1.662,4.205-1.662,6.818v35.54h-20.838Z"/><path d="M303.586,86.7273v87.2727h-20.838v-87.2727h20.838Z"/><path d="M334.756,174.938c-4.83,0-9.219-1.25-13.168-3.75s-7.102-6.25-9.46-11.25-3.537-11.208-3.537-18.623c0-7.698,1.221-14.034,3.665-19.005c2.443-4.972,5.639-8.651,9.588-11.037c3.977-2.387,8.253-3.58,12.826-3.58c3.438,0,6.378.597,8.821,1.79c2.444,1.165,4.461,2.67,6.052,4.517s2.798,3.764,3.622,5.753h.426v-33.0257h20.838v87.2727h-20.625v-10.611h-.639c-.881,2.017-2.131,3.907-3.75,5.668-1.62,1.761-3.651,3.182-6.094,4.261-2.415,1.08-5.27,1.62-8.565,1.62ZM342,158.702c2.528,0,4.687-.71,6.477-2.131c1.79-1.449,3.168-3.48,4.134-6.094.966-2.613,1.449-5.681,1.449-9.204c0-3.58-.483-6.662-1.449-9.247-.938-2.586-2.316-4.574-4.134-5.966-1.79-1.392-3.949-2.088-6.477-2.088-2.585,0-4.773.71-6.562,2.13-1.79,1.421-3.154,3.424-4.091,6.009-.91,2.585-1.364,5.639-1.364,9.162s.469,6.591,1.406,9.204c.938,2.614,2.287,4.645,4.049,6.094c1.789,1.421,3.977,2.131,6.562,2.131Z"/><path d="M398.951,86.7273v9.7159c0,2.6989-.54,5.4258-1.619,8.1818-1.051,2.727-2.429,5.284-4.134,7.671-1.704,2.386-3.508,4.403-5.412,6.051l-8.863-4.858c1.306-2.159,2.471-4.588,3.494-7.287c1.023-2.728,1.534-5.966,1.534-9.7162v-9.7585h15Z"/><path d="M453.963,128.531l-19.133.512c-.199-1.364-.739-2.571-1.62-3.622-.88-1.08-2.031-1.918-3.451-2.515-1.393-.625-3.012-.937-4.858-.937-2.415,0-4.475.483-6.179,1.449-1.677.966-2.5,2.272-2.472,3.92-.028,1.279.483,2.386,1.534,3.324c1.08.937,2.997,1.69,5.753,2.259l12.614,2.386c6.534,1.25,11.392,3.324,14.573,6.221c3.211,2.898,4.83,6.733,4.858,11.506-.028,4.489-1.363,8.395-4.005,11.719-2.614,3.324-6.193,5.909-10.739,7.756-4.545,1.818-9.744,2.727-15.597,2.727-9.346,0-16.718-1.918-22.116-5.753-5.369-3.864-8.438-9.034-9.205-15.511l20.583-.512c.454,2.387,1.633,4.205,3.537,5.455c1.903,1.25,4.332,1.875,7.287,1.875c2.67,0,4.843-.497,6.52-1.492c1.676-.994,2.528-2.315,2.556-3.963-.028-1.477-.681-2.656-1.96-3.537-1.278-.909-3.281-1.619-6.008-2.13l-11.421-2.174c-6.562-1.193-11.449-3.395-14.659-6.605-3.21-3.238-4.801-7.358-4.773-12.358-.028-4.375,1.137-8.11,3.495-11.207c2.358-3.125,5.71-5.511,10.057-7.159c4.346-1.648,9.474-2.472,15.383-2.472c8.864,0,15.852,1.861,20.966,5.583c5.114,3.693,7.94,8.778,8.48,15.255Z"/><path d="M479.623,174v-87.2727h59.574v17.1307h-38.48v17.898h34.687v17.173h-34.687v35.071h-21.094Z"/><path d="M561.215,175.108c-4.176,0-7.883-.696-11.122-2.088-3.21-1.421-5.753-3.551-7.628-6.392-1.846-2.869-2.77-6.463-2.77-10.781c0-3.637.64-6.705,1.918-9.205s3.04-4.531,5.284-6.094c2.244-1.562,4.83-2.741,7.756-3.537c2.926-.823,6.051-1.377,9.375-1.662c3.721-.34,6.718-.696,8.991-1.065c2.273-.398,3.921-.952,4.943-1.662c1.051-.738,1.577-1.775,1.577-3.111v-.213c0-2.187-.753-3.877-2.258-5.071-1.506-1.193-3.537-1.789-6.094-1.789-2.756,0-4.972.596-6.648,1.789-1.676,1.194-2.741,2.841-3.196,4.944l-19.219-.682c.568-3.978,2.032-7.529,4.389-10.654c2.387-3.153,5.654-5.625,9.802-7.414c4.176-1.819,9.19-2.728,15.042-2.728c4.176,0,8.026.497,11.549,1.492c3.522.966,6.59,2.386,9.204,4.261c2.614,1.847,4.631,4.119,6.051,6.818c1.449,2.699,2.174,5.782,2.174,9.247v44.489h-19.603v-9.119h-.511c-1.165,2.216-2.656,4.091-4.475,5.625-1.789,1.534-3.906,2.684-6.349,3.451-2.415.767-5.142,1.151-8.182,1.151Zm6.435-13.636c2.244,0,4.261-.455,6.051-1.364c1.818-.909,3.267-2.159,4.347-3.75c1.079-1.619,1.619-3.494,1.619-5.625v-6.222c-.597.313-1.321.597-2.173.853-.824.255-1.733.497-2.728.724-.994.227-2.017.426-3.068.597-1.051.17-2.059.326-3.025.468-1.961.313-3.637.796-5.029,1.449-1.363.654-2.415,1.506-3.153,2.557-.71,1.023-1.066,2.244-1.066,3.665c0,2.159.767,3.807,2.302,4.943c1.562,1.136,3.536,1.705,5.923,1.705Z"/><path d="M607.076,174v-65.454h20.838v65.454h-20.838Zm10.44-73.082c-2.926,0-5.44-.9662-7.542-2.8981-2.103-1.9602-3.154-4.3182-3.154-7.0738c0-2.7273,1.051-5.0569,3.154-6.9887c2.102-1.9602,4.616-2.9403,7.542-2.9403c2.955,0,5.469.9801,7.543,2.9403c2.102,1.9318,3.153,4.2614,3.153,6.9887c0,2.7556-1.051,5.1136-3.153,7.0738-2.074,1.9319-4.588,2.8981-7.543,2.8981Z"/><path d="M635.178,174v-65.454h20.241v11.931h.682c1.193-4.318,3.139-7.528,5.838-9.63c2.699-2.131,5.838-3.196,9.418-3.196.965,0,1.96.071,2.982.213c1.023.113,1.975.298,2.856.554v18.11c-.995-.34-2.302-.61-3.921-.809-1.591-.199-3.011-.298-4.261-.298-2.472,0-4.702.553-6.691,1.661-1.96,1.08-3.508,2.6-4.644,4.56-1.108,1.932-1.662,4.205-1.662,6.818v35.54h-20.838Z"/></g><clipPath id="eNaMDHydnXU29"><rect width="669.327603" height="125.480904" rx="0" ry="0" transform="matrix(1 0 0 0.964948 32.390228 57.550924)" fill="#d2dbed" stroke-width="0"/></clipPath></g><path id="eNaMDHydnXU31" d="M229.56,23.812886h-224.56v206.550764h717.596058v-206.550764h-228.961009" opacity="0" fill="none" stroke="#fff" stroke-width="8"/>
<script><![CDATA[
!function(t,n){"object"==typeof exports&&"undefined"!=typeof module?module.exports=n():"function"==typeof __SVGATOR_DEFINE__&&__SVGATOR_DEFINE__.amd?__SVGATOR_DEFINE__(n):((t="undefined"!=typeof globalThis?globalThis:t||self).__SVGATOR_PLAYER__=t.__SVGATOR_PLAYER__||{},t.__SVGATOR_PLAYER__["5c7f360c"]=n())}(this,(function(){"use strict";function t(t,n){var e=Object.keys(t);if(Object.getOwnPropertySymbols){var r=Object.getOwnPropertySymbols(t);n&&(r=r.filter((function(n){return Object.getOwnPropertyDescriptor(t,n).enumerable}))),e.push.apply(e,r)}return e}function n(n){for(var e=1;e<arguments.length;e++){var r=null!=arguments[e]?arguments[e]:{};e%2?t(Object(r),!0).forEach((function(t){u(n,t,r[t])})):Object.getOwnPropertyDescriptors?Object.defineProperties(n,Object.getOwnPropertyDescriptors(r)):t(Object(r)).forEach((function(t){Object.defineProperty(n,t,Object.getOwnPropertyDescriptor(r,t))}))}return n}function e(t){return(e="function"==typeof Symbol&&"symbol"==typeof Symbol.iterator?function(t){return typeof t}:function(t){return t&&"function"==typeof Symbol&&t.constructor===Symbol&&t!==Symbol.prototype?"symbol":typeof t})(t)}function r(t,n){if(!(t instanceof n))throw new TypeError("Cannot call a class as a function")}function i(t,n){for(var e=0;e<n.length;e++){var r=n[e];r.enumerable=r.enumerable||!1,r.configurable=!0,"value"in r&&(r.writable=!0),Object.defineProperty(t,r.key,r)}}function o(t,n,e){return n&&i(t.prototype,n),e&&i(t,e),t}function u(t,n,e){return n in t?Object.defineProperty(t,n,{value:e,enumerable:!0,configurable:!0,writable:!0}):t[n]=e,t}function a(t){return(a=Object.setPrototypeOf?Object.getPrototypeOf:function(t){return t.__proto__||Object.getPrototypeOf(t)})(t)}function l(t,n){return(l=Object.setPrototypeOf||function(t,n){return t.__proto__=n,t})(t,n)}function s(){if("undefined"==typeof Reflect||!Reflect.construct)return!1;if(Reflect.construct.sham)return!1;if("function"==typeof Proxy)return!0;try{return Boolean.prototype.valueOf.call(Reflect.construct(Boolean,[],(function(){}))),!0}catch(t){return!1}}function f(t,n,e){return(f=s()?Reflect.construct:function(t,n,e){var r=[null];r.push.apply(r,n);var i=new(Function.bind.apply(t,r));return e&&l(i,e.prototype),i}).apply(null,arguments)}function c(t,n){if(n&&("object"==typeof n||"function"==typeof n))return n;if(void 0!==n)throw new TypeError("Derived constructors may only return object or undefined");return function(t){if(void 0===t)throw new ReferenceError("this hasn't been initialised - super() hasn't been called");return t}(t)}function h(t,n,e){return(h="undefined"!=typeof Reflect&&Reflect.get?Reflect.get:function(t,n,e){var r=function(t,n){for(;!Object.prototype.hasOwnProperty.call(t,n)&&null!==(t=a(t)););return t}(t,n);if(r){var i=Object.getOwnPropertyDescriptor(r,n);return i.get?i.get.call(e):i.value}})(t,n,e||t)}function v(t){return function(t){if(Array.isArray(t))return y(t)}(t)||function(t){if("undefined"!=typeof Symbol&&null!=t[Symbol.iterator]||null!=t["@@iterator"])return Array.from(t)}(t)||function(t,n){if(!t)return;if("string"==typeof t)return y(t,n);var e=Object.prototype.toString.call(t).slice(8,-1);"Object"===e&&t.constructor&&(e=t.constructor.name);if("Map"===e||"Set"===e)return Array.from(t);if("Arguments"===e||/^(?:Ui|I)nt(?:8|16|32)(?:Clamped)?Array$/.test(e))return y(t,n)}(t)||function(){throw new TypeError("Invalid attempt to spread non-iterable instance.\nIn order to be iterable, non-array objects must have a [Symbol.iterator]() method.")}()}function y(t,n){(null==n||n>t.length)&&(n=t.length);for(var e=0,r=new Array(n);e<n;e++)r[e]=t[e];return r}function g(t,n,e){if(Number.isInteger(t))return t;var r=Math.pow(10,n);return Math[e]((+t+Number.EPSILON)*r)/r}Number.isInteger||(Number.isInteger=function(t){return"number"==typeof t&&isFinite(t)&&Math.floor(t)===t}),Number.EPSILON||(Number.EPSILON=2220446049250313e-31);var d=p(Math.pow(10,-6));function p(t){var n=arguments.length>1&&void 0!==arguments[1]?arguments[1]:6;return g(t,n,"round")}function m(t,n){var e=arguments.length>2&&void 0!==arguments[2]?arguments[2]:d;return Math.abs(t-n)<e}p(Math.pow(10,-2)),p(Math.pow(10,-4));var b=Math.PI/180;function w(t){return t}function A(t,n,e){var r=1-e;return 3*e*r*(t*r+n*e)+e*e*e}function _(){var t=arguments.length>0&&void 0!==arguments[0]?arguments[0]:0,n=arguments.length>1&&void 0!==arguments[1]?arguments[1]:0,e=arguments.length>2&&void 0!==arguments[2]?arguments[2]:1,r=arguments.length>3&&void 0!==arguments[3]?arguments[3]:1;return t<0||t>1||e<0||e>1?null:m(t,n)&&m(e,r)?w:function(i){if(i<=0)return t>0?i*n/t:0===n&&e>0?i*r/e:0;if(i>=1)return e<1?1+(i-1)*(r-1)/(e-1):1===e&&t<1?1+(i-1)*(n-1)/(t-1):1;for(var o,u=0,a=1;u<a;){var l=A(t,e,o=(u+a)/2);if(m(i,l))break;l<i?u=o:a=o}return A(n,r,o)}}function x(){return 1}function k(t){return 1===t?1:0}function S(){var t=arguments.length>0&&void 0!==arguments[0]?arguments[0]:1,n=arguments.length>1&&void 0!==arguments[1]?arguments[1]:0;if(1===t){if(0===n)return k;if(1===n)return x}var e=1/t;return function(t){return t>=1?1:(t+=n*e)-t%e}}var O=Math.sin,j=Math.cos,M=Math.acos,E=Math.asin,P=Math.tan,I=Math.atan2,R=Math.PI/180,F=180/Math.PI,N=Math.sqrt,T=function(){function t(){var n=arguments.length>0&&void 0!==arguments[0]?arguments[0]:1,e=arguments.length>1&&void 0!==arguments[1]?arguments[1]:0,i=arguments.length>2&&void 0!==arguments[2]?arguments[2]:0,o=arguments.length>3&&void 0!==arguments[3]?arguments[3]:1,u=arguments.length>4&&void 0!==arguments[4]?arguments[4]:0,a=arguments.length>5&&void 0!==arguments[5]?arguments[5]:0;r(this,t),this.m=[n,e,i,o,u,a],this.i=null,this.w=null,this.s=null}return o(t,[{key:"determinant",get:function(){var t=this.m;return t[0]*t[3]-t[1]*t[2]}},{key:"isIdentity",get:function(){if(null===this.i){var t=this.m;this.i=1===t[0]&&0===t[1]&&0===t[2]&&1===t[3]&&0===t[4]&&0===t[5]}return this.i}},{key:"point",value:function(t,n){var e=this.m;return{x:e[0]*t+e[2]*n+e[4],y:e[1]*t+e[3]*n+e[5]}}},{key:"translateSelf",value:function(){var t=arguments.length>0&&void 0!==arguments[0]?arguments[0]:0,n=arguments.length>1&&void 0!==arguments[1]?arguments[1]:0;if(!t&&!n)return this;var e=this.m;return e[4]+=e[0]*t+e[2]*n,e[5]+=e[1]*t+e[3]*n,this.w=this.s=this.i=null,this}},{key:"rotateSelf",value:function(){var t=arguments.length>0&&void 0!==arguments[0]?arguments[0]:0;if(t%=360){var n=O(t*=R),e=j(t),r=this.m,i=r[0],o=r[1];r[0]=i*e+r[2]*n,r[1]=o*e+r[3]*n,r[2]=r[2]*e-i*n,r[3]=r[3]*e-o*n,this.w=this.s=this.i=null}return this}},{key:"scaleSelf",value:function(){var t=arguments.length>0&&void 0!==arguments[0]?arguments[0]:1,n=arguments.length>1&&void 0!==arguments[1]?arguments[1]:1;if(1!==t||1!==n){var e=this.m;e[0]*=t,e[1]*=t,e[2]*=n,e[3]*=n,this.w=this.s=this.i=null}return this}},{key:"skewSelf",value:function(t,n){if(n%=360,(t%=360)||n){var e=this.m,r=e[0],i=e[1],o=e[2],u=e[3];t&&(t=P(t*R),e[2]+=r*t,e[3]+=i*t),n&&(n=P(n*R),e[0]+=o*n,e[1]+=u*n),this.w=this.s=this.i=null}return this}},{key:"resetSelf",value:function(){var t=arguments.length>0&&void 0!==arguments[0]?arguments[0]:1,n=arguments.length>1&&void 0!==arguments[1]?arguments[1]:0,e=arguments.length>2&&void 0!==arguments[2]?arguments[2]:0,r=arguments.length>3&&void 0!==arguments[3]?arguments[3]:1,i=arguments.length>4&&void 0!==arguments[4]?arguments[4]:0,o=arguments.length>5&&void 0!==arguments[5]?arguments[5]:0,u=this.m;return u[0]=t,u[1]=n,u[2]=e,u[3]=r,u[4]=i,u[5]=o,this.w=this.s=this.i=null,this}},{key:"recomposeSelf",value:function(){var t=arguments.length>0&&void 0!==arguments[0]?arguments[0]:null,n=arguments.length>1&&void 0!==arguments[1]?arguments[1]:null,e=arguments.length>2&&void 0!==arguments[2]?arguments[2]:null,r=arguments.length>3&&void 0!==arguments[3]?arguments[3]:null,i=arguments.length>4&&void 0!==arguments[4]?arguments[4]:null;return this.isIdentity||this.resetSelf(),t&&(t.x||t.y)&&this.translateSelf(t.x,t.y),n&&this.rotateSelf(n),e&&(e.x&&this.skewSelf(e.x,0),e.y&&this.skewSelf(0,e.y)),!r||1===r.x&&1===r.y||this.scaleSelf(r.x,r.y),i&&(i.x||i.y)&&this.translateSelf(i.x,i.y),this}},{key:"decompose",value:function(){var t=arguments.length>0&&void 0!==arguments[0]?arguments[0]:0,n=arguments.length>1&&void 0!==arguments[1]?arguments[1]:0,e=this.m,r=e[0]*e[0]+e[1]*e[1],i=[[e[0],e[1]],[e[2],e[3]]],o=N(r);if(0===o)return{origin:{x:p(e[4]),y:p(e[5])},translate:{x:p(t),y:p(n)},scale:{x:0,y:0},skew:{x:0,y:0},rotate:0};i[0][0]/=o,i[0][1]/=o;var u=e[0]*e[3]-e[1]*e[2]<0;u&&(o=-o);var a=i[0][0]*i[1][0]+i[0][1]*i[1][1];i[1][0]-=i[0][0]*a,i[1][1]-=i[0][1]*a;var l=N(i[1][0]*i[1][0]+i[1][1]*i[1][1]);if(0===l)return{origin:{x:p(e[4]),y:p(e[5])},translate:{x:p(t),y:p(n)},scale:{x:p(o),y:0},skew:{x:0,y:0},rotate:0};i[1][0]/=l,i[1][1]/=l,a/=l;var s=0;return i[1][1]<0?(s=M(i[1][1])*F,i[0][1]<0&&(s=360-s)):s=E(i[0][1])*F,u&&(s=-s),a=I(a,N(i[0][0]*i[0][0]+i[0][1]*i[0][1]))*F,u&&(a=-a),{origin:{x:p(e[4]),y:p(e[5])},translate:{x:p(t),y:p(n)},scale:{x:p(o),y:p(l)},skew:{x:p(a),y:0},rotate:p(s)}}},{key:"clone",value:function(){var t=this.m;return new this.constructor(t[0],t[1],t[2],t[3],t[4],t[5])}},{key:"toString",value:function(){var t=arguments.length>0&&void 0!==arguments[0]?arguments[0]:" ";if(null===this.s){var n=this.m.map((function(t){return p(t)}));1===n[0]&&0===n[1]&&0===n[2]&&1===n[3]?this.s="translate("+n[4]+t+n[5]+")":this.s="matrix("+n.join(t)+")"}return this.s}}],[{key:"create",value:function(t){return t?Array.isArray(t)?f(this,v(t)):t instanceof this?t.clone():(new this).recomposeSelf(t.origin,t.rotate,t.skew,t.scale,t.translate):new this}}]),t}();function q(t,n,e){return t>=.5?e:n}function B(t,n,e){return 0===t||n===e?n:t*(e-n)+n}function D(t,n,e){var r=B(t,n,e);return r<=0?0:r}function L(t,n,e){var r=B(t,n,e);return r<=0?0:r>=1?1:r}function C(t,n,e){return 0===t?n:1===t?e:{x:B(t,n.x,e.x),y:B(t,n.y,e.y)}}function V(t,n,e){var r=function(t,n,e){return Math.round(B(t,n,e))}(t,n,e);return r<=0?0:r>=255?255:r}function G(t,n,e){return 0===t?n:1===t?e:{r:V(t,n.r,e.r),g:V(t,n.g,e.g),b:V(t,n.b,e.b),a:B(t,null==n.a?1:n.a,null==e.a?1:e.a)}}function z(t,n){for(var e=[],r=0;r<t;r++)e.push(n);return e}function Y(t,n){if(--n<=0)return t;var e=(t=Object.assign([],t)).length;do{for(var r=0;r<e;r++)t.push(t[r])}while(--n>0);return t}var $,U=function(){function t(n){r(this,t),this.list=n,this.length=n.length}return o(t,[{key:"setAttribute",value:function(t,n){for(var e=this.list,r=0;r<this.length;r++)e[r].setAttribute(t,n)}},{key:"removeAttribute",value:function(t){for(var n=this.list,e=0;e<this.length;e++)n[e].removeAttribute(t)}},{key:"style",value:function(t,n){for(var e=this.list,r=0;r<this.length;r++)e[r].style[t]=n}}]),t}(),Q=/-./g,H=function(t,n){return n.toUpperCase()};function J(t){return"function"==typeof t?t:q}function Z(t){return t?"function"==typeof t?t:Array.isArray(t)?function(t){var n=arguments.length>1&&void 0!==arguments[1]?arguments[1]:w;if(!Array.isArray(t))return n;switch(t.length){case 1:return S(t[0])||n;case 2:return S(t[0],t[1])||n;case 4:return _(t[0],t[1],t[2],t[3])||n}return n}(t,null):function(t,n){var e=arguments.length>2&&void 0!==arguments[2]?arguments[2]:w;switch(t){case"linear":return w;case"steps":return S(n.steps||1,n.jump||0)||e;case"bezier":case"cubic-bezier":return _(n.x1||0,n.y1||0,n.x2||0,n.y2||0)||e}return e}(t.type,t.value,null):null}function K(t,n,e){var r=arguments.length>3&&void 0!==arguments[3]&&arguments[3],i=n.length-1;if(t<=n[0].t)return r?[0,0,n[0].v]:n[0].v;if(t>=n[i].t)return r?[i,1,n[i].v]:n[i].v;var o,u=n[0],a=null;for(o=1;o<=i;o++){if(!(t>n[o].t)){a=n[o];break}u=n[o]}return null==a?r?[i,1,n[i].v]:n[i].v:u.t===a.t?r?[o,1,a.v]:a.v:(t=(t-u.t)/(a.t-u.t),u.e&&(t=u.e(t)),r?[o,t,e(t,u.v,a.v)]:e(t,u.v,a.v))}function W(t,n){var e=arguments.length>2&&void 0!==arguments[2]?arguments[2]:null;return t&&t.length?"function"!=typeof n?null:("function"!=typeof e&&(e=null),function(r){var i=K(r,t,n);return null!=i&&e&&(i=e(i)),i}):null}function X(t,n){return t.t-n.t}function tt(t,n,r,i,o){var u,a="@"===r[0],l="#"===r[0],s=$[r],f=q;switch(a?(u=r.substr(1),r=u.replace(Q,H)):l&&(r=r.substr(1)),e(s)){case"function":if(f=s(i,o,K,Z,r,a,n,t),l)return f;break;case"string":f=W(i,J(s));break;case"object":if((f=W(i,J(s.i),s.f))&&"function"==typeof s.u)return s.u(n,f,r,a,t)}return f?function(t,n,e){if(arguments.length>3&&void 0!==arguments[3]&&arguments[3])return t instanceof U?function(r){return t.style(n,e(r))}:function(r){return t.style[n]=e(r)};if(Array.isArray(n)){var r=n.length;return function(i){var o=e(i);if(null==o)for(var u=0;u<r;u++)t[u].removeAttribute(n);else for(var a=0;a<r;a++)t[a].setAttribute(n,o)}}return function(r){var i=e(r);null==i?t.removeAttribute(n):t.setAttribute(n,i)}}(n,r,f,a):null}function nt(t,n,r,i){if(!i||"object"!==e(i))return null;var o=null,u=null;return Array.isArray(i)?u=function(t){if(!t||!t.length)return null;for(var n=0;n<t.length;n++)t[n].e&&(t[n].e=Z(t[n].e));return t.sort(X)}(i):(u=i.keys,o=i.data||null),u?tt(t,n,r,u,o):null}function et(t,n,e){if(!e)return null;var r=[];for(var i in e)if(e.hasOwnProperty(i)){var o=nt(t,n,i,e[i]);o&&r.push(o)}return r.length?r:null}function rt(t,n){if(!n.settings.duration||n.settings.duration<0)return null;var e,r,i,o,u,a=function(t,n){if(!n)return null;var e=[];if(Array.isArray(n))for(var r=n.length,i=0;i<r;i++){var o=n[i];if(2===o.length){var u=null;if("string"==typeof o[0])u=t.getElementById(o[0]);else if(Array.isArray(o[0])){u=[];for(var a=0;a<o[0].length;a++)if("string"==typeof o[0][a]){var l=t.getElementById(o[0][a]);l&&u.push(l)}u=u.length?1===u.length?u[0]:new U(u):null}if(u){var s=et(t,u,o[1]);s&&(e=e.concat(s))}}}else for(var f in n)if(n.hasOwnProperty(f)){var c=t.getElementById(f);if(c){var h=et(t,c,n[f]);h&&(e=e.concat(h))}}return e.length?e:null}(t,n.elements);return a?(e=a,r=n.settings,i=r.duration,o=e.length,u=null,function(t,n){var a=r.iterations||1/0,l=(r.alternate&&a%2==0)^r.direction>0?i:0,s=t%i,f=1+(t-s)/i;n*=r.direction,r.alternate&&f%2==0&&(n=-n);var c=!1;if(f>a)s=l,c=!0,-1===r.fill&&(s=r.direction>0?0:i);else if(n<0&&(s=i-s),s===u)return!1;u=s;for(var h=0;h<o;h++)e[h](s);return c}):null}function it(t,n){for(var e=n.querySelectorAll("svg"),r=0;r<e.length;r++)if(e[r].id===t.root&&!e[r].svgatorAnimation)return e[r].svgatorAnimation=!0,e[r];return null}function ot(t){var n=function(t){return t.shadowRoot};return document?Array.from(t.querySelectorAll(":not("+["a","area","audio","br","canvas","circle","datalist","embed","g","head","hr","iframe","img","input","link","object","path","polygon","rect","script","source","style","svg","title","track","video"].join()+")")).filter(n).map(n):[]}function ut(t){var n=arguments.length>1&&void 0!==arguments[1]?arguments[1]:document,e=arguments.length>2&&void 0!==arguments[2]?arguments[2]:0,r=it(t,n);if(r)return r;if(e>=20)return null;for(var i=ot(n),o=0;o<i.length;o++){var u=ut(t,i[o],e+1);if(u)return u}return null}function at(t,n){if($=n,!t||!t.root||!Array.isArray(t.animations))return null;var e=ut(t);if(!e)return null;var r=t.animations.map((function(t){return rt(e,t)})).filter((function(t){return!!t}));return r.length?{svg:e,animations:r,animationSettings:t.animationSettings,options:t.options||void 0}:null}function lt(t){var n=arguments.length>1&&void 0!==arguments[1]?arguments[1]:null,e=arguments.length>2&&void 0!==arguments[2]?arguments[2]:Number,r=arguments.length>3&&void 0!==arguments[3]?arguments[3]:"undefined"!=typeof BigInt&&BigInt,i="0x"+(t.replace(/[^0-9a-fA-F]+/g,"")||27);return n&&r&&e.isSafeInteger&&!e.isSafeInteger(+i)?e(r(i))%n+n:+i}function st(t,n,e){return!t||!e||n>t.length?t:t.substring(0,n)+st(t.substring(n+1),e,e)}function ft(t){var n=arguments.length>1&&void 0!==arguments[1]?arguments[1]:27;return!t||t%n?t%n:[0,1].includes(n)?n:ft(t/n,n)}function ct(t,n,e){if(t&&t.length){var r=lt(e),i=ft(r)+5,o=st(t,ft(r,5),i);return o=o.replace(/\x7c$/g,"==").replace(/\x2f$/g,"="),o=function(t,n,e){var r=+("0x"+t.substring(0,4));t=t.substring(4);for(var i=lt(n,r)%r+e%27,o=[],u=0;u<t.length;u+=2)if("|"!==t[u]){var a=+("0x"+t[u]+t[u+1])-i;o.push(a)}else{var l=+("0x"+t.substring(u+1,u+1+4))-i;u+=3,o.push(l)}return String.fromCharCode.apply(String,o)}(o=(o=atob(o)).replace(/[\x41-\x5A]/g,""),n,r),o=JSON.parse(o)}}var ht=[{key:"alternate",def:!1},{key:"fill",def:1},{key:"iterations",def:0},{key:"direction",def:1},{key:"speed",def:1},{key:"fps",def:100}],vt=function(){function t(n,e){var i=this,o=arguments.length>2&&void 0!==arguments[2]?arguments[2]:null;r(this,t),this._id=0,this._running=!1,this._rollingBack=!1,this._animations=n,this._settings=e,(!o||o<"2022-05-02")&&delete this._settings.speed,ht.forEach((function(t){i._settings[t.key]=i._settings[t.key]||t.def})),this.duration=e.duration,this.offset=e.offset||0,this.rollbackStartOffset=0}return o(t,[{key:"alternate",get:function(){return this._settings.alternate}},{key:"fill",get:function(){return this._settings.fill}},{key:"iterations",get:function(){return this._settings.iterations}},{key:"direction",get:function(){return this._settings.direction}},{key:"speed",get:function(){return this._settings.speed}},{key:"fps",get:function(){return this._settings.fps}},{key:"maxFiniteDuration",get:function(){return this.iterations>0?this.iterations*this.duration:this.duration}},{key:"_apply",value:function(t){for(var n=arguments.length>1&&void 0!==arguments[1]?arguments[1]:{},e=this._animations,r=e.length,i=0,o=0;o<r;o++)n[o]?i++:(n[o]=e[o](t,1),n[o]&&i++);return i}},{key:"_rollback",value:function(t){var n=this,e=1/0,r=null;this.rollbackStartOffset=t,this._rollingBack=!0,this._running=!0;this._id=window.requestAnimationFrame((function i(o){if(n._rollingBack){null==r&&(r=o);var u=Math.round(t-(o-r)*n.speed);if(u>n.duration&&e!==1/0){var a=!!n.alternate&&u/n.duration%2>1,l=u%n.duration;u=(l+=a?n.duration:0)||n.duration}var s=(n.fps?1e3/n.fps:0)*n.speed,f=Math.max(0,u);f<=e-s&&(n.offset=f,e=f,n._apply(f));var c=n.iterations>0&&-1===n.fill&&u>=n.maxFiniteDuration;(u<=0||n.offset<u||c)&&n.stop(),n._id=window.requestAnimationFrame(i)}}))}},{key:"_start",value:function(){var t=this,n=arguments.length>0&&void 0!==arguments[0]?arguments[0]:0,e=-1/0,r=null,i={};this._running=!0;var o=function o(u){null==r&&(r=u);var a=Math.round((u-r)*t.speed+n),l=(t.fps?1e3/t.fps:0)*t.speed;if(a>=e+l&&!t._rollingBack&&(t.offset=a,e=a,t._apply(a,i)===t._animations.length))return void t.pause(!0);t._id=window.requestAnimationFrame(o)};this._id=window.requestAnimationFrame(o)}},{key:"_pause",value:function(){this._id&&window.cancelAnimationFrame(this._id),this._running=!1}},{key:"play",value:function(){if(!this._running)return this._rollingBack?this._rollback(this.offset):this._start(this.offset)}},{key:"stop",value:function(){this._pause(),this.offset=0,this.rollbackStartOffset=0,this._rollingBack=!1,this._apply(0)}},{key:"reachedToEnd",value:function(){return this.iterations>0&&this.offset>=this.iterations*this.duration}},{key:"restart",value:function(){var t=arguments.length>0&&void 0!==arguments[0]&&arguments[0];this.stop(t),this.play(t)}},{key:"pause",value:function(){this._pause()}},{key:"reverse",value:function(){this.direction=-this.direction}}],[{key:"build",value:function(t,n){delete t.animationSettings,t.options=ct(t.options,t.root,"5c7f360c"),t.animations.map((function(n){n.settings=ct(n.s,t.root,"5c7f360c"),delete n.s,t.animationSettings||(t.animationSettings=n.settings)}));var e=t.version;if(!(t=at(t,n)))return null;var r=t.options||{},i=new this(t.animations,t.animationSettings,e);return{el:t.svg,options:r,player:i}}},{key:"push",value:function(t){return this.build(t)}},{key:"init",value:function(){var t=this,n=window.__SVGATOR_PLAYER__&&window.__SVGATOR_PLAYER__["5c7f360c"];Array.isArray(n)&&n.splice(0).forEach((function(n){return t.build(n)}))}}]),t}();function yt(t){return p(t)+""}function gt(t){var n=arguments.length>1&&void 0!==arguments[1]?arguments[1]:" ";return t&&t.length?t.map(yt).join(n):""}function dt(t){if(!t)return"transparent";if(null==t.a||t.a>=1){var n=function(t){return 1===(t=parseInt(t).toString(16)).length?"0"+t:t},e=function(t){return t.charAt(0)===t.charAt(1)},r=n(t.r),i=n(t.g),o=n(t.b);return e(r)&&e(i)&&e(o)&&(r=r.charAt(0),i=i.charAt(0),o=o.charAt(0)),"#"+r+i+o}return"rgba("+t.r+","+t.g+","+t.b+","+t.a+")"}function pt(t){return t?"url(#"+t+")":"none"}!function(){for(var t=0,n=["ms","moz","webkit","o"],e=0;e<n.length&&!window.requestAnimationFrame;++e)window.requestAnimationFrame=window[n[e]+"RequestAnimationFrame"],window.cancelAnimationFrame=window[n[e]+"CancelAnimationFrame"]||window[n[e]+"CancelRequestAnimationFrame"];window.requestAnimationFrame||(window.requestAnimationFrame=function(n){var e=Date.now(),r=Math.max(0,16-(e-t)),i=window.setTimeout((function(){n(e+r)}),r);return t=e+r,i},window.cancelAnimationFrame=window.clearTimeout)}();var mt={f:null,i:function(t,n,e){return 0===t?n:1===t?e:{x:D(t,n.x,e.x),y:D(t,n.y,e.y)}},u:function(t,n){return function(e){var r=n(e);t.setAttribute("rx",yt(r.x)),t.setAttribute("ry",yt(r.y))}}},bt={f:null,i:function(t,n,e){return 0===t?n:1===t?e:{width:D(t,n.width,e.width),height:D(t,n.height,e.height)}},u:function(t,n){return function(e){var r=n(e);t.setAttribute("width",yt(r.width)),t.setAttribute("height",yt(r.height))}}};Object.freeze({M:2,L:2,Z:0,H:1,V:1,C:6,Q:4,T:2,S:4,A:7});var wt={},At=null;function _t(t){var n=function(){if(At)return At;if("object"!==("undefined"==typeof document?"undefined":e(document))||!document.createElementNS)return{};var t=document.createElementNS("http://www.w3.org/2000/svg","svg");return t&&t.style?(t.style.position="absolute",t.style.opacity="0.01",t.style.zIndex="-9999",t.style.left="-9999px",t.style.width="1px",t.style.height="1px",At={svg:t}):{}}().svg;if(!n)return function(t){return null};var r=document.createElementNS(n.namespaceURI,"path");r.setAttributeNS(null,"d",t),r.setAttributeNS(null,"fill","none"),r.setAttributeNS(null,"stroke","none"),n.appendChild(r);var i=r.getTotalLength();return function(t){var n=r.getPointAtLength(i*t);return{x:n.x,y:n.y}}}function xt(t){return wt[t]?wt[t]:wt[t]=_t(t)}function kt(t,n,e,r){if(!t||!r)return!1;var i=["M",t.x,t.y];if(n&&e&&(i.push("C"),i.push(n.x),i.push(n.y),i.push(e.x),i.push(e.y)),n?!e:e){var o=n||e;i.push("Q"),i.push(o.x),i.push(o.y)}return n||e||i.push("L"),i.push(r.x),i.push(r.y),i.join(" ")}function St(t,n,e,r){var i=arguments.length>4&&void 0!==arguments[4]?arguments[4]:1,o=kt(t,n,e,r),u=xt(o);try{return u(i)}catch(t){return null}}function Ot(t,n,e){return t+(n-t)*e}function jt(t,n,e){var r=arguments.length>3&&void 0!==arguments[3]&&arguments[3],i={x:Ot(t.x,n.x,e),y:Ot(t.y,n.y,e)};return r&&(i.a=Mt(t,n)),i}function Mt(t,n){return Math.atan2(n.y-t.y,n.x-t.x)}function Et(t,n,e,r){var i=1-r;return i*i*t+2*i*r*n+r*r*e}function Pt(t,n,e,r){return 2*(1-r)*(n-t)+2*r*(e-n)}function It(t,n,e,r){var i=arguments.length>4&&void 0!==arguments[4]&&arguments[4],o=St(t,n,null,e,r);return o||(o={x:Et(t.x,n.x,e.x,r),y:Et(t.y,n.y,e.y,r)}),i&&(o.a=Rt(t,n,e,r)),o}function Rt(t,n,e,r){return Math.atan2(Pt(t.y,n.y,e.y,r),Pt(t.x,n.x,e.x,r))}function Ft(t,n,e,r,i){var o=i*i;return i*o*(r-t+3*(n-e))+3*o*(t+e-2*n)+3*i*(n-t)+t}function Nt(t,n,e,r,i){var o=1-i;return 3*(o*o*(n-t)+2*o*i*(e-n)+i*i*(r-e))}function Tt(t,n,e,r,i){var o=arguments.length>5&&void 0!==arguments[5]&&arguments[5],u=St(t,n,e,r,i);return u||(u={x:Ft(t.x,n.x,e.x,r.x,i),y:Ft(t.y,n.y,e.y,r.y,i)}),o&&(u.a=qt(t,n,e,r,i)),u}function qt(t,n,e,r,i){return Math.atan2(Nt(t.y,n.y,e.y,r.y,i),Nt(t.x,n.x,e.x,r.x,i))}function Bt(t,n,e){var r=arguments.length>3&&void 0!==arguments[3]&&arguments[3];if(Lt(n)){if(Ct(e))return It(n,e.start,e,t,r)}else if(Lt(e)){if(Vt(n))return It(n,n.end,e,t,r)}else{if(Vt(n))return Ct(e)?Tt(n,n.end,e.start,e,t,r):It(n,n.end,e,t,r);if(Ct(e))return It(n,e.start,e,t,r)}return jt(n,e,t,r)}function Dt(t,n,e){var r=Bt(t,n,e,!0);return r.a=function(t){return arguments.length>1&&void 0!==arguments[1]&&arguments[1]?t+Math.PI:t}(r.a)/b,r}function Lt(t){return!t.type||"corner"===t.type}function Ct(t){return null!=t.start&&!Lt(t)}function Vt(t){return null!=t.end&&!Lt(t)}var Gt=new T;var zt={f:yt,i:B},Yt={f:yt,i:L};function $t(t,n,e){return t.map((function(t){return function(t,n,e){var r=t.v;if(!r||"g"!==r.t||r.s||!r.v||!r.r)return t;var i=e.getElementById(r.r),o=i&&i.querySelectorAll("stop")||[];return r.s=r.v.map((function(t,n){var e=o[n]&&o[n].getAttribute("offset");return{c:t,o:e=p(parseInt(e)/100)}})),delete r.v,t}(t,0,e)}))}var Ut={gt:"gradientTransform",c:{x:"cx",y:"cy"},rd:"r",f:{x:"x1",y:"y1"},to:{x:"x2",y:"y2"}};function Qt(t,n,r,i,o,u,a,l){return $t(t,0,l),n=function(t,n,e){for(var r,i,o,u=t.length-1,a={},l=0;l<=u;l++)(r=t[l]).e&&(r.e=n(r.e)),r.v&&"g"===(i=r.v).t&&i.r&&(o=e.getElementById(i.r))&&(a[i.r]={e:o,s:o.querySelectorAll("stop")});return a}(t,i,l),function(i){var o=r(i,t,Ht);if(!o)return"none";if("c"===o.t)return dt(o.v);if("g"===o.t){if(!n[o.r])return pt(o.r);var u=n[o.r];return function(t,n){for(var e=t.s,r=e.length;r<n.length;r++){var i=e[e.length-1].cloneNode();i.id=Kt(i.id),t.e.appendChild(i),e=t.s=t.e.querySelectorAll("stop")}for(var o=0,u=e.length,a=n.length-1;o<u;o++)e[o].setAttribute("stop-color",dt(n[Math.min(o,a)].c)),e[o].setAttribute("offset",n[Math.min(o,a)].o)}(u,o.s),Object.keys(Ut).forEach((function(t){if(void 0!==o[t])if("object"!==e(Ut[t])){var n,r="gt"===t?(n=o[t],Array.isArray(n)?"matrix("+n.join(" ")+")":""):o[t],i=Ut[t];u.e.setAttribute(i,r)}else Object.keys(Ut[t]).forEach((function(n){if(void 0!==o[t][n]){var e=o[t][n],r=Ut[t][n];u.e.setAttribute(r,e)}}))})),pt(o.r)}return"none"}}function Ht(t,e,r){if(0===t)return e;if(1===t)return r;if(e&&r){var i=e.t;if(i===r.t)switch(e.t){case"c":return{t:i,v:G(t,e.v,r.v)};case"g":if(e.r===r.r){var o={t:i,s:Jt(t,e.s,r.s),r:e.r};return e.gt&&r.gt&&(o.gt=function(t,n,e){var r=n.length;if(r!==e.length)return q(t,n,e);for(var i=new Array(r),o=0;o<r;o++)i[o]=B(t,n[o],e[o]);return i}(t,e.gt,r.gt)),e.c?(o.c=C(t,e.c,r.c),o.rd=D(t,e.rd,r.rd)):e.f&&(o.f=C(t,e.f,r.f),o.to=C(t,e.to,r.to)),o}}if("c"===e.t&&"g"===r.t||"c"===r.t&&"g"===e.t){var u="c"===e.t?e:r,a="g"===e.t?n({},e):n({},r),l=a.s.map((function(t){return{c:u.v,o:t.o}}));return a.s="c"===e.t?Jt(t,l,a.s):Jt(t,a.s,l),a}}return q(t,e,r)}function Jt(t,n,e){if(n.length===e.length)return n.map((function(n,r){return Zt(t,n,e[r])}));for(var r=Math.max(n.length,e.length),i=[],o=0;o<r;o++){var u=Zt(t,n[Math.min(o,n.length-1)],e[Math.min(o,e.length-1)]);i.push(u)}return i}function Zt(t,n,e){return{o:L(t,n.o,e.o||0),c:G(t,n.c,e.c||{})}}function Kt(t){return t.replace(/-fill-([0-9]+)$/,(function(t,n){return"-fill-"+(+n+1)}))}var Wt={fill:Qt,"fill-opacity":Yt,stroke:Qt,"stroke-opacity":Yt,"stroke-width":zt,"stroke-dashoffset":{f:yt,i:B},"stroke-dasharray":{f:function(t){var n=arguments.length>1&&void 0!==arguments[1]?arguments[1]:" ";return t&&t.length>0&&(t=t.map((function(t){return p(t,4)}))),gt(t,n)},i:function(t,n,e){var r,i,o,u=n.length,a=e.length;if(u!==a)if(0===u)n=z(u=a,0);else if(0===a)a=u,e=z(u,0);else{var l=(o=(r=u)*(i=a)/function(t,n){for(var e;n;)e=n,n=t%n,t=e;return t||1}(r,i))<0?-o:o;n=Y(n,Math.floor(l/u)),e=Y(e,Math.floor(l/a)),u=a=l}for(var s=[],f=0;f<u;f++)s.push(p(D(t,n[f],e[f])));return s}},opacity:Yt,transform:function(t,n,r,i){if(!(t=function(t,n){if(!t||"object"!==e(t))return null;var r=!1;for(var i in t)t.hasOwnProperty(i)&&(t[i]&&t[i].length?(t[i].forEach((function(t){t.e&&(t.e=n(t.e))})),r=!0):delete t[i]);return r?t:null}(t,i)))return null;var o=function(e,i,o){var u=arguments.length>3&&void 0!==arguments[3]?arguments[3]:null;return t[e]?r(i,t[e],o):n&&n[e]?n[e]:u};return n&&n.a&&t.o?function(n){var e=r(n,t.o,Dt);return Gt.recomposeSelf(e,o("r",n,B,0)+e.a,o("k",n,C),o("s",n,C),o("t",n,C)).toString()}:function(t){return Gt.recomposeSelf(o("o",t,Bt,null),o("r",t,B,0),o("k",t,C),o("s",t,C),o("t",t,C)).toString()}},r:zt,"#size":bt,"#radius":mt,_:function(t,n){if(Array.isArray(t))for(var e=0;e<t.length;e++)this[t[e]]=n;else this[t]=n}},Xt=function(t){!function(t,n){if("function"!=typeof n&&null!==n)throw new TypeError("Super expression must either be null or a function");t.prototype=Object.create(n&&n.prototype,{constructor:{value:t,writable:!0,configurable:!0}}),n&&l(t,n)}(u,t);var n,e,i=(n=u,e=s(),function(){var t,r=a(n);if(e){var i=a(this).constructor;t=Reflect.construct(r,arguments,i)}else t=r.apply(this,arguments);return c(this,t)});function u(){return r(this,u),i.apply(this,arguments)}return o(u,null,[{key:"build",value:function(t){var n=h(a(u),"build",this).call(this,t,Wt);if(!n)return null;n.el,n.options,function(t,n,e){t.play()}(n.player)}}]),u}(vt);return Xt.init(),Xt}));
(function(s,i,o,w,d,a,b){w[o]=w[o]||{};w[o][s]=w[o][s]||[];w[o][s].push(i);})('5c7f360c',{"root":"eNaMDHydnXU1","version":"2022-05-04","animations":[{"elements":{"eNaMDHydnXU3":{"transform":{"data":{"t":{"x":-364,"y":-115.428222}},"keys":{"o":[{"t":0,"v":{"x":364,"y":162.428223,"type":"corner"},"e":[0.45,0,0.02,1]},{"t":400,"v":{"x":364,"y":116.284149,"type":"corner"}}]}}},"eNaMDHydnXU17":{"transform":{"data":{"t":{"x":-364,"y":-127.25}},"keys":{"o":[{"t":0,"v":{"x":364,"y":227.25,"type":"corner"},"e":[0.45,0,0.02,1]},{"t":1000,"v":{"x":364,"y":129.25,"type":"corner"}}]}}},"eNaMDHydnXU31":{"opacity":[{"t":400,"v":0,"e":[0.42,0,0.58,1]},{"t":1000,"v":1}]}},"s":"MUDA1ZDkwMzc3OThhTTDg3NzY4OVc3ZTg0ODMJzNzRmNDY0NzQ1TjQ1DNDEzNzc5N2VHODc3YDTc4ODk3ZTg0ODMzNzORmNDY0MUkzNzdlVjgB5N2E4Nzc2ODk3ZTg0BODM4ODM3NGZQNDY0MRTM3N2I3ZTgxODEzNzSRmNDY0MTM3NzZCODFGIODk3YVI4NzgzNzY4POTdhMzc0ZjdiNzY4MNTg4N2E0MUwzNzg4ODFVNN2E3YTc5Mzc0ZkgA0Nlg0MTM3N2I4NTg4WMzc0ZjQ2NDU0NTky"}],"options":"MPDAxMDg4MmY4MFk4MTMZlN2Y4MTJmNDcyZjcS5N2M2ZTcxMmZYOGE/W"},'__SVGATOR_PLAYER__',window,document)
]]></script>
</svg>
