<svg width="150" height="40" viewBox="0 0 150 40" fill="none" xmlns="http://www.w3.org/2000/svg">
<path d="M32.1939 26.4317H28.8755L33.1856 13.6163H37.2961L41.6062 26.4317H38.2879L35.2877 16.8452H35.1879L32.1939 26.4317ZM31.751 21.3882H38.6871V23.741H31.751V21.3882Z" fill="white"/>
<path d="M45.2788 13.6163V26.4317H42.1912V13.6163H45.2788Z" fill="white"/>
<path d="M49.4099 26.4317V13.6163H58.317V16.1319H52.4975V18.76H57.8617V21.2818H52.4975V23.9162H58.317V26.4317H49.4099Z" fill="white"/>
<path d="M62.5104 20.9501V26.4317H59.4603V16.8202H62.3607V18.5848H62.4667C62.6788 17.9966 63.0406 17.5356 63.552 17.2019C64.0635 16.864 64.6727 16.695 65.3796 16.695C66.0533 16.695 66.6375 16.8473 67.1324 17.1518C67.6314 17.4522 68.0181 17.8735 68.2925 18.4158C68.5712 18.954 68.7084 19.5839 68.7042 20.3056V26.4317H65.6541V20.9063C65.6582 20.3724 65.5231 19.9552 65.2486 19.6548C64.9784 19.3545 64.602 19.2043 64.1197 19.2043C63.7995 19.2043 63.5167 19.2752 63.2714 19.417C63.0302 19.5547 62.8431 19.7529 62.71 20.0115C62.5811 20.2702 62.5145 20.583 62.5104 20.9501Z" fill="white"/>
<path d="M74.2682 30.2363C73.3576 30.2363 72.5779 30.109 71.9292 29.8546C71.2805 29.6001 70.7711 29.2518 70.401 28.8096C70.0309 28.3674 69.8084 27.8668 69.7336 27.3078L72.6216 27.1451C72.6756 27.3411 72.7754 27.5122 72.9209 27.6582C73.0706 27.8042 73.264 27.9168 73.501 27.9961C73.7422 28.0754 74.025 28.115 74.3493 28.115C74.8608 28.115 75.2829 27.9898 75.6155 27.7395C75.9524 27.4934 76.1208 27.0616 76.1208 26.4442V24.7547H76.0147C75.8942 25.0509 75.7112 25.3158 75.4658 25.5494C75.2205 25.783 74.9149 25.9666 74.5489 26.1001C74.1872 26.2336 73.7713 26.3003 73.3014 26.3003C72.6028 26.3003 71.9625 26.1376 71.3803 25.8122C70.8023 25.4827 70.3386 24.9737 69.9893 24.2854C69.6442 23.5929 69.4716 22.7022 69.4716 21.6134C69.4716 20.4913 69.6504 19.5672 70.008 18.8414C70.3657 18.1113 70.8335 17.5711 71.4115 17.2207C71.9936 16.8702 72.6195 16.695 73.289 16.695C73.7921 16.695 74.2225 16.7826 74.5801 16.9578C74.9419 17.1289 75.2392 17.35 75.4721 17.6211C75.7049 17.8923 75.8817 18.1739 76.0023 18.4659H76.0896V16.8202H79.1273V26.4693C79.1273 27.2827 78.9235 27.969 78.516 28.528C78.1085 29.087 77.5388 29.5104 76.8069 29.7983C76.075 30.0903 75.2288 30.2363 74.2682 30.2363ZM74.3618 24.0726C74.7319 24.0726 75.0479 23.9746 75.3099 23.7785C75.5719 23.5825 75.7736 23.3009 75.9149 22.9338C76.0563 22.5667 76.127 22.1266 76.127 21.6134C76.127 21.092 76.0563 20.6435 75.9149 20.2681C75.7777 19.8884 75.576 19.5964 75.3099 19.392C75.0479 19.1876 74.7319 19.0854 74.3618 19.0854C73.9834 19.0854 73.6632 19.1897 73.4012 19.3983C73.1393 19.6069 72.9397 19.901 72.8024 20.2806C72.6694 20.656 72.6028 21.1003 72.6028 21.6134C72.6028 22.1266 72.6714 22.5667 72.8087 22.9338C72.9459 23.3009 73.1434 23.5825 73.4012 23.7785C73.6632 23.9746 73.9834 24.0726 74.3618 24.0726Z" fill="white"/>
<path d="M80.2814 26.4317V16.8202H83.3315V26.4317H80.2814ZM81.8096 15.7001C81.3813 15.7001 81.0132 15.5583 80.7055 15.2746C80.3978 14.9867 80.2439 14.6405 80.2439 14.2358C80.2439 13.8354 80.3978 13.4933 80.7055 13.2096C81.0132 12.9218 81.3813 12.7778 81.8096 12.7778C82.242 12.7778 82.61 12.9218 82.9136 13.2096C83.2213 13.4933 83.3752 13.8354 83.3752 14.2358C83.3752 14.6405 83.2213 14.9867 82.9136 15.2746C82.61 15.5583 82.242 15.7001 81.8096 15.7001Z" fill="white"/>
<path d="M87.5326 20.9501V26.4317H84.4825V16.8202H87.3829V18.5848H87.489C87.7011 17.9966 88.0628 17.5356 88.5743 17.2019C89.0858 16.864 89.695 16.695 90.4019 16.695C91.0755 16.695 91.6598 16.8473 92.1546 17.1518C92.6536 17.4522 93.0403 17.8735 93.3148 18.4158C93.5934 18.954 93.7306 19.5839 93.7265 20.3056V26.4317H90.6763V20.9063C90.6805 20.3724 90.5454 19.9552 90.2709 19.6548C90.0006 19.3545 89.6243 19.2043 89.1419 19.2043C88.8217 19.2043 88.539 19.2752 88.2936 19.417C88.0524 19.5547 87.8653 19.7529 87.7322 20.0115C87.6033 20.2702 87.5368 20.583 87.5326 20.9501Z" fill="white"/>
<path d="M99.303 26.6132C98.3008 26.6132 97.4359 26.415 96.7082 26.0187C95.9846 25.6182 95.4274 25.0488 95.0365 24.3104C94.6498 23.5679 94.4564 22.6856 94.4564 21.6635C94.4564 20.6706 94.6519 19.8029 95.0428 19.0604C95.4337 18.3136 95.9846 17.7338 96.6957 17.3208C97.4068 16.9036 98.2447 16.695 99.2094 16.695C99.8914 16.695 100.515 16.8014 101.081 17.0142C101.646 17.2269 102.135 17.5419 102.546 17.9591C102.958 18.3762 103.278 18.8914 103.507 19.5047C103.736 20.1137 103.85 20.8125 103.85 21.6009V22.3643H95.5231V20.5872H101.012C101.008 20.2618 100.931 19.9719 100.781 19.7174C100.632 19.4629 100.426 19.2648 100.164 19.1229C99.9059 18.9769 99.6086 18.9039 99.2718 18.9039C98.9308 18.9039 98.6252 18.9811 98.3549 19.1355C98.0846 19.2856 97.8704 19.4921 97.7124 19.755C97.5544 20.0136 97.4712 20.3077 97.4629 20.6373V22.4457C97.4629 22.8378 97.5398 23.182 97.6937 23.4782C97.8476 23.7702 98.0659 23.9975 98.3486 24.1602C98.6314 24.3229 98.9682 24.4043 99.3591 24.4043C99.6294 24.4043 99.8747 24.3667 100.095 24.2916C100.316 24.2166 100.505 24.106 100.663 23.96C100.821 23.814 100.939 23.6346 101.018 23.4219L103.819 23.5032C103.702 24.1331 103.447 24.6817 103.052 25.1489C102.661 25.612 102.147 25.9728 101.511 26.2315C100.875 26.486 100.139 26.6132 99.303 26.6132Z" fill="white"/>
<path d="M109.096 26.6132C108.094 26.6132 107.229 26.415 106.501 26.0187C105.778 25.6182 105.22 25.0488 104.83 24.3104C104.443 23.5679 104.249 22.6856 104.249 21.6635C104.249 20.6706 104.445 19.8029 104.836 19.0604C105.227 18.3136 105.778 17.7338 106.489 17.3208C107.2 16.9036 108.038 16.695 109.002 16.695C109.684 16.695 110.308 16.8014 110.874 17.0142C111.439 17.2269 111.928 17.5419 112.34 17.9591C112.751 18.3762 113.071 18.8914 113.3 19.5047C113.529 20.1137 113.643 20.8125 113.643 21.6009V22.3643H105.316V20.5872H110.805C110.801 20.2618 110.724 19.9719 110.574 19.7174C110.425 19.4629 110.219 19.2648 109.957 19.1229C109.699 18.9769 109.402 18.9039 109.065 18.9039C108.724 18.9039 108.418 18.9811 108.148 19.1355C107.878 19.2856 107.663 19.4921 107.505 19.755C107.347 20.0136 107.264 20.3077 107.256 20.6373V22.4457C107.256 22.8378 107.333 23.182 107.487 23.4782C107.641 23.7702 107.859 23.9975 108.142 24.1602C108.424 24.3229 108.761 24.4043 109.152 24.4043C109.422 24.4043 109.668 24.3667 109.888 24.2916C110.109 24.2166 110.298 24.106 110.456 23.96C110.614 23.814 110.732 23.6346 110.811 23.4219L113.612 23.5032C113.496 24.1331 113.24 24.6817 112.845 25.1489C112.454 25.612 111.94 25.9728 111.304 26.2315C110.668 26.486 109.932 26.6132 109.096 26.6132Z" fill="white"/>
<path d="M114.411 26.4317V16.8202H117.373V18.5723H117.473C117.648 17.9382 117.933 17.4668 118.328 17.1581C118.723 16.8452 119.182 16.6888 119.706 16.6888C119.848 16.6888 119.993 16.6992 120.143 16.7201C120.293 16.7367 120.432 16.7639 120.561 16.8014V19.4609C120.415 19.4108 120.224 19.3712 119.987 19.342C119.754 19.3128 119.546 19.2982 119.363 19.2982C119.001 19.2982 118.675 19.3795 118.384 19.5422C118.097 19.7007 117.87 19.9239 117.704 20.2118C117.542 20.4954 117.461 20.8292 117.461 21.213V26.4317H114.411Z" fill="white"/>
<path d="M3.51295 3.52423H145.963V36.4758H90.553V40H149.476V0H0V40H94.5995V36.4758H3.51295V3.52423Z" fill="white"/>
</svg>
