<svg width="124" height="39" viewBox="0 0 124 39" fill="none" xmlns="http://www.w3.org/2000/svg">
    <path
        d="M26.6493 26.082H23.8966L27.472 15.4849H30.882L34.4574 26.082H31.7046L29.2158 18.1549H29.133L26.6493 26.082ZM26.2819 21.9114H32.0358V23.8571H26.2819V21.9114Z"
        fill="white" />
    <path d="M37.5041 15.4849V26.082H34.9427V15.4849H37.5041Z" fill="white" />
    <path
        d="M40.9311 26.082V15.4849H48.3201V17.565H43.4924V19.7383H47.9424V21.8236H43.4924V24.0019H48.3201V26.082H40.9311Z"
        fill="white" />
    <path
        d="M51.7988 21.5494V26.082H49.2685V18.1342H51.6746V19.5934H51.7625C51.9385 19.107 52.2385 18.7259 52.6628 18.4499C53.0871 18.1705 53.5926 18.0308 54.179 18.0308C54.7378 18.0308 55.2225 18.1567 55.633 18.4085C56.047 18.6569 56.3677 19.0053 56.5954 19.4537C56.8265 19.8987 56.9403 20.4196 56.937 21.0164V26.082H54.4067V21.5131C54.41 21.0716 54.298 20.7266 54.0703 20.4783C53.8461 20.2299 53.5339 20.1057 53.1338 20.1057C52.8681 20.1057 52.6335 20.1643 52.43 20.2816C52.2299 20.3954 52.0747 20.5593 51.9643 20.7732C51.8573 20.9871 51.8023 21.2458 51.7988 21.5494Z"
        fill="white" />
    <path
        d="M61.5527 29.2281C60.7971 29.2281 60.1503 29.1229 59.6122 28.9125C59.0741 28.7021 58.6515 28.414 58.3445 28.0484C58.0375 27.6827 57.8529 27.2687 57.7908 26.8065L60.1866 26.672C60.2315 26.8341 60.3143 26.9755 60.4349 27.0963C60.5592 27.217 60.7196 27.3102 60.9162 27.3757C61.1162 27.4412 61.3508 27.474 61.62 27.474C62.0443 27.474 62.3943 27.3706 62.6703 27.1635C62.9497 26.9601 63.0895 26.603 63.0895 26.0924V24.6953H63.0015C62.9015 24.9403 62.7497 25.1594 62.5461 25.3525C62.3426 25.5457 62.089 25.6975 61.7855 25.8078C61.4853 25.9183 61.1404 25.9735 60.7507 25.9735C60.171 25.9735 59.6399 25.8389 59.1569 25.5699C58.6773 25.2974 58.2928 24.8764 58.003 24.3073C57.7167 23.7346 57.5736 22.9982 57.5736 22.0979C57.5736 21.1698 57.7219 20.4059 58.0186 19.8056C58.3152 19.2019 58.7033 18.7552 59.1828 18.4654C59.6657 18.1756 60.1849 18.0308 60.7403 18.0308C61.1576 18.0308 61.5148 18.1032 61.8113 18.2481C62.1115 18.3895 62.3581 18.5723 62.5514 18.7966C62.7444 19.0208 62.8912 19.2536 62.9911 19.4952H63.0635V18.1342H65.5835V26.1132C65.5835 26.7858 65.4144 27.3532 65.0764 27.8156C64.7383 28.2778 64.2658 28.6279 63.6586 28.866C63.0514 29.1074 62.3495 29.2281 61.5527 29.2281ZM61.6303 24.1314C61.9373 24.1314 62.1995 24.0503 62.4167 23.8882C62.6341 23.726 62.8014 23.4932 62.9187 23.1897C63.036 22.886 63.0946 22.5222 63.0946 22.0979C63.0946 21.6666 63.036 21.2957 62.9187 20.9854C62.8049 20.6714 62.6375 20.4299 62.4167 20.2609C62.1995 20.0919 61.9373 20.0074 61.6303 20.0074C61.3163 20.0074 61.0507 20.0936 60.8334 20.2661C60.616 20.4385 60.4505 20.6817 60.3367 20.9957C60.2262 21.3061 60.171 21.6736 60.171 22.0979C60.171 22.5222 60.228 22.886 60.3418 23.1897C60.4557 23.4932 60.6195 23.726 60.8334 23.8882C61.0507 24.0503 61.3163 24.1314 61.6303 24.1314Z"
        fill="white" />
    <path
        d="M66.5409 26.082V18.1342H69.0712V26.082H66.5409ZM67.8086 17.2079C67.4534 17.2079 67.1481 17.0907 66.8928 16.8561C66.6375 16.6181 66.5099 16.3317 66.5099 15.9971C66.5099 15.666 66.6375 15.3831 66.8928 15.1485C67.1481 14.9105 67.4534 14.7915 67.8086 14.7915C68.1673 14.7915 68.4728 14.9105 68.7245 15.1485C68.9798 15.3831 69.1075 15.666 69.1075 15.9971C69.1075 16.3317 68.9798 16.6181 68.7245 16.8561C68.4728 17.0907 68.1673 17.2079 67.8086 17.2079Z"
        fill="white" />
    <path
        d="M72.5563 21.5494V26.082H70.0261V18.1342H72.4322V19.5934H72.52C72.6961 19.107 72.9961 18.7259 73.4204 18.4499C73.8447 18.1705 74.3502 18.0308 74.9365 18.0308C75.4953 18.0308 75.9801 18.1567 76.3906 18.4085C76.8045 18.6569 77.1254 19.0053 77.353 19.4537C77.5841 19.8987 77.6979 20.4196 77.6945 21.0164V26.082H75.1643V21.5131C75.1676 21.0716 75.0556 20.7266 74.8278 20.4783C74.6037 20.2299 74.2915 20.1057 73.8913 20.1057C73.6257 20.1057 73.3911 20.1643 73.1876 20.2816C72.9875 20.3954 72.8323 20.5593 72.7219 20.7732C72.6149 20.9871 72.5598 21.2458 72.5563 21.5494Z"
        fill="white" />
    <path
        d="M82.3206 26.2321C81.4893 26.2321 80.7717 26.0684 80.168 25.7406C79.5678 25.4094 79.1056 24.9385 78.7812 24.328C78.4604 23.714 78.3001 22.9844 78.3001 22.1393C78.3001 21.3182 78.4621 20.6007 78.7865 19.9867C79.1107 19.3691 79.5678 18.8898 80.1576 18.5482C80.7476 18.2032 81.4427 18.0308 82.2429 18.0308C82.8087 18.0308 83.3261 18.1187 83.7953 18.2947C84.2644 18.4706 84.6697 18.731 85.0113 19.076C85.3528 19.421 85.6184 19.8469 85.8082 20.354C85.9979 20.8577 86.0927 21.4355 86.0927 22.0875V22.7187H79.1849V21.2493H83.7383C83.7348 20.9801 83.671 20.7404 83.5469 20.53C83.4227 20.3196 83.252 20.1557 83.0347 20.0384C82.8208 19.9177 82.5741 19.8573 82.2946 19.8573C82.0118 19.8573 81.7583 19.9211 81.534 20.0487C81.3098 20.1729 81.1321 20.3437 81.0012 20.5611C80.87 20.775 80.801 21.0182 80.7941 21.2906V22.7861C80.7941 23.1103 80.8579 23.3948 80.9856 23.6398C81.1132 23.8812 81.2943 24.0693 81.5289 24.2038C81.7635 24.3383 82.0428 24.4056 82.3672 24.4056C82.5913 24.4056 82.7949 24.3746 82.9777 24.3125C83.1606 24.2503 83.3175 24.159 83.4485 24.0382C83.5797 23.9175 83.678 23.7692 83.7436 23.5933L86.0668 23.6605C85.9702 24.1814 85.758 24.635 85.4303 25.0214C85.1061 25.4042 84.6801 25.7026 84.1523 25.9165C83.6245 26.1269 83.014 26.2321 82.3206 26.2321Z"
        fill="white" />
    <path
        d="M90.4445 26.2321C89.6131 26.2321 88.8956 26.0684 88.2919 25.7406C87.6918 25.4094 87.2294 24.9385 86.9052 24.328C86.5844 23.714 86.4241 22.9844 86.4241 22.1393C86.4241 21.3182 86.5861 20.6007 86.9105 19.9867C87.2347 19.3691 87.6918 18.8898 88.2816 18.5482C88.8714 18.2032 89.5666 18.0308 90.3669 18.0308C90.9327 18.0308 91.4501 18.1187 91.9193 18.2947C92.3883 18.4706 92.7937 18.731 93.1352 19.076C93.4768 19.421 93.7423 19.8469 93.9321 20.354C94.1218 20.8577 94.2167 21.4355 94.2167 22.0875V22.7187H87.3088V21.2493H91.8623C91.8588 20.9801 91.795 20.7404 91.6708 20.53C91.5467 20.3196 91.3759 20.1557 91.1585 20.0384C90.9448 19.9177 90.6981 19.8573 90.4186 19.8573C90.1358 19.8573 89.8822 19.9211 89.658 20.0487C89.4337 20.1729 89.2561 20.3437 89.125 20.5611C88.994 20.775 88.9249 21.0182 88.9181 21.2906V22.7861C88.9181 23.1103 88.9819 23.3948 89.1095 23.6398C89.2372 23.8812 89.4183 24.0693 89.6529 24.2038C89.8873 24.3383 90.1668 24.4056 90.491 24.4056C90.7153 24.4056 90.9188 24.3746 91.1017 24.3125C91.2846 24.2503 91.4415 24.159 91.5725 24.0382C91.7036 23.9175 91.802 23.7692 91.8675 23.5933L94.1908 23.6605C94.0942 24.1814 93.882 24.635 93.5543 25.0214C93.2301 25.4042 92.804 25.7026 92.2763 25.9165C91.7485 26.1269 91.1378 26.2321 90.4445 26.2321Z"
        fill="white" />
    <path
        d="M94.8533 26.0821V18.1343H97.3112V19.5831H97.3939C97.5388 19.0588 97.7751 18.669 98.1028 18.4137C98.4305 18.155 98.8117 18.0256 99.2463 18.0256C99.3636 18.0256 99.4843 18.0343 99.6086 18.0515C99.7327 18.0653 99.8483 18.0877 99.9552 18.1188V20.3179C99.8344 20.2765 99.6758 20.2437 99.4792 20.2196C99.286 20.1954 99.1135 20.1834 98.9618 20.1834C98.6616 20.1834 98.3909 20.2506 98.1493 20.3851C97.9113 20.5162 97.7234 20.7008 97.5854 20.9388C97.4507 21.1734 97.3836 21.4494 97.3836 21.7667V26.0821H94.8533Z"
        fill="white" />
    <path fill-rule="evenodd" clip-rule="evenodd"
        d="M2.91422 3.22233H121.086V33.3511H81.5981V36.5734H121.086H124V33.3511V3.22233V0H121.086H2.91422H0V3.22233V33.3511V36.5734H2.91422H42.5476V33.3511H2.91422V3.22233Z"
        fill="white" />
    <path
        d="M70.5323 36.2295C70.5323 36.4393 70.5702 36.6171 70.646 36.7628C70.7218 36.9085 70.8209 37.028 70.9433 37.1213C71.0715 37.2087 71.2201 37.2757 71.3891 37.3223C71.5581 37.3631 71.733 37.3835 71.9137 37.3835C72.0361 37.3835 72.1672 37.3748 72.3071 37.3573C72.447 37.334 72.5781 37.2932 72.7005 37.2349C72.8229 37.1766 72.9249 37.098 73.0065 36.9989C73.0881 36.894 73.1289 36.7628 73.1289 36.6055C73.1289 36.4364 73.0735 36.2995 72.9628 36.1945C72.8579 36.0896 72.718 36.0022 72.5432 35.9323C72.3683 35.8623 72.1701 35.8011 71.9487 35.7487C71.7272 35.6962 71.5028 35.6379 71.2755 35.5738C71.0423 35.5155 70.815 35.4456 70.5935 35.364C70.3721 35.2766 70.1739 35.1658 69.999 35.0318C69.8242 34.8977 69.6814 34.7316 69.5707 34.5334C69.4657 34.3294 69.4133 34.0847 69.4133 33.7991C69.4133 33.4785 69.4803 33.2016 69.6144 32.9685C69.7542 32.7295 69.9349 32.5314 70.1564 32.374C70.3779 32.2166 70.6285 32.1001 70.9083 32.0243C71.188 31.9485 71.4678 31.9106 71.7476 31.9106C72.074 31.9106 72.3858 31.9485 72.683 32.0243C72.9861 32.0942 73.2542 32.2108 73.4874 32.374C73.7205 32.5372 73.9041 32.747 74.0381 33.0035C74.178 33.2541 74.248 33.5601 74.248 33.9215H72.9191C72.9074 33.7349 72.8666 33.5805 72.7967 33.4581C72.7326 33.3357 72.6452 33.2395 72.5344 33.1696C72.4237 33.0996 72.2954 33.0501 72.1497 33.021C72.0099 32.9918 71.8554 32.9772 71.6864 32.9772C71.5756 32.9772 71.4649 32.9889 71.3542 33.0122C71.2434 33.0355 71.1414 33.0763 71.0482 33.1346C70.9607 33.1929 70.8879 33.2658 70.8296 33.3532C70.7713 33.4406 70.7422 33.5513 70.7422 33.6854C70.7422 33.8078 70.7655 33.9069 70.8121 33.9827C70.8587 34.0584 70.9491 34.1284 71.0831 34.1925C71.223 34.2566 71.4124 34.3207 71.6514 34.3848C71.8962 34.4489 72.2138 34.5305 72.6044 34.6296C72.7209 34.6529 72.8812 34.6966 73.0852 34.7607C73.295 34.819 73.5019 34.9152 73.7059 35.0493C73.9099 35.1833 74.0848 35.364 74.2305 35.5913C74.382 35.8128 74.4578 36.0984 74.4578 36.4481C74.4578 36.7337 74.4024 36.9989 74.2917 37.2437C74.1809 37.4885 74.0148 37.7012 73.7934 37.8819C73.5777 38.0567 73.3067 38.1937 72.9803 38.2928C72.6597 38.3919 72.2867 38.4414 71.8612 38.4414C71.5174 38.4414 71.1822 38.3977 70.8558 38.3103C70.5353 38.2287 70.2497 38.0975 69.999 37.9168C69.7542 37.7362 69.559 37.5059 69.4133 37.2262C69.2676 36.9464 69.1976 36.6142 69.2035 36.2295H70.5323Z"
        fill="white" />
    <path d="M67.0185 32.0593H68.3911V38.3016H67.0185V32.0593Z" fill="white" />
    <path
        d="M62.0817 34.8832H63.5854C63.9002 34.8832 64.1362 34.8133 64.2936 34.6734C64.451 34.5335 64.5296 34.3062 64.5296 33.9915C64.5296 33.6884 64.451 33.4698 64.2936 33.3358C64.1362 33.1959 63.9002 33.1259 63.5854 33.1259H62.0817V34.8832ZM60.7091 32.0593H64.075C64.3548 32.0593 64.6054 32.106 64.8269 32.1992C65.0542 32.2866 65.2465 32.409 65.4039 32.5664C65.5671 32.7238 65.6895 32.9074 65.7711 33.1172C65.8585 33.3212 65.9022 33.5427 65.9022 33.7816C65.9022 34.1488 65.8236 34.4665 65.6662 34.7346C65.5147 35.0027 65.264 35.2067 64.9143 35.3466V35.3641C65.0833 35.4107 65.2232 35.4835 65.334 35.5826C65.4447 35.6759 65.5351 35.7895 65.605 35.9236C65.6749 36.0518 65.7245 36.1946 65.7536 36.352C65.7886 36.5093 65.8119 36.6667 65.8236 36.8241C65.8294 36.9232 65.8352 37.0397 65.841 37.1738C65.8469 37.3078 65.8556 37.4448 65.8673 37.5847C65.8848 37.7246 65.9081 37.8586 65.9372 37.9868C65.9722 38.1092 66.0217 38.2142 66.0858 38.3016H64.7132C64.6375 38.1034 64.5908 37.8674 64.5734 37.5934C64.5559 37.3195 64.5296 37.0572 64.4947 36.8066C64.448 36.4802 64.349 36.2412 64.1974 36.0897C64.0459 35.9382 63.7982 35.8624 63.4543 35.8624H62.0817V38.3016H60.7091V32.0593Z"
        fill="white" />
    <path
        d="M56.2978 35.8886H57.9152L57.1283 33.598H57.1109L56.2978 35.8886ZM56.4289 32.0593H57.8365L60.1708 38.3016H58.7457L58.2736 36.9115H55.9393L55.4498 38.3016H54.0684L56.4289 32.0593Z"
        fill="white" />
    <path
        d="M50.9143 34.9969H51.9809C52.1383 34.9969 52.2898 34.9852 52.4355 34.9619C52.5812 34.9386 52.7095 34.8949 52.8202 34.8307C52.931 34.7608 53.0184 34.6646 53.0825 34.5422C53.1524 34.4198 53.1874 34.2596 53.1874 34.0614C53.1874 33.8632 53.1524 33.7029 53.0825 33.5805C53.0184 33.4582 52.931 33.3649 52.8202 33.3008C52.7095 33.2308 52.5812 33.1842 52.4355 33.1609C52.2898 33.1376 52.1383 33.1259 51.9809 33.1259H50.9143V34.9969ZM49.5417 32.0593H52.3569C52.7474 32.0593 53.0796 32.1176 53.3535 32.2342C53.6275 32.3449 53.8489 32.4935 54.018 32.6801C54.1928 32.8666 54.3181 33.0793 54.3939 33.3183C54.4755 33.5572 54.5163 33.8049 54.5163 34.0614C54.5163 34.312 54.4755 34.5597 54.3939 34.8045C54.3181 35.0435 54.1928 35.2562 54.018 35.4427C53.8489 35.6292 53.6275 35.7808 53.3535 35.8974C53.0796 36.0081 52.7474 36.0635 52.3569 36.0635H50.9143V38.3016H49.5417V32.0593Z"
        fill="white" />
    <path
        d="M104.631 28.9196C104.47 28.9196 104.357 28.8789 104.291 28.7976C104.228 28.7163 104.213 28.5981 104.246 28.443L104.509 27.1735H104.127L104.177 26.9181H104.562L104.688 26.3195L104.997 26.2776L104.863 26.9181H105.324L105.275 27.1735H104.814L104.554 28.4125C104.531 28.5167 104.54 28.5854 104.581 28.6184C104.622 28.6489 104.685 28.6642 104.772 28.6642H104.958L104.905 28.9196H104.631Z"
        fill="white" />
    <path
        d="M103.085 28.9196L103.501 26.9181H103.809L103.386 28.9196H103.085ZM103.748 26.575C103.695 26.575 103.652 26.5597 103.619 26.5292C103.586 26.4987 103.569 26.4593 103.569 26.411C103.569 26.3576 103.588 26.3144 103.626 26.2814C103.665 26.2458 103.714 26.228 103.775 26.228C103.828 26.228 103.872 26.2433 103.905 26.2738C103.938 26.3017 103.954 26.3411 103.954 26.392C103.954 26.4453 103.935 26.4898 103.897 26.5254C103.862 26.5584 103.812 26.575 103.748 26.575Z"
        fill="white" />
    <path
        d="M100.844 28.9195L101.259 26.918H101.541L101.488 27.2802H101.511C101.592 27.1455 101.698 27.0451 101.827 26.979C101.957 26.9129 102.089 26.8799 102.224 26.8799C102.331 26.8799 102.425 26.8989 102.506 26.9371C102.59 26.9752 102.657 27.0324 102.708 27.1086C102.759 27.1823 102.792 27.2764 102.807 27.3907C102.822 27.5026 102.814 27.6347 102.78 27.7872L102.544 28.9195H102.239L102.468 27.8177C102.498 27.6729 102.505 27.5509 102.487 27.4517C102.469 27.3501 102.426 27.2726 102.357 27.2192C102.291 27.1658 102.198 27.1391 102.079 27.1391C101.967 27.1391 101.863 27.1658 101.766 27.2192C101.672 27.2726 101.591 27.3475 101.522 27.4441C101.456 27.5382 101.411 27.65 101.385 27.7796L101.145 28.9195H100.844Z"
        fill="white" />
    <path
        d="M99.9577 28.9196L100.373 26.9181H100.682L100.259 28.9196H99.9577ZM100.621 26.575C100.568 26.575 100.524 26.5597 100.491 26.5292C100.458 26.4987 100.442 26.4593 100.442 26.411C100.442 26.3576 100.461 26.3144 100.499 26.2814C100.537 26.2458 100.587 26.228 100.648 26.228C100.701 26.228 100.744 26.2433 100.777 26.2738C100.81 26.3017 100.827 26.3411 100.827 26.392C100.827 26.4453 100.808 26.4898 100.77 26.5254C100.734 26.5584 100.685 26.575 100.621 26.575Z"
        fill="white" />
</svg>
    