<svg width="201" height="55" viewBox="0 0 201 55" fill="none" xmlns="http://www.w3.org/2000/svg">
<g clip-path="url(#clip0_900_3966)">
<path fill-rule="evenodd" clip-rule="evenodd" d="M18.0338 6.67299C23.8838 0.0624321 33.572 -1.87681 41.5365 1.93892C52.1179 7.00921 55.9788 19.9251 50.2175 29.8881L37.2566 52.2764C36.5324 53.5271 35.3408 54.4401 33.9431 54.8141C32.5455 55.1881 31.0564 54.9929 29.8025 54.2718L45.4937 27.1617C49.6734 19.9307 46.8776 10.5579 39.206 6.86758C33.4492 4.09877 26.4125 5.48197 22.1601 10.2436C19.8142 12.8577 18.4973 16.2327 18.4534 19.7427C18.4095 23.2527 19.6413 26.6595 21.9211 29.3315C22.3308 29.8106 22.7714 30.2627 23.2406 30.6845L14.0805 46.5394C13.7222 47.1592 13.2453 47.7021 12.6768 48.1382C12.1084 48.5738 11.4596 48.8934 10.7675 49.0787C10.0753 49.2641 9.35349 49.3114 8.64305 49.2179C7.93262 49.1244 7.24756 48.8923 6.62694 48.5348L16.5715 31.322C15.1431 29.265 14.1173 26.9568 13.5482 24.5191L7.45429 35.0878C6.72992 36.3391 5.53807 37.2515 4.14049 37.6255C2.74285 38.0001 1.25369 37.8048 0 37.0832L15.7588 9.82114C16.4147 8.70161 17.1765 7.64737 18.0338 6.67299ZM36.2224 15.3506C40.0177 17.5397 41.3284 22.4081 39.1322 26.1969L24.0209 52.2731C23.2967 53.5238 22.1045 54.4368 20.7069 54.8108C19.3092 55.1848 17.8203 54.9896 16.5666 54.2685L30.5983 29.9915C29.4721 29.755 28.4115 29.2771 27.4885 28.5907C26.5656 27.9048 25.8029 27.0267 25.2528 26.0175C24.7026 25.0082 24.3783 23.8918 24.3023 22.7453C24.2263 21.5987 24.4003 20.4493 24.8128 19.3764C25.2247 18.3036 25.8651 17.3329 26.6895 16.5314C27.5139 15.7298 28.5024 15.1164 29.5872 14.7336C30.6721 14.3509 31.8274 14.2078 32.9728 14.3143C34.1182 14.4208 35.2273 14.7744 36.2224 15.3506ZM30.726 20.2511C30.4661 20.4502 30.248 20.6985 30.0845 20.9818C29.8378 21.4084 29.7227 21.8984 29.7552 22.3898C29.7877 22.8813 29.965 23.3522 30.2651 23.7429C30.5658 24.1336 30.9749 24.4266 31.4419 24.5849C31.9089 24.7432 32.4128 24.7596 32.8891 24.6321C33.3655 24.5046 33.7928 24.2389 34.1182 23.8686C34.4431 23.4983 34.6513 23.04 34.7157 22.5517C34.7796 22.0634 34.6976 21.5669 34.4795 21.1252C34.2614 20.6835 33.9172 20.3162 33.4899 20.0699C33.2069 19.9064 32.8935 19.8003 32.5692 19.7576C32.2443 19.7149 31.9144 19.7365 31.5983 19.8212C31.2822 19.9059 30.9854 20.052 30.726 20.2511Z" fill="#615EFF"/>
<path fill-rule="evenodd" clip-rule="evenodd" d="M18.0338 6.67299C23.8838 0.0624321 33.572 -1.87681 41.5365 1.93892C52.1179 7.00921 55.9788 19.9251 50.2175 29.8881L37.2566 52.2764C36.5324 53.5271 35.3408 54.4401 33.9431 54.8141C32.5455 55.1881 31.0564 54.9929 29.8025 54.2718L45.4937 27.1617C49.6734 19.9307 46.8776 10.5579 39.206 6.86758C33.4492 4.09877 26.4125 5.48197 22.1601 10.2436C19.8142 12.8577 18.4973 16.2327 18.4534 19.7427C18.4095 23.2527 19.6413 26.6595 21.9211 29.3315C22.3308 29.8106 22.7714 30.2627 23.2406 30.6845L14.0805 46.5394C13.7222 47.1592 13.2453 47.7021 12.6768 48.1382C12.1084 48.5738 11.4596 48.8934 10.7675 49.0787C10.0753 49.2641 9.35349 49.3114 8.64305 49.2179C7.93262 49.1244 7.24756 48.8923 6.62694 48.5348L16.5715 31.322C15.1431 29.265 14.1173 26.9568 13.5482 24.5191L7.45429 35.0878C6.72992 36.3391 5.53807 37.2515 4.14049 37.6255C2.74285 38.0001 1.25369 37.8048 0 37.0832L15.7588 9.82114C16.4147 8.70161 17.1765 7.64737 18.0338 6.67299ZM36.2224 15.3506C40.0177 17.5397 41.3284 22.4081 39.1322 26.1969L24.0209 52.2731C23.2967 53.5238 22.1045 54.4368 20.7069 54.8108C19.3092 55.1848 17.8203 54.9896 16.5666 54.2685L30.5983 29.9915C29.4721 29.755 28.4115 29.2771 27.4885 28.5907C26.5656 27.9048 25.8029 27.0267 25.2528 26.0175C24.7026 25.0082 24.3783 23.8918 24.3023 22.7453C24.2263 21.5987 24.4003 20.4493 24.8128 19.3764C25.2247 18.3036 25.8651 17.3329 26.6895 16.5314C27.5139 15.7298 28.5024 15.1164 29.5872 14.7336C30.6721 14.3509 31.8274 14.2078 32.9728 14.3143C34.1182 14.4208 35.2273 14.7744 36.2224 15.3506ZM30.726 20.2511C30.4661 20.4502 30.248 20.6985 30.0845 20.9818C29.8378 21.4084 29.7227 21.8984 29.7552 22.3898C29.7877 22.8813 29.965 23.3522 30.2651 23.7429C30.5658 24.1336 30.9749 24.4266 31.4419 24.5849C31.9089 24.7432 32.4128 24.7596 32.8891 24.6321C33.3655 24.5046 33.7928 24.2389 34.1182 23.8686C34.4431 23.4983 34.6513 23.04 34.7157 22.5517C34.7796 22.0634 34.6976 21.5669 34.4795 21.1252C34.2614 20.6835 33.9172 20.3162 33.4899 20.0699C33.2069 19.9064 32.8935 19.8003 32.5692 19.7576C32.2443 19.7149 31.9144 19.7365 31.5983 19.8212C31.2822 19.9059 30.9854 20.052 30.726 20.2511Z" fill="#615EFF"/>
<path fill-rule="evenodd" clip-rule="evenodd" d="M62.7781 41.8L74.1035 12.7961H80.7442L92.0696 41.8H85.7389L83.2999 35.3034H71.5483L69.1088 41.8H62.7781ZM81.3637 30.0823C80.5894 27.8135 79.8989 25.7834 79.292 23.9916C78.6857 22.1998 78.0662 20.35 77.4335 18.4422C76.8013 20.35 76.1751 22.1998 75.5556 23.9916C74.9493 25.7834 74.2588 27.8135 73.4839 30.0823H81.3637ZM93.9865 15.8898C93.9865 14.9617 94.2706 14.2141 94.8384 13.6469C95.4062 13.0797 96.1545 12.7961 97.0841 12.7961C98.0131 12.7961 98.762 13.0797 99.3298 13.6469C99.8975 14.2141 100.182 14.9617 100.182 15.8898C100.182 16.818 99.8975 17.5656 99.3298 18.1328C98.762 18.7 98.0131 18.9836 97.0841 18.9836C96.1545 18.9836 95.4062 18.7 94.8384 18.1328C94.2706 17.5656 93.9865 16.818 93.9865 15.8898ZM94.296 41.8V22.4641H99.8717V41.8H94.296ZM104.596 22.4641V41.8H110.171V33.2728C110.171 31.2362 110.63 29.6698 111.546 28.5742C112.463 27.4656 113.669 26.9113 115.166 26.9113C115.889 26.9113 116.625 27.0338 117.374 27.2787L118.148 22.4641C117.257 22.2063 116.392 22.0773 115.554 22.0773C113.088 22.0773 111.152 23.1279 109.745 25.2291V22.4641H104.596ZM120.277 41.8V12.7961H125.853V24.3783C126.666 23.6564 127.595 23.0957 128.641 22.6961C129.686 22.2836 130.816 22.0773 132.029 22.0773C133.849 22.0773 135.468 22.5156 136.888 23.3922C138.308 24.2559 139.425 25.4482 140.237 26.9694C141.051 28.4774 141.457 30.1983 141.457 32.1321C141.457 34.0659 141.051 35.7929 140.237 37.3142C139.425 38.8223 138.308 40.0147 136.888 40.8914C135.468 41.7549 133.849 42.1867 132.029 42.1867C130.777 42.1867 129.609 41.9738 128.525 41.5487C127.441 41.1103 126.492 40.4982 125.679 39.7117L125.543 41.8H120.277ZM131.321 37.3527C132.741 37.3527 133.916 36.8566 134.845 35.8639C135.774 34.8711 136.238 33.6276 136.238 32.1321C136.238 30.6366 135.774 29.3926 134.845 28.4004C133.916 27.4076 132.741 26.9113 131.321 26.9113C129.902 26.9113 128.727 27.4076 127.797 28.4004C126.868 29.3926 126.404 30.6366 126.404 32.1321C126.404 33.6276 126.868 34.8711 127.797 35.8639C128.727 36.8566 129.902 37.3527 131.321 37.3527ZM150.774 31.9193L146.243 22.4641H140.416L149.438 40.8331L145.024 51.4679H150.89L162.932 22.4641H157.047L151.819 35.0713C151.69 34.4394 151.535 33.8591 151.355 33.3311C151.174 32.8025 150.98 32.3318 150.774 31.9193ZM163.687 22.4641H166.881V17.6301H172.457V22.4641H177.161V27.298H172.457V34.4135C172.457 35.3287 172.747 36.0509 173.328 36.5794C173.922 37.0948 174.671 37.3527 175.574 37.3527C176.245 37.3527 176.936 37.2048 177.645 36.9078V41.4711C176.419 41.9485 175.213 42.1867 174.025 42.1867C171.728 42.1867 169.96 41.5745 168.72 40.3497C167.494 39.1122 166.881 37.3461 166.881 35.0515V27.298H163.687V22.4641ZM187.732 36.4051C186.803 35.7352 186.164 34.8651 185.815 33.7948H200.916V32.1129C200.916 30.1664 200.477 28.4388 199.6 26.9306C198.722 25.4225 197.522 24.2365 195.999 23.3729C194.489 22.5092 192.759 22.0773 190.81 22.0773C188.849 22.0773 187.093 22.5156 185.544 23.3922C184.009 24.2559 182.795 25.4418 181.904 26.95C181.014 28.4455 180.568 30.1532 180.568 32.0738C180.568 34.0203 181.033 35.761 181.963 37.295C182.892 38.8157 184.176 40.0147 185.815 40.8914C187.454 41.7549 189.345 42.1867 191.488 42.1867C192.83 42.1867 194.23 41.9678 195.689 41.5294C197.16 41.0911 198.645 40.2853 200.141 39.1122L196.773 35.0906C196.05 35.7737 195.244 36.3341 194.353 36.7725C193.475 37.1982 192.365 37.411 191.023 37.411C189.771 37.411 188.674 37.0755 187.732 36.4051ZM194.847 29.7C194.539 29.0153 194.097 28.4334 193.521 27.9554C192.682 27.2594 191.675 26.9113 190.501 26.9113C189.313 26.9113 188.28 27.2658 187.403 27.9747C186.814 28.4576 186.363 29.0323 186.05 29.7H194.847Z" fill="#1A194D"/>
</g>
<defs>
<clipPath id="clip0_900_3966">
<rect width="201" height="55" fill="white"/>
</clipPath>
</defs>
</svg>
