<?xml version="1.0" encoding="UTF-8" standalone="no"?>
<!-- Created with Inkscape (http://www.inkscape.org/) -->

<svg
   width="183mm"
   height="142mm"
   viewBox="0 0 183 142"
   version="1.1"
   id="svg5"
   xml:space="preserve"
   inkscape:version="1.2.2 (b0a84865, 2022-12-01)"
   sodipodi:docname="allhands-stacked.svg"
   xmlns:inkscape="http://www.inkscape.org/namespaces/inkscape"
   xmlns:sodipodi="http://sodipodi.sourceforge.net/DTD/sodipodi-0.dtd"
   xmlns="http://www.w3.org/2000/svg"
   xmlns:svg="http://www.w3.org/2000/svg"><sodipodi:namedview
     id="namedview7"
     pagecolor="#ffffff"
     bordercolor="#000000"
     borderopacity="0.25"
     inkscape:showpageshadow="2"
     inkscape:pageopacity="0.0"
     inkscape:pagecheckerboard="0"
     inkscape:deskcolor="#d1d1d1"
     inkscape:document-units="mm"
     showgrid="false"
     inkscape:zoom="0.60647144"
     inkscape:cx="343.79195"
     inkscape:cy="401.50283"
     inkscape:window-width="1512"
     inkscape:window-height="811"
     inkscape:window-x="0"
     inkscape:window-y="38"
     inkscape:window-maximized="0"
     inkscape:current-layer="layer1" /><defs
     id="defs2"><rect
       x="46.013065"
       y="182.56798"
       width="595.20129"
       height="571.45264"
       id="rect696" /><clipPath
       id="clip1"><path
         d="M 7.144531,19 H 144 V 199.62109 H 7.144531 Z m 0,0"
         id="path132" /></clipPath><clipPath
       id="clip2"><path
         d="M 152,17 H 287.65625 V 199 H 152 Z m 0,0"
         id="path135" /></clipPath><clipPath
       id="clip0_12393_1214"><rect
         width="1440.11"
         height="180.67"
         fill="#ffffff"
         id="rect533"
         x="0"
         y="0" /></clipPath><mask
       id="mask0_12393_1214"
       maskUnits="userSpaceOnUse"
       x="0"
       y="0"
       width="272"
       height="181"><path
         d="M 271.01,0 H 0 v 180.67 h 271.01 z"
         fill="#ffffff"
         id="path492" /></mask><clipPath
       id="clip1-3"><path
         d="M 7.144531,19 H 144 V 199.62109 H 7.144531 Z m 0,0"
         id="path805" /></clipPath><clipPath
       id="clip2-5"><path
         d="M 152,17 H 287.65625 V 199 H 152 Z m 0,0"
         id="path808" /></clipPath></defs><g
     inkscape:label="Layer 1"
     inkscape:groupmode="layer"
     id="layer1"><text
       xml:space="preserve"
       transform="scale(0.26458333)"
       id="text694"
       style="font-size:46.6064px;font-family:Roboto;-inkscape-font-specification:Roboto;white-space:pre;shape-inside:url(#rect696);fill:#000000;stroke:#ffffff;stroke-width:0;stroke-linejoin:round" /><g
       clip-path="url(#clip0_12393_1214)"
       id="g531"
       transform="matrix(0.20290208,0,0,0.20290208,-62.705979,102.44731)"><mask
         id="mask673"
         maskUnits="userSpaceOnUse"
         x="0"
         y="0"
         width="272"
         height="181"><path
           d="M 271.01,0 H 0 v 180.67 h 271.01 z"
           fill="#ffffff"
           id="path671" /></mask><path
         d="M 453.92,129.954 406.5,24.5439 l -18.09,1.69 v 1.23 c 0,2.64 -0.51,9.92 -5.19,20.45 l -36.89,83.9701 c -4.91,11.09 -9.19,16.78 -20.25,19.15 l -1.07,0.23 v 9.23 h 49.77 v -9.29 l -1.14,-0.18 c -7.33,-1.14 -11.95,-3.36 -13.73,-6.59 -1.38,-2.49 -1.2,-5.69 0.55,-9.77 l 2.34,-5.32 c 2.04,-4.83 5.39,-5.75 10.84,-5.75 h 34.77 c 5.52,0 9.13,0.98 11.27,5.97 l 2.76,6.36 c 2.32,5.38 2.82,8.58 1.67,10.7 -1.15,2.1 -4.2,3.54 -9.34,4.4 l -1.13,0.19 v 9.28 h 59.32 v -8.99 l -1.04,-0.25 c -9.41,-2.22 -11.93,-7.8 -18,-21.29 z m -43.87,-19.03 c -0.35,0.53 -1.04,0.85 -1.84,0.85 h -34.56 c -0.81,0 -1.6,-0.37 -1.96,-0.91 -0.31,-0.48 -0.31,-1.1 0.02,-1.86 l 18.25,-41.8001 c 0.31,-0.76 0.55,-1.22 0.71,-1.51 0.19,0.29 0.46,0.77 0.83,1.55 l 18.44,41.1201 c 0.33,0.75 0.61,1.8 0.11,2.56 z"
         fill="#000000"
         id="path515" /><path
         d="m 512.14,147.364 c -1.49,-1.1 -2.28,-3.41 -2.28,-6.67 V 27.8839 c 0,-3.25 -0.93,-5.68 -2.77,-7.23 -1.91,-1.61 -4.65,-2.13 -8.16,-1.52 l -30.79,5.72 v 9.17 l 1.47,-0.13 c 4.93,-0.44 7.92,0.08 9.68,1.7 1.65,1.51 2.42,4.18 2.42,8.41 v 96.6901 c 0,13.19 7.64,21.07 20.43,21.07 8.22,0 14.7,-3.13 17.32,-8.38 l 0.14,-0.28 v -5.97 l -1.75,0.54 c -2.47,0.77 -4.4,0.66 -5.72,-0.31 z"
         fill="#000000"
         id="path517" /><path
         d="m 561.44,147.364 c -1.49,-1.1 -2.28,-3.41 -2.28,-6.67 V 27.8839 c 0,-3.25 -0.93,-5.68 -2.77,-7.23 -1.91,-1.61 -4.65,-2.12 -8.16,-1.52 l -30.79,5.72 v 9.17 l 1.47,-0.13 c 4.93,-0.44 7.92,0.09 9.68,1.7 1.65,1.51 2.42,4.18 2.42,8.41 v 96.6901 c 0,13.19 7.64,21.07 20.43,21.07 8.22,0 14.7,-3.13 17.32,-8.38 l 0.14,-0.28 v -5.97 l -1.75,0.54 c -2.48,0.77 -4.4,0.66 -5.72,-0.31 z"
         fill="#000000"
         id="path519" /><path
         d="m 697.35,35.4239 1.17,0.16 c 9.56,1.27 13.46,4.57 13.46,11.38 v 36.05 c 0,4.67 -4.22,5.65 -7.77,5.65 h -36.89 c -3.54,0 -7.77,-0.98 -7.77,-5.65 v -36.05 c 0,-6.81 3.9,-10.11 13.46,-11.38 l 1.17,-0.16 v -9.32 h -60.8 v 9.32 l 1.17,0.16 c 9.56,1.27 13.46,4.57 13.46,11.38 v 92.6601 c 0,6.81 -3.9,10.11 -13.46,11.38 l -1.17,0.16 v 9.32 h 60.8 v -9.32 l -1.17,-0.16 c -9.56,-1.27 -13.46,-4.57 -13.46,-11.38 v -34.14 c 0,-4.91 4.73,-5.6501 7.55,-5.6501 h 37.32 c 2.82,0 7.55,0.7301 7.55,5.6501 v 34.14 c 0,6.81 -3.9,10.11 -13.46,11.38 l -1.17,0.16 v 9.32 h 60.8 v -9.32 l -1.17,-0.16 c -9.56,-1.27 -13.46,-4.57 -13.46,-11.38 V 46.9639 c 0,-6.81 3.9,-10.11 13.46,-11.38 l 1.17,-0.16 v -9.32 h -60.8 v 9.32 z"
         fill="#000000"
         id="path521" /><path
         d="m 855.39,147.704 c -1.35,-0.96 -2.03,-3.32 -2.03,-7.01 v -40.5 c 0,-28.7401 -10.55,-39.9401 -37.61,-39.9401 -23.79,0 -47.79,7.76 -47.79,25.1 0,8.29 5.31,13.44 13.86,13.44 11.92,0 13.21,-7.83 14.35,-14.75 1.19,-7.22 2.21,-13.45 13.43,-13.45 11.22,0 15.61,6.71 15.61,21.76 v 3.39 c 0,4.7001 -1.03,5.7301 -6.47,6.5101 -40.43,5.81 -56.92,15.9 -56.92,34.84 0,11.93 7.65,24.67 29.13,24.67 18.65,0 29.49,-11.03 33.28,-15.76 0.68,-0.83 1.16,-1.03 1.15,-1.08 0,0 0.21,0.21 0.27,1.01 0.85,7.65 6.44,15.83 19.58,15.83 8.06,0 13.99,-2.98 16.69,-8.38 l 0.14,-0.28 v -6.03 l -1.79,0.62 c -2.19,0.75 -3.82,0.76 -4.87,0.02 z m -30.18,-30.34 v 5.51 c 0,12.73 -8.88,21.97 -21.12,21.97 -8.45,0 -13.49,-4.81 -13.49,-12.86 0,-14.93 17.3,-18.72 27.61,-19.65 0.74,-0.07 1.41,-0.1 2.02,-0.1 1.86,0 3.13,0.32 3.85,0.98 0.78,0.71 1.13,1.99 1.13,4.14 z"
         fill="#000000"
         id="path523" /><path
         d="m 977.56,147.364 c -1.49,-1.1 -2.28,-3.41 -2.28,-6.67 V 97.4439 c 0,-14.05 -4.25,-37.61 -32.73,-37.61 -16.23,0 -24.72,7.62 -30.28,14.25 -0.32,0.37 -1.15,1.22 -1.85,0.96 -0.72,-0.27 -1.93,-1.92 -1.93,-6.43 0,-2.73 -0.9,-4.92 -2.59,-6.35 -1.93,-1.62 -4.8,-2.16 -8.34,-1.55 l -30.79,5.72 v 9.17 l 1.47,-0.13 c 4.93,-0.44 7.92,0.08 9.68,1.7 1.65,1.51 2.42,4.18 2.42,8.41 v 53.4301 c 0,8.77 -2.65,11.4 -12.33,12.22 l -1.24,0.1 v 9.17 h 55.08 v -9.16 l -1.23,-0.11 c -9.41,-0.82 -12.13,-3.56 -12.13,-12.22 v -36.68 c 0,-14.8901 7.71,-24.5201 19.64,-24.5201 11.93,0 19,9.62 19,24.5201 v 38.38 c 0,13.19 7.64,21.07 20.44,21.07 8.22,0 14.7,-3.13 17.32,-8.38 l 0.14,-0.28 v -5.97 l -1.75,0.54 c -2.47,0.77 -4.4,0.66 -5.72,-0.31 z"
         fill="#000000"
         id="path525" /><path
         d="m 1093.33,147.364 c -1.49,-1.1 -2.28,-3.41 -2.28,-6.67 V 27.8839 c 0,-3.25 -0.93,-5.68 -2.77,-7.23 -1.91,-1.61 -4.65,-2.13 -8.16,-1.52 l -30.79,5.72 v 9.17 l 1.47,-0.13 c 4.93,-0.44 7.92,0.08 9.68,1.7 1.65,1.51 2.42,4.18 2.42,8.41 v 15.9 c 0,4.89 -0.64,6.34 -1.18,6.7 -0.8,0.53 -3.12,-0.43 -5.8,-1.56 -4.57,-1.91 -11.48,-4.8 -20.93,-4.8 -12.44,0 -24.06,4.73 -32.71,13.33 -9.59,9.53 -14.66,22.91 -14.66,38.7001 0,32.49 21.16,49.48 42.06,49.48 13.22,0 21.09,-6.35 26.29,-10.55 2.29,-1.85 4.26,-3.44 5.51,-3.44 0.68,0 2.75,0 4.25,3.99 2.7,7.37 10.97,10 17.81,10 6.25,0 14.02,-2.2 17.11,-8.38 l 0.14,-0.28 v -5.97 l -1.75,0.54 c -2.48,0.77 -4.4,0.66 -5.72,-0.31 z m -30.43,-41.88 v 16.12 c 0,10.93 -5.05,22.61 -19.22,22.61 -15.19,0 -26.64,-17.83 -26.64,-41.48 0,-19.4001 8.04,-31.9401 20.49,-31.9401 12.45,0 25.36,10.86 25.36,34.6901 z"
         fill="#000000"
         id="path527" /><path
         d="m 1154.25,98.3639 -2.45,-0.74 c -12.12,-3.79 -17.29,-8.6 -17.29,-16.1 0,-7.5 4.67,-11.37 13.49,-11.37 11.52,0 19.29,6.49 23.74,19.86 1.24,3.71 3.67,5.59 7.22,5.59 2.54,0 4.56,-1.08 5.85,-3.13 3.26,-5.19 1.09,-15.07 -2.51,-22.56 l -0.15,-0.3 -0.27,-0.2 c -7.81,-5.74 -20,-9.17 -32.61,-9.17 -24.15,0 -40.37,12.13 -40.37,30.19 0,20.1001 18.41,28.3601 34.46,33.3101 13.47,4.06 21.09,6.76 21.09,15.03 0,4.72 -2.19,12.64 -16.88,12.64 -12.6,0 -20.61,-6.44 -25.22,-20.28 -1.24,-3.71 -3.67,-5.59 -7.22,-5.59 -2.52,0 -4.54,1.08 -5.83,3.13 -3.31,5.27 -1.14,15.23 2.49,22.76 l 0.14,0.29 0.26,0.2 c 8.04,6.15 20.71,9.82 33.9,9.82 30.96,0 44.82,-15.69 44.82,-31.25 0,-21.09 -21.19,-27.48 -36.66,-32.1401 z"
         fill="#000000"
         id="path529" /></g><g
       id="surface1"
       transform="matrix(0.52153749,0,0,0.47705295,17.542946,2.1678432)"><path
         style="fill:#ffe163;fill-opacity:1;fill-rule:nonzero;stroke:none"
         d="m 276.60547,59.871094 c -8.95703,-5.726563 -14.94141,3.050781 -14.20703,14.964844 l -0.0742,0.08984 c 0.0234,-12.441406 -1.59375,-26.183593 -6.96875,-37.300781 -1.90625,-3.9375 -5.76172,-10.410156 -13.39063,-7.359375 -3.34765,1.335937 -6.38281,5.363281 -4.8125,15.761719 0,0 1.74219,10.910156 1.41797,24.628906 v 0.191406 c -2.17969,-37.828125 -10.39062,-49.371094 -22.13672,-48.625 -3.75781,0.695313 -8.89843,2.378906 -7.16797,14.011719 0,0 1.87891,12.132813 2.48829,21.796875 l 0.0391,0.488281 h -0.0391 c -5.52344,-20.855469 -12.96485,-21.140625 -18.35157,-20.328125 -4.89062,0.734375 -10.23047,6.007813 -7.52734,16.40625 8.47266,32.617188 6.81641,71.898437 6.18359,77.523437 -1.73047,-3.84765 -2.26562,-6.89843 -4.66797,-11.11718 -9.65625,-16.94532 -14.24609,-18.19532 -19.88281,-18.45313 -5.60156,-0.2539 -11.64844,3.33594 -11.25,10.16797 0.41406,6.83203 3.75781,7.96484 8.51172,17.48437 3.70703,7.41016 4.76563,17.125 12.23047,34.78125 6.1875,14.61719 22.34766,30.64844 51.78906,28.7461 23.85156,-0.82422 59.47656,-9.4961 53.28125,-66.44922 -1.54297,-9.89453 -0.38672,-18.17969 0.42188,-26.67187 1.25781,-13.175789 3.09765,-35.011727 -5.8711,-40.750008 z m 0,0"
         id="path813" /><path
         style="fill:#ffe163;fill-opacity:1;fill-rule:nonzero;stroke:none"
         d="m 127.66406,102.95313 c -5.63672,0.37109 -10.1875,1.69531 -19.54687,18.82421 -2.32813,4.25782 -2.80078,7.32032 -4.46485,11.19532 -0.73437,-5.61328 -3.08593,-44.855472 4.80079,-77.62891 2.51562,-10.4375 -2.91016,-15.609375 -7.8125,-16.253906 -5.402349,-0.707032 -12.855474,-0.28125 -18.007818,20.78125 h -0.0625 l 0.07813,-0.605469 C 83.082031,49.589844 84.75,37.433594 84.75,37.433594 86.253906,25.761719 81.105469,24.179688 77.332031,23.546875 65.613281,23.035156 57.625,34.625 56.082031,72.121094 h -0.02734 c -0.53516,-13.574219 0.99609,-24.382813 0.99609,-24.382813 1.382813,-10.433593 -1.730469,-14.398437 -5.101562,-15.671875 -7.675781,-2.910156 -11.421875,3.640625 -13.25,7.617188 -5.175781,11.21875 -6.558594,24.988281 -6.308594,37.429687 l -0.07422,-0.08984 c 0.507813,-11.925782 -5.625,-20.585938 -14.484375,-14.695313 -8.859375,5.90625 -6.632812,27.703125 -5.140625,40.855462 0.972656,8.48047 2.265625,16.73829 0.898438,26.66016 -5.175782,57.05078 30.597656,65.04297 54.460937,65.41797 29.464844,1.35156 45.34375,-15.00391 51.26563,-29.73828 7.14062,-17.78125 8.03906,-27.52344 11.60937,-34.9961 4.57813,-9.61328 7.91406,-10.80859 8.19922,-17.64062 0.28516,-6.83594 -5.82422,-10.30859 -11.42187,-9.94922 z m 0,0"
         id="path815" /><g
         clip-path="url(#clip1-3)"
         clip-rule="nonzero"
         id="g819"><path
           style="fill:#000000;fill-opacity:1;fill-rule:nonzero;stroke:none"
           d="m 139.46094,103.04297 c -2.98828,-3.02344 -7.47657,-4.632814 -12.04688,-4.351564 -7.3164,0.476563 -12.5039,3.242184 -20.48047,16.753904 -0.21093,-15.453122 0.625,-38.652341 5.52735,-59.058591 1.83984,-7.671875 -0.0156,-12.675781 -1.90625,-15.519531 -2.19922,-3.320313 -5.625,-5.507813 -9.40625,-5.996094 -3.445315,-0.449219 -7.949221,-0.476563 -12.343752,3.253906 0,-0.05078 0.01172,-0.113281 0.01172,-0.113281 C 90.238281,27.046875 86.578125,20.769531 77.957031,19.351562 l -0.472656,-0.05078 c -5.316406,-0.242187 -9.871094,1.558594 -13.539063,5.339844 -1.964843,2.019531 -3.671874,4.632813 -5.152343,7.863281 -1.65625,-2.507812 -3.78125,-3.78125 -5.460938,-4.425781 C 43.066406,24.179688 37.390625,32.53125 34.925781,37.855469 32.066406,44.058594 30.285156,51.007812 29.289062,58.097656 29.078125,57.953125 28.878906,57.8125 28.667969,57.683594 26.402344,56.332031 21.6875,54.6875 15.566406,58.765625 5.1875,65.6875 6.507812,85.582031 8.574219,103.69922 c 0.109375,0.96484 0.222656,1.91406 0.335937,2.87891 0.882813,7.42578 1.714844,14.4375 0.570313,22.68749 l -0.023438,0.20704 c -2.078125,22.89062 2.089844,40.5039 12.394531,52.3789 9.902344,11.42578 25.417969,17.3711 45.988282,17.69531 1.503906,0.0625 2.972656,0.0898 4.402344,0.0742 35.140622,-0.33203 47.746092,-24.71484 50.843752,-32.4375 4.00781,-9.98437 6.08593,-17.43359 7.73828,-23.42968 1.28125,-4.63282 2.30469,-8.28516 3.74609,-11.32422 1.64063,-3.44922 3.08594,-5.6875 4.35547,-7.66797 2.16406,-3.37109 4.03125,-6.28125 4.25391,-11.68359 0.16406,-3.91016 -1.13282,-7.38672 -3.75782,-10.03516 z M 69.78125,30.691406 c 1.976562,-2.035156 4.253906,-2.9375 7.140625,-2.871094 2.5,0.425782 4.765625,1.054688 3.734375,9.03125 -0.07422,0.503907 -1.695312,12.484376 -2.128906,22.234376 0,0.06641 0,0.128906 0,0.195312 -2.277344,9.519531 -4.179688,23.238281 -5.199219,43.28516 -4.417969,0.28125 -8.824219,0.76953 -13.105469,1.41406 -1.378906,-40.671876 1.816406,-65.339845 9.546875,-73.289064 z m -27.386719,10.84375 c 3.097657,-6.691406 5.699219,-6.355468 8.113281,-5.441406 3.34375,1.273438 2.824219,8.183594 2.4375,11.054688 -0.0625,0.460937 -1.554687,11.230468 -1.03125,24.933593 -0.386718,9.613281 -0.335937,20.691407 0.121094,33.367189 -4.09375,0.83594 -7.972656,1.80078 -11.519531,2.84375 -1.679687,-5.84375 -9.109375,-42.953126 1.878906,-66.742189 z m 89.687499,78.503904 c -1.34375,2.08594 -3.01172,4.6836 -4.89062,8.6211 -1.77735,3.71875 -2.875,7.70703 -4.28125,12.73828 -1.60547,5.77734 -3.60547,12.96875 -7.42578,22.5039 C 112.76953,170.64453 101.37109,192.54687 68.089844,191 49.535156,190.71875 36.421875,185.85547 27.996094,176.14062 19.3125,166.12891 15.839844,150.71484 17.667969,130.34766 c 1.269531,-9.31641 0.335937,-17.20703 -0.570313,-24.82422 -0.113281,-0.94922 -0.226562,-1.89063 -0.335937,-2.84375 -0.996094,-8.785159 -3.660157,-32.140628 3.273437,-36.761721 1.863282,-1.246094 3.394532,-1.53125 4.527344,-0.859375 1.929688,1.144531 3.871094,5.3125 3.597656,11.773437 -0.01563,0.347657 0.02344,0.679688 0.08594,1.015625 0.347656,15.054688 2.949218,28.152344 4.429687,33.070314 -2.425781,0.9375 -4.566406,1.91406 -6.359375,2.89453 -2.015625,1.10547 -2.773437,3.67969 -1.703125,5.76172 0.746094,1.45703 2.1875,2.28125 3.683594,2.26562 0.632813,0 1.28125,-0.16796 1.890625,-0.5 10.066406,-5.51953 33.945312,-11.13281 54.984375,-10.52734 2.289063,0.0391 4.167969,-1.78906 4.230469,-4.14062 0.0625,-2.35547 -1.730469,-4.3125 -4.007813,-4.375 -1.253906,-0.0391 -2.523437,-0.0391 -3.792969,-0.0391 2.101563,-40.429685 7.886719,-53.617185 12.394532,-57.515622 1.863281,-1.609376 3.644531,-1.738282 6.109374,-1.417969 0.68359,0.08984 2.39844,0.503906 3.63281,2.355469 1.33203,2.019531 1.57813,5.003906 0.70703,8.632812 -7.613277,31.667969 -5.898433,68.90625 -5.027339,77.9375 -0.148438,0.30859 -0.285157,0.61719 -0.445313,0.9375 -1.78125,3.46484 -5.089844,7.06641 -9.035156,6.82031 -2.25,-0.11328 -4.230469,1.66016 -4.367188,4.00391 -0.136718,2.35547 1.59375,4.375 3.871094,4.51562 6.667969,0.41016 12.953122,-3.82031 16.808592,-11.32422 0.41016,-0.79687 0.75781,-1.55468 1.07031,-2.28906 0.0273,-0.0508 0.0508,-0.11719 0.0742,-0.16797 0.72266,-1.67187 1.2461,-3.20312 1.70703,-4.58203 0.71875,-2.13281 1.34375,-3.98828 2.58594,-6.27734 8.83594,-16.1875 12.41797,-16.41797 16.21484,-16.66406 2.22657,-0.14063 4.44141,0.59375 5.7461,1.92968 0.93359,0.94141 1.34375,2.10938 1.28125,3.57813 -0.1211,3.02344 -0.92969,4.28516 -2.88282,7.32031 z m 0,0"
           id="path817" /></g><g
         clip-path="url(#clip2-5)"
         clip-rule="nonzero"
         id="g823"><path
           style="fill:#000000;fill-opacity:1;fill-rule:nonzero;stroke:none"
           d="m 286.11328,126.61328 c -1.28125,-8.22265 -0.57031,-15.25 0.17578,-22.6875 0.0977,-0.96484 0.19922,-1.91406 0.28516,-2.88281 1.74219,-18.140626 2.71094,-38.07422 -7.80078,-44.789064 -6.19922,-3.964844 -10.88672,-2.226562 -13.12891,-0.835937 -0.21094,0.128906 -0.41016,0.28125 -0.62109,0.425781 -1.13282,-7.066406 -3.02344,-13.976562 -5.9961,-20.125 -2.55078,-5.277344 -8.36328,-13.523438 -18.5664,-9.433594 -1.66797,0.671875 -3.75782,1.984375 -5.375,4.53125 -1.54297,-3.203125 -3.29688,-5.777344 -5.30078,-7.757812 -3.73438,-3.707032 -8.32422,-5.433594 -13.625,-5.085938 l -0.47266,0.05469 c -8.59766,1.582031 -12.14453,7.925781 -10.52734,18.886718 0,0 0,0.05078 0.0117,0.08984 -4.45312,-3.652344 -8.95703,-3.539062 -12.39453,-3.023437 -3.76953,0.566406 -7.15234,2.816406 -9.29297,6.175781 -1.82812,2.882812 -3.60937,7.914062 -1.6289,15.542969 5.27344,20.320312 6.51953,43.503906 6.58203,58.957033 -8.21484,-13.35547 -13.45313,-16.019533 -20.76953,-16.351564 -4.55469,-0.207032 -9.04297,1.503906 -11.96875,4.578124 -2.57422,2.70313 -3.8086,6.20313 -3.57031,10.10157 0.32421,5.39062 2.23828,8.27343 4.46484,11.59375 1.30859,1.95703 2.78906,4.16796 4.49219,7.57812 1.50781,3.01172 2.58984,6.64062 3.95703,11.24609 1.76953,5.95703 3.96875,13.3711 8.16406,23.27735 3.23438,7.65625 16.27344,31.80859 51.3125,31.46093 1.42188,-0.0117 2.88672,-0.0664 4.38281,-0.16796 20.67969,-0.70704 36.08203,-6.96094 45.78907,-18.56641 10.07812,-12.07031 13.9375,-29.76172 11.46093,-52.61328 l -0.0273,-0.20703 z M 241.20703,45.382812 c -0.4375,-2.910156 -1.09375,-9.804687 2.23828,-11.132812 2.39063,-0.964844 5.00391,-1.335938 8.21485,5.289062 11.41015,23.585938 4.65234,60.835938 3.07421,66.703128 -3.57421,-0.97656 -7.46875,-1.86328 -11.57421,-2.625 0.22656,-12.671878 0.0742,-23.765628 -0.47266,-33.363284 0.27344,-13.703125 -1.40625,-24.449218 -1.48047,-24.871094 z M 216.88281,26.480469 c 2.89844,-0.128907 5.1875,0.730469 7.19141,2.738281 7.86328,7.8125 11.50781,32.402344 10.84765,73.10156 -4.29296,-0.5664 -8.69531,-0.96484 -13.125,-1.17187 -1.36718,-20.035159 -3.52343,-33.699221 -5.97265,-43.183596 0,-0.0625 0,-0.128906 0,-0.191406 -0.60938,-9.753907 -2.45313,-21.695313 -2.52735,-22.160157 -1.17968,-7.988281 1.07032,-8.65625 3.57032,-9.132812 z m 61.08203,101.390621 c 2.1875,20.33203 -1.00781,35.8125 -9.50781,45.98828 -8.25,9.8711 -21.27734,14.99219 -39.94141,15.63282 -33.09765,2.16406 -44.91796,-19.50391 -47.74218,-26.19532 -4.00782,-9.47265 -6.13672,-16.61328 -7.83985,-22.36328 -1.49218,-5.01953 -2.66406,-8.96875 -4.5039,-12.66406 -1.94141,-3.89844 -3.66016,-6.45703 -5.03907,-8.51562 -2.0039,-3 -2.83984,-4.2461 -3.02343,-7.26953 -0.0898,-1.46875 0.30859,-2.65235 1.21875,-3.60547 1.29297,-1.36328 3.48437,-2.14844 5.72265,-2.03125 3.79688,0.17968 7.37891,0.33593 16.51172,16.35547 1.29297,2.26171 1.94141,4.10156 2.69922,6.22656 0.5,1.375 1.04688,2.90625 1.80469,4.5664 0.0234,0.0508 0.0391,0.10547 0.0625,0.14453 0.33594,0.73047 0.69531,1.47657 1.12109,2.27735 3.99219,7.42187 10.35156,11.53906 17.00781,11 2.26563,-0.17969 3.96875,-2.23828 3.79688,-4.58203 -0.17578,-2.33985 -2.15234,-4.07813 -4.42969,-3.92188 -3.94531,0.3086 -7.3164,-3.23047 -9.16015,-6.65234 -0.17188,-0.32422 -0.3086,-0.61719 -0.46094,-0.92578 0.71094,-9.03516 1.76953,-46.312502 -6.41797,-77.824221 -0.94531,-3.613281 -0.74609,-6.597657 0.54687,-8.644531 1.20704,-1.878907 2.91016,-2.328126 3.59766,-2.433594 2.44922,-0.371094 4.24219,-0.269532 6.13281,1.300781 4.57813,3.820313 10.60157,16.894531 13.41407,57.269535 -1.26954,0.0156 -2.53907,0.0547 -3.78516,0.11718 -2.27734,0.10547 -4.03125,2.09766 -3.92969,4.45313 0.0977,2.35547 1.99219,4.12891 4.30469,4.06641 21.01562,-1.00391 45.00391,4.14062 55.16016,9.48046 0.60937,0.32422 1.2539,0.46485 1.90234,0.46485 1.49219,-0.0117 2.92578,-0.86328 3.64453,-2.33985 1.03516,-2.09765 0.22656,-4.67187 -1.81641,-5.74218 -1.80468,-0.94922 -3.96875,-1.875 -6.40625,-2.77735 1.39454,-4.9414 3.76954,-18.089841 3.84375,-33.144529 0.0625,-0.335937 0.0859,-0.671875 0.0625,-1.019531 -0.39843,-6.445312 1.48047,-10.652344 3.38672,-11.835938 1.11719,-0.695312 2.64844,-0.4375 4.53907,0.773438 7.01953,4.488281 4.78125,27.882812 3.93359,36.69531 -0.0859,0.95313 -0.1875,1.89063 -0.28906,2.84375 -0.76953,7.64453 -1.56641,15.53125 -0.1211,24.83203 z m 0,0"
           id="path821" /></g><path
         style="fill:#000000;fill-opacity:1;fill-rule:nonzero;stroke:none"
         d="m 162.59375,45.601562 c -0.66016,0 -1.33203,-0.128906 -1.96875,-0.4375 -2.32422,-1.105468 -3.34766,-3.949218 -2.27734,-6.355468 3.46093,-7.8125 8.52343,-15.015625 14.63281,-20.832032 1.8789,-1.789062 4.8164,-1.671874 6.54687,0.28125 1.73047,1.945313 1.61719,4.980469 -0.27343,6.769532 -5.21485,4.96875 -9.53125,11.117187 -12.49219,17.78125 -0.77344,1.738281 -2.42578,2.78125 -4.16797,2.792968 z m 0,0"
         id="path825" /><path
         style="fill:#000000;fill-opacity:1;fill-rule:nonzero;stroke:none"
         d="m 146.98828,42.835938 c -2.40234,0.02344 -4.45312,-1.878907 -4.65234,-4.402344 -0.88282,-11.285156 -0.92188,-22.722656 -0.0898,-34.007813 0.19922,-2.636719 2.42969,-4.605469 4.96485,-4.4140622 2.55078,0.2070312 4.45703,2.4960932 4.26953,5.1367192 -0.79688,10.78125 -0.75781,21.71875 0.0859,32.5 0.21093,2.640624 -1.69141,4.953124 -4.24219,5.160156 -0.11328,0 -0.22266,0.01172 -0.33594,0.01172 z m 0,0"
         id="path827" /><path
         style="fill:#000000;fill-opacity:1;fill-rule:nonzero;stroke:none"
         d="m 131.03906,45.804688 c -2.07812,0.02734 -3.99609,-1.425782 -4.53125,-3.601563 -1.96484,-7.976563 -5.6875,-15.558594 -10.75,-21.902344 -1.6289,-2.042969 -1.34375,-5.054687 0.6211,-6.742187 1.98047,-1.683594 4.89062,-1.386719 6.51953,0.644531 5.92187,7.4375 10.27734,16.304687 12.5664,25.632813 0.63672,2.558593 -0.86718,5.171874 -3.34375,5.828124 -0.375,0.101563 -0.73437,0.140626 -1.10937,0.152344 z m 0,0"
         id="path829" /></g></g></svg>
