<svg width="71" height="34" viewBox="0 0 71 34" fill="none" xmlns="http://www.w3.org/2000/svg">
    <g clip-path="url(#clip0_3711_2962)">
        <path
            d="M65.26 11.735C66.379 11.735 67.35 11.854 68.174 12.093C69.018 12.331 69.666 12.669 70.117 13.106C70.588 13.524 70.823 14.031 70.823 14.627C70.823 15.024 70.706 15.402 70.47 15.76C70.235 16.098 69.891 16.267 69.44 16.267C69.126 16.267 68.861 16.227 68.645 16.148C68.454 16.052 68.276 15.931 68.115 15.79C67.944 15.64 67.756 15.51 67.556 15.402C67.36 15.283 67.056 15.193 66.644 15.134C66.251 15.054 65.957 15.014 65.761 15.014C64.76 15.014 63.906 15.233 63.2 15.67C62.513 16.108 61.983 16.704 61.61 17.459C61.238 18.195 61.051 19.05 61.051 20.024C61.051 20.978 61.238 21.833 61.61 22.588C62.003 23.323 62.533 23.91 63.2 24.347C63.887 24.784 64.672 25.003 65.555 25.003C66.045 25.003 66.467 24.973 66.82 24.914C67.173 24.854 67.468 24.765 67.703 24.645C67.962 24.497 68.208 24.328 68.439 24.138C68.655 23.96 68.979 23.87 69.41 23.87C69.921 23.87 70.313 24.039 70.588 24.377C70.862 24.695 71 25.093 71 25.57C71 26.067 70.725 26.524 70.176 26.941C69.626 27.339 68.9 27.667 67.998 27.925C67.115 28.164 66.153 28.283 65.113 28.283C63.563 28.283 62.219 27.925 61.081 27.21C59.943 26.474 59.059 25.48 58.432 24.228C57.823 22.976 57.519 21.574 57.519 20.024C57.519 18.394 57.843 16.963 58.49 15.73C59.157 14.478 60.07 13.504 61.228 12.808C62.405 12.093 63.749 11.735 65.26 11.735ZM54.438 26.471C54.438 26.986 54.276 27.421 53.953 27.778C53.629 28.115 53.22 28.283 52.726 28.283C52.231 28.283 51.822 28.115 51.499 27.778C51.175 27.421 51.014 26.986 51.014 26.471V14.2C51.014 13.685 51.175 13.259 51.499 12.922C51.822 12.566 52.231 12.387 52.726 12.387C53.22 12.387 53.629 12.566 53.953 12.922C54.276 13.259 54.438 13.685 54.438 14.2V26.471ZM52.697 10.456C52.05 10.456 51.594 10.347 51.328 10.129C51.061 9.911 50.928 9.525 50.928 8.971V8.406C50.928 7.831 51.071 7.445 51.356 7.247C51.66 7.029 52.117 6.92 52.726 6.92C53.391 6.92 53.858 7.029 54.124 7.247C54.39 7.465 54.523 7.851 54.523 8.406V8.971C54.523 9.545 54.381 9.941 54.095 10.159C53.81 10.357 53.344 10.456 52.697 10.456ZM40.446 11.735C41.81 11.735 43.027 12.093 44.098 12.81C45.189 13.508 46.046 14.474 46.669 15.71C47.311 16.945 47.633 18.379 47.633 20.013C47.633 21.647 47.311 23.091 46.669 24.347C46.046 25.582 45.199 26.558 44.127 27.276C43.076 27.973 41.888 28.322 40.563 28.322C39.784 28.322 39.054 28.192 38.372 27.933C37.691 27.674 37.087 27.345 36.561 26.947C36.055 26.548 35.655 26.15 35.363 25.751C35.091 25.333 34.954 24.984 34.954 24.705L35.86 24.317V32.177C35.86 32.695 35.694 33.123 35.363 33.462C35.032 33.821 34.614 34 34.107 34C33.601 34 33.182 33.831 32.851 33.492C32.52 33.153 32.354 32.715 32.354 32.177V13.856C32.354 13.339 32.52 12.91 32.851 12.572C33.182 12.213 33.601 12.033 34.107 12.033C34.614 12.033 35.032 12.213 35.363 12.571C35.694 12.91 35.86 13.339 35.86 13.856V15.321L35.363 15.052C35.363 14.793 35.5 14.484 35.772 14.125C36.045 13.747 36.415 13.378 36.883 13.02C37.35 12.641 37.886 12.332 38.489 12.093C39.114 11.854 39.778 11.732 40.446 11.735ZM40.008 15.022C39.151 15.022 38.401 15.241 37.759 15.679C37.116 16.118 36.61 16.716 36.24 17.473C35.889 18.21 35.714 19.057 35.714 20.013C35.714 20.949 35.889 21.806 36.24 22.583C36.61 23.341 37.116 23.938 37.759 24.376C38.401 24.815 39.151 25.034 40.008 25.034C40.865 25.034 41.605 24.815 42.229 24.376C42.871 23.938 43.368 23.341 43.718 22.583C44.088 21.806 44.273 20.949 44.273 20.013C44.273 19.057 44.088 18.21 43.718 17.473C43.368 16.716 42.871 16.118 42.229 15.679C41.605 15.241 40.865 15.022 40.008 15.022ZM30.257 25.425C30.707 25.274 30.108 27.08 29.359 27.531C28.61 28.133 27.751 28.283 27.232 28.283C26.732 28.283 26.313 28.113 25.973 27.772C25.634 27.411 25.464 26.969 25.464 26.448V7.853C25.464 7.332 25.634 6.9 25.973 6.559C26.333 6.198 26.772 6.018 27.292 6.018C27.811 6.018 28.23 6.198 28.55 6.559C28.889 6.9 29.059 7.332 29.059 7.853V25.876C29.059 25.876 29.808 25.575 30.257 25.425ZM11.384 6.92L3.614 26.64C3.428 27.145 3.137 27.545 2.739 27.837C2.382 28.099 1.95 28.239 1.507 28.237C0.792 28.237 0.494 27.93 0.15 27.531C0 27.08 0 27.225 0 26.64C0 26.4 0.37 25.691 0.449 25.425L10.036 1.504C10.248 0.972 10.335 0.752 10.485 0.451C10.635 0.15 11.084 0 11.534 0C11.983 0 12.432 0.15 12.582 0.451C12.772 0.832 12.846 0.999 13.032 1.504L22.768 25.425C22.9 25.771 22.947 25.876 23.068 26.327C23.161 26.677 23.245 27.406 22.768 27.832C22.319 28.133 22.335 28.237 21.779 28.237C21.302 28.237 20.864 28.09 20.467 27.797C20.096 27.505 19.805 27.106 19.592 26.6L11.384 6.92ZM4.8 22.215L5.628 19.304H8.112L8.94 18.057C8.94 18.057 9.354 17.225 9.768 17.225C9.969 17.225 10.182 17.641 10.596 18.057C11.01 17.225 11.424 15.978 12.252 15.146C13.909 15.562 16.393 22.215 16.393 22.215H4.8Z"
            fill="black" />
    </g>
    <defs>
        <clipPath id="clip0_3711_2962">
            <rect width="71" height="34" fill="white" />
        </clipPath>
    </defs>
</svg>
    