<svg width="603" height="182" viewBox="0 0 603 182" fill="none" xmlns="http://www.w3.org/2000/svg">
<g clip-path="url(#clip0_737_284)">
<path d="M374.006 142.184C339.007 167.982 288.277 181.746 244.6 181.746C183.357 181.746 128.223 159.094 86.5123 121.421C83.2352 118.458 86.1715 114.421 90.104 116.728C135.118 142.918 190.777 158.675 248.27 158.675C287.045 158.675 329.7 150.652 368.92 134.005C374.845 131.488 379.8 137.885 374.006 142.184Z" fill="white"/>
<path d="M388.557 125.537C384.1 119.822 358.984 122.837 347.711 124.174C344.277 124.593 343.752 121.604 346.846 119.455C366.849 105.376 399.673 109.44 403.5 114.159C407.328 118.904 402.504 151.806 383.707 167.51C380.823 169.922 378.07 168.637 379.355 165.439C383.576 154.9 393.04 131.278 388.557 125.537Z" fill="white"/>
<path d="M348.498 20.0657V6.38054C348.498 4.30941 350.071 2.91992 351.958 2.91992H413.227C415.193 2.91992 416.766 4.33563 416.766 6.38054V18.0995C416.74 20.0657 415.088 22.635 412.152 26.6986L380.403 72.0275C392.201 71.7391 404.654 73.4957 415.351 79.5255C417.763 80.8888 418.418 82.8813 418.601 84.8476V99.4503C418.601 101.443 416.399 103.776 414.092 102.57C395.242 92.6864 370.205 91.6115 349.363 102.675C347.239 103.829 345.011 101.521 345.011 99.529V85.6603C345.011 83.4319 345.037 79.6304 347.265 76.2484L384.048 23.5001H352.037C350.071 23.5001 348.498 22.1107 348.498 20.0657Z" fill="white"/>
<path d="M124.999 105.455H106.359C104.576 105.324 103.16 103.987 103.029 102.282V6.61718C103.029 4.70335 104.629 3.18276 106.621 3.18276H124.003C125.812 3.26136 127.254 4.6509 127.385 6.38121V18.8867H127.726C132.261 6.80068 140.782 1.16406 152.265 1.16406C163.931 1.16406 171.219 6.80068 176.463 18.8867C180.972 6.80068 191.223 1.16406 202.208 1.16406C210.02 1.16406 218.567 4.38873 223.784 11.6246C229.683 19.6732 228.477 31.3659 228.477 41.6167L228.451 101.994C228.451 103.908 226.851 105.455 224.859 105.455H206.245C204.384 105.324 202.889 103.829 202.889 101.994V51.2907C202.889 47.2533 203.256 37.186 202.365 33.3583C200.975 26.9352 196.807 25.1263 191.406 25.1263C186.897 25.1263 182.178 28.1412 180.264 32.9651C178.35 37.789 178.534 45.8638 178.534 51.2907V101.994C178.534 103.908 176.935 105.455 174.942 105.455H156.328C154.441 105.324 152.972 103.829 152.972 101.994L152.946 51.2907C152.946 40.6204 154.703 24.9165 141.463 24.9165C128.066 24.9165 128.591 40.2272 128.591 51.2907V101.994C128.591 103.908 126.991 105.455 124.999 105.455Z" fill="white"/>
<path d="M469.514 1.16406C497.173 1.16406 512.143 24.9165 512.143 55.1183C512.143 84.2977 495.6 107.447 469.514 107.447C442.354 107.447 427.567 83.6947 427.567 54.0959C427.567 24.3135 442.537 1.16406 469.514 1.16406ZM469.672 20.6956C455.934 20.6956 455.069 39.4144 455.069 51.0809C455.069 62.7737 454.885 87.7321 469.514 87.7321C483.96 87.7321 484.641 67.5976 484.641 55.3281C484.641 47.2533 484.301 37.6055 481.862 29.9502C479.765 23.2911 475.597 20.6956 469.672 20.6956Z" fill="white"/>
<path d="M548.007 105.455H529.446C527.585 105.324 526.09 103.829 526.09 101.994L526.064 6.30256C526.221 4.54603 527.768 3.18276 529.656 3.18276H546.933C548.558 3.26136 549.895 4.36252 550.262 5.85688V20.4859H550.603C555.82 7.40367 563.135 1.16406 576.007 1.16406C584.37 1.16406 592.524 4.179 597.767 12.4373C602.643 20.0926 602.643 32.9651 602.643 42.2196V102.44C602.434 104.118 600.887 105.455 599.052 105.455H580.359C578.655 105.324 577.239 104.065 577.056 102.44V50.478C577.056 40.0174 578.262 24.7068 565.389 24.7068C560.854 24.7068 556.685 27.748 554.614 32.3621C551.992 38.2085 551.652 44.0286 551.652 50.478V101.994C551.625 103.908 550 105.455 548.007 105.455Z" fill="white"/>
<path d="M299.655 59.7583V55.7209C286.18 55.7209 271.944 58.6048 271.944 74.4922C271.944 82.5408 276.113 87.9939 283.27 87.9939C288.513 87.9939 293.206 84.7692 296.168 79.5258C299.839 73.0765 299.655 67.0204 299.655 59.7583ZM318.453 105.192C317.221 106.293 315.438 106.372 314.048 105.638C307.861 100.499 306.76 98.1136 303.352 93.211C293.127 103.645 285.891 106.765 272.626 106.765C256.948 106.765 244.731 97.0911 244.731 77.7169C244.731 62.5898 252.937 52.2865 264.603 47.2529C274.723 42.796 288.854 42.0095 299.655 40.7773V38.3654C299.655 33.9347 299.996 28.6914 297.401 24.8637C295.12 21.4293 290.768 20.0136 286.94 20.0136C279.835 20.0136 273.491 23.6577 271.944 31.2082C271.629 32.8861 270.397 34.5377 268.719 34.6164L250.63 32.6763C249.109 32.3355 247.431 31.1033 247.851 28.77C252.019 6.85275 271.813 0.246094 289.536 0.246094C298.607 0.246094 310.457 2.65804 317.614 9.52685C326.685 17.9949 325.82 29.2944 325.82 41.5901V70.6383C325.82 79.3685 329.438 83.1962 332.846 87.9152C334.052 89.5931 334.314 91.6118 332.793 92.8702C328.992 96.0425 322.228 101.941 318.505 105.245L318.453 105.192Z" fill="white"/>
<path d="M55.2881 59.7583V55.7209C41.8126 55.7209 27.5768 58.6048 27.5768 74.4922C27.5768 82.5408 31.7453 87.9939 38.9025 87.9939C44.1459 87.9939 48.8387 84.7692 51.8012 79.5258C55.4716 73.0765 55.2881 67.0204 55.2881 59.7583ZM74.0855 105.192C72.8533 106.293 71.0706 106.372 69.6811 105.638C63.4939 100.499 62.3928 98.1136 58.9846 93.211C48.76 103.645 41.5242 106.765 28.2585 106.765C12.5808 106.765 0.36377 97.0911 0.36377 77.7169C0.36377 62.5898 8.56964 52.2865 20.2361 47.2529C30.3558 42.796 44.4867 42.0095 55.2881 40.7773V38.3654C55.2881 33.9347 55.6289 28.6914 53.0334 24.8637C50.7525 21.4293 46.4005 20.0136 42.5729 20.0136C35.4681 20.0136 29.1236 23.6577 27.5768 31.2082C27.2622 32.8861 26.0301 34.5377 24.3522 34.6164L6.26256 32.6763C4.74198 32.3355 3.0641 31.1033 3.48357 28.77C7.65205 6.85275 27.4458 0.246094 45.1684 0.246094C54.2394 0.246094 66.0894 2.65804 73.2466 9.52685C82.3176 17.9949 81.4525 29.2944 81.4525 41.5901V70.6383C81.4525 79.3685 85.0704 83.1962 88.4786 87.9152C89.6846 89.5931 89.9467 91.6118 88.4261 92.8702C84.6247 96.0425 77.8608 101.941 74.138 105.245L74.0855 105.192Z" fill="white"/>
</g>
<defs>
<clipPath id="clip0_737_284">
<rect width="603" height="182" fill="white"/>
</clipPath>
</defs>
</svg>
