<svg width="117" height="36" viewBox="0 0 117 36" fill="none" xmlns="http://www.w3.org/2000/svg">
<g clip-path="url(#clip0_125_400)">
<mask id="mask0_125_400" style="mask-type:luminance" maskUnits="userSpaceOnUse" x="0" y="0" width="117" height="36">
<path d="M116.5 0.5H0.5V35.5H116.5V0.5Z" fill="white"/>
</mask>
<g mask="url(#mask0_125_400)">
<path d="M72.4484 27.8431C65.7156 32.8043 55.9566 35.4512 47.5544 35.4512C35.773 35.4512 25.1668 31.095 17.1428 23.8502C16.5124 23.2804 17.0773 22.5041 17.8338 22.9477C26.4932 27.9843 37.2004 31.0145 48.2604 31.0145C55.7196 31.0145 63.9252 29.4716 71.47 26.2702C72.6098 25.7862 73.563 27.0164 72.4484 27.8431Z" fill="#14171F"/>
<path d="M75.2471 24.6419C74.3897 23.5429 69.5581 24.1227 67.3895 24.3798C66.7289 24.4604 66.6279 23.8856 67.2231 23.4723C71.0711 20.7648 77.3855 21.5463 78.1217 22.4538C78.8581 23.3663 77.9301 29.6936 74.3141 32.7136C73.7593 33.1775 73.2297 32.9304 73.4769 32.3154C74.2889 30.2886 76.1095 25.7459 75.2471 24.6419Z" fill="#14171F"/>
<path d="M67.5419 4.35879V1.72703C67.5419 1.32873 67.8445 1.06152 68.2075 1.06152H79.9939C80.3721 1.06152 80.6747 1.33378 80.6747 1.72703V3.98067C80.6697 4.35879 80.3519 4.85289 79.7871 5.63435L73.6795 14.3514C75.9491 14.296 78.3447 14.6338 80.4025 15.7934C80.8665 16.0555 80.9925 16.4387 81.0277 16.8168V19.6251C81.0277 20.0083 80.6041 20.4569 80.1603 20.225C76.5341 18.3243 71.7177 18.1176 67.7083 20.2452C67.2997 20.4671 66.8711 20.0233 66.8711 19.6402V16.9731C66.8711 16.5446 66.8761 15.8135 67.3047 15.1632L74.3807 5.01925H68.2227C67.8445 5.01925 67.5419 4.75206 67.5419 4.35879Z" fill="#14171F"/>
<path d="M24.5466 20.7798H20.9608C20.6178 20.7546 20.3454 20.4975 20.3202 20.1696V1.77255C20.3202 1.40451 20.628 1.11209 21.0112 1.11209H24.355C24.703 1.1272 24.9804 1.39442 25.0056 1.72717V4.13208H25.0712C25.9436 1.80784 27.5828 0.723877 29.7918 0.723877C32.036 0.723877 33.438 1.80784 34.4468 4.13208C35.3142 1.80784 37.2862 0.723877 39.3994 0.723877C40.9022 0.723877 42.5464 1.34401 43.55 2.73552C44.6848 4.28333 44.4528 6.53192 44.4528 8.50323L44.4478 20.1143C44.4478 20.4823 44.14 20.7798 43.7568 20.7798H40.176C39.818 20.7546 39.5304 20.4671 39.5304 20.1143V10.3636C39.5304 9.58719 39.601 7.65117 39.4296 6.91508C39.1622 5.67987 38.3604 5.332 37.3214 5.332C36.454 5.332 35.5462 5.91179 35.178 6.83946C34.8098 7.76713 34.8452 9.31998 34.8452 10.3636V20.1143C34.8452 20.4823 34.5376 20.7798 34.1542 20.7798H30.5734C30.2104 20.7546 29.9278 20.4671 29.9278 20.1143L29.9228 10.3636C29.9228 8.31164 30.2608 5.29165 27.7138 5.29165C25.1366 5.29165 25.2376 8.23602 25.2376 10.3636V20.1143C25.2376 20.4823 24.9298 20.7798 24.5466 20.7798Z" fill="#14171F"/>
<path d="M90.8214 0.723877C96.1422 0.723877 99.022 5.29165 99.022 11.0997C99.022 16.7111 95.8396 21.1629 90.8214 21.1629C85.5966 21.1629 82.752 16.5952 82.752 10.9031C82.752 5.17569 85.6318 0.723877 90.8214 0.723877ZM90.8518 4.47994C88.209 4.47994 88.0426 8.07971 88.0426 10.3233C88.0426 12.5719 88.0072 17.3716 90.8214 17.3716C93.6004 17.3716 93.7314 13.4996 93.7314 11.14C93.7314 9.58719 93.666 7.73185 93.1968 6.25967C92.7934 4.97908 91.9916 4.47994 90.8518 4.47994Z" fill="#14171F"/>
<path d="M105.921 20.7798H102.351C101.993 20.7546 101.705 20.4671 101.705 20.1143L101.7 1.71205C101.73 1.37426 102.028 1.11209 102.391 1.11209H105.715C106.027 1.1272 106.284 1.33897 106.355 1.62634V4.43962H106.421C107.424 1.9238 108.831 0.723877 111.308 0.723877C112.916 0.723877 114.485 1.30367 115.494 2.89181C116.432 4.36398 116.432 6.83946 116.432 8.61917V20.2C116.391 20.5227 116.094 20.7798 115.741 20.7798H112.145C111.817 20.7546 111.545 20.5125 111.509 20.2V10.2073C111.509 8.19567 111.741 5.25133 109.265 5.25133C108.393 5.25133 107.591 5.83617 107.192 6.7235C106.688 7.84781 106.622 8.96706 106.622 10.2073V20.1143C106.617 20.4823 106.305 20.7798 105.921 20.7798Z" fill="#14171F"/>
<path d="M58.1459 11.992V11.2156C55.5537 11.2156 52.8151 11.7702 52.8151 14.8255C52.8151 16.3733 53.6171 17.4219 54.9939 17.4219C56.0025 17.4219 56.9053 16.8018 57.4751 15.7935C58.1813 14.5532 58.1459 13.3886 58.1459 11.992ZM61.7621 20.7293C61.5251 20.941 61.1821 20.9562 60.9147 20.815C59.7245 19.8268 59.5127 19.368 58.8571 18.4252C56.8901 20.4318 55.4981 21.0318 52.9463 21.0318C49.9303 21.0318 47.5801 19.1714 47.5801 15.4456C47.5801 12.5365 49.1587 10.5551 51.4029 9.58713C53.3497 8.73004 56.0681 8.57879 58.1459 8.34183V7.878C58.1459 7.02594 58.2115 6.01761 57.7123 5.28152C57.2735 4.62106 56.4363 4.34881 55.6999 4.34881C54.3331 4.34881 53.1127 5.04959 52.8151 6.50161C52.7545 6.82429 52.5175 7.1419 52.1947 7.15704L48.7149 6.78394C48.4223 6.7184 48.0995 6.48144 48.1803 6.03273C48.9821 1.81787 52.7899 0.547363 56.1993 0.547363C57.9443 0.547363 60.2239 1.0112 61.6007 2.33212C63.3457 3.96059 63.1793 6.13358 63.1793 8.49813V14.0843C63.1793 15.7632 63.8753 16.4993 64.5309 17.4068C64.7629 17.7295 64.8133 18.1177 64.5207 18.3597C63.7895 18.9697 62.4883 20.1041 61.7721 20.7395L61.7621 20.7293Z" fill="#14171F"/>
<path d="M11.1362 11.992V11.2156C8.54389 11.2156 5.80532 11.7702 5.80532 14.8255C5.80532 16.3733 6.60722 17.4219 7.98407 17.4219C8.99275 17.4219 9.89551 16.8018 10.4654 15.7935C11.1715 14.5532 11.1362 13.3886 11.1362 11.992ZM14.7523 20.7293C14.5152 20.941 14.1723 20.9562 13.905 20.815C12.7148 19.8268 12.5029 19.368 11.8473 18.4252C9.88037 20.4318 8.48841 21.0318 5.93646 21.0318C2.92052 21.0318 0.570312 19.1714 0.570312 15.4456C0.570312 12.5365 2.14889 10.5551 4.39318 9.58713C6.33992 8.73004 9.05831 8.57879 11.1362 8.34183V7.878C11.1362 7.02594 11.2017 6.01761 10.7024 5.28152C10.2637 4.62106 9.42647 4.34881 8.69015 4.34881C7.32339 4.34881 6.10288 5.04959 5.80532 6.50161C5.7448 6.82429 5.50778 7.1419 5.185 7.15704L1.70507 6.78394C1.41256 6.7184 1.08978 6.48144 1.17047 6.03273C1.97237 1.81787 5.78012 0.547363 9.18945 0.547363C10.9344 0.547363 13.2141 1.0112 14.5909 2.33212C16.3359 3.96059 16.1695 6.13358 16.1695 8.49813V14.0843C16.1695 15.7632 16.8655 16.4993 17.5211 17.4068C17.7531 17.7295 17.8035 18.1177 17.511 18.3597C16.7797 18.9697 15.4785 20.1041 14.7624 20.7395L14.7523 20.7293Z" fill="#14171F"/>
</g>
</g>
<defs>
<clipPath id="clip0_125_400">
<rect width="116" height="35" fill="white" transform="translate(0.5 0.5)"/>
</clipPath>
</defs>
</svg>
