<svg width="179" height="18" viewBox="0 0 179 18" fill="none" xmlns="http://www.w3.org/2000/svg">
<path d="M15.5646 15.495C15.6885 15.7273 15.7504 15.9286 15.7504 16.0989C15.7659 16.2537 15.7194 16.4008 15.6111 16.5402C15.5027 16.664 15.3323 16.7802 15.1001 16.8886C14.7285 17.0589 14.4343 17.0976 14.2175 17.0047C14.0162 16.9118 13.8304 16.6873 13.6601 16.3312L7.85365 3.97502L2.09364 16.3079C1.92332 16.664 1.72977 16.8886 1.513 16.9815C1.3117 17.0744 1.01751 17.0357 0.630414 16.8653C0.398156 16.7724 0.227834 16.6563 0.119446 16.517C0.0265438 16.3776 -0.0121659 16.2073 0.00331795 16.006C0.0342856 15.8047 0.111706 15.5724 0.235577 15.3092L6.90138 1.39695C6.99429 1.21115 7.1259 1.06405 7.29621 0.955662C7.48202 0.83179 7.67559 0.769857 7.87688 0.769857C8.01621 0.769857 8.14785 0.793083 8.2717 0.839534C8.39559 0.885984 8.50397 0.955662 8.59688 1.04857C8.68979 1.14147 8.76719 1.26534 8.82911 1.42018L15.5646 15.495ZM3.4872 12.3595L4.27688 10.5711H11.4769L12.2433 12.3595H3.4872ZM23.8121 16.9815C23.5334 16.9815 23.3167 16.935 23.1618 16.8421C23.0225 16.7492 22.9218 16.6253 22.8599 16.4705C22.7979 16.3002 22.767 16.1144 22.767 15.9131V1.79179C22.767 1.5905 22.7979 1.42018 22.8599 1.28082C22.9218 1.12599 23.0302 1.00212 23.185 0.909211C23.3399 0.816307 23.5644 0.769857 23.8586 0.769857C24.0908 0.769857 24.2766 0.78534 24.416 0.816307C24.5554 0.847277 24.6637 0.893728 24.7411 0.955662C24.8341 1.00212 24.927 1.07953 25.0199 1.18792L31.0818 9.96729H30.3618L36.4934 1.11824C36.5862 1.00986 36.6793 0.932438 36.772 0.885984C36.8652 0.839534 36.9811 0.808567 37.1206 0.793083C37.2753 0.777596 37.4533 0.769857 37.6547 0.769857C37.949 0.769857 38.1656 0.816307 38.3052 0.909211C38.4599 1.00212 38.5682 1.13373 38.6302 1.30405C38.6922 1.45889 38.723 1.63695 38.723 1.83824V15.9595C38.723 16.1453 38.6922 16.3157 38.6302 16.4705C38.5682 16.6253 38.4599 16.7492 38.3052 16.8421C38.1501 16.935 37.9258 16.9815 37.6315 16.9815C37.3529 16.9815 37.1358 16.935 36.9811 16.8421C36.842 16.7492 36.7412 16.6253 36.6793 16.4705C36.6329 16.3002 36.6097 16.1144 36.6097 15.9131V4.25374L31.6392 11.5698C31.5928 11.6473 31.5309 11.7247 31.4534 11.8021C31.376 11.864 31.2754 11.9182 31.1515 11.9647C31.0431 12.0112 30.9037 12.0344 30.7334 12.0344C30.5476 12.0344 30.4005 12.0112 30.2921 11.9647C30.1992 11.9182 30.1141 11.864 30.0366 11.8021C29.9592 11.7247 29.8818 11.6395 29.8044 11.5466L24.8573 4.27697V15.9595C24.8573 16.1453 24.8263 16.3157 24.7644 16.4705C24.7179 16.6253 24.6173 16.7492 24.4625 16.8421C24.3231 16.935 24.1063 16.9815 23.8121 16.9815ZM48.0643 16.9815C47.7704 16.9815 47.5457 16.935 47.391 16.8421C47.2515 16.7647 47.1587 16.6486 47.112 16.4937C47.0656 16.3234 47.0424 16.1299 47.0424 15.9131V1.81502C47.0424 1.61373 47.0656 1.43566 47.112 1.28082C47.174 1.12599 47.2823 1.00212 47.4374 0.909211C47.5921 0.816307 47.8088 0.769857 48.0875 0.769857H53.1742C53.9174 0.769857 54.5986 0.885984 55.2179 1.11824C55.8527 1.33502 56.4024 1.67566 56.867 2.14018C57.3471 2.58921 57.7185 3.13889 57.9819 3.7892C58.245 4.43952 58.3765 5.1905 58.3765 6.04211C58.3765 6.87824 58.245 7.62147 57.9819 8.27179C57.7185 8.92211 57.3471 9.4718 56.867 9.92083C56.3868 10.3544 55.8295 10.6873 55.1947 10.9195C54.5754 11.1518 53.8942 11.2679 53.151 11.2679H49.156V15.9363C49.156 16.1531 49.1249 16.3389 49.0633 16.4937C49.0165 16.6486 48.9162 16.7647 48.7611 16.8421C48.6219 16.935 48.3897 16.9815 48.0643 16.9815ZM49.156 9.15438H53.1742C53.7935 9.15438 54.3355 9.03824 54.7997 8.80597C55.2643 8.55823 55.6284 8.20211 55.8915 7.7376C56.1546 7.25759 56.2865 6.67695 56.2865 5.99565C56.2865 5.34534 56.1625 4.78792 55.9147 4.32342C55.6668 3.85888 55.303 3.50276 54.8233 3.25502C54.3587 3.00728 53.8011 2.88341 53.151 2.88341H49.156V9.15438ZM67.309 16.9815C66.9992 16.9815 66.767 16.935 66.6122 16.8421C66.4727 16.7647 66.38 16.6486 66.3336 16.4937C66.2872 16.3234 66.2636 16.1299 66.2636 15.9131V1.81502C66.2636 1.41244 66.3412 1.14147 66.4959 1.00212C66.6666 0.847277 66.9605 0.769857 67.3786 0.769857H76.7154C76.9321 0.769857 77.118 0.793083 77.2727 0.839534C77.4278 0.885984 77.5438 0.986628 77.6213 1.14147C77.6985 1.29631 77.7373 1.52857 77.7373 1.83824C77.7373 2.14792 77.6909 2.38018 77.5981 2.53502C77.5206 2.67437 77.4046 2.76727 77.2495 2.81373C77.0948 2.86018 76.9089 2.88341 76.6922 2.88341H68.3541V7.69115H74.1605C74.3775 7.69115 74.5554 7.71438 74.6949 7.76083C74.8497 7.80729 74.9656 7.90019 75.0432 8.03952C75.1207 8.17888 75.1595 8.39568 75.1595 8.68987C75.1595 8.96856 75.1207 9.1776 75.0432 9.31697C74.9656 9.45629 74.8497 9.5492 74.6949 9.59565C74.5398 9.62663 74.3463 9.64211 74.1141 9.64211H68.3541V14.8911H76.7154C76.9321 14.8911 77.118 14.9144 77.2727 14.9608C77.4278 15.0073 77.5438 15.1079 77.6213 15.2627C77.6985 15.4021 77.7373 15.6266 77.7373 15.9363C77.7373 16.246 77.6909 16.4782 77.5981 16.6331C77.5206 16.7724 77.4046 16.8653 77.2495 16.9118C77.0948 16.9582 76.9089 16.9815 76.6922 16.9815H67.309ZM86.866 16.9815C86.5722 16.9815 86.3475 16.935 86.1928 16.8421C86.0377 16.7647 85.9373 16.6486 85.8906 16.4937C85.8598 16.3234 85.8442 16.1299 85.8442 15.9131V1.79179C85.8442 1.5905 85.8674 1.42018 85.9141 1.28082C85.9757 1.12599 86.0765 1.00212 86.216 0.909211C86.3707 0.816307 86.5953 0.769857 86.8896 0.769857H92.0223C92.7811 0.769857 93.47 0.885984 94.0896 1.11824C94.7244 1.33502 95.2741 1.66018 95.7383 2.09373C96.2028 2.52728 96.559 3.07695 96.8069 3.74275C97.07 4.39307 97.2018 5.1518 97.2018 6.01888C97.2018 6.56082 97.1167 7.12599 96.946 7.71438C96.7757 8.28726 96.5126 8.8292 96.1565 9.34019C95.8158 9.85115 95.3745 10.277 94.8328 10.6176C94.2907 10.9583 93.6327 11.1518 92.8583 11.1982H87.9346V15.9363C87.9346 16.1531 87.9035 16.3389 87.8418 16.4937C87.7951 16.6486 87.6947 16.7647 87.5396 16.8421C87.4005 16.935 87.1758 16.9815 86.866 16.9815ZM96.8301 16.726C96.505 16.9428 96.226 17.0124 95.9941 16.935C95.7771 16.8576 95.568 16.6718 95.3669 16.3776L91.6506 10.4318L93.9501 10.0834L97.1551 15.1931C97.3102 15.4408 97.403 15.6498 97.4341 15.8202C97.4805 15.9905 97.4493 16.1453 97.341 16.2847C97.2482 16.4241 97.0779 16.5711 96.8301 16.726ZM87.9346 9.15438H92.5333C92.8895 9.15438 93.2225 9.09245 93.5319 8.96856C93.8417 8.8292 94.1128 8.62791 94.345 8.3647C94.5773 8.10148 94.7628 7.7763 94.9024 7.3892C95.0418 7.0021 95.1114 6.53759 95.1114 5.99565C95.1114 5.32986 94.9875 4.7647 94.7397 4.30019C94.5074 3.83565 94.1592 3.48729 93.6946 3.25502C93.2301 3.00728 92.6572 2.88341 91.976 2.88341H87.9346V9.15438ZM109.75 17.2137C109.161 17.2137 108.604 17.1441 108.077 17.0047C107.566 16.8653 107.094 16.6795 106.66 16.4473C106.242 16.1995 105.871 15.9286 105.546 15.6344C105.22 15.3402 104.965 15.046 104.779 14.7518C104.609 14.504 104.501 14.3028 104.454 14.1479C104.408 13.9776 104.415 13.815 104.477 13.6602C104.555 13.5053 104.702 13.335 104.919 13.1492C105.166 12.9634 105.383 12.8782 105.569 12.8937C105.755 12.8937 105.925 12.9634 106.08 13.1027C106.25 13.2421 106.421 13.4279 106.591 13.6602C106.978 14.1866 107.45 14.5737 108.008 14.8215C108.565 15.0537 109.115 15.1698 109.657 15.1698C110.354 15.1698 110.973 15.077 111.515 14.8911C112.057 14.7053 112.482 14.4266 112.792 14.055C113.117 13.6679 113.28 13.1724 113.28 12.5686C113.28 12.0731 113.156 11.655 112.908 11.3144C112.661 10.9737 112.328 10.6873 111.91 10.455C111.491 10.2073 111.027 9.99823 110.516 9.82792C110.005 9.64211 109.487 9.46405 108.96 9.29374C108.542 9.15438 108.132 8.99954 107.729 8.8292C107.326 8.64342 106.947 8.44213 106.591 8.22534C106.235 7.99307 105.917 7.72213 105.639 7.41243C105.376 7.10276 105.166 6.73888 105.011 6.32083C104.872 5.90275 104.802 5.41502 104.802 4.8576C104.802 4.006 105.004 3.25502 105.406 2.60469C105.825 1.95437 106.405 1.45115 107.148 1.09502C107.891 0.723406 108.751 0.537598 109.726 0.537598C110.299 0.537598 110.826 0.591791 111.306 0.700179C111.786 0.808567 112.211 0.955661 112.583 1.14147C112.955 1.31179 113.272 1.4976 113.535 1.69889C113.799 1.88469 114 2.06276 114.139 2.23308C114.418 2.52728 114.573 2.77502 114.604 2.97631C114.635 3.1776 114.519 3.42534 114.255 3.71952C114.008 3.99824 113.768 4.14532 113.535 4.16083C113.303 4.1763 113.048 4.06792 112.769 3.83565C112.475 3.495 112.165 3.23179 111.84 3.04598C111.53 2.86018 111.197 2.73631 110.841 2.67437C110.501 2.59695 110.121 2.55824 109.703 2.55824C109.301 2.55824 108.921 2.61244 108.565 2.72082C108.224 2.81373 107.923 2.96082 107.659 3.16212C107.412 3.3634 107.218 3.61114 107.079 3.90534C106.939 4.18406 106.87 4.5092 106.87 4.88083C106.87 5.29888 106.978 5.655 107.195 5.9492C107.427 6.2434 107.729 6.49889 108.101 6.71565C108.472 6.91694 108.89 7.10276 109.355 7.27307C109.819 7.42794 110.307 7.58277 110.818 7.7376C111.375 7.90791 111.925 8.11695 112.467 8.3647C113.009 8.59697 113.497 8.89116 113.93 9.24729C114.364 9.58794 114.712 10.0215 114.975 10.5479C115.239 11.0744 115.37 11.7247 115.37 12.4989C115.37 13.2731 115.215 13.9544 114.906 14.5427C114.612 15.1311 114.201 15.6266 113.675 16.0292C113.148 16.4163 112.544 16.7105 111.863 16.9118C111.197 17.1131 110.493 17.2137 109.75 17.2137ZM136.359 15.495C136.483 15.7273 136.545 15.9286 136.545 16.0989C136.56 16.2537 136.514 16.4008 136.405 16.5402C136.297 16.664 136.127 16.7802 135.894 16.8886C135.522 17.0589 135.229 17.0976 135.012 17.0047C134.81 16.9118 134.625 16.6873 134.454 16.3312L128.648 3.97502L122.888 16.3079C122.718 16.664 122.524 16.8886 122.307 16.9815C122.106 17.0744 121.812 17.0357 121.425 16.8653C121.192 16.7724 121.022 16.6563 120.914 16.517C120.821 16.3776 120.782 16.2073 120.797 16.006C120.829 15.8047 120.906 15.5724 121.03 15.3092L127.696 1.39695C127.788 1.21115 127.92 1.06405 128.091 0.955662C128.276 0.83179 128.47 0.769857 128.671 0.769857C128.811 0.769857 128.942 0.793083 129.066 0.839534C129.19 0.885984 129.298 0.955662 129.391 1.04857C129.484 1.14147 129.561 1.26534 129.623 1.42018L136.359 15.495ZM124.281 12.3595L125.071 10.5711H132.271L133.037 12.3595H124.281ZM144.467 16.9815C144.204 16.9815 143.995 16.935 143.84 16.8421C143.7 16.7492 143.6 16.6253 143.538 16.4705C143.492 16.3002 143.468 16.1066 143.468 15.8898V1.74534C143.468 1.54405 143.499 1.37373 143.561 1.23437C143.623 1.09502 143.732 0.986628 143.886 0.909211C144.057 0.816307 144.289 0.769857 144.583 0.769857C144.924 0.769857 145.164 0.800823 145.303 0.862761C145.443 0.924695 145.582 1.03308 145.721 1.18792L154.454 13.5441V1.74534C154.454 1.54405 154.477 1.37373 154.524 1.23437C154.585 1.09502 154.694 0.986628 154.849 0.909211C155.004 0.816307 155.228 0.769857 155.523 0.769857C155.801 0.769857 156.01 0.816307 156.149 0.909211C156.305 1.00212 156.405 1.13373 156.452 1.30405C156.513 1.45889 156.544 1.63695 156.544 1.83824V15.9131C156.544 16.1144 156.506 16.3002 156.428 16.4705C156.366 16.6253 156.25 16.7492 156.08 16.8421C155.925 16.935 155.7 16.9815 155.406 16.9815C155.158 16.9815 154.95 16.9505 154.779 16.8886C154.624 16.8266 154.477 16.7105 154.338 16.5402L145.559 4.27697V15.9131C145.559 16.1144 145.528 16.3002 145.466 16.4705C145.404 16.6253 145.295 16.7492 145.14 16.8421C144.986 16.935 144.761 16.9815 144.467 16.9815ZM166.044 16.9815C165.781 16.9815 165.572 16.935 165.417 16.8421C165.277 16.7492 165.177 16.6253 165.115 16.4705C165.053 16.3002 165.022 16.1144 165.022 15.9131V1.79179C165.022 1.5905 165.045 1.41244 165.092 1.2576C165.154 1.10276 165.262 0.978888 165.417 0.885984C165.572 0.793083 165.788 0.74663 166.067 0.74663L170.643 0.769857C171.788 0.769857 172.826 0.963405 173.755 1.3505C174.699 1.72212 175.505 2.25631 176.17 2.95308C176.836 3.64984 177.347 4.49373 177.703 5.4847C178.059 6.47567 178.238 7.57502 178.238 8.78275C178.238 10.037 178.059 11.1673 177.703 12.1737C177.347 13.1802 176.828 14.0395 176.147 14.7518C175.481 15.464 174.676 16.0137 173.732 16.4008C172.787 16.7879 171.734 16.9815 170.573 16.9815H166.044ZM167.112 14.8679H170.643C171.773 14.8679 172.749 14.6279 173.569 14.1479C174.39 13.6524 175.025 12.9634 175.473 12.0808C175.922 11.1828 176.147 10.1221 176.147 8.89888C176.147 7.66017 175.922 6.5918 175.473 5.69374C175.025 4.79568 174.382 4.10662 173.546 3.62665C172.725 3.13115 171.75 2.88341 170.619 2.88341H167.112V14.8679Z" fill="#1D1D1D"/>
</svg>
