<svg width="302" height="84" viewBox="0 0 302 84" fill="none" xmlns="http://www.w3.org/2000/svg">
<path d="M47.6495 -0.000488281H81.83C82.5252 -0.000488281 83.0889 0.563151 83.0889 1.25843V53.4946C83.0889 54.7458 81.4616 55.2309 80.7765 54.1839L46.596 1.94775C46.0481 1.11046 46.6489 -0.000488281 47.6495 -0.000488281Z" fill="#246DFF"/>
<path d="M35.4394 -0.000488281H1.25892C0.563639 -0.000488281 0 0.563151 0 1.25843V53.4946C0 54.7458 1.62729 55.2309 2.31236 54.1839L36.4929 1.94775C37.0407 1.11046 36.44 -0.000488281 35.4394 -0.000488281Z" fill="#20A34E"/>
<path d="M40.9589 41.8216L2.12976 80.9426C1.34126 81.7371 1.90397 83.0884 3.02328 83.0884H80.0976C81.2123 83.0884 81.777 81.7465 80.9978 80.9494L42.7526 41.8284C42.2614 41.3259 41.4539 41.3228 40.9589 41.8216Z" fill="#F86606"/>
<path d="M267.076 11.43H252.532C247.982 11.43 246.031 13.7049 246.031 17.8488V21.8302L267.223 21.8308L279.329 49.7822L291.437 21.8308H302L276.648 80.2533H266.247L274.048 62.2147L259.548 30.6058H246.031V62.9456H235.631V30.6058H224.336V21.8302H235.631V15.8178C235.631 7.85478 240.019 3.14186 249.363 3.14186H267.076V11.43Z" fill="#202F3F"/>
<path fill-rule="evenodd" clip-rule="evenodd" d="M184.299 20.937C195.025 20.9372 203.8 28.9816 203.8 42.3885C203.8 55.8766 195.025 63.8392 184.299 63.8394C175.361 63.8394 170.892 58.3142 170.079 56.6891V80.1722H159.841V21.8308H170.16V28.3314C170.892 26.7875 175.361 20.937 184.299 20.937ZM181.617 30.0378C174.548 30.0379 169.998 35.3194 169.998 42.3885C169.998 49.3763 174.548 54.7391 181.617 54.7392C188.768 54.7392 193.318 49.3764 193.318 42.3885C193.318 35.3193 188.768 30.0378 181.617 30.0378Z" fill="#202F3F"/>
<path fill-rule="evenodd" clip-rule="evenodd" d="M132.867 20.7742C145.623 20.7742 152.693 27.437 152.693 37.1875V51.0823C152.693 53.5199 153.586 54.6573 155.943 54.8198V63.189H152.693C147.574 63.1078 144.242 61.1576 143.105 57.5011C141.073 60.4263 136.848 63.8393 129.779 63.8394C120.11 63.8394 112.796 58.3138 112.796 49.9445C112.796 41.6567 119.053 37.1875 129.21 37.1875H142.698C142.698 32.2311 138.879 29.0624 132.867 29.0623C127.179 29.0623 124.903 32.1496 124.334 33.206H113.852C114.665 28.8182 119.947 20.7742 132.867 20.7742ZM130.916 44.2566C126.122 44.2566 123.034 46.0445 123.034 49.7822C123.034 53.7637 126.773 56.1199 131.973 56.1199C137.823 56.1198 142.698 53.1946 142.698 47.7506V44.2566H130.916Z" fill="#202F3F"/>
<path d="M219.387 62.9456H208.987V21.8308H219.387V62.9456Z" fill="#202F3F"/>
<path d="M219.55 15.2492H208.743V2.89844H219.55V15.2492Z" fill="#202F3F"/>
</svg>
