<svg width="375" height="120" viewBox="0 0 375 120" fill="none" xmlns="http://www.w3.org/2000/svg">
<path d="M282.229 83.8002C272.434 83.8002 265.404 76.5193 265.404 66.4873C265.404 56.4554 272.439 49.2993 281.966 49.2993C291.493 49.2993 298.59 56.5178 298.59 66.4873C298.59 67.009 298.523 67.7982 298.456 68.4536H272.966C273.689 73.8307 277.504 77.5671 282.493 77.5671C286.039 77.5671 289.327 75.6632 290.97 72.8454L296.884 76.6486C293.927 80.9155 288.21 83.8002 282.234 83.8002H282.229ZM273.292 62.8758H290.702C289.519 58.4841 286.164 55.5324 281.961 55.5324C277.758 55.5324 274.471 58.4841 273.292 62.8758ZM250.865 50.1642H258.485V85.4945C258.485 90.1271 257.583 93.5156 255.716 95.5176C253.567 97.9386 250.588 99.1157 246.778 99.1157L244.701 92.2717C246.988 92.2717 248.578 91.6519 249.48 90.4035C250.378 89.0882 250.865 86.8812 250.865 83.6977V50.1642ZM259.445 37.6399C259.445 40.2794 257.301 42.4196 254.657 42.4196C252.013 42.4196 249.869 40.2794 249.869 37.6399C249.869 35.0004 252.013 32.8602 254.657 32.8602C257.301 32.8602 259.445 35.0004 259.445 37.6399ZM307.738 37.6354H315.358V50.1509H322V56.384H315.358V82.9487H307.738V56.3796H302.374V50.1464H307.738V37.631V37.6354ZM145.208 82.9487L151.368 70.4957H174.79L180.883 82.9487H188.829L163.079 30.3634L137.329 82.9487H145.208ZM154.561 63.9816L163.083 46.6508L171.606 63.9816H154.561ZM243.562 61.351C241.173 58.3146 238.296 55.849 232.918 55.849C227.541 55.849 223.257 60.3166 223.257 66.5498C223.257 72.7829 227.331 77.2416 232.918 77.2416C238.506 77.2416 241.173 74.7225 243.558 71.6906V80.318C240.695 82.5072 237.041 83.7958 232.918 83.7958C222.998 83.7958 215.834 76.5148 215.834 66.5453C215.834 56.5758 222.998 49.2948 232.918 49.2948C237.032 49.2948 240.699 50.5432 243.558 52.719V61.342L243.562 61.351ZM200.862 82.9487H193.26V50.1642H200.862V53.3031C202.327 51.6668 203.542 50.7082 204.538 50.24C205.779 49.6426 207.146 49.3305 208.526 49.3349C210.05 49.3349 212.613 49.9502 214.757 51.27L211.3 58.1675C209.848 57.1331 208.468 56.6516 207.084 56.6516C202.934 56.6516 200.862 59.7548 200.862 65.9612V82.9487ZM98.1797 59.8885C103.053 61.1325 107.086 62.1268 115.474 63.986C109.686 65.2478 103.919 66.6122 98.1797 68.088C96.5405 68.5071 95.2586 69.7867 94.8387 71.4231C93.5881 76.2874 92.592 80.3136 90.7295 88.6869C89.4699 82.9085 88.0987 77.1524 86.6247 71.4231C86.2048 69.7867 84.9229 68.5071 83.2792 68.088C78.4062 66.8396 74.3729 65.8453 65.9847 63.986C74.3729 62.1312 78.4062 61.1325 83.2792 59.8885C84.9185 59.4694 86.2004 58.1898 86.6202 56.549C87.8709 51.6846 88.8669 47.6585 90.7295 39.2851C92.5876 47.6585 93.5881 51.6846 94.8343 56.549C95.2541 58.1853 96.536 59.465 98.1797 59.8841V59.8885Z" fill="#030000"/>
<path d="M53.0584 62.6261L54.4386 63.986L53.0584 65.3459C40.3421 64.4274 28.3583 64.2981 9.05374 64.0841L0 63.986L8.92868 63.8879C28.3091 63.6784 40.3108 63.5446 53.0539 62.6261H53.0584ZM312.785 0C345.02 0 375 27.2111 375 60C375 92.7889 345.029 119.996 312.799 120H312.289C345.248 119.719 371.882 92.9672 371.882 60C371.882 27.0328 345.248 0.280899 312.289 0.004463H312.785V0Z" fill="#030000"/>
</svg>
