<svg width="874" height="120" viewBox="0 0 874 120" fill="none" xmlns="http://www.w3.org/2000/svg">
<g clip-path="url(#clip0_1179_172)">
<path fill-rule="evenodd" clip-rule="evenodd" d="M794.876 10.4268H805.703V96.6788H794.876V87.0425C790.95 93.8236 784.166 98.2254 773.936 98.2254C759.304 98.2254 746.572 86.0907 746.572 64.9141C746.572 43.8567 759.304 31.6031 773.936 31.6031C784.166 31.6031 790.95 36.0049 794.876 42.7861V10.4268ZM776.674 40.8826C765.608 40.8826 758.351 49.6865 758.351 64.9141C758.351 80.1421 765.608 88.946 776.674 88.946C786.308 88.946 795.349 81.8079 795.349 64.9141C795.349 48.0207 786.308 40.8826 776.674 40.8826ZM824.381 68.2456C824.858 82.046 834.611 88.7082 844.129 88.7082C853.646 88.7082 858.881 84.4254 861.619 78.1197H872.801C869.827 89.1841 859.714 98.2254 844.129 98.2254C823.905 98.2254 812.722 83.7114 812.722 64.7956C812.722 44.5707 826.282 31.6033 843.772 31.6033C863.284 31.6033 875.062 48.0207 873.634 68.2456H824.381ZM824.501 58.9659H862.211C861.975 49.9242 855.195 40.8826 843.772 40.8826C834.135 40.8826 825.45 46.1172 824.501 58.9659ZM712.054 98.2254C726.926 98.2254 742.747 88.1131 742.747 64.9145C742.747 41.7155 726.926 31.6033 712.054 31.6033C697.181 31.6033 681.36 41.7155 681.36 64.9145C681.36 88.1131 697.181 98.2254 712.054 98.2254ZM731.209 64.9145C731.209 81.332 721.807 88.7082 712.054 88.7082C702.3 88.7082 692.899 81.9267 692.899 64.9145C692.899 47.426 702.3 41.1207 712.054 41.1207C721.807 41.1207 731.209 47.9019 731.209 64.9145ZM677.67 54.0882H666.724C665.179 46.4742 658.515 41.1207 650.186 41.1207C640.552 41.1207 631.747 48.6159 631.747 64.6764C631.747 80.975 640.669 88.7082 650.186 88.7082C659.227 88.7082 665.655 82.6407 667.2 75.8596H678.382C676.241 87.8753 664.702 98.2254 649.83 98.2254C631.511 98.2254 619.969 84.3061 619.969 64.7956C619.969 45.7606 631.984 31.6033 650.902 31.6033C666.367 31.6033 676.241 43.262 677.67 54.0882ZM582.675 16.6132H571.849V32.6739H561.735V41.3585H571.849V80.6184C571.849 93.9425 574.702 96.6788 586.957 96.6788H594.81V87.6372H589.335C583.151 87.6372 582.675 85.9718 582.675 79.3096V41.3585H594.81V32.6739H582.675V16.6132ZM516.454 42.3102C520.14 36.243 526.327 31.6033 537.154 31.6033C552.619 31.6033 558.21 41.5966 558.21 56.2299V96.6788H547.384V59.4417C547.384 49.5676 545.719 41.0019 533.347 41.0019C522.877 41.0019 516.454 48.2589 516.454 61.9404V96.6788H505.627V32.674H516.454V42.3102ZM469.155 88.7082C459.637 88.7082 449.884 82.046 449.407 68.2456H498.66C500.089 48.0207 488.31 31.6033 468.799 31.6033C451.312 31.6033 437.749 44.5707 437.749 64.7956C437.749 83.7114 448.931 98.2254 469.155 98.2254C484.74 98.2254 494.854 89.1841 497.827 78.1197H486.645C483.907 84.4254 478.672 88.7082 469.155 88.7082ZM487.241 58.9659H449.527C450.48 46.1172 459.161 40.8826 468.799 40.8826C480.221 40.8826 487.001 49.9242 487.241 58.9659ZM351.625 96.6788H340.8V32.674H351.625V42.3102C355.314 36.243 361.262 31.6033 370.899 31.6033C380.655 31.6033 386.482 35.8861 389.34 42.9054C394.455 35.0533 401.947 31.6033 410.872 31.6033C425.741 31.6033 431.572 41.5966 431.572 56.2299V96.6788H420.746V59.4417C420.746 49.5676 418.841 41.0019 407.066 41.0019C397.785 41.0019 391.597 48.2589 391.597 61.9404V96.6788H380.771V59.4417C380.771 49.5676 378.87 41.0019 367.092 41.0019C357.812 41.0019 351.625 48.2589 351.625 61.9404V96.6788ZM329.357 32.674H318.531V42.7861C314.605 36.0051 308.418 31.6033 298.187 31.6033C284.03 31.6033 271.062 43.1431 271.062 63.6057C271.062 84.1872 284.03 95.6082 298.187 95.6082C308.418 95.6082 314.605 91.3254 318.531 84.5442V90.6117C318.531 99.2964 316.746 102.27 314.367 104.769C311.512 107.862 307.11 109.527 301.28 109.527C291.287 109.527 287.837 105.126 286.409 99.4152H274.869C276.892 112.383 286.647 119.045 301.161 119.045C310.679 119.045 318.65 115.952 323.29 110.598C326.977 106.553 329.357 101.2 329.357 88.1131V32.674ZM282.84 63.6057C282.84 49.0917 290.335 40.8826 300.924 40.8826C310.56 40.8826 319.007 47.426 319.007 63.6057C319.007 79.9043 310.56 86.4477 300.924 86.4477C290.335 86.4477 282.84 78.239 282.84 63.6057ZM253.115 87.5206C249.427 93.5877 243.598 98.2276 233.01 98.2276C218.139 98.2276 212.547 88.2342 212.547 73.6014V32.6761H223.373V70.3891C223.373 80.2636 225.039 88.829 236.817 88.829C247.048 88.829 253.115 81.572 253.115 67.8909V32.6761H263.941V96.6811H253.115V87.5206ZM192.192 57.2997C165.9 60.2739 148.888 64.6756 148.888 79.7847C148.888 91.5627 158.881 98.225 170.897 98.225C182.199 98.225 188.861 94.418 192.787 87.8746C192.906 91.6816 193.263 94.2987 193.62 96.6781H204.565C203.375 90.611 202.78 83.2347 202.899 72.5277L203.019 57.7756C203.137 39.8112 195.166 31.3646 177.559 31.3646C165.067 31.3646 152.933 39.0976 151.862 52.898H163.045C163.521 45.0459 168.756 40.1682 177.678 40.1682C185.649 40.1682 192.192 44.0941 192.192 55.7532V57.2997ZM160.903 79.5466C160.903 70.7431 173.395 67.8879 193.025 65.8655V69.9102C193.025 85.0193 183.388 89.6592 173.276 89.6592C165.543 89.6592 160.903 85.6141 160.903 79.5466Z" fill="black"/>
<path fill-rule="evenodd" clip-rule="evenodd" d="M53.6846 0.69297C54.3753 0.314901 55.3102 0.170898 56.3913 0.170898C57.4762 0.170898 58.4163 0.321752 59.1108 0.718612C59.8702 1.15268 60.2831 1.85473 60.2831 2.73066V2.76002L59.6898 18.5828C59.6872 18.9274 59.6025 19.2645 59.4123 19.5668C59.2207 19.8711 58.9503 20.0962 58.6443 20.2582C58.056 20.5699 57.2733 20.6824 56.3913 20.6824C55.5097 20.6824 54.7271 20.5699 54.1387 20.2582C53.8327 20.0962 53.5623 19.8711 53.3707 19.5668C53.1806 19.2645 53.0958 18.9275 53.0932 18.583C52.9443 14.6435 52.8236 11.5895 52.7246 9.42549L52.7238 9.40719C52.674 7.18768 52.6248 5.61793 52.5757 4.69351C52.5266 3.76606 52.5 3.17221 52.5 2.95084V2.65608C52.5 2.2491 52.5945 1.85596 52.809 1.50427C53.0223 1.15429 53.328 0.888427 53.6846 0.69297ZM66.264 0.69297C66.9543 0.314901 67.8892 0.170898 68.9707 0.170898C70.0552 0.170898 70.9957 0.321751 71.6898 0.718612C72.4496 1.15268 72.8621 1.85473 72.8621 2.73066V2.76002L72.2692 18.5828C72.2666 18.9274 72.1818 19.2645 71.9917 19.5668C71.8001 19.8711 71.5293 20.0962 71.2233 20.2582C70.635 20.5699 69.8523 20.6824 68.9707 20.6824C68.0891 20.6824 67.3065 20.5699 66.7181 20.2582C66.4121 20.0962 66.1413 19.8711 65.9497 19.5668C65.7596 19.2645 65.6748 18.9276 65.6722 18.5831C65.5233 14.6436 65.403 11.5895 65.3036 9.42549L65.3028 9.40719C65.2533 7.18768 65.2038 5.61793 65.1547 4.69351C65.1056 3.76606 65.0793 3.17221 65.0793 2.95084V2.65608C65.0793 2.2491 65.1738 1.85596 65.388 1.50427C65.6013 1.15429 65.907 0.888427 66.264 0.69297ZM76.6965 25.3394C77.4438 24.6662 78.369 24.3484 79.4205 24.3484H102.924C105.942 24.3484 108.366 25.1551 110.086 26.8674C111.813 28.5857 112.608 31.0508 112.608 34.1176V54.1122C112.608 56.4429 113.084 57.9841 113.866 58.8871C114.619 59.7526 116.061 60.323 118.444 60.3781L118.484 60.3789C119.433 60.4494 120.246 60.8217 120.859 61.5192C121.482 62.2171 121.76 63.0924 121.76 64.067C121.76 65.0049 121.473 65.8512 120.884 66.5784C120.27 67.3505 119.422 67.7532 118.436 67.7559C116.057 67.8121 114.62 68.3825 113.863 69.2491C113.079 70.1517 112.608 71.7091 112.608 74.1102V94.1049C112.608 96.1362 112.255 97.904 111.509 99.3957C110.758 100.899 109.644 102.03 108.172 102.786L108.169 102.788C106.706 103.529 104.947 103.881 102.924 103.881H80.2046V103.902H79.4205C78.3517 103.902 77.4262 103.556 76.68 102.85C75.9476 102.153 75.5501 101.29 75.5501 100.302C75.5501 99.3586 75.8662 98.5047 76.4932 97.7971C77.157 97.0479 78.0416 96.695 79.0653 96.695H100.889C102 96.695 102.703 96.4134 103.15 95.9596L103.154 95.9551C103.596 95.5134 103.894 94.7562 103.894 93.5082V73.3325C103.894 71.4628 104.272 69.7456 105.032 68.1909C105.787 66.6425 106.811 65.4061 108.105 64.4949C108.319 64.3452 108.542 64.2061 108.768 64.0812C108.542 63.956 108.322 63.8187 108.108 63.6691C106.81 62.7639 105.786 61.5219 105.031 59.9705C104.272 58.4161 103.894 56.699 103.894 54.8296V34.7426C103.894 33.5051 103.597 32.7448 103.152 32.2942C102.699 31.8416 101.987 31.5562 100.889 31.5562H79.0653C78.0438 31.5562 77.1633 31.1963 76.497 30.4545C75.8658 29.7511 75.5501 28.8981 75.5501 27.9452C75.5501 26.9123 75.9288 26.0244 76.6965 25.3394ZM76.6965 25.3394L76.6931 25.3425L77.2185 25.9244L76.6965 25.3394ZM14.6382 26.8885C16.3525 25.1742 18.7849 24.3682 21.8018 24.3682H45.3052C46.362 24.3682 47.2815 24.6926 48.0288 25.359L48.0326 25.3623C48.7875 26.0441 49.1756 26.9358 49.1756 27.965C49.1756 28.9208 48.8587 29.7635 48.2325 30.4702C47.5702 31.2174 46.6867 31.5759 45.6603 31.5759H23.8368C22.7297 31.5759 22.0223 31.8624 21.5729 32.3143C21.1313 32.7559 20.8315 33.5145 20.8315 34.7624V54.8495C20.8315 56.7196 20.4536 58.4367 19.6935 59.9919C18.9383 61.5399 17.9148 62.7762 16.6206 63.6871C16.4064 63.8367 16.1838 63.9759 15.9578 64.1007C16.1838 64.226 16.4039 64.3633 16.6179 64.5129C17.9155 65.4181 18.9395 66.6601 19.6941 68.2115C20.4543 69.7662 20.8315 71.4822 20.8315 73.3524V93.5281C20.8315 94.7746 21.1292 95.5302 21.5729 95.9761C22.0236 96.4317 22.7332 96.7145 23.8368 96.7145H45.6603C46.6818 96.7145 47.5608 97.0741 48.2272 97.811C48.8673 98.5231 49.1756 99.3751 49.1756 100.322C49.1756 101.316 48.7841 102.171 48.0461 102.87C47.2972 103.583 46.3676 103.922 45.3052 103.922H21.0178V103.883C19.3212 103.802 17.8272 103.451 16.5571 102.808C15.0813 102.058 13.9596 100.91 13.2156 99.4141C12.4782 97.9314 12.1179 96.1542 12.1179 94.1247V74.1301C12.1179 71.7399 11.6409 70.175 10.86 69.2664C10.1075 68.402 8.66813 67.832 6.29007 67.7758C5.29662 67.7731 4.45617 67.3794 3.83944 66.5956C3.25272 65.8659 2.96582 65.0139 2.96582 64.0869C2.96582 63.1119 3.24423 62.2366 3.86656 61.5384C4.48396 60.842 5.30239 60.4704 6.24106 60.3999L6.28058 60.3969C8.66701 60.3384 10.1086 59.7714 10.8612 58.9055C11.6483 58.0003 12.1179 56.4646 12.1179 54.1321V34.1374C12.1179 31.0687 12.9212 28.6055 14.6382 26.8885ZM84.4706 55.4525C79.7583 55.4525 75.9375 59.2734 75.9375 63.9856C75.9375 68.6982 79.7583 72.5191 84.4706 72.5191C89.1832 72.5191 93.0041 68.6982 93.0041 63.9856C93.0041 59.2734 89.1832 55.4525 84.4706 55.4525ZM33.5225 63.9856C33.5225 59.2734 37.3433 55.4525 42.0558 55.4525C46.7681 55.4525 50.589 59.2734 50.589 63.9856C50.589 68.6982 46.7681 72.5191 42.0558 72.5191C37.3433 72.5191 33.5225 68.6982 33.5225 63.9856Z" fill="black"/>
</g>
<defs>
<clipPath id="clip0_1179_172">
<rect width="873.75" height="120" fill="white"/>
</clipPath>
</defs>
</svg>
