<svg width="874" height="120" viewBox="0 0 874 120" fill="none" xmlns="http://www.w3.org/2000/svg">
<g clip-path="url(#clip0_947_177)">
<path fill-rule="evenodd" clip-rule="evenodd" d="M795.104 10.4263H805.933V96.6784H795.104V87.042C791.176 93.8231 784.391 98.2249 774.158 98.2249C759.521 98.2249 746.786 86.0902 746.786 64.9136C746.786 43.8562 759.521 31.6026 774.158 31.6026C784.391 31.6026 791.176 36.0045 795.104 42.7856V10.4263ZM776.896 40.8821C765.827 40.8821 758.568 49.686 758.568 64.9136C758.568 80.1416 765.827 88.9455 776.896 88.9455C786.533 88.9455 795.576 81.8074 795.576 64.9136C795.576 48.0202 786.533 40.8821 776.896 40.8821ZM824.617 68.2451C825.094 82.0455 834.85 88.7077 844.37 88.7077C853.891 88.7077 859.127 84.4249 861.865 78.1192H873.051C870.076 89.1836 859.96 98.2249 844.37 98.2249C824.141 98.2249 812.955 83.7109 812.955 64.7951C812.955 44.5702 826.519 31.6028 844.014 31.6028C863.531 31.6028 875.313 48.0202 873.884 68.2451H824.617ZM824.737 58.9654H862.458C862.222 49.9237 855.44 40.8821 844.014 40.8821C834.374 40.8821 825.686 46.1167 824.737 58.9654ZM712.258 98.2249C727.134 98.2249 742.96 88.1126 742.96 64.914C742.96 41.715 727.134 31.6028 712.258 31.6028C697.381 31.6028 681.555 41.715 681.555 64.914C681.555 88.1126 697.381 98.2249 712.258 98.2249ZM731.418 64.914C731.418 81.3315 722.014 88.7077 712.258 88.7077C702.501 88.7077 693.097 81.9262 693.097 64.914C693.097 47.4255 702.501 41.1202 712.258 41.1202C722.014 41.1202 731.418 47.9014 731.418 64.914ZM677.864 54.0877H666.915C665.369 46.4737 658.703 41.1202 650.372 41.1202C640.736 41.1202 631.928 48.6154 631.928 64.6759C631.928 80.9745 640.852 88.7077 650.372 88.7077C659.416 88.7077 665.846 82.6402 667.391 75.8591H678.577C676.435 87.8749 664.893 98.2249 650.016 98.2249C631.692 98.2249 620.146 84.3056 620.146 64.7951C620.146 45.7601 632.165 31.6028 651.089 31.6028C666.558 31.6028 676.435 43.2615 677.864 54.0877ZM582.842 16.6127H572.012V32.6734H561.896V41.358H572.012V80.6179C572.012 93.942 574.867 96.6784 587.126 96.6784H594.98V87.6367H589.504C583.318 87.6367 582.842 85.9714 582.842 79.3091V41.358H594.98V32.6734H582.842V16.6127ZM516.602 42.3097C520.289 36.2425 526.478 31.6028 537.307 31.6028C552.777 31.6028 558.37 41.5961 558.37 56.2294V96.6784H547.54V59.4412C547.54 49.5671 545.875 41.0014 533.5 41.0014C523.027 41.0014 516.602 48.2584 516.602 61.9399V96.6784H505.772V32.6735H516.602V42.3097ZM469.289 88.7077C459.769 88.7077 450.013 82.0455 449.536 68.2451H498.803C500.232 48.0202 488.45 31.6028 468.933 31.6028C451.442 31.6028 437.874 44.5702 437.874 64.7951C437.874 83.7109 449.06 98.2249 469.289 98.2249C484.879 98.2249 494.995 89.1836 497.97 78.1192H486.784C484.046 84.4249 478.81 88.7077 469.289 88.7077ZM487.381 58.9654H449.656C450.609 46.1167 459.293 40.8821 468.933 40.8821C480.359 40.8821 487.141 49.9237 487.381 58.9654ZM351.726 96.6784H340.897V32.6735H351.726V42.3097C355.415 36.2425 361.366 31.6028 371.005 31.6028C380.764 31.6028 386.593 35.8856 389.451 42.9049C394.568 35.0529 402.063 31.6028 410.99 31.6028C425.863 31.6028 431.696 41.5961 431.696 56.2294V96.6784H420.867V59.4412C420.867 49.5671 418.961 41.0014 407.183 41.0014C397.899 41.0014 391.71 48.2584 391.71 61.9399V96.6784H380.88V59.4412C380.88 49.5671 378.978 41.0014 367.197 41.0014C357.914 41.0014 351.726 48.2584 351.726 61.9399V96.6784ZM329.451 32.6735H318.622V42.7856C314.695 36.0046 308.507 31.6028 298.273 31.6028C284.111 31.6028 271.14 43.1426 271.14 63.6052C271.14 84.1867 284.111 95.6077 298.273 95.6077C308.507 95.6077 314.695 91.3249 318.622 84.5437V90.6112C318.622 99.2959 316.837 102.27 314.457 104.768C311.601 107.862 307.198 109.527 301.367 109.527C291.371 109.527 287.919 105.125 286.491 99.4147H274.948C276.971 112.382 286.729 119.044 301.248 119.044C310.768 119.044 318.741 115.951 323.382 110.598C327.071 106.553 329.451 101.199 329.451 88.1126V32.6735ZM282.921 63.6052C282.921 49.0912 290.419 40.8821 301.01 40.8821C310.649 40.8821 319.098 47.4255 319.098 63.6052C319.098 79.9039 310.649 86.4472 301.01 86.4472C290.419 86.4472 282.921 78.2385 282.921 63.6052ZM253.188 87.5201C249.499 93.5872 243.668 98.2271 233.076 98.2271C218.201 98.2271 212.608 88.2337 212.608 73.6009V32.6756H223.437V70.3886C223.437 80.2631 225.103 88.8285 236.884 88.8285C247.119 88.8285 253.188 81.5715 253.188 67.8904V32.6756H264.017V96.6806H253.188V87.5201ZM192.247 57.2992C165.948 60.2734 148.93 64.6751 148.93 79.7842C148.93 91.5622 158.927 98.2245 170.946 98.2245C182.251 98.2245 188.915 94.4175 192.842 87.8741C192.961 91.6811 193.318 94.2982 193.675 96.6776H204.624C203.434 90.6105 202.839 83.2342 202.957 72.5272L203.077 57.7751C203.196 39.8107 195.222 31.3641 177.61 31.3641C165.115 31.3641 152.977 39.0971 151.906 52.8975H163.092C163.568 45.0454 168.804 40.1677 177.729 40.1677C185.702 40.1677 192.247 44.0936 192.247 55.7527V57.2992ZM160.95 79.5461C160.95 70.7426 173.445 67.8874 193.081 65.865V69.9097C193.081 85.0189 183.441 89.6587 173.326 89.6587C165.591 89.6587 160.95 85.6136 160.95 79.5461Z" fill="black"/>
<path fill-rule="evenodd" clip-rule="evenodd" d="M53.7001 0.693214C54.391 0.315145 55.3262 0.171143 56.4076 0.171143C57.4928 0.171143 58.4332 0.321996 59.1279 0.718856C59.8875 1.15293 60.3005 1.85498 60.3005 2.7309V2.76026L59.7071 18.583C59.7044 18.9276 59.6196 19.2647 59.4295 19.567C59.2378 19.8714 58.9673 20.0965 58.6613 20.2585C58.0727 20.5702 57.2899 20.6826 56.4076 20.6826C55.5257 20.6826 54.7429 20.5702 54.1543 20.2585C53.8483 20.0965 53.5778 19.8714 53.3861 19.567C53.1959 19.2648 53.1112 18.9277 53.1085 18.5832C52.9596 14.6437 52.8388 11.5897 52.7398 9.42573L52.7391 9.40743C52.6892 7.18792 52.64 5.61817 52.5909 4.69376C52.5417 3.76631 52.5151 3.17245 52.5151 2.95109V2.65632C52.5151 2.24935 52.6096 1.85621 52.8242 1.50452C53.0376 1.15454 53.3434 0.888671 53.7001 0.693214ZM66.2831 0.693214C66.9736 0.315145 67.9088 0.171143 68.9906 0.171143C70.0754 0.171143 71.0162 0.321995 71.7105 0.718856C72.4705 1.15293 72.8831 1.85498 72.8831 2.7309V2.76026L72.29 18.583C72.2874 18.9276 72.2026 19.2647 72.0124 19.567C71.8208 19.8714 71.5499 20.0965 71.2439 20.2585C70.6553 20.5702 69.8725 20.6826 68.9906 20.6826C68.1087 20.6826 67.3259 20.5702 66.7373 20.2585C66.4312 20.0965 66.1604 19.8714 65.9687 19.567C65.7785 19.2648 65.6938 18.9278 65.6911 18.5833C65.5422 14.6438 65.4218 11.5897 65.3224 9.42573L65.3217 9.40743C65.2721 7.18792 65.2226 5.61817 65.1735 4.69376C65.1243 3.76631 65.0981 3.17245 65.0981 2.95109V2.65632C65.0981 2.24935 65.1926 1.85621 65.4068 1.50452C65.6202 1.15454 65.926 0.888671 66.2831 0.693214ZM76.7185 25.3396C77.4661 24.6664 78.3915 24.3486 79.4433 24.3486H102.954C105.972 24.3486 108.397 25.1553 110.118 26.8677C111.845 28.5859 112.64 31.051 112.64 34.1178V54.1125C112.64 56.4431 113.116 57.9844 113.898 58.8874C114.652 59.7529 116.094 60.3232 118.478 60.3784L118.518 60.3791C119.468 60.4496 120.28 60.822 120.894 61.5195C121.516 62.2174 121.795 63.0926 121.795 64.0672C121.795 65.0051 121.507 65.8515 120.919 66.5786C120.305 67.3507 119.456 67.7535 118.47 67.7561C116.091 67.8124 114.653 68.3827 113.896 69.2494C113.112 70.152 112.64 71.7094 112.64 74.1105V94.1051C112.64 96.1365 112.287 97.9042 111.541 99.396C110.79 100.899 109.676 102.031 108.204 102.786L108.2 102.788C106.737 103.529 104.977 103.881 102.954 103.881H80.2277V103.903H79.4433C78.3743 103.903 77.4485 103.556 76.702 102.85C75.9695 102.153 75.5718 101.29 75.5718 100.302C75.5718 99.3589 75.888 98.505 76.5152 97.7974C77.1792 97.0481 78.0641 96.6952 79.0881 96.6952H100.918C102.03 96.6952 102.733 96.4136 103.179 95.9599L103.184 95.9554C103.626 95.5136 103.924 94.7565 103.924 93.5085V73.3327C103.924 71.463 104.302 69.7459 105.062 68.1911C105.817 66.6427 106.842 65.4064 108.136 64.4951C108.35 64.3455 108.573 64.2064 108.799 64.0815C108.573 63.9562 108.353 63.819 108.139 63.6694C106.841 62.7641 105.817 61.5221 105.062 59.9707C104.302 58.4164 103.924 56.6992 103.924 54.8299V34.7429C103.924 33.5053 103.627 32.745 103.182 32.2944C102.728 31.8418 102.016 31.5564 100.918 31.5564H79.0881C78.0663 31.5564 77.1856 31.1965 76.519 30.4548C75.8877 29.7514 75.5718 28.8984 75.5718 27.9454C75.5718 26.9125 75.9507 26.0247 76.7185 25.3396ZM76.7185 25.3396L76.7152 25.3428L77.2407 25.9246L76.7185 25.3396ZM14.6425 26.8887C16.3573 25.1745 18.7904 24.3684 21.8082 24.3684H45.3183C46.3754 24.3684 47.2951 24.6929 48.0427 25.3592L48.0465 25.3625C48.8016 26.0443 49.1898 26.9361 49.1898 27.9652C49.1898 28.921 48.8728 29.7637 48.2464 30.4704C47.584 31.2177 46.7002 31.5762 45.6735 31.5762H23.8438C22.7364 31.5762 22.0287 31.8627 21.5792 32.3146C21.1375 32.7561 20.8376 33.5148 20.8376 34.7627V54.8497C20.8376 56.7199 20.4596 58.437 19.6992 59.9921C18.9439 61.5401 17.9201 62.7765 16.6255 63.6874C16.4113 63.837 16.1885 63.9761 15.9625 64.101C16.1885 64.2262 16.4087 64.3635 16.6228 64.5131C17.9208 65.4184 18.945 66.6604 19.6999 68.2117C20.4602 69.7665 20.8376 71.4825 20.8376 73.3526V93.5284C20.8376 94.7749 21.1353 95.5305 21.5792 95.9764C22.03 96.432 22.7399 96.7147 23.8438 96.7147H45.6735C46.6953 96.7147 47.5746 97.0744 48.2411 97.8112C48.8815 98.5234 49.1898 99.3754 49.1898 100.322C49.1898 101.316 48.7982 102.171 48.06 102.87C47.3109 103.583 46.381 103.923 45.3183 103.923H21.024V103.883C19.3269 103.802 17.8324 103.452 16.562 102.808C15.0858 102.058 13.9638 100.91 13.2196 99.4144C12.4819 97.9316 12.1215 96.1545 12.1215 94.125V74.1304C12.1215 71.7401 11.6444 70.1752 10.8632 69.2666C10.1105 68.4022 8.67074 67.8322 6.292 67.776C5.29826 67.7734 4.45757 67.3796 3.84067 66.5959C3.25378 65.8661 2.9668 65.0141 2.9668 64.0871C2.9668 63.1121 3.24528 62.2369 3.86779 61.5386C4.48537 60.8422 5.30404 60.4706 6.24297 60.4001L6.28251 60.3971C8.66961 60.3386 10.1116 59.7716 10.8645 58.9057C11.6518 58.0005 12.1215 56.4649 12.1215 54.1324V34.1376C12.1215 31.069 12.9251 28.6057 14.6425 26.8887ZM84.4949 55.4527C79.7813 55.4527 75.9593 59.2736 75.9593 63.9859C75.9593 68.6985 79.7813 72.5194 84.4949 72.5194C89.2089 72.5194 93.0308 68.6985 93.0308 63.9859C93.0308 59.2736 89.2089 55.4527 84.4949 55.4527ZM33.5322 63.9859C33.5322 59.2736 37.3541 55.4527 42.068 55.4527C46.7816 55.4527 50.6036 59.2736 50.6036 63.9859C50.6036 68.6985 46.7816 72.5194 42.068 72.5194C37.3541 72.5194 33.5322 68.6985 33.5322 63.9859Z" fill="black"/>
</g>
<defs>
<clipPath id="clip0_947_177">
<rect width="874" height="120" fill="white"/>
</clipPath>
</defs>
</svg>
