<svg width="74" height="44" viewBox="0 0 74 44" fill="none" xmlns="http://www.w3.org/2000/svg">
<g clip-path="url(#clip0_2060_259)">
<path d="M20.8878 16.0528C20.8878 16.9473 20.9845 17.6726 21.1537 18.2045C21.3472 18.7363 21.5889 19.3165 21.9274 19.9451C22.0483 20.1385 22.0966 20.3319 22.0966 20.5012C22.0966 20.7429 21.9516 20.9847 21.6373 21.2264L20.1142 22.2418C19.8966 22.3869 19.679 22.4594 19.4856 22.4594C19.2439 22.4594 19.0021 22.3385 18.7603 22.1209C18.4219 21.7583 18.1318 21.3715 17.89 20.9847C17.6483 20.5737 17.4065 20.1143 17.1406 19.5583C15.2548 21.7825 12.8856 22.8946 10.0329 22.8946C8.0021 22.8946 6.38232 22.3143 5.1977 21.1539C4.01309 19.9935 3.40869 18.4462 3.40869 16.5121C3.40869 14.4572 4.13397 12.7891 5.60869 11.5319C7.08342 10.2748 9.04166 9.64621 11.5318 9.64621C12.3537 9.64621 13.1999 9.71874 14.0944 9.83962C14.9889 9.9605 15.9076 10.1539 16.8746 10.3715V8.60665C16.8746 6.76929 16.4878 5.48797 15.7384 4.73852C14.9647 3.98907 13.6592 3.62643 11.7977 3.62643C10.9515 3.62643 10.0812 3.72313 9.18671 3.94072C8.29221 4.1583 7.42188 4.42423 6.57572 4.76269C6.18891 4.93193 5.8988 5.02863 5.72957 5.07698C5.56034 5.12533 5.43946 5.14951 5.34276 5.14951C5.0043 5.14951 4.83507 4.90775 4.83507 4.40006V3.21544C4.83507 2.82863 4.88342 2.53852 5.0043 2.36929C5.12518 2.20006 5.34276 2.03083 5.68122 1.8616C6.52737 1.42643 7.54276 1.06379 8.72737 0.773683C9.91199 0.459398 11.1691 0.314343 12.4988 0.314343C15.3757 0.314343 17.479 0.96709 18.8329 2.27258C20.1625 3.57808 20.8395 5.5605 20.8395 8.21984V16.0528H20.8878ZM11.0724 19.7275C11.8702 19.7275 12.6922 19.5825 13.5625 19.2924C14.4329 19.0023 15.2065 18.4704 15.8592 17.7451C16.2461 17.2858 16.5362 16.7781 16.6812 16.1979C16.8263 15.6176 16.923 14.9165 16.923 14.0946V13.0792C16.2219 12.9099 15.4724 12.7649 14.6988 12.6682C13.9252 12.5715 13.1757 12.5231 12.4263 12.5231C10.8065 12.5231 9.62188 12.8374 8.82408 13.4902C8.02627 14.1429 7.63946 15.0616 7.63946 16.2704C7.63946 17.4067 7.92957 18.2528 8.53397 18.833C9.11419 19.4374 9.96034 19.7275 11.0724 19.7275ZM30.4856 22.3385C30.0505 22.3385 29.7603 22.266 29.5669 22.0968C29.3735 21.9517 29.2043 21.6132 29.0592 21.1539L23.3779 2.46599C23.2329 1.98247 23.1603 1.66819 23.1603 1.49896C23.1603 1.11215 23.3537 0.894563 23.7406 0.894563H26.1098C26.5691 0.894563 26.8834 0.96709 27.0526 1.13632C27.2461 1.28138 27.3911 1.61984 27.5362 2.07918L31.5977 18.0836L35.3691 2.07918C35.49 1.59566 35.6351 1.28138 35.8285 1.13632C36.0219 0.991266 36.3603 0.894563 36.7955 0.894563H38.7296C39.1889 0.894563 39.5032 0.96709 39.6966 1.13632C39.89 1.28138 40.0592 1.61984 40.1559 2.07918L43.9757 18.277L48.1581 2.07918C48.3032 1.59566 48.4724 1.28138 48.6417 1.13632C48.8351 0.991266 49.1494 0.894563 49.5845 0.894563H51.8329C52.2197 0.894563 52.4373 1.08797 52.4373 1.49896C52.4373 1.61984 52.4131 1.74072 52.3889 1.88577C52.3647 2.03083 52.3164 2.22423 52.2197 2.49017L46.3933 21.1781C46.2483 21.6616 46.079 21.9759 45.8856 22.1209C45.6922 22.266 45.3779 22.3627 44.9669 22.3627H42.8878C42.4285 22.3627 42.1142 22.2902 41.9208 22.1209C41.7274 21.9517 41.5581 21.6374 41.4614 21.1539L37.7142 5.5605L33.9911 21.1297C33.8702 21.6132 33.7252 21.9275 33.5318 22.0968C33.3384 22.266 32.9999 22.3385 32.5647 22.3385H30.4856ZM61.5516 22.9913C60.2944 22.9913 59.0373 22.8462 57.8285 22.5561C56.6197 22.266 55.6768 21.9517 55.0483 21.5891C54.6614 21.3715 54.3955 21.1297 54.2988 20.9121C54.2021 20.6946 54.1537 20.4528 54.1537 20.2352V19.0023C54.1537 18.4946 54.3472 18.2528 54.7098 18.2528C54.8548 18.2528 54.9999 18.277 55.145 18.3253C55.29 18.3737 55.5076 18.4704 55.7494 18.5671C56.5713 18.9297 57.4658 19.2198 58.4087 19.4132C59.3757 19.6067 60.3186 19.7034 61.2856 19.7034C62.8087 19.7034 63.9933 19.4374 64.8153 18.9056C65.6373 18.3737 66.0724 17.6001 66.0724 16.6088C66.0724 15.9319 65.8548 15.3759 65.4197 14.9165C64.9845 14.4572 64.1625 14.0462 62.9779 13.6594L59.4724 12.5715C57.7076 12.0154 56.4021 11.1935 55.6043 10.1056C54.8065 9.04182 54.3955 7.8572 54.3955 6.60006C54.3955 5.58467 54.6131 4.69017 55.0483 3.91654C55.4834 3.14291 56.0636 2.46599 56.7889 1.93412C57.5142 1.37808 58.3362 0.96709 59.3032 0.67698C60.2702 0.38687 61.2856 0.265991 62.3494 0.265991C62.8812 0.265991 63.4373 0.290167 63.9691 0.362695C64.5252 0.435222 65.0329 0.531925 65.5406 0.628629C66.0241 0.749508 66.4834 0.870387 66.9186 1.01544C67.3537 1.1605 67.6922 1.30555 67.934 1.45061C68.2724 1.64401 68.5142 1.83742 68.6592 2.055C68.8043 2.24841 68.8768 2.51434 68.8768 2.8528V3.98907C68.8768 4.49676 68.6834 4.76269 68.3208 4.76269C68.1274 4.76269 67.8131 4.66599 67.4021 4.47258C66.0241 3.84401 64.4768 3.52973 62.7603 3.52973C61.3823 3.52973 60.2944 3.74731 59.545 4.20665C58.7955 4.66599 58.4087 5.36709 58.4087 6.3583C58.4087 7.03522 58.6505 7.61544 59.134 8.07478C59.6175 8.53412 60.512 8.99346 61.7933 9.40445L65.2263 10.4924C66.9669 11.0484 68.2241 11.822 68.9735 12.8132C69.723 13.8045 70.0856 14.9407 70.0856 16.1979C70.0856 17.2374 69.868 18.1803 69.457 19.0023C69.0219 19.8242 68.4417 20.5495 67.6922 21.1297C66.9428 21.7341 66.0483 22.1693 65.0087 22.4836C63.9208 22.822 62.7845 22.9913 61.5516 22.9913Z" fill="#252F3E"/>
<path fill-rule="evenodd" clip-rule="evenodd" d="M66.1208 34.7407C58.167 40.6154 46.6109 43.7341 36.6747 43.7341C22.7494 43.7341 10.2021 38.5847 0.725224 30.0264C-0.0242262 29.3495 0.652697 28.4308 1.5472 28.9627C11.7978 34.9099 24.4417 38.5121 37.5208 38.5121C46.345 38.5121 56.0395 36.6748 64.9604 32.9033C66.2901 32.2989 67.4263 33.7737 66.1208 34.7407Z" fill="#FF9900"/>
<path fill-rule="evenodd" clip-rule="evenodd" d="M69.4329 30.9693C68.4175 29.6638 62.712 30.3407 60.1252 30.655C59.3516 30.7517 59.2307 30.0748 59.9318 29.5671C64.4769 26.3759 71.9472 27.2946 72.8175 28.3583C73.6879 29.4462 72.5758 36.9166 68.3208 40.4946C67.6681 41.0506 67.0395 40.7605 67.3296 40.0352C68.2966 37.6418 70.4483 32.2506 69.4329 30.9693Z" fill="#FF9900"/>
</g>
<defs>
<clipPath id="clip0_2060_259">
<rect width="73.4945" height="44" fill="white"/>
</clipPath>
</defs>
</svg>
