<svg width="379" height="80" viewBox="0 0 379 80" fill="none" xmlns="http://www.w3.org/2000/svg">
<path d="M53.0345 40.0061C53.0345 36.6481 51.0829 33.4745 47.6264 30.6453C66.8238 13.5044 31.3533 -0.438426 0 0.0105477V79.9894C31.3227 80.4384 66.8299 66.5141 47.6264 49.3546C51.0829 46.5378 53.0345 43.3642 53.0345 40.0061ZM5.10829 5.20758C15.3065 5.5889 26.7834 7.4094 35.6112 10.9704C40.7256 13.0923 47.5958 16.6349 47.9445 21.2784C48.073 23.4249 45.3323 26.211 43.1482 27.6378C34.455 22.7668 20.7819 19.4271 5.10829 18.8306V5.20758ZM5.10829 37.3554V23.9353C16.2486 24.4028 28.2149 26.2909 37.8014 30.6392C28.221 34.9875 16.2425 36.8818 5.10829 37.3492V37.3554ZM19.7969 44.1515C26.7589 45.3692 32.2771 46.8761 37.8014 49.3608C28.221 53.7152 16.2486 55.6034 5.10829 56.0647V42.6569C10.1799 42.8599 15.0985 43.3581 19.7969 44.1576V44.1515ZM45.3629 54.1396C47.0697 55.7571 47.9384 57.3009 47.9384 58.7216C47.6019 63.3589 40.7134 66.9138 35.6051 69.0295C26.7772 72.5967 15.3065 74.4111 5.10217 74.7924V61.1756C20.7758 60.579 34.455 57.2332 43.1421 52.3683C43.9803 52.9526 44.7266 53.5492 45.3629 54.1457V54.1396ZM45.3629 44.582C44.7266 45.1847 43.9803 45.7752 43.1421 46.3594C38.456 43.7332 32.3199 41.5499 25.1989 40C32.3199 38.4501 38.456 36.2667 43.1421 33.6406C47.5713 36.7834 50.0796 40.2952 45.3629 44.582Z" fill="#009959"/>
<path d="M89.6907 65.9857V12.9743H97.3253V32.6724H97.785C98.2275 31.8441 98.8659 30.8864 99.7 29.7992C100.534 28.7121 101.692 27.763 103.173 26.9519C104.654 26.1236 106.611 25.7095 109.045 25.7095C112.212 25.7095 115.037 26.5205 117.523 28.1426C120.008 29.7647 121.957 32.1029 123.37 35.1573C124.8 38.2117 125.515 41.8873 125.515 46.1841C125.515 50.4809 124.809 54.1651 123.396 57.2368C121.983 60.2911 120.042 62.6466 117.574 64.3032C115.106 65.9426 112.288 66.7623 109.122 66.7623C106.739 66.7623 104.79 66.3567 103.275 65.5457C101.777 64.7346 100.602 63.7855 99.7511 62.6984C98.8999 61.6112 98.2446 60.6449 97.785 59.7993H97.1466V65.9857H89.6907ZM97.1721 46.1064C97.1721 48.902 97.5722 51.3524 98.3722 53.4576C99.1723 55.5629 100.33 57.2109 101.845 58.4016C103.36 59.575 105.215 60.1617 107.411 60.1617C109.692 60.1617 111.599 59.5491 113.131 58.3239C114.663 57.0815 115.821 55.399 116.604 53.2764C117.404 51.1539 117.804 48.7639 117.804 46.1064C117.804 43.4835 117.412 41.128 116.629 39.04C115.863 36.952 114.706 35.304 113.156 34.096C111.624 32.8881 109.709 32.2841 107.411 32.2841C105.198 32.2841 103.326 32.8622 101.794 34.0184C100.279 35.1745 99.1298 36.788 98.3467 38.8588C97.5637 40.9295 97.1721 43.3454 97.1721 46.1064Z" fill="black"/>
<path d="M149.097 66.8658C146.612 66.8658 144.365 66.3999 142.356 65.468C140.347 64.5189 138.756 63.1471 137.581 61.3524C136.424 59.5577 135.845 57.3576 135.845 54.7519C135.845 52.5085 136.27 50.6621 137.121 49.2126C137.973 47.763 139.122 46.6155 140.569 45.7699C142.016 44.9244 143.633 44.2859 145.42 43.8545C147.207 43.4231 149.029 43.0952 150.884 42.8709C153.233 42.5948 155.14 42.3704 156.604 42.1979C158.068 42.0081 159.132 41.7061 159.796 41.2919C160.46 40.8778 160.792 40.2048 160.792 39.2729V39.0917C160.792 36.8312 160.162 35.0796 158.902 33.8372C157.659 32.5947 155.804 31.9735 153.336 31.9735C150.765 31.9735 148.739 32.5516 147.259 33.7078C145.795 34.8467 144.782 36.115 144.22 37.5128L137.045 35.8562C137.896 33.4403 139.139 31.4903 140.773 30.0063C142.424 28.505 144.322 27.4178 146.467 26.7448C148.612 26.0546 150.867 25.7095 153.233 25.7095C154.8 25.7095 156.459 25.8993 158.213 26.2789C159.983 26.6413 161.634 27.3143 163.166 28.2979C164.715 29.2815 165.984 30.6879 166.971 32.5171C167.958 34.329 168.452 36.6845 168.452 39.5835V65.9857H160.996V60.55H160.689C160.196 61.5508 159.455 62.5345 158.468 63.5008C157.481 64.4672 156.212 65.2696 154.663 65.9081C153.114 66.5465 151.259 66.8658 149.097 66.8658ZM150.757 60.6535C152.868 60.6535 154.672 60.2307 156.17 59.3852C157.685 58.5396 158.834 57.4352 159.617 56.072C160.417 54.6915 160.817 53.216 160.817 51.6457V46.5206C160.545 46.7967 160.017 47.0555 159.234 47.2971C158.468 47.5215 157.591 47.7199 156.604 47.8925C155.617 48.0478 154.655 48.1944 153.719 48.3325C152.782 48.4533 151.999 48.5568 151.37 48.6431C149.889 48.8329 148.535 49.1522 147.31 49.6008C146.101 50.0495 145.131 50.6966 144.399 51.5422C143.684 52.3705 143.326 53.4749 143.326 54.8554C143.326 56.7708 144.024 58.2204 145.42 59.204C146.816 60.1703 148.595 60.6535 150.757 60.6535Z" fill="black"/>
<path d="M211.606 35.9338L204.686 37.1763C204.397 36.279 203.937 35.4248 203.307 34.6137C202.694 33.8027 201.86 33.1383 200.805 32.6206C199.749 32.1029 198.43 31.8441 196.847 31.8441C194.685 31.8441 192.881 32.3359 191.434 33.3195C189.987 34.2858 189.263 35.5369 189.263 37.0727C189.263 38.4015 189.749 39.4714 190.719 40.2824C191.689 41.0935 193.255 41.7578 195.417 42.2755L201.647 43.7251C205.256 44.5706 207.946 45.8735 209.716 47.6336C211.487 49.3938 212.372 51.6802 212.372 54.493C212.372 56.8744 211.691 58.9969 210.329 60.8606C208.984 62.707 207.103 64.1565 204.686 65.2092C202.286 66.2618 199.502 66.7881 196.336 66.7881C191.944 66.7881 188.361 65.839 185.586 63.9408C182.812 62.0254 181.109 59.3075 180.48 55.7872L187.859 54.6483C188.319 56.5983 189.263 58.0737 190.693 59.0746C192.123 60.0582 193.987 60.55 196.285 60.55C198.788 60.55 200.788 60.0237 202.286 58.971C203.784 57.9011 204.533 56.5983 204.533 55.0625C204.533 53.82 204.073 52.776 203.154 51.9304C202.252 51.0849 200.864 50.4464 198.992 50.015L192.353 48.5396C188.693 47.694 185.986 46.348 184.233 44.5016C182.497 42.6552 181.629 40.3169 181.629 37.4869C181.629 35.14 182.276 33.0865 183.569 31.3264C184.863 29.5662 186.65 28.1944 188.931 27.2108C191.212 26.2099 193.825 25.7095 196.77 25.7095C201.009 25.7095 204.345 26.6413 206.78 28.505C209.214 30.3514 210.823 32.8277 211.606 35.9338Z" fill="black"/>
<path d="M241.265 66.7881C237.401 66.7881 234.073 65.9512 231.281 64.2773C228.506 62.5862 226.361 60.2135 224.846 57.1591C223.348 54.0875 222.599 50.4895 222.599 46.3653C222.599 42.2928 223.348 38.7035 224.846 35.5973C226.361 32.4912 228.472 30.0667 231.179 28.3238C233.902 26.5809 237.086 25.7095 240.729 25.7095C242.941 25.7095 245.086 26.0805 247.163 26.8225C249.24 27.5645 251.104 28.7293 252.755 30.3169C254.406 31.9045 255.709 33.9666 256.662 36.5033C257.615 39.0227 258.092 42.0857 258.092 45.6923V48.436H226.915V42.6379H250.61C250.61 40.6017 250.202 38.7984 249.385 37.2281C248.568 35.6405 247.418 34.3894 245.938 33.4748C244.474 32.5602 242.754 32.1029 240.78 32.1029C238.635 32.1029 236.762 32.6379 235.162 33.7078C233.579 34.7604 232.353 36.1409 231.485 37.8493C230.634 39.5404 230.209 41.3782 230.209 43.3627V47.8925C230.209 50.5499 230.668 52.8105 231.587 54.6742C232.524 56.5379 233.826 57.9615 235.494 58.9451C237.162 59.9115 239.111 60.3947 241.341 60.3947C242.788 60.3947 244.108 60.1876 245.299 59.7734C246.491 59.342 247.521 58.7036 248.389 57.858C249.257 57.0124 249.921 55.9684 250.38 54.726L257.607 56.0461C257.028 58.2031 255.989 60.0927 254.491 61.7148C253.01 63.3196 251.146 64.5707 248.899 65.468C246.669 66.3481 244.125 66.7881 241.265 66.7881Z" fill="black"/>
<path d="M288.466 26.2271V32.4394H267.043V26.2271H288.466ZM272.788 16.7017H280.423V54.3118C280.423 55.8131 280.644 56.9434 281.086 57.7027C281.529 58.4447 282.099 58.9538 282.797 59.2299C283.512 59.4887 284.287 59.6181 285.121 59.6181C285.734 59.6181 286.27 59.575 286.729 59.4887C287.189 59.4024 287.547 59.3334 287.802 59.2816L289.181 65.6751C288.738 65.8477 288.108 66.0202 287.291 66.1928C286.474 66.3826 285.453 66.4862 284.227 66.5034C282.218 66.5379 280.346 66.1755 278.61 65.4163C276.873 64.657 275.469 63.4836 274.397 61.896C273.324 60.3084 272.788 58.3153 272.788 55.9167V16.7017Z" fill="black"/>
<path d="M316.989 66.7881C313.124 66.7881 309.797 65.9512 307.005 64.2773C304.23 62.5862 302.085 60.2135 300.57 57.1591C299.072 54.0875 298.323 50.4895 298.323 46.3653C298.323 42.2928 299.072 38.7035 300.57 35.5973C302.085 32.4912 304.196 30.0667 306.903 28.3238C309.626 26.5809 312.81 25.7095 316.452 25.7095C318.665 25.7095 320.81 26.0805 322.887 26.8225C324.964 27.5645 326.828 28.7293 328.479 30.3169C330.13 31.9045 331.432 33.9666 332.386 36.5033C333.339 39.0227 333.816 42.0857 333.816 45.6923V48.436H302.638V42.6379H326.334C326.334 40.6017 325.926 38.7984 325.108 37.2281C324.291 35.6405 323.142 34.3894 321.661 33.4748C320.197 32.5602 318.478 32.1029 316.503 32.1029C314.359 32.1029 312.486 32.6379 310.886 33.7078C309.303 34.7604 308.077 36.1409 307.209 37.8493C306.358 39.5404 305.932 41.3782 305.932 43.3627V47.8925C305.932 50.5499 306.392 52.8105 307.311 54.6742C308.247 56.5379 309.55 57.9615 311.218 58.9451C312.886 59.9115 314.835 60.3947 317.065 60.3947C318.512 60.3947 319.831 60.1876 321.023 59.7734C322.215 59.342 323.244 58.7036 324.113 57.858C324.981 57.0124 325.645 55.9684 326.104 54.726L333.33 56.0461C332.752 58.2031 331.713 60.0927 330.215 61.7148C328.734 63.3196 326.87 64.5707 324.623 65.468C322.393 66.3481 319.848 66.7881 316.989 66.7881Z" fill="black"/>
<path d="M353.516 42.3791V65.9857H345.882V26.2271H353.21V32.6983H353.695C354.597 30.593 356.01 28.9019 357.934 27.6249C359.874 26.3479 362.317 25.7095 365.262 25.7095C367.935 25.7095 370.275 26.2789 372.284 27.4178C374.293 28.5395 375.85 30.2134 376.957 32.4394C378.063 34.6655 378.616 37.4179 378.616 40.6966V65.9857H370.982V41.6284C370.982 38.7466 370.241 36.4947 368.76 34.8726C367.279 33.2332 365.245 32.4135 362.658 32.4135C360.887 32.4135 359.313 32.8018 357.934 33.5783C356.572 34.3549 355.491 35.4938 354.691 36.9951C353.908 38.4791 353.516 40.2738 353.516 42.3791Z" fill="black"/>
</svg>
