<svg width="231" height="50" viewBox="0 0 231 50" fill="none" xmlns="http://www.w3.org/2000/svg">
<path d="M1.13481 10.1773H30.5829V20.0596H11.1507C10.798 20.0596 10.5335 20.342 10.5335 20.6773V29.3243C10.5335 29.6773 10.8156 29.942 11.1507 29.942H30.5829V39.8243H21.1842C20.8315 39.8243 20.567 40.1067 20.567 40.442V49.089C20.567 49.442 20.8492 49.7067 21.1842 49.7067H29.9657C30.3184 49.7067 30.5829 49.442 30.5829 49.089V39.8243H39.9992C40.3519 39.8243 40.6164 39.542 40.6164 39.2067V30.5596C40.6164 30.2067 40.3343 29.942 39.9992 29.942H30.5829V20.0596H39.9992C40.3519 20.0596 40.6164 19.7773 40.6164 19.442V10.7949C40.6164 10.442 40.3343 10.1773 39.9992 10.1773H30.5829V0.912569C30.5829 0.559628 30.3008 0.294922 29.9657 0.294922H1.13481C0.782137 0.294922 0.5 0.577275 0.5 0.912569V9.55963C0.5 9.91257 0.782137 10.1773 1.13481 10.1773ZM78.8108 20.942C77.9291 20.0596 76.8711 19.3537 75.7073 18.8596C74.4107 18.3338 73.0175 18.0887 71.6194 18.1404C70.2214 18.1921 68.8501 18.5395 67.5958 19.1596C66.3086 19.8126 65.2682 20.7655 64.5099 22.0185H64.2102V10.1596H60.6305V39.8596H64.2278V36.6655H64.5276C64.8979 37.3008 65.3563 37.8479 65.8854 38.3243C66.432 38.7655 67.0315 39.1714 67.6663 39.5067C68.3188 39.8243 69.0241 40.0537 69.7471 40.1949C71.7402 40.6137 73.8106 40.467 75.7249 39.7714C76.9438 39.2801 78.0469 38.5398 78.9638 37.5979C79.8807 36.656 80.5913 35.533 81.0502 34.3008C81.5616 32.9773 81.8261 31.442 81.8261 29.7126V28.8832C81.8261 27.189 81.544 25.6537 80.9973 24.3302C80.4683 23.0067 79.763 21.8596 78.8284 20.9773V20.9596L78.8108 20.942ZM68.4599 22.1067C69.7355 21.5498 71.15 21.3933 72.5165 21.658C73.8829 21.9226 75.1369 22.596 76.1128 23.589C76.7476 24.2067 77.2414 25.0008 77.5764 25.8832C77.9291 26.7655 78.1054 27.7714 78.1054 28.8832V29.7126C78.1054 30.842 77.9291 31.8832 77.5764 32.7832C77.2619 33.6303 76.7773 34.404 76.1526 35.0565C75.5278 35.709 74.7762 36.2266 73.9439 36.5773C72.169 37.2548 70.2038 37.2359 68.4422 36.5243C67.5977 36.1599 66.8357 35.6281 66.2023 34.9608C65.5689 34.2935 65.0772 33.5047 64.7568 32.642C64.4041 31.7243 64.2278 30.6832 64.2278 29.5537V29.042C64.2278 27.9479 64.4041 26.9243 64.7568 26.042V26.0243C65.1271 25.089 65.6385 24.2773 66.238 23.6243C66.8728 22.9714 67.6134 22.4596 68.4599 22.1067ZM171.616 10.1596H168.019V18.7361H162.835V22.0185H168.019V36.4361C168.019 37.4243 168.319 38.2537 168.954 38.9067C169.606 39.5243 170.435 39.8596 171.422 39.8596H178.793V36.5596H172.621C172.269 36.5596 172.04 36.4714 171.863 36.2949C171.687 36.1185 171.616 35.8185 171.616 35.4302V22.0185H179.816V18.7361H171.616V10.1596ZM202.599 21.4714C201.713 20.4789 200.633 19.6798 199.425 19.1243C198.014 18.4395 196.46 18.1008 194.893 18.1361C192.097 18.1329 189.407 19.2072 187.381 21.1361C186.386 22.0913 185.603 23.2442 185.08 24.5207C184.558 25.7972 184.308 27.169 184.348 28.5479V29.5537C184.348 31.142 184.612 32.642 185.124 33.9655C185.839 35.9386 187.166 37.6311 188.911 38.7962C190.656 39.9612 192.727 40.5379 194.822 40.442C197.555 40.442 199.76 39.8243 201.382 38.6067C202.988 37.4005 204.168 35.7128 204.75 33.789L204.803 33.6655L201.382 32.7479L201.347 32.8714C201.153 33.4537 200.87 34.0008 200.535 34.5302C200.236 35.0067 199.83 35.4479 199.301 35.8361C198.807 36.2243 198.19 36.5243 197.467 36.7361C196.744 36.9655 195.88 37.0714 194.893 37.0714C193.976 37.1225 193.058 36.9844 192.196 36.6657C191.335 36.3469 190.548 35.8543 189.885 35.2185C188.672 33.9244 187.982 32.2272 187.945 30.4537H205.014V27.6302C205.014 26.6773 204.82 25.6537 204.415 24.542C204.023 23.4062 203.405 22.3616 202.599 21.4714ZM188.051 27.1361C188.288 25.6034 189.048 24.2003 190.202 23.1655C191.175 22.3811 192.331 21.8564 193.561 21.6404C194.791 21.4244 196.056 21.5241 197.238 21.9302C198.014 22.2126 198.702 22.6008 199.301 23.0949C199.901 23.5714 200.394 24.189 200.747 24.8949C201.117 25.5655 201.347 26.3067 201.417 27.1361H188.051ZM228.132 20.4479C227.355 19.6728 226.426 19.0684 225.403 18.6734C224.379 18.2783 223.285 18.1014 222.189 18.1537C220.55 18.1537 219.139 18.5067 217.957 19.1949C216.829 19.8832 215.93 20.9067 215.277 22.2655H214.977V18.7361H211.38V39.8596H214.977V28.8655C214.977 26.642 215.542 24.842 216.653 23.5361C217.229 22.8696 217.949 22.3424 218.758 21.994C219.568 21.6455 220.445 21.485 221.325 21.5243C222.983 21.5243 224.323 22.0537 225.275 23.1126C226.263 24.1714 226.739 25.7949 226.739 27.9479V39.8596H230.336V27.2773C230.336 24.2596 229.596 21.9479 228.132 20.4479ZM155.852 21.4714C154.977 20.4827 153.909 19.684 152.713 19.1243C151.297 18.4368 149.737 18.0979 148.164 18.1361C145.361 18.1284 142.664 19.203 140.634 21.1361C139.642 22.0921 138.861 23.2456 138.342 24.5222C137.822 25.7988 137.576 27.1702 137.619 28.5479V29.5361C137.619 31.1596 137.866 32.642 138.395 33.9655C139.115 35.9354 140.443 37.6248 142.187 38.7891C143.93 39.9534 145.999 40.5323 148.093 40.442C150.826 40.442 153.031 39.8243 154.653 38.6067C156.258 37.3996 157.438 35.7122 158.021 33.789L158.074 33.6655L154.653 32.7479L154.6 32.8714C154.424 33.4361 154.141 34.0008 153.806 34.5302C153.507 35.0067 153.101 35.4479 152.572 35.8361C152.061 36.2067 151.444 36.5243 150.721 36.7361C150.015 36.9479 149.134 37.0714 148.164 37.0714C147.244 37.125 146.323 36.9881 145.458 36.6693C144.593 36.3504 143.803 35.8565 143.138 35.2185C141.932 33.9218 141.248 32.2248 141.216 30.4537H158.285V27.6126C158.285 26.6773 158.074 25.6361 157.686 24.542C157.289 23.4045 156.665 22.3598 155.852 21.4714ZM141.322 27.1361C141.563 25.6048 142.322 24.203 143.473 23.1655C144.447 22.3826 145.602 21.8588 146.832 21.6429C148.063 21.4269 149.327 21.5257 150.509 21.9302C151.285 22.2126 151.973 22.6008 152.554 23.0949C153.172 23.5714 153.648 24.189 154.018 24.8949C154.371 25.5655 154.6 26.3067 154.67 27.1361H141.322ZM130.371 29.2714C128.68 28.1462 126.706 27.5222 124.676 27.4714C123.046 27.4635 121.437 27.1149 119.95 26.4479C119.121 25.9185 118.716 25.2126 118.716 24.242C118.716 23.7655 118.857 23.3596 119.086 23.0067C119.333 22.6537 119.668 22.3361 120.073 22.089C121.049 21.6057 122.123 21.3522 123.212 21.3479C124.711 21.3479 125.928 21.7185 126.845 22.4596C127.779 23.1832 128.308 24.2243 128.449 25.5126L128.467 25.689L131.906 24.8596L131.888 24.7361C131.764 23.942 131.5 23.1302 131.094 22.3361C130.706 21.5157 130.14 20.7922 129.437 20.2185C128.646 19.5585 127.736 19.0554 126.756 18.7361C125.567 18.3188 124.314 18.1156 123.053 18.1361C122.031 18.1361 121.061 18.2596 120.144 18.5243C119.227 18.7714 118.381 19.1596 117.622 19.6714C116.899 20.2008 116.317 20.8361 115.877 21.6126C115.427 22.4145 115.202 23.3228 115.224 24.242V24.489C115.224 26.3596 115.894 27.789 117.234 28.7596C118.943 29.8491 120.922 30.4417 122.948 30.4714C125.028 30.6126 126.545 30.9302 127.462 31.4243C128.344 31.9185 128.784 32.6949 128.784 33.8243C128.784 34.8832 128.344 35.6949 127.409 36.2949C126.492 36.8596 125.258 37.142 123.706 37.142C122.139 37.2172 120.598 36.722 119.368 35.7479C118.284 34.7797 117.625 33.4227 117.534 31.9714V31.8126L114.131 32.6243H114.096V32.7479C114.17 34.3444 114.735 35.8791 115.713 37.1425C116.692 38.4058 118.036 39.3362 119.562 39.8067C120.796 40.2302 122.242 40.442 123.9 40.442C125.134 40.442 126.28 40.2832 127.303 39.9655C128.361 39.6832 129.278 39.2596 130.001 38.6949C130.757 38.1309 131.369 37.3953 131.786 36.5486C132.203 35.7018 132.413 34.7682 132.399 33.8243V33.5773C132.399 31.689 131.712 30.2243 130.389 29.2714H130.371ZM106.742 36.2949C106.566 36.1185 106.496 35.8185 106.496 35.4302V18.7361H102.881V22.0008H102.598C101.972 20.7712 100.98 19.7662 99.7595 19.1243C98.5372 18.4598 97.1652 18.1196 95.7743 18.1361C94.4165 18.1361 93.1292 18.3832 91.9125 18.8596C90.685 19.3461 89.5751 20.0888 88.6569 21.0382C87.7386 21.9876 87.0331 23.1219 86.5872 24.3655C86.0758 25.689 85.8113 27.242 85.8113 28.9537V29.6243C85.8113 31.3714 86.0758 32.9243 86.5872 34.2655C87.1162 35.589 87.8215 36.7361 88.7032 37.6714C89.6421 38.5959 90.7599 39.3186 91.988 39.795C93.2161 40.2715 94.5286 40.4916 95.8448 40.442C97.2555 40.442 98.5075 40.089 99.7242 39.4185C100.941 38.7479 101.911 37.7067 102.598 36.3302H102.881V36.4361C102.881 37.4243 103.198 38.2537 103.815 38.9067C104.468 39.5243 105.314 39.8596 106.302 39.8596H108.7V36.5596H107.501C107.148 36.5596 106.901 36.4714 106.742 36.2949ZM98.8778 36.5243C98.0667 36.8773 97.1673 37.0537 96.1975 37.0537C95.3002 37.0863 94.4059 36.9322 93.5712 36.6011C92.7365 36.27 91.9796 35.7691 91.3483 35.1302C90.0457 33.602 89.3825 31.6298 89.4967 29.6243V28.9537C89.4967 27.8596 89.6731 26.8361 90.0081 25.9361C90.2922 25.0734 90.7554 24.2805 91.3673 23.6096C91.9792 22.9387 92.726 22.4049 93.5586 22.0432C94.3913 21.6816 95.2909 21.5003 96.1985 21.5112C97.1062 21.5222 98.0012 21.7251 98.8249 22.1067C99.6537 22.4596 100.377 22.9714 100.959 23.6243C101.576 24.2773 102.052 25.089 102.369 26.0243C102.722 26.9067 102.898 27.9302 102.898 29.0243V29.5537C102.898 30.6655 102.722 31.7243 102.369 32.6596C102.052 33.542 101.576 34.3537 100.994 35.0067C100.412 35.6596 99.7066 36.1714 98.8778 36.5243Z" fill="black"/>
</svg>
