<svg width="368" height="184" viewBox="0 0 368 184" fill="none" xmlns="http://www.w3.org/2000/svg">
<g clip-path="url(#clip0_375_607)">
<path d="M343.467 0H24.5333C10.9839 0 0 10.9839 0 24.5333V159.467C0 173.016 10.9839 184 24.5333 184H343.467C357.016 184 368 173.016 368 159.467V24.5333C368 10.9839 357.016 0 343.467 0Z" fill="#0F1D2A"/>
<path fill-rule="evenodd" clip-rule="evenodd" d="M251.951 109.478C251.951 111.741 251.439 113.896 250.515 115.853C250.492 115.901 250.469 115.949 250.446 115.997C249.744 117.446 248.815 118.783 247.699 119.974C244.411 123.483 239.504 125.711 234.023 125.711C224.122 125.711 216.095 118.443 216.095 109.478C216.095 100.513 224.122 93.2451 234.023 93.2451C239.542 93.2451 244.478 95.5031 247.767 99.0546C250.378 101.875 251.951 105.51 251.951 109.478ZM247.692 109.187C247.692 112.848 244.499 115.853 239.567 115.853C234.731 115.853 231.442 112.848 231.442 109.187C231.442 105.432 234.731 102.428 239.567 102.428C244.499 102.428 247.692 105.432 247.692 109.187Z" fill="white"/>
<path d="M233.667 87.0704C241.404 87.0704 247.692 91.9124 247.692 96.9822V98.9534L247.767 99.0543C250.378 101.874 251.951 105.51 251.951 109.478C251.951 111.741 251.439 113.895 250.515 115.853H251.804L247.692 124.771H263.361V96.9822C263.361 81.4912 250.593 75.0132 235.698 75.0132C225.735 75.0132 219.738 78.2053 217.707 79.332V91.9124C219.738 90.598 225.155 87.0704 233.667 87.0704Z" fill="white"/>
<path d="M267.146 75.9121V88.5863V89.4818C275.765 89.4818 288.806 87.4952 295.912 84.3599V85.5844L266.902 112.057V124.732H269.24H311.638V112.057L311.668 109.438C305.28 109.438 290.442 110.336 282.661 115.996V114.772L311.672 88.299V75.9121H309.399H267.146Z" fill="white"/>
<path fill-rule="evenodd" clip-rule="evenodd" d="M160.608 124.795H176.277L174.726 117.766L173.687 113.059H174.982C176.16 117.284 181.05 125.733 191.188 125.733C203.679 125.733 213.805 114.384 213.805 100.385C213.805 86.3852 203.679 75.0364 191.188 75.0364C185.476 75.0364 180.258 77.41 176.277 81.3255L175.841 81.7649C175.985 81.6165 176.13 81.4699 176.277 81.3255V58.2666H160.608V124.795ZM198.039 100.385C198.039 107.426 193.687 113.059 187.013 113.059C180.436 113.059 176.277 107.426 176.277 100.385C176.277 93.3434 180.436 87.7106 187.013 87.7106C193.687 87.7106 198.039 93.3434 198.039 100.385Z" fill="white"/>
<path fill-rule="evenodd" clip-rule="evenodd" d="M75.0437 48.0065C77.9623 43.7334 92.1729 33.8596 107.718 33.7348C124.873 33.5965 130.25 43.5396 132.614 47.9111L132.671 48.0169V48.0985C132.521 48.0969 132.369 48.0963 132.217 48.0963C123.537 48.0963 116.484 51.0201 116.484 56.1368V57.672H132.671V86.4668C132.671 118.32 106.606 144.131 75.0735 144.131L71.7158 144.133C73.9716 142.494 76.3906 140.452 78.8513 137.907C86.2141 130.291 86.4386 120.703 83.7877 115.83C83.1716 121.496 80.0725 127.9 74.8208 133.332C69.1613 139.187 62.2895 142.582 56.3291 143.03C64.1175 125.426 68.8071 106.381 75.0437 48.0065Z" fill="#F7F7F7"/>
</g>
<defs>
<clipPath id="clip0_375_607">
<rect width="368" height="184" fill="white"/>
</clipPath>
</defs>
</svg>
