<svg width="271" height="48" viewBox="0 0 271 48" fill="none" xmlns="http://www.w3.org/2000/svg">
<g clip-path="url(#clip0_926_4190)">
<mask id="mask0_926_4190" style="mask-type:luminance" maskUnits="userSpaceOnUse" x="0" y="0" width="271" height="48">
<path d="M271 0H0V48H271V0Z" fill="white"/>
</mask>
<g mask="url(#mask0_926_4190)">
<path d="M59.1847 0H0V48H59.1847V0Z" fill="#F12323"/>
<path d="M53.043 11.0981H5.86255V41.6184H53.043V11.0981Z" fill="black"/>
<path d="M17.0295 11.0981H8.6543V24.4161H17.0295V11.0981Z" fill="white"/>
<path d="M28.1965 11.0981H19.8213V24.4161H28.1965V11.0981Z" fill="white"/>
<path d="M39.3635 11.0981H30.9883V24.4161H39.3635V11.0981Z" fill="white"/>
<path d="M50.5305 11.0981H42.1553V24.4161H50.5305V11.0981Z" fill="white"/>
<path d="M37.9675 33.2949H29.5923V41.6186H37.9675V33.2949Z" fill="#FF82AD"/>
<path d="M43.551 36.0693H37.9675V41.6185H43.551V36.0693Z" fill="#FF82AD"/>
<path d="M21.2171 41.6184H29.5923V33.2947H21.2171V41.6184Z" fill="#FF82AD"/>
<path d="M15.6338 38.844H21.2173V33.2949H15.6338V38.844Z" fill="#FF82AD"/>
<path d="M87.7571 17.1793C87.7571 17.8497 87.6662 18.5201 87.4844 19.1905C87.3288 19.8609 87.0564 20.4798 86.6674 21.0471C86.278 21.5885 85.7722 22.0785 85.1494 22.5168C84.5269 22.9294 83.7746 23.2388 82.8921 23.4451V23.6771C83.6706 23.8061 84.4102 24.0252 85.1105 24.3347C85.8111 24.6441 86.4208 25.0695 86.9397 25.611C87.4586 26.1525 87.8607 26.81 88.1461 27.5836C88.4574 28.3571 88.613 29.2725 88.613 30.3297C88.613 31.7221 88.3148 32.934 87.7182 33.9653C87.1212 34.971 86.3169 35.796 85.305 36.4407C84.3193 37.0853 83.1906 37.5623 81.9195 37.872C80.648 38.1813 79.338 38.336 77.9887 38.336C77.5476 38.336 76.9768 38.336 76.2765 38.336C75.602 38.336 74.8624 38.3103 74.0582 38.2587C73.2797 38.233 72.4754 38.1813 71.6453 38.104C70.841 38.0267 70.1015 37.9107 69.427 37.7557V11.0682C69.92 10.9909 70.4778 10.9135 71.1003 10.8361C71.7489 10.7588 72.4365 10.6943 73.163 10.6428C73.8894 10.5912 74.629 10.5525 75.3813 10.5267C76.1597 10.5009 76.9251 10.488 77.6774 10.488C78.9486 10.488 80.1811 10.5912 81.3745 10.7975C82.594 10.978 83.6706 11.3132 84.6047 11.8031C85.5646 12.293 86.33 12.9763 86.9008 13.853C87.4716 14.7297 87.7571 15.8385 87.7571 17.1793ZM78.0276 33.9653C78.6762 33.9653 79.299 33.888 79.8957 33.7333C80.5182 33.5787 81.0632 33.3467 81.5301 33.0371C81.9973 32.7019 82.3733 32.2894 82.6587 31.7995C82.9441 31.3095 83.087 30.7294 83.087 30.059C83.087 29.208 82.9183 28.5376 82.5809 28.0477C82.2438 27.5578 81.8028 27.1839 81.2578 26.9261C80.7131 26.6424 80.1033 26.4619 79.4285 26.3846C78.754 26.3072 78.0795 26.2685 77.4051 26.2685H74.5639V33.7333C74.6937 33.785 74.9013 33.8237 75.1868 33.8493C75.4722 33.875 75.7703 33.901 76.0819 33.9267C76.419 33.9267 76.7564 33.9397 77.0938 33.9653C77.4567 33.9653 77.7683 33.9653 78.0276 33.9653ZM76.2765 22.2461C76.6397 22.2461 77.0546 22.2332 77.5218 22.2074C78.0148 22.1816 78.417 22.1429 78.7282 22.0914C79.7139 21.7819 80.5571 21.3178 81.2578 20.699C81.9842 20.0801 82.3475 19.2679 82.3475 18.2623C82.3475 17.5918 82.2177 17.0375 81.9584 16.5991C81.6988 16.1608 81.3487 15.8127 80.9076 15.5548C80.4924 15.297 80.0124 15.1165 79.4678 15.0133C78.9227 14.9102 78.3519 14.8586 77.7552 14.8586C77.0807 14.8586 76.4579 14.8715 75.8871 14.8973C75.3166 14.9231 74.8755 14.9618 74.5639 15.0133V22.2461H76.2765Z" fill="#24292F"/>
<path d="M92.4202 10.8748H108.57V15.5934H97.7516V21.8979H107.598V26.6166H97.7516V33.2305H108.765V37.9493H92.4202V10.8748Z" fill="#24292F"/>
<path d="M119.524 23.8318L117.384 19.5773H117.189L117.812 23.8318V37.9493H112.752V10.6814H116.644L126.957 25.1082L129.02 29.2467H129.214L128.592 25.1082V10.8748H133.651V38.1426H129.759L119.524 23.8318Z" fill="#24292F"/>
<path d="M137.474 13.0409C137.474 12.2931 137.72 11.6872 138.213 11.2231C138.732 10.7589 139.381 10.5269 140.159 10.5269C141.093 10.5269 141.832 10.8363 142.377 11.4551C142.922 12.074 143.195 12.8862 143.195 13.8918C143.195 14.9232 143.026 15.7999 142.689 16.5219C142.377 17.2439 141.988 17.8498 141.521 18.3397C141.08 18.8039 140.6 19.1778 140.081 19.4614C139.588 19.7193 139.173 19.9126 138.836 20.0416L137.552 17.9143C138.071 17.6822 138.525 17.3728 138.914 16.986C139.329 16.5993 139.562 16.1093 139.614 15.5163C139.095 15.5421 138.602 15.3487 138.135 14.9361C137.694 14.4978 137.474 13.866 137.474 13.0409Z" fill="#24292F"/>
<path d="M158.748 30.6777C158.748 29.8526 158.437 29.1822 157.814 28.6665C157.217 28.1508 156.452 27.6867 155.518 27.2741C154.61 26.8357 153.611 26.3974 152.521 25.9591C151.457 25.4949 150.459 24.9405 149.524 24.2959C148.617 23.6255 147.851 22.8004 147.228 21.8205C146.632 20.8407 146.333 19.5901 146.333 18.0688C146.333 16.7538 146.554 15.6192 146.995 14.6652C147.436 13.6853 148.058 12.8731 148.863 12.2285C149.693 11.5838 150.666 11.1068 151.782 10.7974C152.897 10.488 154.143 10.3333 155.518 10.3333C157.1 10.3333 158.592 10.4751 159.993 10.7587C161.394 11.0166 162.549 11.4034 163.457 11.9191L161.783 16.367C161.213 16.006 160.356 15.6837 159.215 15.4C158.073 15.0906 156.841 14.9359 155.518 14.9359C154.272 14.9359 153.312 15.1809 152.638 15.6708C151.989 16.1607 151.665 16.8182 151.665 17.6434C151.665 18.4169 151.963 19.0615 152.56 19.5772C153.183 20.0929 153.948 20.57 154.856 21.0083C155.79 21.4467 156.789 21.8979 157.853 22.362C158.942 22.8262 159.941 23.3934 160.849 24.0638C161.783 24.7085 162.549 25.5207 163.146 26.5005C163.768 27.4546 164.079 28.6536 164.079 30.0976C164.079 31.5415 163.833 32.7921 163.34 33.8493C162.873 34.8806 162.198 35.7446 161.316 36.4406C160.46 37.1369 159.409 37.6526 158.164 37.9879C156.945 38.3229 155.595 38.4906 154.117 38.4906C152.171 38.4906 150.459 38.3103 148.98 37.9493C147.501 37.5883 146.411 37.2273 145.711 36.8663L147.423 32.3409C147.708 32.4956 148.072 32.6632 148.513 32.8437C148.98 33.0242 149.499 33.1918 150.07 33.3466C150.64 33.5013 151.237 33.6303 151.86 33.7333C152.508 33.8363 153.17 33.8879 153.844 33.8879C155.427 33.8879 156.633 33.6303 157.464 33.1144C158.32 32.5729 158.748 31.7607 158.748 30.6777Z" fill="#24292F"/>
<path d="M195.805 17.1793C195.805 17.8497 195.714 18.5201 195.533 19.1905C195.377 19.8609 195.104 20.4798 194.715 21.0471C194.326 21.5885 193.82 22.0785 193.198 22.5168C192.575 22.9294 191.822 23.2388 190.94 23.4451V23.6771C191.719 23.8061 192.458 24.0252 193.159 24.3347C193.859 24.6441 194.469 25.0695 194.988 25.611C195.506 26.1525 195.909 26.81 196.194 27.5836C196.506 28.3571 196.661 29.2725 196.661 30.3297C196.661 31.7221 196.363 32.934 195.766 33.9653C195.169 34.971 194.365 35.796 193.353 36.4407C192.367 37.0853 191.238 37.5623 189.967 37.872C188.696 38.1813 187.386 38.336 186.037 38.336C185.596 38.336 185.025 38.336 184.324 38.336C183.65 38.336 182.91 38.3103 182.106 38.2587C181.328 38.233 180.524 38.1813 179.693 38.104C178.889 38.0267 178.15 37.9107 177.475 37.7557V11.0682C177.968 10.9909 178.526 10.9135 179.148 10.8361C179.797 10.7588 180.485 10.6943 181.211 10.6428C181.938 10.5912 182.677 10.5525 183.429 10.5267C184.208 10.5009 184.973 10.488 185.725 10.488C186.997 10.488 188.229 10.5912 189.423 10.7975C190.642 10.978 191.718 11.3132 192.653 11.8031C193.612 12.293 194.378 12.9763 194.949 13.853C195.519 14.7297 195.805 15.8385 195.805 17.1793ZM186.076 33.9653C186.724 33.9653 187.347 33.888 187.944 33.7333C188.566 33.5787 189.111 33.3467 189.578 33.0371C190.045 32.7019 190.421 32.2894 190.707 31.7995C190.992 31.3095 191.135 30.7294 191.135 30.059C191.135 29.208 190.966 28.5376 190.629 28.0477C190.292 27.5578 189.851 27.1839 189.306 26.9261C188.761 26.6424 188.151 26.4619 187.477 26.3846C186.802 26.3072 186.127 26.2685 185.453 26.2685H182.612V33.7333C182.742 33.785 182.949 33.8237 183.235 33.8493C183.52 33.875 183.819 33.901 184.13 33.9267C184.467 33.9267 184.804 33.9397 185.142 33.9653C185.505 33.9653 185.816 33.9653 186.076 33.9653ZM184.324 22.2461C184.688 22.2461 185.103 22.2332 185.57 22.2074C186.063 22.1816 186.465 22.1429 186.776 22.0914C187.762 21.7819 188.605 21.3178 189.306 20.699C190.032 20.0801 190.395 19.2679 190.395 18.2623C190.395 17.5918 190.266 17.0375 190.006 16.5991C189.747 16.1608 189.396 15.8127 188.955 15.5548C188.54 15.297 188.06 15.1165 187.516 15.0133C186.971 14.9102 186.4 14.8586 185.803 14.8586C185.129 14.8586 184.506 14.8715 183.935 14.8973C183.364 14.9231 182.923 14.9618 182.612 15.0133V22.2461H184.324Z" fill="#24292F"/>
<path d="M201.013 10.8748H206.344V37.9493H201.013V10.8748Z" fill="#24292F"/>
<path d="M230.907 15.5934H222.968V37.9493H217.637V15.5934H209.658V10.8748H230.907V15.5934Z" fill="#24292F"/>
<path d="M233.684 10.8748H249.835V15.5934H239.016V21.8979H248.862V26.6166H239.016V33.2305H250.029V37.9493H233.684V10.8748Z" fill="#24292F"/>
<path d="M265.77 30.6777C265.77 29.8526 265.459 29.1822 264.836 28.6665C264.239 28.1508 263.474 27.6867 262.54 27.2741C261.632 26.8357 260.633 26.3974 259.543 25.9591C258.479 25.4949 257.481 24.9405 256.546 24.2959C255.639 23.6255 254.873 22.8004 254.25 21.8205C253.654 20.8407 253.355 19.5901 253.355 18.0688C253.355 16.7538 253.576 15.6192 254.017 14.6652C254.458 13.6853 255.08 12.8731 255.885 12.2285C256.715 11.5838 257.688 11.1068 258.804 10.7974C259.919 10.488 261.165 10.3333 262.54 10.3333C264.122 10.3333 265.614 10.4751 267.015 10.7587C268.416 11.0166 269.571 11.4034 270.479 11.9191L268.805 16.367C268.235 16.006 267.378 15.6837 266.237 15.4C265.095 15.0906 263.863 14.9359 262.54 14.9359C261.294 14.9359 260.334 15.1809 259.66 15.6708C259.011 16.1607 258.687 16.8182 258.687 17.6434C258.687 18.4169 258.985 19.0615 259.582 19.5772C260.205 20.0929 260.97 20.57 261.878 21.0083C262.812 21.4467 263.811 21.8979 264.875 22.362C265.964 22.8262 266.963 23.3934 267.871 24.0638C268.805 24.7085 269.571 25.5207 270.168 26.5005C270.79 27.4546 271.101 28.6536 271.101 30.0976C271.101 31.5415 270.855 32.7921 270.362 33.8493C269.895 34.8806 269.22 35.7446 268.338 36.4406C267.482 37.1369 266.431 37.6526 265.186 37.9879C263.967 38.3229 262.617 38.4906 261.139 38.4906C259.193 38.4906 257.481 38.3103 256.002 37.9493C254.523 37.5883 253.433 37.2273 252.733 36.8663L254.445 32.3409C254.73 32.4956 255.094 32.6632 255.535 32.8437C256.001 33.0242 256.521 33.1918 257.091 33.3466C257.662 33.5013 258.259 33.6303 258.881 33.7333C259.53 33.8363 260.192 33.8879 260.866 33.8879C262.449 33.8879 263.655 33.6303 264.486 33.1144C265.342 32.5729 265.77 31.7607 265.77 30.6777Z" fill="#24292F"/>
</g>
</g>
<defs>
<clipPath id="clip0_926_4190">
<rect width="271" height="48" fill="white"/>
</clipPath>
</defs>
</svg>
