<svg width="634" height="108" viewBox="0 0 634 108" fill="none" xmlns="http://www.w3.org/2000/svg">
<mask id="mask0_1178_128" style="mask-type:luminance" maskUnits="userSpaceOnUse" x="0" y="0" width="634" height="108">
<path d="M0 -0.000121067H633.982V107.571H0V-0.000121067Z" fill="white"/>
</mask>
<g mask="url(#mask0_1178_128)">
<mask id="mask1_1178_128" style="mask-type:luminance" maskUnits="userSpaceOnUse" x="0" y="0" width="634" height="108">
<path d="M0.000732422 107.571H633.983V-0.000115916H0.000732422V107.571Z" fill="white"/>
</mask>
<g mask="url(#mask1_1178_128)">
<path d="M248.62 11.7755C248.62 6.43581 252.93 2.11696 258.235 2.11696C263.558 2.11696 267.885 6.43581 267.885 11.7755C267.885 17.1082 263.558 21.4316 258.235 21.4316C252.93 21.4316 248.62 17.1082 248.62 11.7755Z" fill="#273B7D"/>
<path d="M400.617 76.0181C400.617 70.6762 404.925 66.3527 410.23 66.3527C415.552 66.3527 419.877 70.6762 419.877 76.0181C419.877 81.3463 415.552 85.6743 410.23 85.6743C404.925 85.6743 400.617 81.3463 400.617 76.0181Z" fill="#499FDD"/>
<path d="M90.5137 71.8435C82.2169 71.8435 76.4512 65.2542 76.4512 55.8383C76.4512 46.4247 82.2169 39.8399 90.5137 39.8399C98.8581 39.8399 104.687 46.4247 104.687 55.8383C104.687 65.4029 98.9795 71.8435 90.5137 71.8435ZM90.5137 25.7734C72.9608 25.7734 60.2222 38.4209 60.2222 55.8383C60.2222 73.2556 72.9608 85.9009 90.5137 85.9009C108.132 85.9009 120.924 73.2556 120.924 55.8383C120.924 38.4209 108.132 25.7734 90.5137 25.7734Z" fill="#273B7D"/>
<path d="M229.962 57.3419C229.279 56.0579 228.497 54.9708 227.664 54.108L227.133 53.5449L227.691 53.0093C228.497 52.1602 229.321 51.1531 230.115 49.9859L245.605 26.9589H226.801L215.162 44.9712C214.504 45.9371 213.174 46.4246 211.182 46.4246H208.53V12.3704C208.53 5.55914 204.287 4.63218 199.702 4.63218H191.854L191.868 85.0151H208.53V60.9032H210.091C211.99 60.9032 213.284 61.1229 213.877 62.1551L223.068 79.5038C225.636 84.2118 228.195 85.0151 233.008 85.0151H245.777L236.267 69.2846L229.962 57.3419Z" fill="#273B7D"/>
<path d="M310.85 25.6452C302.375 25.6452 296.967 29.4102 293.937 32.5938L292.925 33.6169L292.568 32.2254C291.678 28.8151 288.677 26.9383 284.161 26.9383H276.694L276.741 84.9946H293.289V58.2369C293.289 55.6209 293.63 53.3505 294.321 51.2791C296.163 45.0103 301.302 41.1125 307.724 41.1125C312.89 41.1125 314.908 43.8384 314.908 50.8832V76.1692C314.908 82.1818 317.689 84.9946 323.706 84.9946H331.582L331.555 48.0703C331.555 33.3995 324.395 25.6452 310.85 25.6452Z" fill="#273B7D"/>
<path d="M258.454 26.9634H250.611L250.664 71.8525L250.659 85.0081H259.031C259.137 85.0081 259.221 85.0195 259.327 85.0195L263.226 85.0081H267.108V84.9853H267.135L267.169 35.7774C267.169 29.8404 264.325 26.9634 258.454 26.9634Z" fill="#273B7D"/>
<path d="M155.516 71.8435C147.22 71.8435 141.443 65.2542 141.443 55.8383C141.443 46.4247 147.22 39.8399 155.516 39.8399C163.843 39.8399 169.688 46.4247 169.688 55.8383C169.688 65.4029 163.982 71.8435 155.516 71.8435ZM155.516 25.7734C137.945 25.7734 125.204 38.4209 125.204 55.8383C125.204 73.2556 137.945 85.9009 155.516 85.9009C173.116 85.9009 185.929 73.2556 185.929 55.8383C185.929 38.4209 173.116 25.7734 155.516 25.7734Z" fill="#273B7D"/>
</g>
</g>
<mask id="mask2_1178_128" style="mask-type:luminance" maskUnits="userSpaceOnUse" x="0" y="0" width="634" height="108">
<path d="M0 -0.000121067H633.982V107.571H0V-0.000121067Z" fill="white"/>
</mask>
<g mask="url(#mask2_1178_128)">
<mask id="mask3_1178_128" style="mask-type:luminance" maskUnits="userSpaceOnUse" x="0" y="2" width="634" height="106">
<path d="M0.000732422 2.11709H633.848V107.434H0.000732422V2.11709Z" fill="white"/>
</mask>
<g mask="url(#mask3_1178_128)">
<mask id="mask4_1178_128" style="mask-type:luminance" maskUnits="userSpaceOnUse" x="0" y="0" width="634" height="108">
<path d="M0.000732422 107.571H633.983V-0.000115916H0.000732422V107.571Z" fill="white"/>
</mask>
<g mask="url(#mask4_1178_128)">
<path d="M510.24 71.8435C501.947 71.8435 496.166 65.2542 496.166 55.8383C496.166 46.4247 501.947 39.8399 510.24 39.8399C518.568 39.8399 524.416 46.4247 524.416 55.8383C524.416 65.4029 518.708 71.8435 510.24 71.8435ZM510.24 25.7734C492.673 25.7734 479.932 38.4209 479.932 55.8383C479.932 73.2556 492.673 85.9009 510.24 85.9009C527.842 85.9009 540.652 73.2556 540.652 55.8383C540.652 38.4209 527.842 25.7734 510.24 25.7734Z" fill="#499FDD"/>
<path d="M366.449 69.2891C357.401 69.2891 354.181 61.3953 354.181 53.998C354.181 50.7389 355.005 40.1168 365.579 40.1168C370.834 40.1168 377.838 41.6228 377.838 54.5451C377.838 66.7326 371.64 69.2891 366.449 69.2891ZM386.43 26.8078C383.289 26.8078 380.873 28.0597 379.662 30.3462L379.204 31.2342L378.437 30.5682C375.766 28.2565 370.977 25.5146 363.199 25.5146C347.725 25.5146 337.307 37.1369 337.307 54.4329C337.307 71.7083 348.086 83.7814 363.51 83.7814C368.779 83.7814 372.942 82.5524 376.243 80.0531L377.52 79.0941V80.7077C377.52 88.4619 372.505 92.7396 363.415 92.7396C358.997 92.7396 354.976 91.6639 352.287 90.6889C348.775 89.6292 346.718 90.5058 345.294 94.0281L343.981 97.2782L342.122 102.025L343.273 102.638C349.091 105.726 356.665 107.568 363.51 107.568C377.604 107.568 394.06 100.354 394.06 80.0531L394.12 26.8078H386.43Z" fill="#273B7D"/>
</g>
</g>
</g>
<mask id="mask5_1178_128" style="mask-type:luminance" maskUnits="userSpaceOnUse" x="0" y="0" width="634" height="108">
<path d="M0 -0.000121067H633.982V107.571H0V-0.000121067Z" fill="white"/>
</mask>
<g mask="url(#mask5_1178_128)">
<mask id="mask6_1178_128" style="mask-type:luminance" maskUnits="userSpaceOnUse" x="0" y="0" width="634" height="108">
<path d="M0.000732422 107.571H633.983V-0.000115916H0.000732422V107.571Z" fill="white"/>
</mask>
<g mask="url(#mask6_1178_128)">
<path d="M28.882 71.1777L15.4108 71.1643V55.0584C15.4108 51.6162 16.7452 49.8263 19.6951 49.4144H28.882C35.4392 49.4144 39.6759 53.5502 39.6806 60.2401C39.6759 67.1064 35.5445 71.1732 28.882 71.1777ZM15.4108 27.7305V23.4917C15.4108 19.7817 16.9806 18.0171 20.4256 17.7905H27.3187C33.2304 17.7905 36.7713 21.3289 36.7713 27.2476C36.7713 31.761 34.3475 37.0274 27.5361 37.0274H15.4108V27.7305ZM46.0868 43.8043L43.6513 42.4357L45.7772 40.6184C48.2494 38.4922 52.3943 33.7133 52.3943 25.4555C52.3943 12.8216 42.5942 4.6668 27.4263 4.6668H10.1167L8.14595 4.66223C3.64905 4.82707 0.0510483 8.48443 0.000732422 13.0093V84.7225H7.94449C7.96461 84.727 7.97136 84.7225 7.97806 84.7271L27.7683 84.7225C44.6294 84.7225 55.5124 75.5446 55.5124 61.3292C55.5124 53.6757 51.9986 47.1321 46.0868 43.8043Z" fill="#273B7D"/>
<path d="M614.577 25.8328C607.711 25.8328 601.073 29.0485 596.811 34.4407L595.612 35.9605L594.671 34.2599C591.607 28.6709 586.331 25.8328 578.995 25.8328C571.303 25.8328 566.144 30.1242 563.748 32.6761L562.18 34.3744L561.576 32.1406C560.701 28.9249 557.839 27.1534 553.501 27.1534H546.546L546.479 84.9854H562.282V59.4567C562.282 57.2206 562.56 55.0074 563.12 52.6935C564.631 46.5253 568.776 39.8903 575.745 40.554C580.043 40.966 582.142 44.287 582.142 50.7023V84.9854H598.058V59.4567C598.058 56.6622 598.319 54.5703 598.949 52.4715C600.23 46.5826 604.558 40.5449 611.282 40.5449C616.148 40.5449 617.947 43.3005 617.947 50.7023V76.5307C617.947 82.3739 620.554 84.9854 626.392 84.9854H633.831L633.844 48.0657C633.844 33.317 627.355 25.8328 614.577 25.8328Z" fill="#499FDD"/>
<path d="M470.781 64.9064C470.734 64.9634 463.933 72.1342 454.98 72.1342C446.823 72.1342 438.581 67.1287 438.581 55.9551C438.581 46.3081 444.971 39.5654 454.117 39.5654C457.088 39.5654 460.466 40.6297 460.995 42.4194L461.072 42.7216C462.29 46.7796 465.978 46.997 466.703 46.997L475.361 47.0064V39.4375C475.361 29.454 462.663 25.8332 454.117 25.8332C435.844 25.8332 422.584 38.5563 422.584 56.0767C422.584 73.5902 435.699 86.2949 453.783 86.2949C469.472 86.2949 478.004 75.9819 478.084 75.8789L478.54 75.3204L471.683 63.9454L470.781 64.9064Z" fill="#499FDD"/>
</g>
</g>
</svg>
