<svg width="132" height="32" viewBox="0 0 132 32" fill="none" xmlns="http://www.w3.org/2000/svg">
<g clip-path="url(#clip0_2060_347)">
<mask id="mask0_2060_347" style="mask-type:luminance" maskUnits="userSpaceOnUse" x="0" y="0" width="132" height="32">
<path d="M131.665 0.121582H0V31.9913H131.665V0.121582Z" fill="white"/>
</mask>
<g mask="url(#mask0_2060_347)">
<path d="M80.4181 25.6993V7.96969C80.4181 7.6632 80.5917 7.38323 80.8666 7.25061L81.7643 6.82035C81.8684 6.77024 81.9812 6.74371 82.0967 6.74371H87.2986C88.7262 6.74371 90.0403 6.99716 91.2417 7.50992C93.3895 8.41471 94.4634 9.74971 94.4634 11.5091V21.7296C94.4634 23.492 93.3895 24.824 91.2417 25.7288C90.0403 26.2387 88.7262 26.495 87.2986 26.495H81.1997C80.7679 26.495 80.4181 26.1384 80.4181 25.6993ZM83.2547 23.1C83.2547 23.5391 83.6051 23.8957 84.0363 23.8957H87.2986C88.2424 23.8957 89.114 23.7366 89.9102 23.4183C91.0535 22.9556 91.6268 22.3927 91.6268 21.7296V11.5091C91.6268 10.8461 91.0535 10.2802 89.9102 9.8175C89.1253 9.49924 88.2543 9.34011 87.2986 9.34011H84.0363C83.6051 9.34011 83.2547 9.69666 83.2547 10.1358V23.1Z" fill="black"/>
<path d="M97.4915 23.2473V17.7009C97.4915 16.4307 98.3744 15.4375 100.143 14.7243C101.098 14.3501 102.175 14.1614 103.377 14.1614C104.578 14.1614 105.655 14.3501 106.61 14.7243C108.379 15.4375 109.262 16.4277 109.262 17.7009V23.2473C109.262 24.5175 108.379 25.5106 106.61 26.2209C105.655 26.5952 104.575 26.7838 103.377 26.7838C102.178 26.7838 101.098 26.5952 100.143 26.2209C98.3744 25.5077 97.4915 24.5175 97.4915 23.2473ZM100.329 22.7404C100.329 23.2237 100.624 23.5833 101.214 23.8249C101.805 24.0666 102.526 24.1844 103.377 24.1844C104.228 24.1844 104.949 24.0636 105.539 23.8249C106.13 23.5833 106.425 23.2237 106.425 22.7404V18.2078C106.425 17.7274 106.13 17.3649 105.539 17.1262C104.949 16.8845 104.228 16.7637 103.377 16.7637C102.526 16.7637 101.805 16.8845 101.214 17.1262C100.624 17.3678 100.329 17.7274 100.329 18.2078V22.7404Z" fill="black"/>
<path d="M113.167 15.2341C113.167 14.9247 113.341 14.6447 113.616 14.515L115.862 13.4305H116.004V28.4547C116.004 29.7456 115.118 30.7358 113.352 31.4312C112.397 31.8055 111.32 31.9942 110.119 31.9942V31.8497L111.118 29.6925C111.222 29.4685 111.413 29.2946 111.647 29.2387C111.873 29.1856 112.087 29.1178 112.287 29.0323C112.875 28.7819 113.167 28.4223 113.167 27.9508V15.2371V15.2341Z" fill="black"/>
<path d="M116.007 10.6632V6.99408H115.865L113.618 8.07861C113.343 8.21122 113.17 8.49119 113.17 8.79769V12.5287C114.116 11.9068 115.081 11.3174 116.007 10.6632Z" fill="#A6A4FF"/>
<path d="M119.891 23.2473V17.7009C119.891 16.4307 120.774 15.4375 122.543 14.7243C123.499 14.3501 124.575 14.1614 125.777 14.1614C126.978 14.1614 128.055 14.3501 129.01 14.7243C130.779 15.4375 131.662 16.4277 131.662 17.7009V23.2473C131.662 24.5175 130.779 25.5106 129.01 26.2209C128.055 26.5952 126.975 26.7838 125.777 26.7838C124.578 26.7838 123.499 26.5952 122.543 26.2209C120.774 25.5077 119.891 24.5175 119.891 23.2473ZM122.729 22.7404C122.729 23.2237 123.024 23.5833 123.614 23.8249C124.205 24.0666 124.926 24.1844 125.777 24.1844C126.628 24.1844 127.349 24.0636 127.939 23.8249C128.53 23.5833 128.825 23.2237 128.825 22.7404V18.2078C128.825 17.7274 128.53 17.3649 127.939 17.1262C127.349 16.8845 126.628 16.7637 125.777 16.7637C124.926 16.7637 124.205 16.8845 123.614 17.1262C123.024 17.3678 122.729 17.7274 122.729 18.2078V22.7404Z" fill="black"/>
<path d="M36.6686 25.6344V7.11787C36.6686 6.91454 36.7844 6.72595 36.9667 6.64048L38.0928 6.09821C38.1623 6.06578 38.2376 6.0481 38.3157 6.0481H43.6654C44.8869 6.0481 46.0073 6.30746 47.0262 6.82613C48.7747 7.73677 49.6518 9.09244 49.6518 10.8931V11.736C49.6518 12.6761 49.2321 13.6015 48.3955 14.5121C48.161 14.7655 48.2276 15.1782 48.5286 15.3432C50.1439 16.2185 50.9516 17.3679 50.9516 18.7824V21.3169C50.9516 23.0969 49.8602 24.4526 47.6776 25.3839C46.456 25.9026 45.1215 26.1619 43.6682 26.1619H37.1925C36.9059 26.1619 36.6744 25.9262 36.6744 25.6344H36.6686ZM39.5518 13.4099C39.5518 13.7017 39.7834 13.9375 40.07 13.9375H43.6595C44.4759 13.9375 45.1446 13.7753 45.6627 13.4541C46.3922 12.9855 46.7599 12.4108 46.7599 11.736V10.8931C46.7599 10.0709 46.3749 9.49916 45.6049 9.17498C44.8349 8.85075 44.1864 8.69162 43.6595 8.69162H40.07C39.7834 8.69162 39.5518 8.92739 39.5518 9.21919V13.407V13.4099ZM39.5518 22.9908C39.5518 23.2826 39.7834 23.5184 40.07 23.5184H43.6595C44.6206 23.5184 45.5064 23.3563 46.3141 23.0351C47.4778 22.5753 48.0597 22.0036 48.0597 21.3169V18.7824C48.0597 18.1075 47.4778 17.5358 46.3141 17.0643C45.5064 16.7401 44.6206 16.581 43.6595 16.581H40.07C39.7834 16.581 39.5518 16.8167 39.5518 17.1085V22.9908Z" fill="black"/>
<path d="M54.078 22.8583V17.1587C54.078 15.8678 54.9781 14.8599 56.7761 14.1349C57.7459 13.7548 58.8431 13.5632 60.0645 13.5632C61.2859 13.5632 62.3804 13.7548 63.3529 14.1349C65.1509 14.8599 66.0512 15.8678 66.0512 17.1587V22.8583C66.0512 24.1492 65.1509 25.16 63.3529 25.882C62.3804 26.2622 61.2859 26.4538 60.0645 26.4538C58.8431 26.4538 57.7486 26.2622 56.7761 25.882C54.9781 25.157 54.078 24.1492 54.078 22.8583ZM56.961 22.3455C56.961 22.8347 57.2621 23.2031 57.8614 23.4477C58.4634 23.6923 59.1962 23.8161 60.0618 23.8161C60.9274 23.8161 61.6596 23.6953 62.2617 23.4477C62.8637 23.2031 63.162 22.8377 63.162 22.3455V17.6714C63.162 17.1822 62.861 16.8138 62.2617 16.5692C61.6596 16.3246 60.9274 16.2008 60.0618 16.2008C59.1962 16.2008 58.4634 16.3246 57.8614 16.5692C57.2593 16.8138 56.961 17.1793 56.961 17.6714V22.3455Z" fill="black"/>
<path d="M71.2152 26.7484V14.739H67.5103V14.5917L68.6796 12.066H71.2185V6.78191L73.9596 5.46161H74.1044V12.069H77.8099V12.2163L76.6433 14.742H74.1044V25.431L71.3633 26.7513H71.2185L71.2152 26.7484Z" fill="black"/>
<path d="M31.2206 17.7245C31.2843 17.1439 31.3162 16.5574 31.3162 15.9621C31.3162 15.3668 31.2843 14.7774 31.2206 14.1997L29.119 13.964C29.0148 13.2272 28.8526 12.5111 28.6413 11.8156L30.4361 10.6751C30.0482 9.5522 29.5416 8.48834 28.9308 7.49813L26.9363 8.21422C26.531 7.60422 26.0794 7.02952 25.5873 6.4961L26.7192 4.6748C25.9 3.84372 24.9939 3.10695 24.0125 2.47628L22.5217 4.00287C21.9022 3.63448 21.2508 3.31325 20.5735 3.04507L20.8166 0.90549C19.7398 0.522368 18.6079 0.257131 17.4384 0.124512L16.7436 2.16094C16.3876 2.13147 16.0257 2.11674 15.6639 2.11674C15.302 2.11674 14.9402 2.13147 14.5841 2.16094L13.8893 0.124512C12.7199 0.260077 11.588 0.525314 10.5111 0.90549L10.7543 3.04507C10.0769 3.31325 9.42555 3.63154 8.80605 4.00287L7.31523 2.47628C6.33386 3.10695 5.4249 3.84667 4.60857 4.6748L5.74045 6.4961C5.24832 7.03245 4.79673 7.60715 4.39146 8.21422L2.39692 7.49813C1.78612 8.48834 1.27953 9.5522 0.891622 10.6751L2.68641 11.8156C2.47219 12.5081 2.31298 13.2272 2.20876 13.964L0.107126 14.1997C0.0434397 14.7804 0.0115967 15.3668 0.0115967 15.9621C0.0115967 16.5574 0.0434397 17.1468 0.107126 17.7245L2.20876 17.9602C2.31298 18.697 2.47508 19.4131 2.68641 20.1087L0.891622 21.2492C1.27953 22.372 1.78612 23.4359 2.39692 24.4261L4.39146 23.71C4.79673 24.32 5.24832 24.8947 5.74045 25.4281L4.60857 27.2495C5.42777 28.0805 6.33386 28.8173 7.31523 29.448L8.80605 27.9213C9.42555 28.2897 10.0769 28.611 10.7543 28.8792L10.5111 31.0187C11.588 31.4019 12.7199 31.6671 13.8893 31.7997L14.5841 29.7633C14.9402 29.7927 15.302 29.8075 15.6639 29.8075C16.0257 29.8075 16.3876 29.7927 16.7436 29.7633L17.4384 31.7997C18.6079 31.6641 19.7398 31.3989 20.8166 31.0187L20.5735 28.8792C21.2508 28.611 21.9022 28.2927 22.5217 27.9213L24.0125 29.448C24.9939 28.8173 25.9028 28.0775 26.7192 27.2495L25.5873 25.4281C26.0794 24.8918 26.531 24.3171 26.9363 23.71L28.9308 24.4261C29.5416 23.4359 30.0482 22.372 30.4361 21.2492L28.6413 20.1087C28.8556 19.4161 29.0148 18.697 29.119 17.9602L31.2206 17.7245ZM15.6581 28.2485C8.99133 28.2485 3.58669 22.7463 3.58669 15.9591C3.58669 9.17206 8.99133 3.6728 15.6581 3.6728C22.3249 3.6728 27.7295 9.17498 27.7295 15.9621C27.7295 22.7492 22.3249 28.2514 15.6581 28.2514V28.2485Z" fill="#7267EF"/>
<path d="M21.109 14.8275H20.2984C19.8034 15.5142 18.8713 16.2274 17.1431 16.2716C17.5744 16.6783 17.9276 17.1115 18.1244 17.583C19.9974 17.25 20.7818 15.9032 21.109 14.8275Z" fill="#A6A4FF"/>
<path d="M16.2139 10.4039C16.3355 11.0434 16.5757 11.7714 17.0389 12.2045C17.1808 12.1427 17.3313 12.1014 17.4934 12.0925C17.67 11.8273 17.916 11.621 18.1997 11.4914C17.5108 11.3794 17.1229 10.8961 16.9058 10.4039H16.2139Z" fill="#A6A4FF"/>
<path d="M22.9472 18.644H20.5677C20.5677 18.644 20.5619 18.644 20.559 18.644H17.9045C17.9161 18.5614 17.919 18.4789 17.9161 18.3964C17.9131 18.2284 17.8842 18.0634 17.8321 17.9013C17.8061 17.8217 17.7742 17.7422 17.7395 17.6626C17.7366 17.6538 17.7308 17.6449 17.725 17.6361C17.6555 17.4887 17.5687 17.3443 17.4674 17.2028C17.3458 17.0378 17.2039 16.8757 17.0505 16.7166C16.9955 16.6606 16.9376 16.6016 16.8797 16.5456C16.8044 16.4749 16.7263 16.4042 16.6452 16.3364C16.4021 16.1271 16.1387 15.9267 15.8666 15.7293C15.6842 15.5967 15.4989 15.467 15.3107 15.3403C15.1226 15.2136 14.9344 15.0868 14.7491 14.9631C14.6826 14.9189 14.6189 14.8746 14.5523 14.8304H12.7054C12.8154 14.9601 12.9254 15.0868 13.0354 15.2136C13.2062 15.4081 13.377 15.5996 13.5391 15.7794C13.6202 15.8708 13.7012 15.9592 13.7765 16.0447C13.8778 16.1596 13.9617 16.2716 14.0283 16.3806C14.0949 16.4897 14.1441 16.5958 14.1789 16.6989C14.2455 16.8993 14.257 17.085 14.2252 17.2589C14.2252 17.2736 14.2194 17.2883 14.2165 17.3001C14.1904 17.4239 14.1441 17.5418 14.0775 17.6508C14.0312 17.7333 13.9733 17.81 13.9096 17.8866C13.7823 18.0368 13.6288 18.1724 13.4667 18.2903C13.4146 18.3286 13.3625 18.364 13.3075 18.3994C13.1599 18.4966 13.0093 18.5791 12.8704 18.6499H10.8845C10.8845 18.6499 10.8788 18.6499 10.8759 18.6499H8.49631C8.16633 18.6499 7.90002 18.921 7.90002 19.257C7.90002 19.5929 8.16633 19.864 8.49631 19.864H9.19396L10.1117 22.2335C10.5574 23.3888 11.5012 24.1491 12.5375 24.211C12.5114 24.3525 12.4304 24.5322 12.1843 24.6383C11.7356 24.8269 11.2551 24.6943 11.2551 25.4016H13.5536L14.4394 24.2169H17.3631L18.249 25.4016H20.5475C20.5475 24.6943 20.0669 24.8269 19.6182 24.6383C19.3403 24.5204 19.2708 24.3053 19.2564 24.155C20.1364 23.9516 20.9064 23.2444 21.2972 22.2335L22.2149 19.864H22.9357C23.2657 19.864 23.532 19.5929 23.532 19.257C23.532 18.921 23.2657 18.6499 22.9357 18.6499L22.9472 18.644ZM12.5317 21.426C12.5317 21.1873 12.7227 20.9928 12.9572 20.9928H18.7498C18.9842 20.9928 19.1753 21.1873 19.1753 21.426C19.1753 21.6647 18.9842 21.8592 18.7498 21.8592H12.9572C12.7227 21.8592 12.5317 21.6647 12.5317 21.426Z" fill="#A6A4FF"/>
<path d="M8.86396 9.88527C9.38214 9.37538 10.0827 9.06889 10.8295 9.06889C11.6401 9.06889 12.3985 9.42843 12.9254 10.0208H20.5272C20.5822 10.0179 20.6372 10.009 20.6922 10.009C20.7472 10.009 20.8022 10.0179 20.8601 10.0208H20.918C20.9903 10.0208 21.0598 10.012 21.1293 10.0002C21.607 9.89997 21.9659 9.4697 21.9659 8.95694C21.9659 8.44413 21.607 8.01088 21.1293 7.91363C21.0598 7.89894 20.9903 7.89302 20.918 7.89302C20.7732 7.89302 20.6372 7.92248 20.5098 7.97552C20.3853 8.02856 20.2724 8.10818 20.1769 8.20245C20.145 8.11702 20.1017 8.03448 20.0553 7.95784C19.9974 7.86357 19.9309 7.77218 19.8527 7.69555C19.6153 7.46276 19.2911 7.31833 18.935 7.31833C18.7035 7.31833 18.4864 7.38021 18.2982 7.48337C18.2345 7.51873 18.1766 7.56001 18.1187 7.60421C18.0174 7.41557 17.8784 7.2476 17.7134 7.11206C17.6034 7.02067 17.4818 6.94702 17.3515 6.88806C17.285 6.85861 17.2184 6.83502 17.1489 6.81441C17.01 6.77313 16.8623 6.75252 16.7118 6.75252C16.6684 6.63759 16.6192 6.52559 16.5613 6.41951C16.5034 6.31336 16.4368 6.21026 16.3644 6.11594C16.3268 6.06881 16.2891 6.02162 16.2515 5.97742C16.1328 5.84188 15.9997 5.72104 15.8549 5.61495C15.467 5.33496 14.9923 5.16992 14.4799 5.16992C14.1586 5.16992 13.8546 5.23476 13.5738 5.35264C13.5188 5.37622 13.4638 5.40274 13.4088 5.42924C13.3335 5.46759 13.2612 5.51179 13.1917 5.55599C13.1107 5.60904 13.0325 5.66501 12.9601 5.7269C12.9138 5.76524 12.8704 5.80652 12.827 5.84774C12.6996 5.97449 12.5838 6.11301 12.4854 6.26623C12.4535 6.31635 12.4217 6.36939 12.3927 6.42243C12.3349 6.52852 12.2856 6.64052 12.2422 6.75545C12.167 6.76136 12.0946 6.7702 12.0222 6.7849C11.9498 6.79965 11.8804 6.82027 11.8138 6.84386C11.4085 6.98531 11.0785 7.28888 10.8932 7.67787C10.8411 7.66902 10.789 7.66018 10.734 7.66018C10.5632 7.66018 10.4011 7.70146 10.2564 7.76926C10.1869 7.80169 10.1174 7.83998 10.0566 7.88418C10.0103 7.91955 9.964 7.95784 9.92348 7.99911C9.83952 8.08459 9.77005 8.17891 9.71212 8.28793C9.68321 8.34097 9.66005 8.397 9.63977 8.4559C9.58765 8.43236 9.53558 8.4117 9.47765 8.39993C9.42266 8.38517 9.36186 8.37932 9.30106 8.37932C9.07819 8.37932 8.87556 8.47065 8.7308 8.62094C8.58605 8.76831 8.49341 8.97462 8.49341 9.20155C8.49341 9.48738 8.63817 9.73791 8.85528 9.88527H8.86396Z" fill="#A6A4FF"/>
<path d="M12.3897 14.4444H14.778C15.024 14.4444 15.2527 14.3678 15.4438 14.2381C15.7593 14.02 15.9678 13.6516 15.9678 13.2331C15.9678 12.8146 15.7593 12.4463 15.4438 12.2282C15.2527 12.0985 15.024 12.0219 14.778 12.0219C14.723 12.0219 14.668 12.0307 14.613 12.0396C14.4798 11.7567 14.2714 11.5209 14.0166 11.3529C13.759 11.1849 13.4551 11.0877 13.128 11.0877C13.1164 11.0523 13.099 11.0199 13.0874 10.9845C13.0064 10.7871 12.8992 10.6014 12.7719 10.4305C12.7661 10.4246 12.7603 10.4157 12.7545 10.4099C12.6445 10.2684 12.5229 10.1417 12.3869 10.0267C11.9642 9.67012 11.4229 9.45795 10.8324 9.45795C10.4068 9.45795 10.0073 9.56995 9.65992 9.76444C9.53545 9.83517 9.41678 9.91473 9.30391 10.0061C9.29518 10.012 9.2865 10.0179 9.28075 10.0238C9.18519 10.1034 9.09548 10.1918 9.01152 10.2861C8.99416 10.3067 8.97675 10.3303 8.9594 10.3509C8.77992 10.569 8.63229 10.8195 8.53385 11.0936C8.45862 11.0994 8.38334 11.1083 8.30806 11.123C8.16043 11.1525 8.02147 11.2026 7.89119 11.2704C7.56702 11.4354 7.30359 11.7095 7.14727 12.0425C7.09222 12.0337 7.04015 12.0248 6.98223 12.0248C6.73621 12.0248 6.50749 12.1015 6.31641 12.2312C6.18906 12.3196 6.07907 12.4286 5.99511 12.5583C5.90828 12.6879 5.84748 12.8353 5.81564 12.9915C5.80116 13.0711 5.79248 13.1536 5.79248 13.2361C5.79248 13.4866 5.86776 13.7194 5.99511 13.9139C6.08194 14.0436 6.18906 14.1556 6.31641 14.241C6.50749 14.3707 6.73621 14.4473 6.98223 14.4473H12.3897V14.4444Z" fill="#A6A4FF"/>
<path d="M23.7635 12.4876C23.7085 12.3726 23.639 12.2665 23.5579 12.1722C23.4769 12.0779 23.3813 11.9954 23.2772 11.9276C23.1874 11.8687 23.089 11.8244 22.9877 11.7862C22.9616 11.7773 22.9326 11.7685 22.9066 11.7596C22.7966 11.7302 22.6779 11.7095 22.5592 11.7095C22.5129 11.5798 22.4492 11.4591 22.3769 11.3441C22.29 11.2026 22.1887 11.0671 22.07 10.9521C21.9282 10.8136 21.7632 10.6928 21.5866 10.6015C21.4071 10.5101 21.2132 10.4452 21.0105 10.4128C20.9584 10.404 20.9034 10.404 20.8484 10.401C20.7963 10.3981 20.7471 10.3892 20.695 10.3892C20.6429 10.3892 20.5937 10.3981 20.5415 10.401C20.2144 10.4276 19.9105 10.5307 19.6471 10.6987C19.5284 10.7753 19.4155 10.8578 19.317 10.9551C19.3083 10.9639 19.3026 10.9728 19.2968 10.9787C19.0942 11.1849 18.932 11.4355 18.8307 11.7125C18.7931 11.7125 18.7583 11.7213 18.7207 11.7272C18.6368 11.739 18.5528 11.7567 18.4747 11.7862C18.4197 11.8068 18.3647 11.8304 18.3096 11.8569C18.0462 11.9924 17.832 12.2135 17.7046 12.4846C17.6612 12.4787 17.6178 12.4699 17.5714 12.4699C17.5367 12.4699 17.5049 12.4758 17.4701 12.4816C17.3746 12.4905 17.2791 12.5111 17.1951 12.5494C16.8478 12.6997 16.6046 13.0475 16.6046 13.4572C16.6046 13.8668 16.8478 14.2145 17.1951 14.3649C17.3109 14.4149 17.4383 14.4415 17.5714 14.4415H23.8995C24.0327 14.4415 24.1601 14.4149 24.2759 14.3649C24.6232 14.2145 24.8664 13.8668 24.8664 13.4572C24.8664 13.0475 24.6232 12.6997 24.2759 12.5494C24.1601 12.4993 24.0327 12.4728 23.8995 12.4728C23.8532 12.4728 23.8098 12.4816 23.7664 12.4876H23.7635Z" fill="#A6A4FF"/>
</g>
</g>
<defs>
<clipPath id="clip0_2060_347">
<rect width="131.797" height="32" fill="white"/>
</clipPath>
</defs>
</svg>
