<svg width="557" height="84" viewBox="0 0 557 84" fill="none" xmlns="http://www.w3.org/2000/svg">
<path fill-rule="evenodd" clip-rule="evenodd" d="M15.1942 2.3418H0.973633V67.2562H13.734C14.856 67.2562 15.7655 68.1664 15.7655 69.2892V81.3374H32.9678C50.274 81.3374 63.6788 67.2964 63.6788 49.9761C63.6788 32.6558 50.274 18.6151 32.9678 18.6151C25.1473 18.6151 19.1372 22.4919 15.1942 28.6841V2.3418ZM15.8528 49.9761C15.8528 40.5162 23.5155 32.8472 32.9678 32.8472C42.4203 32.8472 50.0829 40.5162 50.0829 49.9761C50.0829 59.4363 42.4203 67.1052 32.9678 67.1052H17.8843C16.7624 67.1052 15.8528 66.195 15.8528 65.0722V49.9761Z" fill="black"/>
<path d="M409.174 83.8172C393.626 83.8172 384.088 73.8787 384.088 56.6172V18.04H399.636V55.0479C399.636 64.9864 404.079 69.694 412.18 69.694C420.543 69.694 425.899 63.8094 425.899 54.5248V18.04H441.449V81.8556H427.73V75.7094C423.549 81.0711 416.623 83.8172 409.174 83.8172ZM218.422 81.3781V17.5626H232.141V25.0165C235.931 18.7395 243.117 15.601 251.218 15.601C266.897 15.601 276.567 25.5395 276.567 42.8012V81.3781H261.017V44.3705C261.017 34.4318 256.314 29.7242 248.082 29.7242C239.589 29.7242 233.971 35.7396 233.971 44.8933V81.3781H218.422ZM109.315 17.5627H101.212C93.2413 17.5627 88.2762 21.6166 86.7082 28.6783V17.5627H72.9884V81.3784H88.5374V43.1935C88.5374 35.2165 91.9345 31.2935 99.5131 31.2935H109.315V17.5627ZM376.387 17.5627H368.284C360.313 17.5627 355.348 21.6166 353.779 28.6783V17.5627H340.06V81.3784H355.61V43.1935C355.61 35.2165 359.006 31.2935 366.585 31.2935H376.387V17.5627ZM310.61 2.3418H294.968V17.5627H286.402V31.2935H294.096V65.1628C294.096 76.8014 299.193 81.3784 310.43 81.3784H323.019C325.265 81.3784 327.084 79.5579 327.084 77.312V67.6474H315.656C311.213 67.6474 309.646 65.8167 309.646 61.6323V31.2935H327.084V17.5627H310.61V2.3418ZM537.696 2.81906H522.054V18.04H514.869V31.7708H522.563V65.6401C522.563 77.2787 527.66 81.8556 538.896 81.8556H551.486C553.729 81.8556 555.548 80.0351 555.548 77.7893V68.1247H544.123C539.68 68.1247 538.113 66.294 538.113 62.1095V31.7708H555.548V18.04H537.696V2.81906ZM451.534 66.8087C453.729 77.984 463.803 83.8172 479.597 83.8172C496.582 83.8172 507.168 75.5785 507.168 62.7632C507.168 52.1708 500.242 45.1092 488.219 43.6708L477.898 42.4937C471.497 41.7092 468.49 39.6169 468.49 35.8247C468.49 31.3785 472.672 28.7631 479.335 28.7631C486.348 28.7631 490.778 31.0873 491.091 36.1212L506.216 32.8299C504.011 21.7282 494.247 16.0783 479.597 16.0783C463.394 16.0783 453.202 23.9245 453.202 36.6092C453.202 47.463 460.652 54.5246 472.542 55.8324L482.733 56.8784C488.352 57.4015 491.488 59.4938 491.488 63.5477C491.488 68.2555 487.174 71.2632 480.119 71.2632C472.336 71.2632 467.773 68.6852 467.196 63.4008L451.534 66.8087ZM204.182 2.3418H188.54V17.9929H204.182V2.3418ZM188.54 81.3784V25.5247H204.089V81.3784H188.54Z" fill="black"/>
<path fill-rule="evenodd" clip-rule="evenodd" d="M141.602 81.3376C148.667 81.3376 154.687 77.5018 158.824 71.367L158.825 72.5341C158.825 76.8494 163.601 81.3673 168.043 81.3673L176.365 81.3775C177.488 81.3788 178.399 80.468 178.399 79.3442V68.8261H174.223C172.916 68.8261 172.255 68.1722 172.255 66.8646V32.7084H160.861C159.739 32.7084 158.829 31.7982 158.829 30.6751V18.6152H141.602C124.295 18.6152 110.891 32.656 110.891 49.9763C110.891 67.2966 124.295 81.3376 141.602 81.3376ZM158.717 49.9763C158.717 59.4365 151.054 67.1054 141.602 67.1054C132.149 67.1054 124.487 59.4365 124.487 49.9763C124.487 40.5164 132.149 32.8474 141.602 32.8474H156.685C157.807 32.8474 158.717 33.7577 158.717 34.8805V49.9763Z" fill="black"/>
</svg>
