<?xml version="1.0" encoding="UTF-8"?>
<svg id="Layer_2" data-name="Layer 2" xmlns="http://www.w3.org/2000/svg" viewBox="0 0 865 261.6">
  <defs>
    <style>
      .cls-1 {
        fill: none;
      }
    </style>
  </defs>
  <g id="Layer_1-2" data-name="Layer 1">
    <rect class="cls-1" width="865" height="261.6"/>
    <path d="M323.54,105.04h19.05v78.07h-19.05v-78.07ZM289.36,123.46h16.08v59.64h-18.89v-10.77c-3.12,6.71-13.27,12.33-23.89,12.33-22.17,0-38.1-16.4-38.1-39.19s18.27-40.44,41.06-40.44h20.61v15.3c0,1.72,1.25,3.12,3.12,3.12h0ZM286.23,127.36c0-1.87-1.25-3.12-3.12-3.12h-17.18c-12.96,0-21.08,8.27-21.08,20.92,0,11.71,7.49,20.45,20.61,20.45,11.24,0,20.77-7.96,20.77-20.61h0v-17.64ZM173.19,130.64h0s0,52.46,0,52.46h19.05v-56.36c0-1.87,1.25-3.12,3.12-3.12h26.07v-18.58h-24.98c-16.71,0-23.26,8.59-23.26,25.61ZM162.26,142.66c0,22.8-18.27,40.44-41.06,40.44h-20.61v-15.3c0-1.87-1.25-3.12-3.12-3.12h-16.08v-86.19h19.2v36.53c3.43-7.03,12.96-11.55,23.58-11.55,22.17,0,38.1,16.4,38.1,39.19ZM141.96,142.98c0-11.71-7.49-20.45-20.61-20.45-11.24,0-20.77,7.96-20.77,20.61v17.64c0,1.87,1.25,3.12,3.12,3.12h17.18c12.96,0,21.08-8.27,21.08-20.92ZM411.44,105.04h-27.48c-16.86,0-23.42,8.59-23.42,25.61v52.46h19.05v-56.36c0-1.87,1.25-3.12,3.12-3.12h29.82c1.87,0,3.12,1.25,3.12,3.12v56.36h19.05v-52.46c0-15.61-5.15-25.61-23.26-25.61ZM695.61,136.26l-13.11-2.34c-7.18-1.25-9.99-3.59-9.99-7.81s4.37-8.12,13.43-8.12c9.68,0,14.99,4.84,15.3,11.87h19.05c-1.41-17.33-14.06-26.7-34.2-26.7s-32.79,10.15-32.79,24.98,11.24,20.14,25.29,22.48l12.33,2.03c7.81,1.25,12.18,4.22,12.18,9.06,0,5.47-6.4,8.43-15.3,8.43-9.99,0-16.55-5.15-17.18-12.96h-19.83c1.4,19.05,17.33,27.8,37,27.8s34.35-8.74,34.35-24.82c0-14.36-10.15-21.23-26.55-23.89ZM619.88,161.4c0,1.87-1.25,3.12-3.12,3.12h-28.26c-1.87,0-3.12-1.25-3.12-3.12v-56.36h-19.05v52.31c0,15.61,5.15,25.76,23.26,25.76h25.92c16.86,0,23.42-8.59,23.42-25.61v-52.46h-19.05v56.36ZM508.72,130.64h0s0,52.46,0,52.46h19.05v-56.36c0-1.87,1.25-3.12,3.12-3.12h24.51v-18.58h-23.42c-16.71,0-23.26,8.59-23.26,25.61ZM476.87,78.49h-19.05v26.54h-14.36v17.8h14.36v36.38c0,17.8,8.27,23.89,23.89,23.89h13.9v-17.8h-7.81c-7.81,0-10.93-3.44-10.93-10.77v-31.69h21.23v-17.8h-21.23v-26.54ZM322.61,96.76h20.77v-18.27h-20.77v18.27ZM762.39,105.04v-26.54h-19.05v26.54h-14.36v17.8h14.36v36.38c0,17.8,8.27,23.89,23.89,23.89h13.9v-17.8h-7.81c-7.81,0-10.93-3.44-10.93-10.77v-31.69h21.23v-17.8h-21.23Z"/>
  </g>
</svg>