<svg width="274" height="52" viewBox="0 0 274 52" fill="none" xmlns="http://www.w3.org/2000/svg">
<path d="M261.522 41.5603C254.97 41.5603 250.646 36.7521 250.646 29.4946C250.646 22.2371 254.926 17.4289 261.478 17.4289C268.336 17.4289 272.53 22.7359 271.918 30.6739H255.057C255.406 35.3459 257.81 38.0675 261.566 38.0675C264.231 38.0675 266.414 36.7066 267.201 34.4387H271.349C270.259 38.7933 266.502 41.5603 261.522 41.5603ZM255.145 27.5893H267.682C267.375 23.371 265.148 20.9215 261.61 20.9215C258.028 20.9215 255.669 23.4163 255.145 27.5893Z" fill="#0F0F0F"/>
<path d="M245.25 18.1543H249.705L241.449 40.8341H236.513L228.3 18.1543H232.714L239.003 36.1621L245.25 18.1543Z" fill="#0F0F0F"/>
<path d="M211.826 24.6409H207.634C208.375 20.1051 211.913 17.4289 217.156 17.4289C222.66 17.4289 226.11 20.4226 226.11 25.3214V36.7974C226.11 38.3396 226.242 39.3829 226.547 40.8345H222.353C222.135 39.8818 222.004 38.8839 221.96 37.75C220.258 40.154 217.417 41.5603 214.098 41.5603C209.687 41.5603 206.934 39.0654 206.934 35.0283C206.934 31.1729 209.38 28.678 214.23 27.8616L217.941 27.2265C220.694 26.7276 221.872 25.7751 221.872 24.0968C221.872 22.0556 220.082 20.74 217.2 20.74C214.186 20.74 212.133 22.2371 211.826 24.6409ZM221.916 31.2635V28.3151C220.955 29.2223 219.733 29.812 218.029 30.1295L214.927 30.6739C212.525 31.0821 211.216 32.4428 211.216 34.5748C211.216 36.8881 212.701 38.249 215.364 38.249C219.165 38.249 221.916 35.3459 221.916 31.2635Z" fill="#0F0F0F"/>
<path d="M186.76 18.1543H191.303L196.544 35.391L201.174 18.1543H205.586L199.253 40.8341H194.317L189.031 24.0511L183.79 40.8341H178.81L172.52 18.1543H176.888L181.518 35.391L186.76 18.1543Z" fill="#0F0F0F"/>
<path d="M160.352 11.9853H164.545V18.1542H169.786V21.5562H164.545V33.7578C164.545 36.3887 165.375 37.432 167.559 37.432H169.918V40.8339H166.598C162.186 40.8339 160.352 38.5207 160.352 33.5311V21.5562H157.075V18.1542H160.352V11.9853Z" fill="#0F0F0F"/>
<path d="M135.198 9.08258H139.304V21.0121C141.008 18.6988 143.541 17.4288 146.555 17.4288C151.447 17.4288 154.374 20.8306 154.374 26.3192V40.8343H150.181V27.0903C150.181 23.1894 148.565 21.1482 145.245 21.1482C141.75 21.1482 139.392 23.4617 139.392 27.1356V40.8343H135.198V9.08258Z" fill="#0F0F0F"/>
<path d="M113.45 42.6487C114.061 45.5518 116.333 47.1395 119.74 47.1395C123.933 47.1395 126.204 44.7807 126.204 40.4261V36.7521C124.457 39.5191 121.836 40.9704 118.648 40.9704C112.838 40.9704 108.776 36.2078 108.776 29.177C108.776 22.2824 112.882 17.4289 118.604 17.4289C121.793 17.4289 124.457 18.8803 126.204 21.6472V18.1546H130.398V39.9273C130.398 46.6858 126.51 50.632 119.74 50.632C113.93 50.632 110.174 47.7291 109.344 42.6487H113.45ZM119.74 37.2509C123.671 37.2509 126.248 33.9398 126.248 29.177C126.248 24.4595 123.671 21.1484 119.74 21.1484C115.808 21.1484 113.144 24.4595 113.144 29.177C113.144 33.8943 115.808 37.2509 119.74 37.2509Z" fill="#0F0F0F"/>
<path d="M102.116 14.4352C100.238 14.4352 99.2768 13.0744 99.2768 11.5775C99.2768 10.0353 100.238 8.71986 102.116 8.71986C103.907 8.71986 104.955 10.0353 104.955 11.5775C104.955 13.0744 103.907 14.4352 102.116 14.4352ZM100.019 40.8345V18.1547H104.213V40.8345H100.019Z" fill="#0F0F0F"/>
<path d="M84.9276 18.1546H89.0335V22.0101C90.6496 18.9711 93.3578 17.4289 96.8522 17.4289V21.6019C91.5669 21.6019 89.1208 23.8699 89.1208 28.678V40.8345H84.9276V18.1546Z" fill="#0F0F0F"/>
<path d="M74.3272 23.7337C78.6953 24.2781 81.5782 27.5893 81.5782 32.1705C81.5782 37.3871 77.778 40.8343 72.056 40.8343H58.5585V9.08258H70.9638C76.1181 9.08258 79.3942 12.031 79.3942 16.703C79.3942 20.241 77.4722 22.9173 74.3272 23.7337ZM70.2213 22.373C73.4099 22.373 75.2009 20.6492 75.2009 17.5648C75.2009 14.5711 73.541 13.0289 70.2649 13.0289H62.9266V22.373H70.2213ZM62.9266 36.8881H71.5317C75.3319 36.8881 77.2103 35.1189 77.2103 31.5356C77.2103 27.9522 75.2009 26.0925 71.2696 26.0925H62.9266V36.8881Z" fill="#0F0F0F"/>
<path d="M34.301 26V36.7111L32.9262 38.1388L21.2368 26C21.2368 25.3875 21.2368 25.0438 21.2368 24.4311L35.4605 9.66059L35.6819 9.43073C36.0522 9.2715 36.3799 9.13029 36.7501 8.97105H43.8111C44.401 9.58371 44.7334 9.92809 45.3242 10.5407V22.8663C44.7356 23.4773 44.4063 23.8193 43.8179 24.4303H35.8118L34.301 26Z" fill="#0F0F0F"/>
<path d="M0 8.97108L1.34616 7.56217L8.639 15.1353C9.47298 15.1353 9.94211 15.1353 10.7761 15.1353L18.6596 6.94874L25.3512 0H27.4875L34.303 7.07739V8.6463L33.9902 8.97108L20.1713 23.3213L19.5457 23.9707L18.4776 24.4303H1.51311C0.923128 23.8177 0.592253 23.4741 0.00226848 22.8614V22.8364" fill="#0F0F0F"/>
<path d="M0 27.5932V41.4585L1.35221 42.8627L8.639 35.2959C9.47298 35.2959 9.94211 35.2959 10.7761 35.2959L20.1516 45.0318L25.3572 50.4367C26.192 50.4367 26.6597 50.4367 27.4935 50.4367L34.303 43.3656V41.784L33.9902 41.4594L20.1713 27.1093L19.5457 26.4596C19.1756 26.3005 18.8477 26.1592 18.4776 26H1.51311C0.923128 26.6127 0.592253 26.9562 0.00226848 27.5689V27.594L0 27.5932Z" fill="#0F0F0F"/>
<path d="M37.3236 26H43.8141C44.4041 26.6127 44.7349 26.9562 45.3249 27.5689V39.8896C44.7349 40.5022 44.4041 40.8458 43.8141 41.4585H37.3236L35.8127 39.8896V27.5689L37.3236 26Z" fill="#0F0F0F"/>
</svg>
