<?xml version="1.0" encoding="UTF-8"?>
<!-- Generated by Pixelmator Pro 3.6.14 -->
<svg width="852" height="254" viewBox="0 0 852 254" xmlns="http://www.w3.org/2000/svg">
    <path id="Path" fill="#00292b" stroke="none" d="M 151.333008 199.848022 C 152.684998 204.044006 153.773987 208.361023 154.57901 212.780029 L 21.291992 253.265015 L 16.997009 240.518005 L 151.333008 199.848022 Z M 40.539001 61.386963 C 70.527008 39.73999 112.372009 33.307983 146.278992 44.212036 C 144.30899 48.327026 142.071991 52.291016 139.589996 56.079956 C 110.339996 47.666016 74.278992 53.43396 48.322998 72.171021 C 25.411011 88.709961 15.933014 115.067017 13.787994 142.405029 C 11.890991 166.572021 15.820007 190.695007 20.576996 207.437012 L 137.415985 172.106018 C 140.065002 175.835999 142.470001 179.750977 144.608002 183.827026 L 11.899994 223.955994 L 9.856995 217.817993 C 3.88501 199.879028 -1.782013 170.80603 0.528015 141.36499 C 2.837006 111.93103 13.240997 81.092041 40.539001 61.386963 Z M 172.06601 207.091003 C 172.036987 207.224976 172.01001 207.359985 171.981995 207.494019 L 167.377991 208.892029 C 166.518005 204.497986 165.408997 200.192993 164.06601 195.992981 L 168.257996 194.724976 L 172.06601 207.091003 Z M 164.666992 177.763 L 157.54599 179.914978 C 155.515015 175.822998 153.244995 171.869995 150.76001 168.070984 L 160.817993 165.031006 L 164.666992 177.763 Z M 163.700012 51.514038 L 158.04599 63.552979 L 152.313995 60.859985 C 154.644989 57.093994 156.765015 53.182983 158.658997 49.14502 L 163.700012 51.514038 Z"/>
    <path id="path1" fill="#00292b" fill-rule="evenodd" stroke="none" d="M 59.804993 99.160034 C 58.09201 99.178955 56.423004 99.197998 54.821991 99.197998 C 41.584991 99.197998 26.946991 100.731995 21.358002 101.492981 L 19.56601 88.312988 C 25.522003 87.502991 40.792999 85.896973 54.821991 85.896973 C 56.109009 85.896973 57.54599 85.879028 59.098999 85.858032 C 67.091003 85.754028 78.138 85.609985 87.544006 87.782959 C 93.265991 89.10498 99.169006 91.43103 103.674988 95.759033 C 108.402008 100.299011 111.022003 106.495972 110.933014 114.237 C 110.78299 127.359009 108.015991 137.291992 99.312012 145.469971 C 91.286987 153.012024 78.696014 158.497986 61.153015 165.008972 C 32.69101 175.570984 15.010986 180.969971 9.520996 182.392029 L 6.187012 169.515991 C 11.041992 168.258972 28.239014 163.036011 56.526001 152.539001 C 74.450989 145.887024 84.445007 141.190002 90.20401 135.778015 C 95.286011 131.002014 97.506012 125.208984 97.634003 114.085022 C 97.68399 109.703003 96.320007 107.137024 94.462006 105.351013 C 92.382996 103.35498 89.097992 101.791992 84.549988 100.742004 C 76.876007 98.968994 67.851013 99.070007 59.804993 99.160034 Z"/>
    <linearGradient id="linearGradient1" x1="53.99" y1="115.686" x2="285.089" y2="115.686" gradientUnits="userSpaceOnUse">
        <stop offset="1e-05" stop-color="#00fff2" stop-opacity="1"/>
        <stop offset="1" stop-color="#00ff62" stop-opacity="1"/>
    </linearGradient>
    <path id="path2" fill="url(#linearGradient1)" fill-rule="evenodd" stroke="none" d="M 93.789001 122.723022 C 81.381012 118.171021 67.976013 115.685974 53.98999 115.685974 C 67.976013 115.685974 81.381012 113.200989 93.789001 108.648987 C 125.588989 96.981995 150.835999 71.735962 162.502991 39.934998 C 167.054993 27.528015 169.539001 14.122009 169.539001 0.136963 C 169.539001 14.122009 172.023987 27.528015 176.575989 39.934998 C 188.243011 71.735962 213.48999 96.981995 245.289978 108.648987 C 257.697998 113.200989 271.103027 115.685974 285.088989 115.685974 C 271.103027 115.685974 257.697998 118.171021 245.289978 122.723022 C 213.48999 134.388977 188.243011 159.635986 176.575989 191.435974 C 172.023987 203.843994 169.539001 217.249023 169.539001 231.234985 C 169.539001 217.249023 167.054993 203.843994 162.502991 191.435974 C 150.835999 159.635986 125.588989 134.388977 93.789001 122.723022 Z M 169.539001 174.156006 C 182.072998 148.83197 202.685974 128.218994 228.008972 115.685974 C 202.685974 103.153015 182.072998 82.540039 169.539001 57.216003 C 157.006012 82.540039 136.393005 103.153015 111.070007 115.685974 C 136.393005 128.218994 157.006012 148.83197 169.539001 174.156006 Z"/>
    <path id="path3" fill="#00292b" stroke="none" d="M 792.280029 175.320007 C 781.420044 175.320007 771.599976 172.882996 762.829956 168.010986 C 754.060059 163 747.170044 156.039001 742.160034 147.130005 C 737.150024 138.080994 734.640015 127.640015 734.640015 115.807007 C 734.640015 104.114014 737.219971 93.743042 742.369995 84.69397 C 747.52002 75.64502 754.550049 68.684998 763.459961 63.812012 C 772.369995 58.940002 782.319946 56.504028 793.319946 56.504028 C 804.319946 56.504028 814.27002 58.940002 823.180054 63.812012 C 832.089966 68.684998 839.119995 75.64502 844.27002 84.69397 C 849.420044 93.743042 852 104.114014 852 115.807007 C 852 127.500977 849.349976 137.872009 844.060059 146.921021 C 838.77002 155.968994 831.530029 163 822.339966 168.010986 C 813.300049 172.882996 803.27002 175.320007 792.280029 175.320007 Z M 792.280029 154.646973 C 798.400024 154.646973 804.109985 153.184998 809.400024 150.262024 C 814.829956 147.338013 819.209961 142.953003 822.550049 137.106018 C 825.890015 131.26001 827.560059 124.159973 827.560059 115.807007 C 827.560059 107.455017 825.959961 100.424988 822.76001 94.717041 C 819.560059 88.869995 815.310059 84.484985 810.02002 81.562012 C 804.72998 78.638 799.030029 77.177002 792.900024 77.177002 C 786.780029 77.177002 781.069946 78.638 775.780029 81.562012 C 770.630005 84.484985 766.52002 88.869995 763.459961 94.717041 C 760.400024 100.424988 758.859985 107.455017 758.859985 115.807007 C 758.859985 128.197021 762 137.802979 768.26001 144.624023 C 774.660034 151.30603 782.670044 154.646973 792.280029 154.646973 Z"/>
    <path id="path4" fill="#00292b" stroke="none" d="M 621.908997 115.807007 C 621.908997 103.974976 624.276001 93.603027 629.008972 84.69397 C 633.880981 75.64502 640.562988 68.684998 649.054993 63.812012 C 657.546997 58.940002 667.291992 56.504028 678.289001 56.504028 C 692.210022 56.504028 703.700012 59.844971 712.73999 66.526978 C 721.930054 73.070007 728.130005 82.467041 731.329956 94.717041 L 705.640015 94.717041 C 703.559998 89.009033 700.210022 84.554993 695.619995 81.353027 C 691.030029 78.151001 685.25 76.549988 678.289001 76.549988 C 668.544983 76.549988 660.749023 80.030029 654.901978 86.990967 C 649.19397 93.812012 646.341003 103.41803 646.341003 115.807007 C 646.341003 128.197021 649.19397 137.872009 654.901978 144.833008 C 660.749023 151.79303 668.544983 155.27301 678.289001 155.27301 C 692.070007 155.27301 701.190002 149.218018 705.640015 137.106018 L 731.329956 137.106018 C 727.98999 148.799988 721.719971 158.127014 712.530029 165.088013 C 703.349976 171.908997 691.929993 175.320007 678.289001 175.320007 C 667.291992 175.320007 657.546997 172.882996 649.054993 168.010986 C 640.562988 163 633.880981 156.039001 629.008972 147.130005 C 624.276001 138.080994 621.908997 127.640015 621.908997 115.807007 Z"/>
    <path id="path5" fill="#00292b" stroke="none" d="M 575.645996 175.320007 C 566.596985 175.320007 558.453979 173.718994 551.215027 170.517029 C 544.11499 167.176025 538.47699 162.721008 534.301025 157.153015 C 530.124023 151.445007 527.896973 145.111023 527.619019 138.151001 L 552.258972 138.151001 C 552.676025 143.02301 554.973022 147.130005 559.150024 150.471008 C 563.465027 153.671997 568.825012 155.27301 575.228027 155.27301 C 581.911011 155.27301 587.060974 154.020996 590.68103 151.515015 C 594.439026 148.869995 596.31897 145.528992 596.31897 141.492004 C 596.31897 137.176025 594.231018 133.973999 590.054016 131.885986 C 586.017029 129.797974 579.544006 127.500977 570.63501 124.994995 C 562.004028 122.629028 554.973022 120.33197 549.544006 118.104004 C 544.11499 115.877014 539.382019 112.466003 535.344971 107.872009 C 531.447021 103.278015 529.497986 97.223022 529.497986 89.704956 C 529.497986 83.579956 531.307983 78.011963 534.927002 73 C 538.546997 67.849976 543.697021 63.812012 550.379028 60.889038 C 557.200989 57.966003 564.997009 56.504028 573.767029 56.504028 C 586.853027 56.504028 597.362976 59.844971 605.297974 66.526978 C 613.372009 73.070007 617.687988 82.049011 618.244019 93.463989 L 594.439026 93.463989 C 594.021973 88.312988 591.934021 84.207031 588.174988 81.144043 C 584.416016 78.080994 579.335022 76.549988 572.932007 76.549988 C 566.666992 76.549988 561.864014 77.733032 558.52301 80.099976 C 555.182007 82.467041 553.512024 85.598999 553.512024 89.497009 C 553.512024 92.55896 554.625 95.13501 556.853027 97.223022 C 559.080017 99.311035 561.794983 100.980957 564.997009 102.234009 C 568.197998 103.348022 572.932007 104.809998 579.195984 106.619995 C 587.549011 108.846985 594.369995 111.143982 599.659973 113.51001 C 605.088989 115.737976 609.752991 119.078979 613.650024 123.533997 C 617.547974 127.987976 619.567017 133.905029 619.705994 141.28302 C 619.705994 147.825989 617.895996 153.671997 614.276978 158.822998 C 610.656982 163.973999 605.507019 168.010986 598.825012 170.934998 C 592.281982 173.857971 584.55603 175.320007 575.645996 175.320007 Z"/>
    <path id="path6" fill="#00292b" stroke="none" d="M 405.812012 115.390015 C 405.812012 103.835022 408.177979 93.603027 412.911011 84.69397 C 417.783997 75.783997 424.325989 68.894043 432.539978 64.020996 C 440.892029 59.01001 450.080017 56.504028 460.103027 56.504028 C 469.151978 56.504028 477.017029 58.313965 483.700012 61.932983 C 490.520996 65.412964 495.950012 69.797974 499.987 75.088013 L 499.987 58.382996 L 524.000977 58.382996 L 524.000977 173.440002 L 499.987 173.440002 L 499.987 156.317017 C 495.950012 161.747009 490.450989 166.270996 483.491028 169.890015 C 476.530029 173.51001 468.594971 175.320007 459.685974 175.320007 C 449.802002 175.320007 440.752991 172.814026 432.539978 167.802002 C 424.325989 162.651978 417.783997 155.552002 412.911011 146.502991 C 408.177979 137.315002 405.812012 126.94397 405.812012 115.390015 Z M 499.987 115.807007 C 499.987 107.872009 498.317017 100.980957 494.976013 95.13501 C 491.773987 89.287964 487.528015 84.833008 482.237976 81.770996 C 476.947998 78.708008 471.23999 77.177002 465.11499 77.177002 C 458.98999 77.177002 453.281982 78.708008 447.992004 81.770996 C 442.702026 84.69397 438.387024 89.078979 435.046021 94.926025 C 431.843994 100.632996 430.242981 107.455017 430.242981 115.390015 C 430.242981 123.325012 431.843994 130.284973 435.046021 136.270996 C 438.387024 142.257019 442.702026 146.851013 447.992004 150.052979 C 453.421021 153.116028 459.129028 154.646973 465.11499 154.646973 C 471.23999 154.646973 476.947998 153.116028 482.237976 150.052979 C 487.528015 146.98999 491.773987 142.536011 494.976013 136.689026 C 498.317017 130.703003 499.987 123.742004 499.987 115.807007 Z"/>
    <path id="path7" fill="#00292b" stroke="none" d="M 293.286987 115.807007 C 293.286987 103.974976 295.653992 93.603027 300.387024 84.69397 C 305.258972 75.64502 311.940979 68.684998 320.432983 63.812012 C 328.924988 58.940002 338.669983 56.504028 349.666992 56.504028 C 363.588013 56.504028 375.072998 59.844971 384.122009 66.526978 C 393.309998 73.070007 399.504028 82.467041 402.705994 94.717041 L 377.021973 94.717041 C 374.934021 89.009033 371.593018 84.554993 366.999023 81.353027 C 362.405029 78.151001 356.627991 76.549988 349.666992 76.549988 C 339.921997 76.549988 332.127014 80.030029 326.280029 86.990967 C 320.572021 93.812012 317.718018 103.41803 317.718018 115.807007 C 317.718018 128.197021 320.572021 137.872009 326.280029 144.833008 C 332.127014 151.79303 339.921997 155.27301 349.666992 155.27301 C 363.448975 155.27301 372.567017 149.218018 377.021973 137.106018 L 402.705994 137.106018 C 399.36499 148.799988 393.101013 158.127014 383.913025 165.088013 C 374.724976 171.908997 363.309998 175.320007 349.666992 175.320007 C 338.669983 175.320007 328.924988 172.882996 320.432983 168.010986 C 311.940979 163 305.258972 156.039001 300.387024 147.130005 C 295.653992 138.080994 293.286987 127.640015 293.286987 115.807007 Z"/>
</svg>
