<svg width="169" height="24" viewBox="0 0 169 24" fill="none" xmlns="http://www.w3.org/2000/svg">
<path fill-rule="evenodd" clip-rule="evenodd" d="M28.5063 8.38351C27.5501 7.88299 26.4871 7.62169 25.4079 7.62169C24.3292 7.62169 23.2663 7.88299 22.3099 8.38351C21.8478 8.64381 21.4247 8.96889 21.0543 9.34888V0.300903H16.8903V23.3063H21.0543V14.4919C21.0421 13.9256 21.1787 13.366 21.4507 12.8692C21.7076 12.4129 22.0876 12.0383 22.5476 11.788C23.0368 11.528 23.584 11.3965 24.1377 11.4057C24.5487 11.3846 24.9595 11.45 25.3433 11.5977C25.7273 11.7451 26.0762 11.9716 26.3673 12.2624C26.6584 12.5533 26.8855 12.9019 27.0335 13.2859C27.182 13.6699 27.2478 14.0808 27.2277 14.4919V23.3063H31.394V13.5699C31.4151 12.4917 31.1518 11.4271 30.6298 10.4837C30.1288 9.60114 29.394 8.87431 28.5063 8.38351ZM10.384 19.3766C9.78533 19.628 9.14112 19.7524 8.492 19.7423C7.77367 19.7544 7.06528 19.5731 6.44098 19.2174C5.83924 18.8695 5.34429 18.3633 5.00966 17.7538C4.65187 17.0955 4.47108 16.3554 4.48501 15.6061C4.46624 14.8562 4.6473 14.115 5.00966 13.4583C5.35245 12.863 5.84617 12.3689 6.44098 12.0259C7.06585 11.6717 7.77398 11.491 8.492 11.5028C9.12862 11.4951 9.76042 11.6139 10.3509 11.8521C10.9024 12.0794 11.3963 12.4268 11.7967 12.8692L14.4674 10.1654C13.7355 9.34553 12.835 8.69386 11.8277 8.25528C10.7736 7.80281 9.63676 7.57549 8.48987 7.58754C7.01642 7.56896 5.56374 7.93673 4.27637 8.65419C3.02835 9.33766 1.99105 10.3497 1.27671 11.5809C0.562392 12.8123 0.198252 14.2156 0.223926 15.6391C0.202727 17.0534 0.567675 18.4468 1.27923 19.669C1.99078 20.891 3.02207 21.8955 4.26192 22.5745C5.55616 23.2861 7.01332 23.6482 8.48987 23.6246C9.63676 23.6368 10.7736 23.4093 11.8277 22.957C12.8537 22.5045 13.7744 21.8436 14.5314 21.0159L11.8277 18.3099C11.4339 18.7709 10.9401 19.1357 10.384 19.3766ZM44.1315 8.28843C44.6899 8.57116 45.1954 8.94897 45.6248 9.40462V7.93907H49.7556V23.3063H45.6248V21.818C45.1924 22.272 44.6876 22.6511 44.1315 22.9402C43.2165 23.4076 42.2007 23.6428 41.1738 23.6246C39.8389 23.6428 38.5267 23.2784 37.3921 22.5745C36.2699 21.8763 35.3578 20.8866 34.7525 19.7113C34.1246 18.44 33.7978 17.0409 33.7978 15.6227C33.7978 14.2044 34.1246 12.8053 34.7525 11.5337C35.3574 10.3581 36.2696 9.36863 37.3921 8.67076C38.5267 7.96669 39.8389 7.60244 41.1738 7.62069C42.1991 7.60227 43.2135 7.83127 44.1315 8.28843ZM41.9379 19.7756C43.1045 19.7743 44.0476 19.3869 44.7677 18.6137C45.4877 17.8394 45.8478 16.8367 45.8478 15.6061C45.8623 14.8607 45.6938 14.123 45.3561 13.4583C45.045 12.853 44.5716 12.3461 43.989 11.9947C43.3663 11.635 42.6571 11.4534 41.9379 11.4698C41.2293 11.4554 40.5301 11.6372 39.918 11.9947C39.3356 12.3456 38.8625 12.8526 38.5525 13.4583C38.2137 14.1227 38.0441 14.8604 38.059 15.6061C38.0421 16.3626 38.2117 17.1117 38.5525 17.787C38.8632 18.3923 39.3359 18.8991 39.918 19.2503C40.5301 19.6081 41.2293 19.7897 41.9379 19.7756ZM63.58 7.98661C62.9424 7.73418 62.2616 7.60997 61.5763 7.62069C59.8591 7.62069 58.5456 8.16639 57.6355 9.25782L57.6025 9.30134V7.93907H53.4385V23.3063H57.6025V14.8102C57.6025 13.665 57.8834 12.8113 58.4453 12.249C58.7321 11.9673 59.0729 11.7472 59.4477 11.6022C59.8222 11.4572 60.2226 11.3903 60.624 11.4057C61.0086 11.3991 61.3911 11.4643 61.7519 11.5978C62.0736 11.7202 62.3622 11.9162 62.5947 12.1705L65.2012 9.17931C64.76 8.66172 64.2052 8.25344 63.58 7.98661ZM75.638 8.28843C76.197 8.57116 76.703 8.9488 77.1334 9.40462L77.1394 7.93907H81.2704V23.3063H77.1394V21.818C76.706 22.272 76.201 22.6511 75.6442 22.9402C74.7299 23.4076 73.7148 23.6425 72.6885 23.6246C71.353 23.6428 70.0402 23.2784 68.9045 22.5745C67.7827 21.8763 66.8705 20.8866 66.265 19.7113C65.6373 18.44 65.3109 17.0409 65.3109 15.6227C65.3109 14.2044 65.6373 12.8053 66.265 11.5337C66.8682 10.3588 67.7783 9.36947 68.8983 8.67076C70.034 7.96686 71.3467 7.60244 72.6822 7.62069C73.7068 7.60244 74.7205 7.83144 75.638 8.28843ZM73.4446 19.7756C74.6109 19.7743 75.554 19.3869 76.2741 18.6139C76.9944 17.8394 77.3545 16.8367 77.3545 15.6061C77.3689 14.8607 77.2 14.123 76.8629 13.4583C76.5524 12.8525 76.0786 12.3456 75.4954 11.9947C74.8727 11.635 74.1633 11.4534 73.4446 11.4698C72.7364 11.4557 72.0382 11.6375 71.4267 11.9947C70.843 12.3449 70.3693 12.852 70.0592 13.4583C69.7204 14.1227 69.5509 14.8604 69.5656 15.6061C69.5485 16.3626 69.7181 17.1117 70.0592 17.787C70.3699 18.3928 70.8433 18.8998 71.4267 19.2503C72.0382 19.6077 72.7364 19.7894 73.4446 19.7756ZM94.0951 19.3766C93.4961 19.6276 92.8522 19.7524 92.203 19.7423C91.4847 19.755 90.776 19.5737 90.1519 19.2174C89.55 18.8702 89.0546 18.3638 88.7205 17.7538C88.3628 17.0955 88.1822 16.3554 88.1959 15.6061C88.1771 14.8562 88.3584 14.115 88.7205 13.4583C89.063 12.8627 89.5567 12.3684 90.1519 12.0259C90.7766 11.6712 91.4851 11.4907 92.203 11.5028C92.8396 11.4947 93.4715 11.6134 94.0618 11.8521C94.6135 12.0791 95.1075 12.4266 95.5076 12.8692L98.1762 10.1654C97.445 9.34553 96.5453 8.69386 95.5385 8.25528C94.4845 7.80331 93.3478 7.57599 92.2007 7.58754C90.7273 7.56896 89.2746 7.93673 87.9873 8.65419C86.7392 9.33766 85.7019 10.3497 84.9876 11.5809C84.2731 12.8123 83.9092 14.2156 83.9347 15.6391C83.9139 17.0533 84.2787 18.4462 84.9899 19.6683C85.7009 20.89 86.7315 21.895 87.9707 22.5745C89.2659 23.2861 90.7236 23.6478 92.2007 23.6246C93.3478 23.6364 94.4845 23.4089 95.5385 22.957C96.5642 22.5052 97.4845 21.844 98.2401 21.0159L95.5385 18.3099C95.1445 18.7704 94.651 19.1353 94.0951 19.3766ZM102.598 1.54121H106.765V7.9369H110.356V11.5958H106.765V23.3063H102.598V11.5958H99.0067V7.9369H102.598V1.54121ZM123.311 8.59024C122.117 7.90693 120.761 7.56042 119.386 7.58754C117.949 7.57063 116.534 7.9389 115.287 8.65419C114.084 9.3385 113.081 10.3255 112.376 11.5173C111.828 12.437 111.471 13.4578 111.326 14.5187C111.18 15.5797 111.249 16.6591 111.53 17.6926C111.811 18.7261 112.296 19.6924 112.958 20.5341C113.62 21.3756 114.444 22.0751 115.381 22.5909C116.701 23.297 118.178 23.6525 119.674 23.6246C120.867 23.6354 122.05 23.4083 123.154 22.957C124.204 22.5253 125.135 21.849 125.872 20.9849L123.424 18.5332C122.973 19.0531 122.407 19.4621 121.772 19.7279C121.095 20.0004 120.37 20.1354 119.64 20.1248C118.842 20.1417 118.053 19.9502 117.352 19.5687C116.698 19.204 116.17 18.6497 115.836 17.9791C115.694 17.6989 115.583 17.4043 115.503 17.1006L126.725 17.0717C126.802 16.7521 126.86 16.4285 126.901 16.1021C127.078 14.4546 126.756 12.7917 125.977 11.3292C125.351 10.1922 124.43 9.24593 123.311 8.59024ZM115.508 13.9792C115.581 13.7012 115.682 13.431 115.809 13.173C116.118 12.5254 116.61 11.9827 117.224 11.6124C117.879 11.2311 118.627 11.0386 119.384 11.0563C120.08 11.0335 120.768 11.2046 121.371 11.5503C121.918 11.8863 122.35 12.3799 122.61 12.9663C122.754 13.2839 122.864 13.6158 122.937 13.9564L115.508 13.9792ZM141.291 9.17931L138.682 12.1705C138.45 11.9164 138.163 11.7202 137.841 11.5978C137.48 11.4641 137.097 11.3988 136.712 11.4057C136.31 11.3901 135.91 11.4569 135.536 11.6019C135.161 11.747 134.821 11.9671 134.535 12.249C133.973 12.8113 133.692 13.665 133.692 14.8102V23.3063H129.526V7.93907H133.692V9.30134L133.723 9.25782C134.636 8.16639 135.95 7.62069 137.666 7.62069C138.351 7.61031 139.032 7.73451 139.669 7.98661C140.294 8.25394 140.849 8.66222 141.291 9.17931ZM139.781 18.3431C139.432 18.3307 139.084 18.3921 138.76 18.5237C138.437 18.6551 138.145 18.8533 137.903 19.1057C137.433 19.6181 137.172 20.288 137.172 20.9839C137.172 21.6794 137.433 22.3497 137.903 22.8617C138.145 23.1142 138.437 23.3124 138.76 23.4439C139.084 23.5755 139.432 23.6371 139.781 23.6246C140.124 23.6341 140.466 23.5712 140.783 23.4399C141.101 23.3083 141.387 23.1115 141.623 22.8617C142.093 22.3497 142.354 21.6794 142.354 20.9839C142.354 20.288 142.093 19.6181 141.623 19.1057C141.387 18.856 141.101 18.6591 140.783 18.5277C140.466 18.3963 140.124 18.3333 139.781 18.3431ZM155.239 8.28843C155.797 8.57116 156.303 8.94897 156.732 9.40462L156.726 7.93907H160.857V23.3124H156.726V21.824C156.293 22.278 155.789 22.6572 155.233 22.9466C154.317 23.4136 153.302 23.6485 152.275 23.6307C150.939 23.6488 149.626 23.2844 148.491 22.5805C147.369 21.8823 146.458 20.893 145.853 19.7177C145.226 18.4462 144.899 17.0471 144.899 15.6289C144.899 14.2106 145.226 12.8115 145.853 11.5399C146.457 10.3643 147.369 9.37482 148.491 8.67695C149.627 7.96987 150.943 7.60344 152.281 7.62069C153.306 7.60244 154.321 7.83144 155.239 8.28843ZM153.043 19.7756C154.208 19.7743 155.151 19.3869 155.873 18.6137H155.866C156.588 17.8394 156.951 16.8367 156.955 15.6061C156.969 14.8605 156.8 14.1228 156.461 13.4583C156.151 12.8525 155.677 12.3456 155.094 11.9947C154.471 11.635 153.762 11.4534 153.043 11.4698C152.335 11.4557 151.637 11.6375 151.025 11.9947C150.442 12.3456 149.968 12.8525 149.658 13.4583C149.321 14.123 149.152 14.8607 149.166 15.6061C149.15 16.3623 149.318 17.111 149.658 17.787C149.969 18.3924 150.443 18.8991 151.025 19.2503C151.637 19.6077 152.335 19.7894 153.043 19.7756ZM168.744 7.9369H164.548V23.3063H168.744V7.9369ZM167.57 5.2965C167.278 5.41441 166.962 5.46898 166.646 5.45643C166.333 5.4658 166.022 5.40972 165.732 5.29194C165.442 5.17411 165.181 4.99709 164.963 4.77216C164.534 4.31266 164.295 3.70712 164.295 3.07812C164.295 2.44909 164.534 1.84356 164.963 1.3841C165.412 0.935333 166.021 0.683268 166.655 0.683268C167.291 0.683268 167.899 0.935333 168.349 1.3841C168.769 1.84824 169 2.45199 169 3.07812C169 3.70423 168.769 4.30801 168.349 4.77216C168.13 4.99989 167.863 5.17855 167.57 5.2965Z" fill="black"/>
</svg>
