<svg width="200" height="42" viewBox="0 0 200 42" fill="none" xmlns="http://www.w3.org/2000/svg">
<path d="M43.75 42C55.8312 42 65.6249 32.598 65.6249 21C65.6249 9.40202 55.8312 0 43.75 0C31.6688 0 21.875 9.40202 21.875 21C21.875 32.598 31.6688 42 43.75 42Z" fill="#FFDE2D"/>
<path d="M21.875 42C33.9562 42 43.7499 32.598 43.7499 21C43.7499 9.40202 33.9562 0 21.875 0C9.79375 0 0 9.40202 0 21C0 32.598 9.79375 42 21.875 42Z" fill="#327EFF"/>
<path d="M0 21C0 9.40208 9.79373 0 21.875 0V21H0Z" fill="#327EFF"/>
<path d="M43.75 21C43.75 32.5979 33.9562 42 21.875 42V21H43.75Z" fill="#FF6446"/>
<path d="M21.875 21C21.875 9.40208 31.6689 0 43.75 0V21H21.875Z" fill="#FF6446"/>
<path d="M91.4836 33.094C89.6704 33.094 88.1106 32.7099 86.8045 31.9416C85.506 31.1656 84.5072 30.0899 83.808 28.7146C83.1166 27.3392 82.7708 25.7565 82.7708 23.9664C82.7708 22.1531 83.1203 20.5627 83.8195 19.1951C84.5264 17.8197 85.5291 16.7479 86.8275 15.9797C88.1261 15.2036 89.6704 14.8156 91.4605 14.8156C93.005 14.8156 94.3571 15.096 95.5173 15.6569C96.6775 16.2177 97.5956 17.0053 98.2717 18.0195C98.9479 19.0337 99.3205 20.2247 99.3897 21.5923H94.7567C94.6261 20.7086 94.2803 19.998 93.7195 19.4602C93.1662 18.9146 92.4401 18.6418 91.5413 18.6418C90.7805 18.6418 90.116 18.8493 89.5474 19.2641C88.9866 19.6714 88.5486 20.2669 88.2336 21.0506C87.9186 21.8343 87.761 22.7831 87.761 23.8972C87.761 25.0267 87.9147 25.9871 88.2221 26.7784C88.5371 27.5698 88.9788 28.1729 89.5474 28.5878C90.116 29.0027 90.7805 29.2102 91.5413 29.2102C92.1021 29.2102 92.6054 29.0949 93.051 28.8645C93.5044 28.6339 93.8769 28.2998 94.1689 27.8618C94.4685 27.4161 94.6645 26.8822 94.7567 26.2598H99.3897C99.3129 27.6121 98.944 28.8029 98.2833 29.8325C97.6302 30.8544 96.7274 31.6534 95.5749 32.2297C94.4224 32.8059 93.0587 33.094 91.4836 33.094ZM107.443 22.5142V32.7483H102.533V9.14536H107.304V18.1693H107.512C107.911 17.1244 108.557 16.3062 109.448 15.7146C110.339 15.1152 111.457 14.8156 112.802 14.8156C114.031 14.8156 115.102 15.0845 116.018 15.6223C116.939 16.1525 117.653 16.9169 118.161 17.9157C118.676 18.9069 118.929 20.0939 118.922 21.477V32.7483H114.012V22.3529C114.02 21.2619 113.743 20.4129 113.182 19.8059C112.629 19.1988 111.853 18.8953 110.854 18.8953C110.186 18.8953 109.594 19.0375 109.079 19.3218C108.572 19.6061 108.173 20.021 107.881 20.5665C107.596 21.1043 107.45 21.7536 107.443 22.5142ZM122.785 32.7483V15.046H127.545V18.1347H127.73C128.052 17.0361 128.594 16.2062 129.355 15.6454C130.116 15.0768 130.991 14.7925 131.982 14.7925C132.228 14.7925 132.493 14.8079 132.777 14.8386C133.061 14.8693 133.312 14.9117 133.526 14.9654V19.3218C133.296 19.2527 132.977 19.1912 132.569 19.1374C132.163 19.0837 131.79 19.0567 131.451 19.0567C130.73 19.0567 130.085 19.2143 129.516 19.5292C128.955 19.8366 128.51 20.2669 128.179 20.82C127.856 21.3733 127.695 22.0109 127.695 22.7332V32.7483H122.785ZM143.239 33.094C141.449 33.094 139.901 32.7138 138.594 31.953C137.296 31.1848 136.294 30.1168 135.586 28.7492C134.88 27.3739 134.527 25.7796 134.527 23.9664C134.527 22.1378 134.88 20.5396 135.586 19.172C136.294 17.7967 137.296 16.7287 138.594 15.9681C139.901 15.1997 141.449 14.8156 143.239 14.8156C145.029 14.8156 146.574 15.1997 147.872 15.9681C149.178 16.7287 150.185 17.7967 150.891 19.172C151.599 20.5396 151.952 22.1378 151.952 23.9664C151.952 25.7796 151.599 27.3739 150.891 28.7492C150.185 30.1168 149.178 31.1848 147.872 31.953C146.574 32.7138 145.029 33.094 143.239 33.094ZM143.262 29.2909C144.076 29.2909 144.756 29.0603 145.302 28.5994C145.847 28.1307 146.258 27.4929 146.535 26.6863C146.819 25.8795 146.962 24.9613 146.962 23.9318C146.962 22.9023 146.819 21.9841 146.535 21.1774C146.258 20.3706 145.847 19.7329 145.302 19.2641C144.756 18.7955 144.076 18.5612 143.262 18.5612C142.44 18.5612 141.749 18.7955 141.188 19.2641C140.635 19.7329 140.215 20.3706 139.931 21.1774C139.655 21.9841 139.517 22.9023 139.517 23.9318C139.517 24.9613 139.655 25.8795 139.931 26.6863C140.215 27.4929 140.635 28.1307 141.188 28.5994C141.749 29.0603 142.44 29.2909 143.262 29.2909ZM155.144 32.7483V15.046H159.823V18.1693H160.031C160.399 17.132 161.015 16.3138 161.875 15.7146C162.735 15.1152 163.765 14.8156 164.964 14.8156C166.177 14.8156 167.211 15.1191 168.064 15.726C168.916 16.3254 169.485 17.1398 169.769 18.1693H169.954C170.315 17.1552 170.968 16.3446 171.913 15.7376C172.865 15.1229 173.991 14.8156 175.289 14.8156C176.942 14.8156 178.283 15.3419 179.312 16.3946C180.349 17.4395 180.867 18.9223 180.867 20.8431V32.7483H175.969V21.8111C175.969 20.8278 175.708 20.0902 175.187 19.5984C174.663 19.1067 174.01 18.8608 173.226 18.8608C172.336 18.8608 171.64 19.1451 171.14 19.7137C170.642 20.2745 170.391 21.016 170.391 21.938V32.7483H165.632V21.7074C165.632 20.8392 165.382 20.1478 164.883 19.633C164.391 19.1182 163.742 18.8608 162.935 18.8608C162.389 18.8608 161.897 18.9991 161.46 19.2757C161.03 19.5447 160.687 19.9249 160.434 20.4167C160.181 20.9007 160.054 21.4693 160.054 22.1223V32.7483H155.144ZM189.794 33.0826C188.664 33.0826 187.658 32.8866 186.774 32.4948C185.891 32.0952 185.192 31.5075 184.676 30.7315C184.17 29.9478 183.915 28.9719 183.915 27.8041C183.915 26.8206 184.097 25.9947 184.458 25.3263C184.819 24.6579 185.311 24.1201 185.933 23.7128C186.556 23.3056 187.262 22.9983 188.054 22.7909C188.852 22.5834 189.69 22.4374 190.566 22.3529C191.595 22.2453 192.425 22.1454 193.056 22.0533C193.685 21.9533 194.142 21.8074 194.427 21.6153C194.711 21.4233 194.854 21.139 194.854 20.7625V20.6933C194.854 19.9633 194.623 19.3986 194.162 18.9991C193.709 18.5996 193.064 18.3998 192.225 18.3998C191.342 18.3998 190.639 18.5957 190.117 18.9876C189.594 19.3718 189.248 19.8558 189.08 20.4398L184.539 20.071C184.768 18.9953 185.223 18.0656 185.898 17.2819C186.574 16.4905 187.446 15.8836 188.515 15.4609C189.59 15.0307 190.835 14.8156 192.248 14.8156C193.232 14.8156 194.174 14.9309 195.072 15.1613C195.979 15.3919 196.782 15.7491 197.481 16.2332C198.187 16.7172 198.744 17.3395 199.152 18.1002C199.56 18.8532 199.763 19.7559 199.763 20.8086V32.7483H195.107V30.2935H194.968C194.684 30.8468 194.303 31.3346 193.827 31.7572C193.351 32.172 192.779 32.4987 192.111 32.7367C191.442 32.9673 190.67 33.0826 189.794 33.0826ZM191.199 29.6942C191.923 29.6942 192.56 29.5521 193.113 29.2678C193.666 28.9758 194.101 28.5841 194.415 28.0923C194.73 27.6006 194.888 27.0435 194.888 26.4212V24.5426C194.734 24.6424 194.523 24.7347 194.254 24.8193C193.993 24.896 193.697 24.9691 193.366 25.0381C193.036 25.0997 192.705 25.1573 192.376 25.211C192.045 25.2571 191.746 25.2994 191.476 25.3379C190.9 25.4224 190.397 25.5567 189.966 25.7412C189.537 25.9255 189.202 26.1753 188.964 26.4902C188.726 26.7976 188.607 27.1818 188.607 27.6428C188.607 28.3112 188.848 28.8221 189.333 29.1756C189.825 29.5213 190.447 29.6942 191.199 29.6942Z" fill="black"/>
</svg>
