<svg width="562" height="145" viewBox="0 0 562 145" fill="none" xmlns="http://www.w3.org/2000/svg">
<mask id="mask0_1385_356" style="mask-type:luminance" maskUnits="userSpaceOnUse" x="0" y="0" width="561" height="144">
<path d="M560.01 0.374023H0V143.858H560.01V0.374023Z" fill="white"/>
</mask>
<g mask="url(#mask0_1385_356)">
<path d="M133.942 36.5359L130.834 31.103C130.591 30.6777 130.254 30.3141 129.847 30.0406C129.441 29.7672 128.978 29.5912 128.492 29.5261C128.007 29.4613 127.514 29.5092 127.05 29.6661C126.587 29.8231 126.165 30.0848 125.819 30.4312L118.721 37.5356C118.198 38.0591 117.873 38.7475 117.8 39.4839C117.727 40.2205 117.912 40.9592 118.322 41.575C120.916 45.5389 122.993 49.8181 124.502 54.3092C127.323 62.7004 128.108 71.6425 126.793 80.3973C125.478 89.1521 122.102 97.4681 116.942 104.659C111.782 111.85 104.987 117.71 97.1181 121.754C89.2491 125.798 80.5316 127.91 71.6857 127.916C62.5729 127.942 53.595 125.711 45.5525 121.423L57.5849 109.386C63.6114 111.669 70.1018 112.454 76.4985 111.674C82.8952 110.894 89.0068 108.571 94.309 104.906C99.611 101.24 103.945 96.3421 106.939 90.6309C109.932 84.9199 111.496 78.5668 111.496 72.1178C111.494 70.7394 111.418 69.3626 111.269 67.9923C110.797 63.3928 109.527 58.911 107.516 54.7482C107.291 54.2962 106.962 53.9037 106.557 53.6032C106.152 53.3028 105.681 53.1027 105.183 53.0195C104.685 52.936 104.175 52.9722 103.694 53.1243C103.213 53.2764 102.775 53.5407 102.415 53.8951L95.2108 61.1054C94.8271 61.4882 94.5476 61.9628 94.3982 62.484C94.2491 63.0054 94.2353 63.5561 94.3584 64.0844L94.9636 66.6746C96.0283 71.2058 95.7478 75.9493 94.1565 80.323C92.5654 84.697 89.7331 88.5107 86.007 91.296C82.2807 94.0816 77.8232 95.7176 73.181 96.0037C68.5391 96.2896 63.9145 95.2126 59.8753 92.9053L56.7069 91.0874C56.1008 90.7376 55.396 90.5973 54.7018 90.6885C54.0079 90.7798 53.3634 91.0975 52.8679 91.5925L23.4753 120.974C23.1547 121.294 22.9062 121.68 22.7465 122.105C22.5867 122.529 22.5194 122.983 22.549 123.435C22.5786 123.888 22.7045 124.329 22.9182 124.729C23.1319 125.129 23.4285 125.479 23.7881 125.755L28.1168 129.078C40.599 138.706 55.9267 143.905 71.6857 143.857C111.209 143.857 143.366 111.673 143.366 72.1178C143.369 59.6387 140.121 47.3746 133.942 36.5359Z" fill="url(#paint0_linear_1385_356)"/>
<path d="M115.249 15.1534C102.768 5.52589 87.4427 0.326606 71.6852 0.374349C32.1571 0.374349 1.08961e-06 32.5579 1.08961e-06 72.1187C-0.00217196 84.5974 3.24602 96.8612 9.42414 107.701L12.5319 113.133C12.7744 113.564 13.1134 113.931 13.5223 114.208C13.9313 114.485 14.3989 114.662 14.8882 114.727C15.3775 114.792 15.8751 114.742 16.3418 114.581C16.8084 114.42 17.2313 114.152 17.5769 113.8L24.6703 106.701C25.193 106.177 25.5184 105.489 25.591 104.752C25.6637 104.016 25.4792 103.277 25.0688 102.661C22.4771 98.6964 20.4004 94.4171 18.8887 89.9273C16.0682 81.5375 15.282 72.5965 16.5951 63.8425C17.9082 55.0886 21.2829 46.7729 26.4405 39.5818C31.5983 32.3904 38.3909 26.5302 46.2579 22.4847C54.1249 18.4391 62.8404 16.3242 71.6852 16.3147C80.7963 16.2896 89.7724 18.5202 97.8134 22.808L85.7659 34.8502C79.7394 32.5657 73.249 31.7794 66.8523 32.5591C60.4554 33.3391 54.3431 35.6615 49.0409 39.3272C43.739 42.9926 39.4053 47.892 36.4125 53.6038C33.4198 59.3156 31.8575 65.6691 31.8595 72.1187C31.8595 72.7801 32.0361 75.7996 32.0914 76.3196C32.5786 80.8904 33.8482 85.3432 35.845 89.4827C36.0667 89.9419 36.3944 90.3413 36.8015 90.6478C37.2087 90.954 37.6832 91.1586 38.1853 91.2441C38.6877 91.3297 39.2029 91.2935 39.6883 91.1391C40.1738 90.9847 40.6151 90.7164 40.9758 90.3563L48.1802 83.1511C48.5655 82.7651 48.8457 82.287 48.9942 81.7619C49.1424 81.237 49.1539 80.6826 49.0277 80.152L48.4325 77.5819C48.0141 75.791 47.8008 73.9578 47.7968 72.1187C47.7968 67.9338 48.895 63.8224 50.9812 60.196C53.0678 56.5696 56.0693 53.555 59.6855 51.4542C63.3017 49.3536 67.4057 48.2401 71.5871 48.2255C75.7682 48.2111 79.8799 49.2959 83.5108 51.3715L86.684 53.1892C87.2899 53.5378 87.9935 53.6773 88.6865 53.586C89.3796 53.4948 90.0233 53.178 90.5182 52.6841L119.891 23.2877C120.211 22.9666 120.46 22.5806 120.62 22.1557C120.779 21.7307 120.847 21.2765 120.817 20.8235C120.787 20.3704 120.662 19.9288 120.448 19.5284C120.234 19.1279 119.938 18.7776 119.578 18.501L115.249 15.1534Z" fill="url(#paint1_linear_1385_356)"/>
<path d="M235.996 91.9028C235.46 91.4675 234.786 91.237 234.096 91.2525C233.405 91.2683 232.743 91.5292 232.227 91.9886C227.621 95.5685 222.278 98.8807 214.469 98.8807C200.176 98.8807 188.547 86.8283 188.547 72.0088C188.547 57.1892 200.126 45.0359 214.363 45.0359C220.563 45.0359 227.222 47.6361 232.136 51.9484C232.411 52.2718 232.754 52.5303 233.14 52.7051C233.527 52.8796 233.947 52.9662 234.371 52.9582C234.735 52.9272 235.087 52.8176 235.404 52.6371C235.721 52.4569 235.995 52.2098 236.208 51.9131L240.859 47.1213C241.154 46.8323 241.386 46.4862 241.543 46.1043C241.699 45.7223 241.775 45.3123 241.767 44.8996C241.751 44.4803 241.648 44.0694 241.465 43.692C241.282 43.315 241.022 42.9798 240.703 42.7083C232.631 35.6395 224.453 32.4785 214.257 32.4785C192.492 32.4785 174.784 50.3124 174.784 72.2309C174.792 82.7086 178.953 92.7554 186.352 100.167C193.752 107.579 203.788 111.75 214.257 111.766C224.498 111.766 233.695 108.07 240.859 101.062C241.167 100.748 241.409 100.375 241.57 99.9657C241.732 99.5565 241.809 99.1186 241.798 98.6786C241.794 98.3242 241.717 97.9744 241.573 97.6505C241.429 97.3265 241.221 97.0355 240.96 96.7953L235.996 91.9028Z" fill="black"/>
<path d="M269.832 33.5488H262.769C261.977 33.5709 261.224 33.8986 260.668 34.4631C260.111 35.0276 259.794 35.7854 259.783 36.5786V107.686C259.801 108.475 260.12 109.227 260.676 109.786C261.232 110.345 261.981 110.669 262.769 110.691H269.832C270.621 110.669 271.37 110.345 271.927 109.786C272.484 109.227 272.805 108.476 272.824 107.686V36.5534C272.806 35.7639 272.486 35.0115 271.929 34.4522C271.372 33.8929 270.621 33.5695 269.832 33.5488Z" fill="black"/>
<path d="M353.159 57.5025C353.159 44.3038 342.292 33.5488 328.942 33.5488H299.919C299.122 33.5594 298.362 33.8834 297.803 34.4505C297.244 35.0175 296.931 35.782 296.931 36.5786V107.686C296.937 108.479 297.255 109.237 297.811 109.798C298.37 110.36 299.127 110.68 299.919 110.691H306.855C307.643 110.668 308.392 110.343 308.948 109.784C309.501 109.226 309.822 108.475 309.842 107.686V81.2488H324.403L338.326 109.191C338.579 109.65 338.948 110.033 339.401 110.3C339.852 110.566 340.365 110.707 340.89 110.706H349.213C349.738 110.724 350.26 110.602 350.724 110.353C351.186 110.104 351.576 109.736 351.851 109.287C352.121 108.812 352.261 108.275 352.261 107.73C352.261 107.184 352.121 106.647 351.851 106.172L337.727 79.8048C347.281 75.5381 353.159 67.0858 353.159 57.5025ZM340.141 57.7195C340.141 64.4199 334.622 70.08 328.09 70.08H310.055V45.8944H328.084C334.619 45.8944 340.141 51.3121 340.141 57.7195Z" fill="black"/>
<path d="M428.983 91.9028C428.447 91.4675 427.773 91.237 427.082 91.2525C426.391 91.2683 425.728 91.5292 425.212 91.9886C420.607 95.5685 415.266 98.8807 407.455 98.8807C393.162 98.8807 381.532 86.8284 381.532 72.0088C381.532 57.1892 393.136 45.0359 407.349 45.0359C413.545 45.0359 420.209 47.6361 425.123 51.9484C425.396 52.2721 425.74 52.5309 426.127 52.7057C426.511 52.8802 426.933 52.9665 427.357 52.9582C427.721 52.9272 428.074 52.8176 428.389 52.6371C428.708 52.4569 428.98 52.2098 429.195 51.9131L433.846 47.1213C434.138 46.832 434.37 46.4857 434.525 46.1037C434.68 45.7218 434.758 45.312 434.749 44.8996C434.732 44.4809 434.631 44.07 434.448 43.6926C434.267 43.3155 434.006 42.9804 433.688 42.7083C425.617 35.6395 417.439 32.4785 407.243 32.4785C385.474 32.4734 367.792 50.3072 367.792 72.226C367.797 82.7046 371.961 92.7519 379.361 100.164C386.762 107.576 396.797 111.747 407.269 111.761C417.505 111.761 426.7 108.065 433.872 101.057C434.178 100.742 434.419 100.368 434.583 99.958C434.743 99.5479 434.821 99.1094 434.809 98.6686C434.803 98.3151 434.726 97.9664 434.583 97.6436C434.439 97.3207 434.23 97.0306 433.972 96.7904L428.983 91.9028Z" fill="black"/>
<path d="M493.757 98.7684H465.806V36.552C465.795 35.7588 465.479 35.0009 464.92 34.4364C464.364 33.872 463.613 33.5446 462.818 33.5225H455.756C454.962 33.5331 454.202 33.8568 453.643 34.4238C453.084 34.9909 452.768 35.7554 452.771 36.552V107.685C452.777 108.477 453.092 109.236 453.652 109.797C454.211 110.358 454.965 110.679 455.756 110.69H493.736C494.528 110.68 495.285 110.36 495.844 109.799C496.403 109.237 496.721 108.478 496.727 107.685V101.773C496.721 100.983 496.406 100.227 495.853 99.6661C495.296 99.1048 494.545 98.7828 493.757 98.7684Z" fill="black"/>
<path d="M557.022 45.5699C557.816 45.5593 558.576 45.2353 559.135 44.6683C559.694 44.1012 560.006 43.3367 560.006 42.5404V36.552C560.006 35.7554 559.694 34.9909 559.135 34.4238C558.576 33.8568 557.816 33.5331 557.022 33.5225H514.345C513.548 33.5331 512.791 33.8568 512.231 34.4238C511.672 34.9909 511.357 35.7554 511.357 36.552V107.685C511.366 108.477 511.681 109.236 512.24 109.797C512.796 110.358 513.553 110.679 514.345 110.69H557.022C557.813 110.679 558.567 110.358 559.126 109.797C559.685 109.236 560.001 108.477 560.006 107.685V101.773C560.001 100.98 559.685 100.223 559.126 99.6609C558.567 99.0993 557.813 98.7788 557.022 98.7684H524.268V77.592H551.789C552.586 77.5825 553.346 77.2594 553.908 76.6921C554.467 76.125 554.782 75.3597 554.779 74.5625V68.5741C554.762 67.7846 554.441 67.0322 553.885 66.4729C553.328 65.9136 552.577 65.5902 551.789 65.5698H524.268V45.5699H557.022Z" fill="black"/>
</g>
<defs>
<linearGradient id="paint0_linear_1385_356" x1="46.405" y1="148.426" x2="147.4" y2="47.5153" gradientUnits="userSpaceOnUse">
<stop stop-color="#B090F5"/>
<stop offset="1" stop-color="#5FBFFF"/>
</linearGradient>
<linearGradient id="paint1_linear_1385_356" x1="1.08961e-06" y1="57.5568" x2="120.824" y2="57.5568" gradientUnits="userSpaceOnUse">
<stop stop-color="#68D7FA"/>
<stop offset="1" stop-color="#7EF1B3"/>
</linearGradient>
</defs>
</svg>
