<?xml version="1.0" encoding="utf-8"?>
<!-- Generator: Adobe Illustrator 23.0.6, SVG Export Plug-In . SVG Version: 6.00 Build 0)  -->
<svg version="1.1" id="Layer_1" xmlns="http://www.w3.org/2000/svg" xmlns:xlink="http://www.w3.org/1999/xlink" x="0px" y="0px"
	 viewBox="0 0 1000 350" style="enable-background:new 0 0 1000 350;" xml:space="preserve">
<g>
	<g>
		<path d="M340.3,185c0-45.4,31.3-78.7,69-78.7c14.5,0,25.5,4.8,29.8,4.8c4.4,0,4.4-5.4,8.7-5.4c3.5,0,5.4,2.9,8.5,10.4l6.4,16.4
			c3.7,9.3,5.8,12,5.8,15.7c0,3.3-2.7,5-4.8,5c-2.3,0-4.1-1.7-6.8-5c-15.1-19.3-28.4-29.6-44.8-29.6c-28,0-49.3,26.9-49.3,62.6
			c0,35.8,21.1,61.8,52.8,61.8c17.8,0,33.4-8.5,43.9-23.6c1.2-1.9,2.7-4.1,6-4.1c2.5,0,5,2.1,5,5.6c0,1.9-0.8,4.1-2.3,7
			c-7.9,14.1-29.8,30.9-58.2,30.9C373.7,258.6,340.3,232.1,340.3,185z"/>
		<path d="M481.8,251.9c0-7.9,13.1-1.9,13.1-18.6V130.1c0-12.6-14.7-5.6-14.7-13.7c0-3.3,3.5-5.8,14.5-11
			c10.6-5.2,12.6-5.8,14.5-5.8c3.3,0,4.4,2.9,4.4,7.5v126.2c0,16.8,13.3,10.8,13.3,18.6c0,1.9-1.2,4.1-4.4,4.1c-4.6,0-31.3,0-35.8,0
			C483.3,256.1,481.8,253.8,481.8,251.9z"/>
		<path d="M637.1,233.1c0,1.2-0.6,2.9-2.1,5.2c-7.5,10.8-25.9,20.1-43.9,20.1c-28.2,0-51.6-19.5-51.6-53.3c0-31.7,23.8-53.9,51-53.9
			c25.3,0,42.5,19.3,42.5,39.2c0,4.4-1.2,5.6-4.4,6.6l-66.3,19.7c5.6,16,18.9,27.6,35.6,27.6c12.4,0,22.4-5.6,29.6-12.6
			c2.5-2.1,3.7-3.1,5.4-3.1C635.2,228.5,637.1,230.6,637.1,233.1z M558.9,197.7c0,2.9,0.2,5.8,0.6,8.5l47.9-14.7
			c3.7-1,4.8-2.1,4.8-5.8c0-9.7-9.7-22.4-24.5-22.4C571.4,163.3,558.9,177.1,558.9,197.7z"/>
		<path d="M733.2,161.2c0,3.3-1.2,8.5-3.7,17.4c-1,3.5-2.7,5.8-5.6,5.8c-2.7,0-3.9-2.5-5.2-5.8c-2.7-6.4-5.4-9.5-9.7-9.5
			c-9.9,0-27.1,15.8-27.1,44.8v19.5c0,16.8,16.2,10.2,16.2,18.6c0,1.9-1.4,4.1-4.6,4.1c-5.2,0-34,0-38.3,0c-3.5,0-5-2.3-5-4.1
			c0-7.9,13.1-1.9,13.1-18.6v-50.4c0-12.6-14.7-5.6-14.7-13.7c0-3.3,3.7-5.8,14.5-11c10.6-5.2,12.8-5.8,14.5-5.8
			c3.3,0,4.4,2.9,4.4,7.5v20.9c6.8-17.6,22-29.2,36.7-29.2C727.2,151.6,733.2,156,733.2,161.2z"/>
		<path d="M742.9,251.9c0-7.9,13.1-1.9,13.1-18.6v-50.4c0-12.6-14.7-5.6-14.7-13.7c0-3.3,3.7-5.8,14.5-11
			c10.6-5.2,12.8-5.8,14.5-5.8c3.3,0,4.4,2.9,4.4,7.5v73.4c0,16.8,13.5,10.8,13.5,18.6c0,1.9-1.4,4.1-4.6,4.1c-4.6,0-31.3,0-35.6,0
			C744.4,256.1,742.9,253.8,742.9,251.9z M748.5,119.5c0-7.9,7.9-16.6,18.2-16.6c6.2,0,11.6,3.9,11.6,10.6c0,7.9-8.5,16.6-18.9,16.6
			C753.9,130.1,748.5,126.4,748.5,119.5z"/>
		<path d="M800.7,206.6c0-32.9,23.4-55.3,52-55.3c20.9,0,38.1,12.6,38.1,20.9c0,3.9-2.1,10.4-8.5,18.2c-2.1,2.3-3.5,3.5-5.4,3.5
			c-2.9,0-4.4-2.1-5-6c-2.7-14.5-7.7-26.1-23-26.1c-16.4,0-28.4,15.1-28.4,38.1c0,25.3,16.4,44.1,37.7,44.1
			c10.6,0,20.1-4.6,26.9-13.3c1.7-2.1,3.1-3.1,5-3.1c2.3,0,3.9,1.7,3.9,4.6c0,1.7-0.8,3.5-1.9,5.4c-6.2,10.8-22.6,20.7-41.4,20.7
			C823.7,258.4,800.7,239.7,800.7,206.6z"/>
	</g>
	<g>
		<path d="M290.9,175.9c0-51.1-41.4-92.6-92.5-92.6s-92.5,41.4-92.5,92.6c0,47.5,35.9,86.6,82,91.8v-51.9c0-4.2-0.5-8.3-1.6-12.3
			l0,0c-2.4-5.7-6.9-10.3-12.5-12.8l-23.2-10.3c-0.9-0.4-1.3-1.2-1.3-2.1c0-0.8,0.5-1.7,1.3-2.1l23.2-10.3c5.6-2.5,10-7.1,12.5-12.8
			l10.1-23.6c0.4-0.9,1.2-1.4,2-1.4c0.8,0,1.6,0.5,2,1.4l10.1,23.6c2.4,5.7,6.9,10.3,12.5,12.8l23.2,10.3c0.9,0.4,1.3,1.2,1.3,2.1
			c0,0.8-0.5,1.7-1.3,2.1L223,190.7c-5.6,2.5-10,7.1-12.5,12.8c-1.1,4-1.6,8.1-1.6,12.3v51.9C255,262.5,290.9,223.4,290.9,175.9z"/>
	</g>
</g>
</svg>
