<svg width="612" height="90" viewBox="0 0 612 90" fill="none" xmlns="http://www.w3.org/2000/svg">
<g clip-path="url(#clip0_37_2142)">
<mask id="mask0_37_2142" style="mask-type:luminance" maskUnits="userSpaceOnUse" x="0" y="0" width="612" height="90">
<path d="M0 0H612V90H0V0Z" fill="white"/>
</mask>
<g mask="url(#mask0_37_2142)">
<path d="M158.064 39.084C157.404 39.084 156.753 39.108 156.102 39.129C155.997 39.1347 155.893 39.159 155.796 39.201C155.624 39.2596 155.469 39.3603 155.345 39.4938C155.222 39.6274 155.133 39.7897 155.088 39.966L152.298 49.713C151.095 53.904 151.542 57.774 153.564 60.615C155.418 63.243 158.502 64.785 162.246 64.965L177.381 65.883C177.831 65.907 178.221 66.123 178.458 66.48C178.582 66.6706 178.66 66.8872 178.687 67.1131C178.714 67.3389 178.688 67.5678 178.611 67.782C178.489 68.1301 178.27 68.4358 177.979 68.6624C177.688 68.8891 177.337 69.0271 176.97 69.06L161.244 69.978C152.7 70.374 143.508 77.346 140.283 85.848L139.149 88.848C139.1 88.9723 139.082 89.1066 139.095 89.2395C139.109 89.3724 139.154 89.5002 139.226 89.6122C139.299 89.7243 139.398 89.8174 139.513 89.8838C139.629 89.9502 139.76 89.9879 139.893 89.994H194.055C194.37 89.9953 194.677 89.8933 194.928 89.7036C195.179 89.514 195.362 89.2471 195.447 88.944C196.409 85.4862 196.893 81.9131 196.887 78.324C196.887 56.664 179.52 39.108 158.088 39.108" fill="#FBAD41"/>
<path d="M256.557 56.658H265.527V81.405H281.181V89.346H256.557V56.658ZM290.457 73.095V72.999C290.457 63.609 297.936 56.004 307.92 56.004C317.901 56.004 325.287 63.528 325.287 72.903V72.999C325.287 82.386 317.808 89.994 307.824 89.994C297.84 89.994 290.457 82.479 290.457 73.095ZM316.143 73.095V72.999C316.143 68.28 312.774 64.173 307.824 64.173C302.874 64.173 299.649 68.184 299.649 72.903V72.999C299.649 77.715 303.015 81.825 307.92 81.825C312.822 81.825 316.143 77.811 316.143 73.095ZM336.258 75.009V56.67H345.357V74.835C345.357 79.551 347.706 81.786 351.312 81.786C354.915 81.786 357.267 79.635 357.267 75.06V56.658H366.363V74.775C366.363 85.332 360.408 89.943 351.216 89.943C342.024 89.943 336.246 85.224 336.246 75.003M380.082 56.667H392.559C404.103 56.667 410.802 63.39 410.802 72.813V72.909C410.802 82.329 404.007 89.34 392.37 89.34H380.082V56.658V56.667ZM392.688 81.315C398.052 81.315 401.598 78.33 401.598 73.053V72.957C401.598 67.725 398.043 64.692 392.688 64.692H389.037V81.315H392.688ZM423.831 56.658H449.694V64.602H432.786V70.152H448.074V77.667H432.786V89.346H423.831V56.658ZM462.162 56.658H471.129V81.405H486.786V89.346H462.162V56.658ZM510.201 56.427H518.835L532.602 89.34H522.996L520.632 83.502H508.155L505.851 89.34H496.422L510.189 56.427H510.201ZM518.058 76.455L514.452 67.164L510.801 76.455H518.058ZM544.149 56.667H559.437C564.378 56.667 567.804 57.981 569.964 60.213C571.869 62.076 572.826 64.608 572.826 67.821V67.917C572.826 72.909 570.189 76.227 566.172 77.949L573.888 89.34H563.538L557.028 79.44H553.104V89.34H544.137V56.658L544.149 56.667ZM559.026 72.357C562.074 72.357 563.832 70.866 563.832 68.487V68.394C563.832 65.826 561.99 64.524 558.978 64.524H553.116V72.372H559.035L559.026 72.36V72.357ZM585.759 56.658H611.766V64.362H594.633V69.306H610.158V76.458H594.633V81.642H612.003V89.346H585.759V56.658ZM236.928 76.926C235.674 79.794 233.028 81.825 229.518 81.825C224.628 81.825 221.25 77.715 221.25 72.999V72.9C221.25 68.181 224.532 64.17 229.425 64.17C233.112 64.17 235.923 66.462 237.117 69.591H246.558C245.043 61.818 238.287 56.001 229.509 56.001C219.537 56.001 212.046 63.609 212.046 72.996V73.092C212.046 82.479 219.429 89.991 229.416 89.991C237.945 89.991 244.62 84.399 246.381 76.911H236.916L236.928 76.926Z" fill="black"/>
<path d="M134.424 88.734L135.426 85.209C136.632 81.018 136.185 77.148 134.166 74.307C132.306 71.679 129.225 70.137 125.478 69.957L54.4831 69.039C54.2622 69.035 54.0455 68.9788 53.8505 68.875C53.6555 68.7713 53.4878 68.6229 53.3611 68.442C53.2365 68.2517 53.1576 68.0351 53.1305 67.8093C53.1035 67.5834 53.129 67.3544 53.2051 67.14C53.328 66.7897 53.5498 66.4825 53.8437 66.2557C54.1376 66.0289 54.491 65.8921 54.8611 65.862L126.519 64.944C135.027 64.551 144.219 57.576 147.444 49.074L151.53 38.274C151.696 37.8161 151.738 37.3222 151.65 36.843C146.994 15.777 128.37 0 106.104 0C85.5781 0 68.1631 13.386 61.9141 31.995C57.7069 28.7956 52.4377 27.3214 47.1811 27.873C37.3411 28.863 29.4211 36.879 28.4431 46.827C28.1898 49.3116 28.3726 51.8213 28.9831 54.243C12.9031 54.723 0.00305176 68.037 0.00305176 84.399C0.00305176 85.878 0.108052 87.336 0.321052 88.758C0.363443 89.0915 0.526135 89.3981 0.778576 89.6202C1.03102 89.8422 1.35584 89.9645 1.69205 89.964H132.804C133.173 89.9579 133.531 89.8325 133.823 89.6064C134.115 89.3804 134.326 89.0659 134.424 88.71" fill="#F6821F"/>
</g>
</g>
<defs>
<clipPath id="clip0_37_2142">
<rect width="612" height="90" fill="white"/>
</clipPath>
</defs>
</svg>
