<svg width="289" height="56" viewBox="0 0 289 56" fill="none" xmlns="http://www.w3.org/2000/svg">
<mask id="mask0_972_804" style="mask-type:luminance" maskUnits="userSpaceOnUse" x="5" y="5" width="279" height="45">
<path d="M5.58203 5.53003H283.168V49.783H5.58203V5.53003Z" fill="white"/>
</mask>
<g mask="url(#mask0_972_804)">
<path d="M71.5194 24.89C72.5843 24.9112 73.639 24.6778 74.5964 24.2089C75.5538 23.74 76.3864 23.0492 77.0257 22.1934L79.9854 25.2357C77.6452 27.8633 74.9609 29.177 71.7947 29.177C70.366 29.2318 68.9409 28.9967 67.6046 28.4859C66.2683 27.975 65.0482 27.1989 64.0171 26.2038C63.0131 25.2321 62.2244 24.0586 61.7025 22.7599C61.1806 21.4607 60.9374 20.0663 60.9887 18.667C60.9494 17.2524 61.2047 15.8452 61.738 14.5356C62.2714 13.2258 63.0711 12.0424 64.0859 11.0611C65.1775 10.0264 66.4664 9.22471 67.8749 8.70429C69.2834 8.18387 70.7822 7.95554 72.281 8.03308C73.7797 8.11063 75.2473 8.49243 76.5951 9.15546C77.9429 9.81849 79.143 10.749 80.123 11.8908L77.301 15.1406C76.6793 14.2997 75.8695 13.6175 74.9369 13.149C74.0043 12.6806 72.9751 12.4391 71.9324 12.444C70.3071 12.4125 68.7313 13.0062 67.5274 14.1034C66.9026 14.68 66.4121 15.3879 66.0909 16.1767C65.7696 16.9659 65.6256 17.8161 65.669 18.667C65.6254 19.5162 65.7557 20.3654 66.0517 21.1624C66.3476 21.9592 66.803 22.6866 67.3897 23.2997C68.5222 24.3262 69.9941 24.893 71.5194 24.89ZM83.5642 28.9003V8.36426H88.1069V24.8207H96.8482V28.9003H83.5642ZM116.809 26.0655C114.74 28.0199 112.008 29.1081 109.169 29.1081C106.329 29.1081 103.597 28.0199 101.529 26.0655C100.52 25.0938 99.7239 23.922 99.1907 22.6244C98.6574 21.3269 98.3988 19.9321 98.4314 18.5287C98.3924 17.1244 98.6481 15.7276 99.1817 14.4292C99.7153 13.1307 100.515 11.9596 101.529 10.9919C103.597 9.03743 106.329 7.94922 109.169 7.94922C112.008 7.94922 114.74 9.03743 116.809 10.9919C117.817 11.9635 118.613 13.1354 119.147 14.4329C119.68 15.7304 119.938 17.1253 119.906 18.5287C119.945 19.9329 119.689 21.3297 119.156 22.6282C118.622 23.9266 117.822 25.0978 116.809 26.0655ZM115.225 18.5287C115.238 16.7912 114.599 15.1126 113.436 13.8268C112.888 13.2176 112.219 12.7305 111.472 12.3972C110.725 12.0639 109.917 11.8916 109.1 11.8916C108.282 11.8916 107.474 12.0639 106.727 12.3972C105.98 12.7305 105.311 13.2176 104.764 13.8268C103.587 15.1044 102.946 16.7884 102.974 18.5287C102.961 20.2662 103.6 21.9448 104.764 23.2305C105.311 23.8398 105.98 24.3268 106.727 24.6602C107.474 24.9935 108.282 25.1657 109.1 25.1657C109.917 25.1657 110.725 24.9935 111.472 24.6602C112.219 24.3268 112.888 23.8398 113.436 23.2305C114.032 22.6068 114.498 21.8694 114.805 21.0617C115.112 20.2541 115.255 19.3928 115.225 18.5287ZM129.198 23.6452C129.561 24.1181 130.032 24.4967 130.571 24.7493C131.11 25.002 131.701 25.1213 132.295 25.0973C132.881 25.1285 133.464 25.0119 133.993 24.7583C134.522 24.5047 134.98 24.122 135.324 23.6452C136.114 22.5158 136.502 21.1515 136.425 19.7731V8.43335H140.967V19.9114C140.967 22.8846 140.142 25.1664 138.49 26.7567C137.658 27.5579 136.676 28.1845 135.6 28.6C134.525 29.0156 133.378 29.2117 132.226 29.1768C131.064 29.2117 129.907 29.0158 128.82 28.6006C127.733 28.1848 126.738 27.5581 125.894 26.7567C124.242 25.1664 123.416 22.8846 123.416 19.9114V8.43335H127.959V19.7731C127.957 21.1624 128.391 22.517 129.198 23.6452ZM161.341 11.0609C163.268 12.8587 164.3 15.3479 164.3 18.5285C164.3 21.7092 163.337 24.2676 161.478 26.1345C159.62 28.0014 156.66 28.9003 152.806 28.9003H145.717V8.36426H152.944C156.592 8.36426 159.414 9.26314 161.341 11.0609ZM158.037 23.2995C159.138 22.2624 159.689 20.672 159.689 18.6668C159.689 16.6616 159.138 15.0713 158.037 14.0341C156.936 12.997 155.215 12.3747 152.875 12.3747H150.328V24.8899H153.219C154.966 24.9834 156.685 24.416 158.037 23.2995ZM190.249 8.36426H194.791V28.9003H190.249L180.475 16.0393V28.9003H175.932V8.36426H180.2L190.249 21.5709V8.36426ZM214.407 28.9003L212.48 24.475H203.877L201.949 28.9003H197.063L205.873 8.36426H210.278L219.088 28.9003H214.407ZM208.282 14.5182L205.735 20.4646H210.828L208.282 14.5182ZM228.861 12.3746V28.9694H224.319V12.3746H218.537V8.43335H234.712V12.3746H228.861ZM237.947 8.36426H242.49V28.9003H237.947V8.36426ZM255.085 21.4326L260.316 8.36426H265.272L257.081 28.9003H253.227L245.036 8.36426H249.992L255.085 21.4326ZM282.41 8.36426V12.4438H272.224V16.6616H281.378V20.6029H272.224V24.8899H282.755V28.9694H267.681V8.4334H282.41V8.36426ZM66.2884 46.3939C66.888 46.4053 67.4816 46.2733 68.0198 46.0089C68.5583 45.7444 69.0265 45.3549 69.3857 44.8727L71.0376 46.6013C70.4768 47.2865 69.7732 47.8398 68.9764 48.2221C68.18 48.6043 67.3093 48.8064 66.426 48.8139C65.6287 48.8482 64.8329 48.7187 64.0876 48.4334C63.342 48.148 62.6622 47.7128 62.0898 47.1544C61.5236 46.6127 61.0777 45.9569 60.7812 45.2301C60.4846 44.503 60.3442 43.7216 60.3691 42.9366C60.3439 42.1414 60.484 41.3496 60.7803 40.6111C61.0765 39.8731 61.5225 39.2051 62.0898 38.6497C62.6467 38.0851 63.3124 37.6406 64.0461 37.3433C64.7795 37.0462 65.5661 36.9025 66.3572 36.921C67.2571 36.907 68.1489 37.0917 68.9692 37.462C69.7899 37.8324 70.5195 38.3794 71.1064 39.0645L69.5233 40.8622C69.1781 40.3821 68.7224 39.993 68.195 39.7281C67.668 39.4633 67.0846 39.3305 66.4949 39.3411C65.5763 39.335 64.6901 39.6813 64.017 40.3092C63.6675 40.6331 63.3939 41.0302 63.2156 41.4721C63.037 41.9147 62.9582 42.3911 62.9846 42.8675C62.9635 43.3373 63.0381 43.8065 63.2038 44.2464C63.3695 44.6863 63.6228 45.0877 63.9482 45.4258C64.2454 45.7476 64.6085 46.0008 65.0125 46.1679C65.4166 46.3351 65.8518 46.4121 66.2884 46.3939ZM82.3945 47.0856C81.2513 48.1995 79.7197 48.8199 78.1271 48.8142C77.3351 48.8395 76.5466 48.6988 75.8123 48.4012C75.0776 48.1036 74.4126 47.6556 73.8597 47.0856C72.7568 45.9614 72.1385 44.4463 72.1385 42.8678C72.1385 41.2893 72.7568 39.7742 73.8597 38.6499C75.0029 37.536 76.5345 36.9156 78.1271 36.9213C78.919 36.8961 79.7075 37.0368 80.4419 37.3344C81.1766 37.632 81.8416 38.08 82.3945 38.6499C83.4974 39.7742 84.1158 41.2893 84.1158 42.8678C84.1158 44.4463 83.4974 45.9614 82.3945 47.0856ZM81.5685 42.8678C81.5876 41.9014 81.2435 40.9633 80.6049 40.2403C80.3017 39.8988 79.9309 39.6241 79.5159 39.4334C79.1015 39.243 78.6519 39.141 78.1959 39.1339C77.7363 39.1183 77.2795 39.2101 76.8617 39.4021C76.4436 39.5941 76.0757 39.881 75.7869 40.2403C75.4572 40.5896 75.2018 41.0027 75.0361 41.4544C74.8705 41.9062 74.7981 42.387 74.8233 42.8678C74.8167 43.832 75.1592 44.7658 75.7869 45.4953C76.0905 45.837 76.4613 46.1117 76.876 46.3022C77.2906 46.4926 77.7401 46.5946 78.1959 46.6017C78.6553 46.6174 79.1121 46.5255 79.5302 46.3335C79.9482 46.1415 80.3162 45.8546 80.6049 45.4953C81.2435 44.7723 81.5876 43.8342 81.5685 42.8678ZM96.5731 41.4154L93.4758 47.7076H91.9616L88.8643 41.4154V48.6756H86.3177V37.1284H89.7591L92.7187 43.4207L95.6783 37.1284H99.1198V48.6756H96.5731V41.4154ZM109.857 38.2347C110.292 38.6344 110.63 39.1291 110.845 39.6805C111.059 40.2319 111.145 40.8253 111.096 41.4154C111.096 42.8674 110.683 43.9046 109.857 44.5269C109.031 45.2183 107.792 45.4949 106.072 45.4949H104.557V48.6756H102.011V37.1284H106.072C107.792 37.1975 109.031 37.5432 109.857 38.2347ZM107.999 42.7291C108.332 42.2943 108.502 41.7561 108.481 41.208C108.51 40.9429 108.469 40.6745 108.36 40.4312C108.251 40.1878 108.078 39.9786 107.861 39.8251C107.294 39.5108 106.649 39.3667 106.003 39.4102H104.557V43.2823H106.278C106.587 43.3096 106.898 43.2748 107.194 43.1798C107.489 43.0848 107.763 42.9316 107.999 42.7291ZM116.12 45.7027C116.327 45.9621 116.589 46.1715 116.886 46.3155C117.184 46.4594 117.511 46.5341 117.841 46.5341C118.172 46.5341 118.498 46.4594 118.796 46.3155C119.094 46.1715 119.356 45.9621 119.562 45.7027C120.01 45.056 120.228 44.2765 120.181 43.49V37.1287H122.728V43.5592C122.767 44.2642 122.666 44.9701 122.429 45.6351C122.193 46.3001 121.826 46.9109 121.351 47.4314C120.378 48.2893 119.123 48.7566 117.828 48.7439C116.533 48.7311 115.288 48.2391 114.331 47.3621C113.856 46.8417 113.489 46.231 113.253 45.5659C113.016 44.9009 112.915 44.1951 112.954 43.49V37.0595H115.501V43.4209C115.434 44.231 115.653 45.0389 116.12 45.7027ZM130.23 39.4103V48.6758H127.684V39.4103H124.449V37.1977H133.534V39.4103H130.23ZM135.393 37.1977H137.939V48.7449H135.393V37.1977ZM148.745 37.1977H151.292V48.7449H148.745L143.308 41.5538V48.7449H140.761V37.1977H143.17L148.814 44.5962V37.1977H148.745ZM161.616 42.8677H164.163V46.9473C163.556 47.5913 162.817 48.0975 161.997 48.4319C161.178 48.7659 160.297 48.9198 159.414 48.8834C157.83 48.9143 156.297 48.3183 155.146 47.2239C154.58 46.6816 154.134 46.0259 153.838 45.2995C153.541 44.5726 153.401 43.7912 153.426 43.0061C153.411 42.2179 153.553 41.4346 153.845 40.7026C154.136 39.9706 154.571 39.3046 155.122 38.7439C155.674 38.1833 156.332 37.7393 157.057 37.4381C157.782 37.137 158.56 36.9847 159.345 36.9904C160.929 36.9594 162.462 37.5555 163.612 38.6498L162.304 40.5859C161.908 40.1655 161.41 39.8557 160.859 39.687C160.418 39.5224 159.954 39.429 159.483 39.4104C158.564 39.4044 157.678 39.7506 157.005 40.3785C156.658 40.7187 156.387 41.1288 156.209 41.5816C156.031 42.0343 155.951 42.5198 155.972 43.0061C155.941 43.9746 156.286 44.9172 156.936 45.6335C157.229 45.9416 157.582 46.1864 157.972 46.3528C158.363 46.5193 158.783 46.6039 159.207 46.6015C159.972 46.6456 160.733 46.4782 161.41 46.1175V42.8677H161.616ZM178.617 37.1977V39.4795H173.317V41.9688H178.341V44.2505H173.317V48.7449H170.77V37.1977H178.617ZM190.455 47.0856C189.312 48.1995 187.78 48.8199 186.188 48.8142C185.396 48.8395 184.608 48.6988 183.873 48.4012C183.138 48.1036 182.473 47.6556 181.92 47.0856C180.817 45.9614 180.199 44.4463 180.199 42.8678C180.199 41.2893 180.817 39.7742 181.92 38.6499C183.064 37.536 184.595 36.9156 186.188 36.9213C186.98 36.896 187.768 37.0368 188.503 37.3344C189.237 37.632 189.902 38.08 190.455 38.6499C191.558 39.7742 192.176 41.2893 192.176 42.8678C192.176 44.4463 191.558 45.9614 190.455 47.0856ZM189.56 42.8678C189.579 41.9014 189.235 40.9633 188.597 40.2403C188.293 39.8985 187.922 39.6238 187.508 39.4334C187.093 39.2429 186.644 39.141 186.188 39.1339C185.728 39.1182 185.272 39.2101 184.854 39.4021C184.435 39.5941 184.068 39.881 183.779 40.2403C183.449 40.5896 183.194 41.0027 183.028 41.4544C182.862 41.9062 182.79 42.387 182.815 42.8678C182.809 43.832 183.151 44.7658 183.779 45.4953C184.082 45.837 184.453 46.1117 184.868 46.3022C185.282 46.4926 185.732 46.5946 186.188 46.6017C186.647 46.6174 187.104 46.5255 187.522 46.3335C187.94 46.1415 188.308 45.8546 188.597 45.4953C188.926 45.1459 189.182 44.7328 189.348 44.2811C189.513 43.8294 189.586 43.3485 189.56 42.8678ZM197.407 45.7027C197.613 45.9621 197.875 46.1715 198.173 46.3155C198.471 46.4594 198.797 46.5341 199.127 46.5341C199.458 46.5341 199.784 46.4594 200.082 46.3155C200.38 46.1715 200.642 45.9621 200.848 45.7027C201.296 45.056 201.515 44.2765 201.468 43.49V37.1287H204.014V43.5592C204.054 44.2642 203.952 44.9701 203.716 45.6351C203.479 46.3001 203.113 46.9109 202.638 47.4314C201.664 48.2893 200.41 48.7566 199.114 48.7439C197.819 48.7311 196.574 48.2391 195.617 47.3621C195.142 46.8417 194.776 46.231 194.539 45.5659C194.303 44.9009 194.201 44.1951 194.241 43.49V37.0595H196.787V43.4209C196.687 44.2337 196.909 45.0536 197.407 45.7027ZM214.683 37.1977H217.23V48.7449H214.683L209.246 41.5538V48.7449H206.699V37.1977H209.108L214.752 44.5962V37.1977H214.683ZM228.793 38.7189C229.352 39.2625 229.789 39.9203 230.074 40.6479C230.359 41.3755 230.486 42.1559 230.445 42.9367C230.481 43.7111 230.36 44.4847 230.087 45.2101C229.815 45.9354 229.398 46.5972 228.862 47.1546C227.829 48.1918 226.177 48.7449 223.975 48.7449H220.052V37.1977H224.113C226.177 37.1977 227.76 37.6817 228.793 38.7189ZM226.935 45.5644C227.26 45.2262 227.513 44.8248 227.679 44.3849C227.845 43.945 227.919 43.4758 227.898 43.0059C227.92 42.5255 227.846 42.0456 227.68 41.5944C227.515 41.1432 227.261 40.7298 226.935 40.3784C226.536 40.0444 226.075 39.793 225.579 39.6388C225.082 39.4845 224.561 39.4304 224.044 39.4795H222.598V46.4632H224.25C225.22 46.4757 226.166 46.159 226.935 45.5644ZM240.494 48.6756L239.461 46.1864H234.643L233.611 48.6756H230.858L235.814 37.1284H238.291L243.247 48.6756H240.494ZM237.052 40.5856L235.607 43.9046H238.498L237.052 40.5856ZM248.616 39.4103V48.6758H246.069V39.4103H242.765V37.1977H251.85V39.4103H248.616ZM253.709 37.1977H256.256V48.7449H253.709V37.1977ZM268.713 47.0856C267.57 48.1995 266.039 48.8199 264.446 48.8142C263.654 48.8395 262.866 48.6988 262.131 48.4012C261.397 48.1036 260.732 47.6556 260.179 47.0856C259.076 45.9614 258.457 44.4463 258.457 42.8678C258.457 41.2893 259.076 39.7742 260.179 38.6499C261.322 37.536 262.854 36.9156 264.446 36.9213C265.238 36.896 266.026 37.0368 266.761 37.3344C267.496 37.632 268.161 38.08 268.713 38.6499C269.816 39.7742 270.435 41.2893 270.435 42.8678C270.435 44.4463 269.816 45.9614 268.713 47.0856ZM267.888 42.8678C267.907 41.9014 267.562 40.9633 266.924 40.2403C266.62 39.8985 266.25 39.6238 265.835 39.4334C265.42 39.2429 264.971 39.141 264.515 39.1339C264.056 39.1182 263.599 39.2101 263.181 39.4021C262.763 39.5941 262.395 39.881 262.106 40.2403C261.776 40.5896 261.521 41.0027 261.355 41.4544C261.189 41.9062 261.117 42.387 261.142 42.8678C261.136 43.832 261.478 44.7658 262.106 45.4953C262.409 45.837 262.78 46.1117 263.195 46.3022C263.61 46.4926 264.059 46.5946 264.515 46.6017C264.974 46.6174 265.431 46.5255 265.849 46.3335C266.267 46.1415 266.635 45.8546 266.924 45.4953C267.562 44.7723 267.907 43.8342 267.888 42.8678ZM280.621 37.1977H283.167V48.7449H280.621L275.183 41.5538V48.7449H272.637V37.1977H275.046L280.69 44.5962L280.621 37.1977Z" fill="black"/>
<path d="M11.8454 35.0058H5.58204V49.7821H20.2426V43.4277H11.8454V35.0058ZM43.3691 35.075V43.4277H34.972V49.7821H49.6325V35.0058H43.3002L43.3691 35.075ZM5.58203 20.3055H11.9143L11.8454 20.2364V11.8837H20.2426V5.5293H5.58203V20.3055ZM34.972 5.5293V11.8837H43.3691V20.3055H49.6325V5.5293H34.972Z" fill="#0086FF"/>
<path d="M34.1459 20.3055L25.7488 11.8837H34.9718V5.5293H20.2425V11.8837L28.6396 20.3055H34.1459ZM26.5747 35.0058H21.0684L28.0201 41.9825L29.3967 43.4277H20.2425V49.7821H34.9718V43.3585L30.7733 39.2098L26.5747 35.0058ZM43.3691 20.3056V29.4881L41.9237 28.036L34.972 21.0593V26.6531L39.1017 30.8018L43.3002 35.0128H49.6325V20.3056H43.3691ZM20.2426 28.6583L11.9143 20.3056H5.58203V35.0058H11.8454V25.8234L20.2426 34.2522V28.6583Z" fill="#93EAFF"/>
</g>
</svg>
