<svg width="354" height="72" viewBox="0 0 354 72" fill="none" xmlns="http://www.w3.org/2000/svg">
<g clip-path="url(#clip0_407_134)">
<path fill-rule="evenodd" clip-rule="evenodd" d="M70.7908 1.26196L36.0269 36L70.7908 70.7381C71.5715 69.9579 72.0537 68.8796 72.0537 67.6864V4.32506C72.0537 3.13194 71.5715 2.05355 70.7908 1.27344V1.26196Z" fill="#60D5C4"/>
<path fill-rule="evenodd" clip-rule="evenodd" d="M70.7908 1.26195L36.0268 36L1.26288 1.26195C2.04358 0.481836 3.13425 0 4.32826 0H67.7369C68.9309 0 70.0101 0.481836 70.7908 1.26195Z" fill="#71E9D8"/>
<path fill-rule="evenodd" clip-rule="evenodd" d="M1.26289 1.26196L36.0269 36L1.26289 70.7381C0.482195 69.9579 0 68.8796 0 67.6864V4.32506C0 3.13194 0.482195 2.05355 1.26289 1.27344V1.26196Z" fill="#60D5C4"/>
<path fill-rule="evenodd" clip-rule="evenodd" d="M70.7908 70.7381L36.0268 36L1.26288 70.7381C2.04358 71.5182 3.12277 72 4.31678 72H67.7254C68.9194 72 69.9986 71.5182 70.7793 70.7381H70.7908Z" fill="#71E9D8"/>
<path d="M62.6968 9.00574H9.36836C9.1718 9.00574 9.01245 9.16496 9.01245 9.36138V62.6501C9.01245 62.8465 9.1718 63.0057 9.36836 63.0057H62.6968C62.8934 63.0057 63.0527 62.8465 63.0527 62.6501V9.36138C63.0527 9.16496 62.8934 9.00574 62.6968 9.00574Z" fill="#09B6A2"/>
<path d="M21.7562 52.2218C18.2315 52.2218 16.475 50.4666 16.475 46.9446V39.3958C16.475 38.0765 15.832 37.4226 14.5347 37.4226C14.064 37.4226 13.6622 37.2735 13.3407 36.9637C13.0422 36.6654 12.8815 36.2754 12.8815 35.7935C12.8815 35.3117 13.0307 34.8987 13.3407 34.6004C13.6622 34.3021 14.064 34.1415 14.5347 34.1415C15.832 34.1415 16.475 33.4876 16.475 32.1683V24.6195C16.475 21.0975 18.2315 19.3423 21.7562 19.3423C22.2269 19.3423 22.6172 19.5029 22.9272 19.8241C23.2257 20.1453 23.3864 20.5469 23.3864 21.0172C23.3864 21.4876 23.2372 21.8777 22.9272 22.1874C22.6287 22.4857 22.2383 22.6463 21.7562 22.6463C20.4359 22.6463 19.7814 23.3002 19.7814 24.6195V32.1683C19.7814 32.9255 19.6896 33.6023 19.5174 34.2104C19.3452 34.8184 19.0811 35.3461 18.7367 35.7935C19.4255 36.6769 19.77 37.8815 19.77 39.3844V46.9331C19.77 48.2524 20.4244 48.9063 21.7447 48.9063C22.2154 48.9063 22.6057 49.0555 22.9157 49.3652C23.2142 49.6635 23.375 50.065 23.375 50.5583C23.375 51.0517 23.2257 51.4188 22.9157 51.7285C22.6172 52.0497 22.2269 52.2104 21.7447 52.2104L21.7562 52.2218ZM28.2313 45.1549C27.6229 45.1549 27.0947 44.9369 26.647 44.5125C26.2107 44.0536 26.0041 43.5258 26.0041 42.9293C26.0041 42.3327 26.2222 41.7706 26.647 41.3461C27.1062 40.8872 27.6343 40.6692 28.2313 40.6692C28.8283 40.6692 29.3909 40.8987 29.8157 41.3461C30.252 41.7821 30.4586 42.3098 30.4586 42.9293C30.4586 43.5488 30.2405 44.065 29.8157 44.5125C29.3794 44.9484 28.8513 45.1549 28.2313 45.1549ZM35.9579 45.1549C35.3495 45.1549 34.8213 44.9369 34.3736 44.5125C33.9373 44.0536 33.7307 43.5258 33.7307 42.9293C33.7307 42.3327 33.9488 41.7706 34.3736 41.3461C34.8328 40.8872 35.3609 40.6692 35.9579 40.6692C36.5549 40.6692 37.1175 40.8987 37.5423 41.3461C37.9786 41.7821 38.1852 42.3098 38.1852 42.9293C38.1852 43.5488 37.9671 44.065 37.5423 44.5125C37.106 44.9484 36.5779 45.1549 35.9579 45.1549ZM43.6845 45.1549C43.0761 45.1549 42.5479 44.9369 42.1002 44.5125C41.6639 44.0536 41.4573 43.5258 41.4573 42.9293C41.4573 42.3327 41.6754 41.7706 42.1002 41.3461C42.5594 40.8872 43.0875 40.6692 43.6845 40.6692C44.2815 40.6692 44.8441 40.8987 45.2689 41.3461C45.7052 41.7821 45.9118 42.3098 45.9118 42.9293C45.9118 43.5488 45.6937 44.065 45.2689 44.5125C44.8326 44.9484 44.3045 45.1549 43.6845 45.1549ZM50.1827 52.2218C49.712 52.2218 49.3216 52.0612 49.0116 51.74C48.7131 51.4417 48.5524 51.0517 48.5524 50.5698C48.5524 50.088 48.7017 49.675 49.0116 49.3767C49.3102 49.0784 49.7005 48.9178 50.1827 48.9178C51.503 48.9178 52.1574 48.2639 52.1574 46.9446V39.3958C52.1574 37.8815 52.5018 36.6884 53.1907 35.805C52.8463 35.3461 52.5822 34.8184 52.41 34.2218C52.2378 33.6138 52.1459 32.9369 52.1459 32.1798V24.631C52.1459 23.3117 51.4915 22.6578 50.1712 22.6578C49.7005 22.6578 49.3102 22.5086 49.0002 22.1989C48.7017 21.9006 48.5409 21.5105 48.5409 21.0287C48.5409 20.5469 48.6902 20.1568 49.0002 19.8356C49.2987 19.5144 49.689 19.3538 50.1712 19.3538C53.6958 19.3538 55.4524 21.109 55.4524 24.631V32.1798C55.4524 33.4991 56.0953 34.153 57.3927 34.153C57.8634 34.153 58.2537 34.3021 58.5637 34.6119C58.8852 34.9102 59.0459 35.3117 59.0459 35.805C59.0459 36.2983 58.8852 36.6654 58.5637 36.9752C58.2652 37.2735 57.8749 37.4341 57.3927 37.4341C56.0953 37.4341 55.4524 38.088 55.4524 39.4073V46.9561C55.4524 50.478 53.6958 52.2333 50.1712 52.2333L50.1827 52.2218Z" fill="white"/>
<path d="M106.68 60.9522C103.523 60.9522 100.687 60.1721 98.184 58.6234C95.7157 57.0631 93.7524 54.9522 92.2829 52.2677C90.8593 49.5947 90.1475 46.5889 90.1475 43.262C90.1475 39.935 90.8593 36.9293 92.2829 34.2562C93.7524 31.5832 95.7157 29.4608 98.184 27.9006C100.687 26.3404 103.523 25.5717 106.68 25.5717C109.837 25.5717 112.455 26.2027 114.912 27.4532C117.414 28.6578 119.32 30.3213 120.618 32.4436L116.921 36.9752C116.232 35.9771 115.348 35.0708 114.257 34.2562C113.167 33.4417 112.03 32.7878 110.824 32.3174C109.619 31.8471 108.448 31.6061 107.323 31.6061C105.245 31.6061 103.385 32.1224 101.743 33.1664C100.147 34.1645 98.8729 35.5411 97.92 37.3079C96.9671 39.0746 96.4964 41.0708 96.4964 43.2735C96.4964 45.4761 96.99 47.4608 97.9889 49.239C98.9877 50.9713 100.297 52.348 101.95 53.3805C103.592 54.413 105.405 54.9408 107.392 54.9408C108.563 54.9408 109.688 54.7457 110.767 54.3557C111.892 53.9656 112.971 53.3805 114.005 52.6004C115.038 51.8203 116.014 50.8681 116.921 49.7438L120.618 54.2754C119.24 56.2142 117.242 57.8203 114.648 59.0708C112.099 60.3213 109.435 60.9522 106.668 60.9522H106.68ZM142.225 60.9522C138.895 60.9522 135.91 60.1951 133.281 58.6807C130.686 57.1205 128.631 55.0325 127.116 52.3939C125.6 49.7209 124.843 46.6692 124.843 43.262C124.843 39.8547 125.6 36.826 127.116 34.1874C128.631 31.5144 130.686 29.4149 133.281 27.9006C135.922 26.3404 138.907 25.5717 142.225 25.5717C145.542 25.5717 148.447 26.3518 151.042 27.9006C153.682 29.4149 155.749 31.5029 157.264 34.1874C158.78 36.826 159.538 39.8432 159.538 43.262C159.538 46.6807 158.78 49.7209 157.264 52.3939C155.749 55.0325 153.671 57.1205 151.042 58.6807C148.447 60.1951 145.508 60.9522 142.225 60.9522ZM142.225 54.8604C144.257 54.8604 146.071 54.3671 147.666 53.3691C149.262 52.3365 150.525 50.9484 151.432 49.2276C152.339 47.4608 152.775 45.4647 152.729 43.262C152.775 41.0134 152.339 39.0287 151.432 37.2964C150.525 35.5297 149.274 34.1415 147.666 33.1549C146.071 32.1568 144.257 31.6635 142.225 31.6635C140.192 31.6635 138.355 32.1798 136.714 33.2237C135.118 34.2218 133.855 35.5985 132.948 37.3652C132.041 39.0975 131.605 41.0593 131.651 43.262C131.605 45.4647 132.041 47.4494 132.948 49.2276C133.855 50.9599 135.106 52.3365 136.714 53.3691C138.355 54.3671 140.192 54.8604 142.225 54.8604ZM181.018 60.9522C177.907 60.9522 175.117 60.1951 172.649 58.6807C170.226 57.1205 168.309 55.0325 166.874 52.3939C165.45 49.7209 164.738 46.6692 164.738 43.262C164.738 39.8547 165.427 36.826 166.816 34.1874C168.24 31.5144 170.169 29.4149 172.591 27.9006C175.014 26.3404 177.758 25.5717 180.823 25.5717C182.511 25.5717 184.13 25.8471 185.691 26.4092C187.287 26.9255 188.722 27.6597 189.973 28.6119C191.225 29.5182 192.201 30.5392 192.889 31.652C193.624 32.7304 193.992 33.8318 193.992 34.9561L192.051 35.0822V12.3442H198.733V60.2983H192.051V52.1989H193.349C193.349 53.2314 193.004 54.2754 192.315 55.3079C191.627 56.306 190.697 57.2352 189.526 58.0956C188.4 58.9561 187.08 59.6559 185.565 60.1721C184.095 60.6884 182.58 60.9522 181.03 60.9522H181.018ZM181.925 55.1817C183.957 55.1817 185.748 54.6654 187.31 53.6214C188.871 52.5889 190.077 51.1778 190.938 49.4111C191.845 47.5985 192.304 45.545 192.304 43.2505C192.304 40.9561 191.845 38.9255 190.938 37.1587C190.077 35.3461 188.86 33.9235 187.31 32.8796C185.748 31.8471 183.957 31.3193 181.925 31.3193C179.893 31.3193 178.102 31.8356 176.541 32.8796C174.979 33.9121 173.751 35.3461 172.844 37.1587C171.983 38.9255 171.547 40.9561 171.547 43.2505C171.547 45.545 171.983 47.587 172.844 49.4111C173.751 51.1778 174.979 52.5889 176.541 53.6214C178.102 54.654 179.893 55.1817 181.925 55.1817ZM223.807 60.9522C220.306 60.9522 217.194 60.218 214.473 58.7496C211.798 57.2352 209.674 55.1817 208.113 52.5889C206.598 49.9962 205.84 47.0134 205.84 43.652C205.84 40.979 206.276 38.5354 207.137 36.3327C207.998 34.13 209.192 32.2257 210.708 30.631C212.269 28.9905 214.106 27.74 216.218 26.8681C218.377 25.9618 220.719 25.5029 223.222 25.5029C225.426 25.5029 227.481 25.9388 229.387 26.7993C231.293 27.6253 232.935 28.761 234.312 30.2295C235.736 31.6979 236.815 33.4532 237.55 35.4838C238.331 37.4685 238.698 39.6482 238.652 42.023L238.583 44.8796H210.765L209.273 39.5679H232.808L231.832 40.6692V39.109C231.706 37.6865 231.224 36.413 230.409 35.2887C229.582 34.1645 228.549 33.2811 227.297 32.6272C226.046 31.9733 224.68 31.652 223.21 31.652C220.88 31.652 218.905 32.1109 217.309 33.0172C215.713 33.8777 214.496 35.174 213.681 36.9063C212.855 38.5928 212.453 40.6807 212.453 43.1931C212.453 45.5679 212.946 47.6444 213.945 49.4111C214.944 51.1434 216.345 52.4742 218.159 53.4264C219.973 54.3786 222.074 54.849 224.45 54.849C226.138 54.849 227.688 54.5736 229.123 54.0115C230.593 53.4494 232.165 52.4398 233.853 50.9713L237.228 55.6979C236.195 56.7304 234.921 57.6367 233.405 58.4169C231.936 59.197 230.363 59.8165 228.675 60.2983C227.033 60.7343 225.415 60.9408 223.807 60.9408V60.9522ZM247.01 60.2983V26.283H253.692V60.2983H247.01ZM250.259 18.7687C248.836 18.7687 247.733 18.4016 246.953 17.6673C246.172 16.9331 245.782 15.9006 245.782 14.5583C245.782 13.3079 246.172 12.2868 246.953 11.5182C247.779 10.7381 248.881 10.348 250.259 10.348C251.637 10.348 252.785 10.7151 253.566 11.4494C254.346 12.1836 254.737 13.2161 254.737 14.5583C254.737 15.8088 254.323 16.8299 253.508 17.5985C252.728 18.3786 251.648 18.7687 250.271 18.7687H250.259ZM275.896 60.9522C273.473 60.9522 271.361 60.3901 269.535 59.2658C267.767 58.1415 266.378 56.5698 265.391 54.5392C264.438 52.5086 263.967 50.088 263.967 47.2773V26.283H270.649V45.4647C270.649 47.4494 270.948 49.1817 271.556 50.6501C272.199 52.0727 273.118 53.174 274.277 53.9541C275.483 54.7343 276.941 55.1243 278.617 55.1243C279.868 55.1243 281.016 54.9293 282.05 54.5392C283.083 54.1033 283.978 53.5297 284.713 52.784C285.494 52.0497 286.091 51.1664 286.527 50.1224C286.963 49.0899 287.17 47.9656 287.17 46.7496V26.2715H293.852V60.2868H287.17V53.1626L288.341 52.3824C287.824 53.9771 286.94 55.4226 285.678 56.719C284.472 58.0153 283.014 59.0478 281.338 59.8279C279.65 60.5622 277.836 60.9293 275.896 60.9293V60.9522ZM303.094 60.2983V26.283H309.833V33.545L308.605 34.3251C308.949 33.2008 309.489 32.1224 310.224 31.0899C311.004 30.0574 311.934 29.1511 313.013 28.371C314.139 27.545 315.321 26.9025 316.584 26.4322C317.881 25.9618 319.202 25.7209 320.545 25.7209C322.485 25.7209 324.196 26.0421 325.665 26.696C327.135 27.3385 328.34 28.3136 329.293 29.61C330.246 30.9063 330.935 32.5239 331.371 34.4742L330.338 34.2104L330.797 33.109C331.268 32.1109 331.922 31.1817 332.737 30.3213C333.599 29.4149 334.574 28.6119 335.654 27.9235C336.733 27.2352 337.881 26.696 339.086 26.306C340.292 25.9159 341.486 25.7209 342.657 25.7209C345.206 25.7209 347.307 26.2371 348.948 27.2811C350.636 28.3136 351.888 29.8968 352.714 32.0077C353.575 34.13 354.011 36.7572 354.011 39.9121V60.3213H347.272V40.3021C347.272 38.3633 347.008 36.7801 346.492 35.5756C346.021 34.3251 345.286 33.3958 344.287 32.7878C343.288 32.1798 342.014 31.8815 340.464 31.8815C339.259 31.8815 338.111 32.0995 337.031 32.5239C335.998 32.914 335.091 33.4761 334.31 34.2104C333.53 34.9446 332.921 35.805 332.496 36.8031C332.06 37.7553 331.853 38.8107 331.853 39.9809V60.3327H325.114V40.1759C325.114 38.4092 324.85 36.9178 324.334 35.7018C323.817 34.4513 323.059 33.4991 322.06 32.8452C321.061 32.1912 319.856 31.87 318.432 31.87C317.227 31.87 316.102 32.088 315.057 32.5125C314.024 32.9025 313.117 33.4647 312.336 34.1989C311.555 34.8872 310.958 35.7362 310.522 36.7228C310.086 37.675 309.879 38.7075 309.879 39.8318V60.3098H303.14L303.094 60.2983Z" fill="#09B6A2"/>
</g>
<defs>
<clipPath id="clip0_407_134">
<rect width="354" height="72" fill="white"/>
</clipPath>
</defs>
</svg>
