<svg width="179" height="44" viewBox="0 0 179 44" fill="none" xmlns="http://www.w3.org/2000/svg">
<g clip-path="url(#clip0_2060_696)">
<path d="M22.6107 0.086792C22.6573 0.140404 22.643 0.21476 22.673 0.244673C24.9977 2.56168 27.3284 4.87264 29.6519 7.19086C30.1943 7.73207 30.183 8.35273 29.6356 8.90831C28.9149 9.63975 28.189 10.3662 27.4569 11.0863C26.9102 11.624 26.2845 11.6224 25.7369 11.081C24.8112 10.1658 23.8952 9.24094 22.9737 8.32162C22.3558 7.70524 21.7927 7.70225 21.1776 8.31715C16.9019 12.5913 12.6272 16.8663 8.35301 21.1419C7.71686 21.7782 7.71922 22.3322 8.35932 22.9724C12.6235 27.2376 16.8882 31.5022 21.1533 35.7663C21.781 36.3939 22.3625 36.3985 22.99 35.7751C23.9032 34.8679 24.8103 33.9545 25.7218 33.0456C26.2942 32.4749 26.8941 32.468 27.4622 33.031C28.1916 33.7539 28.9181 34.4796 29.6406 35.2094C30.1711 35.7453 30.2016 36.3616 29.6724 36.8953C27.4218 39.1649 25.1578 41.4214 22.8946 43.6784C22.7558 43.8168 22.5812 43.9194 22.4503 44.0627C22.243 44.0868 22.0087 44.0868 21.7597 44.0612C21.3999 43.7353 21.0353 43.4545 20.7124 43.132C14.0371 36.4643 7.36636 29.7921 0.696634 23.1189C0.534617 22.9568 0.398306 22.7692 0.241196 22.6018C0.21083 22.5694 0.139321 22.5757 0.086792 22.5641C0.0867921 22.2436 0.0867921 21.9231 0.109439 21.5908C0.339221 21.3623 0.542195 21.1414 0.754101 20.9294C6.54164 15.1404 12.3301 9.35224 18.1184 3.56396C19.1308 2.55152 20.1447 1.54048 21.1542 0.525103C21.2883 0.390209 21.4004 0.233434 21.5227 0.0867924C21.872 0.0867921 22.2212 0.0867921 22.6107 0.086792Z" fill="black"/>
<path d="M136.752 17.6356C137.27 18.2584 137.764 18.8618 138.248 19.4541C138.248 18.6195 138.248 17.7334 138.248 16.8198C139.97 16.8198 141.654 16.8198 143.384 16.8198C143.384 16.9809 143.384 17.1354 143.384 17.2899C143.384 22.4224 143.329 27.5557 143.404 32.6871C143.451 35.9479 141.632 37.8651 139.163 38.6576C136.36 39.5574 133.529 39.603 130.786 38.4095C129.046 37.6524 127.915 36.3354 127.59 34.3517C128.31 34.3101 128.998 34.2696 129.686 34.2308C130.507 34.1846 131.329 34.1317 132.151 34.1029C132.275 34.0985 132.474 34.1763 132.518 34.2716C132.928 35.1609 133.691 35.5251 134.585 35.6429C135.39 35.749 136.195 35.7248 136.966 35.3839C137.867 34.9856 138.262 34.2506 138.306 33.3284C138.356 32.2898 138.328 31.2474 138.331 30.2067C138.331 30.1733 138.296 30.1398 138.26 30.075C138.199 30.1391 138.139 30.1782 138.112 30.2333C137.436 31.6294 136.259 32.3528 134.787 32.5823C132.769 32.8969 130.89 32.5301 129.346 31.0999C128.229 30.0642 127.619 28.7335 127.369 27.2406C126.996 25.0138 127.023 22.8047 127.841 20.6698C128.852 18.0272 131.036 16.5397 133.766 16.5765C134.868 16.5913 135.865 16.9153 136.752 17.6356ZM134.793 28.8793C136.537 29.0684 137.605 28.3575 138.09 26.669C138.462 25.3723 138.457 24.0592 138.039 22.7883C137.858 22.2342 137.533 21.6567 137.111 21.2645C135.677 19.9324 133.49 20.5955 132.803 22.5417C132.304 23.9568 132.289 25.4073 132.725 26.84C133.03 27.8441 133.631 28.6066 134.793 28.8793Z" fill="black"/>
<path d="M63.1329 16.4327C62.0526 17.171 61.4346 18.2017 61.1155 19.4022C60.6004 21.3406 60.5888 23.2983 61.1922 25.2167C62.1865 28.3782 64.8957 29.0604 67.2475 28.4133C68.6461 28.0286 69.4884 27.0572 69.8542 25.6638C69.8793 25.5682 69.8974 25.4707 69.9209 25.3647C71.6699 25.3647 73.3987 25.3647 75.209 25.3647C75.1135 25.8326 75.0638 26.2754 74.9315 26.6919C73.7741 30.3382 71.2515 32.4301 67.5172 33.0512C65.4002 33.4033 63.3063 33.2145 61.3164 32.357C58.821 31.2817 57.1003 29.4297 56.2228 26.8762C55.0854 23.5666 55.0612 20.2096 56.4273 16.9703C57.9172 13.4371 60.724 11.5719 64.5141 11.1876C66.6846 10.9675 68.7834 11.2637 70.7299 12.2992C73.3866 13.7125 74.7723 15.9915 75.1525 18.9315C75.1633 19.015 75.1539 19.1012 75.1539 19.2238C74.1711 19.2238 73.2046 19.2238 72.238 19.2238C71.5583 19.2238 70.8782 19.2345 70.1991 19.213C70.0897 19.2095 69.9058 19.0757 69.8894 18.9794C69.4606 16.4619 67.3109 15.3962 64.9342 15.7811C64.3242 15.8799 63.7496 16.1974 63.1329 16.4327Z" fill="black"/>
<path d="M109.349 15.0139C109.349 20.9845 109.349 26.9118 109.349 32.8654C107.651 32.8654 105.969 32.8654 104.253 32.8654C104.253 32.0134 104.253 31.1668 104.253 30.262C104.162 30.322 104.101 30.3395 104.084 30.3772C102.659 33.4258 99.2427 33.6239 97 32.5708C95.0917 31.6746 94.0313 30.0778 93.5396 28.1076C92.8817 25.4712 92.8854 22.8295 93.99 20.2978C95.2336 17.4477 98.1234 16.0133 101.007 16.7529C102.393 17.1081 103.35 18.0057 103.988 19.2654C104.031 19.3494 104.084 19.4277 104.198 19.6176C104.198 16.8181 104.198 14.1415 104.198 11.4382C105.923 11.4382 107.608 11.4382 109.349 11.4382C109.349 12.6137 109.349 13.7921 109.349 15.0139ZM100.231 28.8875C101.783 29.4725 103.154 28.9539 103.808 27.4282C104.546 25.7067 104.538 23.9362 103.797 22.2127C103.348 21.1705 102.52 20.6057 101.347 20.6103C100.17 20.6148 99.3618 21.194 98.9227 22.2438C98.1924 23.99 98.227 25.7598 98.9408 27.5063C99.181 28.094 99.6 28.5541 100.231 28.8875Z" fill="black"/>
<path d="M165.672 32.892C164.343 32.892 163.057 32.892 161.747 32.892C161.747 27.53 161.747 22.1879 161.747 16.8187C163.368 16.8187 164.979 16.8187 166.63 16.8187C166.63 17.7861 166.63 18.7455 166.63 19.807C166.749 19.6802 166.821 19.6363 166.845 19.5741C167.683 17.4001 169.944 16.3177 172.411 16.6158C175.122 16.9433 176.967 18.8759 177.217 21.5946C177.277 22.2547 177.284 22.9213 177.285 23.5849C177.292 26.5198 177.288 29.4546 177.288 32.3895C177.288 32.545 177.288 32.7005 177.288 32.873C175.563 32.873 173.876 32.873 172.137 32.873C172.137 32.7195 172.137 32.5655 172.137 32.4115C172.137 29.52 172.139 26.6285 172.134 23.737C172.133 23.4348 172.122 23.127 172.066 22.8314C171.825 21.5657 170.942 20.8278 169.681 20.8148C168.252 20.8 167.252 21.5276 166.986 22.8189C166.899 23.239 166.88 23.6787 166.879 24.1097C166.87 27.0147 166.874 29.9198 166.874 32.892C166.48 32.892 166.098 32.892 165.672 32.892Z" fill="black"/>
<path d="M121.139 32.9733C119.465 33.2842 117.829 33.3155 116.205 32.9013C113.659 32.252 111.921 30.6844 111.103 28.192C110.39 26.0209 110.392 23.809 111.12 21.6345C112.155 18.5478 114.873 16.6441 118.254 16.5748C119.885 16.5414 121.455 16.7907 122.869 17.6474C125.121 19.0111 126.111 21.1345 126.347 23.6615C126.422 24.4596 126.359 25.2706 126.359 26.0992C122.816 26.0992 119.278 26.0992 115.745 26.0992C115.467 27.4054 116.393 28.9113 117.723 29.3217C118.502 29.5622 119.291 29.5544 120.067 29.2989C120.708 29.0876 121.204 28.694 121.529 28.0863C121.587 27.9785 121.749 27.8604 121.863 27.8592C123.35 27.844 124.836 27.8491 126.381 27.8491C125.993 29.8789 124.967 31.2912 123.269 32.1757C122.612 32.5181 121.875 32.7082 121.139 32.9733ZM116.269 21.4641C115.913 21.9344 115.72 22.4624 115.686 23.0674C117.662 23.0674 119.618 23.0674 121.664 23.0674C121.558 22.6629 121.511 22.2732 121.357 21.9324C120.47 19.9771 117.79 19.7088 116.269 21.4641Z" fill="black"/>
<path d="M153.725 33.1689C152.2 33.2691 150.739 33.1539 149.343 32.6003C147.303 31.7912 145.916 30.3298 145.228 28.2555C144.527 26.1435 144.489 23.9881 145.156 21.8635C146.181 18.5952 148.901 16.6372 152.38 16.5746C154.227 16.5414 155.977 16.875 157.497 17.9896C159.397 19.3833 160.243 21.3586 160.452 23.6361C160.525 24.4358 160.463 25.2477 160.463 26.0943C156.928 26.0943 153.381 26.0943 149.841 26.0943C149.626 27.5064 150.51 28.9274 151.846 29.3251C153.281 29.7524 155.122 29.3891 155.743 27.8421C157.3 27.8856 158.869 27.9294 160.466 27.974C160.095 29.887 159.055 31.2802 157.368 32.1939C156.246 32.8017 155.035 33.0995 153.725 33.1689ZM152.317 20.3265C150.782 20.6688 149.879 21.6465 149.802 23.0665C151.762 23.0665 153.722 23.0665 155.707 23.0665C155.712 22.3562 155.482 21.7541 155.025 21.2398C154.321 20.4464 153.408 20.235 152.317 20.3265Z" fill="black"/>
<path d="M85.6302 33.1353C84.0529 33.2732 82.5233 33.241 81.0616 32.6851C78.2964 31.6335 76.7779 29.5485 76.2984 26.6905C75.9704 24.735 76.0934 22.7943 76.9277 20.962C78.0844 18.422 80.118 17.0469 82.847 16.6677C84.2933 16.4667 85.7359 16.5312 87.1366 16.9688C89.4185 17.6819 91.0248 19.1614 91.8339 21.4092C92.7288 23.8954 92.7111 26.4083 91.6392 28.8417C90.5725 31.2632 88.6368 32.6112 86.0536 33.0653C85.9254 33.0878 85.7971 33.1089 85.6302 33.1353ZM86.609 21.9284C86.243 21.2465 85.7677 20.6855 84.9807 20.4784C83.6939 20.1399 82.4948 20.7225 81.9325 22.0536C81.1696 23.8594 81.1915 25.7081 81.8723 27.5337C82.1455 28.2665 82.6324 28.8647 83.4008 29.1535C84.7235 29.6505 86.0333 29.0959 86.6281 27.7052C87.4369 25.8146 87.4054 23.8952 86.609 21.9284Z" fill="black"/>
<path d="M37.4113 29.1668C36.6945 29.8836 36.0021 30.5816 35.3035 31.2732C34.6599 31.9103 34.0685 31.9079 33.4264 31.2699C32.7393 30.5871 32.0537 29.9028 31.3719 29.2148C30.7534 28.5909 30.7605 28.0069 31.3883 27.3785C32.8393 25.9262 34.2919 24.4755 35.7426 23.023C36.4413 22.3235 36.4431 21.791 35.7519 21.0994C34.3006 19.6474 32.8483 18.1965 31.3972 16.7443C30.7497 16.0962 30.7483 15.5231 31.3921 14.8778C32.0966 14.1715 32.8003 13.4645 33.5087 12.7622C34.0465 12.229 34.6863 12.225 35.2229 12.7607C38.016 15.5492 40.8061 18.3407 43.596 21.1324C44.2151 21.7518 44.2073 22.3679 43.5659 23.0106C41.5234 25.0572 39.4776 27.1005 37.4113 29.1668Z" fill="black"/>
<path d="M18.8244 17.606C22.2078 15.2865 26.5979 17.0018 27.4683 20.9561C28.2294 24.4133 25.2819 27.8322 21.7877 27.5452C19.3551 27.3454 17.4871 25.8807 16.8046 23.6381C16.1291 21.4184 16.8856 19.1363 18.8244 17.606Z" fill="black"/>
</g>
<defs>
<clipPath id="clip0_2060_696">
<rect width="178.864" height="44" fill="white"/>
</clipPath>
</defs>
</svg>
