<svg width="244" height="45" viewBox="0 0 244 45" fill="none" xmlns="http://www.w3.org/2000/svg">
<g clip-path="url(#clip0_900_3985)">
<path d="M51.2045 29.5187C51.2045 38.7252 57.5442 44.9619 66.3041 44.9619C68.7824 44.9619 71.3182 44.3679 73.6235 43.0612V34.8644C71.8369 36.1711 69.6468 37.1214 67.3992 37.1214C62.9615 37.1214 59.6765 33.9141 59.6765 29.5187C59.6765 25.0639 63.0191 21.9159 67.3992 21.9159C69.5893 21.9159 71.6064 22.6287 73.5658 24.0542V15.9169C71.4911 14.6695 68.8976 14.0756 66.4195 14.0756C57.4865 14.0756 51.2045 20.6686 51.2045 29.5187Z" fill="#7962FE"/>
<path d="M74.9441 29.5187C74.9441 38.25 81.5718 44.9619 90.3895 44.9619C99.2072 44.9619 105.835 38.25 105.835 29.5187C105.835 20.7874 99.2072 14.0756 90.3895 14.0756C81.5718 14.0756 74.9441 20.7874 74.9441 29.5187ZM83.2432 29.5187C83.2432 25.3015 86.4705 21.9754 90.3895 21.9754C94.3086 21.9754 97.5359 25.3015 97.5359 29.5187C97.5359 33.7358 94.3086 37.0621 90.3895 37.0621C86.4705 37.0621 83.2432 33.7358 83.2432 29.5187Z" fill="#7962FE"/>
<path d="M130.296 2.612V18.6491C128.337 15.6199 124.822 14.1349 121.075 14.1349C113.41 14.1349 107.59 20.8468 107.59 29.5187C107.59 38.25 113.41 44.9025 121.075 44.9025C124.822 44.9025 128.337 43.2393 130.296 40.2694V44.1897H138.654V2.612H130.296ZM115.946 29.5187C115.946 25.3015 119.174 21.9159 123.265 21.9159C127.357 21.9159 130.585 25.3015 130.585 29.5187C130.585 33.7358 127.357 37.1214 123.265 37.1214C119.174 37.1214 115.946 33.7358 115.946 29.5187Z" fill="#7962FE"/>
<path d="M150.969 44.1897V14.8477H142.555V44.1897H150.969Z" fill="#7962FE"/>
<path d="M173.412 30.3502C173.412 34.508 171.337 37.0027 168.11 37.0027C164.94 37.0027 163.096 34.7456 163.096 30.8848V14.8477H154.682V32.9637C154.682 40.3289 158.658 44.9619 165.112 44.9619C168.858 44.9619 171.74 43.2393 173.412 40.4477V44.1897H181.826V14.8477H173.412V30.3502Z" fill="#7962FE"/>
<path d="M194.143 28.509C194.143 24.4699 196.103 21.9754 199.1 21.9754C201.982 21.9754 203.595 24.1729 203.595 27.915V44.1897H212.009V28.3308C212.067 24.4107 214.027 21.9754 216.908 21.9754C219.848 21.9754 221.461 24.1729 221.461 27.7962V44.1897H229.875V25.7767C229.875 18.6491 226.187 14.0756 219.674 14.0756C215.525 14.0756 212.298 16.095 210.512 19.1836C208.955 15.9762 206.016 14.0756 202.154 14.0756C198.408 14.0756 195.642 15.8575 194.143 18.5303V14.8478H185.729V44.1897H194.143V28.509Z" fill="#7962FE"/>
<path d="M237.195 3.02322V4.23966C236.568 3.27031 235.443 2.79514 234.244 2.79514C231.791 2.79514 229.929 4.94292 229.929 7.71794C229.929 10.512 231.791 12.6407 234.244 12.6407C235.443 12.6407 236.568 12.1085 237.195 11.1582V12.4127H239.833V3.02322H237.195ZM232.603 7.71794C232.603 6.36844 233.635 5.28505 234.945 5.28505C236.255 5.28505 237.287 6.36844 237.287 7.71794C237.287 9.06743 236.255 10.1508 234.945 10.1508C233.635 10.1508 232.603 9.06743 232.603 7.71794Z" fill="#7962FE"/>
<path d="M244.345 12.4127V3.02322H241.652V12.4127H244.345ZM244.566 0.305226C244.566 -0.569093 243.866 -1.31036 243 -1.31036C242.133 -1.31036 241.432 -0.569093 241.432 0.305226C241.432 1.17955 242.133 1.92082 243 1.92082C243.866 1.92082 244.566 1.17955 244.566 0.305226Z" fill="#7962FE"/>
<path d="M146.762 2.55086C149.471 2.55086 151.66 4.86733 151.66 7.59958C151.66 10.3318 149.471 12.6483 146.762 12.6483C144.054 12.6483 141.863 10.3318 141.863 7.59958C141.863 4.86733 144.054 2.55086 146.762 2.55086Z" fill="#7962FE"/>
<path d="M14.8967 14.2806C17.0357 14.2806 19.065 14.747 20.9032 15.5842C16.8305 17.9653 13.9889 23.3591 13.9889 29.6334C13.9889 35.9079 16.8333 41.3017 20.9032 43.6827C19.065 44.52 17.0357 44.9862 14.8967 44.9862C6.6698 44.9862 0 38.1122 0 29.6334C0 21.1546 6.6698 14.2806 14.8967 14.2806Z" fill="#05E5AD"/>
<path d="M14.8967 14.2806C17.0357 14.2806 19.065 14.747 20.9032 15.5842C16.8305 17.9653 13.9889 23.3591 13.9889 29.6334C13.9889 35.9079 16.8333 41.3017 20.9032 43.6827C19.065 44.52 17.0357 44.9862 14.8967 44.9862C6.6698 44.9862 0 38.1122 0 29.6334C0 21.1546 6.6698 14.2806 14.8967 14.2806Z" fill="url(#paint0_radial_900_3985)"/>
<path d="M26.6446 20.1986C25.1379 18.2115 23.1705 16.6154 20.9022 15.5842C22.333 14.747 23.9125 14.2806 25.5737 14.2806C27.1421 14.2806 28.6401 14.6978 30.0033 15.4451C28.6711 16.4676 27.5158 18.1188 26.6417 20.1986H26.6446Z" fill="url(#paint1_radial_900_3985)"/>
<path d="M26.6417 39.0687C27.5159 41.1487 28.6711 42.7969 30.0033 43.8223C28.6373 44.5726 27.1421 44.9869 25.5737 44.9869C23.9097 44.9869 22.3301 44.5205 20.9022 43.6834C23.1677 42.6521 25.1379 41.0559 26.6446 39.0687H26.6417Z" fill="url(#paint2_radial_900_3985)"/>
<path d="M13.9879 29.6334C13.9879 23.359 16.8323 17.9652 20.9022 15.5842C23.1676 16.6153 25.1379 18.2115 26.6444 20.1987C25.5483 22.8028 24.8962 26.0762 24.8962 29.6334C24.8962 33.1907 25.5511 36.464 26.6444 39.0682C25.1379 41.0554 23.1705 42.6514 20.9022 43.6827C16.8294 41.3015 13.9879 35.9078 13.9879 29.6334Z" fill="#7962FE"/>
<path d="M35.6684 37.1638C36.0901 39.4784 36.6999 41.4192 37.4363 42.7893C36.1912 44.1827 34.7325 44.9851 33.1698 44.9851C32.0483 44.9851 30.9802 44.5709 30.0048 43.8206C32.408 42.5026 34.4008 40.1417 35.6684 37.1667V37.1638Z" fill="url(#paint3_radial_900_3985)"/>
<path d="M30.0048 15.4451C30.9802 14.6949 32.0483 14.2806 33.1698 14.2806C34.7297 14.2806 36.1884 15.0831 37.4363 16.4763C36.7027 17.8465 36.0929 19.7873 35.6684 22.1019C34.4008 19.1268 32.408 16.7661 30.0048 15.448V15.4451Z" fill="url(#paint4_radial_900_3985)"/>
<path d="M26.6449 39.0672C28.6153 36.463 29.7929 33.1896 29.7929 29.6325C29.7929 26.0753 28.6153 22.8019 26.6449 20.1977C27.5191 18.1207 28.6742 16.4696 30.0066 15.4441C32.4097 16.7621 34.4026 19.123 35.6701 22.0979C35.2626 24.3226 35.0321 26.8921 35.0321 29.6296C35.0321 32.3671 35.2654 34.9364 35.6701 37.1611C34.4026 40.1362 32.4097 42.4969 30.0066 43.815C28.6742 42.7925 27.5191 41.1413 26.6449 39.0615V39.0672Z" fill="#7962FE"/>
<path d="M26.6439 39.0691C25.5477 36.465 24.8957 33.1916 24.8957 29.6343C24.8957 26.0771 25.5505 22.8037 26.6439 20.1996C28.6143 22.8037 29.7919 26.0771 29.7919 29.6343C29.7919 33.1916 28.6143 36.465 26.6439 39.0691Z" fill="#321BB2"/>
<path d="M37.436 16.4763C38.1836 15.0831 39.0577 14.2806 39.9965 14.2806C42.7398 14.2806 44.9631 21.1546 44.9631 29.6334C44.9631 38.1122 42.7398 44.9862 39.9965 44.9862C39.0606 44.9862 38.1836 44.1839 37.436 42.7905C39.8392 40.1024 41.4469 35.2184 41.4469 29.6334C41.4469 24.0485 39.8392 19.1617 37.436 16.4763Z" fill="#05E6AD"/>
<path d="M37.436 16.4763C38.1836 15.0831 39.0577 14.2806 39.9965 14.2806C42.7398 14.2806 44.9631 21.1546 44.9631 29.6334C44.9631 38.1122 42.7398 44.9862 39.9965 44.9862C39.0606 44.9862 38.1836 44.1839 37.436 42.7905C39.8392 40.1024 41.4469 35.2184 41.4469 29.6334C41.4469 24.0485 39.8392 19.1617 37.436 16.4763Z" fill="url(#paint5_radial_900_3985)"/>
<path d="M37.1615 29.6346C37.1615 26.8972 36.619 24.3277 35.6689 22.1029C36.0906 19.7885 36.7004 17.8477 37.4369 16.4774C39.8401 19.1627 41.4478 24.0525 41.4478 29.6346C41.4478 35.2166 39.8401 40.1064 37.4369 42.7917C36.7032 41.4214 36.0934 39.4806 35.6689 37.1662C36.6162 34.9414 37.1615 32.3719 37.1615 29.6346Z" fill="#7962FE"/>
<path d="M35.6689 37.1647C35.2615 34.94 35.0309 32.3706 35.0309 29.6332C35.0309 26.8957 35.2642 24.3263 35.6689 22.1016C36.6162 24.3263 37.1615 26.8957 37.1615 29.6332C37.1615 32.3706 36.619 34.94 35.6689 37.1647Z" fill="#321BB2"/>
</g>
<defs>
<radialGradient id="paint0_radial_900_3985" cx="0" cy="0" r="1" gradientUnits="userSpaceOnUse" gradientTransform="translate(20.9131 29.6759) rotate(-179.176) scale(16.5027 24.8077)">
<stop stop-color="#6447FF"/>
<stop offset="0.0666667" stop-color="#6348FE"/>
<stop offset="0.133333" stop-color="#614DFC"/>
<stop offset="0.2" stop-color="#5C54F8"/>
<stop offset="0.266667" stop-color="#565EF3"/>
<stop offset="0.333333" stop-color="#4E6CEC"/>
<stop offset="0.4" stop-color="#447BE4"/>
<stop offset="0.466667" stop-color="#3A8DDB"/>
<stop offset="0.533333" stop-color="#2F9FD1"/>
<stop offset="0.6" stop-color="#25B1C8"/>
<stop offset="0.666667" stop-color="#1BC0C0"/>
<stop offset="0.733333" stop-color="#13CEB9"/>
<stop offset="0.8" stop-color="#0DD8B4"/>
<stop offset="0.866667" stop-color="#08DFB0"/>
<stop offset="0.933333" stop-color="#06E4AE"/>
<stop offset="1" stop-color="#05E5AD"/>
</radialGradient>
<radialGradient id="paint1_radial_900_3985" cx="0" cy="0" r="1" gradientUnits="userSpaceOnUse" gradientTransform="translate(31.7261 18.3949) rotate(-163.593) scale(9.1992 9.7014)">
<stop stop-color="#6447FF"/>
<stop offset="0.0666667" stop-color="#6348FE"/>
<stop offset="0.133333" stop-color="#614DFC"/>
<stop offset="0.2" stop-color="#5C54F8"/>
<stop offset="0.266667" stop-color="#565EF3"/>
<stop offset="0.333333" stop-color="#4E6CEC"/>
<stop offset="0.4" stop-color="#447BE4"/>
<stop offset="0.466667" stop-color="#3A8DDB"/>
<stop offset="0.533333" stop-color="#2F9FD1"/>
<stop offset="0.6" stop-color="#25B1C8"/>
<stop offset="0.666667" stop-color="#1BC0C0"/>
<stop offset="0.733333" stop-color="#13CEB9"/>
<stop offset="0.8" stop-color="#0DD8B4"/>
<stop offset="0.866667" stop-color="#08DFB0"/>
<stop offset="0.933333" stop-color="#06E4AE"/>
<stop offset="1" stop-color="#05E5AD"/>
</radialGradient>
<radialGradient id="paint2_radial_900_3985" cx="0" cy="0" r="1" gradientUnits="userSpaceOnUse" gradientTransform="translate(31.7261 43.1831) rotate(-163.593) scale(9.1992 9.7014)">
<stop stop-color="#6447FF"/>
<stop offset="0.0666667" stop-color="#6348FE"/>
<stop offset="0.133333" stop-color="#614DFC"/>
<stop offset="0.2" stop-color="#5C54F8"/>
<stop offset="0.266667" stop-color="#565EF3"/>
<stop offset="0.333333" stop-color="#4E6CEC"/>
<stop offset="0.4" stop-color="#447BE4"/>
<stop offset="0.466667" stop-color="#3A8DDB"/>
<stop offset="0.533333" stop-color="#2F9FD1"/>
<stop offset="0.6" stop-color="#25B1C8"/>
<stop offset="0.666667" stop-color="#1BC0C0"/>
<stop offset="0.733333" stop-color="#13CEB9"/>
<stop offset="0.8" stop-color="#0DD8B4"/>
<stop offset="0.866667" stop-color="#08DFB0"/>
<stop offset="0.933333" stop-color="#06E4AE"/>
<stop offset="1" stop-color="#05E5AD"/>
</radialGradient>
<radialGradient id="paint3_radial_900_3985" cx="0" cy="0" r="1" gradientUnits="userSpaceOnUse" gradientTransform="translate(39.7106 42.794) rotate(-155.809) scale(8.85055 13.3915)">
<stop stop-color="#6447FF"/>
<stop offset="0.0666667" stop-color="#6348FE"/>
<stop offset="0.133333" stop-color="#614DFC"/>
<stop offset="0.2" stop-color="#5C54F8"/>
<stop offset="0.266667" stop-color="#565EF3"/>
<stop offset="0.333333" stop-color="#4E6CEC"/>
<stop offset="0.4" stop-color="#447BE4"/>
<stop offset="0.466667" stop-color="#3A8DDB"/>
<stop offset="0.533333" stop-color="#2F9FD1"/>
<stop offset="0.6" stop-color="#25B1C8"/>
<stop offset="0.666667" stop-color="#1BC0C0"/>
<stop offset="0.733333" stop-color="#13CEB9"/>
<stop offset="0.8" stop-color="#0DD8B4"/>
<stop offset="0.866667" stop-color="#08DFB0"/>
<stop offset="0.933333" stop-color="#06E4AE"/>
<stop offset="1" stop-color="#05E5AD"/>
</radialGradient>
<radialGradient id="paint4_radial_900_3985" cx="0" cy="0" r="1" gradientUnits="userSpaceOnUse" gradientTransform="translate(39.7106 19.9106) rotate(-155.809) scale(8.85055 13.3915)">
<stop stop-color="#6447FF"/>
<stop offset="0.0666667" stop-color="#6348FE"/>
<stop offset="0.133333" stop-color="#614DFC"/>
<stop offset="0.2" stop-color="#5C54F8"/>
<stop offset="0.266667" stop-color="#565EF3"/>
<stop offset="0.333333" stop-color="#4E6CEC"/>
<stop offset="0.4" stop-color="#447BE4"/>
<stop offset="0.466667" stop-color="#3A8DDB"/>
<stop offset="0.533333" stop-color="#2F9FD1"/>
<stop offset="0.6" stop-color="#25B1C8"/>
<stop offset="0.666667" stop-color="#1BC0C0"/>
<stop offset="0.733333" stop-color="#13CEB9"/>
<stop offset="0.8" stop-color="#0DD8B4"/>
<stop offset="0.866667" stop-color="#08DFB0"/>
<stop offset="0.933333" stop-color="#06E4AE"/>
<stop offset="1" stop-color="#05E5AD"/>
</radialGradient>
<radialGradient id="paint5_radial_900_3985" cx="0" cy="0" r="1" gradientUnits="userSpaceOnUse" gradientTransform="translate(40.3407 29.4386) scale(5.25273 26.7045)">
<stop stop-color="#05E5AD"/>
<stop offset="0.32" stop-color="#05E5AD" stop-opacity="0"/>
<stop offset="0.902778" stop-color="#6447FF"/>
</radialGradient>
<clipPath id="clip0_900_3985">
<rect width="244" height="45" fill="white"/>
</clipPath>
</defs>
</svg>
