<svg width="678" height="260" viewBox="0 0 678 260" fill="none" xmlns="http://www.w3.org/2000/svg">
<path d="M300.656 114.032C296.761 114.032 293.761 109.226 283.594 109.226C271.907 109.226 266.882 115.04 266.882 125.001V138.722C266.882 148.683 271.868 154.497 283.75 154.497C294.112 154.497 296.683 149.381 301.007 149.381C303.624 149.615 306.056 150.822 307.818 152.762C309.58 154.702 310.542 157.232 310.512 159.846C310.512 166.706 298.241 173.877 282.036 173.877C256.014 173.877 244.639 158.8 244.639 138.722V125.001C244.639 105.273 255.819 89.8463 281.88 89.8463C298.085 89.8463 309.46 96.5129 309.46 103.218C309.46 107.327 305.993 114.032 300.656 114.032ZM355.856 173.877C335.677 173.877 318.42 157.249 318.42 138.722V124.652C318.42 106.125 335.326 89.7688 355.856 89.7688C376.385 89.7688 393.253 105.544 393.253 124.652V138.722C393.447 157.094 375.84 173.877 355.856 173.877ZM371.009 124.652C371.125 122.661 370.844 120.666 370.181 118.783C369.519 116.899 368.488 115.165 367.149 113.681C365.809 112.196 364.188 110.989 362.378 110.131C360.568 109.273 358.604 108.78 356.602 108.68C354.599 108.58 352.596 108.876 350.709 109.55C348.822 110.224 347.087 111.263 345.606 112.608C344.124 113.952 342.924 115.575 342.076 117.383C341.228 119.19 340.748 121.147 340.663 123.141C340.624 123.644 340.624 124.149 340.663 124.652V138.722C340.494 142.707 341.915 146.597 344.616 149.544C347.317 152.491 351.079 154.256 355.082 154.456C359.086 154.655 363.006 153.272 365.99 150.608C368.973 147.944 370.777 144.215 371.009 140.234C371.048 139.731 371.048 139.225 371.009 138.722V124.652ZM518.104 172.365C512.26 172.365 507.079 168.761 507.079 165.311V124.652C507.245 122.776 507.036 120.885 506.466 119.089C505.895 117.293 504.973 115.627 503.753 114.186C502.533 112.746 501.039 111.559 499.357 110.695C497.675 109.83 495.838 109.305 493.952 109.149H493.134C486.238 109.149 479.499 114.652 479.499 124.652V165.505C479.499 170.272 473.812 172.365 468.28 172.365C462.749 172.365 457.256 170.272 457.256 165.505V124.652C457.399 122.756 457.165 120.85 456.567 119.043C455.969 117.237 455.018 115.566 453.77 114.126C452.521 112.685 450.999 111.504 449.291 110.65C447.583 109.796 445.723 109.286 443.816 109.149H443.115C436.415 109.149 429.676 114.459 429.676 124.652V165.311C429.676 168.761 424.495 172.365 418.457 172.365C412.418 172.365 407.432 168.761 407.432 165.311V97.7145C407.432 93.606 411.912 90.854 418.457 90.854C423.793 90.854 428.312 93.606 428.312 97.7145V102.869C430.56 98.849 433.864 95.5129 437.872 93.2187C441.88 90.9245 446.439 89.7587 451.062 89.8463C460.879 89.8463 468.981 96.8618 472.604 106.978C474.871 101.967 478.518 97.6984 483.124 94.6663C487.73 91.6341 493.105 89.9629 498.626 89.8463C514.208 89.8463 529.323 102.366 529.323 124.73V165.311C529.323 168.761 524.142 172.365 518.104 172.365ZM599.91 137.482H564.85V140.04C564.85 150.001 572.992 156.513 585.029 156.513C596.404 156.513 601.078 150.001 606.259 150.001C611.44 150.001 614.713 156.358 614.713 159.769C614.713 165.621 602.792 173.993 584.366 173.993C559.864 173.993 542.607 159.962 542.607 138.838V124.148C542.607 105.621 559.357 89.8463 580.393 89.8463C599.364 89.8463 615.92 103.025 615.92 122.094C615.92 136.668 607.623 137.365 599.871 137.365L599.91 137.482ZM574.465 106.896C572.706 107.471 571.079 108.386 569.677 109.59C568.276 110.793 567.128 112.261 566.299 113.908C565.471 115.555 564.978 117.35 564.85 119.187C564.828 119.289 564.828 119.395 564.85 119.497V124.148H590.054C593.677 124.148 595.04 123.296 595.04 119.536C594.908 115.807 593.297 112.283 590.559 109.733C587.821 107.183 584.18 105.816 580.432 105.931C578.599 105.931 576.205 106.328 574.465 106.896ZM671.626 107.094H651.291V144.691C651.291 151.358 653.707 153.761 660.952 153.761H667.653C668.892 153.675 670.135 153.834 671.312 154.229C672.49 154.623 673.577 155.245 674.511 156.059C675.446 156.873 676.21 157.862 676.759 158.97C677.309 160.079 677.632 161.284 677.712 162.517C677.791 163.751 677.625 164.987 677.223 166.156C676.821 167.326 676.19 168.404 675.367 169.33C674.545 170.256 673.547 171.011 672.43 171.552C671.313 172.093 670.1 172.409 668.86 172.482H661.069C640.384 172.482 629.165 164.071 629.165 144.691V61.358C629.165 57.2495 635.008 54.4976 640.189 54.4976C645.37 54.4976 651.408 57.2495 651.408 61.358V90.854H671.743C675.366 90.854 677.43 94.9625 677.43 98.916C677.43 102.869 675.366 106.978 671.743 106.978L671.626 107.094Z" fill="#5F677E"></path>
<path d="M168.717 4.69088C134.954 -4.40589 98.9417 0.209375 68.5974 17.5221C38.2531 34.8349 16.0601 63.428 6.89702 97.0161C5.64377 101.688 4.64249 106.424 3.89747 111.202C3.95468 112.401 3.83658 113.603 3.54688 114.768C14.2985 109.148 25.0112 109.846 37.1652 116.977C50.0204 124.729 64.8623 130.466 77.3669 138.876C77.4033 138.475 77.3221 138.071 77.1331 137.714C75.4468 122.657 79.8315 107.55 89.3252 95.7064C98.819 83.8625 112.647 76.2488 127.775 74.5356C134.58 73.7651 141.469 74.2246 148.109 75.8922C154.42 77.5861 161.065 77.6156 167.39 75.9777C173.715 74.3398 179.502 71.091 184.182 66.5511L184.727 66.0085C189.298 61.4913 192.599 55.8608 194.301 49.6783C196.003 43.4959 196.046 36.9776 194.426 30.7734C192.806 24.5693 189.579 18.8961 185.068 14.3195C180.557 9.74302 174.919 6.42312 168.717 4.69088Z" fill="url(#paint0_linear_5370_97025)"></path>
<path d="M128.278 0.117666C97.8593 1.54851 68.8693 13.3836 46.2066 33.6232C23.5439 53.8629 8.59813 81.2661 3.89457 111.203C3.16195 115.576 2.69364 119.99 2.49219 124.42C4.39247 121.386 7.06534 118.906 10.2397 117.231C13.4141 115.557 16.9771 114.747 20.5674 114.885C25.3832 114.694 30.1126 116.198 33.9243 119.132C37.736 122.067 40.386 126.245 41.4084 130.931C42.4857 129.665 43.8377 128.658 45.3626 127.986C46.8876 127.315 48.5457 126.997 50.2122 127.055C53.3117 127.055 56.2842 128.28 58.4759 130.461C60.6675 132.642 61.8988 135.599 61.8988 138.683C61.8899 140.002 61.6663 141.311 61.2365 142.559C62.1953 142.993 63.0434 143.637 63.7178 144.442C64.3922 145.247 64.8756 146.194 65.1321 147.21C65.1574 146.055 65.4112 144.915 65.8791 143.858C66.3471 142.8 67.0199 141.844 67.8592 141.045C68.6984 140.246 69.6877 139.619 70.7705 139.201C71.8533 138.782 73.0083 138.58 74.1697 138.606C75.1876 138.606 76.1995 138.762 77.1692 139.071C77.2056 138.669 77.1244 138.265 76.9355 137.908C76.7407 135.97 76.6628 134.032 76.6238 132.171C76.0785 128.296 75.6889 124.109 75.5331 120.04C73.1568 65.2337 116.007 17.5207 167.506 4.34246C154.717 0.984635 141.493 -0.43957 128.278 0.117666Z" fill="url(#paint1_linear_5370_97025)"></path>
<path d="M19.984 160.195C31.0208 160.195 39.968 151.292 39.968 140.311C39.968 129.329 31.0208 120.427 19.984 120.427C8.94714 120.427 0 129.329 0 140.311C0 151.292 8.94714 160.195 19.984 160.195Z" fill="#F3AD00"></path>
<path d="M50.5226 146.241C54.6103 146.241 57.924 142.944 57.924 138.877C57.924 134.809 54.6103 131.512 50.5226 131.512C46.4349 131.512 43.1211 134.809 43.1211 138.877C43.1211 142.944 46.4349 146.241 50.5226 146.241Z" fill="#F3AD00"></path>
<path d="M34.1639 185.504C40.0589 185.504 44.8377 180.75 44.8377 174.884C44.8377 169.019 40.0589 164.264 34.1639 164.264C28.269 164.264 23.4902 169.019 23.4902 174.884C23.4902 180.75 28.269 185.504 34.1639 185.504Z" fill="#F3AD00"></path>
<path d="M74.9103 152.558C77.6211 152.558 79.8186 150.372 79.8186 147.675C79.8186 144.978 77.6211 142.791 74.9103 142.791C72.1995 142.791 70.002 144.978 70.002 147.675C70.002 150.372 72.1995 152.558 74.9103 152.558Z" fill="#F3AD00"></path>
<path d="M85.7391 194.342C90.6659 194.342 94.6598 190.368 94.6598 185.466C94.6598 180.564 90.6659 176.59 85.7391 176.59C80.8123 176.59 76.8184 180.564 76.8184 185.466C76.8184 190.368 80.8123 194.342 85.7391 194.342Z" fill="#F3AD00"></path>
<path d="M31.3574 219.031C38.8013 219.031 44.8359 213.027 44.8359 205.62C44.8359 198.214 38.8013 192.209 31.3574 192.209C23.9134 192.209 17.8789 198.214 17.8789 205.62C17.8789 213.027 23.9134 219.031 31.3574 219.031Z" fill="#F3AD00"></path>
<path d="M10.5176 185.466C14.4332 185.466 17.6074 182.308 17.6074 178.412C17.6074 174.516 14.4332 171.357 10.5176 171.357C6.60196 171.357 3.42773 174.516 3.42773 178.412C3.42773 182.308 6.60196 185.466 10.5176 185.466Z" fill="#F3AD00"></path>
<path d="M55.703 219.109C60.0274 219.109 63.533 215.621 63.533 211.318C63.533 207.015 60.0274 203.527 55.703 203.527C51.3786 203.527 47.873 207.015 47.873 211.318C47.873 215.621 51.3786 219.109 55.703 219.109Z" fill="#FCC200"></path>
<path d="M65.5219 245.776C69.7387 245.776 73.1571 242.375 73.1571 238.179C73.1571 233.983 69.7387 230.582 65.5219 230.582C61.3051 230.582 57.8867 233.983 57.8867 238.179C57.8867 242.375 61.3051 245.776 65.5219 245.776Z" fill="#FCC200"></path>
<path d="M82.8985 221.784C87.9759 221.784 92.0919 217.688 92.0919 212.637C92.0919 207.585 87.9759 203.489 82.8985 203.489C77.8211 203.489 73.7051 207.585 73.7051 212.637C73.7051 217.688 77.8211 221.784 82.8985 221.784Z" fill="#FCC200"></path>
<path d="M105.647 200.815C108.638 200.815 111.062 198.403 111.062 195.427C111.062 192.452 108.638 190.04 105.647 190.04C102.657 190.04 100.232 192.452 100.232 195.427C100.232 198.403 102.657 200.815 105.647 200.815Z" fill="#FCC200"></path>
<path d="M107.786 231.28C112.283 231.28 115.928 227.653 115.928 223.179C115.928 218.705 112.283 215.078 107.786 215.078C103.29 215.078 99.6445 218.705 99.6445 223.179C99.6445 227.653 103.29 231.28 107.786 231.28Z" fill="#FFD000"></path>
<path d="M90.4553 240.349C93.9406 240.349 96.766 237.538 96.766 234.07C96.766 230.602 93.9406 227.791 90.4553 227.791C86.9699 227.791 84.1445 230.602 84.1445 234.07C84.1445 237.538 86.9699 240.349 90.4553 240.349Z" fill="#FFD000"></path>
<path d="M119.864 215.233C122.897 215.233 125.356 212.786 125.356 209.768C125.356 206.75 122.897 204.303 119.864 204.303C116.83 204.303 114.371 206.75 114.371 209.768C114.371 212.786 116.83 215.233 119.864 215.233Z" fill="#FFD000"></path>
<path d="M135.212 223.489C137.686 223.489 139.692 221.493 139.692 219.032C139.692 216.57 137.686 214.574 135.212 214.574C132.738 214.574 130.732 216.57 130.732 219.032C130.732 221.493 132.738 223.489 135.212 223.489Z" fill="#FFD000"></path>
<path d="M125.317 239.38C128.308 239.38 130.732 236.968 130.732 233.993C130.732 231.017 128.308 228.605 125.317 228.605C122.327 228.605 119.902 231.017 119.902 233.993C119.902 236.968 122.327 239.38 125.317 239.38Z" fill="#FFD000"></path>
<path d="M111.1 260.001C116.543 260.001 120.955 255.61 120.955 250.194C120.955 244.779 116.543 240.388 111.1 240.388C105.657 240.388 101.244 244.779 101.244 250.194C101.244 255.61 105.657 260.001 111.1 260.001Z" fill="#FFD000"></path>
<path d="M139.69 250.349C142.229 250.349 144.287 248.301 144.287 245.775C144.287 243.249 142.229 241.202 139.69 241.202C137.152 241.202 135.094 243.249 135.094 245.775C135.094 248.301 137.152 250.349 139.69 250.349Z" fill="#FFD000"></path>
<path d="M148.379 215.117C149.541 215.117 150.483 214.18 150.483 213.024C150.483 211.868 149.541 210.931 148.379 210.931C147.217 210.931 146.275 211.868 146.275 213.024C146.275 214.18 147.217 215.117 148.379 215.117Z" fill="#FFD000"></path>
<path d="M58.9023 151.473C60.4729 151.473 61.746 150.207 61.746 148.644C61.746 147.081 60.4729 145.814 58.9023 145.814C57.3318 145.814 56.0586 147.081 56.0586 148.644C56.0586 150.207 57.3318 151.473 58.9023 151.473Z" fill="#F3AD00"></path>
<path d="M62.9876 185.466C71.3352 185.466 78.1022 178.733 78.1022 170.427C78.1022 162.121 71.3352 155.388 62.9876 155.388C54.6401 155.388 47.873 162.121 47.873 170.427C47.873 178.733 54.6401 185.466 62.9876 185.466Z" fill="#F3AD00"></path>
<path d="M66.0701 200.814C68.4582 200.814 70.3941 198.888 70.3941 196.512C70.3941 194.136 68.4582 192.209 66.0701 192.209C63.682 192.209 61.7461 194.136 61.7461 196.512C61.7461 198.888 63.682 200.814 66.0701 200.814Z" fill="#F3AD00"></path>
<path d="M152.586 238.954C154.91 238.954 156.793 237.08 156.793 234.768C156.793 232.456 154.91 230.582 152.586 230.582C150.263 230.582 148.379 232.456 148.379 234.768C148.379 237.08 150.263 238.954 152.586 238.954Z" fill="#FFD000"></path>
<path d="M169.22 247.636C171.005 247.636 172.453 246.195 172.453 244.419C172.453 242.642 171.005 241.202 169.22 241.202C167.434 241.202 165.986 242.642 165.986 244.419C165.986 246.195 167.434 247.636 169.22 247.636Z" fill="#FFD000"></path>
<path d="M175.531 233.915C177.23 233.915 178.608 232.544 178.608 230.853C178.608 229.162 177.23 227.791 175.531 227.791C173.831 227.791 172.453 229.162 172.453 230.853C172.453 232.544 173.831 233.915 175.531 233.915Z" fill="#FFD000"></path>
<defs>
<linearGradient id="paint0_linear_5370_97025" x1="15.9346" y1="148.799" x2="167.444" y2="-3.47483" gradientUnits="userSpaceOnUse">
<stop stop-color="#EE8C00"></stop>
<stop offset="0.4" stop-color="#D7581B"></stop>
<stop offset="0.8" stop-color="#C22933"></stop>
<stop offset="1" stop-color="#BA173C"></stop>
</linearGradient>
<linearGradient id="paint1_linear_5370_97025" x1="84.9992" y1="150.854" x2="84.9992" y2="0.117662" gradientUnits="userSpaceOnUse">
<stop stop-color="#F4AC00"></stop>
<stop offset="1" stop-color="#E30D3E"></stop>
</linearGradient>
</defs>
</svg>
