<?xml version="1.0" encoding="UTF-8"?>
<svg id="Layer_1" xmlns="http://www.w3.org/2000/svg" version="1.1" viewBox="0 0 2145.8 260.1">
  <!-- Generator: Adobe Illustrator 29.1.0, SVG Export Plug-In . SVG Version: 2.1.0 Build 142)  -->
  <defs>
    <style>
      .st0 {
        fill: #ffa337;
      }
    </style>
  </defs>
  <path d="M198.8,167.2c0-53.4,38.5-92.7,93-92.7s93,39.2,93,92.7-38.5,92.7-93,92.7-93-39.2-93-92.7M342.7,167.2c0-30.9-20.4-53-50.7-53s-51.1,22.1-51.1,53,20.6,53,51.1,53,50.7-21.9,50.7-53"/>
  <path d="M407,163.8c0-58.7,34.3-89,85.4-89s85.4,29.9,85.4,89v91.6h-41.7v-91.6c0-33.5-17.6-49.6-43.7-49.6s-43.7,16.1-43.7,49.6v91.6h-41.7v-91.6Z"/>
  <path d="M605.8,187.6V16.9h41.7v62.4h89.2v38.6h-89.2v69.7c0,23.6,12,32.7,28.9,32.7s28.9-8.9,28.9-32.7v-4.7h41.7v4.7c0,48.8-28.7,72.3-70.7,72.3s-70.7-23.6-70.7-72.3"/>
  <path d="M763.3,167.2c0-53.4,38.5-92.7,93-92.7s92.4,39.2,92.4,92.7v15h-141.7c5.6,25.6,24.8,39.2,49.3,39.2s32.1-5.3,40.9-16.7h44.5c-13,33.5-44.5,55.3-85.4,55.3-54.5-.2-93-39.4-93-92.9M904.6,148.3c-6.6-23.6-25.5-35.2-48.3-35.2s-41.7,12.2-48.3,35.2h96.6Z"/>
  <polygon points="1008.4 165.6 947.6 79.2 997.9 79.2 1039.6 142.7 1081.3 79.2 1130.6 79.2 1069.1 165.4 1133.4 255.2 1083.1 255.2 1038.4 187.6 993.9 255.2 945 255.2 1008.4 165.6"/>
  <path d="M1149.2,187.6V16.9h41.7v62.4h89.2v38.6h-89.2v69.7c0,23.6,12,32.7,28.9,32.7s28.9-8.9,28.9-32.7v-4.7h41.7v4.7c0,48.8-28.7,72.3-70.7,72.3s-70.7-23.6-70.7-72.3"/>
  <path d="M1313.6,170.9v-91.6h41.7v91.4c0,33.5,17.6,49.6,43.7,49.6s43.7-16.1,43.7-49.6v-91.4h41.7v91.4c0,58.7-34.3,89-85.4,89s-85.4-29.7-85.4-88.8"/>
  <path d="M1508.3,169.1c0-55.9,38.5-94.5,93.4-94.5s92,37.4,92,94.1v86.6h-38.1v-34.5c-10.6,26-33.9,39.2-61.3,39.2-41.9,0-86-30.7-86-90.8M1652,167.2c0-30.9-20.4-53-50.7-53s-51.1,22.1-51.1,53,20.6,53,51.1,53,50.7-21.9,50.7-53"/>
  <polygon points="1723 2.4 1764.6 2.4 1764.6 255.2 1722.9 255.2 1722.9 2.4 1723 2.4"/>
  <path d="M1882.5,169.1c0-55.9,38.5-94.5,93.4-94.5s92,37.6,92,94.1v86.6h-38.1v-34.5c-10.6,26-33.9,39.2-61.3,39.2-41.9,0-86-30.7-86-90.8M2026.3,167.2c0-30.9-20.4-53-50.7-53s-51.1,22.1-51.1,53,20.6,53,51.1,53,50.7-21.9,50.7-53"/>
  <rect x="2097.3" y="79.2" width="41.7" height="176"/>
  <path class="st0" d="M1797.7,167.2c0-16.5,11.6-28.4,27.5-28.4s27.5,12.2,27.5,28.4-11.6,28-27.5,28-27.5-11.6-27.5-28"/>
  <path class="st0" d="M2090.7,28.4c0-16.5,11.6-28.4,27.5-28.4s27.5,12.2,27.5,28.4-11.6,28.2-27.5,28.2-27.5-11.8-27.5-28.2"/>
  <path d="M93.6,74.8c-31.7,0-58.1,13.4-74.5,34.9l36.1,21.1c9-10.4,22.4-16.7,38.3-16.7,22.8,0,40.3,12.2,47.5,30.9h41.9c-8.2-41.5-42.5-70.3-89.4-70.3"/>
  <path d="M93.6,259.9c-31.7,0-58.1-13.2-74.5-34.9l36.1-21.1c9,10.4,22.4,16.7,38.3,16.7,22.8,0,40.3-12.2,47.5-30.9h41.9c-8.2,41.5-42.5,70.3-89.4,70.3"/>
  <path class="st0" d="M0,167.2c0-16.5,11.6-28.4,27.7-28.4s27.8,12.2,27.8,28.4-11.6,28-27.8,28S0,183.7,0,167.2"/>
</svg>