<svg width="153" height="44" viewBox="0 0 153 44" fill="none" xmlns="http://www.w3.org/2000/svg">
<path d="M137.503 22.0382L130.994 13.42H138.538L151.853 30.9526H144.235L141.275 27.0307L138.315 30.9526H130.733L137.503 22.0382Z" fill="black"/>
<path d="M144.068 13.42H151.577L145.813 21.0966L142 16.1774L144.068 13.42Z" fill="black"/>
<path d="M34.0706 29.0107C32.2578 27.4707 31.3514 25.1944 31.3514 22.1877C31.3514 19.1811 32.2754 16.9048 34.1264 15.3648C35.9744 13.8248 38.5029 13.0533 41.709 13.0533C43.0408 13.0533 44.217 13.1443 45.2408 13.332C46.2645 13.5168 47.2442 13.8307 48.18 14.2765V19.1547C46.725 18.4653 45.0736 18.1192 43.2256 18.1192C41.5976 18.1192 40.3949 18.4272 39.6205 19.0432C38.8432 19.6592 38.456 20.7064 38.456 22.1877C38.456 23.6192 38.8373 24.6547 39.6029 25.2941C40.3656 25.9365 41.5741 26.2563 43.2285 26.2563C44.9797 26.2563 46.6429 25.8485 48.221 25.036V30.14C46.4698 30.9291 44.2874 31.3221 41.6738 31.3221C38.4149 31.3221 35.8834 30.5507 34.0706 29.0107Z" fill="black"/>
<path d="M49.7992 22.1848C49.7992 19.2016 50.6499 16.9341 52.3512 15.3795C54.0525 13.8248 56.6163 13.0504 60.0453 13.0504C63.4979 13.0504 66.0792 13.8277 67.7952 15.3795C69.5083 16.9312 70.3648 19.2016 70.3648 22.1848C70.3648 28.2744 66.924 31.3192 60.0453 31.3192C53.2136 31.3221 49.7992 28.2773 49.7992 22.1848ZM62.5064 25.2941C63.0109 24.6517 63.2632 23.6163 63.2632 22.1877C63.2632 20.7827 63.0109 19.7531 62.5064 19.0989C62.0019 18.4448 61.1805 18.1192 60.0453 18.1192C58.9365 18.1192 58.1328 18.4477 57.64 19.0989C57.1472 19.7531 56.9008 20.7827 56.9008 22.1877C56.9008 23.6192 57.1472 24.6547 57.64 25.2941C58.1328 25.9365 58.9336 26.2563 60.0453 26.2563C61.1805 26.2563 61.9989 25.9336 62.5064 25.2941Z" fill="black"/>
<path d="M71.984 13.42H78.4931L78.6779 14.7517C79.3936 14.2589 80.3059 13.8512 81.4147 13.5315C82.5235 13.2117 83.6704 13.0504 84.8555 13.0504C87.0496 13.0504 88.6512 13.5931 89.6632 14.6784C90.6752 15.7637 91.1797 17.4387 91.1797 19.7091V30.9525H84.2277V20.4101C84.2277 19.6211 84.0488 19.0549 83.6909 18.7088C83.3331 18.3627 82.7347 18.1925 81.8957 18.1925C81.3795 18.1925 80.8485 18.3099 80.3059 18.5445C79.7632 18.7792 79.3085 19.0813 78.936 19.4509V30.9525H71.984V13.42Z" fill="black"/>
<path d="M91.2003 13.42H98.4486L101.778 23.7014L105.107 13.42H112.356L105.439 30.9526H98.1142L91.2003 13.42Z" fill="black"/>
<path d="M114.544 29.4448C112.455 27.8784 111.478 25.1592 111.478 22.2229C111.478 19.3629 112.256 17.0075 114.03 15.3795C115.805 13.7515 118.51 13.0504 121.924 13.0504C125.066 13.0504 127.535 13.7779 129.339 15.2328C131.141 16.6877 132.044 18.6736 132.044 21.1875V24.2587H118.823C119.152 25.1709 119.569 25.8309 120.592 26.2387C121.616 26.6464 123.045 26.8488 124.872 26.8488C125.963 26.8488 127.078 26.7637 128.21 26.5907C128.609 26.5291 129.266 26.4323 129.612 26.3589V30.6211C127.885 31.0904 125.582 31.3251 122.986 31.3251C119.492 31.3221 116.632 31.0112 114.544 29.4448ZM124.74 20.4864C124.74 19.6181 123.74 17.7496 121.73 17.7496C119.918 17.7496 118.721 19.5888 118.721 20.4864H124.74Z" fill="black"/>
<path d="M16.5645 29.4507C20.4072 29.0312 24.0298 27.019 26.0245 23.6603C25.08 31.9675 15.837 37.2182 8.29249 33.9944C7.59729 33.6982 6.9989 33.2054 6.58823 32.5718C4.89276 29.9552 4.33543 26.6259 5.13623 23.6046C7.42423 27.4854 12.0765 29.8643 16.5645 29.4507Z" fill="#F3B01C"/>
<path d="M4.99551 21.1669C3.43791 24.7045 3.37045 28.8464 5.28005 32.2549C-1.44022 27.2859 -1.36689 16.6525 5.19791 11.7333C5.80511 11.2787 6.52671 11.0088 7.28351 10.9677C10.3958 10.8064 13.5579 11.9885 15.7755 14.1915C11.2699 14.2355 6.88165 17.072 4.99551 21.1669Z" fill="#8D2676"/>
<path d="M17.9491 15.2797C15.6758 12.1645 12.1176 10.0437 8.21924 9.9792C15.755 6.6176 25.0243 12.0677 26.0334 20.1256C26.1272 20.8736 26.004 21.6363 25.6667 22.3109C24.2587 25.1211 21.648 27.3005 18.5974 28.1072C20.8326 24.0328 20.5568 19.0549 17.9491 15.2797Z" fill="#EE342F"/>
</svg>
