<?xml version="1.0" encoding="UTF-8"?><svg id="Layer_1" xmlns="http://www.w3.org/2000/svg" viewBox="0 0 134.62 17.15"><path d="m11.12,1.87l-1.03,1.3c-.96-.9-2.23-1.44-3.76-1.44C3.72,1.73,1.85,3.6,1.85,6.33s1.87,4.62,4.48,4.62c1.65,0,3.02-.57,3.91-1.61l1.08,1.14c-1.13,1.35-2.88,2.16-5.06,2.16-3.67,0-6.26-2.58-6.26-6.3S2.61.02,6.26.02C8.29,0,9.97.69,11.12,1.87" style="fill:#575756; stroke-width:0px;"/><path d="m24.69,6.3c0,3.74-2.66,6.33-6.4,6.33s-6.4-2.58-6.4-6.33S14.55.02,18.29.02s6.4,2.56,6.4,6.28m-10.93.02c0,2.75,1.89,4.64,4.53,4.64s4.53-1.9,4.53-4.64-1.89-4.62-4.53-4.62-4.53,1.9-4.53,4.62" style="fill:#575756; stroke-width:0px;"/><path d="m38.55,6.3c0,3.74-2.66,6.33-6.4,6.33s-6.4-2.58-6.4-6.33S28.41.02,32.15.02s6.4,2.56,6.4,6.28m-10.93.02c0,2.75,1.89,4.64,4.53,4.64s4.53-1.9,4.53-4.64-1.89-4.62-4.53-4.62-4.53,1.9-4.53,4.62" style="fill:#575756; stroke-width:0px;"/><path d="m53.79,6.35c0,3.7-2.44,6.28-6.02,6.28-2.25,0-3.98-1.02-4.91-2.75v7.27h-1.87V.07h1.87v2.7C43.8,1.02,45.52,0,47.73,0,51.3,0,53.79,2.61,53.79,6.35m-1.89-.05c0-2.68-1.87-4.64-4.51-4.64s-4.53,1.94-4.53,4.64,1.87,4.64,4.53,4.64,4.51-1.94,4.51-4.64" style="fill:#575756; stroke-width:0px;"/><path d="m67,7.04h-10.31c.34,2.44,2.13,3.98,4.58,3.98,1.56,0,2.92-.54,3.91-1.56l1.03,1.09c-1.2,1.33-2.97,2.09-5.08,2.09-3.71,0-6.28-2.58-6.28-6.3S57.44.02,61.1.02c4.08-.02,6.09,2.77,5.9,7.01m-1.68-1.52c-.12-2.39-1.75-3.91-4.22-3.91s-4.12,1.54-4.41,3.91h8.63Z" style="fill:#575756; stroke-width:0px;"/><path d="m71.12,2.84C71.96,1.02,73.52.02,75.65,0v1.87c-2.66-.05-4.31,1.59-4.53,4.05v6.63h-1.87V.07h1.87v2.77Z" style="fill:#575756; stroke-width:0px;"/><path d="m90.13,6.35c0,3.7-2.44,6.28-6.02,6.28-2.25,0-3.98-1.02-4.91-2.75v7.27h-1.87V.07h1.87v2.7C80.14,1.02,81.86,0,84.07,0c3.57,0,6.06,2.61,6.06,6.35m-1.89-.05c0-2.68-1.87-4.64-4.51-4.64s-4.53,1.94-4.53,4.64,1.87,4.64,4.53,4.64,4.51-1.94,4.51-4.64" style="fill:#009fe3; stroke-width:0px;"/><path d="m94.33,2.84C95.17,1.02,96.72.02,98.86,0v1.87c-2.66-.05-4.31,1.59-4.53,4.05v6.63h-1.87V.07h1.87v2.77Z" style="fill:#009fe3; stroke-width:0px;"/><path d="m111.3,7.04h-10.31c.34,2.44,2.13,3.98,4.58,3.98,1.56,0,2.92-.54,3.91-1.56l1.03,1.09c-1.2,1.33-2.97,2.09-5.08,2.09-3.71,0-6.28-2.58-6.28-6.3S101.73.02,105.4.02c4.08-.02,6.09,2.77,5.9,7.01m-1.68-1.52c-.12-2.39-1.75-3.91-4.22-3.91s-4.12,1.54-4.41,3.91h8.63Z" style="fill:#009fe3; stroke-width:0px;"/><path d="m120.94,1.14l-.72,1.47c-.98-.62-2.25-1.02-3.43-1.02-1.41,0-2.49.5-2.49,1.66,0,2.77,7.05,1.35,7.05,5.83,0,2.46-2.21,3.55-4.63,3.55-1.8,0-3.64-.62-4.84-1.75l.72-1.4c1.08.99,2.71,1.59,4.2,1.59s2.68-.54,2.71-1.78c.07-3.01-7-1.47-6.98-5.9,0-2.39,2.09-3.39,4.39-3.39,1.51,0,2.97.43,4.03,1.14" style="fill:#009fe3; stroke-width:0px;"/><path d="m130.84,1.14l-.72,1.47c-.98-.62-2.25-1.02-3.43-1.02-1.41,0-2.49.5-2.49,1.66,0,2.77,7.05,1.35,7.05,5.83,0,2.46-2.21,3.55-4.63,3.55-1.8,0-3.64-.62-4.84-1.75l.72-1.4c1.08.99,2.71,1.59,4.2,1.59s2.68-.54,2.71-1.78c.07-3.01-7-1.47-6.98-5.9,0-2.39,2.09-3.39,4.39-3.39,1.51,0,2.97.43,4.03,1.14" style="fill:#009fe3; stroke-width:0px;"/><path d="m134.62,11.54c0,.38-.14.69-.36,1.02l-1.13,1.71h-1.06l.79-1.73c-.36-.21-.53-.59-.53-1.02,0-.69.48-1.18,1.13-1.18s1.15.45,1.15,1.21m-2.32-7.06c0-.71.5-1.23,1.17-1.23s1.15.52,1.15,1.23-.5,1.23-1.15,1.23-1.17-.52-1.17-1.23" style="fill:#575756; stroke-width:0px;"/></svg>