<?xml version="1.0" encoding="UTF-8"?><svg id="Layer_1" xmlns="http://www.w3.org/2000/svg" viewBox="0 0 1179 162.07"><defs><style>.cls-1{fill:#221251;}.cls-1,.cls-2{stroke-width:0px;}.cls-2{fill:#4541f4;}</style></defs><g id="Layer_2"><g id="Layer_1-2"><path class="cls-2" d="M37.4,12.47c13.77,0,24.93,11.16,24.93,24.93,0,13.77-11.16,24.93-24.93,24.93-13.77,0-24.93-11.16-24.93-24.93h0c.02-13.76,11.17-24.92,24.93-24.93M37.4,0C16.75,0,0,16.75,0,37.4s16.75,37.4,37.4,37.4,37.4-16.75,37.4-37.4C74.8,16.75,58.06,0,37.4,0Z"/><path class="cls-2" d="M124.67,99.74c13.77,0,24.93,11.16,24.93,24.93s-11.16,24.93-24.93,24.93-24.93-11.16-24.93-24.93c.02-13.76,11.17-24.92,24.93-24.93M124.67,87.27c-20.66,0-37.4,16.75-37.4,37.4s16.75,37.4,37.4,37.4,37.4-16.75,37.4-37.4c0-20.66-16.75-37.4-37.4-37.4,0,0,0,0,0,0Z"/><polygon class="cls-2" points="87.27 0 162.08 74.8 87.27 74.8 87.27 0"/><rect class="cls-2" x="0" y="87.27" width="74.8" height="74.8"/><path class="cls-2" d="M1150.68,117.64c8.75,0,15.85,7.1,15.85,15.85s-7.1,15.85-15.85,15.85c-8.75,0-15.85-7.1-15.85-15.85,0-8.75,7.1-15.84,15.85-15.85M1150.68,105.17c-15.64,0-28.32,12.68-28.32,28.32s12.68,28.32,28.32,28.32c15.64,0,28.32-12.68,28.32-28.32s-12.68-28.32-28.32-28.32h0Z"/><path class="cls-1" d="M207.48,80.97C207.48,35.6,240.08.58,287.65.58c37.01,0,63,20.26,71.15,47.57l-30.18,11.67c-6.61-18.72-19.38-31.5-41.41-31.5-27.75,0-44.71,19.16-44.71,52.64s16.52,52.86,44.71,52.86c22.03,0,35.68-13.21,42.29-31.72l29.51,11.9c-11.23,29.73-34.58,47.8-71.8,47.8-48.24,0-79.73-33.92-79.73-80.84Z"/><path class="cls-1" d="M370.98,103.22c0-35.24,24.23-58.37,57.93-58.37s57.93,23.13,57.93,58.37-24.23,58.59-57.93,58.59-57.93-24.67-57.93-58.59ZM454.24,103.66c0-22.69-10.35-34.14-25.33-34.14s-25.33,11.45-25.33,34.14,10.35,33.26,25.33,33.26,25.33-10.57,25.33-33.26h0Z"/><path class="cls-1" d="M526.27,158.28l-42.29-110.13h32.82l15.2,45.15c5.95,17.84,6.83,26.43,7.27,46.04h11.68c.44-19.6.88-29.29,6.38-46.04l14.54-45.15h31.94l-40.09,110.13h-37.44Z"/><path class="cls-1" d="M607.4,130.09c0-30.84,32.6-39.87,69.16-43.39v-4.18c0-9.47-5.51-15.2-18.06-15.2-14.32,0-21.58,7.05-24.23,17.4l-28.19-6.17c1.76-17.18,20.05-33.7,52.2-33.7s49.12,13.66,49.12,42.73v40.31c0,5.51.66,6.61,6.61,6.61h9.69v23.79h-12.99c-19.38,0-23.57-6.61-24.01-22.91h-10.35c-4.41,14.32-14.76,26.43-33.7,26.43-20.27,0-35.24-12.33-35.24-31.72ZM676.56,113.13v-7.05c-20.26,2.42-37.44,6.39-37.44,20.93,0,7.27,4.85,11.89,14.32,11.89,12.11,0,23.13-7.93,23.13-25.77Z"/><path class="cls-1" d="M737.67,158.28V.53h31.28v157.75h-31.28Z"/><path class="cls-1" d="M782.63,103c0-34.58,23.79-58.15,55.73-58.15,37,0,56.39,29.07,53.3,65.86h-77.75c.88,19.38,11.23,27.31,24.67,27.31,14.1,0,20.93-8.81,25.55-19.16l27.97,10.79c-6.17,14.1-20.04,32.16-53.52,32.16s-55.94-22.69-55.94-58.81ZM860.82,88.68c-1.32-13.66-9.25-21.37-22.47-21.37s-21.15,7.49-23.35,21.37h45.81Z"/><path class="cls-1" d="M905.19,158.28V48.15h28.19c-.22,7.27-4.85,16.74-10.79,25.33h13.65c5.07-15.64,16.08-28.63,33.7-28.63,24.23,0,37.44,16.08,37.44,40.53v72.91h-31.28v-66.96c0-14.54-6.83-20.7-17.62-20.7-21.81,0-22.03,23.79-22.03,35.46v52.2h-31.28Z"/><path class="cls-1" d="M1072.01,158.28c-17.84,0-27.97-11.67-27.97-28.85v-57.49h-23.13v-23.79h23.13V13.57h31.28v34.58h28.63v23.79h-28.63v51.76c0,6.61,2.86,9.69,9.69,9.69h23.79v24.89h-36.78Z"/></g></g></svg>