<svg width="165" height="44" viewBox="0 0 165 44" fill="none" xmlns="http://www.w3.org/2000/svg">
<path d="M47.3309 22.9422C47.3309 20.6917 47.8334 18.6814 48.8384 16.9115C49.8653 15.1198 51.2529 13.7323 53.001 12.749C54.7708 11.7439 56.7483 11.2413 58.9334 11.2413C61.49 11.2413 63.7296 11.8969 65.6525 13.2079C67.5752 14.5189 68.919 16.3325 69.6838 18.6486H64.407C63.8825 17.556 63.1396 16.7367 62.1782 16.1905C61.2385 15.6442 60.1459 15.3711 58.9007 15.3711C57.5677 15.3711 56.377 15.6879 55.3279 16.3216C54.301 16.9334 53.4926 17.8074 52.9027 18.9436C52.3346 20.0798 52.0504 21.4126 52.0504 22.9422C52.0504 24.45 52.3346 25.7827 52.9027 26.9407C53.4926 28.0771 54.301 28.962 55.3279 29.5956C56.377 30.2076 57.5677 30.5134 58.9007 30.5134C60.1459 30.5134 61.2385 30.2402 62.1782 29.694C63.1396 29.1258 63.8825 28.2956 64.407 27.2032H69.6838C68.919 29.5411 67.5752 31.3656 65.6525 32.6766C63.7514 33.9657 61.5116 34.6104 58.9334 34.6104C56.7483 34.6104 54.7708 34.1188 53.001 33.1356C51.2529 32.1305 49.8653 30.743 48.8384 28.973C47.8334 27.2032 47.3309 25.1928 47.3309 22.9422ZM77.8639 19.0747C78.4538 18.1133 79.2187 17.3594 80.1581 16.8132C81.1195 16.2669 82.2121 15.9938 83.4358 15.9938V20.8119H82.2231C80.7809 20.8119 79.6884 21.1505 78.9456 21.8279C78.2245 22.5052 77.8639 23.6851 77.8639 25.3676V34.4138H73.2752V16.256H77.8639V19.0747ZM103.34 16.256V34.4138H98.719V32.1194C98.1291 32.9061 97.3533 33.5287 96.3918 33.9877C95.4524 34.4246 94.4255 34.6431 93.3111 34.6431C91.8906 34.6431 90.6344 34.3481 89.5418 33.7582C88.4493 33.1464 87.5862 32.2614 86.9524 31.1033C86.3407 29.9234 86.0349 28.5251 86.0349 26.9081V16.256H90.6232V26.2526C90.6232 27.6947 90.9838 28.809 91.7049 29.5956C92.426 30.3606 93.4093 30.743 94.6548 30.743C95.9222 30.743 96.9162 30.3606 97.6373 29.5956C98.3586 28.809 98.719 27.6947 98.719 26.2526V16.256H103.34ZM114.488 34.7088C113.002 34.7088 111.67 34.4465 110.49 33.922C109.31 33.3757 108.37 32.6438 107.671 31.7262C106.994 30.8083 106.622 29.7924 106.557 28.6781H111.178C111.265 29.3772 111.604 29.9563 112.194 30.415C112.806 30.8738 113.56 31.1033 114.456 31.1033C115.33 31.1033 116.007 30.9287 116.488 30.5789C116.99 30.2294 117.242 29.7814 117.242 29.2352C117.242 28.6452 116.936 28.2083 116.324 27.9243C115.734 27.6182 114.783 27.2905 113.472 26.9407C112.118 26.6131 111.003 26.2745 110.129 25.925C109.277 25.5752 108.534 25.0399 107.9 24.3188C107.289 23.5978 106.983 22.6254 106.983 21.4018C106.983 20.3966 107.267 19.479 107.835 18.6486C108.425 17.8184 109.255 17.1628 110.326 16.6821C111.418 16.2014 112.697 15.961 114.161 15.961C116.324 15.961 118.05 16.5073 119.339 17.5999C120.628 18.6704 121.339 20.1236 121.47 21.9589H117.078C117.012 21.2378 116.706 20.6699 116.16 20.2546C115.636 19.8176 114.925 19.5992 114.03 19.5992C113.199 19.5992 112.555 19.7522 112.096 20.058C111.659 20.3639 111.44 20.79 111.44 21.3363C111.44 21.9481 111.746 22.4179 112.358 22.7457C112.97 23.0515 113.92 23.3683 115.209 23.6962C116.52 24.0239 117.602 24.3625 118.454 24.7121C119.306 25.0618 120.038 25.608 120.65 26.3508C121.284 27.0719 121.612 28.0333 121.634 29.2352C121.634 30.2839 121.339 31.2236 120.748 32.0539C120.18 32.8843 119.35 33.5399 118.258 34.0205C117.187 34.4793 115.93 34.7088 114.488 34.7088ZM133.135 34.7088C131.387 34.7088 129.814 34.3263 128.415 33.5617C127.017 32.775 125.914 31.6714 125.105 30.2512C124.319 28.8309 123.925 27.192 123.925 25.3349C123.925 23.4776 124.329 21.8388 125.138 20.4186C125.968 18.9982 127.094 17.9057 128.514 17.1409C129.934 16.3543 131.518 15.961 133.266 15.961C135.014 15.961 136.598 16.3543 138.019 17.1409C139.439 17.9057 140.553 18.9982 141.362 20.4186C142.192 21.8388 142.607 23.4776 142.607 25.3349C142.607 27.192 142.181 28.8309 141.329 30.2512C140.499 31.6714 139.363 32.775 137.92 33.5617C136.5 34.3263 134.905 34.7088 133.135 34.7088ZM133.135 30.71C133.965 30.71 134.741 30.5134 135.462 30.1201C136.205 29.705 136.795 29.0932 137.232 28.2846C137.669 27.4762 137.888 26.4931 137.888 25.3349C137.888 23.6088 137.429 22.2867 136.511 21.369C135.615 20.4294 134.512 19.9596 133.201 19.9596C131.89 19.9596 130.786 20.4294 129.891 21.369C129.016 22.2867 128.579 23.6088 128.579 25.3349C128.579 27.0612 129.005 28.3939 129.857 29.3337C130.732 30.2512 131.824 30.71 133.135 30.71ZM162.525 24.9414C162.525 25.597 162.481 26.187 162.394 26.7114H149.12C149.229 28.0225 149.688 29.0495 150.496 29.7924C151.305 30.5352 152.299 30.9068 153.479 30.9068C155.183 30.9068 156.396 30.1749 157.117 28.7107H162.066C161.542 30.4589 160.537 31.9009 159.051 33.0371C157.565 34.1515 155.74 34.7088 153.577 34.7088C151.829 34.7088 150.256 34.3263 148.858 33.5617C147.481 32.775 146.399 31.6714 145.613 30.2512C144.848 28.8309 144.466 27.192 144.466 25.3349C144.466 23.4558 144.848 21.8061 145.613 20.3858C146.377 18.9654 147.448 17.873 148.825 17.1083C150.201 16.3434 151.786 15.961 153.577 15.961C155.304 15.961 156.844 16.3325 158.199 17.0754C159.575 17.8184 160.635 18.8781 161.378 20.2546C162.143 21.6095 162.525 23.1718 162.525 24.9414ZM157.772 23.6306C157.751 22.4505 157.324 21.5111 156.494 20.8119C155.664 20.0908 154.648 19.7302 153.446 19.7302C152.31 19.7302 151.349 20.0798 150.562 20.779C149.797 21.4565 149.327 22.4069 149.153 23.6306H157.772Z" fill="black"/>
<path d="M17.5035 43.9953L5.14811 33.3944C-1.71604 27.5429 -1.71604 18.0431 5.14811 12.1917L17.5035 1.6593H17.5844L29.9398 12.1917C36.8041 18.0431 36.8041 27.5429 29.9398 33.3944L17.5035 43.9953Z" fill="url(#paint0_linear_2060_636)"/>
<path d="M34.7023 35.5385C35.5121 35.5385 36.2355 35.7177 36.8722 36.0758C37.5227 36.4344 38.0272 36.9388 38.3858 37.5894C38.7439 38.226 38.9231 38.9564 38.9231 39.7792C38.9231 40.589 38.7439 41.3124 38.3858 41.9491C38.0272 42.5864 37.5227 43.0909 36.8722 43.4627C36.2355 43.8208 35.5121 44 34.7023 44C33.8927 44 33.1623 43.8208 32.5125 43.4627C31.8751 43.0909 31.3707 42.5864 30.9989 41.9491C30.6408 41.3124 30.4615 40.589 30.4615 39.7792C30.4615 38.9564 30.6408 38.226 30.9989 37.5894C31.3707 36.9388 31.8751 36.4344 32.5125 36.0758C33.1623 35.7177 33.8927 35.5385 34.7023 35.5385ZM34.7023 42.9846C35.6579 42.9846 36.4212 42.6927 36.9918 42.1088C37.5762 41.5113 37.8681 40.7349 37.8681 39.7792C37.8681 38.8104 37.5762 38.0336 36.9918 37.4497C36.4212 36.8527 35.6579 36.5538 34.7023 36.5538C33.7467 36.5538 32.9836 36.8527 32.4124 37.4497C31.8418 38.0336 31.5568 38.8104 31.5568 39.7792C31.5568 40.7481 31.8418 41.5245 32.4124 42.1088C32.9836 42.6927 33.7467 42.9846 34.7023 42.9846ZM36.574 38.9828C36.574 39.2747 36.5009 39.5271 36.355 39.7396C36.2223 39.9517 36.0297 40.1109 35.7776 40.2172L36.8124 41.8497H35.2597L34.4036 40.3568H34.2841V41.8497H32.9503V37.5894H35.0408C35.5051 37.5894 35.8769 37.722 36.1557 37.9876C36.4344 38.2392 36.574 38.5714 36.574 38.9828ZM34.2645 39.3609H34.9011C34.9942 39.3609 35.0741 39.3345 35.1403 39.2817C35.2069 39.2282 35.2396 39.1488 35.2396 39.0425C35.2396 38.8432 35.1271 38.7439 34.9011 38.7439H34.2645V39.3609Z" fill="black"/>
<defs>
<linearGradient id="paint0_linear_2060_636" x1="30.2402" y1="11.9193" x2="5.40003" y2="34.5994" gradientUnits="userSpaceOnUse">
<stop stop-color="#F4BF45"/>
<stop offset="0.346856" stop-color="#E48047"/>
<stop offset="0.694794" stop-color="#C73361"/>
<stop offset="1" stop-color="#A42F5F"/>
</linearGradient>
</defs>
</svg>
