<svg width="243" height="80" viewBox="0 0 243 80" fill="none" xmlns="http://www.w3.org/2000/svg">
<g clip-path="url(#clip0_407_22)">
<mask id="mask0_407_22" style="mask-type:luminance" maskUnits="userSpaceOnUse" x="0" y="0" width="243" height="80">
<path d="M243 0H0V80H243V0Z" fill="white"/>
</mask>
<g mask="url(#mask0_407_22)">
<path d="M-0.125122 62.7502V45.4449L22.3556 0H52.9406V17.3131L30.4713 62.7502H-0.125122Z" fill="black"/>
<path d="M105.934 62.164H96.5927V56.0738H96.4198C95.0936 58.684 93.162 60.5689 90.6249 61.7291C88.088 62.8311 85.4068 63.3822 82.5813 63.3822C79.064 63.3822 75.9793 62.7731 73.3268 61.5551C70.7322 60.2789 68.57 58.568 66.84 56.4218C65.1103 54.2758 63.8129 51.7524 62.9481 48.8524C62.0832 45.8942 61.6507 42.7331 61.6507 39.3689C61.6507 35.3087 62.1985 31.7996 63.294 28.8413C64.3895 25.8831 65.8311 23.4471 67.6185 21.533C69.4635 19.6189 71.5394 18.2268 73.8459 17.3568C76.2099 16.4287 78.6028 15.9647 81.0246 15.9647C82.4084 15.9647 83.8211 16.1097 85.2625 16.3997C86.7042 16.6317 88.0879 17.0377 89.4141 17.6178C90.7402 18.1978 91.9512 18.9518 93.0467 19.8799C94.1998 20.7499 95.1513 21.794 95.9008 23.012H96.0738V0.0428619H105.934V62.164ZM71.5105 40.152C71.5105 42.066 71.7413 43.9511 72.2026 45.8073C72.7215 47.6633 73.4711 49.3164 74.4512 50.7664C75.4891 52.2167 76.7865 53.3767 78.3434 54.2467C79.9002 55.1167 81.7452 55.5518 83.8787 55.5518C86.0697 55.5518 87.9437 55.0878 89.5007 54.1596C91.1151 53.2316 92.4125 52.0136 93.3926 50.5056C94.4305 48.9973 95.1802 47.3153 95.6415 45.4591C96.1604 43.5451 96.4198 41.602 96.4198 39.63C96.4198 34.6416 95.2955 30.7556 93.0467 27.9713C90.8555 25.1871 87.8573 23.7951 84.0517 23.7951C81.7452 23.7951 79.7849 24.2882 78.1705 25.2742C76.6135 26.2022 75.3161 27.4493 74.2783 29.0153C73.2981 30.5233 72.5773 32.2636 72.116 34.2356C71.7124 36.1498 71.5105 38.1218 71.5105 40.152Z" fill="black"/>
<path d="M150.678 52.1587C150.678 53.3767 150.822 54.2467 151.11 54.7687C151.456 55.2907 152.09 55.5518 153.013 55.5518C153.301 55.5518 153.647 55.5518 154.051 55.5518C154.454 55.5518 154.916 55.4938 155.435 55.3778V62.2511C155.089 62.3671 154.627 62.4831 154.051 62.5991C153.532 62.7731 152.984 62.9182 152.407 63.0342C151.831 63.1502 151.254 63.2371 150.678 63.2951C150.101 63.3531 149.611 63.3822 149.207 63.3822C147.189 63.3822 145.517 62.9762 144.191 62.164C142.865 61.352 142 59.9309 141.596 57.9009C139.636 59.8149 137.214 61.2071 134.331 62.0771C131.506 62.9471 128.767 63.3822 126.114 63.3822C124.096 63.3822 122.165 63.0922 120.319 62.512C118.474 61.99 116.831 61.2071 115.39 60.1629C114.006 59.0609 112.881 57.6978 112.016 56.0738C111.209 54.3918 110.806 52.4487 110.806 50.2444C110.806 47.4602 111.296 45.1982 112.276 43.458C113.314 41.718 114.64 40.3549 116.255 39.3689C117.927 38.3829 119.772 37.6869 121.79 37.2809C123.866 36.8167 125.941 36.4687 128.017 36.2367C129.805 35.8887 131.506 35.6567 133.12 35.5407C134.735 35.3667 136.147 35.1058 137.358 34.7576C138.627 34.4096 139.607 33.8876 140.299 33.1916C141.048 32.4376 141.423 31.3356 141.423 29.8853C141.423 28.6093 141.106 27.5653 140.472 26.7533C139.895 25.9411 139.146 25.3322 138.223 24.9262C137.358 24.4622 136.378 24.172 135.282 24.056C134.187 23.882 133.149 23.7951 132.169 23.7951C129.401 23.7951 127.123 24.3751 125.336 25.5351C123.548 26.6953 122.539 28.4933 122.309 30.9296H112.449C112.622 28.0293 113.314 25.6222 114.525 23.708C115.736 21.794 117.264 20.2569 119.109 19.0968C121.012 17.9368 123.145 17.1248 125.509 16.6607C127.873 16.1967 130.295 15.9647 132.774 15.9647C134.965 15.9647 137.128 16.1967 139.261 16.6607C141.394 17.1248 143.297 17.8788 144.969 18.9228C146.699 19.9669 148.083 21.33 149.121 23.012C150.159 24.6362 150.678 26.6373 150.678 29.0153V52.1587ZM140.818 39.63C139.319 40.616 137.473 41.2249 135.282 41.4571C133.091 41.6311 130.9 41.9211 128.709 42.3271C127.671 42.5011 126.662 42.762 125.682 43.11C124.702 43.4 123.837 43.8351 123.087 44.4151C122.338 44.9371 121.732 45.6622 121.271 46.5902C120.867 47.4602 120.665 48.5333 120.665 49.8093C120.665 50.9116 120.983 51.8396 121.617 52.5936C122.251 53.3476 123.001 53.9567 123.866 54.4207C124.788 54.8267 125.768 55.1167 126.806 55.2907C127.902 55.4647 128.882 55.5518 129.747 55.5518C130.842 55.5518 132.025 55.4067 133.293 55.1167C134.562 54.8267 135.744 54.3338 136.839 53.6376C137.992 52.9416 138.944 52.0716 139.693 51.0276C140.443 49.9256 140.818 48.5913 140.818 47.0253V39.63Z" fill="black"/>
<path d="M158.087 0.0428619H167.947V9.43936H158.087V0.0428619ZM158.087 17.1828H167.947V62.164H158.087V17.1828Z" fill="black"/>
<path d="M175.49 0.0428619H185.35V62.164H175.49V0.0428619Z" fill="black"/>
<path d="M187.703 17.1828H198.514L210.191 50.7664H210.364L221.693 17.1828H231.985L214.601 64.6002C213.794 66.6302 212.987 68.5733 212.18 70.4296C211.43 72.2856 210.479 73.9098 209.326 75.3018C208.23 76.7518 206.846 77.8829 205.174 78.6949C203.502 79.5649 201.368 80 198.774 80C196.467 80 194.19 79.826 191.941 79.478V71.1256C192.748 71.2416 193.527 71.3576 194.276 71.4736C195.026 71.6476 195.804 71.7347 196.612 71.7347C197.765 71.7347 198.716 71.5896 199.466 71.2996C200.215 71.0096 200.821 70.5744 201.282 69.9944C201.801 69.4724 202.233 68.8344 202.579 68.0804C202.925 67.3264 203.242 66.4562 203.531 65.4702L204.655 61.99L187.703 17.1828Z" fill="black"/>
<path d="M239.781 21.0476L238.456 17.9449H239.057L239.949 20.1455L240.837 17.9449H241.436L240.117 21.0476H239.781ZM238.31 21.0476V17.9449H238.926V21.0476H238.31ZM240.968 21.0476V17.9449H241.584V21.0476H240.968ZM236.218 21.0476V18.2147H236.834V21.0476H236.218ZM235.279 18.476V17.9449H237.773V18.476H235.279Z" fill="black"/>
</g>
</g>
<defs>
<clipPath id="clip0_407_22">
<rect width="243" height="80" fill="white"/>
</clipPath>
</defs>
</svg>
