<svg width="302" height="28" viewBox="0 0 302 28" fill="none" xmlns="http://www.w3.org/2000/svg">
<path d="M180.192 4.84333V0.000717163H156.919L150.598 4.84333V11.4931L156.919 16.3357H177.201V23.1616H151.855V27.9993H175.757L182.078 23.1616V16.3357L175.757 11.4931H155.474V4.84333H180.192Z" fill="black"/>
<path d="M58.3712 0.000717163H53.9314L37.647 27.9993H43.2779L56.1614 5.85515L69.0298 27.9993H74.6556L58.3712 0.000717163Z" fill="black"/>
<path d="M106.778 0.000717163H75.2993V4.84333H88.6035V27.9993H93.4741V4.84333H106.778V0.000717163Z" fill="black"/>
<path d="M221.378 0.000717163H189.904V4.84333H203.201V27.9993H208.078V4.84333H221.378V0.000717163Z" fill="black"/>
<path d="M25.1589 0.000869751H0V27.9994H25.1589L31.479 23.1568V4.84348L25.1589 0.000869751ZM4.87568 4.84348H26.6034V23.1618H4.87568V4.84348Z" fill="black"/>
<path d="M278.952 14L276.135 9.15738V9.16242L270.808 0.000717163H265.177L273.322 14L265.177 27.9993H270.808L276.135 18.8426L278.952 14Z" fill="black"/>
<path d="M286.961 14L289.778 9.15738V9.16242L295.11 0.000717163H300.736L292.597 14L300.736 27.9993H295.11L289.778 18.8426L286.961 14Z" fill="black"/>
<path d="M123.706 0.000717163H128.146L144.43 27.9993H138.8L125.916 5.85515L113.048 27.9993H107.422L123.706 0.000717163Z" fill="black"/>
<path d="M238.304 0.000717163H242.745L259.029 27.9993H253.403L240.514 5.85515L227.652 27.9993H222.021L238.304 0.000717163Z" fill="black"/>
</svg>
