<svg width="367" height="93" viewBox="0 0 367 93" fill="none" xmlns="http://www.w3.org/2000/svg">
<g clip-path="url(#clip0_407_368)">
<path fill-rule="evenodd" clip-rule="evenodd" d="M119.599 66.2063H102.453V26.7983H119.599C131.95 26.7983 138.135 33.0093 138.135 45.4267C138.13 59.2767 131.95 66.2063 119.599 66.2063ZM109.779 59.8626H118.49C126.696 59.8626 130.795 55.0521 130.795 45.4221C130.795 37.2247 126.692 33.1238 118.49 33.1238H109.779V59.8626Z" fill="#632CA6"/>
<path fill-rule="evenodd" clip-rule="evenodd" d="M145.81 66.2063H138.282L155.075 26.7983H162.956L180.107 66.2063H172.226L167.247 55.4595H154.58L157.097 49.1204H165.313L158.839 34.3183L145.81 66.2063Z" fill="#632CA6"/>
<path fill-rule="evenodd" clip-rule="evenodd" d="M175.967 26.7983H205.978V33.1329H194.641V66.2063H187.314V33.1329H175.967V26.7983Z" fill="#632CA6"/>
<path fill-rule="evenodd" clip-rule="evenodd" d="M209.747 66.2063H202.219L219.013 26.7983H226.894L244.045 66.2063H236.155L231.176 55.4595H218.508L221.025 49.1204H229.241L222.772 34.3183L209.747 66.2063Z" fill="#632CA6"/>
<path fill-rule="evenodd" clip-rule="evenodd" d="M266.056 66.2063H248.909V26.7983H266.056C278.416 26.7983 284.591 33.0093 284.591 45.4267C284.591 59.2767 278.416 66.2063 266.056 66.2063ZM256.24 59.8626H264.951C273.153 59.8626 277.265 55.0521 277.265 45.4221C277.265 37.2247 273.157 33.1238 264.951 33.1238H256.24V59.8626Z" fill="#632CA6"/>
<path fill-rule="evenodd" clip-rule="evenodd" d="M289.556 46.5573C289.556 33.1924 296.181 26.5146 309.422 26.5146C322.46 26.5146 328.97 33.1924 328.97 46.5573C328.97 59.8443 322.456 66.4901 309.422 66.4901C296.768 66.4901 290.148 59.8443 289.556 46.5573ZM309.422 60.1372C317.38 60.1372 321.365 55.5556 321.365 46.3833C321.365 37.3575 317.38 32.84 309.422 32.84C301.252 32.84 297.167 37.3575 297.167 46.3833C297.167 55.5556 301.252 60.1372 309.422 60.1372Z" fill="#632CA6"/>
<path fill-rule="evenodd" clip-rule="evenodd" d="M359.555 50.26V59.4873C357.863 59.9267 356.35 60.1464 355.016 60.1464C346.053 60.1464 341.578 55.4137 341.578 45.9531C341.578 37.2156 346.328 32.8537 355.823 32.8537C359.788 32.8537 363.474 33.5906 366.885 35.0598V28.4415C363.474 27.1599 359.6 26.5146 355.268 26.5146C341.069 26.5146 333.968 32.991 333.968 45.9531C333.968 59.6383 340.946 66.4901 354.906 66.4901C359.706 66.4901 363.694 65.7944 366.885 64.3938V43.7744H355.048L352.572 50.2555L359.555 50.26Z" fill="#632CA6"/>
<path fill-rule="evenodd" clip-rule="evenodd" d="M72.8361 65.982L65.1018 60.8924L58.6512 71.6483L51.1508 69.4605L44.5443 79.5253L44.8836 82.6926L80.795 76.088L78.709 53.6882L72.8361 65.982ZM39.3453 56.3291L45.1082 55.5373C46.0389 55.9538 46.6899 56.114 47.8086 56.3978C49.5507 56.8509 51.5634 57.2857 54.548 55.7844C55.2403 55.4412 56.689 54.1184 57.2713 53.3678L80.8775 49.0929L83.2845 78.1888L42.8434 85.4663L39.3453 56.3291ZM83.1928 45.8432L80.8638 46.2872L76.3892 0.114441L0.114616 8.94347L9.51312 85.0726L18.4394 83.7774C17.7288 82.7613 16.6147 81.5301 14.7213 79.9556C12.0897 77.7769 13.0204 74.0696 14.5746 71.7307C16.6239 67.7808 27.2006 62.7552 26.6001 56.439C26.3846 54.1413 26.0178 51.1525 23.8814 49.102C23.8034 49.9534 23.9455 50.7726 23.9455 50.7726C23.9455 50.7726 23.0699 49.6559 22.6298 48.1317C22.1942 47.5459 21.855 47.3628 21.3919 46.5801C21.0618 47.4818 21.1077 48.5299 21.1077 48.5299C21.1077 48.5299 20.3925 46.8364 20.2733 45.4084C19.8469 46.0492 19.7414 47.2621 19.7414 47.2621C19.7414 47.2621 18.8108 44.5937 19.0217 43.1565C18.5953 41.907 17.3345 39.4263 17.6921 33.7874C20.0211 35.4168 25.1467 35.0278 27.141 32.0893C27.8058 31.1144 28.2597 28.4598 26.8109 23.2283C25.8803 19.8733 23.5788 14.8753 22.6802 12.9758L22.5747 13.0536C23.047 14.5823 24.0235 17.7816 24.3994 19.3378C25.5318 24.0476 25.8344 25.6861 25.3026 27.8556C24.8487 29.7413 23.7667 30.9771 21.016 32.3594C18.2652 33.7462 14.6158 30.373 14.382 30.1899C11.7092 28.0662 9.64149 24.5968 9.41226 22.9125C9.17385 21.0679 10.4759 19.9603 11.1361 18.4545C10.1962 18.7245 9.14635 19.2005 9.14635 19.2005C9.14635 19.2005 10.398 17.9052 11.943 16.7884C12.5848 16.3674 12.9562 16.0973 13.6301 15.5389C12.6536 15.5252 11.8605 15.5481 11.8605 15.5481C11.8605 15.5481 13.488 14.6693 15.1751 14.0331C13.9419 13.9782 12.759 14.0239 12.759 14.0239C12.759 14.0239 16.3901 12.4037 19.2555 11.2137C21.2269 10.4081 23.1524 10.6461 24.2344 12.2069C25.6556 14.2528 27.1456 15.365 30.309 16.0561C32.2529 15.1956 32.8397 14.7563 35.2788 14.0926C37.4244 11.7354 39.1115 11.4288 39.1115 11.4288C39.1115 11.4288 38.2771 12.1931 38.0525 13.3969C39.272 12.4403 40.6061 11.6393 40.6061 11.6393C40.6061 11.6393 40.088 12.2755 39.6067 13.287L39.7167 13.4518C41.1379 12.6005 42.8067 11.9322 42.8067 11.9322C42.8067 11.9322 42.3299 12.5364 41.7706 13.3145C42.8434 13.3053 45.0165 13.3603 45.8555 13.4564C50.8344 13.5662 51.866 8.14707 53.7778 7.46967C56.1709 6.61835 57.2392 6.10115 61.3149 10.0969C64.813 13.5296 67.5454 19.6674 66.1884 21.045C65.0514 22.1847 62.8049 20.6011 60.32 17.5025C59.0043 15.8639 58.014 13.9278 57.5463 11.4654C57.1521 9.38744 55.6254 8.18369 55.6254 8.18369C55.6254 8.18369 56.5102 10.1564 56.5102 11.8956C56.5102 12.8476 56.6294 16.3994 58.1561 18.3904C58.0048 18.6833 57.936 19.8321 57.7664 20.0518C55.9921 17.9098 52.1777 16.3765 51.5588 15.9234C53.6631 17.6443 58.4999 21.5989 60.3567 25.3886C62.1126 28.9724 61.0765 32.2587 61.9659 33.11C62.2181 33.3526 65.7437 37.7374 66.4222 39.9435C67.605 43.7836 66.491 47.8205 64.9459 50.3241L60.6226 50.9969C59.9899 50.823 59.5636 50.7314 58.9951 50.4065C59.3068 49.8527 59.9303 48.475 59.9349 48.1912L59.6919 47.7656C58.3441 49.6696 56.093 51.5187 54.2179 52.5806C51.7651 53.9674 48.941 53.7523 47.1025 53.1847C41.8806 51.5782 36.943 48.0539 35.7556 47.1294C35.7556 47.1294 35.7189 47.8662 35.9435 48.0356C37.2593 49.5185 40.276 52.2007 43.1918 54.0681L36.9797 54.7501L39.9184 77.5847C38.6164 77.7723 38.4147 77.8639 36.9888 78.0653C35.7326 73.6347 33.3303 70.7375 30.7033 69.0532C28.3881 67.5656 25.1926 67.2315 22.13 67.8357L21.9329 68.0645C24.0602 67.8448 26.5725 68.1515 29.1491 69.7809C31.6798 71.3783 33.72 75.5067 34.4719 77.992C35.4346 81.1685 36.0994 84.5646 33.5091 88.1667C31.6661 90.7252 26.2929 92.1395 21.9466 89.0821C23.1066 90.9449 24.6745 92.4691 26.7834 92.7528C29.9193 93.1785 32.8948 92.6338 34.9395 90.5376C36.6862 88.7434 37.6169 84.9903 37.3694 81.0403L40.1339 80.6421L41.1333 87.7319L86.9247 82.2258L83.1928 45.8432ZM55.332 26.5832C55.2036 26.8761 55.0019 27.0638 55.3044 28.0112L55.3228 28.0662L55.3686 28.1897L55.4924 28.4735C56.038 29.5811 56.634 30.6293 57.6289 31.1648C57.8856 31.1236 58.1561 31.0916 58.4312 31.0778C59.3664 31.0366 59.9579 31.1831 60.3338 31.3891C60.3659 31.2014 60.3751 30.9314 60.3521 30.5286C60.2788 29.1234 60.6318 26.7343 57.9269 25.4756C56.9045 25.0041 55.4741 25.146 54.9973 25.741C55.0844 25.7502 55.1623 25.7685 55.2219 25.7914C55.9509 26.0385 55.4649 26.2857 55.332 26.5832ZM62.9149 39.6963C62.5619 39.4995 60.9023 39.5773 59.7378 39.7146C57.5188 39.9755 55.1211 40.7444 54.5938 41.1518C53.6402 41.8887 54.0712 43.1748 54.7772 43.7012C56.7578 45.175 58.4908 46.1682 60.32 45.9256C61.4433 45.7791 62.4336 44.0033 63.135 42.3876C63.621 41.2799 63.621 40.0854 62.9149 39.6963ZM43.2606 28.3225C43.8887 27.7275 40.1431 26.9494 37.2364 28.9266C35.0954 30.3867 35.0266 33.5174 37.0759 35.2887C37.2823 35.4626 37.4519 35.5907 37.6078 35.6914C38.2083 35.4077 38.8915 35.1239 39.6754 34.8722C41.005 34.4419 42.1053 34.2176 43.013 34.1032C43.4486 33.6181 43.9529 32.7667 43.8245 31.2243C43.6549 29.1234 42.064 29.4576 43.2606 28.3225Z" fill="#632CA6"/>
</g>
<defs>
<clipPath id="clip0_407_368">
<rect width="367" height="93" fill="white"/>
</clipPath>
</defs>
</svg>
