<svg width="334" height="80" viewBox="0 0 334 80" fill="none" xmlns="http://www.w3.org/2000/svg">
<g clip-path="url(#clip0_407_157)">
<path d="M31.5602 53.462H4.02408V62.8403H31.5602V53.462Z" fill="black"/>
<path d="M72.4674 20.638H40.9976V30.0163H72.4674V20.638Z" fill="black"/>
<path d="M47.8411 0.318393L24.4759 23.5285L31.1517 30.16L54.5168 6.94987L47.8411 0.318393Z" fill="black"/>
<path d="M6.67574 29.149L24.62 46.9742L17.9442 53.6057L-2.12911e-05 35.7805L6.67574 29.149Z" fill="black"/>
<path d="M29.3093 78.8828L48.224 60.0936L41.5482 53.4621L22.6336 72.2513L29.3093 78.8828Z" fill="black"/>
<path d="M69.2197 57.6477L48.0798 36.648L54.7556 30.0165L75.8955 51.0162L69.2197 57.6477Z" fill="black"/>
<path d="M24.4759 36.2688V13.6045H15.0349L15.0349 36.2688H24.4759Z" fill="black"/>
<path d="M57.522 74.5635V46.4284H48.081V74.5635H57.522Z" fill="black"/>
<path fill-rule="evenodd" clip-rule="evenodd" d="M99.3138 64.4803C103.774 64.4803 107.522 64.4803 110.657 64.4803C117.075 64.578 121.899 64.2227 125.328 62.7568C128.806 61.2419 131.255 58.7253 132.676 55.207C134.146 51.6887 134.881 46.6067 134.881 39.9609C134.881 33.8037 134.268 28.6951 133.044 25.2256C131.819 21.7561 129.737 19.1907 126.797 17.5292C123.907 15.8189 119.792 14.695 114.452 14.1575C112.003 13.9131 109.627 13.791 107.324 13.791C105.021 13.7421 102.287 13.7909 99.3138 13.7909V64.4803ZM121.727 55.7201C119.964 56.844 117.514 57.5037 114.379 57.6992C113.447 57.7969 112.444 57.8213 111.365 57.7724C110.337 57.7236 109.038 57.6503 107.471 57.5526V21.123C109.528 21.123 111.782 21.2452 114.231 21.4895C117.514 21.8804 120.036 22.6623 121.8 23.8351C123.564 25.0079 124.813 26.8159 125.548 29.2592C126.283 31.6537 126.651 35.0254 126.651 39.3745C126.651 43.9679 126.259 47.5595 125.475 50.1494C124.74 52.6904 123.491 54.5474 121.727 55.7201Z" fill="black"/>
<path fill-rule="evenodd" clip-rule="evenodd" d="M141.917 63.8563C143.779 64.5404 146.399 64.8825 149.78 64.8825C152.768 64.8825 155.046 64.516 156.614 63.783C158.181 63.0011 159.627 61.584 160.949 59.5316H161.538V64.5181H168.739V38.5682C168.739 35.001 168.274 32.2644 167.343 30.3587C166.412 28.4041 164.82 27.0358 162.566 26.2539C160.362 25.4233 157.227 25.0079 153.16 25.0079C149.143 25.0079 146.032 25.3744 143.828 26.1074C141.672 26.7915 140.153 27.9887 139.271 29.699C138.389 31.3604 137.798 33.7604 137.798 36.8823H145.958C145.958 34.8299 146.449 33.4372 147.428 32.7043C148.457 31.9713 150.368 31.6048 153.16 31.6048C155.267 31.6048 156.908 31.8247 158.084 32.2644C159.26 32.7043 160.092 33.4128 160.582 34.3901C161.072 35.3675 161.317 36.7602 161.317 38.5682V39.5944H155.071C150.319 39.5944 146.644 40.0097 144.048 40.8404C141.452 41.6223 139.614 43.015 138.537 45.0185C137.459 46.9732 136.92 49.734 136.92 53.3012C136.92 56.3309 137.287 58.6765 138.022 60.338C138.806 61.9994 140.104 63.1722 141.917 63.8563ZM157.276 57.0395C155.904 57.7724 153.919 58.139 151.323 58.139C148.775 58.139 147.036 57.7481 146.106 56.9662C145.175 56.1843 144.709 54.7428 144.709 52.6416C144.709 50.9313 144.979 49.6363 145.517 48.7567C146.057 47.8283 146.939 47.1686 148.164 46.7777C149.437 46.3867 151.225 46.1668 153.528 46.118L161.244 46.0447C161.146 49.221 160.803 51.6643 160.215 53.3746C159.627 55.0849 158.647 56.3065 157.276 57.0395Z" fill="black"/>
<path fill-rule="evenodd" clip-rule="evenodd" d="M234.766 63.1233C237.265 64.2961 240.817 64.8825 245.422 64.8825C249.978 64.8825 253.505 64.2961 256.004 63.1233C258.502 61.9017 260.266 59.8981 261.294 57.1128C262.372 54.2786 262.911 50.2471 262.911 45.0185C262.911 39.741 262.372 35.6851 261.294 32.8508C260.266 30.0166 258.502 28.0131 256.004 26.8403C253.554 25.6187 250.027 25.0079 245.422 25.0079C240.817 25.0079 237.265 25.6187 234.766 26.8403C232.268 28.0131 230.504 30.0166 229.476 32.8508C228.447 35.6851 227.932 39.741 227.932 45.0185C227.932 50.2471 228.447 54.2786 229.476 57.1128C230.504 59.947 232.268 61.9505 234.766 63.1233ZM251.228 56.9662C249.904 57.7481 247.969 58.139 245.422 58.139C242.875 58.139 240.915 57.7481 239.543 56.9662C238.172 56.1843 237.191 54.865 236.604 53.0081C236.016 51.1511 235.722 48.488 235.722 45.0185C235.722 41.5002 236.016 38.8125 236.604 36.9556C237.191 35.0499 238.172 33.706 239.543 32.9242C240.915 32.0934 242.875 31.6781 245.422 31.6781C247.969 31.6781 249.904 32.0934 251.228 32.9242C252.599 33.706 253.579 35.0499 254.166 36.9556C254.755 38.8125 255.048 41.5002 255.048 45.0185C255.048 48.488 254.755 51.1511 254.166 53.0081C253.579 54.865 252.599 56.1843 251.228 56.9662Z" fill="black"/>
<path d="M265.608 25.37H273.471V31.3849H274.06C275.284 28.8927 276.656 27.2068 278.174 26.3273C279.742 25.4477 281.996 25.0079 284.935 25.0079C288.462 25.0079 291.181 25.4721 293.092 26.4005C295.003 27.2802 296.374 28.7706 297.207 30.8718C298.04 32.9731 298.456 35.9783 298.456 39.8875V64.5181H290.594V39.741C290.594 37.7374 290.373 36.1738 289.932 35.0499C289.492 33.9259 288.732 33.1441 287.654 32.7043C286.576 32.2644 285.033 32.0446 283.025 32.0446C280.526 32.0446 278.591 32.4111 277.22 33.1441C275.896 33.8771 274.941 35.1231 274.353 36.8823C273.765 38.6415 273.471 41.1337 273.471 44.3587V64.5181H265.608V25.37Z" fill="black"/>
<path fill-rule="evenodd" clip-rule="evenodd" d="M306.511 63.8563C308.372 64.5404 310.994 64.8825 314.374 64.8825C317.363 64.8825 319.641 64.516 321.208 63.783C322.776 63.0011 324.221 61.584 325.544 59.5316H326.132V64.5181H333.333V38.5682C333.333 35.001 332.868 32.2644 331.937 30.3587C331.006 28.4041 329.414 27.0358 327.161 26.2539C324.956 25.4233 321.82 25.0079 317.755 25.0079C313.737 25.0079 310.627 25.3744 308.421 26.1074C306.266 26.7915 304.748 27.9887 303.866 29.699C302.984 31.3604 302.557 33.4651 302.557 36.8823H310.553C310.553 34.8299 311.043 33.4372 312.022 32.7043C313.052 31.9713 314.962 31.6048 317.755 31.6048C319.861 31.6048 321.502 31.8247 322.678 32.2644C323.853 32.7043 324.686 33.4128 325.176 34.3901C325.667 35.3675 325.911 36.7602 325.911 38.5682V39.5944H319.665C314.913 39.5944 311.239 40.0097 308.642 40.8404C306.045 41.6223 304.209 43.015 303.131 45.0185C302.053 46.9732 301.514 49.734 301.514 53.3012C301.514 56.3309 301.882 58.6765 302.616 60.338C303.4 61.9994 304.699 63.1722 306.511 63.8563ZM321.869 57.0395C320.498 57.7724 318.514 58.139 315.917 58.139C313.37 58.139 311.63 57.7481 310.7 56.9662C309.769 56.1843 309.304 54.7428 309.304 52.6416C309.304 50.9313 309.573 49.6363 310.112 48.7567C310.651 47.8283 311.532 47.1686 312.757 46.7777C314.031 46.3867 315.82 46.1668 318.122 46.118L325.838 46.0447C325.74 49.221 325.396 51.6643 324.809 53.3746C324.221 55.0849 323.241 56.3065 321.869 57.0395Z" fill="black"/>
<path d="M202.957 25.2892H195.388L187.954 57.486H185.249L178.112 25.2892H170.679L176.708 55.763C177.697 60.7641 182.084 64.3682 187.182 64.3682L185.576 69.3796C184.803 71.3689 184.5 73.4367 180.604 73.4367H175.734V79.7874L184.759 79.8799C187.48 79.8337 190.899 77.8674 193.442 69.3796L202.957 25.2892Z" fill="black"/>
<path d="M214.071 63.2892C215.803 64.1739 218.35 64.6161 221.714 64.6161H226.232V57.9083H224.163C222.184 57.9083 220.7 57.6871 219.71 57.2448C218.721 56.8026 218.053 56.1637 217.707 55.3283C217.411 54.4437 217.262 53.1907 217.262 51.569V31.8139H226.232V25.3272H217.262V17.0714H210.064V25.3272H206.511L205.172 31.8139H209.767V51.8638C209.767 55.0089 210.064 57.4906 210.658 59.3088C211.252 61.0779 212.389 62.4047 214.071 63.2892Z" fill="black"/>
</g>
<defs>
<clipPath id="clip0_407_157">
<rect width="333.333" height="80" fill="white"/>
</clipPath>
</defs>
</svg>
