<svg width="540" height="120" viewBox="0 0 540 120" fill="none" xmlns="http://www.w3.org/2000/svg">
<g clip-path="url(#clip0_947_325)">
<path d="M6.51685 80.1925H51.1292V94.2602H6.51685V80.1925ZM66.4153 30.9556H117.397V45.0233H66.4153V30.9556ZM39.6507 35.294L77.5015 0.475586L88.3153 10.4264L50.4692 45.2402L39.6507 35.294Z" fill="black"/>
<path d="M39.8862 70.4628L10.8138 43.7212L0 53.6674L29.0677 80.4089L39.8862 70.4628ZM78.1246 90.1381L47.4831 118.324L36.6646 108.378L67.3108 80.192L78.1246 90.1381ZM77.8892 54.9735L112.135 86.4735L122.949 76.5228L88.7031 45.0228L77.8892 54.9735ZM39.6508 20.4043V54.4012H24.3554V20.4043H39.6508Z" fill="black"/>
<path d="M93.1846 69.6416V111.845H77.8938V69.6416H93.1846Z" fill="black"/>
<path d="M160.888 96.72H179.266C189.66 96.8677 197.474 96.3323 203.031 94.1354C208.666 91.8646 212.635 88.0892 214.934 82.8092C217.315 77.5338 218.506 69.9092 218.506 59.94C218.506 50.7046 217.514 43.0431 215.529 37.8369C213.545 32.6354 210.175 28.7861 205.412 26.2938C200.728 23.7277 194.063 22.0431 185.409 21.2354C181.574 20.8754 177.72 20.6908 173.866 20.6861C170.132 20.6123 165.706 20.6861 160.888 20.6861V96.72ZM197.197 83.58C194.34 85.2646 190.371 86.2569 185.294 86.5477C183.785 86.6954 182.16 86.7323 180.411 86.6584C178.306 86.5615 176.206 86.4554 174.102 86.3308V31.6846C177.434 31.6846 181.089 31.8692 185.054 32.2338C190.371 32.82 194.46 33.9969 197.317 35.7554C200.174 37.5138 202.195 40.2231 203.391 43.8877C204.577 47.4784 205.172 52.5369 205.172 59.0631C205.172 65.9538 204.54 71.34 203.271 75.2261C202.08 79.0338 200.054 81.8215 197.197 83.58ZM229.906 95.7831C232.92 96.8123 237.166 97.3246 242.645 97.3246C247.486 97.3246 251.174 96.7754 253.717 95.6769C256.255 94.5 258.595 92.3769 260.737 89.2984H261.692V96.7754H273.355V57.8538C273.355 52.5 272.603 48.3969 271.094 45.54C269.589 42.6046 267.009 40.5554 263.358 39.3831C259.786 38.1369 254.709 37.5138 248.118 37.5138C241.611 37.5138 236.571 38.0631 232.998 39.1615C229.509 40.1861 227.049 41.9815 225.618 44.5477C224.192 47.04 223.232 50.64 223.232 55.3246H236.451C236.451 52.2461 237.249 50.1554 238.832 49.0569C240.498 47.9584 243.595 47.4046 248.118 47.4046C251.534 47.4046 254.192 47.7369 256.094 48.3969C258 49.0569 259.348 50.1184 260.142 51.5861C260.935 53.0538 261.332 55.14 261.332 57.8538V59.3908H251.215C243.517 59.3908 237.563 60.0138 233.358 61.26C229.149 62.4369 226.177 64.5231 224.428 67.5277C222.683 70.4584 221.811 74.6031 221.811 79.9523C221.811 84.4938 222.406 88.0154 223.597 90.5077C224.866 93 226.971 94.7585 229.906 95.7831ZM254.788 85.56C252.563 86.6584 249.351 87.2077 245.142 87.2077C241.015 87.2077 238.2 86.6215 236.691 85.4492C235.182 84.2769 234.429 82.1169 234.429 78.9646C234.429 76.3984 234.868 74.4554 235.74 73.1354C236.612 71.7415 238.038 70.7538 240.023 70.1677C242.091 69.5815 244.985 69.2492 248.714 69.1754L261.212 69.0646C261.055 73.8323 260.502 77.4969 259.551 80.0631C258.595 82.6292 257.008 84.4615 254.788 85.56ZM380.322 94.6846C384.369 96.4431 390.125 97.3246 397.583 97.3246C404.963 97.3246 410.677 96.4431 414.725 94.6846C418.772 92.8523 421.629 89.8477 423.295 85.6708C425.045 81.4154 425.917 75.3692 425.917 67.5277C425.917 59.6123 425.045 53.5292 423.295 49.2738C421.629 45.0231 418.772 42.0184 414.725 40.26C410.755 38.4277 405.042 37.5138 397.583 37.5138C390.125 37.5138 384.369 38.4277 380.322 40.26C376.274 42.0184 373.417 45.0231 371.751 49.2738C370.085 53.5292 369.249 59.6123 369.249 67.5277C369.249 75.3692 370.085 81.4154 371.751 85.6708C373.417 89.9215 376.274 92.9261 380.322 94.6846ZM406.989 85.4492C404.843 86.6215 401.709 87.2077 397.583 87.2077C393.457 87.2077 390.282 86.6215 388.062 85.4492C385.837 84.2769 384.249 82.2969 383.298 79.5138C382.348 76.7261 381.868 72.7338 381.868 67.5277C381.868 62.2523 382.348 58.2184 383.298 55.4354C384.249 52.5738 385.837 50.5569 388.062 49.3846C390.282 48.1384 393.457 47.5154 397.583 47.5154C401.709 47.5154 404.843 48.1384 406.989 49.3846C409.209 50.5615 410.797 52.5738 411.748 55.4354C412.703 58.2184 413.178 62.2523 413.178 67.5277C413.178 72.7338 412.703 76.7261 411.748 79.5138C410.797 82.2969 409.209 84.2769 406.989 85.4492Z" fill="black"/>
<path d="M430.283 38.0537H443.022V47.0767H443.977C445.962 43.3383 448.182 40.8091 450.642 39.4891C453.185 38.1691 456.831 37.5137 461.594 37.5137C467.308 37.5137 471.715 38.206 474.808 39.5998C477.905 40.9198 480.125 43.1537 481.477 46.306C482.825 49.4583 483.498 53.9675 483.498 59.8291V96.7752H470.76V59.6121C470.76 56.6075 470.405 54.2583 469.689 52.5737C468.978 50.8891 467.746 49.7167 466.002 49.0567C464.252 48.3967 461.755 48.0644 458.502 48.0644C454.454 48.0644 451.315 48.6183 449.095 49.7167C446.949 50.8152 445.403 52.6844 444.452 55.3244C443.502 57.9644 443.022 61.6983 443.022 66.5352V96.7752H430.283V38.0537Z" fill="black"/>
<path d="M496.546 95.7829C499.565 96.8121 503.811 97.3244 509.285 97.3244C514.126 97.3244 517.819 96.7752 520.357 95.6767C522.895 94.4998 525.24 92.3767 527.382 89.2983H528.332V96.7752H540V57.8537C540 52.4998 539.248 48.3967 537.739 45.5398C536.229 42.6044 533.649 40.5552 529.998 39.3829C526.426 38.1367 521.349 37.5137 514.763 37.5137C508.255 37.5137 503.215 38.0629 499.643 39.1614C496.149 40.186 493.689 41.9814 492.263 44.5475C490.832 47.0398 490.145 50.1967 490.145 55.3244H503.095C503.095 52.246 503.889 50.1552 505.477 49.0567C507.143 47.9583 510.24 47.4044 514.763 47.4044C518.174 47.4044 520.832 47.7367 522.739 48.3967C524.645 49.0567 525.992 50.1183 526.786 51.586C527.58 53.0537 527.977 55.1398 527.977 57.8537V59.3906H517.855C510.157 59.3906 504.208 60.0137 499.998 61.2598C495.794 62.4367 492.817 64.5229 491.072 67.5275C489.328 70.4583 488.451 74.6029 488.451 79.9521C488.451 84.4937 489.051 88.0152 490.237 90.5075C491.506 92.9998 493.611 94.7583 496.546 95.7829ZM521.428 85.5598C519.208 86.6583 515.991 87.2075 511.786 87.2075C507.66 87.2075 504.84 86.6214 503.335 85.4491C501.826 84.2767 501.074 82.1167 501.074 78.9644C501.074 76.3983 501.508 74.4552 502.38 73.1352C503.252 71.7414 504.683 70.7537 506.668 70.1675C508.731 69.5814 511.629 69.2491 515.359 69.1752L527.857 69.0644C527.7 73.8321 527.142 77.4967 526.191 80.0629C525.24 82.6291 523.652 84.4614 521.428 85.5598Z" fill="black"/>
<path d="M328.791 37.9341H316.528L304.486 86.2295H300.106L288.545 37.9341H276.499L286.269 83.6449C287.871 91.1449 294.979 96.5541 303.235 96.5541L300.632 104.068C299.382 107.054 298.892 110.156 292.579 110.156H284.691V119.682L299.308 119.82C303.715 119.751 309.259 116.802 313.375 104.068L328.791 37.9341ZM346.795 94.9341C349.602 96.2634 353.728 96.9234 359.179 96.9234H366.494V86.8618H363.143C359.94 86.8618 357.535 86.5295 355.929 85.8649C354.328 85.2049 353.248 84.2449 352.685 82.9941C352.205 81.6649 351.965 79.7864 351.965 77.3541V47.7234H366.494V37.9895H351.965V25.6064H340.302V37.9895H334.546L332.382 47.7234H339.822V77.7972C339.822 82.5141 340.302 86.2341 341.266 88.9618C342.226 91.6157 344.072 93.6049 346.795 94.9341Z" fill="black"/>
</g>
<defs>
<clipPath id="clip0_947_325">
<rect width="540" height="120" fill="white"/>
</clipPath>
</defs>
</svg>
