<svg width="148" height="34" viewBox="0 0 148 34" fill="none" xmlns="http://www.w3.org/2000/svg">
<path fill-rule="evenodd" clip-rule="evenodd" d="M16.7804 6.14221C18.8587 8.25169 19.9764 11.04 19.9325 13.9926V13.989C19.8413 19.9342 14.8408 24.7699 8.7883 24.7699H0.284908C0.124191 24.7699 0.0438319 24.5766 0.157064 24.4597L4.29553 20.3028C4.36492 20.2334 4.45624 20.1933 4.55487 20.1933H8.86865C12.3387 20.1933 15.2462 17.4196 15.3485 14.0145C15.3996 12.2773 14.7604 10.6349 13.5478 9.38674C12.335 8.13856 10.7096 7.45242 8.97458 7.45242H4.58408V14.54C4.58408 14.6021 4.5366 14.6495 4.4745 14.6495H0.10958C0.0474845 14.6495 0 14.6021 0 14.54V2.98161C0 2.91957 0.0474845 2.87213 0.10958 2.87213H8.97458C11.9296 2.87213 14.7019 4.03271 16.7804 6.14221ZM29.2432 8.74483C23.8957 8.74483 21.4557 12.8398 21.4557 16.8397L21.4521 16.8434C21.4521 20.8141 24.2062 25.0003 29.5537 25.0003C33.3817 25.0003 36.355 22.869 37.0343 19.5405C37.0489 19.4711 36.9942 19.4054 36.9247 19.4054H32.8885C32.8411 19.4054 32.8008 19.4382 32.7863 19.4857C32.4173 20.7776 31.2704 21.4382 29.5537 21.4382C27.3657 21.4382 25.9595 20.0624 25.6453 17.8433H36.8663C36.9247 17.8433 36.9722 17.8032 36.9759 17.7448C37.005 17.409 37.0306 16.9747 37.0306 16.4346C37.0306 12.8398 34.5907 8.74483 29.2432 8.74483ZM29.2432 11.9309C31.3398 11.9309 32.5598 13.336 32.684 15.0879H25.7074C26.0837 12.8981 27.2745 11.9309 29.2432 11.9309ZM38.937 16.8397C38.937 12.8398 41.377 8.74483 46.7245 8.74483C52.072 8.74483 54.512 12.8398 54.512 16.4346C54.512 16.9747 54.4864 17.409 54.4572 17.7448C54.4535 17.8032 54.406 17.8433 54.3476 17.8433H43.1266C43.4408 20.0624 44.847 21.4382 47.035 21.4382C48.7517 21.4382 49.8986 20.7776 50.2676 19.4857C50.2821 19.4382 50.3224 19.4054 50.3699 19.4054H54.406C54.4755 19.4054 54.5302 19.4711 54.5156 19.5405C53.8363 22.869 50.863 25.0003 47.035 25.0003C41.6875 25.0003 38.9334 20.8141 38.9334 16.8434L38.937 16.8397ZM50.1653 15.0879C50.0411 13.336 48.8212 11.9309 46.7245 11.9309C44.7557 11.9309 43.565 12.8981 43.1887 15.0879H50.1653ZM61.1714 8.99665H57.0438V8.98934C56.9818 8.98934 56.9344 9.0368 56.9344 9.09885V31.0075C56.9344 31.0696 56.9818 31.1171 57.0438 31.1171H61.1714C61.2334 31.1171 61.2809 31.0696 61.2809 31.0075V23.3361C62.1247 24.3982 63.6589 24.9929 65.4414 24.9929C69.978 24.9929 73.0425 21.774 73.0425 16.8689C73.0425 11.9638 70.2263 8.74483 65.7847 8.74483C63.7502 8.74483 62.2197 9.49665 61.2809 10.7156V9.10613C61.2809 9.0441 61.2334 8.99665 61.1714 8.99665ZM68.7251 16.8726C68.7251 19.4966 67.1947 21.2485 64.8788 21.2485C62.5667 21.2485 61.0326 19.5259 61.0326 16.8726C61.0326 14.2192 62.5667 12.4675 64.8788 12.4675C67.191 12.4675 68.7251 14.2485 68.7251 16.8726ZM79.3977 27.8213C79.4671 27.7519 79.5584 27.7154 79.657 27.7154H84.0914C85.4355 27.7154 86.3743 26.6534 86.3743 25.2154V23.1534C85.5598 24.3103 83.9015 24.9965 82.0568 24.9965C77.396 24.9965 74.6128 21.7774 74.6128 16.8724C74.6128 11.9673 77.396 8.74829 81.9947 8.74829C83.9343 8.74829 85.4648 9.46727 86.3743 10.5622V9.1096C86.3743 9.04756 86.4218 9.00011 86.4839 9.00011H90.6114C90.6735 9.00011 90.7209 9.04756 90.7209 9.1096V25.6899C90.7209 28.9417 88.376 31.1278 84.811 31.1278H76.545C76.3807 31.1278 76.3003 30.9308 76.4172 30.8176L79.3977 27.8285V27.8213ZM82.7472 21.2447C85.1251 21.2447 86.6263 19.5256 86.6263 16.8688C86.6263 14.2118 85.1251 12.4636 82.7472 12.4636C80.3693 12.4636 78.901 14.2154 78.901 16.8688C78.901 19.522 80.435 21.2447 82.7472 21.2447ZM98.2713 24.6347V17.0873H98.275C98.275 14.3975 99.2429 12.6165 101.402 12.6165H103.889C103.951 12.6165 103.999 12.569 103.999 12.507V9.10188C103.999 9.03983 103.951 8.99238 103.889 8.99238H102.245C100.306 8.99238 99.1151 9.64567 98.2713 11.6164V9.10188C98.2713 9.03983 98.2238 8.99238 98.1617 8.99238H94.0342C93.9721 8.99238 93.9247 9.03983 93.9247 9.10188V24.6347C93.9247 24.6968 93.9721 24.7442 94.0342 24.7442H98.1617C98.2238 24.7442 98.2713 24.6968 98.2713 24.6347ZM105.39 20.2773C105.39 17.1823 107.706 15.3065 111.176 15.3065H113.803C114.585 15.3065 114.989 14.8065 114.989 14.1495C114.989 12.8357 113.988 11.9306 112.206 11.9306C110.424 11.9306 109.35 13.0583 109.269 14.3284C109.269 14.3868 109.222 14.4306 109.163 14.4306H105.507C105.441 14.4306 105.39 14.3759 105.394 14.3101C105.609 11.2079 108.163 8.74079 112.425 8.74079C116.428 8.74079 119.337 11.0547 119.337 14.6167V24.6313C119.337 24.6934 119.289 24.7408 119.227 24.7408H115.099C115.037 24.7408 114.989 24.6934 114.989 24.6313V22.5547C114.456 24.0218 112.706 24.9926 110.548 24.9926C107.512 24.9926 105.387 22.9597 105.387 20.2736L105.39 20.2773ZM111.677 21.8393C113.773 21.8393 114.993 20.2773 114.993 18.2773V18.0583H111.834C110.489 18.0583 109.58 18.8721 109.58 20.0912C109.58 21.124 110.456 21.843 111.677 21.843V21.8393ZM126.225 8.99665H122.097L122.104 8.993C122.043 8.993 121.995 9.04046 121.995 9.1025V24.6354C121.995 24.6974 122.043 24.7449 122.104 24.7449H126.232C126.294 24.7449 126.342 24.6974 126.342 24.6354V15.8068C126.342 13.7741 127.495 12.431 129.311 12.431C130.999 12.431 132.095 13.7741 132.095 15.8068V24.6354C132.095 24.6974 132.142 24.7449 132.204 24.7449H136.332C136.393 24.7449 136.441 24.6974 136.441 24.6354V15.8068C136.441 13.7741 137.596 12.431 139.411 12.431C141.099 12.431 142.194 13.7741 142.194 15.8068V24.6354C142.194 24.6974 142.241 24.7449 142.304 24.7449H146.431C146.494 24.7449 146.541 24.6974 146.541 24.6354V14.431C146.541 11.2777 144.32 8.74483 140.912 8.74483C138.381 8.74483 136.408 10.0879 135.627 11.6207C134.875 9.74482 133.278 8.74483 130.809 8.74483C128.68 8.74483 127.178 9.77767 126.335 11.2156V9.10613C126.335 9.0441 126.287 8.99665 126.225 8.99665Z" fill="black"/>
</svg>
