<svg width="230" height="59" viewBox="0 0 230 59" fill="none" xmlns="http://www.w3.org/2000/svg">
<g clip-path="url(#clip0_900_3982)">
<path d="M82.5043 41.6278C79.4979 41.6278 77.0336 40.5625 75.1443 38.4319C73.2386 36.3014 72.3021 33.6136 72.3021 30.385C72.3021 27.1728 73.255 24.5014 75.1443 22.3872C77.0664 20.2239 79.5307 19.1586 82.5043 19.1586C85.3957 19.1586 87.5971 20.1583 89.125 22.1742V10.4889C89.125 10.0464 89.3386 9.83333 89.7822 9.83333H94.5629C95.0064 9.83333 95.22 10.0464 95.22 10.4889V40.4478C95.22 40.8903 94.99 41.1033 94.5136 41.1033H90.2586C89.815 41.1033 89.6014 40.8903 89.6014 40.4478L89.5193 38.0878C87.9093 40.4478 85.5764 41.6278 82.5043 41.6278ZM79.7771 34.5478C80.8286 35.5967 82.1593 36.1211 83.7693 36.1211C85.3793 36.1211 86.6771 35.5967 87.6793 34.5478C88.6979 33.4989 89.2071 32.1058 89.2071 30.385C89.2071 28.6642 88.6979 27.2875 87.6793 26.2222C86.6936 25.1733 85.3793 24.6489 83.7693 24.6489C82.1593 24.6489 80.8286 25.1897 79.7771 26.2714C78.7257 27.3203 78.2 28.6969 78.2 30.385C78.2 32.1058 78.7257 33.4989 79.7771 34.5478ZM110.926 41.6278C107.443 41.6278 104.617 40.5625 102.416 38.4319C100.231 36.2686 99.13 33.5644 99.13 30.3031C99.13 27.0908 100.149 24.4358 102.202 22.3381C104.256 20.2075 106.901 19.1422 110.186 19.1422C113.341 19.1422 115.838 20.1419 117.678 22.1578C119.551 24.1408 120.487 26.55 120.487 29.3689C120.487 30.4833 120.306 31.3028 119.961 31.86C119.633 32.3844 119.025 32.6467 118.121 32.6467H105.061C105.734 35.4492 107.854 36.8422 111.419 36.8422C113.226 36.8422 114.901 36.3997 116.413 35.5311C116.709 35.3508 116.955 35.4164 117.152 35.7114L118.779 37.9403C119.009 38.2681 118.943 38.5794 118.565 38.9072C116.741 40.7264 114.195 41.6278 110.926 41.6278ZM104.962 28.4183H115.099C114.918 27.0253 114.392 25.96 113.521 25.2225C112.651 24.5014 111.55 24.1244 110.236 24.1244C108.856 24.1244 107.706 24.485 106.769 25.2225C105.833 25.96 105.225 27.0253 104.962 28.4183ZM135.043 41.6278C131.56 41.6278 128.734 40.5625 126.533 38.4319C124.348 36.2686 123.247 33.5644 123.247 30.3031C123.247 27.0908 124.266 24.4358 126.319 22.3381C128.373 20.2075 131.018 19.1422 134.304 19.1422C137.458 19.1422 139.955 20.1419 141.795 22.1578C143.668 24.1408 144.604 26.55 144.604 29.3689C144.604 30.4833 144.424 31.3028 144.079 31.86C143.75 32.3844 143.142 32.6467 142.239 32.6467H129.178C129.851 35.4492 131.971 36.8422 135.536 36.8422C137.343 36.8422 139.019 36.3997 140.53 35.5311C140.826 35.3508 141.072 35.4164 141.269 35.7114L142.896 37.9403C143.126 38.2681 143.06 38.5794 142.682 38.9072C140.859 40.7264 138.312 41.6278 135.043 41.6278ZM129.079 28.4183H139.216C139.035 27.0253 138.509 25.96 137.639 25.2225C136.768 24.5014 135.667 24.1244 134.353 24.1244C132.973 24.1244 131.823 24.485 130.886 25.2225C129.934 25.96 129.342 27.0253 129.079 28.4183ZM149.106 50.8056C148.662 50.8056 148.449 50.5925 148.449 50.15V20.3386C148.449 19.8961 148.662 19.6831 149.106 19.6831H153.443C153.886 19.6831 154.1 19.8961 154.1 20.3386L154.182 22.6986C155.71 20.3386 158.043 19.1586 161.197 19.1586C164.171 19.1586 166.619 20.2403 168.524 22.3872C170.43 24.5178 171.366 27.1892 171.366 30.385C171.366 33.6136 170.414 36.3014 168.524 38.4319C166.619 40.5625 164.187 41.6278 161.197 41.6278C158.339 41.6278 156.104 40.6117 154.527 38.5631V50.1336C154.527 50.5761 154.314 50.7892 153.87 50.7892H149.106V50.8056ZM159.932 36.1211C161.542 36.1211 162.856 35.5967 163.875 34.5478C164.926 33.4989 165.452 32.1058 165.452 30.385C165.452 28.6969 164.926 27.3203 163.875 26.2714C162.856 25.1897 161.542 24.6489 159.932 24.6489C158.289 24.6489 156.959 25.1733 155.94 26.2222C154.954 27.2711 154.445 28.6642 154.445 30.385C154.445 32.1058 154.938 33.4825 155.94 34.5478C156.959 35.5967 158.289 36.1211 159.932 36.1211ZM182.193 41.6278C178.858 41.6278 176.18 40.4478 174.176 38.0878C173.913 37.76 173.946 37.3503 174.258 36.8258L175.786 34.6789C176.081 34.2364 176.443 34.1872 176.886 34.4986C178.726 35.8917 180.386 36.5964 181.848 36.5964C183.458 36.5964 184.263 36.0064 184.263 34.81C184.263 34.3183 184.082 33.9086 183.737 33.5808C183.409 33.2531 182.85 32.9253 182.029 32.5811L179.318 31.4831C176.196 30.2539 174.619 28.3036 174.619 25.6158C174.619 23.6328 175.359 22.0594 176.821 20.8958C178.283 19.7322 180.057 19.1422 182.127 19.1422C185.084 19.1422 187.483 20.2403 189.323 22.42C189.553 22.715 189.536 23.01 189.274 23.3378L187.351 25.6486C187.089 25.9764 186.76 25.9764 186.349 25.6486C184.92 24.4522 183.622 23.8622 182.439 23.8622C181.766 23.8622 181.256 24.0261 180.911 24.3375C180.566 24.6653 180.386 25.0586 180.386 25.5667C180.386 26.4681 181.076 27.1728 182.439 27.6644L185.462 28.8444C188.699 30.1556 190.309 32.2206 190.292 35.0558C190.259 37.1208 189.471 38.7433 187.926 39.9069C186.366 41.0706 184.46 41.6278 182.193 41.6278ZM204.831 41.6278C201.349 41.6278 198.523 40.5625 196.321 38.4319C194.136 36.2686 193.036 33.5644 193.036 30.3031C193.036 27.0908 194.054 24.4358 196.108 22.3381C198.161 20.2075 200.823 19.1422 204.092 19.1422C207.246 19.1422 209.744 20.1419 211.584 22.1578C213.456 24.1408 214.393 26.55 214.393 29.3689C214.393 30.4833 214.212 31.3028 213.867 31.86C213.539 32.3844 212.931 32.6467 212.027 32.6467H198.966C199.64 35.4492 201.759 36.8422 205.324 36.8422C207.131 36.8422 208.807 36.3997 210.319 35.5311C210.614 35.3508 210.861 35.4164 211.058 35.7114L212.684 37.9403C212.914 38.2681 212.849 38.5794 212.471 38.9072C210.647 40.7264 208.101 41.6278 204.831 41.6278ZM198.868 28.4183H209.004C208.824 27.0253 208.298 25.96 207.427 25.2225C206.556 24.5014 205.456 24.1244 204.141 24.1244C202.761 24.1244 201.611 24.485 200.675 25.2225C199.722 25.96 199.131 27.0253 198.868 28.4183ZM226.353 41.6278C224.447 41.6278 222.886 41.1361 221.654 40.1364C220.455 39.1531 219.864 37.5633 219.864 35.3672V24.3375H217.153C216.709 24.3375 216.496 24.1244 216.496 23.6819V20.3058C216.496 19.8633 216.709 19.6503 217.153 19.6503H219.864V14.6517C219.864 14.2092 220.077 13.9961 220.521 13.9961H225.301C225.745 13.9961 225.959 14.2092 225.959 14.6517V19.6831H229.343C229.786 19.6831 230 19.8961 230 20.3386V23.7147C230 24.1572 229.786 24.3703 229.343 24.3703H225.959V34.7444C225.959 36.0064 226.583 36.6292 227.848 36.6292C228.406 36.6292 228.85 36.6128 229.211 36.58C229.737 36.5144 230 36.7275 230 37.1864V40.3822C230 41.2181 228.784 41.6278 226.353 41.6278ZM37.0464 42.6111H33.5964C33.1857 42.6111 32.8571 42.2833 32.8571 41.8736V33.1875C32.8571 32.9581 32.6764 32.7778 32.4464 32.7778H0.739286C0.328571 32.7778 0 32.45 0 32.0403V0.7375C0 0.327778 0.328571 0 0.739286 0H37.0464C37.4571 0 37.7857 0.327778 37.7857 0.7375V27.4514C37.7857 27.6808 37.9664 27.8611 38.1964 27.8611H63.3321C63.7429 27.8611 64.0714 28.1889 64.0714 28.5986V32.0403C64.0714 32.45 63.7429 32.7778 63.3321 32.7778H38.1964C37.9664 32.7778 37.7857 32.9581 37.7857 33.1875V41.8736C37.7857 42.2833 37.4571 42.6111 37.0464 42.6111ZM5.25714 27.8611H32.5286C32.6157 27.8611 32.6993 27.8266 32.7609 27.7651C32.8225 27.7036 32.8571 27.6203 32.8571 27.5333V5.24444C32.8571 5.15751 32.8225 5.07414 32.7609 5.01267C32.6993 4.9512 32.6157 4.91667 32.5286 4.91667H5.25714C5.17 4.91667 5.08643 4.9512 5.02481 5.01267C4.96319 5.07414 4.92857 5.15751 4.92857 5.24444V27.5333C4.92857 27.7136 5.07643 27.8611 5.25714 27.8611Z" fill="#188BF5"/>
<path d="M35.3214 59C38.497 59 41.0714 56.4318 41.0714 53.2639C41.0714 50.0959 38.497 47.5278 35.3214 47.5278C32.1458 47.5278 29.5714 50.0959 29.5714 53.2639C29.5714 56.4318 32.1458 59 35.3214 59Z" fill="#188BF5"/>
</g>
<defs>
<clipPath id="clip0_900_3982">
<rect width="230" height="59" fill="white"/>
</clipPath>
</defs>
</svg>
