<svg width="509" height="120" viewBox="0 0 509 120" fill="none" xmlns="http://www.w3.org/2000/svg">
<path d="M333.858 84.1101C336.68 83.5677 339.295 82.2477 341.406 80.2994C342.778 78.7308 343.797 76.8866 344.395 74.8913C344.993 72.8959 345.156 70.7959 344.873 68.7319V47.1318C345.156 45.068 344.994 42.9669 344.396 40.9713C343.798 38.9757 342.778 37.1314 341.406 35.5631C339.295 33.6139 336.68 32.294 333.858 31.7522V21.4033C338.418 21.9339 342.694 23.8894 346.078 26.9909C348.42 28.9622 350.327 31.3974 351.68 34.1428C353.032 36.8882 353.8 39.8841 353.935 42.9412V72.4807C353.8 75.5378 353.032 78.5335 351.68 81.2791C350.327 84.0247 348.42 86.4597 346.078 88.4311C342.694 91.5324 338.418 93.4879 333.858 94.0188V84.1101Z" fill="url(#paint0_linear_375_547)"/>
<path d="M296.057 26.9718C299.443 23.8705 303.722 21.9151 308.283 21.3843V31.7331C305.459 32.2749 302.843 33.5947 300.73 35.544C299.36 37.1036 298.341 38.94 297.743 40.9276C297.145 42.9153 296.981 45.0072 297.263 47.0636V68.7551C296.982 70.8186 297.145 72.9191 297.743 74.9144C298.341 76.9098 299.36 78.7545 300.73 80.3236C302.842 82.2729 305.459 83.5909 308.283 84.13V94.0228C303.722 93.4919 299.443 91.5368 296.057 88.4356C293.717 86.4628 291.813 84.0277 290.461 81.2821C289.11 78.537 288.343 75.5413 288.207 72.4852V42.8448C288.347 39.8002 289.117 36.8183 290.468 34.0862C291.82 31.3541 293.722 28.9317 296.057 26.9718Z" fill="url(#paint1_linear_375_547)"/>
<path d="M23.066 93.9115C19.946 94.0368 16.8356 93.4824 13.9511 92.2877C11.0666 91.0925 8.47692 89.2853 6.36024 86.9904C1.97203 81.9168 -0.294796 75.349 0.0307848 68.6496V46.9394C-0.287515 40.2209 1.97734 33.6352 6.36024 28.5316C8.46798 26.222 11.0549 24.4005 13.9406 23.1949C16.8262 21.9894 19.9409 21.4284 23.066 21.552C27.1557 21.463 31.196 22.457 34.7777 24.4324C38.0011 26.214 40.5547 28.9973 42.052 32.3613H42.4365V0H48.766V92.64H42.4365V83.1221H42.052C40.5544 86.4859 38.0009 89.2694 34.7777 91.0512C31.194 93.0197 27.1539 94.0061 23.066 93.9115ZM24.3333 88.4496C26.8095 88.5941 29.287 88.1966 31.5936 87.2846C33.9001 86.3726 35.98 84.9687 37.6874 83.1701C41.0485 79.0982 42.745 73.9056 42.4365 68.6357V46.9394C42.7581 41.628 41.0619 36.3912 37.6874 32.2758C34.0887 28.8937 29.3349 27.0106 24.3955 27.0106C19.456 27.0106 14.7033 28.8937 11.1047 32.2758C7.73185 36.3919 6.03736 41.6286 6.36024 46.9394V68.64C6.04995 73.9099 7.74487 79.1026 11.1047 83.1749C12.7921 84.9648 14.85 86.364 17.1351 87.2755C19.4203 88.1866 21.8769 88.5869 24.3333 88.4496Z" fill="black"/>
<path d="M92.313 93.9115C88.9555 94.1035 85.5961 93.5866 82.4523 92.3942C79.3085 91.2014 76.4499 89.3606 74.0653 86.9904C69.5146 81.9475 67.1482 75.3086 67.4829 68.5253V46.9394C67.3167 43.5746 67.8181 40.2106 68.9585 37.0405C70.0994 33.8705 71.8569 30.9578 74.1287 28.4695C76.5071 26.1143 79.3507 24.2817 82.4792 23.0905C85.6076 21.8994 88.9512 21.3752 92.2942 21.5519C95.6186 21.3673 98.9439 21.8891 102.053 23.0812C105.161 24.2733 107.982 26.1096 110.329 28.4695C114.842 33.5327 117.184 40.1663 116.846 46.9394V58.9968H73.8108V68.5162C73.5217 73.7722 75.2375 78.9418 78.6127 82.9829C80.3673 84.8107 82.4994 86.2349 84.8604 87.156C87.221 88.0766 89.755 88.4731 92.2846 88.3162C96.4565 88.4822 100.568 87.2779 103.992 84.888C107.106 82.5528 109.354 79.248 110.382 75.4944H116.711C115.652 80.8243 112.708 85.5955 108.418 88.9349C103.767 92.3659 98.0901 94.1198 92.313 93.9115ZM73.831 53.5488H110.541V46.9394C110.828 41.691 109.133 36.5267 105.792 32.4679C104.074 30.6461 101.975 29.2234 99.6459 28.3019C97.3165 27.3804 94.8133 26.9821 92.313 27.1347C89.7881 26.9783 87.2599 27.3695 84.9003 28.2808C82.5406 29.1921 80.4057 30.6025 78.642 32.4152C75.2466 36.471 73.5289 41.6692 73.8401 46.9488L73.831 53.5488Z" fill="black"/>
<path d="M161.839 93.783C157.04 93.8756 152.268 93.0356 147.789 91.3105C144.048 89.8897 140.781 87.4484 138.359 84.2641C136.093 81.1287 134.913 77.3411 134.997 73.4747H150.944C150.897 74.5945 151.149 75.7066 151.672 76.6983C152.195 77.69 152.971 78.5252 153.922 79.1194C156.348 80.5499 159.141 81.2339 161.954 81.087H167.4C170.506 81.3169 173.606 80.5628 176.259 78.9318C177.198 78.255 177.957 77.3564 178.464 76.3163C178.972 75.2761 179.215 74.127 179.17 72.9706C179.17 68.1418 175.585 65.1798 168.414 64.0854L158.666 62.8129C144.068 60.6975 136.769 53.7178 136.769 41.8713C136.59 39.015 137.1 36.1573 138.256 33.5393C139.413 30.9213 141.182 28.6195 143.415 26.828C149.108 23.0378 155.893 21.2306 162.719 21.687H167.521C174.233 21.3647 180.869 23.2169 186.444 26.9674C188.698 28.5126 190.532 30.5937 191.78 33.0237C193.028 35.4537 193.651 38.1559 193.594 40.887H177.647C177.669 39.9288 177.434 38.9824 176.966 38.1459C176.498 37.3094 175.815 36.6135 174.987 36.1303C172.67 34.8514 170.037 34.2575 167.395 34.417H162.593C155.675 34.417 152.217 36.9121 152.217 41.9041C152.217 46.2178 155.295 48.841 161.455 49.7722L171.328 51.2934C177.722 51.7974 183.822 54.1839 188.859 58.1521C190.814 60.0006 192.342 62.2527 193.336 64.7511C194.331 67.2495 194.771 69.9351 194.622 72.6203C194.774 75.5795 194.228 78.5334 193.031 81.2439C191.833 83.955 190.016 86.3473 187.727 88.2294C181.79 92.354 174.622 94.3254 167.41 93.8171L161.839 93.783Z" fill="black"/>
<path d="M240.822 93.9114C235.46 94.0329 230.146 92.8814 225.317 90.5514C221.029 88.4394 217.446 85.1322 214.997 81.0292C212.47 76.6118 211.202 71.5862 211.329 66.4991V48.9796C211.203 43.8908 212.472 38.8643 214.997 34.4446C217.448 30.3452 221.031 27.0416 225.317 24.9314C230.146 22.6015 235.46 21.4503 240.822 21.5716C248.422 21.1817 255.9 23.5963 261.835 28.3579C264.451 30.6663 266.541 33.5111 267.96 36.6981C269.38 39.8852 270.096 43.3406 270.061 46.829H254.618C254.579 45.2094 254.192 43.6165 253.482 42.1602C252.772 40.704 251.755 39.4184 250.503 38.3903C247.719 36.3056 244.297 35.2501 240.822 35.4044C237.159 35.2062 233.567 36.4604 230.824 38.8942C229.549 40.2066 228.565 41.7717 227.932 43.488C227.299 45.2043 227.033 47.0334 227.151 48.8586V66.5034C227.038 68.337 227.305 70.175 227.938 71.9001C228.57 73.6252 229.552 75.2006 230.824 76.5268C232.172 77.7522 233.75 78.6969 235.466 79.3074C237.183 79.918 239.003 80.182 240.822 80.0831C244.32 80.2578 247.768 79.2028 250.57 77.1018C251.806 76.0631 252.807 74.7729 253.505 73.317C254.203 71.8612 254.582 70.2729 254.618 68.6586H270.061C270.097 72.1473 269.381 75.6033 267.961 78.7905C266.542 81.9782 264.452 84.8222 261.835 87.13C255.9 91.8916 248.421 94.305 240.822 93.9114Z" fill="black"/>
<path d="M372.442 115.489V22.8486H387.883V35.4158H388.133C389.18 31.3458 391.567 27.7455 394.91 25.1959C398.434 22.7007 402.679 21.4313 406.995 21.5818C410.115 21.4695 413.221 22.0615 416.081 23.3138C418.941 24.5662 421.482 26.447 423.514 28.8158C427.909 34.3045 430.129 41.2162 429.756 48.2362V67.1477C430.143 74.2075 427.922 81.1637 423.514 86.6938C421.482 89.063 418.941 90.9446 416.081 92.1979C413.221 93.4512 410.116 94.0435 406.995 93.9322C402.706 94.0613 398.491 92.7883 394.99 90.3077C391.617 87.7771 389.207 84.1752 388.153 80.0938H387.904L388.282 95.9338V115.484L372.442 115.489ZM401.176 80.1989C402.908 80.304 404.643 80.0429 406.267 79.4314C407.891 78.8203 409.368 77.8723 410.601 76.6517C413 73.8312 414.206 70.1885 413.963 66.4949V48.9754C414.207 45.2834 413 41.6417 410.601 38.8236C407.985 36.5125 404.608 35.2478 401.117 35.2717C397.626 35.2956 394.266 36.6057 391.682 38.9525C389.245 41.8522 388.021 45.5794 388.263 49.3589V66.1109C388.02 69.8904 389.244 73.6186 391.682 76.5182C392.909 77.7749 394.391 78.7531 396.029 79.3882C397.667 80.0232 399.422 80.2997 401.176 80.1989Z" fill="black"/>
<path d="M476.738 93.9116C471.388 94.0374 466.087 92.8599 461.295 90.4806C457.046 88.3254 453.508 84.9923 451.105 80.8806C448.627 76.4929 447.381 71.5177 447.499 66.4806V48.9596C447.38 43.9225 448.626 38.947 451.105 34.5598C453.507 30.4472 457.046 27.1142 461.295 24.9598C466.088 22.5818 471.388 21.4062 476.738 21.5332C482.028 21.4107 487.262 22.5869 491.987 24.9598C496.213 27.129 499.723 30.4599 502.114 34.5598C504.597 38.947 505.84 43.9225 505.72 48.9596V61.527H462.812V66.4806C462.812 76.3782 467.495 81.3284 476.862 81.3318C484.117 81.3318 488.381 78.9188 489.648 74.0929H505.216C504.669 77.0103 503.54 79.7876 501.898 82.2611C500.261 84.7345 498.138 86.8537 495.66 88.4929C490.066 92.2167 483.454 94.1099 476.738 93.9116ZM462.812 48.975V51.6433L490.407 51.519V48.8497C490.676 44.8527 489.461 40.8977 486.988 37.7426C485.668 36.3887 484.064 35.3407 482.292 34.6723C480.52 34.0039 478.626 33.7318 476.738 33.8742C474.816 33.7286 472.885 34.0049 471.08 34.684C469.276 35.3631 467.642 36.4278 466.294 37.8047C463.792 40.9699 462.551 44.9497 462.812 48.975Z" fill="black"/>
<path d="M330.079 49.8961L333.441 44.5009L326.415 40.7954L323.457 46.4017C323.25 46.7959 322.94 47.1264 322.559 47.3568C322.178 47.5871 321.741 47.7095 321.296 47.7095C320.851 47.7095 320.415 47.5871 320.034 47.3568C319.653 47.1264 319.342 46.7959 319.135 46.4017L316.173 40.7954L309.22 44.4681L314.054 52.2155L330.079 49.8961Z" fill="url(#paint2_linear_375_547)"/>
<path d="M338.813 53.7935L304.24 54.0911V61.0707L315.073 61.0371L309.23 70.3967L316.183 74.0696L319.145 68.4618C319.35 68.0663 319.661 67.7351 320.042 67.5032C320.423 67.2719 320.86 67.1495 321.306 67.1495C321.751 67.1495 322.189 67.2719 322.571 67.5032C322.951 67.7351 323.261 68.0663 323.466 68.4618L326.425 74.0696L333.45 70.3626L328.71 62.7747L319.63 61.0184L338.838 60.9551L338.813 53.7935Z" fill="url(#paint3_linear_375_547)"/>
<defs>
<linearGradient id="paint0_linear_375_547" x1="309.665" y1="102.805" x2="363.308" y2="96.4393" gradientUnits="userSpaceOnUse">
<stop stop-color="#0081B3"/>
<stop offset="0.417" stop-color="#00FFFF"/>
<stop offset="0.995" stop-color="#6FEF2D"/>
</linearGradient>
<linearGradient id="paint1_linear_375_547" x1="284.714" y1="86.7589" x2="338.355" y2="80.3959" gradientUnits="userSpaceOnUse">
<stop stop-color="#0081B3"/>
<stop offset="0.417" stop-color="#00FFFF"/>
<stop offset="0.995" stop-color="#6FEF2D"/>
</linearGradient>
<linearGradient id="paint2_linear_375_547" x1="291.394" y1="91.0432" x2="302.326" y2="14.7109" gradientUnits="userSpaceOnUse">
<stop stop-color="#0081B3"/>
<stop offset="0.417" stop-color="#00FFFF"/>
<stop offset="0.995" stop-color="#6FEF2D"/>
</linearGradient>
<linearGradient id="paint3_linear_375_547" x1="297.666" y1="95.0749" x2="314.869" y2="17.3923" gradientUnits="userSpaceOnUse">
<stop stop-color="#0081B3"/>
<stop offset="0.417" stop-color="#00FFFF"/>
<stop offset="0.995" stop-color="#6FEF2D"/>
</linearGradient>
</defs>
</svg>
