<svg width="680" height="119" viewBox="0 0 680 119" fill="none" xmlns="http://www.w3.org/2000/svg">
<g clip-path="url(#clip0_1197_240)">
<path d="M33.582 31.502H55.1293C69.7476 31.502 78.0602 38.9726 78.0602 55.6661V61.2115C78.0602 78.0666 69.6673 85.3758 55.0485 85.3758H33.5704V31.502H33.582ZM55.1293 75.9913C62.3692 75.9913 66.1393 72.3712 66.1393 61.373V55.528C66.1393 44.518 62.3692 40.9094 55.1293 40.9094H45.203V76.0028H55.1293V75.9913Z" fill="black"/>
<path d="M87.6086 31.502H99.2294V85.3758H87.6086V31.502Z" fill="black"/>
<path d="M108.064 68.6107V67.0658H119.605V68.68C119.605 74.6058 122.533 77.3725 129.842 77.3725C136.69 77.3725 139.307 75.1357 139.307 70.8356V70.0634C139.307 66.4432 137.463 64.5987 132.92 63.6765L123.144 61.6705C113.056 59.5952 108.906 55.2028 108.906 46.8907V46.1988C108.906 36.5838 115.604 30.6465 129.923 30.6465C144.242 30.6465 150.248 35.8805 150.248 47.271V48.5851H138.858V47.2018C138.858 41.8178 136.16 39.3507 129.543 39.3507C122.925 39.3507 120.388 41.5873 120.388 45.6569V46.118C120.388 49.5767 122.083 51.0408 127.087 52.1245L136.633 54.0498C146.328 55.975 151.021 60.5867 151.021 69.1411V70.213C151.021 80.37 144.322 86.2265 129.854 86.2265C115.385 86.2265 108.076 80.6811 108.076 68.5992L108.064 68.6107Z" fill="black"/>
<path d="M169.717 40.967H154.015V31.502H197.121V40.967H181.338V85.3758H169.717V40.967Z" fill="black"/>
<path d="M203.346 31.502H230.9C240.677 31.502 246.372 37.347 246.372 47.1232V48.9681C246.372 54.7439 244.066 59.0555 240.135 61.5112L246.522 85.3758H234.359L229.355 65.0506H214.968V85.3758H203.346V31.502ZM228.364 55.8969C232.364 55.8969 234.37 53.6601 234.37 49.1985V47.2732C234.37 42.8116 232.445 40.6558 228.295 40.6558H214.979V55.8969H228.375H228.364Z" fill="black"/>
<path d="M256.21 31.502H267.831V85.3758H256.21V31.502Z" fill="black"/>
<path d="M280.068 31.5135H305.778C315.704 31.5135 321.099 36.2057 321.099 44.7483V45.8206C321.099 51.2045 318.863 55.3665 313.398 57.361C319.705 58.9748 322.714 63.1368 322.714 69.8352V71.1378C322.714 80.2915 317.168 85.3758 306.55 85.3758H280.068V31.502V31.5135ZM304.314 53.6028C307.933 53.6028 309.778 51.5275 309.778 47.5962V46.524C309.778 42.5234 307.772 40.3675 304.164 40.3675H291.39V53.6028H304.325H304.314ZM304.855 76.5447C308.706 76.5447 310.781 74.4694 310.781 70.4693V68.9244C310.781 64.7739 308.856 62.5375 305.005 62.5375H291.378V76.5447H304.844H304.855Z" fill="black"/>
<path d="M331.095 68.3707V31.502H342.716V68.5207C342.716 73.9046 346.106 76.7521 352.493 76.7521C358.88 76.7521 362.269 73.9046 362.269 68.5207V31.502H373.89V68.3707C373.89 80.1419 366.581 86.2287 352.493 86.2287C338.405 86.2287 331.095 80.1534 331.095 68.3707Z" fill="black"/>
<path d="M395.583 40.967H379.881V31.502H422.987V40.967H407.204V85.3758H395.583V40.967Z" fill="black"/>
<path d="M429.199 31.502H440.823V85.3758H429.199V31.502Z" fill="black"/>
<path d="M450.296 61.2782V55.5832C450.296 39.2699 458.69 30.6465 474.691 30.6465C490.692 30.6465 499.167 39.1893 499.167 55.5832V61.2782C499.167 77.6721 490.705 86.2151 474.691 86.2151C458.677 86.2151 450.296 77.6721 450.296 61.2782ZM487.246 61.509V55.3524C487.246 44.8847 483.166 40.0309 474.704 40.0309C466.238 40.0309 462.226 44.8847 462.226 55.4217V61.4975C462.226 71.9657 466.31 76.8192 474.704 76.8192C483.093 76.8192 487.246 71.9657 487.246 61.4975V61.509Z" fill="black"/>
<path d="M508.708 31.5135H522.635L541.186 70.6074H541.267L541.114 52.8994V31.502H551.897V85.3758H538.037L519.405 46.201H519.324L519.478 63.9783V85.3758H508.695V31.502L508.708 31.5135Z" fill="black"/>
<path d="M574.426 31.502H590.818L607.593 85.3758H595.663L592.203 73.6742H572.5L569.041 85.3758H557.732L574.438 31.502H574.426ZM589.437 64.2205L582.356 40.2062L575.28 64.2205H589.437Z" fill="black"/>
<path d="M613.373 31.502H624.992V75.761H652.362V85.3872H613.373V31.5135V31.502Z" fill="black"/>
<path d="M12.6471 10.641V106.802H50.7497V117.432H0V0H50.7497V10.641H12.6471Z" fill="black"/>
<path d="M680 0V117.432H629.251V106.802H667.365V10.641H629.251V0H680Z" fill="black"/>
</g>
<defs>
<clipPath id="clip0_1197_240">
<rect width="680" height="119" fill="white"/>
</clipPath>
</defs>
</svg>
