<svg width="1250" height="268" viewBox="0 0 1250 268" fill="none" xmlns="http://www.w3.org/2000/svg">
  <g clip-path="url(#clip0_3726_2965)">
    <path
      d="M334.029 110.11C325.699 104.51 303.829 102.11 287.929 106.4C287.069 90.56 278.899 77.21 263.959 65.57L258.429 61.86L254.739 67.43C247.499 78.43 244.439 93.08 245.519 106.41C246.369 114.62 249.229 123.85 254.739 130.54C234.039 142.55 214.959 139.82 130.469 139.82H0.0290324C-0.350968 158.9 2.71903 195.6 26.049 225.47C28.629 228.77 31.449 231.96 34.519 235.04C53.499 254.04 82.159 267.97 125.029 268.01C190.429 268.07 246.459 232.72 280.549 147.24C291.769 147.42 321.369 149.25 335.859 121.25C336.209 120.78 339.549 113.83 339.549 113.83L334.029 110.12V110.11ZM85.159 92.67H48.479V129.35H85.159V92.67ZM132.549 92.67H95.869V129.35H132.549V92.67ZM179.939 92.67H143.259V129.35H179.939V92.67ZM227.329 92.67H190.649V129.35H227.329V92.67ZM37.769 92.67H1.08903V129.35H37.769V92.67ZM85.159 46.33H48.479V83.01H85.159V46.33ZM132.549 46.33H95.869V83.01H132.549V46.33ZM179.939 46.33H143.259V83.01H179.939V46.33ZM179.939 0H143.259V36.68H179.939V0Z"
      fill="#00153C" />
    <path
      d="M449.058 230.11C415.808 230.11 388.898 204.22 388.898 161.57C388.898 118.92 416.058 93.2902 449.318 93.2902C476.988 93.2902 489.938 110.04 492.218 114.11V40.4902H533.338V227.32H492.718V208.03C490.178 212.35 476.978 230.11 449.058 230.11ZM461.748 128.32C442.708 128.32 430.528 142.54 430.528 161.57C430.528 180.6 442.708 194.82 461.748 194.82C480.788 194.82 492.718 180.86 492.718 161.57C492.718 142.28 480.538 128.32 461.748 128.32Z"
      fill="#00153C" />
    <path
      d="M692.5 161.57C692.5 202.19 661.53 230.62 620.41 230.62C579.29 230.62 548.32 202.19 548.32 161.57C548.32 120.95 579.04 92.52 620.41 92.52C661.78 92.52 692.5 120.7 692.5 161.57ZM651.12 161.57C651.12 142.79 638.94 128.32 620.4 128.32C601.86 128.32 589.43 142.79 589.43 161.57C589.43 180.35 601.87 194.82 620.4 194.82C638.93 194.82 651.12 180.35 651.12 161.57Z"
      fill="#00153C" />
    <path
      d="M769.159 128.32C752.149 128.32 740.979 142.79 740.979 161.57C740.979 180.35 752.149 195.08 769.409 195.08C786.669 195.08 792.759 184.67 794.289 181.63H833.889C832.369 199.91 814.849 230.62 768.399 230.62C729.559 230.62 699.609 203.46 699.609 161.57C699.609 119.68 729.559 92.52 767.889 92.52C814.339 92.52 831.859 122.73 833.889 141.77H793.779C791.749 138.22 785.149 128.32 769.159 128.32Z"
      fill="#00153C" />
    <path
      d="M847.34 40.4902H888.46V147.36L941.01 95.8302H992.79L929.84 156.5L996.09 227.32H942.53L888.46 168.68V227.32H847.34V40.4902Z"
      fill="#00153C" />
    <path
      d="M1126.57 162.34V169.45H1026.56C1028.59 185.95 1041.03 198.39 1059.05 198.39C1075.04 198.39 1082.66 191.03 1084.43 188.24H1125.3C1123.27 203.98 1104.48 230.63 1059.05 230.63C1013.62 230.63 985.938 201.69 985.938 161.58C985.938 121.47 1014.88 92.5303 1056.26 92.5303C1097.64 92.5303 1126.57 119.44 1126.57 162.34ZM1027.32 144.31H1085.2C1081.65 130.6 1070.99 122.48 1056.26 122.48C1041.53 122.48 1030.88 130.86 1027.32 144.31Z"
      fill="#00153C" />
    <path
      d="M1181.91 227.32H1140.79V95.8303H1181.91V116.39C1184.7 110.3 1194.35 95.5703 1221.76 95.5703H1249.94V136.19H1213.89C1190.79 136.19 1181.9 144.82 1181.9 163.1V227.32H1181.91Z"
      fill="#00153C" />
  </g>
  <defs>
    <clipPath id="clip0_3726_2965">
      <rect width="1249.94" height="268" fill="white" />
    </clipPath>
  </defs>
</svg>
  