<svg width="141" height="48" viewBox="0 0 141 48" fill="none" xmlns="http://www.w3.org/2000/svg">
<g clip-path="url(#clip0_2060_534)">
<path d="M48.1832 25.1506C48.1832 21.1183 45.6784 17.5749 41.9108 16.2105C42.0738 15.3551 42.1553 14.4997 42.1553 13.6241C42.1553 6.10947 36.0458 0 28.5516 0C24.1528 0 20.0797 2.09758 17.5138 5.64107C16.2511 4.66355 14.7035 4.13408 13.0946 4.13408C9.10309 4.13408 5.86508 7.37209 5.86508 11.3636C5.86508 12.2393 6.028 13.0947 6.3131 13.8888C2.56597 15.2329 0 18.8375 0 22.8493C0 26.902 2.52524 30.4455 6.29274 31.81C6.12983 32.6449 6.04836 33.5206 6.04836 34.3962C6.04836 41.8906 12.1375 47.9796 19.6318 47.9796C24.0306 47.9796 28.1035 45.8617 30.6491 42.3181C31.9117 43.3161 33.4595 43.8659 35.0683 43.8659C39.0598 43.8659 42.2978 40.6279 42.2978 36.6364C42.2978 35.7607 42.1349 34.9054 41.8498 34.1111C45.5969 32.7671 48.1832 29.1625 48.1832 25.1506Z" fill="black"/>
<path d="M18.9389 20.6704L29.4878 25.4765L40.1184 16.1494C40.2812 15.3755 40.3423 14.622 40.3423 13.8073C40.3423 7.24987 35.0068 1.91428 28.4492 1.91428C24.5189 1.91428 20.8735 3.84894 18.6538 7.08696L16.8821 16.2715L18.9389 20.6704Z" fill="#FED10A"/>
<path d="M8.02394 31.8304C7.86102 32.6042 7.79993 33.3984 7.79993 34.213C7.79993 40.7909 13.1559 46.1264 19.7337 46.1264C23.6845 46.1264 27.3705 44.1714 29.5904 40.913L31.3417 31.7693L28.9998 27.289L18.41 22.4624L8.02394 31.8304Z" fill="#24BBB1"/>
<path d="M7.96217 13.5834L15.1917 15.294L16.7801 7.08699C15.8026 6.33348 14.5808 5.92618 13.3182 5.92618C10.1819 5.92618 7.61597 8.47179 7.61597 11.6283C7.61597 12.3004 7.73815 12.9725 7.96217 13.5834Z" fill="#EF5098"/>
<path d="M7.33178 15.3144C4.11414 16.3733 1.85364 19.4688 1.85364 22.8697C1.85364 26.1892 3.91049 29.1421 6.98558 30.3233L17.1273 21.1591L15.2741 17.188L7.33178 15.3144Z" fill="#1BA9F5"/>
<path d="M31.4232 40.913C32.4211 41.6665 33.6227 42.0942 34.8649 42.0942C38.0011 42.0942 40.5671 39.5485 40.5671 36.392C40.5671 35.6996 40.4449 35.0275 40.2209 34.4166L33.0118 32.7263L31.4232 40.913Z" fill="#93C83E"/>
<path d="M32.889 30.8324L40.8313 32.6856C44.0694 31.6266 46.3094 28.5312 46.3094 25.1099C46.3094 21.8108 44.2526 18.8375 41.1775 17.6767L30.7914 26.7798L32.889 30.8324Z" fill="#0077CC"/>
<path fill-rule="evenodd" clip-rule="evenodd" d="M72.418 35.781V11.9542H74.9025V35.781H72.418ZM67.3672 33.7038L68.3244 33.6021L68.3855 35.5571C65.8602 35.9033 63.7015 36.0865 61.9095 36.0865C59.5267 36.0865 57.8364 35.3941 56.8386 34.0093C55.8407 32.6245 55.3519 30.4659 55.3519 27.5537C55.3519 21.7293 57.6736 18.8171 62.2963 18.8171C64.5365 18.8171 66.2064 19.4484 67.3061 20.6907C68.4058 21.933 68.9556 23.9083 68.9556 26.5762L68.8132 28.4701H57.8568C57.8568 30.3029 58.1826 31.6674 58.8547 32.5431C59.5267 33.4187 60.6672 33.8668 62.3167 33.8668C63.9867 33.9075 65.6566 33.8464 67.3672 33.7038ZM66.4711 26.5151C66.4711 24.4786 66.1453 23.0327 65.4936 22.1977C64.842 21.3628 63.783 20.9351 62.3167 20.9351C60.8504 20.9351 59.7304 21.3831 58.9973 22.2588C58.2641 23.1345 57.8772 24.5601 57.8568 26.5151H66.4711ZM90.6037 32.3598V24.1935C90.6037 22.3606 90.1762 20.9962 89.3004 20.1408C88.4451 19.2652 87.0806 18.8375 85.2071 18.8375H78.8329V21.0369H85.3701C86.205 21.0369 86.877 21.2813 87.3658 21.7701C87.8545 22.2588 88.0989 23.0734 88.0989 24.1935V25.6189L82.8854 26.1077C81.134 26.2707 79.8511 26.7594 79.0366 27.5129C78.2219 28.2664 77.8146 29.4679 77.8146 31.0768C77.8146 32.706 78.2219 33.9483 79.0162 34.8035C79.8105 35.6793 80.9712 36.1069 82.4986 36.1069C84.4943 36.1069 86.4697 35.7403 88.4655 34.8647C89.2269 35.5906 90.4192 35.5776 91.8686 35.5619C92.0861 35.5595 92.31 35.5571 92.5385 35.5571L92.6607 33.3576C92.6607 33.3576 90.6037 33.1948 90.6037 32.3598ZM82.9059 34.0093C81.2155 34.0093 80.3806 32.991 80.3806 30.9546C80.3806 30.0382 80.5842 29.3254 81.0323 28.8366C81.4803 28.3479 82.193 28.0627 83.191 27.9814L88.0989 27.5129V32.991L87.3454 33.2559C85.8995 33.7649 84.4128 34.0093 82.9059 34.0093ZM100.318 21.0573C97.9147 21.0573 96.6929 21.8922 96.6929 23.5825C96.6929 24.3564 96.978 24.9063 97.5279 25.2321C98.0777 25.558 99.3403 25.8838 101.316 26.23C103.291 26.5762 104.676 27.0445 105.491 27.6759C106.305 28.2869 106.712 29.4477 106.712 31.1583C106.712 32.869 106.163 34.1112 105.063 34.9054C103.963 35.6997 102.375 36.1069 100.257 36.1069C98.8923 36.1069 94.3102 35.5978 94.3102 35.5978L94.4527 33.4391C94.864 33.4774 95.2578 33.5147 95.6345 33.5503C97.6637 33.7423 99.1949 33.8872 100.277 33.8872C101.56 33.8872 102.538 33.6835 103.21 33.2763C103.882 32.869 104.228 32.1766 104.228 31.2193C104.228 30.2622 103.943 29.6105 103.373 29.2643C102.802 28.9181 101.54 28.5923 99.5846 28.2869C97.6296 27.9814 96.2448 27.5333 95.4303 26.9224C94.6156 26.3319 94.2083 25.2118 94.2083 23.6029C94.2083 21.9941 94.7785 20.7925 95.919 20.0187C97.0594 19.2449 98.485 18.8579 100.175 18.8579C101.519 18.8579 106.203 19.2041 106.203 19.2041V21.3832C105.383 21.3357 104.612 21.2837 103.896 21.2355C102.464 21.1389 101.255 21.0573 100.318 21.0573ZM113.452 21.3424H118.727V19.1633H113.452V14.0925H110.988V19.1837H108.626V21.3424H110.988V30.0789C110.988 32.4413 111.314 34.05 111.986 34.885C112.658 35.7199 113.839 36.1476 115.57 36.1476C116.344 36.1476 117.464 36.0255 118.951 35.7811L118.788 33.7242L115.835 33.9279C114.796 33.9279 114.145 33.6225 113.86 33.0318C113.595 32.4413 113.452 31.1787 113.452 29.2847V21.3424ZM122.189 15.4163V12.5448H124.674V15.4366L122.189 15.4163ZM122.189 35.7811V19.1837H124.674V35.7811H122.189ZM139.194 19.2448C137.442 18.9801 136.2 18.8375 135.467 18.8375C132.983 18.8375 131.21 19.4892 130.132 20.7517C129.072 22.0144 128.543 24.2341 128.543 27.3907C128.543 30.5473 129.052 32.7874 130.03 34.1111C131.006 35.4348 132.799 36.1069 135.385 36.1069C136.404 36.1069 137.951 35.944 140.009 35.6385L139.907 33.5817L135.996 33.8872C134 33.8872 132.697 33.4187 132.066 32.4616C131.435 31.5045 131.129 29.8141 131.129 27.3907C131.129 24.9673 131.476 23.2974 132.148 22.4014C132.82 21.5053 134.102 21.0573 135.976 21.0573C136.811 21.0573 138.114 21.1591 139.886 21.3628L139.988 19.3467L139.194 19.2448Z" fill="black"/>
</g>
<defs>
<clipPath id="clip0_2060_534">
<rect width="140.4" height="48" fill="white"/>
</clipPath>
</defs>
</svg>
