<svg width="508" height="84" viewBox="0 0 508 84" fill="none" xmlns="http://www.w3.org/2000/svg">
<g clip-path="url(#clip0_407_86)">
<mask id="mask0_407_86" style="mask-type:luminance" maskUnits="userSpaceOnUse" x="0" y="0" width="508" height="84">
<path d="M508 0H0V84H508V0Z" fill="white"/>
</mask>
<g mask="url(#mask0_407_86)">
<path d="M6.64758 72.9498H19.7686V9.99176H6.64758V72.9498Z" fill="black"/>
<path d="M33.0657 72.9501H45.482V9.99176H33.0657V72.9501Z" fill="black"/>
<path d="M319.062 72.9501H332.119V9.99176H319.062V72.9501Z" fill="black"/>
<path d="M58.9177 72.9501H71.334V9.99176H58.9177V72.9501Z" fill="black"/>
<path d="M58.8587 9.99176V72.9501H97.6935V62.457H71.9797V45.9678H95.9323V35.4748H71.9797V20.4846H97.6935V9.99176H58.8587Z" fill="black"/>
<path d="M105.705 72.9501H118.121V9.99176H105.705V72.9501Z" fill="black"/>
<path d="M125.607 49.3185C125.607 32.1241 134.149 24.7175 147.446 24.7175C160.743 24.7175 168.316 32.0359 168.316 49.4948V52.3166H137.847C138.288 62.545 141.37 65.9838 147.27 65.9838C151.937 65.9838 154.843 63.2504 155.372 58.4888H167.788C166.996 68.8937 158.366 74.0079 147.27 74.0079C133.18 74.0079 125.607 66.513 125.607 49.3185ZM156.076 44.1162C155.46 35.4748 152.466 32.6532 147.27 32.6532C142.074 32.6532 138.816 35.5629 137.935 44.1162H156.076Z" fill="black"/>
<path d="M183.639 25.7753H170.958L186.281 72.9501H199.93L215.253 25.7753H202.572L192.977 61.3106L183.639 25.7753Z" fill="black"/>
<path d="M217.63 49.3185C217.63 32.1241 226.172 24.7175 239.469 24.7175C252.767 24.7175 260.341 32.0359 260.341 49.4948V52.3166H229.871C230.311 62.545 233.393 65.9838 239.293 65.9838C243.961 65.9838 246.867 63.2504 247.395 58.4888H259.811C259.019 68.8937 250.389 74.0079 239.293 74.0079C225.204 74.0079 217.63 66.513 217.63 49.3185ZM248.099 44.1162C247.483 35.4748 244.489 32.6532 239.293 32.6532C234.098 32.6532 230.84 35.5629 229.959 44.1162H248.099Z" fill="black"/>
<path d="M280.418 45.1742C280.418 37.7674 283.94 33.7112 289.4 33.7112C293.892 33.7112 296.445 36.5328 296.445 42.6171V72.9498H308.862V40.6771C308.862 29.7433 302.697 24.7172 293.715 24.7172C287.639 24.7172 282.618 27.8035 280.418 31.8596V25.7753H267.825V72.9498H280.418V45.1742Z" fill="black"/>
<path d="M319.013 9.99176H332.136V62.457H356.792V72.9501H319.013V9.99176Z" fill="black"/>
<path d="M360.021 49.3188C360.021 66.7776 367.331 74.0082 378.602 74.0082C384.327 74.0082 389.522 71.0982 391.372 67.3949V72.9501H403.7V25.7756H391.019V30.8898C389.083 27.7154 384.239 24.7175 378.955 24.7175C368.3 24.7175 360.021 31.3308 360.021 49.3188ZM382.213 33.976C388.377 33.976 391.725 38.6494 391.725 49.3188C391.725 59.9881 388.377 64.7497 382.213 64.7497C376.049 64.7497 372.526 59.9881 372.526 49.3188C372.526 38.6494 376.049 33.976 382.213 33.976Z" fill="black"/>
<path d="M425.627 67.3947C427.388 71.098 432.056 74.0079 437.781 74.0079C448.61 74.0079 456.712 67.3065 456.712 49.3185C456.712 31.3305 448.436 24.7172 438.043 24.7172C432.76 24.7172 427.829 27.6269 425.715 30.8895V9.99176H413.298V72.9498H425.627V67.3947ZM434.521 34.0639C440.685 34.0639 444.207 38.6491 444.207 49.3185C444.207 59.9878 440.685 64.7494 434.521 64.7494C428.357 64.7494 425.011 59.9878 425.011 49.3185C425.011 38.6491 428.357 34.0639 434.521 34.0639Z" fill="black"/>
<path d="M461.822 58.9298H474.236C474.412 63.8677 477.054 66.2485 481.722 66.2485C486.39 66.2485 489.032 64.1322 489.032 60.4286C489.032 57.0779 487.006 55.8436 482.603 54.7856L478.815 53.8157C468.072 51.0823 462.702 48.1726 462.702 39.2667C462.702 30.3609 470.978 24.7175 481.545 24.7175C492.112 24.7175 500.126 28.8618 500.479 38.6494H488.063C487.798 34.3288 485.156 32.4769 481.369 32.4769C477.584 32.4769 474.942 34.3286 474.942 37.8556C474.942 41.1181 477.054 42.3524 480.753 43.2345L484.629 44.2046C494.842 46.7617 501.272 49.3185 501.272 58.8417C501.272 68.3646 492.819 74.0079 481.369 74.0079C468.952 74.0079 462.084 69.3345 461.822 58.9298Z" fill="black"/>
</g>
</g>
<defs>
<clipPath id="clip0_407_86">
<rect width="508" height="84" fill="white"/>
</clipPath>
</defs>
</svg>
