<svg width="314" height="72" viewBox="0 0 314 72" fill="none" xmlns="http://www.w3.org/2000/svg">
<path d="M191.095 47.219C191.095 37.2749 191.095 27.4139 191.096 17.553C191.096 16.4746 191.099 16.4728 192.18 16.4719C193.953 16.4704 195.726 16.4977 197.498 16.4573C198.101 16.4436 198.412 16.6635 198.605 17.2052C198.813 17.791 199.075 18.358 199.333 18.9808C202.113 17.126 205.084 15.9358 208.34 15.7002C212.373 15.4084 216.372 15.6588 219.886 17.9587C222.946 19.962 224.95 22.7331 225.34 26.4879C225.405 27.1158 225.49 27.746 225.491 28.3753C225.503 33.6936 225.498 39.0119 225.498 44.3301C225.499 49.3691 223.23 53.0472 218.837 55.4543C216.354 56.8145 213.677 57.3416 210.87 57.5536C207.767 57.7879 204.8 57.363 201.888 56.3464C201.764 56.3032 201.634 56.2805 201.399 56.2209C201.399 56.6167 201.399 56.9411 201.399 57.2656C201.399 61.8637 201.384 66.4619 201.414 71.0598C201.418 71.7799 201.233 72.0109 200.489 71.9996C197.664 71.9568 194.838 71.9837 192.013 71.9802C191.744 71.9798 191.475 71.9487 191.095 71.925C191.095 63.6814 191.095 55.4917 191.095 47.219ZM201.399 31.6785C201.399 37.0794 201.401 42.4803 201.395 47.8812C201.394 48.3702 201.423 48.7497 201.971 49.0177C204.688 50.347 207.539 50.7147 210.487 50.1944C213.577 49.6491 215.099 48.145 215.157 45.4145C215.281 39.5177 215.208 33.6164 215.187 27.7171C215.181 25.8532 213.909 23.9967 212.173 23.4807C208.664 22.4381 205.268 22.702 202.108 24.6906C201.639 24.9856 201.348 25.3595 201.374 26.0293C201.445 27.8545 201.399 29.6843 201.399 31.6785Z" fill="#185477"/>
<path d="M117.104 6.00203C117.113 6.99889 117.084 7.99781 117.141 8.99191C117.184 9.74523 116.935 10.0111 116.155 10.0026C112.831 9.96641 109.507 9.98745 106.183 9.9875C101.862 9.98757 97.5412 9.98714 93.2201 9.98777C92.0331 9.98795 92.0321 9.98934 92.032 11.2144C92.0315 15.2032 92.0272 19.1919 92.0343 23.1806C92.0368 24.6125 91.892 24.4452 93.3445 24.4466C99.9369 24.4527 106.529 24.4619 113.122 24.4327C113.9 24.4293 114.182 24.6038 114.158 25.4325C114.099 27.4806 114.104 29.5324 114.157 31.5808C114.177 32.3702 113.967 32.6142 113.15 32.6102C106.474 32.5775 99.7987 32.5915 93.1232 32.5924C92.0352 32.5925 92.0326 32.5949 92.0323 33.6664C92.0313 38.1814 92.0509 42.6966 92.0141 47.2113C92.0077 48.0051 92.2146 48.2386 93.0257 48.2354C100.809 48.2052 108.593 48.2171 116.376 48.2179C117.46 48.218 117.462 48.2206 117.463 49.2968C117.464 51.5128 117.446 53.7289 117.473 55.9445C117.48 56.5278 117.281 56.7009 116.708 56.7003C104.964 56.6874 93.2192 56.6836 81.4747 56.7061C80.6909 56.7077 80.7297 56.294 80.73 55.7654C80.7349 47.1509 80.7321 38.5364 80.7336 29.9219C80.7348 22.8863 80.7394 15.8507 80.7948 8.70488C81.3139 8.37922 81.8115 7.93837 82.2408 7.99707C83.039 8.10623 83.7848 8.14688 84.5991 8.12546C85.6501 8.09781 86.6457 8.15589 87.6394 7.58474C87.8887 8.3057 88.2932 8.24316 88.9038 8.09699C89.8322 7.87476 90.7412 7.77165 91.7809 8.14442C92.8109 8.51369 94.0634 8.26165 95.2183 8.28397C95.529 8.28998 95.8402 8.2944 96.1502 8.3139C97.2752 8.38466 98.3848 8.86034 99.5335 8.33853C99.8791 8.18154 100.443 8.0749 100.703 8.24938C101.241 8.61089 101.674 8.66854 102.208 8.33601C102.306 8.27437 102.478 8.33969 102.613 8.32337C103.673 8.19521 104.722 8.43909 105.816 8.2843C106.531 8.18316 107.378 8.81556 108.2 8.29409C108.733 8.85307 109.254 8.42747 109.802 8.31032C110.252 8.21413 110.829 8.02418 111.079 8.67199C111.391 9.47843 111.616 9.53923 112.299 8.95028C112.544 8.73886 112.787 8.40944 113.063 8.37216C113.837 8.26774 114.628 8.26304 115.412 8.26518C116.238 8.26744 116.61 7.90749 116.654 7.06913C116.673 6.70651 116.947 6.35732 117.104 6.00203Z" fill="#185477"/>
<path d="M301.98 15.8042C305.09 15.9262 307.942 16.7809 310.715 17.9518C311.095 18.112 311.48 18.2598 311.85 18.4407C313.14 19.0726 313.068 18.8463 312.587 20.1834C311.959 21.932 311.277 23.6617 310.63 25.3689C308.963 24.8174 307.404 24.2168 305.8 23.7888C302.884 23.0112 299.915 22.6503 296.899 23.1204C295.509 23.3369 294.517 24.0848 294.072 25.4451C293.586 26.9255 293.754 28.3664 294.745 29.563C295.15 30.0519 295.866 30.361 296.5 30.5696C299.497 31.5559 302.518 32.4724 305.526 33.4272C307.431 34.032 309.19 34.9701 310.666 36.2887C312.285 37.7358 313.213 39.6591 313.57 41.8059C313.763 42.9679 313.911 44.1551 313.901 45.3294C313.877 48.3701 312.913 51.0534 310.867 53.3883C309.01 55.5072 306.661 56.6763 304.001 57.14C301.968 57.4944 299.866 57.5361 297.794 57.5551C293.977 57.5901 290.245 56.9864 286.64 55.6993C285.84 55.4136 285.045 55.0969 284.289 54.7142C284.056 54.5967 283.772 54.1606 283.828 53.9578C284.427 51.7922 285.089 49.6442 285.761 47.4009C286.746 47.7641 287.7 48.1544 288.677 48.469C292.249 49.6183 295.872 50.515 299.664 50.3674C301.41 50.2995 303.002 49.8111 303.837 48.0792C304.704 46.2831 304.858 44.4263 303.588 42.7837C303.092 42.1431 302.217 41.6793 301.422 41.4076C298.177 40.299 294.885 39.3277 291.63 38.246C287.252 36.7915 284.548 33.8979 283.989 29.1917C283.62 26.0889 284.019 23.153 285.819 20.5264C287.086 18.6778 288.986 17.6372 290.993 16.8379C294.267 15.5333 297.725 15.5532 301.177 15.6582C301.42 15.6656 301.661 15.7529 301.98 15.8042Z" fill="#185477"/>
<path d="M232.481 51.8732C232.872 50.5183 233.289 49.2389 233.624 47.9385C233.754 47.4377 233.924 47.3702 234.358 47.5639C236.979 48.734 239.734 49.4871 242.546 49.9753C244.627 50.3365 246.734 50.6147 248.865 50.219C250.968 49.8285 252.402 48.1539 252.431 46.0005C252.449 44.6546 252.456 43.2871 251.282 42.3741C250.645 41.8784 249.875 41.4921 249.105 41.2396C245.95 40.2058 242.763 39.2741 239.608 38.2427C237.284 37.4831 235.224 36.2564 233.844 34.1791C232.635 32.3591 232.076 30.287 231.989 28.1061C231.907 26.0876 232.043 24.1197 232.9 22.2122C233.7 20.4279 234.942 19.1283 236.549 18.1023C238.778 16.6789 241.231 16.018 243.85 15.7817C249.798 15.2449 255.477 16.065 260.786 18.9256C260.857 18.9642 260.923 19.0142 261.028 19.0827C260.236 21.1999 259.443 23.316 258.706 25.2842C256.431 24.6235 254.282 23.8828 252.077 23.3914C249.708 22.8632 247.279 22.7267 244.855 23.1199C243.088 23.4064 241.973 24.6995 241.959 26.4867C241.955 27.0346 241.98 27.5889 242.061 28.13C242.311 29.8109 243.664 30.3089 245.009 30.7451C248.194 31.7778 251.446 32.6267 254.572 33.8093C258.713 35.3753 261.322 38.2779 261.76 42.8977C262.019 45.6309 261.981 48.2782 260.704 50.7851C258.888 54.3488 255.924 56.3907 252.072 57.166C250.625 57.4572 249.131 57.6756 247.661 57.6568C243.255 57.6004 238.875 57.2459 234.685 55.7119C233.887 55.4197 233.128 55.0241 232.336 54.7113C231.797 54.498 231.73 54.1608 231.913 53.6635C232.122 53.0971 232.29 52.5153 232.481 51.8732Z" fill="#185477"/>
<path d="M1.94277 28.6273C1.4115 26.9937 0.744141 25.3895 0.382226 23.7191C-0.107643 21.4582 -0.189117 19.1404 0.509372 16.8864C1.33792 14.2126 3.25187 12.3553 5.37297 10.6832C7.29191 9.17038 9.52261 8.22582 11.7427 7.27018C11.9601 7.17662 12.2255 7.16192 12.468 7.16455C17.0851 7.21459 21.7023 7.26414 26.3192 7.333C28.4721 7.36511 30.6282 7.37606 32.7763 7.50554C36.7742 7.74653 40.8133 7.80639 44.648 9.15405C46.7777 9.90249 48.8313 10.8474 50.4479 12.5222C52.1133 14.2475 53.0274 16.3649 53.4371 18.6623C53.7251 20.2773 53.7768 21.9483 53.7838 23.595C53.7896 24.9641 53.5809 26.3346 53.4531 27.7032C53.4417 27.8251 53.3261 27.9372 53.2019 28.0202C53.1399 27.7957 53.1351 27.6049 53.1319 27.3517C52.6527 26.4435 52.3185 25.4536 51.6593 24.7834C50.4309 23.5346 48.807 22.845 47.1594 22.2731C42.5396 20.6696 37.7134 20.1438 32.8913 20.0226C27.3181 19.8825 21.7328 20.1564 16.1554 20.3343C15.403 20.3583 15.2286 20.1205 15.0723 19.5336C14.2535 16.4584 13.4142 13.3886 12.584 10.3165C12.342 9.42112 12.1063 8.52405 11.8676 7.62776C11.7515 7.60874 11.6354 7.58973 11.5193 7.57071C11.1592 8.35137 10.6933 9.10178 10.4597 9.91862C9.86068 12.0134 10.2249 14.1017 10.6928 16.1746C11.3799 19.2179 12.5642 22.0853 13.7283 24.9168C13.2698 24.614 12.8635 24.3945 12.411 24.8267C12.3456 24.8893 12.1746 24.9277 12.1057 24.8871C11.3549 24.4436 10.8185 25.038 10.1917 25.2368C9.90752 25.3269 9.46119 25.3574 9.26763 25.1977C8.66747 24.7026 8.13386 24.7241 7.43098 24.9908C6.84865 25.2118 6.1632 25.2077 5.52264 25.2135C5.02425 25.2179 4.52461 25.084 4.02553 25.0116C3.90353 25.1164 3.82715 25.0384 3.76395 24.951C3.19194 24.1596 2.93583 24.1709 2.38726 24.988C2.26893 25.1643 2.11171 25.3863 1.93084 25.436C1.2152 25.6326 1.33202 26.1006 1.46497 26.6154C1.63726 27.2827 1.78465 27.9564 1.94277 28.6273Z" fill="#185477"/>
<path d="M160.319 6.16937C160.327 6.75064 160.344 7.33191 160.344 7.91319C160.345 20.044 160.334 32.1749 160.358 44.3056C160.361 46.0223 160.891 47.6507 162.467 48.5155C163.414 49.0358 164.6 49.1519 165.696 49.3613C166.257 49.4686 166.855 49.3816 167.437 49.3827C168.675 49.3851 168.756 49.4147 168.641 50.6291C168.438 52.7827 168.159 54.9291 167.898 57.1907C166.73 57.1907 165.575 57.1638 164.421 57.1961C161.756 57.2707 159.156 56.9744 156.637 56.04C153.544 54.8928 151.527 52.7314 150.744 49.5626C150.326 47.8723 150.083 46.0957 150.069 44.3555C149.965 31.3463 149.937 18.3365 149.931 5.29561C150.102 5.85271 150.184 6.45499 150.37 7.0231C150.452 7.27333 150.746 7.63509 150.944 7.63547C151.859 7.63723 152.775 7.51251 153.692 7.47107C153.998 7.45721 154.523 7.46764 154.585 7.61776C155.004 8.62432 155.489 8.18058 155.809 7.86513C156.505 7.98175 157.202 8.32488 157.521 8.10932C158.459 7.47704 159.897 7.52712 160.319 6.16937Z" fill="#185477"/>
<path d="M136.053 4.83959C136.061 6.7218 136.077 8.604 136.077 10.4862C136.08 21.2831 136.054 32.0801 136.11 42.8767C136.117 44.1928 136.421 45.549 136.824 46.811C137.337 48.4179 138.802 48.953 140.309 49.1897C141.391 49.3597 142.504 49.3405 143.604 49.3785C144.56 49.4115 144.538 49.4193 144.426 50.3728C144.263 51.7639 144.176 53.1638 144.057 54.5601C143.999 55.2444 143.981 55.9358 143.861 56.6091C143.823 56.8251 143.516 57.1574 143.331 57.1587C139.839 57.1829 136.342 57.387 132.937 56.2299C128.817 54.8296 126.765 51.8064 126.141 47.7132C125.843 45.7639 125.795 43.7628 125.791 41.7848C125.766 28.4133 125.782 15.0418 125.832 1.64059C125.954 1.98228 126.086 2.35231 126.095 2.72544C126.127 3.96802 126.082 5.2129 126.127 6.45468C126.183 7.98629 126.948 8.52601 128.439 8.15134C128.654 8.09751 128.867 8.03999 129.078 7.97225C129.604 7.80267 130.134 7.38281 130.629 8.05846C130.68 8.12775 130.933 8.05708 131.091 8.03805C132.256 7.89759 133.417 7.71166 134.585 7.62451C135.496 7.55663 135.66 7.43139 135.749 6.50796C135.803 5.94727 135.948 5.39542 136.053 4.83959Z" fill="#185477"/>
<path d="M271.539 16.4713C273.2 16.4714 274.779 16.4701 276.357 16.4719C277.517 16.4731 277.52 16.4749 277.521 17.606C277.522 23.005 277.521 28.404 277.521 33.803C277.521 41.057 277.522 48.3111 277.521 55.5651C277.52 56.6858 277.517 56.6898 276.431 56.6906C273.663 56.6929 270.894 56.6744 268.125 56.7036C267.476 56.7105 267.203 56.5777 267.205 55.8472C267.225 43.0004 267.224 30.1535 267.207 17.3067C267.207 16.6576 267.393 16.432 268.051 16.459C269.184 16.5055 270.321 16.4715 271.539 16.4713Z" fill="#185477"/>
<path d="M172.647 50.0445C172.647 39.1634 172.647 28.3653 172.647 17.5673C172.647 16.4749 172.65 16.4725 173.716 16.4719C176.457 16.4706 179.198 16.4906 181.939 16.4589C182.667 16.4505 182.966 16.6268 182.964 17.4285C182.942 30.1923 182.945 42.9561 182.959 55.72C182.96 56.4083 182.798 56.7151 182.036 56.7054C179.185 56.6693 176.333 56.6736 173.481 56.7041C172.83 56.711 172.621 56.5137 172.634 55.8586C172.671 53.9489 172.647 52.038 172.647 50.0445Z" fill="#185477"/>
<path d="M45.0092 41.6052C42.8537 44.9452 40.7643 48.3304 38.5216 51.6108C36.7571 54.1917 34.3812 56.1562 31.5927 57.5894C29.1773 58.8308 26.6608 58.9039 24.0641 58.2343C21.023 57.4502 18.3707 55.952 15.9846 53.9157C16.4228 53.7446 16.8301 53.6477 17.2699 53.5414C17.3023 53.5319 17.3696 53.5259 17.4291 53.5234C17.6801 53.4755 17.8716 53.4301 18.1174 53.3552C20.0472 52.7315 21.6956 51.7087 23.0542 50.3307C24.8683 48.4907 26.5785 46.543 28.2554 44.5751C29.195 43.4725 29.9773 42.2358 30.8831 41.0372C31.2035 40.7806 31.4483 40.5101 31.745 40.3213C32.0878 40.1034 32.461 39.8573 32.8477 39.7979C34.4424 39.5531 36.0914 40.2201 37.6693 39.5307C37.7345 39.5022 37.8312 39.5545 37.9132 39.5546C39.5536 39.5553 41.1957 39.511 42.8338 39.5726C43.5491 39.5995 44.308 39.7374 44.9376 40.0473C45.1417 40.1477 44.998 40.9554 45.0125 41.4396C45.0142 41.4947 45.0105 41.55 45.0092 41.6052Z" fill="#185477"/>
<path d="M117.114 5.92452C116.947 6.35732 116.673 6.70651 116.654 7.06913C116.61 7.90749 116.238 8.26744 115.412 8.26518C114.628 8.26304 113.837 8.26774 113.063 8.37216C112.787 8.40944 112.544 8.73886 112.299 8.95028C111.616 9.53923 111.391 9.47843 111.079 8.67199C110.829 8.02418 110.252 8.21413 109.802 8.31032C109.254 8.42747 108.733 8.85307 108.2 8.29409C107.378 8.81556 106.531 8.18316 105.816 8.2843C104.722 8.43909 103.673 8.19521 102.613 8.32337C102.478 8.33969 102.306 8.27437 102.208 8.33601C101.674 8.66854 101.241 8.61089 100.703 8.24938C100.443 8.0749 99.8791 8.18154 99.5335 8.33853C98.3848 8.86034 97.2752 8.38466 96.1502 8.3139C95.8402 8.2944 95.529 8.28998 95.2183 8.28397C94.0634 8.26165 92.8109 8.51369 91.7809 8.14442C90.7412 7.77165 89.8322 7.87476 88.9038 8.09699C88.2932 8.24316 87.8887 8.3057 87.6394 7.58474C86.6457 8.15589 85.6501 8.09781 84.5991 8.12546C83.7848 8.14688 83.039 8.10623 82.2408 7.99707C81.8115 7.93837 81.3139 8.37921 80.8033 8.6275C80.7506 6.47307 80.7588 4.28553 80.7235 2.0987C80.7113 1.34289 81.1604 1.34014 81.699 1.34069C87.0437 1.34615 92.3883 1.34371 97.733 1.34366C103.77 1.3436 109.807 1.34296 115.844 1.34439C117.062 1.34468 117.132 1.41305 117.133 2.60716C117.134 3.68711 117.127 4.76706 117.114 5.92452Z" fill="#185477"/>
<path d="M1.94444 28.6893C1.78465 27.9564 1.63726 27.2827 1.46497 26.6154C1.33202 26.1006 1.2152 25.6326 1.93084 25.436C2.11171 25.3863 2.26893 25.1643 2.38726 24.988C2.93583 24.1709 3.19194 24.1596 3.76395 24.951C3.82715 25.0384 3.90353 25.1164 4.02553 25.0116C4.52461 25.084 5.02425 25.2179 5.52264 25.2135C6.1632 25.2077 6.84865 25.2118 7.43098 24.9908C8.13386 24.7241 8.66747 24.7026 9.26763 25.1977C9.46119 25.3574 9.90752 25.3269 10.1917 25.2368C10.8185 25.038 11.3549 24.4436 12.1057 24.8871C12.1746 24.9277 12.3456 24.8893 12.411 24.8267C12.8635 24.3945 13.2698 24.614 13.772 24.9553C14.3436 25.973 14.7851 26.9468 15.3068 27.8755C17.1334 31.1271 18.9794 34.3678 20.8359 37.6025C21.5024 38.7637 22.2194 39.8959 22.8589 41.026C21.9972 40.387 21.19 39.7635 20.4284 39.1751C20.0463 39.2034 19.4703 39.4025 19.319 39.2297C18.7064 38.5301 18.1395 38.8764 17.4562 39.0328C16.2357 39.3122 14.9613 39.6255 13.7401 39.5304C13.0258 39.4748 12.4623 39.3251 11.9231 39.7714C11.4752 39.6241 11.0346 39.6179 10.5946 39.5992C10.3799 39.59 10.158 39.5873 9.95331 39.531C8.75746 39.202 8.12137 39.7133 8.23794 40.9242C7.64503 39.9428 6.99228 38.9921 6.47051 37.9742C4.94405 34.9964 3.46928 31.992 1.97821 28.9961C1.94354 28.9264 1.95576 28.8334 1.94444 28.6893Z" fill="#185477"/>
<path d="M45.0573 41.573C45.0105 41.55 45.0142 41.4947 45.0125 41.4396C44.998 40.9554 45.1417 40.1477 44.9376 40.0473C44.308 39.7374 43.5491 39.5995 42.8338 39.5726C41.1957 39.511 39.5536 39.5553 37.9132 39.5546C37.8312 39.5545 37.7345 39.5022 37.6693 39.5307C36.0914 40.2201 34.4424 39.5531 32.8477 39.7979C32.461 39.8573 32.0878 40.1034 31.745 40.3213C31.4483 40.5101 31.2035 40.7806 30.8987 40.98C32.3611 38.43 33.8782 35.9253 35.3536 33.3963C36.3738 31.6477 37.3362 29.8654 38.3753 28.0725C38.8551 27.3802 39.3108 26.7291 39.7074 26.0438C40.4306 24.7943 40.8446 24.7065 42.2818 25.0512C43.5531 25.3561 44.8803 25.428 46.2491 25.6054C48.5869 26.21 50.8586 26.8121 53.1303 27.4142C53.1351 27.6049 53.1399 27.7957 53.1471 28.0581C52.347 29.5007 51.5532 30.8768 50.7404 32.2417C49.0818 35.0266 47.4149 37.8066 45.7462 40.5855C45.5491 40.9138 45.3198 41.2228 45.0573 41.573Z" fill="#185477"/>
<path d="M8.24023 40.9196C8.12137 39.7133 8.75746 39.202 9.95331 39.531C10.158 39.5873 10.3799 39.59 10.5946 39.5992C11.0346 39.6179 11.4752 39.6241 11.9231 39.7714C12.4623 39.3251 13.0258 39.4748 13.7401 39.5304C14.9613 39.6255 16.2357 39.3122 17.4562 39.0328C18.1395 38.8764 18.7064 38.5301 19.319 39.2297C19.4703 39.4025 20.0463 39.2034 20.4284 39.1751C21.19 39.7635 21.9972 40.387 22.8563 41.0302C22.9083 41.0497 22.9033 41.0412 22.9206 41.0926C23.0467 41.2814 23.1555 41.4189 23.2939 41.57C23.361 41.6098 23.3857 41.6447 23.4224 41.7233C23.48 41.8038 23.513 41.8497 23.5543 41.9281C23.5626 41.9607 23.5692 42.0277 23.5861 42.0796C23.711 42.2725 23.8191 42.4136 23.9743 42.5839C25.0031 43.9906 24.8597 43.6744 23.8829 44.6639C21.0633 47.5202 18.2265 50.3596 15.3677 53.2366C15.3027 53.3107 15.2665 53.3539 15.2303 53.3971C15.2303 53.3971 15.1499 53.3778 15.0878 53.3407C14.9949 53.2717 14.9632 53.2405 14.9307 53.2103C12.8194 49.3785 10.7081 45.5468 8.59877 41.6092C8.47795 41.3071 8.35512 41.1108 8.23229 40.9145C8.23229 40.9145 8.24251 40.915 8.24023 40.9196Z" fill="#185477"/>
<path d="M277.501 1.59668C277.509 4.16933 277.509 6.74205 277.531 9.31457C277.536 9.80527 277.38 10.0017 276.867 9.99896C273.824 9.98281 270.781 9.98879 267.737 9.99395C267.337 9.99463 267.042 9.95096 267.046 9.42678C267.069 6.38431 267.072 3.34169 267.085 0.299143C267.085 0.249357 267.124 0.199745 267.179 0.0705867C267.407 0.0566392 267.673 0.040379 267.958 0.0740041C267.848 0.48288 267.562 0.879326 267.636 1.18962C267.702 1.46372 268.14 1.72536 268.467 1.83703C268.753 1.93475 269.113 1.80726 269.44 1.79489C270.398 1.75872 271.363 1.65049 272.313 1.72355C273.111 1.78495 273.88 2.18906 274.678 1.65318C274.866 1.52733 275.298 1.53119 275.474 1.66442C276.195 2.20683 276.834 1.7487 277.501 1.59668Z" fill="#185477"/>
<path d="M172.507 5.17188C172.498 3.68245 172.499 2.19283 172.473 0.70369C172.465 0.22711 172.603 0.0054114 173.125 0.00812873C176.188 0.0240747 179.25 0.0241025 182.313 0.00785356C182.843 0.00504099 182.964 0.244149 182.957 0.71182C182.937 2.03588 182.945 3.36035 182.895 4.80979C182.769 5.6658 182.667 6.39511 182.619 7.12795C182.552 8.14022 182.129 8.44795 181.11 8.36579C180.053 8.28054 178.986 8.31714 177.923 8.30262C177.785 8.30075 177.647 8.32471 177.511 8.31502C176.346 8.23204 175.182 8.0796 174.017 8.08134C173.299 8.08241 173.034 7.83574 172.945 7.15975C172.857 6.48951 172.658 5.83391 172.507 5.17188Z" fill="#185477"/>
<path d="M160.328 6.09175C159.897 7.52712 158.459 7.47704 157.521 8.10932C157.202 8.32488 156.505 7.98175 155.809 7.86513C155.489 8.18058 155.004 8.62432 154.585 7.61776C154.523 7.46764 153.998 7.45721 153.692 7.47107C152.775 7.51251 151.859 7.63723 150.944 7.63547C150.746 7.63509 150.452 7.27333 150.37 7.0231C150.184 6.45499 150.102 5.85271 149.94 5.21835C149.893 3.68255 149.901 2.19231 149.866 0.703129C149.852 0.141208 150.091 0.00448764 150.605 0.00717605C153.613 0.0229203 156.621 0.0285797 159.629 0.00386513C160.244 -0.00118559 160.363 0.262923 160.355 0.798425C160.331 2.53673 160.341 4.27553 160.328 6.09175Z" fill="#185477"/>
<path d="M136.063 4.762C135.948 5.39541 135.803 5.94727 135.749 6.50796C135.66 7.43139 135.496 7.55663 134.585 7.62451C133.417 7.71166 132.256 7.89759 131.091 8.03805C130.933 8.05708 130.68 8.12775 130.629 8.05846C130.134 7.38281 129.604 7.80267 129.078 7.97225C128.867 8.03999 128.654 8.09751 128.439 8.15134C126.948 8.52601 126.183 7.98629 126.127 6.45468C126.082 5.2129 126.127 3.96802 126.095 2.72544C126.086 2.35231 125.954 1.98228 125.84 1.56333C125.72 0.014273 125.72 0.0137163 127.173 0.0135262C129.847 0.0131775 132.522 0.0326968 135.197 0.000253341C135.871 -0.00791943 136.124 0.179467 136.095 0.879871C136.044 2.14626 136.075 3.41605 136.063 4.762Z" fill="#185477"/>
<path d="M172.499 5.24917C172.658 5.83391 172.857 6.48951 172.945 7.15975C173.034 7.83574 173.299 8.08241 174.017 8.08134C175.182 8.0796 176.346 8.23204 177.511 8.31502C177.647 8.32471 177.785 8.30075 177.923 8.30262C178.986 8.31714 180.053 8.28054 181.11 8.36579C182.129 8.44795 182.552 8.14022 182.619 7.12795C182.667 6.39511 182.769 5.6658 182.885 4.8874C182.931 6.33483 182.925 7.83006 182.956 9.32455C182.966 9.83235 182.778 9.99704 182.279 9.99451C179.233 9.97899 176.187 9.97838 173.141 9.99467C172.631 9.9974 172.465 9.80895 172.475 9.3136C172.5 7.98492 172.488 6.65556 172.499 5.24917Z" fill="#185477"/>
<path d="M277.511 1.53582C276.834 1.7487 276.195 2.20683 275.474 1.66442C275.298 1.53119 274.866 1.52733 274.678 1.65318C273.88 2.18906 273.111 1.78495 272.313 1.72355C271.363 1.65049 270.398 1.75872 269.44 1.79489C269.113 1.80726 268.753 1.93475 268.467 1.83703C268.14 1.72536 267.702 1.46372 267.636 1.18962C267.562 0.879326 267.848 0.48288 268.031 0.0810873C268.268 0.0551858 268.45 0.0720892 268.665 0.124131C268.812 0.118843 268.928 0.0784142 269.043 0.0379883C269.33 0.0316063 269.617 0.0252215 270.01 0.062495C270.478 0.083432 270.841 0.0607108 271.203 0.0379883C271.711 0.0315365 272.219 0.0250845 272.838 0.0526801C273.12 0.113133 273.289 0.139538 273.459 0.165941C273.949 0.13759 274.44 0.109238 274.985 0.121346C275.178 0.163731 275.316 0.165656 275.454 0.167582C275.538 0.154725 275.621 0.141866 275.74 0.174805C276.351 0.26217 276.926 0.303734 277.502 0.345299C277.508 0.721852 277.514 1.09841 277.511 1.53582Z" fill="#185477"/>
<path d="M277.494 0.278576C276.926 0.303734 276.351 0.26217 275.723 0.216254C276.275 0.211887 276.881 0.211869 277.494 0.278576Z" fill="#185477"/>
<path d="M17.2374 53.5509C16.8301 53.6477 16.4228 53.7446 15.9575 53.867C15.7221 53.7808 15.5448 53.669 15.3646 53.4871C15.3836 53.3961 15.4054 53.375 15.4954 53.3604C16.1215 53.4281 16.6795 53.4895 17.2374 53.5509Z" fill="#185477"/>
<path d="M271.131 0.0308365C270.841 0.0607107 270.478 0.083432 270.081 0.0721982C270.384 0.0333903 270.722 0.0285373 271.131 0.0308365Z" fill="#185477"/>
<path d="M8.24495 40.9695C8.35512 41.1108 8.47795 41.3071 8.59176 41.5512C8.47437 41.4075 8.36599 41.216 8.24495 40.9695Z" fill="#185477"/>
<path d="M273.415 0.119112C273.289 0.139538 273.12 0.113133 272.914 0.0623259C273.042 0.0493751 273.207 0.0608283 273.415 0.119112Z" fill="#185477"/>
<path d="M275.414 0.120974C275.316 0.165657 275.178 0.163732 274.989 0.16439C275.082 0.136102 275.228 0.105233 275.414 0.120974Z" fill="#185477"/>
<path d="M268.984 0.0337102C268.928 0.0784145 268.812 0.118843 268.659 0.163569C268.722 0.121722 268.824 0.075578 268.984 0.0337102Z" fill="#185477"/>
<path d="M14.9386 53.2466C14.9632 53.2405 14.9949 53.2717 15.0485 53.3279C15.0161 53.3537 14.9745 53.3306 14.9386 53.2466Z" fill="#185477"/>
<path d="M15.2432 53.4205C15.2665 53.3539 15.3027 53.3107 15.3758 53.2735C15.4128 53.2796 15.4273 53.354 15.4273 53.354C15.4054 53.375 15.3836 53.3961 15.3285 53.4485C15.2954 53.4798 15.256 53.4438 15.2432 53.4205Z" fill="#185477"/>
<path d="M1.03649 25.3602C1.03922 25.3598 1.03377 25.3605 1.03649 25.3602Z" fill="#185477"/>
<path d="M17.4291 53.5234C17.5598 53.4753 17.7499 53.4248 18.0016 53.3794C17.8716 53.4301 17.6801 53.4755 17.4291 53.5234Z" fill="#185477"/>
<path d="M38.3753 28.0725C38.9234 26.8683 39.5017 25.6274 40.1431 24.4201C40.2413 24.2353 40.6636 24.0712 40.8799 24.1246C42.6258 24.5557 44.3584 25.0412 46.1389 25.5564C44.8803 25.428 43.5531 25.3561 42.2818 25.0512C40.8446 24.7065 40.4306 24.7943 39.7074 26.0438C39.3108 26.7291 38.8551 27.3802 38.3753 28.0725Z" fill="#185477"/>
<path d="M22.9206 41.0926C23.0139 41.178 23.1246 41.3148 23.2498 41.504C23.1555 41.4189 23.0467 41.2814 22.9206 41.0926Z" fill="#185477"/>
<path d="M23.5861 42.0796C23.6791 42.1678 23.7891 42.308 23.9131 42.5014C23.8191 42.4136 23.711 42.2725 23.5861 42.0796Z" fill="#185477"/>
<path d="M23.4224 41.7233C23.4404 41.7289 23.4829 41.7693 23.5357 41.8526C23.513 41.8497 23.48 41.8038 23.4224 41.7233Z" fill="#185477"/>
</svg>
