<?xml version="1.0" encoding="UTF-8"?><svg id="Wordmark" xmlns="http://www.w3.org/2000/svg" viewBox="0 0 2000 647.64"><defs><style>.cls-1{fill:none;}.cls-1,.cls-2{stroke-width:0px;}.cls-2{fill:#252539;fill-rule:evenodd;}</style></defs><path class="cls-2" d="M242.49,405.56c-51.93,0-81.74-34.04-81.74-80.25,0-52.67,33.29-82.98,81.99-82.98s78.51,29.32,78.51,77.76v6.71h-108.57c-4.22-.25-9.19-2.98-11.93-5.96l-6.21,6.96c3.98,3.48,7.95,8.7,8.7,12.42,4.72,21.37,18.63,31.06,41.49,31.06,19.63,0,32.55-9.44,36.27-24.6h40.5c-4.97,32.3-31.06,58.88-79.01,58.88ZM280.75,303.94c-2.98-19.38-15.9-29.32-39.01-29.32-21.61,0-36.27,11.43-39.5,29.32h78.51ZM383.6,287.3l8.7.99c8.94-30.81,24.35-45.71,50.43-45.71s40,15.4,43.98,45.22h8.94c7.45-29.81,25.34-45.22,54.16-45.22,34.04,0,51.68,23.35,51.68,71.8v88.2h-41.24v-83.73c0-28.07-7.95-40.25-27.83-40.25-25.59,0-35.28,22.36-35.28,58.88v65.09h-41.49v-88.7c0-23.35-9.44-35.28-27.08-35.28-26.33,0-36.02,25.09-36.02,53.91v70.06h-41.24v-157.02h40.5v4.47c0,22.36-8.2,25.84-8.2,37.27ZM709.32,405.56c-51.93,0-81.74-34.04-81.74-80.25,0-52.67,33.29-82.98,81.99-82.98s78.51,29.32,78.51,77.76v6.71h-108.57c-4.22-.25-9.19-2.98-11.93-5.96l-6.21,6.96c3.98,3.48,7.95,8.7,8.7,12.42,4.72,21.37,18.63,31.06,41.49,31.06,19.63,0,32.55-9.44,36.27-24.6h40.5c-4.97,32.3-31.06,58.88-79.01,58.88ZM747.58,303.94c-2.98-19.38-15.9-29.32-39.01-29.32-21.61,0-36.27,11.43-39.5,29.32h78.51ZM818.14,402.58v-157.02h40.5v4.47c0,24.1-8.2,27.83-8.2,40.25l8.7.99c8.45-31.3,19.63-48.7,57.64-48.7l-1.74,43.48c-4.22-.5-8.2-.5-11.68-.5-29.07,0-43.98,16.89-43.98,49.44v67.58h-41.24ZM1027.33,381.71c5.96-.99,11.93-1.49,17.39-1.49,29.07,0,50.68,13.17,50.68,37.27,0,42.48-48.94,47.2-159.25,47.2v-35.03c93.42,0,119.01-1.49,119.01-18.39,0-9.69-7.7-13.91-25.59-13.91-13.42,0-42.98,3.23-72.79,8.94l-5.47-25.59c31.55-5.47,64.84-12.92,80.5-22.11v-6.96c-15.9,5.47-31.55,8.45-45.71,8.45-32.55,0-57.14-18.14-57.14-54.66,0-40,32.05-62.86,78.01-62.86,31.3,0,55.16,16.89,57.14,40.25h7.45c5.22-28.32,15.4-40.25,37.27-40.25h3.98l-1.74,42.48h-5.47c-8.2,0-13.91,1.24-18.39,3.98,2.73,5.96,4.22,12.17,4.22,19.13,0,33.54-22.11,57.64-64.35,69.32l.25,4.22ZM1051.18,306.18c0-18.39-15.4-29.57-40.99-29.57s-40.99,11.18-40.99,29.57c0,20.12,14.16,29.07,41.24,29.07s40.75-8.94,40.75-29.07ZM1205.47,405.56c-51.93,0-81.74-34.04-81.74-80.25,0-52.67,33.29-82.98,81.99-82.98s78.51,29.32,78.51,77.76v6.71h-108.57c-4.22-.25-9.19-2.98-11.93-5.96l-6.21,6.96c3.98,3.48,7.95,8.7,8.7,12.42,4.72,21.37,18.63,31.06,41.49,31.06,19.63,0,32.55-9.44,36.27-24.6h40.5c-4.97,32.3-31.06,58.88-79.01,58.88ZM1243.73,303.94c-2.98-19.38-15.9-29.32-39.01-29.32-21.61,0-36.27,11.43-39.5,29.32h78.51ZM1346.58,287.3l8.7.99c8.7-29.32,28.57-45.71,59.38-45.71,38.76,0,58.39,23.35,58.39,71.8v88.2h-41.24v-83.73c0-28.07-9.94-40.25-33.79-40.25-30.56,0-42.48,25.09-42.48,53.91v70.06h-41.24v-157.02h40.5v4.47c0,22.36-8.2,25.84-8.2,37.27ZM1582.86,405.56c-51.43,0-83.73-31.55-83.73-81.49s32.3-81.49,83.73-81.49c41.74,0,71.3,23.6,76.02,61.37h-40.5c-2.24-17.14-15.9-27.08-36.77-27.08-25.59,0-41.74,18.14-41.74,47.2s16.15,47.2,41.74,47.2c20.87,0,34.53-9.94,36.77-27.08h40.5c-4.72,37.76-34.29,61.37-76.02,61.37ZM1760.5,405.56c-51.93,0-81.74-34.04-81.74-80.25,0-52.67,33.29-82.98,81.99-82.98s78.51,29.32,78.51,77.76v6.71h-108.57c-4.22-.25-9.19-2.98-11.93-5.96l-6.21,6.96c3.98,3.48,7.95,8.7,8.7,12.42,4.72,21.37,18.63,31.06,41.49,31.06,19.63,0,32.55-9.44,36.27-24.6h40.5c-4.97,32.3-31.06,58.88-79.01,58.88ZM1798.76,303.94c-2.98-19.38-15.9-29.32-39.01-29.32-21.61,0-36.27,11.43-39.5,29.32h78.51Z"/><rect class="cls-1" y="0" width="2000" height="647.64"/></svg>