<svg width="933" height="120" viewBox="0 0 933 120" fill="none" xmlns="http://www.w3.org/2000/svg">
<g clip-path="url(#clip0_947_117)">
<path d="M0 0H24.754V118.017H0V0Z" fill="black"/>
<path d="M49.1758 0H73.9296V118.017H49.1758V0Z" fill="black"/>
<path d="M98.348 0H171.614V19.6694H123.103V47.7686H168.291V67.4378H123.103V98.3471H171.614V118.017H98.348V0Z" fill="black"/>
<path d="M186.728 0H210.154V118.017H186.728V0Z" fill="black"/>
<path d="M224.275 73.7195C224.275 41.4878 240.39 27.6035 265.476 27.6035C290.562 27.6035 304.85 41.3225 304.85 74.05V79.3393H247.368C248.198 98.5126 254.013 104.959 265.144 104.959C273.949 104.959 279.431 99.8347 280.428 90.9095H303.853C302.358 110.413 286.077 120 265.144 120C238.563 120 224.275 105.95 224.275 73.7195ZM281.757 63.9673C280.595 47.7688 274.946 42.4795 265.144 42.4795C255.342 42.4795 249.195 47.9341 247.534 63.9673H281.757Z" fill="black"/>
<path d="M333.758 29.5869H309.834L338.741 118.017H364.492L393.4 29.5869H369.476L351.374 96.1987L333.758 29.5869Z" fill="black"/>
<path d="M397.885 73.7195C397.885 41.4878 414.001 27.6035 439.087 27.6035C464.173 27.6035 478.46 41.3225 478.46 74.05V79.3393H420.978C421.809 98.5126 427.623 104.959 438.754 104.959C447.56 104.959 453.042 99.8347 454.039 90.9095H477.464C475.969 110.413 459.688 120 438.754 120C412.173 120 397.885 105.95 397.885 73.7195ZM455.368 63.9673C454.205 47.7688 448.556 42.4795 438.754 42.4795C428.953 42.4795 422.806 47.9341 421.144 63.9673H455.368Z" fill="black"/>
<path d="M516.339 65.9506C516.339 52.0663 522.984 44.463 533.285 44.463C541.758 44.463 546.574 49.7522 546.574 61.1571V118.017H570.003V57.5211C570.003 37.025 558.371 27.6035 541.425 27.6035C529.962 27.6035 520.492 33.3886 516.339 40.9919V29.587H492.582V118.017H516.339V65.9506Z" fill="black"/>
<path d="M589.432 0H614.187V98.3471H660.706V118.017H589.432V0Z" fill="black"/>
<path fill-rule="evenodd" clip-rule="evenodd" d="M666.522 73.7195C666.522 40.0002 682.138 27.6035 702.238 27.6035C712.206 27.6035 721.345 33.2233 725.001 39.1738V29.587H748.921V118.017H725.667V107.604C722.175 114.546 712.375 120 701.572 120C680.31 120 666.522 106.447 666.522 73.7195ZM708.387 44.9588C720.014 44.9588 726.327 53.7192 726.327 73.7195C726.327 93.7191 720.014 102.645 708.387 102.645C696.755 102.645 690.109 93.7191 690.109 73.7195C690.109 53.7192 696.755 44.9588 708.387 44.9588Z" fill="black"/>
<path fill-rule="evenodd" clip-rule="evenodd" d="M790.289 107.603V118.017H767.03V0H790.458V39.1736C794.441 33.0579 803.749 27.6033 813.718 27.6033C833.322 27.6033 848.937 40 848.937 73.7193C848.937 107.438 833.649 120 813.216 120C802.418 120 793.612 114.545 790.289 107.603ZM807.072 45.124C818.699 45.124 825.345 53.719 825.345 73.7193C825.345 93.7189 818.699 102.645 807.072 102.645C795.44 102.645 789.127 93.7189 789.127 73.7193C789.127 53.719 795.44 45.124 807.072 45.124Z" fill="black"/>
<path d="M858.573 91.7358H881.996C882.329 100.992 887.316 105.455 896.117 105.455C904.923 105.455 909.91 101.488 909.91 94.5455C909.91 88.2646 906.085 85.9507 897.781 83.9669L890.633 82.1489C870.369 77.0249 860.231 71.5704 860.231 54.8762C860.231 38.182 875.852 27.6035 895.784 27.6035C915.72 27.6035 930.839 35.3721 931.505 53.7192H908.082C907.58 45.62 902.598 42.1489 895.456 42.1489C888.309 42.1489 883.327 45.62 883.327 52.2316C883.327 58.3475 887.316 60.6613 894.289 62.314L901.6 64.1326C920.871 68.926 933 73.7195 933 91.5706C933 109.422 917.052 120 895.456 120C872.028 120 859.069 111.24 858.573 91.7358Z" fill="black"/>
</g>
<defs>
<clipPath id="clip0_947_117">
<rect width="933" height="120" fill="white"/>
</clipPath>
</defs>
</svg>
