<svg width="315" height="113" viewBox="0 0 315 113" fill="none" xmlns="http://www.w3.org/2000/svg">
<g clip-path="url(#clip0_916_1087)">
<path d="M185.135 10.8696H204.738V17.3889H198.203V23.9081H191.669V36.9464H204.738V43.4658H191.669V89.1005H185.135V95.6196H165.532V89.1005H172.067V43.4658H165.532V36.9464H172.067V23.9081H178.601V17.3889H185.135V10.8696Z" fill="black"/>
<path d="M280.969 82.5812H287.503V89.1006H294.037V95.6196H313.64V89.1006H307.105V82.5812H300.572V17.3889H280.969V82.5812Z" fill="black"/>
<path d="M204.738 49.9848H211.271V43.4658H217.806V36.9464H250.476V43.4658H263.545V82.5811H270.079V89.1005H276.613V95.6195H257.011V89.1005H250.476V82.5811H243.942V49.9848H237.408V43.4658H230.874V49.9848H224.34V82.5811H230.874V89.1005H237.408V95.6195H217.806V89.1005H211.271V82.5811H204.738V49.9848Z" fill="black"/>
<path d="M237.408 89.1005V82.5811H243.942V89.1005H237.408Z" fill="black"/>
<path opacity="0.22" d="M34.8493 104.31H26.1371V113.002H34.8493V104.31Z" fill="#5F4CD9"/>
<path opacity="0.85" d="M52.271 69.5353H8.71008V78.2276H52.271V69.5353Z" fill="#5F4CD9"/>
<path d="M52.2758 60.8452H17.4271V69.5375H52.2758V60.8452Z" fill="#5F4CD9"/>
<path opacity="0.4" d="M43.5615 95.6195H26.1371V104.312H43.5615V95.6195Z" fill="#5F4CD9"/>
<path opacity="0.7" d="M52.273 78.2391H0V86.9314H52.273V78.2391Z" fill="#5F4CD9"/>
<path opacity="0.5" d="M52.2737 86.9158H26.1371V95.6081H52.2737V86.9158Z" fill="#5F4CD9"/>
<path opacity="0.22" d="M34.8493 43.4647H26.1371V52.157H34.8493V43.4647Z" fill="#5F4CD9"/>
<path opacity="0.85" d="M52.271 8.69019H8.71008V17.3825H52.271V8.69019Z" fill="#5F4CD9"/>
<path d="M52.2758 0H17.4271V8.69231H52.2758V0Z" fill="#5F4CD9"/>
<path opacity="0.4" d="M43.5615 34.7607H26.1371V43.4531H43.5615V34.7607Z" fill="#5F4CD9"/>
<path opacity="0.7" d="M52.273 17.3804H0V26.0727H52.273V17.3804Z" fill="#5F4CD9"/>
<path opacity="0.5" d="M52.2737 26.0706H26.1371V34.7629H52.2737V26.0706Z" fill="#5F4CD9"/>
<path opacity="0.22" d="M95.8334 104.31H87.1212V113.002H95.8334V104.31Z" fill="#5F4CD9"/>
<path opacity="0.85" d="M113.255 69.5353H69.6943V78.2276H113.255V69.5353Z" fill="#5F4CD9"/>
<path d="M113.26 60.8452H78.4113V69.5375H113.26V60.8452Z" fill="#5F4CD9"/>
<path opacity="0.4" d="M104.546 95.6195H87.1212V104.312H104.546V95.6195Z" fill="#5F4CD9"/>
<path opacity="0.7" d="M113.257 78.2391H60.9844V86.9314H113.257V78.2391Z" fill="#5F4CD9"/>
<path opacity="0.5" d="M113.258 86.9158H87.1212V95.6081H113.258V86.9158Z" fill="#5F4CD9"/>
<path opacity="0.22" d="M95.8334 43.4647H87.1212V52.157H95.8334V43.4647Z" fill="#5F4CD9"/>
<path opacity="0.85" d="M113.255 8.69019H69.6943V17.3825H113.255V8.69019Z" fill="#5F4CD9"/>
<path d="M113.26 0H78.4113V8.69231H113.26V0Z" fill="#5F4CD9"/>
<path opacity="0.4" d="M104.546 34.7607H87.1212V43.4531H104.546V34.7607Z" fill="#5F4CD9"/>
<path opacity="0.7" d="M113.257 17.3804H60.9844V26.0727H113.257V17.3804Z" fill="#5F4CD9"/>
<path opacity="0.5" d="M113.258 26.0706H87.1212V34.7629H113.258V26.0706Z" fill="#5F4CD9"/>
</g>
<defs>
<clipPath id="clip0_916_1087">
<rect width="315" height="113" fill="white"/>
</clipPath>
</defs>
</svg>
