<svg width="239" height="26" viewBox="0 0 239 26" fill="none" xmlns="http://www.w3.org/2000/svg">
<g clip-path="url(#clip0_2060_708)">
<path fill-rule="evenodd" clip-rule="evenodd" d="M32.1857 0L26.0943 14.5971L19.9971 0H16.0857L22.7686 15.9571C23.3229 17.2886 24.6229 18.1486 26.0714 18.1486C27.52 18.1486 28.8171 17.2886 29.3743 15.9629L36.0971 0H32.1857ZM34.7886 22.24L45.9314 10.9743L44.4114 7.38857L32.24 19.7171C31.2229 20.7486 30.9314 22.2686 31.4943 23.6C32.0543 24.92 33.3486 25.7743 34.7914 25.7743L34.7971 25.78L52.1943 25.7371L50.6743 22.1514L34.7914 22.24H34.7886ZM6.26286 10.9657L7.78286 7.38L19.9543 19.7086C20.9714 20.7371 21.2657 22.2629 20.7 23.5914C20.14 24.9143 18.84 25.7657 17.4029 25.7657L0.00571429 25.7257L0 25.7314L1.52 22.1457L17.4029 22.2343L6.26286 10.9657Z" fill="black"/>
<path d="M66.0914 24.3485L66.0943 24.3514H69.0857V14.0485H78.7486V11.3771H69.0857V4.67424H79.7143V2.00281H66.0914V24.3485Z" fill="black"/>
<path d="M85.6229 8.20862H82.8171V24.3486H85.6229V8.20862Z" fill="black"/>
<path d="M92.7372 10.3485H92.74C92.6772 10.5028 92.6172 10.5971 92.4286 10.5971C92.2715 10.5971 92.2115 10.5371 92.2115 10.3828V8.20849H89.4058V24.3485H92.2058V15.1885C92.2058 12.0885 93.6429 10.8771 96.3543 10.8771H98.6V8.14563H96.7915C94.58 8.14563 93.4572 8.79706 92.7372 10.3485Z" fill="black"/>
<path d="M107.931 22.3998C104.923 22.3998 102.677 20.6913 102.489 17.0627H115.6V15.5084C115.6 11.0084 112.857 7.74841 107.866 7.74841C102.874 7.74841 99.6943 11.0084 99.6943 16.2827C99.6943 21.557 102.78 24.817 107.926 24.817C113.071 24.817 115.186 21.6856 115.66 19.2341H112.734C112.28 21.0684 110.94 22.3998 107.931 22.3998ZM107.866 10.1627C110.831 10.1627 112.666 11.7484 112.794 14.7284H102.566C103.031 11.6827 105.183 10.1627 107.866 10.1627Z" fill="black"/>
<path d="M135.511 21.3372C135.443 21.6172 135.357 21.7115 135.134 21.7115C134.911 21.7115 134.817 21.6172 134.757 21.3372L131.637 8.20862H126.803L123.683 21.3372C123.614 21.6172 123.529 21.7115 123.306 21.7115C123.083 21.7115 122.989 21.6172 122.929 21.3372L119.809 8.20862H117.066V8.83148H117.083L120.889 24.3486H125.706L128.92 10.8143C128.98 10.5943 129.04 10.5343 129.229 10.5343C129.383 10.5343 129.477 10.6 129.537 10.8143L132.751 24.3486H137.569L141.374 8.83148V8.20862H138.631L135.511 21.3372Z" fill="black"/>
<path d="M151.157 7.74573C146.446 7.74573 142.706 10.6914 142.706 16.28C142.706 21.8686 146.443 24.8143 151.157 24.8143C155.871 24.8143 159.611 21.8686 159.611 16.28C159.611 10.6914 155.869 7.74573 151.157 7.74573ZM151.163 22.3314C147.889 22.3314 145.549 20.1629 145.549 16.28C145.549 12.3972 147.889 10.2286 151.163 10.2286C154.437 10.2286 156.777 12.4029 156.777 16.28C156.777 20.1572 154.437 22.3314 151.163 22.3314Z" fill="black"/>
<path d="M165.909 10.3485C165.849 10.5028 165.789 10.5971 165.6 10.5971C165.443 10.5971 165.383 10.5371 165.383 10.3828V8.20849H162.577V24.3456H165.377V15.1885C165.377 12.0885 166.815 10.8771 169.526 10.8771H171.772V8.14563H169.963C167.751 8.14563 166.629 8.79706 165.909 10.3485Z" fill="black"/>
<path d="M176.74 15.72V2.00281H173.935V24.3628H176.74V19.2085L179.783 16.6142L185.834 24.3571H188.903V23.7342L181.854 14.84L188.903 8.83139V8.20853H185.297L176.74 15.72Z" fill="black"/>
<path d="M198.626 15.1113L196.32 14.6771C194.109 14.2571 193.14 13.7942 193.14 12.4571C193.14 11.1199 194.234 10.1285 196.851 10.1285C199.469 10.1285 200.966 11.1256 201.183 13.3285H204.04C203.723 9.3942 200.669 7.75134 196.84 7.75134C193.011 7.75134 190.323 9.39706 190.323 12.4971C190.323 15.5971 192.523 16.6713 195.689 17.2599L197.994 17.6942C200.24 18.1142 201.363 18.5971 201.363 19.9913C201.363 21.3856 200.237 22.4256 197.529 22.4256C194.82 22.4256 193.023 21.3085 192.806 19.1656H189.951C190.217 23.0142 193.351 24.8142 197.531 24.8142C201.711 24.8142 204.174 23.0313 204.174 19.8313C204.174 16.6313 201.586 15.6685 198.626 15.1113Z" fill="black"/>
<path d="M238.469 2.00281H235.323V24.3628H238.469V2.00281Z" fill="black"/>
<path d="M220.066 2.22002L211.346 23.9542V24.3628H214.46L216.669 18.5257H227.166L229.374 24.3628H232.583V23.96L223.8 2.00281H220.066V2.22002ZM217.706 15.8228L221.454 6.00282H221.451C221.514 5.83424 221.677 5.72282 221.857 5.72282H222.011C222.191 5.72282 222.354 5.83424 222.417 6.00282L226.137 15.8228H217.706Z" fill="black"/>
<path d="M85.6229 2.00281H82.8171V5.29425H85.6229V2.00281Z" fill="black"/>
</g>
<defs>
<clipPath id="clip0_2060_708">
<rect width="238.571" height="26" fill="white"/>
</clipPath>
</defs>
</svg>
