<svg width="313" height="82" viewBox="0 0 313 82" fill="none" xmlns="http://www.w3.org/2000/svg">
<path fill-rule="evenodd" clip-rule="evenodd" d="M32.118 0.656261L27.8885 11.5716C27.7995 11.8011 27.9034 12.0562 28.1345 12.1755L48.4608 22.6749C48.5586 22.7254 48.6136 22.8252 48.6 22.9276C48.2768 25.3668 45.7779 27.0658 43.1254 26.7683C36.1806 25.9894 23.3544 25.2117 14.9524 28.6716C13.1474 29.415 11.256 26.9222 10.2707 25.3336C9.78278 24.547 9.57052 23.641 9.69496 22.7427C11.2117 11.7935 26.8564 2.53321 31.3768 0.0703367C31.8056 -0.1633 32.2853 0.224495 32.118 0.656261ZM35.9432 13.5248L30.9875 11.1519C30.8896 11.105 30.8342 11.0066 30.8492 10.9059L30.8848 10.6663C31.2721 8.06089 32.7136 5.68557 34.9215 4.01449C35.0787 3.89555 35.317 3.99109 35.328 4.17799C35.3829 5.11002 35.5295 7.28324 35.7757 8.78749C35.9897 10.0946 36.4328 11.8358 36.7326 12.9499C36.8462 13.3719 36.3625 13.7256 35.9432 13.5248ZM25.1388 61.6926C13.302 61.6926 13.2122 38.2023 13.317 33.4108C13.3285 32.8859 13.6805 32.4352 14.2079 32.2344C29.9196 26.2528 47.7762 34.2921 52.275 49.3726L55.5957 60.504C55.7741 61.1023 55.2851 61.6926 54.6105 61.6926H25.1388ZM18.3601 65.1081C15.948 65.1081 13.5595 65.545 11.331 66.3939C9.10252 67.2427 7.07765 68.4869 5.37203 70.0554C3.66641 71.6239 2.31344 73.486 1.39036 75.5353C0.536714 77.4305 0.0661874 79.4515 0.000235301 81.4992C-0.00865773 81.7753 0.235689 81.9993 0.536069 81.9993H18.3245V82H40.6399C43.052 82 45.4405 81.5632 47.669 80.7144C49.8975 79.8655 51.9223 78.6213 53.628 77.0528C55.3336 75.4843 56.6866 73.6223 57.6096 71.5729C58.4633 69.6777 58.9338 67.6567 58.9998 65.6091C59.0087 65.333 58.7643 65.109 58.4639 65.109L18.3601 65.1089V65.1081ZM3.85668 78.7642C4.98828 72.4587 10.9264 67.7847 17.9358 67.7847C18.1353 67.7847 18.2555 67.988 18.1471 68.142L14.4675 73.37C14.3495 73.5376 14.3512 73.7537 14.4719 73.9197L17.8332 78.5454C18.0747 78.8777 17.8157 79.3234 17.381 79.3234H4.38362C4.0572 79.3234 3.80353 79.0604 3.85668 78.7642Z" fill="white"/>
<path d="M87.8442 71.0352C86.4681 71.0352 85.3526 69.9104 85.3526 68.5229V14.5123C85.3526 13.1248 86.4681 12 87.8442 12H125.193C127.118 12 128.233 13.9774 127.305 15.6168L127.286 15.6506C127.227 15.7546 127.168 15.8588 127.118 15.9676L123.691 23.4675C123.636 23.5881 123.574 23.7059 123.491 23.8091C123.013 24.4045 122.246 24.7347 121.481 24.7347H103.485C102.109 24.7347 100.993 25.8596 100.993 27.2471V35.3788C100.993 36.7664 102.109 37.8912 103.485 37.8912H123.008C124.384 37.8912 125.499 39.016 125.499 40.4035V47.6919C125.499 49.0794 124.384 50.2042 123.008 50.2042H103.485C102.109 50.2042 100.993 51.329 100.993 52.7166V68.5229C100.993 69.9104 99.8776 71.0352 98.5015 71.0352H87.8442Z" fill="white"/>
<path d="M141.563 71.0352C140.187 71.0352 139.071 69.9104 139.071 68.5229V14.5123C139.071 13.1248 140.187 12 141.563 12H152.471C153.847 12 154.963 13.1248 154.963 14.5123V68.5229C154.963 69.9104 153.847 71.0352 152.471 71.0352H141.563Z" fill="white"/>
<path d="M237.147 68.5229C237.147 69.9104 238.262 71.0352 239.638 71.0352H250.547C251.923 71.0352 253.038 69.9104 253.038 68.5229V14.5123C253.038 13.1248 251.923 12 250.547 12H239.638C238.262 12 237.147 13.1248 237.147 14.5123V68.5229Z" fill="white"/>
<path d="M269.454 71.0352C268.078 71.0352 266.962 69.9104 266.962 68.5229V14.5123C266.962 13.1248 268.078 12 269.454 12H309.803C311.179 12 312.294 13.1248 312.294 14.5123V22.0537C312.294 23.4413 311.179 24.5661 309.803 24.5661H284.927C283.551 24.5661 282.435 25.6909 282.435 27.0784V32.5114C282.435 33.8989 283.551 35.0237 284.927 35.0237H303.028C304.404 35.0237 305.52 36.1486 305.52 37.5361V44.2341C305.52 45.6216 304.404 46.7465 303.028 46.7465H284.927C283.551 46.7465 282.435 47.8713 282.435 49.2588V55.9568C282.435 57.3443 283.551 58.4692 284.927 58.4692H308.166C310.089 58.4692 311.263 60.5582 310.342 62.2064C310.279 62.318 310.215 62.429 310.162 62.5454L306.856 69.759C306.802 69.8753 306.742 69.9891 306.663 70.0891C306.182 70.694 305.384 71.0352 304.613 71.0352H269.454Z" fill="white"/>
<path d="M207.665 22.6627C207.665 22.6627 204.163 17.7234 203.789 14.5457C203.627 13.1679 204.757 12.0392 206.133 12.0392H220.828C222.645 12.0392 223.851 13.9382 223.091 15.6028L216.942 29.0599C216.366 30.3201 214.876 30.8833 213.703 30.1581C210.997 28.4856 207.665 22.6627 207.665 22.6627Z" fill="white"/>
<path d="M184.401 59.9819C184.401 59.9819 188.004 65.3557 188.378 68.5334C188.541 69.9112 187.41 71.04 186.034 71.04H171.34C169.522 71.04 168.316 69.1409 169.077 67.4763L175.225 54.0192C175.801 52.759 177.291 52.1958 178.464 52.921C181.17 54.5935 184.401 59.9819 184.401 59.9819Z" fill="white"/>
<path d="M171.278 12.1521H183.666C184.479 12.1521 185.241 12.5523 185.707 13.2241L222.925 66.8537C224.081 68.5189 222.899 70.8065 220.884 70.8065H208.238C207.422 70.8065 206.658 70.4035 206.192 69.7278L169.232 16.0982C168.084 14.4323 169.266 12.1521 171.278 12.1521Z" fill="white"/>
</svg>
