<svg width="193" height="50" viewBox="0 0 193 50" fill="none" xmlns="http://www.w3.org/2000/svg">
<g clip-path="url(#clip0_900_3940)">
<path fill-rule="evenodd" clip-rule="evenodd" d="M19.8044 0.400154L17.1964 7.05585C17.1415 7.19579 17.2056 7.35134 17.3481 7.42408L29.8816 13.8262C29.9419 13.8569 29.9758 13.9178 29.9674 13.9802C29.7681 15.4676 28.2273 16.5035 26.5917 16.3221C22.3094 15.8472 14.4006 15.373 9.21985 17.4827C8.10686 17.936 6.9406 16.416 6.33305 15.4473C6.03219 14.9677 5.90131 14.4152 5.97804 13.8675C6.91328 7.19115 16.56 1.54464 19.3474 0.0428835C19.6118 -0.0995779 19.9075 0.136882 19.8044 0.400154ZM22.1631 8.24683L19.1073 6.79993C19.0469 6.77134 19.0128 6.71134 19.022 6.64993L19.044 6.50384C19.2828 4.91517 20.1716 3.46681 21.5331 2.44786C21.63 2.37533 21.7769 2.43359 21.7837 2.54755C21.8176 3.11586 21.908 4.441 22.0598 5.35822C22.1917 6.15524 22.465 7.21695 22.6498 7.89628C22.7199 8.15359 22.4216 8.36926 22.1631 8.24683ZM15.5009 37.6174C8.20219 37.6174 8.14682 23.2941 8.21144 20.3724C8.21853 20.0524 8.43558 19.7776 8.76078 19.6551C18.4488 16.0078 29.4594 20.9098 32.2335 30.1052L34.2811 36.8927C34.3911 37.2575 34.0895 37.6174 33.6736 37.6174H15.5009ZM11.3211 39.7001C9.83375 39.7001 8.36097 39.9665 6.98685 40.4841C5.61274 41.0016 4.36417 41.7603 3.31247 42.7167C2.26076 43.6731 1.4265 44.8085 0.857315 46.0581C0.330945 47.2137 0.040812 48.446 0.00014509 49.6946C-0.00533847 49.863 0.145329 49.9996 0.330547 49.9996H11.2991L25.0591 50C26.5464 50 28.0192 49.7337 29.3933 49.2161C30.7675 48.6985 32.016 47.9398 33.0677 46.9834C34.1194 46.027 34.9537 44.8916 35.5229 43.642C36.0493 42.4864 36.3394 41.2541 36.3801 40.0055C36.3856 39.8372 36.2349 39.7006 36.0496 39.7006L11.3211 39.7001ZM2.37808 48.0269C3.07584 44.1821 6.73736 41.3321 11.0595 41.3321C11.1825 41.3321 11.2566 41.4561 11.1897 41.55L8.92085 44.7378C8.84809 44.84 8.84914 44.9718 8.92357 45.073L10.9962 47.8935C11.1451 48.0962 10.9854 48.3679 10.7174 48.3679H2.703C2.50172 48.3679 2.34531 48.2076 2.37808 48.0269Z" fill="#FA7661"/>
<path d="M54.1659 43.3142C53.3174 43.3142 52.6296 42.6283 52.6296 41.7823V8.84897C52.6296 8.00293 53.3174 7.31708 54.1659 7.31708H77.1957C78.3827 7.31708 79.0702 8.52281 78.498 9.52244L78.4863 9.54305C78.4499 9.60647 78.4135 9.67 78.3827 9.73635L76.2696 14.3095C76.2356 14.383 76.1974 14.4548 76.1462 14.5177C75.8515 14.8808 75.3785 15.0821 74.9068 15.0821H63.8103C62.9618 15.0821 62.2737 15.7681 62.2737 16.6141V21.5724C62.2737 22.4185 62.9618 23.1044 63.8103 23.1044H75.8484C76.6969 23.1044 77.3844 23.7903 77.3844 24.6363V29.0804C77.3844 29.9265 76.6969 30.6123 75.8484 30.6123H63.8103C62.9618 30.6123 62.2737 31.2982 62.2737 32.1443V41.7823C62.2737 42.6283 61.5859 43.3142 60.7374 43.3142H54.1659Z" fill="#1F1E1E"/>
<path d="M87.2897 43.3142C86.4412 43.3142 85.7531 42.6283 85.7531 41.7823V8.84897C85.7531 8.00293 86.4412 7.31708 87.2897 7.31708H94.0157C94.8641 7.31708 95.5523 8.00293 95.5523 8.84897V41.7823C95.5523 42.6283 94.8641 43.3142 94.0157 43.3142H87.2897Z" fill="#1F1E1E"/>
<path d="M146.228 41.7823C146.228 42.6283 146.916 43.3142 147.764 43.3142H154.491C155.339 43.3142 156.027 42.6283 156.027 41.7823V8.84897C156.027 8.00293 155.339 7.31708 154.491 7.31708H147.764C146.916 7.31708 146.228 8.00293 146.228 8.84897V41.7823Z" fill="#1F1E1E"/>
<path d="M166.149 43.3142C165.301 43.3142 164.612 42.6283 164.612 41.7823V8.84897C164.612 8.00293 165.301 7.31708 166.149 7.31708H191.029C191.877 7.31708 192.565 8.00293 192.565 8.84897V13.4474C192.565 14.2935 191.877 14.9793 191.029 14.9793H175.69C174.841 14.9793 174.153 15.6652 174.153 16.5112V19.824C174.153 20.6701 174.841 21.3559 175.69 21.3559H186.851C187.7 21.3559 188.388 22.0418 188.388 22.8879V26.972C188.388 27.8181 187.7 28.504 186.851 28.504H175.69C174.841 28.504 174.153 29.1898 174.153 30.0359V34.12C174.153 34.966 174.841 35.652 175.69 35.652H190.019C191.205 35.652 191.929 36.9257 191.361 37.9307C191.322 37.9988 191.283 38.0665 191.25 38.1374L189.212 42.536C189.178 42.6069 189.141 42.6763 189.093 42.7373C188.796 43.1061 188.304 43.3142 187.828 43.3142H166.149Z" fill="#1F1E1E"/>
<path d="M128.049 13.8187C128.049 13.8187 125.89 10.8069 125.659 8.86933C125.559 8.0292 126.256 7.34097 127.104 7.34097H136.166C137.286 7.34097 138.03 8.4989 137.561 9.5139L133.769 17.7194C133.414 18.4879 132.495 18.8313 131.772 18.3891C130.104 17.3693 128.049 13.8187 128.049 13.8187Z" fill="#1F1E1E"/>
<path d="M113.704 36.5743C113.704 36.5743 115.926 39.851 116.156 41.7887C116.257 42.6288 115.56 43.3171 114.711 43.3171H105.651C104.53 43.3171 103.786 42.1591 104.255 41.1441L108.046 32.9385C108.401 32.1701 109.32 31.8267 110.043 32.2689C111.712 33.2887 113.704 36.5743 113.704 36.5743Z" fill="#1F1E1E"/>
<path d="M105.612 7.40982H113.251C113.752 7.40982 114.222 7.65385 114.509 8.06348L137.459 40.7645C138.171 41.7798 137.443 43.1747 136.2 43.1747H128.402C127.899 43.1747 127.428 42.929 127.141 42.517L104.351 9.81598C103.643 8.80019 104.372 7.40982 105.612 7.40982Z" fill="#1F1E1E"/>
</g>
<defs>
<clipPath id="clip0_900_3940">
<rect width="193" height="50" fill="white"/>
</clipPath>
</defs>
</svg>
