<svg width="532" height="120" viewBox="0 0 532 120" fill="none" xmlns="http://www.w3.org/2000/svg">
<path d="M159.761 66.1575H138.391V90H125.08V28.95H163.788V41.325H138.395V54.1125H159.765L159.761 66.1575ZM186.23 90H172.915V28.95H196.42C211.215 28.95 219.6 36.1275 219.6 48.75C219.6 56.67 216.228 62.28 209.492 65.745L220.173 90H205.625L196.506 68.6325H186.23V90ZM186.23 40.83V56.9175H196.338C202.175 56.9175 205.543 53.9475 205.543 48.75C205.543 43.635 202.34 40.83 196.42 40.83H186.23ZM268.128 90H229.498V28.95H268.128V41.325H242.813V53.2875H265.254V65.0025H242.813V77.625H268.128V90ZM317.653 90H279.023V28.95H317.653V41.325H292.341V53.2875H314.775V65.0025H292.341V77.625H317.653V90ZM353.207 69.705H341.862V90H328.547V28.95H353.207C365.615 28.95 373.917 37.1175 373.917 49.3275C373.917 61.5375 365.615 69.705 353.207 69.705ZM350.247 40.83H341.862V57.825H350.247C356.653 57.825 359.86 55.02 359.86 49.3275C359.86 43.635 356.653 40.83 350.247 40.83ZM395.639 28.95V77.625H419.639V90H382.324V28.95H395.639ZM437.903 90H424.011L445.711 28.95H458.696L480.313 90H466.174L461.903 77.13H442.26L437.903 90ZM450.477 52.875L446.119 65.91H458.119L453.766 52.875C453.11 50.8125 452.368 48.42 452.121 46.935C451.874 48.3375 451.218 50.6475 450.477 52.875ZM495.85 66.8175L475.304 28.95H490.178L500.372 48.75C501.357 50.6475 502.017 52.1325 502.672 53.7C503.411 52.215 504.07 50.6475 505.055 48.6674L515.249 28.95H529.715L509.165 66.8175V90H495.85V66.8175Z" fill="black"/>
<path d="M45.0214 68.7188L45.0139 69.8175L59.509 69.9L59.5165 68.8013L59.4641 69.9C62.746 70.0613 65.8368 71.4975 68.0847 73.9013C70.3626 76.3275 71.6326 79.5413 71.6251 82.875V82.9313L72.7041 82.9125H71.6214C71.6064 90.075 65.8855 95.8725 58.8459 95.8725H58.7934L58.8122 96.975V95.8725C55.5078 95.865 52.3345 94.56 49.9742 92.2313C47.6027 89.9025 46.209 86.7488 46.0816 83.4188L44.9989 83.4638H46.0854L46.1004 68.7188H43.9349L43.9199 83.4825V83.5088C44.0698 87.4013 45.7032 91.0875 48.4794 93.8138C51.233 96.5325 54.9421 98.0625 58.8084 98.0738H58.8496C67.0844 98.0738 73.7681 91.2938 73.7943 82.9163V82.8938L73.5134 82.8975H73.7906L73.7943 82.8938L73.5134 82.8975H73.7906V82.875C73.7943 78.975 72.3145 75.2213 69.6545 72.3825C67.0245 69.57 63.4091 67.8938 59.5727 67.7025H59.5465L43.9424 67.6125V68.715H45.0251L45.0214 68.7188Z" fill="black"/>
<path d="M44.9539 68.3513L44.9577 67.2525L23.9399 67.1325L23.9324 68.2313L23.9849 67.1325C19.1032 66.8925 14.5063 64.755 11.1644 61.1775C7.77011 57.5663 5.88563 52.7888 5.89312 47.8275V47.7975L5.90062 47.7788C5.9231 37.1175 14.4313 28.4925 24.9065 28.4925H24.9552C29.8781 28.5038 34.5986 30.45 38.1053 33.9113C41.6345 37.38 43.7101 42.0713 43.8974 47.0213L44.9801 46.9763H43.8974L43.8712 68.3513H46.0366L46.0591 46.9575V46.9313C45.8456 41.415 43.5377 36.1875 39.6039 32.3288C35.6964 28.47 30.4401 26.3063 24.959 26.2913V27.3938L24.9852 26.295H24.9065C13.2362 26.295 3.76512 35.895 3.73515 47.7713H4.82163L3.73515 47.7563V47.8313C3.72391 53.3588 5.82194 58.6838 9.60214 62.7038C13.3261 66.69 18.4476 69.0675 23.8837 69.3338H23.9024L46.0292 69.4613V68.3588H44.9539V68.3513Z" fill="black"/>
<path d="M44.2947 43.845L44.8417 42.8925L32.2948 35.46L32.276 35.4488C30.1368 34.3013 27.7503 33.6975 25.3263 33.6975C22.7637 33.6975 20.2348 34.3688 17.9982 35.6438C15.6791 36.9638 13.7572 38.8875 12.4234 41.205C11.0784 43.5375 10.3704 46.185 10.3704 48.8813C10.3704 51.4875 11.0335 54.0563 12.2848 56.3325C13.5736 58.6763 15.4618 60.6338 17.7547 61.9988C20.0363 63.3675 22.6438 64.0875 25.3001 64.0913C30.2155 64.0913 35.0147 61.6163 37.8545 57.1538L37.8695 57.1275L45.7783 43.4513L44.8417 42.8925L44.2947 43.845L43.3656 43.2863L36.015 55.9988L36.9479 56.5538L36.0375 55.9538C33.7034 59.6438 29.6535 61.8863 25.3001 61.89C20.6694 61.8638 16.4134 59.325 14.1693 55.2563C13.0978 53.3063 12.5358 51.1125 12.5358 48.8813C12.5321 44.2088 15.0197 39.8925 19.0547 37.56C20.9654 36.4725 23.1234 35.8988 25.3226 35.8988C27.3944 35.8988 29.4362 36.4125 31.2607 37.395L31.7665 36.42L31.2195 37.3725L43.7477 44.7975L44.2947 43.845Z" fill="black"/>
<path d="M44.7029 43.8562L44.1597 44.805L62.3413 55.575L62.3601 55.5863C65.391 57.2175 68.774 58.0687 72.2096 58.0687C75.8474 58.0687 79.4253 57.1162 82.5911 55.3125C85.873 53.4375 88.5967 50.7188 90.4811 47.4338C92.3918 44.13 93.3997 40.3763 93.3997 36.555C93.3997 32.8612 92.4668 29.2275 90.6835 25.9913C88.8627 22.6725 86.1877 19.9012 82.9395 17.9662C79.7063 16.0275 76.0122 15 72.2433 15C65.0276 15.0075 58.3176 18.7163 54.4513 24.8325L54.44 24.8512L43.2268 44.25L44.1634 44.805L44.7104 43.8562L45.6395 44.415L56.2945 25.9875L55.3654 25.4325L56.2758 26.0287C59.745 20.535 65.7694 17.205 72.2508 17.1975C75.514 17.1975 78.8184 18.0563 81.8455 19.86C84.764 21.5963 87.1655 24.0862 88.8027 27.0675C90.3987 29.9625 91.2379 33.2362 91.2379 36.555C91.2417 39.9862 90.3388 43.3538 88.6229 46.32C86.9332 49.2713 84.4868 51.7125 81.5346 53.3925C78.6947 55.0125 75.4802 55.8675 72.2096 55.8675C69.1262 55.8675 66.0916 55.1063 63.3754 53.6438L62.8659 54.615L63.4166 53.6625L45.2537 42.9037L44.7104 43.8562H44.7029Z" fill="black"/>
<path d="M66.6425 55.3687L67.6016 54.855L60.7905 41.8312L59.8389 42.3487L60.8092 41.8762C59.9887 40.1287 59.5616 38.22 59.5616 36.2887C59.5654 33.9712 60.1723 31.695 61.3262 29.6887C63.6003 25.74 67.7889 23.2987 72.3296 23.2762C74.615 23.28 76.8554 23.895 78.8185 25.0687C82.7336 27.4275 85.1276 31.68 85.1238 36.2625C85.1388 40.8337 82.7636 45.0787 78.8672 47.4487L79.4142 48.3937L78.9047 47.4262L66.1292 54.4012L66.6425 55.3687L67.1557 56.34L79.95 49.35L79.9687 49.3425C84.5282 46.575 87.308 41.61 87.2893 36.2625C87.2893 33.765 86.6786 31.305 85.5135 29.1C82.9397 24.18 77.8632 21.0937 72.3296 21.075C69.9506 21.075 67.5304 21.66 65.29 22.8787C62.8585 24.2025 60.8429 26.175 59.4605 28.5787C58.1117 30.9225 57.3999 33.5774 57.3999 36.285C57.3999 38.49 57.8757 40.7212 58.8648 42.825L58.8685 42.8437L66.1929 56.8612L67.1557 56.3362L66.6425 55.3687Z" fill="black"/>
<path d="M66.6498 55.7813L65.6944 56.2988L75.5589 75.1763L76.5143 74.6588L75.5364 75.1351C76.799 77.8126 77.3984 80.6476 77.3984 83.4488C77.3947 86.8913 76.4918 90.2738 74.7796 93.2588C73.0225 96.3151 70.4525 98.8238 67.3616 100.508C64.6117 102.008 61.5321 102.799 58.4038 102.799C55.0095 102.799 51.6751 101.876 48.7566 100.136C45.7295 98.3326 43.2643 95.7188 41.6271 92.5913C40.1435 89.7863 39.3717 86.6588 39.3754 83.4826C39.3754 76.8488 42.736 70.4213 48.6854 66.8401L48.1347 65.8951L48.6442 66.8663L67.1593 56.7526L66.6498 55.7813L66.1365 54.8138L47.6064 64.9388L47.5802 64.9501C40.9564 68.9401 37.21 76.0988 37.21 83.4826C37.21 86.9138 38.0155 90.3976 39.7201 93.6263C41.5446 97.1101 44.2908 100.02 47.6589 102.034C50.9108 103.973 54.6198 104.996 58.4038 105C61.888 104.996 65.3198 104.119 68.3807 102.446C71.8237 100.571 74.6822 97.7776 76.6454 94.3726C80.1971 88.1888 80.5155 80.6513 77.4921 74.1863L77.4809 74.1638L67.0956 54.2888L66.1365 54.8138L66.6498 55.7813Z" fill="black"/>
<path d="M45.0213 68.7188L45.0139 69.8175L59.509 69.9L59.5165 68.8013L59.464 69.9C62.7459 70.0612 65.8368 71.4975 68.0847 73.9013C70.3625 76.3275 71.6326 79.5413 71.6251 82.875V82.9312L72.7041 82.9125H71.6213C71.6064 90.075 65.8855 95.8725 58.8459 95.8725H58.7934L58.8121 96.975V95.8725C55.5077 95.865 52.3345 94.56 49.9742 92.2312C47.6027 89.9025 46.209 86.7488 46.0816 83.4188L44.9989 83.4637H46.0853L46.1003 68.7188H45.0213ZM45.0213 68.7188H43.9349M43.9349 68.7188L43.9199 83.4825V83.5087C44.0697 87.4012 45.7032 91.0875 48.4793 93.8138C51.233 96.5325 54.942 98.0625 58.8084 98.0737H58.8309M43.9349 68.7188L43.9386 67.6125L59.5464 67.7025H59.5689C63.4053 67.89 67.0207 69.57 69.6507 72.3825C72.3144 75.2213 73.7943 78.975 73.7868 82.875V82.8937M58.8309 98.0737L58.8496 98.07C67.0844 98.07 73.7643 91.29 73.7868 82.9125V82.8937M58.8309 98.0737L58.8271 97.7175M73.7868 82.8937H73.5096M44.9539 68.3475L44.9577 67.2488L23.9399 67.1287L23.9324 68.2275L23.9849 67.1287C19.1032 66.8887 14.5063 64.7512 11.1644 61.1737C7.77011 57.5625 5.88563 52.785 5.89687 47.8238V47.7937L5.90062 47.775C5.92684 37.1137 14.4313 28.4888 24.9065 28.4888H24.929M44.9539 68.3475H43.8712L43.8974 46.9725H44.9801L43.8974 47.0175C43.7101 42.0675 41.6345 37.3762 38.1053 33.9075C34.5986 30.4425 29.8781 28.4963 24.9552 28.4888H24.929M44.9539 68.3475L46.0329 68.3512M24.929 28.4888L24.9365 28.3688M46.0329 68.3512L46.0591 46.9575V46.9313C45.8456 41.415 43.5377 36.1875 39.6039 32.3288C35.6964 28.47 30.4401 26.3063 24.959 26.2913V27.3937L24.9852 26.295H24.9065C13.2362 26.295 3.76512 35.895 3.73515 47.7713H4.81788L3.73515 47.7562V47.8313C3.72391 53.3588 5.82194 58.6838 9.60214 62.7038C13.3261 66.69 18.4476 69.0675 23.8837 69.3338H23.9024L46.0292 69.4613V68.3588L46.0329 68.3512ZM44.2945 43.845L44.8415 42.8925M44.2945 43.845L43.3654 43.2863L36.0148 55.9987L36.9477 56.5538L36.0373 55.9537C33.7032 59.6437 29.6533 61.8862 25.2999 61.89C20.6692 61.8637 16.4132 59.325 14.1691 55.2562C13.0976 53.3062 12.5356 51.1125 12.5356 48.8812C12.5319 44.2087 15.0195 39.8925 19.0545 37.56C20.9652 36.4725 23.1269 35.8987 25.3224 35.8987C27.3942 35.8987 29.436 36.4125 31.2605 37.395L31.7663 36.42L31.2193 37.3725L43.7475 44.7975L44.2945 43.845ZM44.8415 42.8925L32.2946 35.46L32.2758 35.4488C27.7988 33.045 22.4076 33.1163 17.998 35.6438C15.6789 36.9638 13.757 38.8875 12.4232 41.205C11.0783 43.5375 10.3702 46.185 10.3702 48.8812C10.3702 51.4875 11.0333 54.0563 12.2846 56.3325C14.8997 61.095 19.8787 64.065 25.2999 64.0912C30.2153 64.0912 35.0145 61.6163 37.8543 57.1538L37.8693 57.1275L45.7781 43.4512L44.8415 42.8925ZM44.7029 43.8562L44.1597 44.805M44.7029 43.8562L45.6395 44.415L56.2945 25.9875L55.3616 25.4325L56.272 26.0287C59.7413 20.535 65.7656 17.205 72.2433 17.1975C75.5102 17.1975 78.8183 18.0562 81.8455 19.86C84.7603 21.5963 87.1617 24.0862 88.799 27.0675C90.395 29.9625 91.2342 33.2363 91.2342 36.555C91.2379 39.9863 90.335 43.3538 88.6191 46.32C86.9295 49.2675 84.483 51.7087 81.5345 53.3925C78.691 55.0125 75.4765 55.8675 72.2058 55.8675C69.1224 55.8675 66.0878 55.1063 63.3716 53.6438L62.8658 54.615L63.4091 53.6625L45.2499 42.9037L44.7029 43.8562ZM44.1597 44.805L62.3413 55.575L62.3601 55.5862C65.391 57.2175 68.774 58.0687 72.2095 58.0687C75.8474 58.0687 79.4253 57.1163 82.591 55.3125C85.873 53.4375 88.6004 50.7188 90.4849 47.4338C92.3956 44.1263 93.3996 40.3763 93.3996 36.555C93.3996 32.8613 92.4668 29.2275 90.6834 25.9913C88.8626 22.6725 86.1877 19.9012 82.9395 17.9662C79.7063 16.0275 76.0122 15.0038 72.247 15C65.0313 15.0075 58.3176 18.7163 54.4512 24.8325L54.44 24.8512L43.2268 44.25L44.1634 44.805H44.1597ZM66.6385 55.3688L67.5976 54.855L60.7903 41.8312L59.8387 42.3488L60.809 41.8762C59.9885 40.1287 59.5614 38.22 59.5614 36.2888C59.5652 33.9713 60.1721 31.695 61.326 29.6887C63.6001 25.74 67.7887 23.2987 72.3294 23.2762C74.6148 23.28 76.8552 23.895 78.8183 25.0687C82.7334 27.4275 85.1274 31.68 85.1237 36.2625C85.1386 40.8338 82.7634 45.0787 78.867 47.4487L79.414 48.3937L78.9045 47.4263L66.129 54.4012L66.6385 55.3688ZM66.6385 55.3688L67.1555 56.34M67.1555 56.34L79.9498 49.35L79.9685 49.3425C84.5242 46.575 87.3041 41.61 87.2854 36.2625C87.2854 33.84 86.7159 31.3838 85.517 29.1C84.2282 26.6438 82.2913 24.5925 79.9123 23.175C77.6195 21.8025 74.9969 21.0787 72.3294 21.075C69.9504 21.075 67.5302 21.66 65.2898 22.8787C62.8583 24.2025 60.8427 26.175 59.4603 28.5787C58.1115 30.9225 57.3997 33.5775 57.3997 36.285C57.3997 38.49 57.8755 40.7213 58.8646 42.825L58.8683 42.8438L66.1964 56.8613L67.1555 56.3362V56.34ZM66.6498 55.7812L65.6944 56.2987L75.5589 75.1763L76.5142 74.6588L75.5364 75.135C76.799 77.8125 77.3984 80.6475 77.3984 83.4488C77.3947 86.8913 76.4918 90.2737 74.7796 93.2587C73.0225 96.315 70.4524 98.8238 67.3616 100.508C64.6117 102.008 61.5321 102.799 58.4038 102.799C55.0057 102.795 51.6751 101.876 48.7528 100.136C45.7294 98.3287 43.2605 95.7187 41.6233 92.5912C40.1434 89.7862 39.3717 86.6587 39.3754 83.4825C39.3754 76.8487 42.736 70.4212 48.6854 66.84L48.1347 65.895L48.6442 66.8662L67.1593 56.7525L66.6498 55.7812ZM66.6498 55.7812L66.1365 54.8137M66.1365 54.8137L47.6027 64.9387L47.5802 64.95C40.9564 68.94 37.2099 76.0987 37.2099 83.4825C37.2099 86.9137 38.0154 90.3975 39.7201 93.6262C41.5446 97.11 44.2908 100.02 47.6589 102.034C50.9108 103.972 54.6198 104.996 58.4038 105C61.888 104.996 65.3198 104.119 68.3806 102.446C71.8237 100.571 74.6822 97.7775 76.6454 94.3725C80.197 88.1888 80.5117 80.6513 77.4883 74.1863L77.4808 74.1638L67.0956 54.2888L66.1365 54.8137Z" stroke="black" stroke-width="0.17" stroke-miterlimit="10"/>
</svg>
