<svg width="135" height="44" viewBox="0 0 135 44" fill="none" xmlns="http://www.w3.org/2000/svg">
<g clip-path="url(#clip0_2060_280)">
<path d="M34.3834 33.1356L36.9697 32.9875C41.8466 32.6914 42.9181 31.1368 41.8835 26.4358C41.8835 26.4358 38.6323 29.0638 37.3761 29.9892C34.7899 31.9511 33.0904 31.5809 30.9105 28.6567L27.0311 23.2153L28.509 29.7302C29.4696 33.3947 30.3933 33.1356 34.3834 33.1356Z" fill="url(#paint0_radial_2060_280)"/>
<path d="M28.8047 37.3183L31.2432 38.2438C35.8245 39.9835 37.4132 38.9841 38.4107 34.246C38.4107 34.246 34.3836 35.3195 32.8688 35.6527C29.6914 36.393 28.2875 35.3566 27.5115 31.803L26.1815 25.2512L24.8884 31.7661C24.1863 35.5787 25.11 35.6897 28.8047 37.3183Z" fill="url(#paint1_radial_2060_280)"/>
<path d="M21.9696 38.8731L23.8169 40.7239C27.2899 44.1663 29.1371 43.9073 31.9821 39.9836C31.9821 39.9836 27.881 39.3173 26.3293 39.0212C23.1519 38.429 22.2652 36.8742 23.0041 33.3208L24.445 26.806L20.6026 32.2473C18.4598 35.3936 19.2356 35.9118 21.9696 38.8731Z" fill="url(#paint2_radial_2060_280)"/>
<path d="M15.0977 37.5035L16.0214 39.9095C17.7948 44.4994 19.6051 44.9806 23.78 42.5746C23.78 42.5746 20.3071 40.2797 19.014 39.3913C16.3539 37.5404 16.1691 35.8007 18.2751 32.8024L22.2283 27.4352L16.5016 30.8407C13.2873 32.9135 13.8046 33.6908 15.0977 37.5035Z" fill="url(#paint3_radial_2060_280)"/>
<path d="M9.37076 33.4688L9.22298 36.0599C9.0013 40.983 10.4422 42.1675 15.2452 41.6493C15.2452 41.6493 12.9915 38.1328 12.1787 36.8002C10.4792 34.024 11.0702 32.3584 14.1738 30.5075L19.9743 27.2131L13.361 27.9905C9.59243 28.5457 9.74021 29.4711 9.37076 33.4688Z" fill="url(#paint4_radial_2060_280)"/>
<path d="M5.75009 27.4352L4.5678 29.7672C2.35103 34.172 3.2008 35.8378 7.78214 37.3184C7.78214 37.3184 7.15406 33.2096 6.93239 31.655C6.52597 28.4347 7.70824 27.1391 11.329 26.6949L17.9793 26.0656L11.6246 24.1038C8.00383 23.0304 7.7452 23.9557 5.75009 27.4352Z" fill="url(#paint5_radial_2060_280)"/>
<path d="M4.93743 20.4763L2.94235 22.105C-0.863117 25.2144 -0.789233 27.1022 2.79455 30.3226C2.79455 30.3226 3.90295 26.2878 4.3463 24.8072C5.26996 21.6979 6.8956 20.9946 10.3685 22.068L16.6863 24.178L11.6986 19.773C8.7429 17.33 8.18871 18.0703 4.93743 20.4763Z" fill="url(#paint6_radial_2060_280)"/>
<path d="M7.00637 13.7394L4.49402 14.4057C-0.235112 15.7012 -0.937078 17.441 1.02107 21.8458C1.02107 21.8458 3.64424 18.6254 4.67874 17.441C6.78468 14.9609 8.55811 14.998 11.2922 17.404L16.206 21.9198L13.4351 15.8863C11.7724 12.4439 10.9227 12.8881 7.00637 13.7394Z" fill="url(#paint7_radial_2060_280)"/>
<path d="M11.6247 8.4831L9.07543 8.07592C4.23546 7.33561 2.9054 8.63117 2.9054 13.4802C2.9054 13.4802 6.63698 11.5924 8.04093 10.9261C10.9597 9.51953 12.5853 10.2599 14.1002 13.5913L16.7603 19.6989L16.6864 13.036C16.5017 9.22341 15.541 9.29745 11.6247 8.4831Z" fill="url(#paint8_radial_2060_280)"/>
<path d="M17.9793 5.52192L15.7995 4.11532C11.6616 1.45018 9.92507 2.11646 7.96692 6.52134C7.96692 6.52134 12.1418 6.33626 13.6936 6.29925C16.9449 6.22522 18.0902 7.55778 18.1641 11.1853L18.0902 17.8482L20.7134 11.7406C22.1174 8.18705 21.2306 7.89092 17.9793 5.52192Z" fill="url(#paint9_radial_2060_280)"/>
<path d="M24.9992 5.44787L23.5953 3.26394C20.8982 -0.844803 19.0508 -0.955855 15.467 2.26451C15.467 2.26451 19.3464 3.78216 20.7873 4.37441C23.78 5.63295 24.2973 7.29865 22.8563 10.6671L20.0854 16.7377L24.9622 12.2218C27.6963 9.55661 27.0312 8.89033 24.9992 5.44787Z" fill="url(#paint10_radial_2060_280)"/>
<path d="M31.4278 8.18698L31.0214 5.6329C30.2085 0.783839 28.5829 -0.0675222 24.0016 1.4131C24.0016 1.4131 26.9203 4.37437 27.9918 5.52186C30.2085 7.89086 30.0238 9.6306 27.3637 12.1106L22.376 16.5156L28.6568 14.3686C32.2406 13.0731 31.8712 12.1846 31.4278 8.18698Z" fill="url(#paint11_radial_2060_280)"/>
<path d="M36.194 13.3691L36.8591 10.8521C38.1153 6.11409 36.933 4.63346 32.1299 4.11523C32.1299 4.11523 33.6078 8.00189 34.125 9.48252C35.1964 12.5548 34.3098 14.0725 30.8737 15.2569L24.519 17.2559L31.1324 17.8851C34.9378 18.1442 34.9748 17.1818 36.194 13.3691Z" fill="url(#paint12_radial_2060_280)"/>
<path d="M38.4476 19.995L40.0733 17.9592C43.1398 14.1096 42.6595 12.2958 38.4846 9.88977C38.4846 9.88977 38.2629 14.0725 38.1151 15.6273C37.8565 18.8846 36.4156 19.884 32.7948 19.5509L26.1814 18.7736L31.982 22.0309C35.381 23.8447 35.7875 22.9933 38.4476 19.995Z" fill="url(#paint13_radial_2060_280)"/>
<path d="M37.8195 26.991L40.1102 25.8064C44.4699 23.5485 44.7655 21.6977 41.9575 17.811C41.9575 17.811 40.0364 21.5126 39.2974 22.8823C37.7456 25.7325 36.0092 26.0655 32.8318 24.2888L27.1051 20.8833L31.0954 26.2136C33.423 29.2489 34.1618 28.6567 37.8195 26.991Z" fill="url(#paint14_radial_2060_280)"/>
<path d="M34.3834 33.1356L36.9697 32.9875C41.8466 32.6914 42.9181 31.1368 41.8835 26.4358C41.8835 26.4358 38.6323 29.0638 37.3761 29.9892C34.7899 31.9511 33.0904 31.5809 30.9105 28.6567L27.0311 23.2153L28.509 29.7302C29.4696 33.3947 30.3933 33.1356 34.3834 33.1356Z" fill="url(#paint15_radial_2060_280)"/>
<path d="M28.8047 37.3183L31.2432 38.2438C35.8245 39.9835 37.4132 38.9841 38.4107 34.246C38.4107 34.246 34.3836 35.3195 32.8688 35.6527C29.6914 36.393 28.2875 35.3566 27.5115 31.803L26.1815 25.2512L24.8884 31.7661C24.1863 35.5787 25.11 35.6897 28.8047 37.3183Z" fill="url(#paint16_radial_2060_280)"/>
<path d="M21.9696 38.8731L23.8169 40.7239C27.2899 44.1663 29.1371 43.9073 31.9821 39.9836C31.9821 39.9836 27.881 39.3173 26.3293 39.0212C23.1519 38.429 22.2652 36.8742 23.0041 33.3208L24.445 26.806L20.6026 32.2473C18.4598 35.3936 19.2356 35.9118 21.9696 38.8731Z" fill="url(#paint17_radial_2060_280)"/>
<path d="M15.0977 37.5035L16.0214 39.9095C17.7948 44.4994 19.6051 44.9806 23.78 42.5746C23.78 42.5746 20.3071 40.2797 19.014 39.3913C16.3539 37.5404 16.1691 35.8007 18.2751 32.8024L22.2283 27.4352L16.5016 30.8407C13.2873 32.9135 13.8046 33.6908 15.0977 37.5035Z" fill="url(#paint18_radial_2060_280)"/>
<path d="M9.37076 33.4688L9.22298 36.0599C9.0013 40.983 10.4422 42.1675 15.2452 41.6493C15.2452 41.6493 12.9915 38.1328 12.1787 36.8002C10.4792 34.024 11.0702 32.3584 14.1738 30.5075L19.9743 27.2131L13.361 27.9905C9.59243 28.5457 9.74021 29.4711 9.37076 33.4688Z" fill="url(#paint19_radial_2060_280)"/>
<path d="M5.75009 27.4352L4.5678 29.7672C2.35103 34.172 3.2008 35.8378 7.78214 37.3184C7.78214 37.3184 7.15406 33.2096 6.93239 31.655C6.52597 28.4347 7.70824 27.1391 11.329 26.6949L17.9793 26.0656L11.6246 24.1038C8.00383 23.0304 7.7452 23.9557 5.75009 27.4352Z" fill="url(#paint20_radial_2060_280)"/>
<path d="M4.93743 20.4763L2.94235 22.105C-0.863117 25.2144 -0.789233 27.1022 2.79455 30.3226C2.79455 30.3226 3.90295 26.2878 4.3463 24.8072C5.26996 21.6979 6.8956 20.9946 10.3685 22.068L16.6863 24.178L11.6986 19.773C8.7429 17.33 8.18871 18.0703 4.93743 20.4763Z" fill="url(#paint21_radial_2060_280)"/>
<path d="M7.00637 13.7394L4.49402 14.4057C-0.235112 15.7012 -0.937078 17.441 1.02107 21.8458C1.02107 21.8458 3.64424 18.6254 4.67874 17.441C6.78468 14.9609 8.55811 14.998 11.2922 17.404L16.206 21.9198L13.4351 15.8863C11.7724 12.4439 10.9227 12.8881 7.00637 13.7394Z" fill="url(#paint22_radial_2060_280)"/>
<path d="M11.6247 8.4831L9.07543 8.07592C4.23546 7.33561 2.9054 8.63117 2.9054 13.4802C2.9054 13.4802 6.63698 11.5924 8.04093 10.9261C10.9597 9.51953 12.5853 10.2599 14.1002 13.5913L16.7603 19.6989L16.6864 13.036C16.5017 9.22341 15.541 9.29745 11.6247 8.4831Z" fill="url(#paint23_radial_2060_280)"/>
<path d="M17.9793 5.52192L15.7995 4.11532C11.6616 1.45018 9.92507 2.11646 7.96692 6.52134C7.96692 6.52134 12.1418 6.33626 13.6936 6.29925C16.9449 6.22522 18.0902 7.55778 18.1641 11.1853L18.0902 17.8482L20.7134 11.7406C22.1174 8.18705 21.2306 7.89092 17.9793 5.52192Z" fill="url(#paint24_radial_2060_280)"/>
<path d="M24.9992 5.44787L23.5953 3.26394C20.8982 -0.844803 19.0508 -0.955855 15.467 2.26451C15.467 2.26451 19.3464 3.78216 20.7873 4.37441C23.78 5.63295 24.2973 7.29865 22.8563 10.6671L20.0854 16.7377L24.9622 12.2218C27.6963 9.55661 27.0312 8.89033 24.9992 5.44787Z" fill="url(#paint25_radial_2060_280)"/>
<path d="M31.4278 8.18698L31.0214 5.6329C30.2085 0.783839 28.5829 -0.0675222 24.0016 1.4131C24.0016 1.4131 26.9203 4.37437 27.9918 5.52186C30.2085 7.89086 30.0238 9.6306 27.3637 12.1106L22.376 16.5156L28.6568 14.3686C32.2406 13.0731 31.8712 12.1846 31.4278 8.18698Z" fill="url(#paint26_radial_2060_280)"/>
<path d="M36.194 13.3691L36.8591 10.8521C38.1153 6.11409 36.933 4.63346 32.1299 4.11523C32.1299 4.11523 33.6078 8.00189 34.125 9.48252C35.1964 12.5548 34.3098 14.0725 30.8737 15.2569L24.519 17.2559L31.1324 17.8851C34.9378 18.1442 34.9748 17.1818 36.194 13.3691Z" fill="url(#paint27_radial_2060_280)"/>
<path d="M38.4476 19.995L40.0733 17.9592C43.1398 14.1096 42.6595 12.2958 38.4846 9.88977C38.4846 9.88977 38.2629 14.0725 38.1151 15.6273C37.8565 18.8846 36.4156 19.884 32.7948 19.5509L26.1814 18.7736L31.982 22.0309C35.381 23.8447 35.7875 22.9933 38.4476 19.995Z" fill="url(#paint28_radial_2060_280)"/>
<path d="M37.8195 26.991L40.1102 25.8064C44.4699 23.5485 44.7655 21.6977 41.9575 17.811C41.9575 17.811 40.0364 21.5126 39.2974 22.8823C37.7456 25.7325 36.0092 26.0655 32.8318 24.2888L27.1051 20.8833L31.0954 26.2136C33.423 29.2489 34.1618 28.6567 37.8195 26.991Z" fill="url(#paint29_radial_2060_280)"/>
<path d="M62.0456 31.6249C60.7354 31.6249 59.5222 31.3814 58.3577 30.8947C57.193 30.4078 56.2225 29.7263 55.3491 28.8501C54.4756 27.9738 53.7962 26.9516 53.311 25.7833C52.8257 24.615 52.583 23.398 52.583 22.0348C52.583 20.6718 52.8257 19.4549 53.311 18.2866C53.7962 17.1183 54.4756 16.1447 55.3491 15.2684C56.2225 14.3923 57.2416 13.7107 58.4062 13.2238C59.5709 12.7371 60.8326 12.4937 62.1913 12.4937C63.6955 12.4937 65.1028 12.7858 66.413 13.3699C67.6747 13.9541 68.7423 14.7329 69.5672 15.8039L67.141 18.2379C66.5586 17.4591 65.8307 16.9236 65.0057 16.4854C64.1323 16.096 63.2103 15.9012 62.1913 15.9012C61.0266 15.9012 59.9591 16.1447 59.0855 16.6801C58.1635 17.2156 57.4842 17.8971 56.9504 18.8221C56.4651 19.7469 56.174 20.8179 56.174 22.0348C56.174 23.2519 56.4166 24.3716 56.9018 25.2964C57.3871 26.2214 58.0665 26.9516 58.94 27.4871C59.8134 28.0226 60.7839 28.2659 61.9001 28.2659C63.0647 28.2659 64.0352 28.0712 64.8602 27.6331C65.6851 27.1949 66.316 26.5621 66.7528 25.7346C67.1895 24.907 67.4321 23.8847 67.4321 22.6678L69.7614 24.2742L61.706 24.1768V21.0613H71.1201V21.5481C71.1201 23.7386 70.7319 25.5885 69.9554 27.0976C69.179 28.5579 68.0629 29.6776 66.7041 30.4565C65.4424 31.2353 63.8412 31.6249 62.0456 31.6249Z" fill="black"/>
<path d="M78.6934 31.6251C77.5359 31.6251 76.523 31.3326 75.6066 30.7476C74.6902 30.1626 73.9667 29.3826 73.4361 28.3589C72.9055 27.3351 72.6644 26.214 72.6644 24.9952C72.6644 23.7278 72.9055 22.6065 73.4361 21.5828C73.9667 20.559 74.6902 19.779 75.6066 19.194C76.523 18.609 77.5842 18.3165 78.6934 18.3165C79.6098 18.3165 80.4299 18.5114 81.1051 18.8528C81.8285 19.2427 82.4073 19.7302 82.7932 20.4128C83.2273 21.0952 83.4685 21.8265 83.4685 22.6553V27.2376C83.4202 28.0664 83.1791 28.8464 82.7932 29.4802C82.3592 30.1139 81.7804 30.6502 81.1051 31.0401C80.4299 31.4301 79.6098 31.6251 78.6934 31.6251ZM79.3205 28.4564C80.2851 28.4564 81.0569 28.1152 81.6356 27.4814C82.2144 26.8477 82.5038 26.0189 82.5038 24.9952C82.5038 24.3127 82.3592 23.7276 82.1179 23.1914C81.8285 22.6553 81.4909 22.2652 81.0086 21.9727C80.5262 21.6802 79.9475 21.5339 79.3205 21.5339C78.6934 21.5339 78.1629 21.6802 77.6805 21.9727C77.1983 22.2652 76.8124 22.6553 76.5712 23.1914C76.2819 23.7276 76.1854 24.3127 76.1854 24.9952C76.1854 25.6777 76.3301 26.2627 76.5712 26.799C76.8606 27.3352 77.1983 27.7252 77.6805 28.0176C78.1629 28.3101 78.6934 28.4564 79.3205 28.4564ZM82.3592 31.3814V27.9689L82.8897 24.849L82.3592 21.7777V18.6577H85.7354V31.3814H82.3592Z" fill="black"/>
<path d="M88.4705 31.3873V12.375H91.9165V31.3873H88.4705Z" fill="black"/>
<path d="M96.3715 16.6008C95.7834 16.6008 95.3421 16.4063 94.9501 16.0171C94.558 15.6281 94.4109 15.1903 94.4109 14.6066C94.4109 14.0716 94.607 13.5852 94.9501 13.1961C95.3421 12.807 95.7834 12.6124 96.3715 12.6124C96.9597 12.6124 97.4499 12.807 97.7929 13.1961C98.136 13.5852 98.3322 14.0716 98.3322 14.6066C98.3322 15.1903 98.136 15.6281 97.7929 16.0171C97.4008 16.4063 96.9597 16.6008 96.3715 16.6008ZM94.607 31.3871V18.6923H98.0871V31.3871H94.607Z" fill="black"/>
<path d="M100.826 31.3873V12.375H104.272V31.3873H100.826Z" fill="black"/>
<path d="M113.111 31.6251C111.801 31.6251 110.588 31.3326 109.569 30.7476C108.551 30.1626 107.726 29.3826 107.095 28.4077C106.513 27.3839 106.174 26.2627 106.174 24.9952C106.174 23.7278 106.465 22.6065 107.047 21.5828C107.629 20.6077 108.454 19.779 109.472 19.194C110.491 18.609 111.607 18.3165 112.868 18.3165C114.081 18.3165 115.196 18.609 116.118 19.1453C117.04 19.6815 117.767 20.4615 118.302 21.4365C118.835 22.4115 119.126 23.4839 119.126 24.7027C119.126 24.9464 119.126 25.1415 119.077 25.3851C119.029 25.6289 118.98 25.8728 118.932 26.214L108.26 26.2627V23.6789L117.331 23.6302L115.925 24.7027C115.876 23.9227 115.73 23.3377 115.536 22.8014C115.293 22.314 114.954 21.924 114.518 21.6315C114.081 21.339 113.547 21.2414 112.868 21.2414C112.189 21.2414 111.607 21.3877 111.074 21.6802C110.588 21.9727 110.2 22.4115 109.909 22.9965C109.618 23.5327 109.521 24.2152 109.521 24.9464C109.521 25.7265 109.666 26.409 109.957 26.9451C110.249 27.5302 110.685 27.9689 111.219 28.2614C111.752 28.5539 112.383 28.7002 113.111 28.7002C113.741 28.7002 114.323 28.6026 114.856 28.3589C115.391 28.1151 115.827 27.8226 116.215 27.3839L118.252 29.4314C117.622 30.1626 116.895 30.6989 116.021 31.089C115.1 31.4302 114.129 31.6251 113.111 31.6251Z" fill="black"/>
<path d="M126.994 31.6251C125.731 31.6251 124.566 31.3326 123.547 30.7476C122.527 30.1626 121.702 29.3339 121.119 28.3589C120.537 27.3351 120.197 26.2139 120.197 24.9464C120.197 23.6789 120.487 22.5577 121.07 21.5828C121.653 20.6077 122.478 19.779 123.498 19.194C124.518 18.609 125.683 18.3165 126.946 18.3165C128.257 18.3165 129.422 18.609 130.441 19.194C131.461 19.779 132.286 20.559 132.869 21.5828C133.452 22.5577 133.742 23.6789 133.742 24.9464C133.742 26.2139 133.452 27.3351 132.869 28.3589C132.286 29.3826 131.461 30.1626 130.441 30.7476C129.422 31.3326 128.257 31.6251 126.994 31.6251ZM126.946 28.4077C127.577 28.4077 128.159 28.2614 128.645 27.9689C129.13 27.6764 129.518 27.2865 129.81 26.7502C130.101 26.214 130.198 25.6289 130.198 24.9464C130.198 24.2639 130.053 23.6789 129.762 23.1914C129.47 22.704 129.082 22.2652 128.597 21.9727C128.11 21.6802 127.529 21.5339 126.897 21.5339C126.266 21.5339 125.683 21.6802 125.198 21.9727C124.713 22.2652 124.323 22.6553 124.033 23.1914C123.741 23.6789 123.595 24.3126 123.595 24.9464C123.595 25.6289 123.741 26.214 124.033 26.7502C124.323 27.2865 124.713 27.6764 125.198 27.9689C125.781 28.2614 126.314 28.4077 126.946 28.4077Z" fill="black"/>
</g>
<defs>
<radialGradient id="paint0_radial_2060_280" cx="0" cy="0" r="1" gradientUnits="userSpaceOnUse" gradientTransform="translate(8.54281 -5.37122e-05) rotate(56.6947) scale(52.6469 69.7052)">
<stop stop-color="#FFAF27"/>
<stop offset="0.564104" stop-color="#DE00B2"/>
<stop offset="1" stop-color="#2F21FA"/>
</radialGradient>
<radialGradient id="paint1_radial_2060_280" cx="0" cy="0" r="1" gradientUnits="userSpaceOnUse" gradientTransform="translate(8.54285 -4.63705e-05) rotate(56.6947) scale(52.6469 69.7052)">
<stop stop-color="#FFAF27"/>
<stop offset="0.564104" stop-color="#DE00B2"/>
<stop offset="1" stop-color="#2F21FA"/>
</radialGradient>
<radialGradient id="paint2_radial_2060_280" cx="0" cy="0" r="1" gradientUnits="userSpaceOnUse" gradientTransform="translate(8.54286 2.07797e-05) rotate(56.6947) scale(52.6469 69.7052)">
<stop stop-color="#FFAF27"/>
<stop offset="0.564104" stop-color="#DE00B2"/>
<stop offset="1" stop-color="#2F21FA"/>
</radialGradient>
<radialGradient id="paint3_radial_2060_280" cx="0" cy="0" r="1" gradientUnits="userSpaceOnUse" gradientTransform="translate(8.54285 -2.87167e-05) rotate(56.6947) scale(52.6469 69.7052)">
<stop stop-color="#FFAF27"/>
<stop offset="0.564104" stop-color="#DE00B2"/>
<stop offset="1" stop-color="#2F21FA"/>
</radialGradient>
<radialGradient id="paint4_radial_2060_280" cx="0" cy="0" r="1" gradientUnits="userSpaceOnUse" gradientTransform="translate(8.54281 2.25288e-05) rotate(56.6947) scale(52.6469 69.7052)">
<stop stop-color="#FFAF27"/>
<stop offset="0.564104" stop-color="#DE00B2"/>
<stop offset="1" stop-color="#2F21FA"/>
</radialGradient>
<radialGradient id="paint5_radial_2060_280" cx="0" cy="0" r="1" gradientUnits="userSpaceOnUse" gradientTransform="translate(8.54286 -1.35635e-05) rotate(56.6947) scale(52.6469 69.7052)">
<stop stop-color="#FFAF27"/>
<stop offset="0.564104" stop-color="#DE00B2"/>
<stop offset="1" stop-color="#2F21FA"/>
</radialGradient>
<radialGradient id="paint6_radial_2060_280" cx="0" cy="0" r="1" gradientUnits="userSpaceOnUse" gradientTransform="translate(8.54287 6.21946e-05) rotate(56.6947) scale(52.6469 69.7052)">
<stop stop-color="#FFAF27"/>
<stop offset="0.564104" stop-color="#DE00B2"/>
<stop offset="1" stop-color="#2F21FA"/>
</radialGradient>
<radialGradient id="paint7_radial_2060_280" cx="0" cy="0" r="1" gradientUnits="userSpaceOnUse" gradientTransform="translate(8.54286 2.14957e-05) rotate(56.6947) scale(52.6469 69.7052)">
<stop stop-color="#FFAF27"/>
<stop offset="0.564104" stop-color="#DE00B2"/>
<stop offset="1" stop-color="#2F21FA"/>
</radialGradient>
<radialGradient id="paint8_radial_2060_280" cx="0" cy="0" r="1" gradientUnits="userSpaceOnUse" gradientTransform="translate(8.54289 -5.53125e-05) rotate(56.6947) scale(52.6469 69.7052)">
<stop stop-color="#FFAF27"/>
<stop offset="0.564104" stop-color="#DE00B2"/>
<stop offset="1" stop-color="#2F21FA"/>
</radialGradient>
<radialGradient id="paint9_radial_2060_280" cx="0" cy="0" r="1" gradientUnits="userSpaceOnUse" gradientTransform="translate(8.54289 4.32899e-05) rotate(56.6947) scale(52.6469 69.7052)">
<stop stop-color="#FFAF27"/>
<stop offset="0.564104" stop-color="#DE00B2"/>
<stop offset="1" stop-color="#2F21FA"/>
</radialGradient>
<radialGradient id="paint10_radial_2060_280" cx="0" cy="0" r="1" gradientUnits="userSpaceOnUse" gradientTransform="translate(8.5428) rotate(56.6947) scale(52.6469 69.7052)">
<stop stop-color="#FFAF27"/>
<stop offset="0.564104" stop-color="#DE00B2"/>
<stop offset="1" stop-color="#2F21FA"/>
</radialGradient>
<radialGradient id="paint11_radial_2060_280" cx="0" cy="0" r="1" gradientUnits="userSpaceOnUse" gradientTransform="translate(8.54286 -5.33289e-05) rotate(56.6947) scale(52.6469 69.7052)">
<stop stop-color="#FFAF27"/>
<stop offset="0.564104" stop-color="#DE00B2"/>
<stop offset="1" stop-color="#2F21FA"/>
</radialGradient>
<radialGradient id="paint12_radial_2060_280" cx="0" cy="0" r="1" gradientUnits="userSpaceOnUse" gradientTransform="translate(8.54291 -5.00535e-05) rotate(56.6947) scale(52.6469 69.7052)">
<stop stop-color="#FFAF27"/>
<stop offset="0.564104" stop-color="#DE00B2"/>
<stop offset="1" stop-color="#2F21FA"/>
</radialGradient>
<radialGradient id="paint13_radial_2060_280" cx="0" cy="0" r="1" gradientUnits="userSpaceOnUse" gradientTransform="translate(8.54283 4.48059e-06) rotate(56.6947) scale(52.6469 69.7052)">
<stop stop-color="#FFAF27"/>
<stop offset="0.564104" stop-color="#DE00B2"/>
<stop offset="1" stop-color="#2F21FA"/>
</radialGradient>
<radialGradient id="paint14_radial_2060_280" cx="0" cy="0" r="1" gradientUnits="userSpaceOnUse" gradientTransform="translate(8.54287 -5.64533e-05) rotate(56.6947) scale(52.6469 69.7052)">
<stop stop-color="#FFAF27"/>
<stop offset="0.564104" stop-color="#DE00B2"/>
<stop offset="1" stop-color="#2F21FA"/>
</radialGradient>
<radialGradient id="paint15_radial_2060_280" cx="0" cy="0" r="1" gradientUnits="userSpaceOnUse" gradientTransform="translate(8.54281 -5.37122e-05) rotate(56.6947) scale(52.6469 69.7052)">
<stop stop-color="#FFAF27"/>
<stop offset="0.564104" stop-color="#DE00B2"/>
<stop offset="1" stop-color="#2F21FA"/>
</radialGradient>
<radialGradient id="paint16_radial_2060_280" cx="0" cy="0" r="1" gradientUnits="userSpaceOnUse" gradientTransform="translate(8.54285 -4.63705e-05) rotate(56.6947) scale(52.6469 69.7052)">
<stop stop-color="#FFAF27"/>
<stop offset="0.564104" stop-color="#DE00B2"/>
<stop offset="1" stop-color="#2F21FA"/>
</radialGradient>
<radialGradient id="paint17_radial_2060_280" cx="0" cy="0" r="1" gradientUnits="userSpaceOnUse" gradientTransform="translate(8.54286 2.07797e-05) rotate(56.6947) scale(52.6469 69.7052)">
<stop stop-color="#FFAF27"/>
<stop offset="0.564104" stop-color="#DE00B2"/>
<stop offset="1" stop-color="#2F21FA"/>
</radialGradient>
<radialGradient id="paint18_radial_2060_280" cx="0" cy="0" r="1" gradientUnits="userSpaceOnUse" gradientTransform="translate(8.54285 -2.87167e-05) rotate(56.6947) scale(52.6469 69.7052)">
<stop stop-color="#FFAF27"/>
<stop offset="0.564104" stop-color="#DE00B2"/>
<stop offset="1" stop-color="#2F21FA"/>
</radialGradient>
<radialGradient id="paint19_radial_2060_280" cx="0" cy="0" r="1" gradientUnits="userSpaceOnUse" gradientTransform="translate(8.54281 2.25288e-05) rotate(56.6947) scale(52.6469 69.7052)">
<stop stop-color="#FFAF27"/>
<stop offset="0.564104" stop-color="#DE00B2"/>
<stop offset="1" stop-color="#2F21FA"/>
</radialGradient>
<radialGradient id="paint20_radial_2060_280" cx="0" cy="0" r="1" gradientUnits="userSpaceOnUse" gradientTransform="translate(8.54286 -1.35635e-05) rotate(56.6947) scale(52.6469 69.7052)">
<stop stop-color="#FFAF27"/>
<stop offset="0.564104" stop-color="#DE00B2"/>
<stop offset="1" stop-color="#2F21FA"/>
</radialGradient>
<radialGradient id="paint21_radial_2060_280" cx="0" cy="0" r="1" gradientUnits="userSpaceOnUse" gradientTransform="translate(8.54287 6.21946e-05) rotate(56.6947) scale(52.6469 69.7052)">
<stop stop-color="#FFAF27"/>
<stop offset="0.564104" stop-color="#DE00B2"/>
<stop offset="1" stop-color="#2F21FA"/>
</radialGradient>
<radialGradient id="paint22_radial_2060_280" cx="0" cy="0" r="1" gradientUnits="userSpaceOnUse" gradientTransform="translate(8.54286 2.14957e-05) rotate(56.6947) scale(52.6469 69.7052)">
<stop stop-color="#FFAF27"/>
<stop offset="0.564104" stop-color="#DE00B2"/>
<stop offset="1" stop-color="#2F21FA"/>
</radialGradient>
<radialGradient id="paint23_radial_2060_280" cx="0" cy="0" r="1" gradientUnits="userSpaceOnUse" gradientTransform="translate(8.54289 -5.53125e-05) rotate(56.6947) scale(52.6469 69.7052)">
<stop stop-color="#FFAF27"/>
<stop offset="0.564104" stop-color="#DE00B2"/>
<stop offset="1" stop-color="#2F21FA"/>
</radialGradient>
<radialGradient id="paint24_radial_2060_280" cx="0" cy="0" r="1" gradientUnits="userSpaceOnUse" gradientTransform="translate(8.54289 4.32899e-05) rotate(56.6947) scale(52.6469 69.7052)">
<stop stop-color="#FFAF27"/>
<stop offset="0.564104" stop-color="#DE00B2"/>
<stop offset="1" stop-color="#2F21FA"/>
</radialGradient>
<radialGradient id="paint25_radial_2060_280" cx="0" cy="0" r="1" gradientUnits="userSpaceOnUse" gradientTransform="translate(8.5428) rotate(56.6947) scale(52.6469 69.7052)">
<stop stop-color="#FFAF27"/>
<stop offset="0.564104" stop-color="#DE00B2"/>
<stop offset="1" stop-color="#2F21FA"/>
</radialGradient>
<radialGradient id="paint26_radial_2060_280" cx="0" cy="0" r="1" gradientUnits="userSpaceOnUse" gradientTransform="translate(8.54286 -5.33289e-05) rotate(56.6947) scale(52.6469 69.7052)">
<stop stop-color="#FFAF27"/>
<stop offset="0.564104" stop-color="#DE00B2"/>
<stop offset="1" stop-color="#2F21FA"/>
</radialGradient>
<radialGradient id="paint27_radial_2060_280" cx="0" cy="0" r="1" gradientUnits="userSpaceOnUse" gradientTransform="translate(8.54291 -5.00535e-05) rotate(56.6947) scale(52.6469 69.7052)">
<stop stop-color="#FFAF27"/>
<stop offset="0.564104" stop-color="#DE00B2"/>
<stop offset="1" stop-color="#2F21FA"/>
</radialGradient>
<radialGradient id="paint28_radial_2060_280" cx="0" cy="0" r="1" gradientUnits="userSpaceOnUse" gradientTransform="translate(8.54283 4.48059e-06) rotate(56.6947) scale(52.6469 69.7052)">
<stop stop-color="#FFAF27"/>
<stop offset="0.564104" stop-color="#DE00B2"/>
<stop offset="1" stop-color="#2F21FA"/>
</radialGradient>
<radialGradient id="paint29_radial_2060_280" cx="0" cy="0" r="1" gradientUnits="userSpaceOnUse" gradientTransform="translate(8.54287 -5.64533e-05) rotate(56.6947) scale(52.6469 69.7052)">
<stop stop-color="#FFAF27"/>
<stop offset="0.564104" stop-color="#DE00B2"/>
<stop offset="1" stop-color="#2F21FA"/>
</radialGradient>
<clipPath id="clip0_2060_280">
<rect width="134.2" height="44" fill="white"/>
</clipPath>
</defs>
</svg>
