<svg width="498" height="126" viewBox="0 0 498 126" fill="none" xmlns="http://www.w3.org/2000/svg">
<mask id="mask0_1_221" style="mask-type:luminance" maskUnits="userSpaceOnUse" x="0" y="12" width="130" height="114">
<path d="M129.333 12.2656H0V125.599H129.333V12.2656Z" fill="white"/>
</mask>
<g mask="url(#mask0_1_221)">
<mask id="mask1_1_221" style="mask-type:luminance" maskUnits="userSpaceOnUse" x="0" y="12" width="129" height="114">
<path d="M0 12.9062H128.557V125.229H0V12.9062Z" fill="white"/>
</mask>
<g mask="url(#mask1_1_221)">
<mask id="mask2_1_221" style="mask-type:luminance" maskUnits="userSpaceOnUse" x="0" y="12" width="129" height="114">
<path d="M64.1823 12.9062L128.37 125.229H0L64.1823 12.9062Z" fill="white"/>
</mask>
<g mask="url(#mask2_1_221)">
<path d="M0 12.9062H128.557V125.229H0V12.9062Z" fill="#FFDE59"/>
</g>
</g>
</g>
<mask id="mask3_1_221" style="mask-type:luminance" maskUnits="userSpaceOnUse" x="22" y="0" width="129" height="112">
<path d="M22.4583 0H150.458V112H22.4583V0Z" fill="white"/>
</mask>
<g mask="url(#mask3_1_221)">
<mask id="mask4_1_221" style="mask-type:luminance" maskUnits="userSpaceOnUse" x="22" y="0" width="129" height="113">
<path d="M86.6406 0L150.818 112.313H22.4583L86.6406 0Z" fill="white"/>
</mask>
<g mask="url(#mask4_1_221)">
<path d="M86.6406 0L150.818 112.312H22.4583L86.6406 0Z" stroke="black" stroke-width="16"/>
</g>
</g>
<path d="M278.896 99.4531C273.49 99.4531 268.75 98.349 264.667 96.1406C260.584 93.9219 257.396 90.8229 255.104 86.849C252.823 82.8646 251.688 78.2344 251.688 72.9531C251.688 69.1094 252.344 65.5573 253.667 62.3073C254.985 59.0469 256.839 56.2188 259.229 53.8281C261.63 51.4271 264.443 49.5677 267.667 48.2448C270.901 46.9271 274.422 46.2656 278.229 46.2656C282.396 46.2656 286.094 47.0052 289.334 48.474C292.568 49.9323 295.255 51.9844 297.396 54.6198C299.547 57.2604 301.068 60.3438 301.959 63.8698C302.86 67.401 303.005 71.224 302.396 75.349H262.375C262.318 78.349 262.979 80.974 264.354 83.224C265.74 85.4635 267.729 87.2031 270.313 88.4531C272.896 89.7031 275.943 90.3281 279.459 90.3281C282.292 90.3281 285.031 89.901 287.688 89.0365C290.339 88.1771 292.74 86.9063 294.896 85.224L299.209 93.224C297.584 94.5469 295.625 95.6719 293.334 96.599C291.042 97.5156 288.646 98.2135 286.146 98.7031C283.646 99.2031 281.229 99.4531 278.896 99.4531ZM263.042 67.1406H291.459C291.36 63.349 290.151 60.3802 287.834 58.224C285.526 56.0573 282.24 54.974 277.979 54.974C273.865 54.974 270.448 56.0573 267.729 58.224C265.005 60.3802 263.443 63.349 263.042 67.1406Z" fill="black"/>
<path d="M313.993 97.9323V47.7865H325.139V54.1615C327.232 51.3594 329.665 49.3438 332.43 48.1198C335.191 46.8854 338.06 46.2656 341.034 46.2656C345.628 46.2656 349.43 47.1771 352.43 48.9948C355.441 50.8177 357.68 53.1615 359.139 56.0365C360.607 58.9115 361.347 61.8698 361.347 64.9115V97.9323H350.222V68.349C350.222 64.7656 349.144 61.901 346.993 59.7448C344.852 57.5781 341.873 56.4948 338.055 56.4948C335.555 56.4948 333.331 57.0573 331.389 58.1823C329.441 59.2969 327.915 60.8385 326.805 62.8073C325.691 64.7813 325.139 67.0885 325.139 69.724V97.9323H313.993Z" fill="black"/>
<path d="M400.903 99.453C396.013 99.453 391.226 98.7499 386.549 97.3489C381.867 95.9478 377.924 93.927 374.716 91.2864L380.299 82.6405C381.976 84.0885 383.945 85.3385 386.195 86.3905C388.445 87.4322 390.831 88.2343 393.362 88.7864C395.888 89.3437 398.424 89.6197 400.966 89.6197C405.591 89.6197 409.325 88.7447 412.174 86.9947C415.034 85.2343 416.466 82.6614 416.466 79.2864C416.466 76.7603 415.492 74.6197 413.549 72.8697C411.601 71.1093 408.013 69.4843 402.778 67.9947L395.487 65.8697C388.804 63.9426 383.935 61.3905 380.883 58.2239C377.825 55.0468 376.299 51.0937 376.299 46.3697C376.299 43.2343 376.929 40.401 378.195 37.8697C379.456 35.328 381.242 33.1301 383.549 31.2655C385.867 29.4062 388.596 27.9895 391.737 27.0155C394.872 26.0312 398.32 25.5364 402.07 25.5364C406.831 25.5364 411.258 26.2343 415.341 27.6197C419.424 29.0103 422.804 30.8697 425.487 33.203L419.695 41.5989C418.247 40.2812 416.554 39.151 414.612 38.203C412.664 37.2603 410.575 36.5364 408.341 36.0364C406.117 35.526 403.862 35.2655 401.57 35.2655C398.737 35.2655 396.226 35.6822 394.049 36.5155C391.867 37.3385 390.164 38.526 388.945 40.078C387.737 41.6353 387.133 43.5312 387.133 45.7655C387.133 47.3801 387.534 48.7968 388.341 50.0155C389.159 51.2239 390.554 52.328 392.528 53.328C394.497 54.328 397.226 55.3385 400.716 56.3489L408.403 58.6197C414.956 60.552 419.758 63.0676 422.799 66.1614C425.841 69.2447 427.362 73.2551 427.362 78.1822C427.362 82.4062 426.32 86.1145 424.237 89.3072C422.153 92.4895 419.133 94.9739 415.174 96.7655C411.226 98.5572 406.471 99.453 400.903 99.453Z" fill="black"/>
<path d="M434.893 97.9323L457.893 61.5573L436.101 27.0156H449.685L466.039 53.2031L483.518 27.0156H496.685L473.789 61.8698L497.351 97.9323H483.726L465.58 70.0156L448.101 97.9323H434.893Z" fill="black"/>
<path fill-rule="evenodd" clip-rule="evenodd" d="M216.593 99.4531C210.952 99.4531 205.739 98.5885 200.947 96.8698C196.155 95.151 191.958 92.677 188.364 89.4531C184.765 86.2343 181.968 82.3593 179.968 77.8281C177.978 73.302 176.989 68.2187 176.989 62.5781C176.989 56.9687 177.947 51.8906 179.864 47.3489C181.791 42.8073 184.489 38.9114 187.947 35.6614C191.416 32.401 195.489 29.8906 200.155 28.1406C204.833 26.3802 209.947 25.4948 215.489 25.4948C218.056 25.4948 220.655 25.6979 223.28 26.0989C225.916 26.5052 228.51 27.1718 231.051 28.0989C233.603 29.0312 236.036 30.2864 238.343 31.8698L233.364 40.7864C230.791 39.177 228.015 37.9687 225.03 37.1614C222.041 36.3437 218.968 35.9323 215.801 35.9323C211.676 35.9323 207.937 36.552 204.593 37.7864C201.244 39.0104 198.39 40.7812 196.03 43.0989C193.666 45.4062 191.853 48.1979 190.593 51.4739C189.327 54.7552 188.697 58.4323 188.697 62.5156C188.697 68.2656 189.911 73.151 192.343 77.1614C194.77 81.177 198.119 84.2239 202.385 86.3073C206.661 88.3906 211.583 89.4323 217.155 89.4323C219.89 89.4323 222.353 89.1718 224.551 88.6406C226.744 88.1145 228.515 87.5156 229.864 86.8489V69.7239H218.651V60.2864H240.051V93.4323C238.187 94.6823 235.864 95.7656 233.072 96.6823C230.291 97.5885 227.426 98.2708 224.468 98.7448C221.52 99.2135 218.895 99.4531 216.593 99.4531Z" fill="black"/>
</svg>
