<svg width="430" height="172" viewBox="0 0 430 172" fill="none" xmlns="http://www.w3.org/2000/svg">
<g clip-path="url(#clip0_375_487)">
<mask id="mask0_375_487" style="mask-type:luminance" maskUnits="userSpaceOnUse" x="-43" y="-18" width="516" height="208">
<path d="M473 -17.2002H-43V189.2H473V-17.2002Z" fill="black" fill-opacity="0.9"/>
</mask>
<g mask="url(#mask0_375_487)">
<mask id="mask1_375_487" style="mask-type:luminance" maskUnits="userSpaceOnUse" x="0" y="42" width="112" height="98">
<path d="M111.227 42.4263H0V139.893H111.227V42.4263Z" fill="white"/>
</mask>
<g mask="url(#mask1_375_487)">
<mask id="mask2_375_487" style="mask-type:luminance" maskUnits="userSpaceOnUse" x="0" y="42" width="111" height="98">
<path d="M0 42.9771H110.559V139.575H0V42.9771Z" fill="white"/>
</mask>
<g mask="url(#mask2_375_487)">
<mask id="mask3_375_487" style="mask-type:luminance" maskUnits="userSpaceOnUse" x="0" y="42" width="111" height="98">
<path d="M55.1968 42.9771L110.398 139.575H0L55.1968 42.9771Z" fill="white"/>
</mask>
<g mask="url(#mask3_375_487)">
<path d="M0 42.9771H110.559V139.575H0V42.9771Z" fill="#FFDE59"/>
</g>
</g>
</g>
</g>
<mask id="mask4_375_487" style="mask-type:luminance" maskUnits="userSpaceOnUse" x="19" y="31" width="111" height="98">
<path d="M19.3142 31.8784H129.394V128.198H19.3142V31.8784Z" fill="white"/>
</mask>
<g mask="url(#mask4_375_487)">
<mask id="mask5_375_487" style="mask-type:luminance" maskUnits="userSpaceOnUse" x="19" y="31" width="111" height="98">
<path d="M74.511 31.8784L129.703 128.467H19.3142L74.511 31.8784Z" fill="white"/>
</mask>
<g mask="url(#mask5_375_487)">
<path d="M74.511 31.8784L129.703 128.467H19.3142L74.511 31.8784Z" stroke="black" stroke-width="16"/>
</g>
</g>
<path d="M186.27 117.408C181.419 117.408 176.935 116.664 172.815 115.186C168.694 113.708 165.084 111.58 161.993 108.808C158.898 106.04 156.493 102.707 154.773 98.8104C153.061 94.918 152.21 90.5463 152.21 85.6954C152.21 80.8713 153.035 76.5041 154.683 72.5983C156.34 68.6925 158.66 65.342 161.635 62.547C164.618 59.7431 168.12 57.5841 172.134 56.0791C176.156 54.5652 180.555 53.8037 185.32 53.8037C187.529 53.8037 189.764 53.9784 192.021 54.3233C194.288 54.6727 196.518 55.246 198.704 56.0433C200.899 56.8451 202.991 57.9245 204.975 59.2862L200.693 66.9545C198.48 65.5705 196.093 64.5313 193.526 63.837C190.955 63.1338 188.313 62.78 185.589 62.78C182.042 62.78 178.826 63.313 175.95 64.3745C173.07 65.4271 170.615 66.9501 168.586 68.9433C166.553 70.9276 164.994 73.3284 163.91 76.1458C162.822 78.9677 162.28 82.13 162.28 85.6416C162.28 90.5866 163.323 94.7881 165.415 98.237C167.502 101.69 170.382 104.311 174.051 106.102C177.728 107.894 181.961 108.79 186.754 108.79C189.105 108.79 191.224 108.566 193.114 108.109C195 107.657 196.523 107.142 197.683 106.568V91.8408H183.833V83.7245H206.444V112.23C204.841 113.305 202.843 114.237 200.442 115.025C198.05 115.804 195.587 116.391 193.043 116.799C190.507 117.202 188.25 117.408 186.27 117.408Z" fill="black"/>
<path d="M239.851 117.408C235.201 117.408 231.125 116.458 227.614 114.559C224.102 112.651 221.361 109.986 219.39 106.568C217.428 103.142 216.451 99.1596 216.451 94.6178C216.451 91.3121 217.016 88.2573 218.153 85.4623C219.287 82.6584 220.881 80.2262 222.937 78.1703C225.002 76.1054 227.421 74.5063 230.194 73.3686C232.975 72.2354 236.003 71.6665 239.277 71.6665C242.861 71.6665 246.041 72.3025 248.827 73.5657C251.608 74.8198 253.92 76.5846 255.761 78.8511C257.61 81.122 258.918 83.7737 259.684 86.8061C260.459 89.843 260.585 93.1307 260.061 96.6782H225.643C225.593 99.2582 226.162 101.516 227.345 103.451C228.536 105.377 230.247 106.873 232.469 107.948C234.691 109.023 237.311 109.56 240.334 109.56C242.771 109.56 245.127 109.193 247.411 108.449C249.691 107.71 251.756 106.617 253.611 105.171L257.319 112.051C255.922 113.188 254.238 114.156 252.267 114.953C250.296 115.742 248.236 116.342 246.086 116.763C243.936 117.193 241.857 117.408 239.851 117.408ZM226.216 89.619H250.654C250.569 86.3582 249.53 83.805 247.537 81.9507C245.553 80.0873 242.726 79.1557 239.062 79.1557C235.524 79.1557 232.585 80.0873 230.247 81.9507C227.905 83.805 226.561 86.3582 226.216 89.619Z" fill="black"/>
<path d="M270.034 116.1V72.9744H279.619V78.4569C281.42 76.0471 283.512 74.3137 285.89 73.2611C288.264 72.1995 290.732 71.6665 293.29 71.6665C297.24 71.6665 300.51 72.4504 303.09 74.0136C305.679 75.5813 307.605 77.5969 308.859 80.0694C310.122 82.5419 310.758 85.0861 310.758 87.7019V116.1H301.191V90.6582C301.191 87.5765 300.264 85.113 298.414 83.2586C296.573 81.3953 294.011 80.4636 290.727 80.4636C288.577 80.4636 286.665 80.9473 284.994 81.9148C283.319 82.8734 282.007 84.1992 281.052 85.8923C280.094 87.5899 279.619 89.5742 279.619 91.8407V116.1H270.034Z" fill="black"/>
<path d="M344.777 117.408C340.571 117.408 336.455 116.803 332.432 115.598C328.406 114.393 325.015 112.655 322.256 110.384L327.057 102.949C328.5 104.194 330.193 105.269 332.128 106.174C334.063 107.07 336.114 107.76 338.291 108.234C340.464 108.714 342.645 108.951 344.831 108.951C348.808 108.951 352.02 108.199 354.47 106.694C356.929 105.18 358.161 102.967 358.161 100.064C358.161 97.892 357.323 96.051 355.652 94.546C353.977 93.0321 350.891 91.6346 346.389 90.3535L340.119 88.526C334.372 86.8687 330.184 84.6739 327.559 81.9506C324.93 79.2183 323.617 75.8186 323.617 71.756C323.617 69.0596 324.159 66.6229 325.248 64.446C326.332 62.2602 327.868 60.37 329.852 58.7664C331.846 57.1674 334.193 55.949 336.894 55.1114C339.59 54.2649 342.555 53.8394 345.78 53.8394C349.874 53.8394 353.682 54.4396 357.193 55.631C360.705 56.827 363.612 58.426 365.919 60.4327L360.938 67.6531C359.693 66.5199 358.237 65.5479 356.566 64.7327C354.891 63.922 353.095 63.2994 351.173 62.8694C349.261 62.4304 347.321 62.2064 345.35 62.2064C342.914 62.2064 340.755 62.5648 338.882 63.2814C337.006 63.9891 335.541 65.0104 334.493 66.3452C333.454 67.6845 332.934 69.3149 332.934 71.2364C332.934 72.625 333.279 73.8433 333.973 74.8914C334.676 75.9306 335.877 76.8802 337.574 77.7402C339.268 78.6002 341.615 79.4692 344.616 80.3381L351.227 82.291C356.862 83.9528 360.992 86.1162 363.607 88.7769C366.223 91.4285 367.531 94.8775 367.531 99.1148C367.531 102.747 366.635 105.937 364.844 108.682C363.052 111.419 360.454 113.556 357.05 115.096C353.655 116.637 349.565 117.408 344.777 117.408Z" fill="black"/>
<path d="M374.008 116.1L393.788 84.8177L375.047 55.1118H386.729L400.793 77.6331L415.825 55.1118H427.149L407.458 85.0864L427.722 116.1H416.005L400.399 92.0918L385.367 116.1H374.008Z" fill="black"/>
</g>
<defs>
<clipPath id="clip0_375_487">
<rect width="430" height="172" fill="white"/>
</clipPath>
</defs>
</svg>
