<svg width="181" height="44" viewBox="0 0 181 44" fill="none" xmlns="http://www.w3.org/2000/svg">
<g clip-path="url(#clip0_2060_522)">
<path d="M68.1616 36.84C66.7242 36.84 65.4917 36.642 64.4638 36.2463C63.443 35.8574 62.6305 35.3261 62.0262 34.6526C61.4222 33.9788 61.0298 33.222 60.8491 32.3816L64.9534 31.8296C65.0784 32.149 65.2764 32.4476 65.5471 32.7254C65.8178 33.0032 66.1757 33.2253 66.6201 33.3922C67.0715 33.5658 67.6201 33.6524 68.266 33.6524C69.2311 33.6524 70.0263 33.4165 70.6514 32.9443C71.2832 32.4787 71.5991 31.6976 71.5991 30.6005V27.6733H71.4117C71.2172 28.1178 70.9257 28.5379 70.5367 28.9337C70.1477 29.3296 69.6479 29.6525 69.0366 29.9024C68.4256 30.1526 67.6964 30.2776 66.8492 30.2776C65.6477 30.2776 64.5542 29.9998 63.568 29.4442C62.5888 28.8817 61.8074 28.024 61.2242 26.8712C60.6478 25.7115 60.3595 24.2463 60.3595 22.4754C60.3595 20.6629 60.6549 19.149 61.2451 17.9337C61.8353 16.7185 62.6199 15.8088 63.5991 15.2046C64.5853 14.6004 65.665 14.2983 66.8386 14.2983C67.7345 14.2983 68.4845 14.4511 69.0888 14.7567C69.6931 15.0553 70.1791 15.4303 70.547 15.8816C70.9221 16.3261 71.2102 16.7636 71.4117 17.1942H71.5783V14.5066H75.9845V30.663C75.9845 32.0241 75.6513 33.1628 74.9845 34.0795C74.3181 34.9961 73.3944 35.6837 72.2137 36.1422C71.0401 36.6074 69.6896 36.84 68.1616 36.84ZM68.2554 26.9442C68.9706 26.9442 69.5749 26.7671 70.0679 26.4129C70.5681 26.0518 70.95 25.5379 71.2137 24.8713C71.4848 24.1976 71.62 23.3921 71.62 22.4546C71.62 21.5171 71.488 20.7046 71.2243 20.0171C70.9603 19.3226 70.5784 18.7844 70.0782 18.4025C69.5784 18.0205 68.9706 17.8296 68.2554 17.8296C67.5262 17.8296 66.9117 18.0275 66.4116 18.4233C65.9117 18.8122 65.5333 19.3539 65.2764 20.0483C65.0194 20.7428 64.8909 21.5449 64.8909 22.4546C64.8909 23.3782 65.0194 24.1768 65.2764 24.8504C65.5401 25.5171 65.9188 26.0344 66.4116 26.4025C66.9117 26.7636 67.5262 26.9442 68.2554 26.9442ZM85.9276 30.8191C84.2817 30.8191 82.8649 30.4858 81.6775 29.8191C80.4968 29.1455 79.5872 28.1942 78.9483 26.965C78.3094 25.7289 77.99 24.2671 77.99 22.5796C77.99 20.9338 78.3094 19.4893 78.9483 18.2462C79.5872 17.0032 80.4866 16.0344 81.6464 15.34C82.813 14.6455 84.1811 14.2983 85.7504 14.2983C86.8061 14.2983 87.7885 14.4685 88.6984 14.8088C89.6151 15.1421 90.4136 15.6455 91.0941 16.3192C91.7817 16.9928 92.3164 17.84 92.6983 18.8608C93.0802 19.8747 93.2712 21.0622 93.2712 22.4233V23.6421H79.7609V20.8921H89.0941C89.0941 20.2532 88.9554 19.6872 88.6776 19.1942C88.3998 18.7011 88.0144 18.3157 87.5213 18.0379C87.0352 17.7532 86.4691 17.6108 85.8235 17.6108C85.1497 17.6108 84.5525 17.7671 84.0318 18.0796C83.5179 18.3851 83.1151 18.7983 82.8233 19.3192C82.5317 19.8331 82.3824 20.406 82.3753 21.0379V23.6525C82.3753 24.4442 82.5214 25.1282 82.813 25.7046C83.1116 26.281 83.5317 26.7254 84.0734 27.0379C84.6149 27.3504 85.2573 27.5067 86.0004 27.5067C86.4934 27.5067 86.9449 27.4372 87.3547 27.2983C87.7645 27.1594 88.115 26.9511 88.4066 26.6733C88.6984 26.3955 88.9205 26.0553 89.0733 25.6525L93.1776 25.9233C92.9691 26.9094 92.542 27.7705 91.8964 28.5067C91.2575 29.2358 90.4309 29.8053 89.4171 30.2151C88.4101 30.6178 87.247 30.8191 85.9276 30.8191ZM99.7245 21.2567V30.5067H95.287V14.5066H99.5163V17.3296H99.7037C100.058 16.399 100.652 15.6629 101.485 15.1212C102.318 14.5726 103.329 14.2983 104.516 14.2983C105.627 14.2983 106.596 14.5414 107.422 15.0275C108.249 15.5136 108.891 16.208 109.35 17.1108C109.808 18.0067 110.037 19.0761 110.037 20.3192V30.5067H105.6V21.1108C105.606 20.1317 105.357 19.3678 104.85 18.8191C104.343 18.2636 103.645 17.9858 102.756 17.9858C102.159 17.9858 101.631 18.1143 101.172 18.3713C100.721 18.6282 100.367 19.0032 100.11 19.4962C99.8601 19.9824 99.7316 20.5692 99.7245 21.2567ZM121.165 14.5066V17.84H111.529V14.5066H121.165ZM113.717 10.6733H118.154V25.59C118.154 25.9997 118.217 26.3192 118.342 26.5483C118.467 26.7706 118.641 26.9268 118.863 27.0171C119.092 27.1074 119.356 27.1525 119.654 27.1525C119.863 27.1525 120.071 27.1351 120.28 27.1004C120.488 27.0587 120.647 27.0275 120.759 27.0067L121.457 30.3087C121.234 30.3782 120.922 30.458 120.519 30.5483C120.116 30.6454 119.627 30.7047 119.05 30.7255C117.981 30.7671 117.044 30.6246 116.238 30.2984C115.439 29.9719 114.818 29.465 114.373 28.7775C113.929 28.09 113.71 27.2219 113.717 26.1733V10.6733ZM123.176 30.5067V14.5066H127.478V17.2983H127.644C127.936 16.3053 128.425 15.5553 129.113 15.0483C129.801 14.5344 130.592 14.2775 131.488 14.2775C131.71 14.2775 131.95 14.2914 132.207 14.3192C132.464 14.3469 132.689 14.3851 132.884 14.4338V18.3713C132.676 18.3087 132.388 18.2532 132.019 18.2046C131.651 18.156 131.314 18.1317 131.009 18.1317C130.356 18.1317 129.773 18.274 129.259 18.5588C128.752 18.8365 128.349 19.2254 128.051 19.7254C127.759 20.2254 127.613 20.8018 127.613 21.4546V30.5067H123.176ZM138.402 30.8088C137.381 30.8088 136.472 30.6316 135.673 30.2776C134.875 29.9165 134.243 29.3852 133.777 28.6837C133.319 27.9754 133.09 27.0935 133.09 26.0379C133.09 25.149 133.253 24.4025 133.579 23.7983C133.906 23.1942 134.35 22.708 134.913 22.34C135.475 21.972 136.114 21.6942 136.829 21.5067C137.552 21.3192 138.308 21.1872 139.1 21.1108C140.031 21.0136 140.781 20.9233 141.35 20.84C141.92 20.7497 142.333 20.6178 142.59 20.4442C142.847 20.2706 142.975 20.0136 142.975 19.6733V19.6108C142.975 18.9511 142.767 18.4407 142.35 18.0796C141.94 17.7185 141.357 17.5379 140.6 17.5379C139.801 17.5379 139.166 17.715 138.694 18.0692C138.222 18.4164 137.909 18.8539 137.756 19.3817L133.652 19.0483C133.861 18.0761 134.27 17.2358 134.881 16.5275C135.493 15.8122 136.281 15.2636 137.246 14.8817C138.218 14.4928 139.343 14.2983 140.621 14.2983C141.51 14.2983 142.361 14.4025 143.173 14.6108C143.993 14.8192 144.718 15.1421 145.35 15.5796C145.989 16.0171 146.493 16.5796 146.861 17.2671C147.229 17.9476 147.413 18.7636 147.413 19.715V30.5067H143.204V28.2879H143.08C142.823 28.7879 142.479 29.2289 142.048 29.6108C141.618 29.9857 141.1 30.2811 140.496 30.4961C139.892 30.7047 139.194 30.8088 138.402 30.8088ZM139.673 27.7462C140.326 27.7462 140.902 27.6178 141.402 27.3608C141.902 27.0969 142.295 26.7428 142.579 26.2983C142.864 25.8539 143.006 25.3504 143.006 24.7879V23.09C142.868 23.1803 142.677 23.2636 142.434 23.34C142.197 23.4094 141.93 23.4754 141.632 23.5379C141.333 23.5935 141.034 23.6455 140.736 23.6942C140.437 23.7358 140.166 23.774 139.923 23.8087C139.402 23.8851 138.947 24.0067 138.559 24.1733C138.17 24.34 137.868 24.5657 137.652 24.8504C137.437 25.1282 137.329 25.4754 137.329 25.8921C137.329 26.4962 137.548 26.9581 137.986 27.2775C138.43 27.59 138.992 27.7462 139.673 27.7462ZM157.205 30.8191C155.566 30.8191 154.156 30.472 152.975 29.7774C151.802 29.0761 150.899 28.1039 150.267 26.8608C149.642 25.6178 149.33 24.1872 149.33 22.5691C149.33 20.9303 149.645 19.4928 150.278 18.2567C150.916 17.0136 151.823 16.0449 152.996 15.3504C154.17 14.649 155.566 14.2983 157.184 14.2983C158.58 14.2983 159.802 14.5518 160.851 15.0587C161.899 15.5657 162.729 16.2775 163.34 17.1942C163.951 18.1108 164.288 19.1872 164.351 20.4233H160.163C160.045 19.6247 159.732 18.9824 159.225 18.4962C158.725 18.0032 158.069 17.7567 157.257 17.7567C156.569 17.7567 155.969 17.9442 155.455 18.3192C154.948 18.6872 154.552 19.2254 154.267 19.9338C153.982 20.6421 153.84 21.4997 153.84 22.5067C153.84 23.5275 153.979 24.3956 154.257 25.1108C154.542 25.8261 154.941 26.3712 155.455 26.7462C155.969 27.1212 156.569 27.3087 157.257 27.3087C157.764 27.3087 158.218 27.2046 158.621 26.9963C159.031 26.7879 159.368 26.4858 159.632 26.09C159.902 25.6872 160.08 25.2046 160.163 24.6421H164.351C164.281 25.8643 163.948 26.9407 163.35 27.8712C162.76 28.7949 161.944 29.517 160.902 30.0379C159.861 30.5589 158.628 30.8191 157.205 30.8191ZM173.603 30.8191C171.957 30.8191 170.541 30.4858 169.353 29.8191C168.173 29.1455 167.263 28.1942 166.624 26.965C165.985 25.7289 165.666 24.2671 165.666 22.5796C165.666 20.9338 165.985 19.4893 166.624 18.2462C167.263 17.0032 168.162 16.0344 169.322 15.34C170.489 14.6455 171.857 14.2983 173.426 14.2983C174.482 14.2983 175.464 14.4685 176.374 14.8088C177.291 15.1421 178.089 15.6455 178.77 16.3192C179.458 16.9928 179.992 17.84 180.374 18.8608C180.756 19.8747 180.947 21.0622 180.947 22.4233V23.6421H167.437V20.8921H176.77C176.77 20.2532 176.631 19.6872 176.353 19.1942C176.075 18.7011 175.69 18.3157 175.197 18.0379C174.711 17.7532 174.145 17.6108 173.499 17.6108C172.826 17.6108 172.228 17.7671 171.707 18.0796C171.193 18.3851 170.791 18.7983 170.499 19.3192C170.208 19.8331 170.058 20.406 170.051 21.0379V23.6525C170.051 24.4442 170.197 25.1282 170.489 25.7046C170.787 26.281 171.208 26.7254 171.749 27.0379C172.291 27.3504 172.933 27.5067 173.676 27.5067C174.169 27.5067 174.621 27.4372 175.03 27.2983C175.44 27.1594 175.791 26.9511 176.082 26.6733C176.374 26.3955 176.596 26.0553 176.749 25.6525L180.853 25.9233C180.645 26.9094 180.218 27.7705 179.572 28.5067C178.933 29.2358 178.107 29.8053 177.093 30.2151C176.086 30.6178 174.923 30.8191 173.603 30.8191Z" fill="black"/>
<path fill-rule="evenodd" clip-rule="evenodd" d="M22 44C34.1502 44 44 34.1502 44 22C44 9.84972 34.1502 0 22 0C9.84972 0 0 9.84972 0 22C0 34.1502 9.84972 44 22 44ZM21.8827 35.5209C21.1375 35.5209 20.5333 36.1249 20.5333 36.8702V37.1049C20.5333 37.85 21.1375 38.4542 21.8827 38.4542H22.1173C22.8625 38.4542 23.4667 37.85 23.4667 37.1049V36.8702C23.4667 36.1249 22.8625 35.5209 22.1173 35.5209H21.8827ZM19.8917 31.0036C19.8917 30.2582 20.4958 29.6542 21.241 29.6542H22.759C23.5042 29.6542 24.1083 30.2582 24.1083 31.0036V31.2382C24.1083 31.9833 23.5042 32.5876 22.759 32.5876H21.241C20.4958 32.5876 19.8917 31.9833 19.8917 31.2382V31.0036ZM19.7743 23.7875C19.0291 23.7875 18.425 24.3916 18.425 25.1368V25.3715C18.425 26.1167 19.0291 26.7208 19.7743 26.7208H24.2257C24.9709 26.7208 25.575 26.1167 25.575 25.3715V25.1368C25.575 24.3916 24.9709 23.7875 24.2257 23.7875H19.7743ZM15.2167 19.2702C15.2167 18.5249 15.8208 17.9208 16.566 17.9208H27.434C28.1792 17.9208 28.7833 18.5249 28.7833 19.2702V19.5048C28.7833 20.2501 28.1792 20.8542 27.434 20.8542H16.566C15.8208 20.8542 15.2167 20.2501 15.2167 19.5048V19.2702ZM9.141 12.0542C8.39579 12.0542 7.79167 12.6583 7.79167 13.4035V13.6382C7.79167 14.3834 8.39579 14.9875 9.141 14.9875H34.8591C35.6042 14.9875 36.2085 14.3834 36.2085 13.6382V13.4035C36.2085 12.6583 35.6042 12.0542 34.8591 12.0542H9.141Z" fill="black"/>
</g>
<defs>
<clipPath id="clip0_2060_522">
<rect width="180.987" height="44" fill="white"/>
</clipPath>
</defs>
</svg>
