<svg width="101" height="28" viewBox="0 0 101 28" fill="none" xmlns="http://www.w3.org/2000/svg">
<g clip-path="url(#clip0_125_493)">
<path d="M20.2268 12.37V25.6417C20.2268 25.7341 20.2044 25.896 20.0924 25.9422C20.0924 25.9422 17.2935 28 12.6809 28C7.10546 28 0.5 26.1965 0.5 14.3122C0.5 2.42789 6.27698 -0.0229599 11.9196 0.000161362C16.8009 0.000161362 18.7714 1.1331 19.0849 1.34119C19.1744 1.4568 19.2192 1.54929 19.2192 1.66489L18.2787 5.78048C18.2787 5.98857 18.0772 6.2429 17.8309 6.17353C17.0249 5.9192 15.8157 5.41053 12.972 5.41053C9.68045 5.41053 6.14263 6.38163 6.14263 14.0347C6.14263 21.6879 9.50134 22.5897 11.9196 22.5897C13.9796 22.5897 14.7186 22.3353 14.7186 22.3353V17.0174H11.427C11.1807 17.0174 11.0015 16.8324 11.0015 16.6243V12.37C11.0015 12.162 11.1807 11.977 11.427 11.977H19.8014C20.0477 11.977 20.2268 12.162 20.2268 12.37ZM100.5 17.7573C100.5 25.6879 98.0144 27.9538 93.6703 27.9538C89.9985 27.9538 88.028 26.0347 88.028 26.0347C88.028 26.0347 87.9384 27.0983 87.8265 27.237C87.7593 27.3757 87.6473 27.422 87.513 27.422H84.1991C83.9751 27.422 83.7736 27.237 83.7736 27.0289L83.8184 1.34119C83.8184 1.1331 83.9976 0.948136 84.1991 0.948136H88.9685C89.1699 0.948136 89.3491 1.1331 89.3491 1.34119V10.0579C89.3491 10.0579 91.1856 8.83248 93.8721 8.83248L93.8495 8.78624C96.5369 8.78624 100.5 9.82669 100.5 17.7573ZM62.4794 0.994373C62.6809 0.994373 62.8601 1.17934 62.8601 1.38744V27.0752C62.8601 27.2832 62.6809 27.4682 62.4794 27.4682H57.71C57.5085 27.4682 57.3294 27.2832 57.3294 27.0752L57.3741 16.0925H49.9626V27.0752C49.9626 27.2832 49.7835 27.4682 49.582 27.4682H44.8126C44.6334 27.4682 44.4319 27.2832 44.4319 27.0752V1.38744C44.4319 1.17934 44.6111 0.994373 44.8126 0.994373H49.582C49.7835 0.994373 49.9626 1.17934 49.9626 1.38744V10.844H57.3741V1.38744C57.3741 1.17934 57.5533 0.994373 57.7548 0.994373H62.4794ZM80.9747 9.41052C81.221 9.41052 81.4001 9.59551 81.4001 9.80355L81.3553 27.0752C81.3553 27.2832 81.221 27.4682 80.9747 27.4682H77.9742C77.8175 27.4682 77.6607 27.3757 77.6159 27.2601C77.5488 27.1214 77.4369 26.2197 77.4369 26.2197C77.4369 26.2197 74.9067 28 71.7942 28C68.0101 28 65.2559 26.7283 65.2559 21.6417V9.82669C65.2559 9.61856 65.435 9.43367 65.6366 9.43367H70.4284C70.6299 9.43367 70.809 9.61856 70.809 9.82669V20.8093C70.809 22.5434 71.3016 23.3295 72.981 23.3295C74.6604 23.3295 75.8918 22.4278 75.8918 22.4278V9.84984C75.8918 9.59551 76.0262 9.41052 76.2725 9.41052H80.9747ZM42.0002 23.2162H42.0114C42.1028 23.2358 42.1846 23.288 42.2423 23.3637C42.3001 23.4395 42.3301 23.5337 42.3271 23.63V27.0983C42.3271 27.2601 42.26 27.422 42.1256 27.4682C41.9017 27.5838 40.4687 27.9769 39.2819 27.9769C36.6845 27.9769 32.8779 27.3988 32.8779 21.7573V14.1735H30.3925C30.191 14.1735 30.0119 13.9885 30.0119 13.7342V10.5897C30.0119 10.4047 30.1238 10.2429 30.303 10.1967C30.4597 10.1735 32.9004 9.54921 32.9004 9.54921V4.53193C32.9004 4.34695 33.0123 4.23135 33.2139 4.23135H38.0504C38.2519 4.23135 38.3639 4.34695 38.3639 4.53193V9.41052H41.9241C42.1032 9.41052 42.2823 9.59551 42.2823 9.80355V13.7342C42.2823 13.9885 42.1256 14.1735 41.9241 14.1735H38.3639V21.4127C38.3639 22.4995 38.9685 23.3318 40.715 23.3318C41.268 23.3318 41.792 23.2185 42.0002 23.2162ZM27.9071 9.38737C28.1086 9.38737 28.2877 9.57236 28.2877 9.78049V26.8208C28.2877 27.237 28.1758 27.4451 27.7279 27.4451H23.4288C23.0481 27.4451 22.757 27.2832 22.757 26.8208V9.84984C22.757 9.59551 22.9362 9.38737 23.1377 9.38737H27.9071ZM95.0586 18.1272C95.0586 13.9423 93.4243 13.3874 91.7 13.5723C90.3567 13.6648 89.2819 14.3585 89.2819 14.3585V22.4972C89.2819 22.4972 90.3791 23.2833 92.0135 23.3295C94.3198 23.3989 95.0586 22.5434 95.0586 18.1272ZM25.5559 1.57241C27.2353 1.57241 28.6012 2.9828 28.6012 4.76314C28.6012 6.54348 27.2353 7.95388 25.5559 7.95388C23.8318 7.95388 22.4659 6.54348 22.4659 4.76314C22.4659 2.9828 23.8318 1.57241 25.5559 1.57241ZM41.9913 23.1908V23.1931L42.0137 23.2162H42.0114L42.0002 23.2139V23.2162C41.9801 23.2139 41.9667 23.1908 41.9465 23.1908H41.9913Z" fill="#14171F"/>
</g>
<defs>
<clipPath id="clip0_125_493">
<rect width="100" height="28" fill="white" transform="translate(0.5)"/>
</clipPath>
</defs>
</svg>
