<svg width="111" height="30" viewBox="0 0 111 30" fill="none" xmlns="http://www.w3.org/2000/svg">
<path d="M21.8968 13.2536V27.4732C21.8968 27.5723 21.8719 27.7457 21.7476 27.7952C21.7476 27.7952 18.6408 30 13.5208 30C7.33206 30 0 28.0677 0 15.3345C0 2.60131 6.41245 -0.0245999 12.6758 0.000172888C18.094 0.000172888 20.2812 1.21404 20.6292 1.43699C20.7286 1.56086 20.7783 1.65995 20.7783 1.78381L19.7344 6.19337C19.7344 6.41632 19.5107 6.68882 19.2373 6.6145C18.3426 6.342 17.0004 5.797 13.8439 5.797C10.1903 5.797 6.26332 6.83746 6.26332 15.0372C6.26332 23.237 9.99149 24.2032 12.6758 24.2032C14.9624 24.2032 15.7826 23.9307 15.7826 23.9307V18.2329H12.129C11.8556 18.2329 11.6567 18.0347 11.6567 17.8118V13.2536C11.6567 13.0307 11.8556 12.8325 12.129 12.8325H21.4245C21.6979 12.8325 21.8968 13.0307 21.8968 13.2536ZM111 19.0257C111 27.5227 108.241 29.9505 103.419 29.9505C99.3433 29.9505 97.1561 27.8943 97.1561 27.8943C97.1561 27.8943 97.0566 29.0339 96.9324 29.1825C96.8578 29.3311 96.7335 29.3807 96.5844 29.3807H92.906C92.6574 29.3807 92.4337 29.1825 92.4337 28.9595L92.4834 1.43699C92.4834 1.21404 92.6823 1.01586 92.906 1.01586H98.2C98.4236 1.01586 98.6225 1.21404 98.6225 1.43699V10.7763C98.6225 10.7763 100.661 9.46337 103.643 9.46337L103.618 9.41383C106.601 9.41383 111 10.5286 111 19.0257ZM68.7971 1.0654C69.0208 1.0654 69.2197 1.26358 69.2197 1.48654V29.0091C69.2197 29.232 69.0208 29.4302 68.7971 29.4302H63.5031C63.2794 29.4302 63.0806 29.232 63.0806 29.0091L63.1303 17.242H54.9035V29.0091C54.9035 29.232 54.7047 29.4302 54.481 29.4302H49.187C48.9881 29.4302 48.7644 29.232 48.7644 29.0091V1.48654C48.7644 1.26358 48.9633 1.0654 49.187 1.0654H54.481C54.7047 1.0654 54.9035 1.26358 54.9035 1.48654V11.6186H63.1303V1.48654C63.1303 1.26358 63.3292 1.0654 63.5528 1.0654H68.7971ZM89.3269 10.0827C89.6003 10.0827 89.7991 10.2809 89.7991 10.5038L89.7494 29.0091C89.7494 29.232 89.6003 29.4302 89.3269 29.4302H85.9964C85.8224 29.4302 85.6484 29.3311 85.5987 29.2073C85.5242 29.0586 85.3999 28.0925 85.3999 28.0925C85.3999 28.0925 82.5914 30 79.1366 30C74.9362 30 71.8791 28.6375 71.8791 23.1875V10.5286C71.8791 10.3056 72.0779 10.1075 72.3016 10.1075H77.6205C77.8442 10.1075 78.043 10.3056 78.043 10.5286V22.2957C78.043 24.1536 78.5898 24.9959 80.4539 24.9959C82.318 24.9959 83.6849 24.0298 83.6849 24.0298V10.5534C83.6849 10.2809 83.8341 10.0827 84.1075 10.0827H89.3269ZM46.0652 24.8745H46.0777C46.1791 24.8955 46.2699 24.9514 46.334 25.0325C46.3981 25.1137 46.4314 25.2147 46.4281 25.3179V29.0339C46.4281 29.2073 46.3536 29.3807 46.2044 29.4302C45.9559 29.5541 44.3652 29.9752 43.0479 29.9752C40.1648 29.9752 35.9395 29.3559 35.9395 23.3114V15.1859H33.1807C32.957 15.1859 32.7582 14.9877 32.7582 14.7152V11.3461C32.7582 11.1479 32.8824 10.9745 33.0813 10.925C33.2553 10.9002 35.9644 10.2313 35.9644 10.2313V4.85564C35.9644 4.65745 36.0887 4.53359 36.3124 4.53359H41.6809C41.9046 4.53359 42.0289 4.65745 42.0289 4.85564V10.0827H45.9807C46.1796 10.0827 46.3784 10.2809 46.3784 10.5038V14.7152C46.3784 14.9877 46.2044 15.1859 45.9807 15.1859H42.0289V22.9422C42.0289 24.1066 42.7 24.9984 44.6386 24.9984C45.2525 24.9984 45.8341 24.877 46.0652 24.8745ZM30.4219 10.0579C30.6455 10.0579 30.8444 10.2561 30.8444 10.4791V28.7366C30.8444 29.1825 30.7201 29.4055 30.223 29.4055H25.451C25.0284 29.4055 24.7053 29.232 24.7053 28.7366V10.5534C24.7053 10.2809 24.9042 10.0579 25.1279 10.0579H30.4219ZM104.96 19.422C104.96 14.9382 103.146 14.3436 101.232 14.5418C99.7409 14.6409 98.5479 15.3841 98.5479 15.3841V24.1041C98.5479 24.1041 99.7658 24.9464 101.58 24.9959C104.14 25.0702 104.96 24.1536 104.96 19.422ZM27.8121 1.68472C29.6762 1.68472 31.1923 3.19586 31.1923 5.10336C31.1923 7.01087 29.6762 8.52201 27.8121 8.52201C25.8983 8.52201 24.3822 7.01087 24.3822 5.10336C24.3822 3.19586 25.8983 1.68472 27.8121 1.68472ZM46.0553 24.8473V24.8497L46.0802 24.8745H46.0777L46.0652 24.872V24.8745C46.0429 24.872 46.028 24.8473 46.0056 24.8473H46.0553Z" fill="white"/>
</svg>

