<svg width="243" height="74" viewBox="0 0 243 74" fill="none" xmlns="http://www.w3.org/2000/svg">
<g clip-path="url(#clip0_407_352)">
<path d="M104.473 57.1818C93.6483 57.1818 85.9091 49.2543 85.9091 38.8068C85.9091 28.3593 93.701 20.4318 104.316 20.4318C109.546 20.4318 113.625 22.4793 117.024 25.4718L114.879 29.9344C112.265 27.3093 108.918 25.1568 104.107 25.1568C96.263 25.1568 90.6157 30.6693 90.6157 38.8068C90.6157 46.9444 96.2108 52.4568 104.16 52.4568C111.01 52.4568 115.874 48.3093 116.658 42.0093H102.695V37.2843H121.992V37.4944C121.992 49.0443 115.507 57.1818 104.473 57.1818Z" fill="#12100C"/>
<path d="M126.901 30.9318H131.399V57.1818H126.901V30.9318Z" fill="#12100C"/>
<path d="M152.699 56.8143V52.8243C151.287 53.0868 150.137 53.2443 148.463 53.2443C146.267 53.2443 145.483 52.0893 145.483 50.0943V34.8693H152.647V30.9318H145.483V23.8969H140.985V30.9318H135.808V34.8693H140.985V49.8318C140.985 55.3968 143.443 57.4444 148.202 57.4444C149.875 57.4444 151.339 57.1818 152.699 56.8143Z" fill="#12100C"/>
<path fill-rule="evenodd" clip-rule="evenodd" d="M161.865 67.6818H157.368V30.9318H161.865V34.7118C164.009 31.8244 167.199 30.3018 171.069 30.3018C178.495 30.3018 183.672 35.9718 183.672 44.0568C183.672 52.1418 178.495 57.8119 171.069 57.8119C167.356 57.8119 164.323 56.3418 161.865 53.3493V67.6818ZM161.551 44.0568C161.551 49.8844 165.003 53.6118 170.285 53.6118C175.566 53.6118 179.017 49.8318 179.017 44.0568C179.017 38.2819 175.566 34.5019 170.285 34.5019C165.003 34.5019 161.551 38.2293 161.551 44.0568Z" fill="#12100C"/>
<path fill-rule="evenodd" clip-rule="evenodd" d="M186.471 44.0568C186.471 51.9318 192.328 57.8119 200.172 57.8119C208.017 57.8119 213.873 51.9318 213.873 44.0568C213.873 36.1819 208.017 30.3018 200.172 30.3018C192.328 30.3018 186.471 36.1819 186.471 44.0568ZM209.219 44.0568C209.219 49.5169 205.611 53.4543 200.172 53.4543C194.734 53.4543 191.126 49.5169 191.126 44.0568C191.126 38.5968 194.734 34.6594 200.172 34.6594C205.611 34.6594 209.219 38.5968 209.219 44.0568Z" fill="#12100C"/>
<path fill-rule="evenodd" clip-rule="evenodd" d="M238.503 20.4318H243V57.1818H238.503V53.4018C236.359 56.2893 233.169 57.8119 229.299 57.8119C221.873 57.8119 216.696 52.1418 216.696 44.0568C216.696 35.9718 221.873 30.3018 229.299 30.3018C233.012 30.3018 236.045 31.7718 238.503 34.7643V20.4318ZM238.816 44.0568C238.816 38.2293 235.365 34.5018 230.084 34.5018C224.802 34.5018 221.35 38.2818 221.35 44.0568C221.35 49.8318 224.802 53.6118 230.084 53.6118C235.365 53.6118 238.816 49.8843 238.816 44.0568Z" fill="#12100C"/>
<path d="M129.16 27.482C130.937 27.482 132.379 26.0411 132.379 24.2637C132.379 22.4863 130.937 21.0455 129.16 21.0455C127.382 21.0455 125.941 22.4863 125.941 24.2637C125.941 26.0411 127.382 27.482 129.16 27.482Z" fill="#12100C"/>
<path fill-rule="evenodd" clip-rule="evenodd" d="M39.7379 3.8489C41.7245 7.33762 40.5166 11.7819 37.0401 13.7754L15.425 26.1705C14.8528 26.4987 14.4999 27.1078 14.4999 27.7675V47.231C14.4999 47.8906 14.8528 48.4999 15.425 48.828L32.5274 58.6352C33.0946 58.9605 33.7918 58.9605 34.359 58.6352L51.4614 48.828C52.0336 48.4999 52.3865 47.8906 52.3865 47.231V35.1269L37.0058 43.8357C33.5186 45.8102 29.0966 44.5739 27.129 41.0744C25.1614 37.5749 26.3933 33.1373 29.8805 31.1628L51.8883 18.7017C58.592 14.9059 66.8864 19.7666 66.8864 27.4909V48.706C66.8864 53.6751 64.233 58.2632 59.934 60.7285L40.289 71.9938C36.047 74.4263 30.8393 74.4263 26.5973 71.9938L6.95238 60.7285C2.6532 58.2632 0 53.6751 0 48.706V26.2924C0 21.3234 2.65321 16.7353 6.95238 14.27L29.8462 1.14166C33.3227 -0.85189 37.7513 0.36018 39.7379 3.8489Z" fill="url(#paint0_linear_407_352)"/>
</g>
<defs>
<linearGradient id="paint0_linear_407_352" x1="50.3427" y1="11.3169" x2="15.8392" y2="65.3709" gradientUnits="userSpaceOnUse">
<stop stop-color="#FFB45B"/>
<stop offset="1" stop-color="#FF8A00"/>
</linearGradient>
<clipPath id="clip0_407_352">
<rect width="243" height="74" fill="white"/>
</clipPath>
</defs>
</svg>
