<svg viewBox="0 0 107 36" fill="none" xmlns="http://www.w3.org/2000/svg">
<path d="M45.2935 18.4617C45.2935 23.4587 41.3844 27.1409 36.587 27.1409C31.7896 27.1409 27.8805 23.4587 27.8805 18.4617C27.8805 13.4295 31.7896 9.78259 36.587 9.78259C41.3844 9.78259 45.2935 13.4295 45.2935 18.4617ZM41.4822 18.4617C41.4822 15.3391 39.2166 13.2026 36.587 13.2026C33.9574 13.2026 31.6918 15.3391 31.6918 18.4617C31.6918 21.553 33.9574 23.7209 36.587 23.7209C39.2166 23.7209 41.4822 21.5491 41.4822 18.4617Z" fill="#EA4335"/>
<path d="M64.0761 18.4617C64.0761 23.4587 60.167 27.1409 55.3696 27.1409C50.5722 27.1409 46.6631 23.4587 46.6631 18.4617C46.6631 13.4335 50.5722 9.78259 55.3696 9.78259C60.167 9.78259 64.0761 13.4295 64.0761 18.4617ZM60.2648 18.4617C60.2648 15.3391 57.9992 13.2026 55.3696 13.2026C52.74 13.2026 50.4744 15.3391 50.4744 18.4617C50.4744 21.553 52.74 23.7209 55.3696 23.7209C57.9992 23.7209 60.2648 21.5491 60.2648 18.4617Z" fill="#FBBC05"/>
<path d="M82.0761 10.3069V25.8887C82.0761 32.2982 78.2961 34.9161 73.8274 34.9161C69.6209 34.9161 67.0892 32.1026 66.1344 29.8017L69.4527 28.4204C70.0435 29.833 71.4913 31.5 73.8235 31.5C76.684 31.5 78.4566 29.7352 78.4566 26.413V25.1648H78.3235C77.4705 26.2174 75.827 27.1369 73.7531 27.1369C69.4135 27.1369 65.4379 23.3569 65.4379 18.493C65.4379 13.5939 69.4135 9.78259 73.7531 9.78259C75.8231 9.78259 77.4666 10.7022 78.3235 11.7235H78.4566V10.3109H82.0761V10.3069ZM78.7266 18.493C78.7266 15.4369 76.6879 13.2026 74.0935 13.2026C71.464 13.2026 69.2609 15.4369 69.2609 18.493C69.2609 21.5178 71.464 23.7209 74.0935 23.7209C76.6879 23.7209 78.7266 21.5178 78.7266 18.493Z" fill="#4285F4"/>
<path d="M88.0434 1.17395V26.6087H84.326V1.17395H88.0434Z" fill="#34A853"/>
<path d="M102.53 21.3183L105.488 23.2904C104.533 24.703 102.232 27.1369 98.2565 27.1369C93.3261 27.1369 89.6439 23.3256 89.6439 18.4578C89.6439 13.2965 93.3574 9.77869 97.83 9.77869C102.334 9.77869 104.537 13.363 105.257 15.3L105.652 16.2861L94.05 21.0913C94.9383 22.8326 96.3196 23.7209 98.2565 23.7209C100.197 23.7209 101.543 22.7661 102.53 21.3183ZM93.4239 18.1956L101.18 14.9752C100.753 13.8913 99.4696 13.1361 97.9591 13.1361C96.0222 13.1361 93.3261 14.8461 93.4239 18.1956Z" fill="#EA4335"/>
<path d="M13.8091 16.204V12.5218H26.2174C26.3387 13.1635 26.4013 13.9227 26.4013 14.7444C26.4013 17.507 25.6461 20.9231 23.2122 23.357C20.8448 25.8222 17.82 27.137 13.813 27.137C6.38609 27.137 0.140869 21.0874 0.140869 13.6605C0.140869 6.23352 6.38609 0.18396 13.813 0.18396C17.9217 0.18396 20.8487 1.79613 23.0478 3.89744L20.4496 6.4957C18.8726 5.01657 16.7361 3.86613 13.8091 3.86613C8.38565 3.86613 4.14391 8.237 4.14391 13.6605C4.14391 19.084 8.38565 23.4548 13.8091 23.4548C17.327 23.4548 19.3304 22.0422 20.6139 20.7587C21.6548 19.7179 22.3396 18.2309 22.6096 16.2L13.8091 16.204Z" fill="#4285F4"/>
</svg>
