<?xml version="1.0" encoding="utf-8"?>
<!-- Generator: Adobe Illustrator 27.8.1, SVG Export Plug-In . SVG Version: 6.00 Build 0)  -->
<svg version="1.1" id="Layer_1" xmlns="http://www.w3.org/2000/svg" xmlns:xlink="http://www.w3.org/1999/xlink" x="0px" y="0px"
	 viewBox="0 0 967 230" style="enable-background:new 0 0 967 230;" xml:space="preserve">
<style type="text/css">
	.st0{fill-rule:evenodd;clip-rule:evenodd;}
</style>
<path class="st0" d="M283.5,147.1c6.3-8.7,9.9-19.1,9.9-30.7c0-11.8-3.6-22-9.9-30.3c-0.8-1.1-1-2.5-0.5-3.7l6.8-15.9
	c1-2.4-0.7-5-3.3-5l-49.3,0.4c-35.6,0.2-60.5,23.4-60.5,54.5c0,30.6,25.1,54.3,58.3,54.3c5.9,0,11.4-0.7,16.6-2.1
	c1.6-0.4,3.4,0.2,3.9,1.8c0.6,1.8,1,3.8,1,6c0,11.2-8.4,19.6-24.2,19.6c-13.4,0-23.4-5.9-32.6-15.7c-1.5-1.6-4.1-1.6-5.5,0.1
	l-16.1,19.3c-1.1,1.4-1.1,3.3,0.1,4.6c15.7,16.8,34.7,24.3,55.3,24.3c36.1,0,58.1-22.2,58.1-50.5c0-10.5-3.3-19.3-8.3-26.4
	C282.5,150.3,282.5,148.5,283.5,147.1z M235.1,138.1c-12.4,0-21.8-9.3-21.8-21.8c0-12.7,9.3-22,21.8-22c12.2,0,21.5,9.3,21.5,22
	C256.6,128.8,247.3,138.1,235.1,138.1z M346.4,68.1c-2.8,2.2-8.7,0.4-8.7-3.1c0-2-1.7-3.6-3.8-3.4l-31.8,3.3
	c-1.8,0.2-3.2,1.7-3.2,3.6v101.8c0,2,1.6,3.6,3.6,3.6h34c2,0,3.6-1.6,3.6-3.6v-43.8c0-20,10.1-28.8,27.7-29.8c2-0.1,3.6-1.7,3.6-3.7
	V64.3c0-2-1.6-3.6-3.6-3.5C358.8,61.3,351.8,63.7,346.4,68.1z M466.9,173.8c2,0,3.7-1.7,3.6-3.8l-0.8-15.4v-51.9
	c0-29.2-19.1-42.1-52.8-42.1c-8.9,0-18.6,0.8-29,3.3c-1.4,0.3-2.5,1.5-2.7,2.9l-2.9,19.7c-0.4,2.6,2.1,4.8,4.7,4.1
	c7-1.8,14-2.7,20.8-2.7c17.9,0,24.2,5.7,24.2,16.7c0,0.9-0.9,1.4-1.7,1.1c-7.8-3.7-15.6-5.6-22.9-5.6c-25.1,0-42.8,16.5-42.8,38.3
	c0,22.2,18.2,39,41.1,39c9.4,0,17.9-2.8,24.7-7.5c1.7-1.2,4.2-0.3,4.6,1.8c0.2,1.3,1.3,2.2,2.6,2.2L466.9,173.8L466.9,173.8z
	 M432.9,137c0,7.9-6.5,13.9-15.1,13.9c-8.4,0-14.8-6-14.8-13.9s6.5-13.9,14.8-13.9C426.5,123.1,432.9,129.1,432.9,137z M559,5.3
	c-1.8,0.2-3.2,1.7-3.2,3.6v54c0,3.1-3.9,4.9-6.5,3.2c-6.4-4-14-6.2-22.6-6.2c-29.2,0-53.6,25.6-53.6,58.6
	c0,32.8,24.2,58.3,53.6,58.3c10.7,0,19.7-3.3,26.9-9c2.4-1.9,6.4-0.3,6.4,2.7c0,1.8,1.4,3.2,3.2,3.2h30c2,0,3.6-1.6,3.6-3.6V5
	c0-2.1-1.9-3.8-4-3.6L559,5.3z M559.1,118.5c0,13.6-10.5,24.1-23.9,24.1c-13.6,0-23.9-10.5-23.9-24.1c0-13.9,10.3-24.4,23.9-24.4
	C548.6,94.2,559.1,104.7,559.1,118.5z M604.5,170.2c0,2,1.6,3.6,3.6,3.6h34c2,0,3.6-1.6,3.6-3.6V64.9c0-2.1-1.8-3.8-4-3.6l-34,3.6
	c-1.8,0.2-3.2,1.7-3.2,3.6L604.5,170.2L604.5,170.2z M748,134.2c-13.5,9.7-25.5,13.3-35.6,13.3c-7.2,0-13-1.9-17.6-5.1
	c-2.1-1.5-1.3-4.6,1.2-5.4l68.2-21.8c1.6-0.5,2.6-2,2.4-3.7c-3.9-33.1-27.8-51.9-56.9-51.9c-34.7,0-60.3,26.1-60.3,59.1
	c0,33.2,26.8,58.8,62.4,58.8c18.1,0,35.8-6.6,48.8-15.9c1.3-0.9,1.8-2.6,1.2-4.1l-8.3-21.6C752.8,133.5,750,132.7,748,134.2z
	 M685.4,108.4c3.5-11.6,12.6-19.3,24.9-19.3c6.4,0,12.1,2.4,16.2,6.4c1.7,1.7,0.7,4.3-1.5,5.1l-35.4,11.6
	C687.1,113,684.7,111,685.4,108.4z M883.5,105.4c0-27.3-13.6-45.4-40.4-45.4c-10.1,0-19.1,2.7-26.4,7.8c-2.5,1.7-6.4,0.1-6.4-2.9
	c0-2-1.7-3.5-3.7-3.3L773.3,65c-1.8,0.2-3.2,1.7-3.2,3.6v101.7c0,2,1.6,3.6,3.6,3.6h34c2,0,3.6-1.6,3.6-3.6v-58.8
	c0-10,6.5-16.7,15.8-16.7c9.1,0,15.3,6.2,15.3,16v59.5c0,2,1.6,3.6,3.6,3.6h34c2,0,3.6-1.6,3.6-3.6L883.5,105.4L883.5,105.4z
	 M962,95.3c2,0,3.6-1.6,3.6-3.6V66.6c0-2-1.6-3.6-3.6-3.6h-19.4c-2,0-3.6-1.6-3.6-3.6V30.2c0-2.6-2.7-4.4-5.1-3.2l-34,16.2
	c-1.2,0.6-2,1.9-2,3.2v13c0,2-1.6,3.6-3.6,3.6h-5.8c-2,0-3.6,1.6-3.6,3.6v25.1c0,2,1.6,3.6,3.6,3.6h5.8c2,0,3.6,1.6,3.6,3.6v33
	c0,26.5,13.9,43.5,43.8,43.5c8.2,0,15.7-1.3,21.6-3.2c1.4-0.5,2.3-1.8,2.3-3.3v-25.8c0-2.5-2.5-4.3-5-3.7c-2.6,0.6-5.4,0.9-8,0.9
	c-9.3,0-13.6-5-13.6-14.1V98.9c0-2,1.6-3.6,3.6-3.6H962z M112.9,179.1H46.5l-1.7-4.6v-0.1h69.9v0.1L112.9,179.1z M112.1,181.3H47.3
	l0.2,0.5c0.9,2.3,3,3.8,5.5,3.8h7.8h37.7h7.8c2.4,0,4.6-1.5,5.5-3.8L112.1,181.3z M115.7,171.6h-72l-2-5.3h75.9L115.7,171.6z
	 M119.2,162.3h-79l-2.4-6.5h83.8L119.2,162.3z M74.7,151H36l-2.9-7.7h36.6l1.6,4.2C71.9,149.2,73.2,150.4,74.7,151z M67.7,137.8
	H31.1l-3.4-9h36.6L67.7,137.8z M61.9,122.4H25.4l-3.6-9.6h36.6L61.9,122.4z M18.3,103.5h36.6l-3.6-9.6H14.7L18.3,103.5z M148.2,84.4
	H11.1l-4-10.6h145L148.2,84.4z M1.4,58.2l2.2,5.9h152.2l2.2-5.9c1.4-3.8-1.4-7.9-5.5-7.9h-16.2H23.1H6.9C2.8,50.3-0.1,54.4,1.4,58.2
	z M108.1,94h36.6l-3.6,9.6h-36.6L108.1,94z M101.1,112.8h36.6l-3.6,9.6H97.5L101.1,112.8z M95.1,128.8h36.6l-3.4,9H91.7L95.1,128.8z
	 M89.7,143.3h36.6l-2.9,7.7H84.7c1.5-0.6,2.8-1.8,3.4-3.4L89.7,143.3z M607.8,28.6c-2.1,0.3-3.7,2-3.7,4.1v19.2
	c0,2.5,2.1,4.4,4.6,4.2l32.7-3.3c2.1-0.2,3.8-2,3.8-4.2v-20c0-2.5-2.2-4.5-4.7-4.1L607.8,28.6z"/>
</svg>
