<svg width="580" height="120" viewBox="0 0 580 120" fill="none" xmlns="http://www.w3.org/2000/svg">
<path d="M85.925 29.565L47.45 19.25L19.28 47.45L29.58 85.95L68.055 96.26L96.23 68.07L85.93 29.57L85.925 29.565Z" fill="black"/>
<path d="M73.23 0L15.48 15.475L0 73.225L42.28 115.51L100.03 100.03L115.51 42.28L73.23 0ZM82.65 100.9H32.86L7.965 57.75L32.86 14.6H82.65L107.545 57.75L82.645 100.9H82.65Z" fill="black"/>
<mask id="mask0_375_87" style="mask-type:luminance" maskUnits="userSpaceOnUse" x="141" y="16" width="436" height="104">
<path d="M141.175 16.685H576.9V120H141.175V16.685Z" fill="white"/>
</mask>
<g mask="url(#mask0_375_87)">
<path fill-rule="evenodd" clip-rule="evenodd" d="M390.05 98.31V18.085H401.46V48.675H402.035C406.735 42.035 411.915 39.825 418.625 39.825C432.335 39.825 441.45 48.865 441.45 63.875V98.31H430.035V63.87C430.051 62.0605 429.708 60.2659 429.025 58.59C428.343 56.9126 427.333 55.3879 426.055 54.105C424.779 52.8263 423.261 51.8149 421.59 51.13C419.92 50.4444 418.13 50.0993 416.325 50.115C407.79 50.115 401.46 56.465 401.46 63.87V98.31H390.05ZM487.35 86.285V51.85H477.28V40.98H487.345V28.5L498.76 21.88V40.98H515.635V51.85H498.76V84.555C498.76 86.865 499.91 88.02 502.21 88.02H515.635L509.605 98.31H499.91C491.76 98.31 487.35 93.695 487.35 86.285ZM369.925 69.4C369.925 57.47 362.54 49.875 353.335 49.875C344.225 49.875 336.84 57.475 336.84 69.4C336.84 81.33 344.225 88.835 353.335 88.835C362.535 88.835 369.925 81.33 369.925 69.4ZM325.435 120V40.735H335.695L336.845 49.585H337.42C339.34 45.45 344.04 39.58 355.07 39.58C370.025 39.58 381.34 51.03 381.34 69.4C381.34 87.775 370.025 99.22 355.065 99.22C344.135 99.22 339.145 93.45 337.42 89.22H336.845V120H325.435ZM448.235 51.27H458.3V98.31H469.715V40.98H448.23L448.235 51.27Z" fill="black"/>
<path d="M469.715 18.085H457.155V30.11H469.715V18.085Z" fill="black"/>
<path fill-rule="evenodd" clip-rule="evenodd" d="M229.03 98.31V40.975H238.715L239.865 48.1H240.44C243.22 42.42 246 40.975 254.15 40.975H260.25V51.27H252.425C243.985 51.27 240.44 54.54 240.44 62.235V98.31H229.03ZM531.86 64.785H565.515C564.27 55.645 558.13 49.295 548.925 49.295C539.24 49.295 533.585 55.645 531.86 64.785ZM564.1 81.87L573.38 87.245C568.48 93.71 560.4 99.22 548.93 99.22C532.435 99.22 520.45 87.195 520.45 69.4C520.45 51.605 532.435 39.58 548.93 39.58C564.365 39.58 576.355 51.605 576.355 67.67C576.331 69.0525 576.234 70.4327 576.065 71.805L575.775 73.44H531.86C533.105 83.155 539.815 89.41 548.925 89.41C555.83 89.41 560.96 86.525 564.1 81.87ZM300.485 73.97V71.66H286.87C278.145 71.66 274.31 75.605 274.31 80.8C274.31 86 277.665 89.36 284.57 89.36C294.925 89.36 300.485 83.685 300.485 73.97ZM310.935 98.02C302.985 98.02 301.445 92.535 301.065 89.745H300.485C297.035 96.67 289.65 99.175 283.42 99.175C270.86 99.175 262.805 91.765 262.805 81.375C262.805 69.925 270.285 62.425 286.295 62.425H300.485V61.365C300.485 53.865 295.98 49.355 288.5 49.245C285.841 49.2499 283.236 49.9887 280.97 51.38C278.703 52.7723 276.862 54.7615 275.65 57.13L265.935 51.515C269.855 44.385 277.295 39.53 288.505 39.53C303.465 39.53 311.995 47.995 311.995 61.37V85.57C311.996 86.1403 312.223 86.6869 312.626 87.0906C313.029 87.4943 313.575 87.7224 314.145 87.725H318.71V98.02H310.935ZM215.97 56.22V98.07H206.285L205.135 85.85H204.56C199 94.605 189.985 99.22 179.435 99.22C158.435 99.22 141.175 82.58 141.175 57.955C141.175 33.325 158.435 16.685 179.435 16.685C196.425 16.685 207.625 26.885 213.55 38.115L203.705 43.825C198.175 34.31 189.795 28.135 179.435 28.135C164.475 28.135 153.16 39.585 153.16 57.955C153.16 76.23 164.475 87.775 179.435 87.775C193.145 87.775 203.985 77 203.985 66.515V65.94H182.825L177.25 56.22H215.97Z" fill="black"/>
</g>
</svg>
