<svg width="91" height="35" viewBox="0 0 91 35" fill="none" xmlns="http://www.w3.org/2000/svg">
<g clip-path="url(#clip0_2554_980)">
<mask id="mask0_2554_980" style="mask-type:luminance" maskUnits="userSpaceOnUse" x="0" y="0" width="91" height="35">
<path d="M0 0H91V35H0V0Z" fill="white"/>
</mask>
<g mask="url(#mask0_2554_980)">
<path d="M54.4995 0.0573871C48.2124 0.0573871 43.1041 5.41992 43.1041 12.0456C43.1041 18.6712 48.2015 24.0338 54.4995 24.0338C60.7976 24.0338 65.895 18.6712 65.895 12.0456C65.8841 5.4314 60.7867 0.06887 54.4995 0.0573871ZM54.4995 19.5325C50.5701 19.5325 47.3828 16.1794 47.3828 12.0456C47.3828 7.91172 50.5701 4.5587 54.4995 4.5587C58.429 4.5587 61.6162 7.91172 61.6162 12.0456C61.6162 16.1794 58.429 19.5325 54.4995 19.5325ZM38.7707 0.103319C38.3778 0.0573871 37.9958 0.0344212 37.6028 0.0344212C37.4063 0.0344212 37.2208 0.0344212 37.0352 0.0459042C36.8497 0.0573871 36.6532 0.06887 36.4676 0.080353C35.7036 0.137768 34.9395 0.275563 34.1973 0.493739C32.68 0.918608 31.2502 1.67648 30.0167 2.69846C28.7506 3.75489 27.7464 5.10988 27.0587 6.64859C26.7204 7.41795 26.4693 8.23324 26.3056 9.06001C26.2292 9.4734 26.1746 9.88678 26.1309 10.3002C26.12 10.5069 26.0982 10.7136 26.0982 10.9202L26.0873 11.2303V11.5174L26.1091 19.5439L26.1309 23.5515H30.3988L30.4206 19.5439L30.4424 11.5174V11.0925C30.4424 10.9662 30.4643 10.8399 30.4643 10.7136C30.4861 10.4609 30.5298 10.2198 30.5734 9.96716C30.6717 9.48488 30.8136 9.01408 31.01 8.56624C31.403 7.67058 31.9924 6.88974 32.7237 6.26966C33.4878 5.62661 34.3719 5.15581 35.3106 4.8917C35.7909 4.75391 36.293 4.66205 36.7951 4.61611C36.9261 4.60463 37.0461 4.59315 37.1771 4.59315C37.3081 4.59315 37.4391 4.58167 37.5591 4.58167C37.7993 4.58167 38.0503 4.59315 38.2905 4.61611C39.2619 4.71946 40.2006 5.0295 41.0629 5.53475L43.1914 1.64203C41.8379 0.815261 40.3316 0.287046 38.7707 0.103319ZM11.4937 -2.76044e-05C5.2065 -0.0574423 0.0545256 5.25916 -5.03812e-05 11.8733C-0.0546264 18.4875 4.99911 23.9075 11.2863 23.9649H15.2376V19.475H11.4937C7.56418 19.521 4.33328 16.2139 4.28962 12.0685C4.24596 7.9232 7.38954 4.53573 11.3299 4.4898H11.4937C15.4231 4.4898 18.6104 7.84282 18.6322 11.9767V23.0118C18.6322 27.1112 15.4559 30.4527 11.5701 30.4987C9.70356 30.4872 7.92438 29.6949 6.61456 28.3054L3.59105 31.4862C5.68677 33.7024 8.52472 34.9655 11.4937 34.9885H11.6465C17.8572 34.8966 22.8455 29.5915 22.8782 23.0577V11.6781C22.7254 5.19026 17.6717 0.0114553 11.4937 -2.76044e-05ZM79.6481 0.0573871C73.361 0.0573871 68.2527 5.41992 68.2636 12.0456C68.2636 18.6597 73.361 24.0223 79.6481 24.0223H83.5449V19.5325H79.6481C75.7187 19.5325 72.5314 16.1794 72.5314 12.0456C72.5314 7.91172 75.7187 4.5587 79.6481 4.5587C83.3375 4.5587 86.4156 7.53278 86.743 11.4025H86.7321V34.4143H91V12.0456C91 5.4314 85.9244 0.0573871 79.6481 0.0573871Z" fill="black"/>
</g>
</g>
<defs>
<clipPath id="clip0_2554_980">
<rect width="91" height="35" fill="white"/>
</clipPath>
</defs>
</svg>
