<?xml version="1.0" encoding="UTF-8" standalone="no"?>
<!DOCTYPE svg PUBLIC "-//W3C//DTD SVG 1.1//EN" "http://www.w3.org/Graphics/SVG/1.1/DTD/svg11.dtd">
<svg xmlns="http://www.w3.org/2000/svg" version="1.1" viewBox="0 0 512 139" width="512.0pt" height="139.0pt">
<path d="M 0.00 0.00 L 512.00 0.00 L 512.00 139.00 L 0.00 139.00 L 0.00 0.00 Z" fill="#ffffff" />
<path d="M 109.25 31.46 C 107.81 50.18 96.27 67.52 78.73 74.72 C 72.48 77.58 66.00 78.01 59.24 78.37 C 73.43 82.05 87.90 76.96 99.02 68.04 C 103.90 64.31 107.46 59.55 111.04 54.64 C 108.47 68.01 98.21 79.94 85.26 84.24 C 77.72 86.54 69.30 86.75 61.75 84.38 C 56.00 82.61 51.02 79.12 48.55 73.49 C 47.18 70.49 47.55 67.60 47.72 64.42 C 51.49 65.08 55.19 65.59 59.01 65.00 C 79.82 62.22 98.32 49.21 109.25 31.46 Z" fill="#999999" />
<path d="M 426.85 43.12 C 427.42 51.99 426.96 60.95 426.83 69.84 C 428.75 66.00 430.83 62.59 435.06 61.05 C 442.71 58.26 451.18 62.39 454.31 69.77 C 457.99 78.39 457.08 90.41 450.43 97.42 C 443.89 104.20 432.22 104.19 426.17 96.75 C 425.28 98.99 424.30 101.13 422.89 103.10 C 422.40 86.08 422.82 69.00 422.67 51.97 C 422.56 50.27 422.58 48.75 421.12 47.59 C 419.48 47.49 417.83 47.45 416.18 47.46 C 419.35 45.42 423.25 44.44 426.85 43.12 Z" fill="#010101" />
<path d="M 136.81 44.92 C 143.71 44.37 150.88 44.57 157.79 44.81 C 155.04 46.40 150.26 45.87 149.95 49.97 C 149.59 57.00 149.91 64.09 149.82 71.14 C 159.87 71.00 169.85 70.69 179.90 71.16 C 179.89 64.12 180.09 57.06 179.84 50.03 C 179.56 45.95 174.70 46.19 171.85 44.91 C 178.72 44.42 186.14 44.45 193.01 44.92 C 190.86 45.77 188.30 46.03 186.37 47.28 C 184.70 48.59 184.97 51.08 184.86 52.98 C 184.89 66.33 184.88 79.68 184.87 93.03 C 184.99 95.27 184.80 97.64 187.05 98.90 C 188.98 99.69 191.04 100.14 192.99 100.90 C 186.12 101.29 178.87 101.26 172.00 100.92 C 174.92 99.43 179.09 99.89 179.79 95.91 C 180.15 88.37 179.83 80.75 179.94 73.19 C 169.89 73.18 159.85 73.17 149.80 73.18 C 149.94 80.73 149.55 88.37 150.00 95.89 C 150.70 100.00 154.84 99.30 157.78 100.93 C 150.94 101.27 143.71 101.27 136.88 100.89 C 140.31 99.40 144.71 99.86 144.86 94.97 C 144.95 82.66 145.11 70.29 144.94 58.00 C 144.84 54.98 145.31 51.63 144.50 48.70 C 143.40 46.11 139.18 45.99 136.81 44.92 Z" fill="#010101" />
<path d="M 357.20 44.93 C 355.19 45.71 353.00 46.10 351.07 47.04 C 348.90 48.31 349.18 50.79 349.06 52.95 C 349.23 66.65 348.93 80.36 349.16 94.05 C 349.23 96.23 349.68 98.29 352.09 98.86 C 355.67 99.33 359.38 99.00 363.00 99.10 C 366.92 99.00 370.62 99.60 373.80 96.82 C 377.39 93.82 377.25 89.88 379.74 86.25 C 379.25 91.23 378.35 96.17 377.70 101.14 C 363.87 100.98 349.97 101.44 336.15 100.91 C 338.21 100.04 340.62 99.71 342.54 98.58 C 344.33 97.27 344.22 95.03 344.31 93.03 C 344.30 79.68 344.27 66.33 344.32 52.98 C 344.23 50.86 344.46 48.79 342.64 47.31 C 340.78 46.02 338.23 46.02 336.27 44.78 C 343.17 44.59 350.32 44.32 357.20 44.93 Z" fill="#010101" />
<path d="M 45.36 50.59 C 47.06 52.80 47.85 55.32 48.64 57.94 C 44.06 62.79 40.49 68.06 40.71 75.02 C 40.96 83.62 47.24 90.59 54.43 94.58 C 63.88 99.76 74.93 102.27 85.63 102.82 C 74.30 99.79 63.95 95.76 56.51 86.20 C 61.49 88.36 66.13 91.03 71.34 92.65 C 81.15 95.81 91.66 98.54 101.99 98.93 C 107.15 99.28 112.21 98.71 117.34 98.29 C 101.36 105.14 82.95 106.75 65.78 105.03 C 56.93 104.02 47.50 102.23 40.19 96.80 C 33.04 91.64 28.32 83.32 27.61 74.53 C 27.10 68.32 27.95 62.14 24.39 56.62 C 22.00 52.91 18.39 51.51 14.44 49.99 C 19.27 49.54 23.47 47.75 27.83 45.80 C 33.93 43.01 41.47 45.22 45.36 50.59 Z" fill="#999999" />
<path d="M 238.42 46.36 C 240.74 44.84 243.99 46.12 244.38 48.91 C 244.84 51.84 241.93 54.05 239.18 52.96 C 236.22 51.82 235.80 48.16 238.42 46.36 Z" fill="#010101" />
<path d="M 32.21 50.10 C 32.79 49.59 33.60 49.70 34.62 50.42 C 36.45 52.37 34.44 54.90 32.13 54.03 C 30.37 53.65 30.42 50.71 32.21 50.10 Z" fill="#ffffff" />
<path d="M 216.79 61.09 C 221.99 62.98 224.46 67.96 224.72 73.24 C 224.94 80.84 224.65 88.46 224.80 96.06 C 224.66 97.97 225.64 98.70 226.74 100.06 C 228.31 98.95 229.87 97.82 231.47 96.75 C 230.04 99.97 227.20 103.90 223.18 101.87 C 219.44 100.06 220.66 95.50 220.30 92.17 C 218.63 95.32 217.39 98.31 214.33 100.36 C 210.48 103.02 205.37 103.16 201.45 100.54 C 194.96 96.45 195.82 85.01 202.46 81.45 C 207.79 78.21 214.36 78.41 220.38 77.83 C 220.28 73.78 220.65 70.21 218.35 66.64 C 215.57 61.68 207.64 60.94 203.57 64.56 C 200.75 67.27 202.35 70.35 201.77 73.73 C 201.02 75.25 198.81 74.53 197.46 74.60 C 197.34 71.95 196.77 69.61 198.24 67.21 C 201.54 60.97 210.50 58.77 216.79 61.09 Z" fill="#010101" />
<path d="M 242.73 59.84 C 243.08 71.85 242.60 83.93 242.97 95.92 C 242.96 99.56 247.15 99.64 249.61 100.95 C 243.73 101.27 237.75 101.22 231.88 100.96 C 234.49 99.68 238.34 99.55 238.53 95.88 C 238.66 85.79 238.59 75.66 238.54 65.57 C 236.51 63.90 234.48 64.27 232.01 64.09 C 235.38 62.26 239.16 61.32 242.73 59.84 Z" fill="#010101" />
<path d="M 310.06 61.98 C 315.26 65.36 316.82 71.00 316.53 76.95 C 307.63 77.10 298.72 76.97 289.82 77.08 C 289.77 82.86 290.18 88.36 293.89 93.07 C 297.24 97.50 303.55 99.43 308.81 97.79 C 312.77 96.32 314.26 93.16 316.32 89.78 C 316.80 92.86 314.60 96.40 312.55 98.54 C 305.50 105.53 292.45 102.36 288.02 93.92 C 283.87 86.32 284.23 75.23 288.96 67.96 C 293.18 61.10 302.90 57.88 310.06 61.98 Z" fill="#010101" />
<path d="M 404.40 61.68 C 408.58 63.88 410.69 68.35 410.86 72.94 C 411.05 80.66 410.78 88.39 410.94 96.11 C 410.81 97.94 411.91 98.73 412.90 100.08 C 414.48 98.96 416.04 97.83 417.62 96.72 C 416.46 99.03 415.61 101.14 413.02 102.14 C 410.44 103.13 407.81 101.45 406.98 98.98 C 406.38 96.75 406.66 94.26 406.59 91.97 C 404.94 95.17 403.56 98.43 400.43 100.47 C 396.38 103.25 390.79 103.10 386.96 100.00 C 381.21 95.58 382.33 85.08 388.52 81.53 C 394.05 78.17 400.42 78.37 406.66 77.83 C 406.53 73.86 406.74 70.01 404.50 66.52 C 401.58 61.62 393.70 60.94 389.66 64.71 C 387.00 67.45 388.63 70.48 387.90 73.81 C 386.73 75.44 383.63 75.05 383.34 72.81 C 382.66 68.19 386.04 63.86 390.02 61.92 C 394.36 59.84 400.04 59.44 404.40 61.68 Z" fill="#010101" />
<path d="M 482.61 63.10 C 483.04 61.88 483.47 60.66 483.90 59.44 C 485.18 63.65 485.75 68.19 486.17 72.56 C 484.30 69.98 482.65 66.76 480.15 64.79 C 476.43 62.02 470.93 61.33 466.97 64.00 C 463.72 66.55 463.29 71.67 466.64 74.35 C 470.56 77.33 476.11 78.18 480.48 80.52 C 484.24 82.43 487.36 85.46 487.40 89.95 C 487.93 95.68 484.31 100.37 478.83 101.75 C 473.38 103.31 468.98 101.33 464.05 99.32 C 463.43 100.53 462.80 101.73 462.17 102.94 C 461.41 98.42 460.64 93.90 459.98 89.36 C 460.37 89.67 460.76 89.97 461.15 90.28 C 463.20 94.47 465.87 98.08 470.47 99.60 C 474.47 100.62 479.23 100.46 482.07 97.05 C 484.71 93.65 484.03 88.91 480.60 86.34 C 475.56 82.72 467.32 81.69 462.91 77.10 C 458.23 72.05 460.60 63.19 467.21 61.14 C 472.97 58.83 477.31 61.11 482.61 63.10 Z" fill="#010101" />
<path d="M 266.00 61.30 C 271.47 61.25 276.91 61.67 282.38 61.45 C 274.16 74.20 265.18 86.49 256.74 99.10 C 262.69 98.84 268.94 99.61 274.80 98.66 C 279.29 97.15 279.88 91.20 282.04 87.52 C 281.90 92.17 280.98 96.59 280.18 101.15 C 270.28 101.10 260.38 101.18 250.48 101.09 C 258.64 88.38 267.50 76.08 276.03 63.62 C 270.40 63.72 264.63 63.25 259.03 63.81 C 254.65 64.96 254.07 70.26 251.94 73.61 C 252.00 69.52 252.35 65.43 252.78 61.37 C 257.20 61.67 261.58 61.26 266.00 61.30 Z" fill="#010101" />
<path d="M 308.69 65.30 C 311.36 68.18 311.80 71.62 312.02 75.38 C 304.66 75.41 297.29 75.46 289.93 75.35 C 290.81 71.89 291.45 68.63 293.86 65.85 C 297.34 61.53 304.95 61.07 308.69 65.30 Z" fill="#ffffff" />
<path d="M 436.95 63.01 C 441.26 62.63 445.17 64.95 447.59 68.40 C 450.50 72.47 451.45 78.11 451.70 83.01 C 451.63 87.79 450.54 93.52 447.00 97.00 C 442.35 101.91 433.21 101.11 429.44 95.49 C 426.19 91.12 427.09 86.13 426.94 81.00 C 427.10 77.36 426.31 72.58 428.28 69.39 C 430.08 66.18 433.10 63.24 436.95 63.01 Z" fill="#ffffff" />
<path d="M 406.57 79.73 C 406.50 83.21 406.92 86.89 406.33 90.32 C 405.10 93.34 402.79 96.31 399.88 97.88 C 397.02 99.42 393.51 99.04 390.97 97.05 C 386.49 93.70 387.11 85.66 391.98 82.94 C 396.07 80.48 401.90 80.48 406.57 79.73 Z" fill="#ffffff" />
<path d="M 220.36 79.78 C 220.30 83.17 220.59 86.63 220.21 89.99 C 218.29 95.28 212.84 100.76 206.75 98.18 C 200.63 95.88 200.10 86.73 205.30 83.25 C 209.40 80.50 215.60 80.47 220.36 79.78 Z" fill="#ffffff" />
</svg>