<svg width="145" height="44" viewBox="0 0 145 44" fill="none" xmlns="http://www.w3.org/2000/svg">
<g clip-path="url(#clip0_2060_648)">
<path d="M41.5687 14.9828C42.8236 11.0363 42.0687 3.16302 39.6373 0.256348C39.3187 -0.124935 38.7256 -0.0704662 38.4609 0.350432L35.4657 5.09915C34.7256 6.04988 33.3923 6.26775 32.3874 5.60422C29.1374 3.45517 25.255 2.20733 21.0834 2.20733C16.9119 2.20733 13.0296 3.45517 9.77957 5.60422C8.77957 6.26775 7.44624 6.04493 6.70114 5.09915L3.70605 0.350432C3.44134 -0.0704662 2.84821 -0.119984 2.52958 0.256348C0.0982196 3.16797 -0.65668 11.0412 0.598218 14.9828C1.01488 16.2951 1.12763 17.6815 0.882531 19.0284C0.637434 20.3654 0.392336 21.9796 0.392336 23.1037C0.392336 34.6462 9.65702 44 21.0785 44C32.505 44 41.7648 34.6412 41.7648 23.1037C41.7648 21.9796 41.5197 20.3654 41.2745 19.0284C41.0344 17.6815 41.152 16.2951 41.5687 14.9828ZM21.0785 39.3354C12.2452 39.3354 5.06389 32.0762 5.06389 23.1531C5.06389 22.861 5.0737 22.5739 5.0884 22.2866C5.40703 16.2059 9.06388 11.0115 14.2354 8.53565C16.3089 7.53541 18.6325 6.98081 21.0834 6.98081C23.5344 6.98081 25.853 7.53541 27.9314 8.54061C33.1031 11.0165 36.7599 16.2159 37.0786 22.2916C37.0933 22.5788 37.103 22.871 37.103 23.1581C37.0981 32.0762 29.9119 39.3354 21.0785 39.3354Z" fill="#3970FD"/>
<path d="M28.0179 29.3839L23.9247 22.2137L20.4149 16.237C20.3317 16.0935 20.1796 16.0093 20.0179 16.0093H16.665C16.4984 16.0093 16.3463 16.0983 16.2631 16.2469C16.1797 16.3906 16.1846 16.5688 16.2679 16.7124L19.6257 22.4119L15.1208 29.3541C15.0277 29.4978 15.0228 29.681 15.1012 29.8296C15.1796 29.9781 15.3365 30.0721 15.5081 30.0721H18.8856C19.0424 30.0721 19.1895 29.9929 19.2728 29.8592L21.7091 26.0167L23.8953 29.8444C23.9787 29.988 24.1306 30.0771 24.2924 30.0771H27.6209C27.7875 30.0771 27.9395 29.988 28.0179 29.8444C28.1013 29.7058 28.1013 29.5275 28.0179 29.3839Z" fill="#3970FD"/>
<path d="M59.5277 10.9989H63.8055V34.4607H59.5277V24.4639H54.6948V34.4657H50.417V10.9989H54.6948V21.1873H59.5277V10.9989Z" fill="#000615"/>
<path d="M77.0022 34.4663L76.1083 29.5932H70.9759L70.1556 34.4663H65.8778L70.5977 11.0045H76.3588L81.3046 34.4663H77.0022ZM71.5357 26.3559H75.514L73.4709 15.126L71.5357 26.3559Z" fill="#000615"/>
<path d="M90.8329 30.1876V25.1671C90.8329 24.7692 90.7591 24.5039 90.6119 24.3664C90.4645 24.2288 90.1895 24.16 89.7916 24.16H86.781C84.227 24.16 82.9501 22.9221 82.9501 20.4413V14.6839C82.9501 12.2277 84.2859 11.0045 86.9626 11.0045H91.0538C93.7306 11.0045 95.0665 12.2326 95.0665 14.6839V17.9556H90.7543V15.2783C90.7543 14.8804 90.6806 14.6152 90.5332 14.4776C90.386 14.3401 90.1108 14.2713 89.7131 14.2713H88.2986C87.8762 14.2713 87.5914 14.3401 87.444 14.4776C87.2967 14.6152 87.2229 14.8804 87.2229 15.2783V19.9991C87.2229 20.3971 87.2967 20.6624 87.444 20.7999C87.5914 20.9375 87.8762 21.0063 88.2986 21.0063H91.2356C93.8387 21.0063 95.1401 22.2196 95.1401 24.6513V30.7869C95.1401 33.2431 93.7896 34.4663 91.0882 34.4663H87.0707C84.3694 34.4663 83.0188 33.2383 83.0188 30.7869V27.5497H87.2917V30.1876C87.2917 30.5855 87.3654 30.8508 87.5128 30.9884C87.66 31.1259 87.945 31.1946 88.3673 31.1946H89.7818C90.1796 31.1946 90.4498 31.1259 90.602 30.9884C90.7543 30.8508 90.8329 30.5855 90.8329 30.1876Z" fill="#000615"/>
<path d="M106.555 10.9989H110.828V30.7813C110.828 33.2375 109.477 34.4607 106.776 34.4607H102.243C99.5415 34.4607 98.1909 33.2327 98.1909 30.7813V10.9989H102.469V30.1869C102.469 30.5848 102.542 30.8501 102.69 30.9876C102.837 31.1252 103.112 31.194 103.51 31.194H105.479C105.902 31.194 106.187 31.1252 106.334 30.9876C106.481 30.8501 106.555 30.5848 106.555 30.1869V10.9989Z" fill="#000615"/>
<path d="M118.637 25.3187V34.4657H114.364V10.9989H122.988C125.689 10.9989 127.04 12.2271 127.04 14.6783V21.6344C127.04 23.6681 126.136 24.8569 124.324 25.2057L128.229 34.4657H123.617L120.046 25.3187H118.637ZM118.637 14.2706V22.1551H121.721C122.119 22.1551 122.388 22.0863 122.541 21.9487C122.688 21.8112 122.762 21.5459 122.762 21.1481V15.2776C122.762 14.8798 122.688 14.6145 122.541 14.477C122.394 14.3394 122.119 14.2706 121.721 14.2706H118.637Z" fill="#000615"/>
<path d="M139.978 34.4663L139.084 29.5932H133.951L133.131 34.4663H128.859L133.578 11.0045H139.339L144.285 34.4663H139.978ZM134.516 26.3559H138.495L136.451 15.126L134.516 26.3559Z" fill="#000615"/>
</g>
<defs>
<clipPath id="clip0_2060_648">
<rect width="144.737" height="44" fill="white"/>
</clipPath>
</defs>
</svg>
