<svg width="395" height="120" viewBox="0 0 395 120" fill="none" xmlns="http://www.w3.org/2000/svg">
<path d="M113.445 40.8622C116.869 30.0989 114.809 8.62642 108.174 0.699132C107.304 -0.340731 105.686 -0.192181 104.963 0.955724L96.7892 13.9068C94.7693 16.4997 91.1306 17.0939 88.388 15.2842C79.5186 9.42319 68.9231 6.01999 57.5385 6.01999C46.154 6.01999 35.5588 9.42319 26.6893 15.2842C23.9603 17.0939 20.3215 16.4862 18.288 13.9068L10.1141 0.955724C9.39174 -0.192181 7.77303 -0.327228 6.90346 0.699132C0.26805 8.6399 -1.79214 30.1125 1.63259 40.8622C2.76971 44.4411 3.0774 48.2223 2.40851 51.8956C1.73961 55.542 1.07072 59.9444 1.07072 63.0101C1.07072 94.4896 26.3549 120 57.5253 120C88.7091 120 113.98 94.476 113.98 63.0101C113.98 59.9444 113.311 55.542 112.642 51.8956C111.987 48.2223 112.308 44.4411 113.445 40.8622ZM57.5253 107.278C33.4183 107.278 13.8198 87.4806 13.8198 63.1449C13.8198 62.3482 13.8466 61.5651 13.8867 60.7816C14.7563 44.1979 24.7362 30.0314 38.8497 23.2791C44.5086 20.5511 50.8498 19.0386 57.5385 19.0386C64.2276 19.0386 70.5552 20.5511 76.2274 23.2926C90.3412 30.0449 100.321 44.2251 101.191 60.7952C101.231 61.5786 101.257 62.3754 101.257 63.1585C101.244 87.4806 81.6323 107.278 57.5253 107.278Z" fill="#000615"/>
<path d="M76.4634 80.1378L65.2928 60.5829L55.7142 44.2828C55.487 43.8912 55.0721 43.6616 54.6307 43.6616H45.4803C45.0255 43.6616 44.6106 43.9045 44.3834 44.3096C44.1559 44.7015 44.1692 45.1875 44.3967 45.5791L53.5604 61.1232L41.2661 80.0567C41.012 80.4486 40.9987 80.9481 41.2127 81.3533C41.4266 81.7585 41.8548 82.0149 42.3231 82.0149H51.5405C51.9684 82.0149 52.37 81.7989 52.5972 81.4341L59.2462 70.9547L65.2126 81.3937C65.4401 81.7853 65.8547 82.0285 66.2961 82.0285H75.3799C75.8346 82.0285 76.2495 81.7853 76.4634 81.3937C76.6909 81.0157 76.6909 80.5294 76.4634 80.1378Z" fill="#000615"/>
<path d="M162.457 29.9971H174.131V93.9838H162.457V66.7198H149.267V93.9974H137.593V29.9971H149.267V57.7836H162.457V29.9971Z" fill="#000615"/>
<path d="M210.146 93.999L207.706 80.7087H193.7L191.461 93.999H179.787L192.668 30.0122H208.39L221.888 93.999H210.146ZM195.228 71.8795H206.085L200.509 41.2527L195.228 71.8795Z" fill="#000615"/>
<path d="M247.891 82.3297V68.6373C247.891 67.5523 247.69 66.8288 247.288 66.4536C246.886 66.0785 246.135 65.8909 245.049 65.8909H236.833C229.863 65.8909 226.378 62.5148 226.378 55.749V40.047C226.378 33.3482 230.024 30.0122 237.329 30.0122H248.494C255.799 30.0122 259.445 33.3614 259.445 40.047V48.9697H247.677V41.668C247.677 40.5829 247.476 39.8594 247.073 39.4843C246.671 39.1091 245.921 38.9215 244.835 38.9215H240.975C239.822 38.9215 239.045 39.1091 238.643 39.4843C238.241 39.8594 238.039 40.5829 238.039 41.668V54.543C238.039 55.6284 238.241 56.3519 238.643 56.727C239.045 57.1022 239.822 57.2898 240.975 57.2898H248.99C256.094 57.2898 259.646 60.5989 259.646 67.2308V83.9642C259.646 90.663 255.96 93.999 248.588 93.999H237.624C230.252 93.999 226.566 90.6498 226.566 83.9642V75.1353H238.227V82.3297C238.227 83.415 238.428 84.1385 238.83 84.5136C239.232 84.8888 240.01 85.0761 241.162 85.0761H245.023C246.108 85.0761 246.846 84.8888 247.261 84.5136C247.677 84.1385 247.891 83.415 247.891 82.3297Z" fill="#000615"/>
<path d="M290.798 29.9971H302.46V83.949C302.46 90.6479 298.774 93.9839 291.402 93.9839H279.03C271.658 93.9839 267.972 90.6346 267.972 83.949V29.9971H279.647V82.3281C279.647 83.4131 279.848 84.1366 280.25 84.5117C280.652 84.8869 281.402 85.0745 282.488 85.0745H287.863C289.016 85.0745 289.793 84.8869 290.195 84.5117C290.597 84.1366 290.798 83.4131 290.798 82.3281V29.9971Z" fill="#000615"/>
<path d="M323.77 69.051V93.9974H312.109V29.9971H335.646C343.018 29.9971 346.703 33.3466 346.703 40.0318V59.0029C346.703 64.5494 344.238 67.7916 339.292 68.7428L349.948 93.9974H337.362L327.616 69.051H323.77ZM323.77 38.92V60.423H332.189C333.273 60.423 334.009 60.2354 334.426 59.8603C334.827 59.4851 335.03 58.7616 335.03 57.6766V41.6664C335.03 40.5813 334.827 39.8579 334.426 39.4827C334.025 39.1075 333.273 38.92 332.189 38.92H323.77Z" fill="#000615"/>
<path d="M382.012 93.999L379.573 80.7087H365.565L363.327 93.999H351.667L364.547 30.0122H380.268L393.768 93.999H382.012ZM367.107 71.8795H377.965L372.387 41.2527L367.107 71.8795Z" fill="#000615"/>
</svg>
