<svg width="447" height="136" viewBox="0 0 447 136" fill="none" xmlns="http://www.w3.org/2000/svg">
<g clip-path="url(#clip0_138_38)">
<path d="M129.186 46.3103C133.069 34.112 130.733 9.77654 123.21 0.792345C122.224 -0.386161 120.389 -0.217802 119.57 1.08315L110.303 15.7609C108.013 18.6995 103.887 19.3729 100.778 17.322C90.7218 10.6796 78.7096 6.82262 65.8022 6.82262C52.8947 6.82262 40.8825 10.6796 30.8266 17.322C27.7325 19.3729 23.6069 18.6842 21.3015 15.7609L12.0344 1.08315C11.2153 -0.217802 9.38009 -0.370856 8.39422 0.792345C0.871284 9.79184 -1.46447 34.1272 2.41835 46.3103C3.70755 50.3662 4.05641 54.6516 3.29803 58.8146C2.53967 62.9471 1.78132 67.9365 1.78132 71.4109C1.78132 107.088 30.4474 135.999 65.7869 135.999C101.142 135.999 129.793 107.072 129.793 71.4109C129.793 67.9365 129.034 62.9471 128.276 58.8146C127.533 54.6516 127.897 50.3662 129.186 46.3103ZM65.7869 121.582C38.4557 121.582 16.2357 99.144 16.2357 71.5639C16.2357 70.6608 16.266 69.7732 16.3115 68.8856C17.2974 50.0906 28.6122 34.0354 44.6134 26.3829C51.0294 23.2911 58.2186 21.5769 65.8022 21.5769C73.3857 21.5769 80.56 23.2911 86.9909 26.3981C102.992 34.0508 114.307 50.1212 115.293 68.9008C115.338 69.7886 115.369 70.6914 115.369 71.5793C115.354 99.144 93.1184 121.582 65.7869 121.582Z" fill="black"/>
<path d="M87.2595 90.8192L74.5949 68.6571L63.7351 50.1835C63.4773 49.7397 63.0072 49.4795 62.5066 49.4795H52.1321C51.6166 49.4795 51.1462 49.7551 50.8885 50.2141C50.6307 50.6582 50.6459 51.209 50.9037 51.653L61.2931 69.2693L47.3544 90.7272C47.0663 91.1712 47.0511 91.7374 47.2939 92.1966C47.5366 92.6556 48.022 92.9464 48.5527 92.9464H59.003C59.4883 92.9464 59.9433 92.7016 60.2013 92.2884L67.7392 80.4116L74.5039 92.2424C74.7617 92.6862 75.2318 92.9619 75.7324 92.9619H86.0308C86.5466 92.9619 87.0167 92.6862 87.2595 92.2424C87.5173 91.814 87.5173 91.263 87.2595 90.8192Z" fill="black"/>
<path d="M184.753 34H197.989V106.518H184.753V75.6189H169.8V106.533H156.563V34H169.8V65.4913H184.753V34Z" fill="black"/>
<path d="M238.821 106.533L236.055 91.4702H220.175L217.638 106.533H204.401L219.005 34.0148H236.831L252.133 106.533H238.821ZM221.908 81.4643H234.217L227.895 46.7539L221.908 81.4643Z" fill="black"/>
<path d="M281.617 93.3076V77.7898C281.617 76.5599 281.388 75.7398 280.931 75.3148C280.475 74.8896 279.625 74.677 278.395 74.677H269.078C261.177 74.677 257.225 70.8506 257.225 63.1829V45.3873C257.225 37.7956 261.359 34.0148 269.641 34.0148H282.3C290.582 34.0148 294.716 37.8108 294.716 45.3873V55.4998H281.374V47.2247C281.374 45.9948 281.145 45.1747 280.689 44.7497C280.233 44.3245 279.382 44.1119 278.152 44.1119H273.775C272.468 44.1119 271.585 44.3245 271.132 44.7497C270.675 45.1747 270.446 45.9948 270.446 47.2247V61.8163C270.446 63.0462 270.675 63.8661 271.132 64.2913C271.585 64.7163 272.468 64.9289 273.775 64.9289H282.862C290.915 64.9289 294.943 68.6794 294.943 76.1954V95.1599C294.943 102.752 290.765 106.533 282.406 106.533H269.977C261.617 106.533 257.438 102.737 257.438 95.1599V85.1537H270.66V93.3076C270.66 94.5375 270.886 95.3573 271.343 95.7826C271.799 96.2076 272.681 96.4202 273.988 96.4202H278.363C279.595 96.4202 280.43 96.2076 280.902 95.7826C281.374 95.3573 281.617 94.5375 281.617 93.3076Z" fill="black"/>
<path d="M330.26 33.9995H343.482V95.1447C343.482 102.737 339.303 106.517 330.943 106.517H316.919C308.559 106.517 304.38 102.721 304.38 95.1447V33.9995H317.617V93.3075C317.617 94.5374 317.844 95.3573 318.3 95.7825C318.756 96.2075 319.607 96.4201 320.839 96.4201H326.932C328.239 96.4201 329.121 96.2075 329.578 95.7825C330.031 95.3573 330.26 94.5374 330.26 93.3075V33.9995Z" fill="black"/>
<path d="M367.645 78.2603V106.533H354.424V33.9995H381.11C389.467 33.9995 393.646 37.7953 393.646 45.3721V66.8723C393.646 73.1584 390.851 76.8329 385.242 77.911L397.324 106.533H383.055L372.007 78.2603H367.645ZM367.645 44.1118V68.4819H377.189C378.419 68.4819 379.256 68.2692 379.726 67.8442C380.182 67.419 380.411 66.5992 380.411 65.3693V47.2246C380.411 45.9947 380.182 45.1746 379.726 44.7496C379.27 44.3244 378.419 44.1118 377.189 44.1118H367.645Z" fill="black"/>
<path d="M433.672 106.533L430.906 91.4702H415.027L412.488 106.533H399.269L413.872 34.0148H431.698L447 106.533H433.672ZM416.774 81.4643H429.084L422.762 46.7539L416.774 81.4643Z" fill="black"/>
</g>
<defs>
<clipPath id="clip0_138_38">
<rect width="447" height="136" fill="white"/>
</clipPath>
</defs>
</svg>
