<svg width="79" height="32" viewBox="0 0 79 32" fill="none" xmlns="http://www.w3.org/2000/svg">
<g clip-path="url(#clip0_125_509)">
<path fill-rule="evenodd" clip-rule="evenodd" d="M13.9978 0V10.6395H11.3128V0H0.56665V10.6469V10.6768V21.3232V32H11.3128V15.9632H13.9978V32H24.7477V0H13.9978ZM27.4178 0V32H51.5989V18.6544H40.8479V26.6011H38.1628V15.9632H51.5989V0H27.4178ZM38.1628 10.6395V5.33333H40.8479V10.6395H38.1628ZM67.6995 10.6395V0H78.4494V8L73.0793 13.3381L78.4494 18.6763V32H67.6995V15.9632H65.0145V32H54.2683V18.6763L59.6444 13.3381L54.2683 8V0H65.0145V10.6395H67.6995Z" fill="white"/>
</g>
<defs>
<clipPath id="clip0_125_509">
<rect width="77.8667" height="32" fill="white" transform="translate(0.56665)"/>
</clipPath>
</defs>
</svg>
