<?xml version="1.0" encoding="UTF-8"?>
<!DOCTYPE svg PUBLIC "-//W3C//DTD SVG 1.1//EN" "http://www.w3.org/Graphics/SVG/1.1/DTD/svg11.dtd">
<svg xmlns="http://www.w3.org/2000/svg" version="1.1" width="5064px" height="1034px" style="shape-rendering:geometricPrecision; text-rendering:geometricPrecision; image-rendering:optimizeQuality; fill-rule:evenodd; clip-rule:evenodd" xmlns:xlink="http://www.w3.org/1999/xlink">
<g><path style="opacity:0.972" fill="#d47927" d="M 237.5,-0.5 C 242.833,-0.5 248.167,-0.5 253.5,-0.5C 253.5,0.833333 254.167,1.5 255.5,1.5C 255.5,2.83333 256.167,3.5 257.5,3.5C 296.167,25.5 334.833,47.5 373.5,69.5C 373.5,70.8333 374.167,71.5 375.5,71.5C 404.833,88.1667 434.167,104.833 463.5,121.5C 463.5,122.833 464.167,123.5 465.5,123.5C 472.386,126.709 479.053,130.375 485.5,134.5C 488.265,137.042 490.265,140.042 491.5,143.5C 489.502,234.494 488.836,325.827 489.5,417.5C 489.5,418.833 489.5,420.167 489.5,421.5C 426.222,458.477 362.888,495.477 299.5,532.5C 285.174,539.994 271.174,547.994 257.5,556.5C 253.719,558.725 249.719,560.391 245.5,561.5C 235.573,556.536 225.573,551.536 215.5,546.5C 145.5,505.833 75.5,465.167 5.5,424.5C 3.73894,423.083 2.4056,421.417 1.5,419.5C 2.16421,327.161 1.49755,235.161 -0.5,143.5C -0.5,142.167 -0.5,140.833 -0.5,139.5C 0.833333,139.5 1.5,138.833 1.5,137.5C 2.83333,137.5 3.5,136.833 3.5,135.5C 6.16667,134.167 8.83333,132.833 11.5,131.5C 12.8333,131.5 13.5,130.833 13.5,129.5C 33.5,118.167 53.5,106.833 73.5,95.5C 74.8333,95.5 75.5,94.8333 75.5,93.5C 99.8418,78.9938 124.509,64.9938 149.5,51.5C 150.833,51.5 151.5,50.8333 151.5,49.5C 168.167,40.1667 184.833,30.8333 201.5,21.5C 202.833,21.5 203.5,20.8333 203.5,19.5C 215.234,13.3078 226.567,6.64117 237.5,-0.5 Z M 283.5,49.5 C 279.23,52.6418 274.563,55.3085 269.5,57.5C 268.167,57.5 267.5,58.1667 267.5,59.5C 248.167,70.1667 228.833,80.8333 209.5,91.5C 208.167,91.5 207.5,92.1667 207.5,93.5C 188.167,104.167 168.833,114.833 149.5,125.5C 148.167,125.5 147.5,126.167 147.5,127.5C 143.5,129.5 139.5,131.5 135.5,133.5C 134.167,133.5 133.5,134.167 133.5,135.5C 114.167,146.167 94.8333,156.833 75.5,167.5C 74.1667,167.5 73.5,168.167 73.5,169.5C 58.8333,177.5 44.1667,185.5 29.5,193.5C 28.1667,193.5 27.5,194.167 27.5,195.5C 26.1667,196.167 24.8333,196.833 23.5,197.5C 23.5,182.833 23.5,168.167 23.5,153.5C 30.7271,149.886 38.0604,146.22 45.5,142.5C 110.833,104.5 176.167,66.5 241.5,28.5C 243.5,27.1667 245.5,27.1667 247.5,28.5C 259.954,35.0485 271.954,42.0485 283.5,49.5 Z M 335.5,79.5 C 332.657,79.9172 329.99,80.9172 327.5,82.5C 294.437,102.03 261.104,121.03 227.5,139.5C 226.167,139.5 225.5,140.167 225.5,141.5C 221.5,143.5 217.5,145.5 213.5,147.5C 212.167,147.5 211.5,148.167 211.5,149.5C 203.152,154.675 194.485,159.342 185.5,163.5C 184.167,163.5 183.5,164.167 183.5,165.5C 179.5,167.5 175.5,169.5 171.5,171.5C 170.167,171.5 169.5,172.167 169.5,173.5C 131.5,194.833 93.5,216.167 55.5,237.5C 54.1667,237.5 53.5,238.167 53.5,239.5C 43.5,244.833 33.5,250.167 23.5,255.5C 23.5,240.833 23.5,226.167 23.5,211.5C 113.722,160.956 203.722,109.956 293.5,58.5C 295.5,57.1667 297.5,57.1667 299.5,58.5C 311.954,65.0485 323.954,72.0485 335.5,79.5 Z M 387.5,109.5 C 384.657,109.917 381.99,110.917 379.5,112.5C 357.722,125.29 335.722,137.623 313.5,149.5C 312.167,149.5 311.5,150.167 311.5,151.5C 301.5,156.833 291.5,162.167 281.5,167.5C 280.167,167.5 279.5,168.167 279.5,169.5C 269.5,174.833 259.5,180.167 249.5,185.5C 248.167,185.5 247.5,186.167 247.5,187.5C 237.5,192.833 227.5,198.167 217.5,203.5C 216.167,203.5 215.5,204.167 215.5,205.5C 188.833,220.167 162.167,234.833 135.5,249.5C 134.167,249.5 133.5,250.167 133.5,251.5C 106.833,266.167 80.1667,280.833 53.5,295.5C 52.1667,295.5 51.5,296.167 51.5,297.5C 42.1331,302.225 32.7997,306.892 23.5,311.5C 23.5,297.5 23.5,283.5 23.5,269.5C 32.0604,265.22 40.7271,260.886 49.5,256.5C 147.174,199.994 245.174,143.994 343.5,88.5C 346.167,87.1667 348.833,87.1667 351.5,88.5C 363.954,95.0485 375.954,102.049 387.5,109.5 Z M 435.5,137.5 C 428.167,141.5 420.833,145.5 413.5,149.5C 412.167,149.5 411.5,150.167 411.5,151.5C 387.5,164.833 363.5,178.167 339.5,191.5C 338.167,191.5 337.5,192.167 337.5,193.5C 318.167,204.167 298.833,214.833 279.5,225.5C 278.167,225.5 277.5,226.167 277.5,227.5C 262.833,235.5 248.167,243.5 233.5,251.5C 232.167,251.5 231.5,252.167 231.5,253.5C 212.167,264.167 192.833,274.833 173.5,285.5C 172.167,285.5 171.5,286.167 171.5,287.5C 156.833,295.5 142.167,303.5 127.5,311.5C 126.167,311.5 125.5,312.167 125.5,313.5C 106.167,324.167 86.8333,334.833 67.5,345.5C 66.1667,345.5 65.5,346.167 65.5,347.5C 55.2776,352.711 45.2776,358.377 35.5,364.5C 31.6864,366.744 27.6864,368.411 23.5,369.5C 23.5,355.5 23.5,341.5 23.5,327.5C 148.95,256.604 274.617,185.937 400.5,115.5C 401.5,116.5 402.5,117.5 403.5,118.5C 412.167,123.167 420.833,127.833 429.5,132.5C 431.641,134.204 433.641,135.87 435.5,137.5 Z M 467.5,153.5 C 467.5,161.5 467.5,169.5 467.5,177.5C 462.22,180.14 456.886,182.807 451.5,185.5C 450.167,185.5 449.5,186.167 449.5,187.5C 445.5,189.5 441.5,191.5 437.5,193.5C 436.167,193.5 435.5,194.167 435.5,195.5C 346.167,246.167 256.833,296.833 167.5,347.5C 166.167,347.5 165.5,348.167 165.5,349.5C 152.167,356.833 138.833,364.167 125.5,371.5C 124.167,371.5 123.5,372.167 123.5,373.5C 119.5,375.5 115.5,377.5 111.5,379.5C 110.167,379.5 109.5,380.167 109.5,381.5C 105.5,383.5 101.5,385.5 97.5,387.5C 96.1667,387.5 95.5,388.167 95.5,389.5C 91.5,391.5 87.5,393.5 83.5,395.5C 82.1667,395.5 81.5,396.167 81.5,397.5C 77.5,399.5 73.5,401.5 69.5,403.5C 68.1667,403.5 67.5,404.167 67.5,405.5C 58.7363,409.382 50.403,414.049 42.5,419.5C 40.2746,417.89 37.9413,416.557 35.5,415.5C 35.5,414.167 34.8333,413.5 33.5,413.5C 30.4009,411.618 27.0676,410.285 23.5,409.5C 23.5,401.5 23.5,393.5 23.5,385.5C 161.445,307.191 299.445,228.857 437.5,150.5C 441.281,148.275 445.281,146.609 449.5,145.5C 455.236,148.7 461.236,151.367 467.5,153.5 Z M 467.5,191.5 C 467.5,206.833 467.5,222.167 467.5,237.5C 463.314,238.589 459.314,240.256 455.5,242.5C 421.103,262.697 386.437,282.363 351.5,301.5C 350.167,301.5 349.5,302.167 349.5,303.5C 325.5,316.833 301.5,330.167 277.5,343.5C 276.167,343.5 275.5,344.167 275.5,345.5C 256.167,356.167 236.833,366.833 217.5,377.5C 216.167,377.5 215.5,378.167 215.5,379.5C 211.5,381.5 207.5,383.5 203.5,385.5C 202.167,385.5 201.5,386.167 201.5,387.5C 182.167,398.167 162.833,408.833 143.5,419.5C 142.167,419.5 141.5,420.167 141.5,421.5C 137.5,423.5 133.5,425.5 129.5,427.5C 128.167,427.5 127.5,428.167 127.5,429.5C 117.278,434.711 107.278,440.377 97.5,446.5C 93.97,447.779 90.6366,447.446 87.5,445.5C 87.5,444.167 86.8333,443.5 85.5,443.5C 75.7636,437.632 65.7636,432.299 55.5,427.5C 192.274,348.105 329.607,269.439 467.5,191.5 Z M 467.5,251.5 C 467.5,266.167 467.5,280.833 467.5,295.5C 459.553,299.473 451.553,303.473 443.5,307.5C 442.167,307.5 441.5,308.167 441.5,309.5C 426.833,317.5 412.167,325.5 397.5,333.5C 396.167,333.5 395.5,334.167 395.5,335.5C 385.5,340.833 375.5,346.167 365.5,351.5C 364.167,351.5 363.5,352.167 363.5,353.5C 348.833,361.5 334.167,369.5 319.5,377.5C 318.167,377.5 317.5,378.167 317.5,379.5C 302.833,387.5 288.167,395.5 273.5,403.5C 272.167,403.5 271.5,404.167 271.5,405.5C 261.5,410.833 251.5,416.167 241.5,421.5C 240.167,421.5 239.5,422.167 239.5,423.5C 235.5,425.5 231.5,427.5 227.5,429.5C 226.167,429.5 225.5,430.167 225.5,431.5C 200.167,445.5 174.833,459.5 149.5,473.5C 148.167,473.5 147.5,474.167 147.5,475.5C 146.2,476.108 144.867,476.775 143.5,477.5C 137.768,473.635 131.768,470.302 125.5,467.5C 125.5,466.167 124.833,465.5 123.5,465.5C 117.421,463.139 112.087,459.806 107.5,455.5C 227.021,386.644 347.021,318.644 467.5,251.5 Z M 467.5,309.5 C 467.833,323.516 467.499,337.516 466.5,351.5C 450.6,361.616 434.267,370.949 417.5,379.5C 416.167,379.5 415.5,380.167 415.5,381.5C 396.167,392.167 376.833,402.833 357.5,413.5C 356.167,413.5 355.5,414.167 355.5,415.5C 311.5,440.167 267.5,464.833 223.5,489.5C 222.167,489.5 221.5,490.167 221.5,491.5C 212.154,496.188 202.821,500.855 193.5,505.5C 181.003,499.656 169.003,492.989 157.5,485.5C 157.721,484.265 158.388,483.265 159.5,482.5C 168.833,477.167 178.167,471.833 187.5,466.5C 280.564,413.636 373.898,361.302 467.5,309.5 Z M 467.5,367.5 C 467.5,380.833 467.5,394.167 467.5,407.5C 458.167,412.833 448.833,418.167 439.5,423.5C 438.167,423.5 437.5,424.167 437.5,425.5C 420.833,434.833 404.167,444.167 387.5,453.5C 386.167,453.5 385.5,454.167 385.5,455.5C 373.5,462.167 361.5,468.833 349.5,475.5C 348.167,475.5 347.5,476.167 347.5,477.5C 330.833,486.833 314.167,496.167 297.5,505.5C 296.167,505.5 295.5,506.167 295.5,507.5C 281.895,514.638 268.562,522.304 255.5,530.5C 251.686,532.744 247.686,534.411 243.5,535.5C 243.5,534.167 242.833,533.5 241.5,533.5C 237.5,531.5 233.5,529.5 229.5,527.5C 229.5,526.167 228.833,525.5 227.5,525.5C 220.264,522.225 213.598,518.225 207.5,513.5C 290.437,467.03 373.104,420.03 455.5,372.5C 459.314,370.256 463.314,368.589 467.5,367.5 Z"/></g>
<g><path style="opacity:0.987" fill="#d47825" d="M 753.5,-0.5 C 758.833,-0.5 764.167,-0.5 769.5,-0.5C 769.721,0.734849 770.388,1.73485 771.5,2.5C 784.221,9.52441 796.888,16.5244 809.5,23.5C 809.5,24.8333 810.167,25.5 811.5,25.5C 828.167,34.8333 844.833,44.1667 861.5,53.5C 861.5,54.8333 862.167,55.5 863.5,55.5C 880.167,64.8333 896.833,74.1667 913.5,83.5C 913.5,84.8333 914.167,85.5 915.5,85.5C 927.5,92.1667 939.5,98.8333 951.5,105.5C 951.5,106.833 952.167,107.5 953.5,107.5C 969.722,116.044 985.722,125.044 1001.5,134.5C 1004.27,137.042 1006.27,140.042 1007.5,143.5C 1005.5,235.827 1004.84,328.494 1005.5,421.5C 928.549,466.982 851.216,511.982 773.5,556.5C 769.719,558.725 765.719,560.391 761.5,561.5C 755.943,559.722 750.609,557.389 745.5,554.5C 670.833,511.167 596.167,467.833 521.5,424.5C 519.739,423.083 518.406,421.417 517.5,419.5C 518.164,326.494 517.498,233.827 515.5,141.5C 516.72,139.718 517.386,137.718 517.5,135.5C 520.343,135.083 523.01,134.083 525.5,132.5C 537.227,124.972 549.227,117.972 561.5,111.5C 562.833,111.5 563.5,110.833 563.5,109.5C 575.5,102.833 587.5,96.1667 599.5,89.5C 600.833,89.5 601.5,88.8333 601.5,87.5C 613.5,80.8333 625.5,74.1667 637.5,67.5C 638.833,67.5 639.5,66.8333 639.5,65.5C 656.167,56.1667 672.833,46.8333 689.5,37.5C 690.833,37.5 691.5,36.8333 691.5,35.5C 708.167,26.1667 724.833,16.8333 741.5,7.5C 742.833,7.5 743.5,6.83333 743.5,5.5C 747.237,3.9737 750.57,1.9737 753.5,-0.5 Z M 983.5,155.5 C 983.833,239.503 983.5,323.503 982.5,407.5C 981.735,408.612 980.735,409.279 979.5,409.5C 978.167,409.5 977.5,410.167 977.5,411.5C 965.5,418.167 953.5,424.833 941.5,431.5C 940.167,431.5 939.5,432.167 939.5,433.5C 922.833,442.833 906.167,452.167 889.5,461.5C 888.167,461.5 887.5,462.167 887.5,463.5C 870.833,472.833 854.167,482.167 837.5,491.5C 836.167,491.5 835.5,492.167 835.5,493.5C 818.833,502.833 802.167,512.167 785.5,521.5C 784.167,521.5 783.5,522.167 783.5,523.5C 776.201,527.443 768.867,531.443 761.5,535.5C 756.114,532.807 750.78,530.14 745.5,527.5C 745.5,526.167 744.833,525.5 743.5,525.5C 722.167,513.5 700.833,501.5 679.5,489.5C 679.5,488.167 678.833,487.5 677.5,487.5C 660.833,478.167 644.167,468.833 627.5,459.5C 627.5,458.167 626.833,457.5 625.5,457.5C 608.833,448.167 592.167,438.833 575.5,429.5C 575.5,428.167 574.833,427.5 573.5,427.5C 564.888,422.523 556.222,417.523 547.5,412.5C 545.01,410.917 542.343,409.917 539.5,409.5C 539.5,324.167 539.5,238.833 539.5,153.5C 540.978,153.762 542.311,153.429 543.5,152.5C 615.376,110.061 687.709,68.3948 760.5,27.5C 765.62,29.56 770.62,31.8933 775.5,34.5C 844.561,75.3615 913.894,115.695 983.5,155.5 Z"/></g>
<g><path style="opacity:0.004" fill="#fe0000" d="M 255.5,1.5 C 256.833,1.5 257.5,2.16667 257.5,3.5C 257.5,2.16667 256.833,1.5 255.5,1.5 Z"/></g>
<g><path style="opacity:0.004" fill="#fe0000" d="M 743.5,5.5 C 743.5,6.83333 742.833,7.5 741.5,7.5C 741.5,6.16667 742.167,5.5 743.5,5.5 Z"/></g>
<g><path style="opacity:0.004" fill="#fe0000" d="M 203.5,19.5 C 203.5,20.8333 202.833,21.5 201.5,21.5C 201.5,20.1667 202.167,19.5 203.5,19.5 Z"/></g>
<g><path style="opacity:0.004" fill="#fe0000" d="M 809.5,23.5 C 810.833,23.5 811.5,24.1667 811.5,25.5C 811.5,24.1667 810.833,23.5 809.5,23.5 Z"/></g>
<g><path style="opacity:0.004" fill="#fe0000" d="M 691.5,35.5 C 691.5,36.8333 690.833,37.5 689.5,37.5C 689.5,36.1667 690.167,35.5 691.5,35.5 Z"/></g>
<g><path style="opacity:0.004" fill="#fe0000" d="M 151.5,49.5 C 151.5,50.8333 150.833,51.5 149.5,51.5C 149.5,50.1667 150.167,49.5 151.5,49.5 Z"/></g>
<g><path style="opacity:0.004" fill="#fe0000" d="M 861.5,53.5 C 862.833,53.5 863.5,54.1667 863.5,55.5C 863.5,54.1667 862.833,53.5 861.5,53.5 Z"/></g>
<g><path style="opacity:0.004" fill="#fe0000" d="M 269.5,57.5 C 269.5,58.8333 268.833,59.5 267.5,59.5C 267.5,58.1667 268.167,57.5 269.5,57.5 Z"/></g>
<g><path style="opacity:0.004" fill="#fe0000" d="M 639.5,65.5 C 639.5,66.8333 638.833,67.5 637.5,67.5C 637.5,66.1667 638.167,65.5 639.5,65.5 Z"/></g>
<g><path style="opacity:0.004" fill="#fe0000" d="M 373.5,69.5 C 374.833,69.5 375.5,70.1667 375.5,71.5C 375.5,70.1667 374.833,69.5 373.5,69.5 Z"/></g>
<g><path style="opacity:0.349" fill="#fbf3ec" d="M 983.5,155.5 C 913.894,115.695 844.561,75.3615 775.5,34.5C 770.62,31.8933 765.62,29.56 760.5,27.5C 687.709,68.3948 615.376,110.061 543.5,152.5C 542.311,153.429 540.978,153.762 539.5,153.5C 539.5,152.833 539.5,152.167 539.5,151.5C 594.707,119.22 650.041,86.8865 705.5,54.5C 723.912,43.7655 742.579,33.4322 761.5,23.5C 835.658,65.409 909.324,108.076 982.5,151.5C 983.429,152.689 983.762,154.022 983.5,155.5 Z"/></g>
<g><path style="opacity:0.004" fill="#fe0000" d="M 913.5,83.5 C 914.833,83.5 915.5,84.1667 915.5,85.5C 915.5,84.1667 914.833,83.5 913.5,83.5 Z"/></g>
<g><path style="opacity:0.328" fill="#fcf3ed" d="M 283.5,49.5 C 271.954,42.0485 259.954,35.0485 247.5,28.5C 245.5,27.1667 243.5,27.1667 241.5,28.5C 176.167,66.5 110.833,104.5 45.5,142.5C 38.0604,146.22 30.7271,149.886 23.5,153.5C 23.5,152.833 23.5,152.167 23.5,151.5C 97.0477,108.382 171.048,65.7151 245.5,23.5C 258.167,30.5 270.833,37.5 283.5,44.5C 284.833,45.8333 286.167,47.1667 287.5,48.5C 286.311,49.4287 284.978,49.762 283.5,49.5 Z"/></g>
<g><path style="opacity:0.004" fill="#fe0000" d="M 601.5,87.5 C 601.5,88.8333 600.833,89.5 599.5,89.5C 599.5,88.1667 600.167,87.5 601.5,87.5 Z"/></g>
<g><path style="opacity:0.004" fill="#fe0000" d="M 209.5,91.5 C 209.5,92.8333 208.833,93.5 207.5,93.5C 207.5,92.1667 208.167,91.5 209.5,91.5 Z"/></g>
<g><path style="opacity:0.004" fill="#fe0000" d="M 75.5,93.5 C 75.5,94.8333 74.8333,95.5 73.5,95.5C 73.5,94.1667 74.1667,93.5 75.5,93.5 Z"/></g>
<g><path style="opacity:0.004" fill="#fe0000" d="M 951.5,105.5 C 952.833,105.5 953.5,106.167 953.5,107.5C 953.5,106.167 952.833,105.5 951.5,105.5 Z"/></g>
<g><path style="opacity:0.004" fill="#fe0000" d="M 563.5,109.5 C 563.5,110.833 562.833,111.5 561.5,111.5C 561.5,110.167 562.167,109.5 563.5,109.5 Z"/></g>
<g><path style="opacity:0.004" fill="#fe0000" d="M 463.5,121.5 C 464.833,121.5 465.5,122.167 465.5,123.5C 465.5,122.167 464.833,121.5 463.5,121.5 Z"/></g>
<g><path style="opacity:0.004" fill="#fe0000" d="M 149.5,125.5 C 149.5,126.833 148.833,127.5 147.5,127.5C 147.5,126.167 148.167,125.5 149.5,125.5 Z"/></g>
<g><path style="opacity:0.004" fill="#fe0000" d="M 13.5,129.5 C 13.5,130.833 12.8333,131.5 11.5,131.5C 11.5,130.167 12.1667,129.5 13.5,129.5 Z"/></g>
<g><path style="opacity:0.004" fill="#fe0000" d="M 135.5,133.5 C 135.5,134.833 134.833,135.5 133.5,135.5C 133.5,134.167 134.167,133.5 135.5,133.5 Z"/></g>
<g><path style="opacity:0.004" fill="#fe0000" d="M 3.5,135.5 C 3.5,136.833 2.83333,137.5 1.5,137.5C 1.5,136.167 2.16667,135.5 3.5,135.5 Z"/></g>
<g><path style="opacity:0.78" fill="#e8ba93" d="M 437.5,133.5 C 438.586,133.62 439.253,134.287 439.5,135.5C 439.253,136.713 438.586,137.38 437.5,137.5C 437.5,136.167 437.5,134.833 437.5,133.5 Z"/></g>
<g><path style="opacity:0.004" fill="#fe0000" d="M 227.5,139.5 C 227.5,140.833 226.833,141.5 225.5,141.5C 225.5,140.167 226.167,139.5 227.5,139.5 Z"/></g>
<g><path style="opacity:0.859" fill="#e0a066" d="M -0.5,143.5 C 1.49755,235.161 2.16421,327.161 1.5,419.5C 0.833333,419.5 0.166667,419.5 -0.5,419.5C -0.5,327.5 -0.5,235.5 -0.5,143.5 Z"/></g>
<g><path style="opacity:0.941" fill="#db9253" d="M 515.5,141.5 C 517.498,233.827 518.164,326.494 517.5,419.5C 516.833,419.5 516.167,419.5 515.5,419.5C 515.5,326.833 515.5,234.167 515.5,141.5 Z"/></g>
<g><path style="opacity:0.616" fill="#e2ab7e" d="M 491.5,143.5 C 491.5,234.833 491.5,326.167 491.5,417.5C 490.833,417.5 490.167,417.5 489.5,417.5C 488.836,325.827 489.502,234.494 491.5,143.5 Z"/></g>
<g><path style="opacity:0.004" fill="#fe0000" d="M 213.5,147.5 C 213.5,148.833 212.833,149.5 211.5,149.5C 211.5,148.167 212.167,147.5 213.5,147.5 Z"/></g>
<g><path style="opacity:0.004" fill="#fe0000" d="M 313.5,149.5 C 313.5,150.833 312.833,151.5 311.5,151.5C 311.5,150.167 312.167,149.5 313.5,149.5 Z"/></g>
<g><path style="opacity:0.004" fill="#fe0000" d="M 413.5,149.5 C 413.5,150.833 412.833,151.5 411.5,151.5C 411.5,150.167 412.167,149.5 413.5,149.5 Z"/></g>
<g><path style="opacity:0.757" fill="#e2a673" d="M 23.5,151.5 C 23.5,152.167 23.5,152.833 23.5,153.5C 23.5,168.167 23.5,182.833 23.5,197.5C 23.6309,198.376 23.2975,199.043 22.5,199.5C 22.1667,191.5 21.8333,183.5 21.5,175.5C 21.5022,167.138 22.1689,159.138 23.5,151.5 Z"/></g>
<g><path style="opacity:0.349" fill="#fcf4ee" d="M 387.5,109.5 C 375.954,102.049 363.954,95.0485 351.5,88.5C 348.833,87.1667 346.167,87.1667 343.5,88.5C 245.174,143.994 147.174,199.994 49.5,256.5C 40.7271,260.886 32.0604,265.22 23.5,269.5C 23.5,268.833 23.5,268.167 23.5,267.5C 110.367,218.393 197.034,168.726 283.5,118.5C 304.167,107.167 324.833,95.8333 345.5,84.5C 347.5,83.1667 349.5,83.1667 351.5,84.5C 363.98,92.014 376.647,99.014 389.5,105.5C 389.843,107.483 389.176,108.817 387.5,109.5 Z"/></g>
<g><path style="opacity:0.004" fill="#fe0000" d="M 185.5,163.5 C 185.5,164.833 184.833,165.5 183.5,165.5C 183.5,164.167 184.167,163.5 185.5,163.5 Z"/></g>
<g><path style="opacity:0.985" fill="#d98841" d="M 467.5,151.5 C 468.825,155.445 469.492,159.778 469.5,164.5C 469.492,169.222 468.825,173.555 467.5,177.5C 467.5,169.5 467.5,161.5 467.5,153.5C 467.5,152.833 467.5,152.167 467.5,151.5 Z"/></g>
<g><path style="opacity:0.968" fill="#000000" d="M 4121.5,163.5 C 4142.83,163.5 4164.17,163.5 4185.5,163.5C 4185.5,190.167 4185.5,216.833 4185.5,243.5C 4164.17,243.5 4142.83,243.5 4121.5,243.5C 4121.5,216.833 4121.5,190.167 4121.5,163.5 Z"/></g>
<g><path style="opacity:0.004" fill="#fe0000" d="M 75.5,167.5 C 75.5,168.833 74.8333,169.5 73.5,169.5C 73.5,168.167 74.1667,167.5 75.5,167.5 Z"/></g>
<g><path style="opacity:0.004" fill="#fe0000" d="M 281.5,167.5 C 281.5,168.833 280.833,169.5 279.5,169.5C 279.5,168.167 280.167,167.5 281.5,167.5 Z"/></g>
<g><path style="opacity:0.004" fill="#fe0000" d="M 171.5,171.5 C 171.5,172.833 170.833,173.5 169.5,173.5C 169.5,172.167 170.167,171.5 171.5,171.5 Z"/></g>
<g><path style="opacity:0.972" fill="#000000" d="M 1269.5,177.5 C 1291.5,177.5 1313.5,177.5 1335.5,177.5C 1335.5,347.5 1335.5,517.5 1335.5,687.5C 1313.5,687.5 1291.5,687.5 1269.5,687.5C 1269.5,517.5 1269.5,347.5 1269.5,177.5 Z"/></g>
<g><path style="opacity:0.968" fill="#000000" d="M 1613.5,177.5 C 1635.5,177.5 1657.5,177.5 1679.5,177.5C 1679.5,347.5 1679.5,517.5 1679.5,687.5C 1657.5,687.5 1635.5,687.5 1613.5,687.5C 1613.5,610.833 1613.5,534.167 1613.5,457.5C 1539.5,457.5 1465.5,457.5 1391.5,457.5C 1391.5,437.5 1391.5,417.5 1391.5,397.5C 1465.5,397.5 1539.5,397.5 1613.5,397.5C 1613.5,324.167 1613.5,250.833 1613.5,177.5 Z"/></g>
<g><path style="opacity:0.973" fill="#000000" d="M 3575.5,177.5 C 3597.5,177.5 3619.5,177.5 3641.5,177.5C 3641.5,347.5 3641.5,517.5 3641.5,687.5C 3619.5,687.5 3597.5,687.5 3575.5,687.5C 3575.5,517.5 3575.5,347.5 3575.5,177.5 Z"/></g>
<g><path style="opacity:0.969" fill="#000000" d="M 3919.5,177.5 C 3941.5,177.5 3963.5,177.5 3985.5,177.5C 3985.5,347.5 3985.5,517.5 3985.5,687.5C 3963.5,687.5 3941.5,687.5 3919.5,687.5C 3919.5,610.833 3919.5,534.167 3919.5,457.5C 3845.5,457.5 3771.5,457.5 3697.5,457.5C 3697.5,437.5 3697.5,417.5 3697.5,397.5C 3771.5,397.5 3845.5,397.5 3919.5,397.5C 3919.5,324.167 3919.5,250.833 3919.5,177.5 Z"/></g>
<g><path style="opacity:0.004" fill="#fe0000" d="M 249.5,185.5 C 249.5,186.833 248.833,187.5 247.5,187.5C 247.5,186.167 248.167,185.5 249.5,185.5 Z"/></g>
<g><path style="opacity:0.004" fill="#fe0000" d="M 451.5,185.5 C 451.5,186.833 450.833,187.5 449.5,187.5C 449.5,186.167 450.167,185.5 451.5,185.5 Z"/></g>
<g><path style="opacity:0.004" fill="#fe0000" d="M 339.5,191.5 C 339.5,192.833 338.833,193.5 337.5,193.5C 337.5,192.167 338.167,191.5 339.5,191.5 Z"/></g>
<g><path style="opacity:0.004" fill="#fe0000" d="M 29.5,193.5 C 29.5,194.833 28.8333,195.5 27.5,195.5C 27.5,194.167 28.1667,193.5 29.5,193.5 Z"/></g>
<g><path style="opacity:0.004" fill="#fe0000" d="M 437.5,193.5 C 437.5,194.833 436.833,195.5 435.5,195.5C 435.5,194.167 436.167,193.5 437.5,193.5 Z"/></g>
<g><path style="opacity:0.362" fill="#fcf3ed" d="M 335.5,79.5 C 323.954,72.0485 311.954,65.0485 299.5,58.5C 297.5,57.1667 295.5,57.1667 293.5,58.5C 203.722,109.956 113.722,160.956 23.5,211.5C 23.5,210.833 23.5,210.167 23.5,209.5C 25.3585,207.87 27.3585,206.204 29.5,204.5C 38.8333,199.167 48.1667,193.833 57.5,188.5C 137.244,143.099 217.244,98.0995 297.5,53.5C 309.828,59.9953 321.828,66.9953 333.5,74.5C 334.689,75.4287 336.022,75.762 337.5,75.5C 337.843,77.4832 337.176,78.8166 335.5,79.5 Z"/></g>
<g><path style="opacity:0.004" fill="#fe0000" d="M 217.5,203.5 C 217.5,204.833 216.833,205.5 215.5,205.5C 215.5,204.167 216.167,203.5 217.5,203.5 Z"/></g>
<g><path style="opacity:0.976" fill="#d98b47" d="M 467.5,187.5 C 468.831,195.472 469.498,203.806 469.5,212.5C 469.498,221.194 468.831,229.528 467.5,237.5C 467.5,222.167 467.5,206.833 467.5,191.5C 467.5,190.167 467.5,188.833 467.5,187.5 Z"/></g>
<g><path style="opacity:0.757" fill="#e2a573" d="M 23.5,209.5 C 23.5,210.167 23.5,210.833 23.5,211.5C 23.5,226.167 23.5,240.833 23.5,255.5C 23.6309,256.376 23.2975,257.043 22.5,257.5C 22.1667,249.5 21.8333,241.5 21.5,233.5C 21.5022,225.138 22.1689,217.138 23.5,209.5 Z"/></g>
<g><path style="opacity:0.384" fill="#fcf4ed" d="M 437.5,133.5 C 437.5,134.833 437.5,136.167 437.5,137.5C 436.833,137.5 436.167,137.5 435.5,137.5C 433.641,135.87 431.641,134.204 429.5,132.5C 420.833,127.833 412.167,123.167 403.5,118.5C 402.5,117.5 401.5,116.5 400.5,115.5C 274.617,185.937 148.95,256.604 23.5,327.5C 23.5,326.167 23.5,324.833 23.5,323.5C 141.445,257.191 259.445,190.857 377.5,124.5C 384.167,121.167 390.833,117.833 397.5,114.5C 399.5,113.167 401.5,113.167 403.5,114.5C 414.888,120.858 426.221,127.191 437.5,133.5 Z"/></g>
<g><path style="opacity:0.004" fill="#fe0000" d="M 279.5,225.5 C 279.5,226.833 278.833,227.5 277.5,227.5C 277.5,226.167 278.167,225.5 279.5,225.5 Z"/></g>
<g><path style="opacity:0.004" fill="#fe0000" d="M 55.5,237.5 C 55.5,238.833 54.8333,239.5 53.5,239.5C 53.5,238.167 54.1667,237.5 55.5,237.5 Z"/></g>
<g><path style="opacity:0.004" fill="#fe0000" d="M 135.5,249.5 C 135.5,250.833 134.833,251.5 133.5,251.5C 133.5,250.167 134.167,249.5 135.5,249.5 Z"/></g>
<g><path style="opacity:0.004" fill="#fe0000" d="M 233.5,251.5 C 233.5,252.833 232.833,253.5 231.5,253.5C 231.5,252.167 232.167,251.5 233.5,251.5 Z"/></g>
<g><path style="opacity:0.97" fill="#d98944" d="M 467.5,247.5 C 468.831,255.138 469.498,263.138 469.5,271.5C 469.498,279.862 468.831,287.862 467.5,295.5C 467.5,280.833 467.5,266.167 467.5,251.5C 467.5,250.167 467.5,248.833 467.5,247.5 Z"/></g>
<g><path style="opacity:0.354" fill="#fcf4ef" d="M 467.5,247.5 C 467.5,248.833 467.5,250.167 467.5,251.5C 347.021,318.644 227.021,386.644 107.5,455.5C 103.743,455.714 103.076,454.714 105.5,452.5C 226.221,384.143 346.888,315.809 467.5,247.5 Z"/></g>
<g><path style="opacity:0.753" fill="#e2a775" d="M 23.5,267.5 C 23.5,268.167 23.5,268.833 23.5,269.5C 23.5,283.5 23.5,297.5 23.5,311.5C 23.6309,312.376 23.2975,313.043 22.5,313.5C 22.1667,305.833 21.8333,298.167 21.5,290.5C 21.5024,282.47 22.1691,274.803 23.5,267.5 Z"/></g>
<g><path style="opacity:0.004" fill="#fe0000" d="M 173.5,285.5 C 173.5,286.833 172.833,287.5 171.5,287.5C 171.5,286.167 172.167,285.5 173.5,285.5 Z"/></g>
<g><path style="opacity:0.359" fill="#fcf4ee" d="M 467.5,151.5 C 467.5,152.167 467.5,152.833 467.5,153.5C 461.236,151.367 455.236,148.7 449.5,145.5C 445.281,146.609 441.281,148.275 437.5,150.5C 299.445,228.857 161.445,307.191 23.5,385.5C 23.5,384.167 23.5,382.833 23.5,381.5C 164.112,301.857 304.779,222.191 445.5,142.5C 447.5,141.167 449.5,141.167 451.5,142.5C 457.212,145.017 462.545,148.017 467.5,151.5 Z"/></g>
<g><path style="opacity:0.004" fill="#fe0000" d="M 53.5,295.5 C 53.5,296.833 52.8333,297.5 51.5,297.5C 51.5,296.167 52.1667,295.5 53.5,295.5 Z"/></g>
<g><path style="opacity:0.004" fill="#fe0000" d="M 351.5,301.5 C 351.5,302.833 350.833,303.5 349.5,303.5C 349.5,302.167 350.167,301.5 351.5,301.5 Z"/></g>
<g><path style="opacity:0.965" fill="#000000" d="M 1959.5,305.5 C 2020.05,303.298 2071.05,323.964 2112.5,367.5C 2162.39,429.998 2174.39,499.332 2148.5,575.5C 2121.55,639.808 2073.89,678.808 2005.5,692.5C 1936.67,703.218 1878.34,683.552 1830.5,633.5C 1790.19,582.945 1775.53,525.611 1786.5,461.5C 1800.31,396.195 1837.31,349.195 1897.5,320.5C 1905.5,317.833 1913.5,315.167 1921.5,312.5C 1934.37,309.694 1947.03,307.36 1959.5,305.5 Z M 1967.5,361.5 C 2026.2,365.218 2065.87,394.551 2086.5,449.5C 2103.42,501.301 2096.09,549.301 2064.5,593.5C 2046.09,615.206 2023.09,629.539 1995.5,636.5C 1953.2,643.29 1916.87,631.623 1886.5,601.5C 1856.79,567.022 1844.79,527.022 1850.5,481.5C 1854.82,445.181 1870.49,414.848 1897.5,390.5C 1907.85,382.321 1919.18,375.654 1931.5,370.5C 1943.46,366.177 1955.46,363.177 1967.5,361.5 Z"/></g>
<g><path style="opacity:0.968" fill="#000000" d="M 2463.5,305.5 C 2488.91,304.005 2512.91,309.005 2535.5,320.5C 2556.96,335.734 2571.29,356.068 2578.5,381.5C 2583.88,402.506 2587.22,423.839 2588.5,445.5C 2589.5,526.164 2589.83,606.831 2589.5,687.5C 2567.5,687.5 2545.5,687.5 2523.5,687.5C 2523.83,607.497 2523.5,527.497 2522.5,447.5C 2514.83,374.835 2476.5,350.501 2407.5,374.5C 2369.41,391.919 2343.08,420.252 2328.5,459.5C 2327.5,535.497 2327.17,611.497 2327.5,687.5C 2306.17,687.5 2284.83,687.5 2263.5,687.5C 2263.5,562.833 2263.5,438.167 2263.5,313.5C 2282.83,313.5 2302.17,313.5 2321.5,313.5C 2321.17,338.842 2321.5,364.175 2322.5,389.5C 2330.64,376.02 2340.31,363.686 2351.5,352.5C 2356.08,349.92 2360.08,346.587 2363.5,342.5C 2393.69,321.221 2427.02,308.887 2463.5,305.5 Z"/></g>
<g><path style="opacity:0.953" fill="#000000" d="M 2863.5,305.5 C 2911.6,303.348 2954.93,316.348 2993.5,344.5C 3001.73,350.8 3009.4,357.8 3016.5,365.5C 3038.57,390.969 3053.23,420.302 3060.5,453.5C 3065.56,476.695 3066.56,500.028 3063.5,523.5C 2960.83,523.5 2858.17,523.5 2755.5,523.5C 2755.9,536.508 2758.23,549.174 2762.5,561.5C 2767.99,573.15 2773.99,584.483 2780.5,595.5C 2784.59,598.916 2787.92,602.916 2790.5,607.5C 2829.9,645.783 2875.57,655.449 2927.5,636.5C 2944.76,629.375 2959.76,619.042 2972.5,605.5C 2976.5,598.833 2980.5,592.167 2984.5,585.5C 2985.33,584.585 2986.33,583.919 2987.5,583.5C 3002.73,588.142 3018.07,592.475 3033.5,596.5C 3036.59,597.079 3039.25,598.413 3041.5,600.5C 3023.28,636.058 2995.94,662.058 2959.5,678.5C 2906.41,700.251 2853.08,700.918 2799.5,680.5C 2731.31,647.593 2693.64,593.26 2686.5,517.5C 2681.61,453.475 2701.94,399.142 2747.5,354.5C 2772.97,332.432 2802.3,317.765 2835.5,310.5C 2845.13,308.893 2854.46,307.227 2863.5,305.5 Z M 2861.5,355.5 C 2888.29,353.407 2913.62,358.407 2937.5,370.5C 2946.52,376.007 2955.18,382.007 2963.5,388.5C 2986.25,412.327 2999.58,440.661 3003.5,473.5C 2920.17,473.5 2836.83,473.5 2753.5,473.5C 2757.31,428.197 2778.65,393.863 2817.5,370.5C 2820.17,369.167 2822.83,367.833 2825.5,366.5C 2837.56,362.165 2849.56,358.498 2861.5,355.5 Z"/></g>
<g><path style="opacity:0.953" fill="#000000" d="M 5063.5,475.5 C 5063.5,490.167 5063.5,504.833 5063.5,519.5C 5061.82,520.183 5061.16,521.517 5061.5,523.5C 4958.83,523.5 4856.17,523.5 4753.5,523.5C 4753.81,538.057 4756.81,552.057 4762.5,565.5C 4766.5,573.5 4770.5,581.5 4774.5,589.5C 4778.42,595.426 4783.09,600.759 4788.5,605.5C 4789.43,606.689 4789.76,608.022 4789.5,609.5C 4790.98,609.238 4792.31,609.571 4793.5,610.5C 4802.74,620.447 4813.4,628.447 4825.5,634.5C 4854.75,646.707 4884.75,648.707 4915.5,640.5C 4930.38,634.726 4944.38,627.393 4957.5,618.5C 4968.02,609.115 4976.35,598.115 4982.5,585.5C 4983.33,584.585 4984.33,583.919 4985.5,583.5C 5000.73,588.142 5016.07,592.475 5031.5,596.5C 5034.59,597.079 5037.25,598.413 5039.5,600.5C 5020.49,637.508 4991.82,664.175 4953.5,680.5C 4901.48,700.424 4849.48,700.424 4797.5,680.5C 4729.32,647.6 4691.65,593.266 4684.5,517.5C 4679.68,454.603 4699.35,400.936 4743.5,356.5C 4793.95,313.385 4851.95,298.052 4917.5,310.5C 4933.54,313.847 4948.87,319.18 4963.5,326.5C 4976.51,334.672 4989.18,343.339 5001.5,352.5C 5023.06,373.279 5039.39,397.613 5050.5,425.5C 5055.83,442.177 5060.17,458.844 5063.5,475.5 Z M 4859.5,355.5 C 4910.52,351.85 4950.85,370.517 4980.5,411.5C 4989.91,427.074 4996.58,443.74 5000.5,461.5C 5001.49,465.445 5001.82,469.445 5001.5,473.5C 4918.17,473.5 4834.83,473.5 4751.5,473.5C 4756.28,421.76 4782.28,385.426 4829.5,364.5C 4839.65,361.14 4849.65,358.14 4859.5,355.5 Z"/></g>
<g><path style="opacity:0.004" fill="#fe0000" d="M 443.5,307.5 C 443.5,308.833 442.833,309.5 441.5,309.5C 441.5,308.167 442.167,307.5 443.5,307.5 Z"/></g>
<g><path style="opacity:0.004" fill="#fe0000" d="M 127.5,311.5 C 127.5,312.833 126.833,313.5 125.5,313.5C 125.5,312.167 126.167,311.5 127.5,311.5 Z"/></g>
<g><path style="opacity:0.962" fill="#000000" d="M 3107.5,313.5 C 3130.17,313.5 3152.83,313.5 3175.5,313.5C 3175.2,315.604 3175.53,317.604 3176.5,319.5C 3217.83,422.167 3259.17,524.833 3300.5,627.5C 3338.11,523.347 3376.11,419.347 3414.5,315.5C 3425.01,314.19 3435.68,313.523 3446.5,313.5C 3456.83,313.833 3467.17,314.167 3477.5,314.5C 3416.91,470.692 3356.57,627.026 3296.5,783.5C 3291.66,796.537 3284.32,807.87 3274.5,817.5C 3273.57,818.689 3273.24,820.022 3273.5,821.5C 3272.02,821.238 3270.69,821.571 3269.5,822.5C 3257.76,835.705 3243.1,843.705 3225.5,846.5C 3216.2,847.829 3206.87,848.829 3197.5,849.5C 3186.74,848.724 3176.07,847.391 3165.5,845.5C 3165.5,826.167 3165.5,806.833 3165.5,787.5C 3176.51,788.668 3187.51,790.001 3198.5,791.5C 3204.34,790.335 3210,788.668 3215.5,786.5C 3218.5,783.5 3221.5,780.5 3224.5,777.5C 3231.01,766.483 3237.01,755.15 3242.5,743.5C 3249.91,724.357 3257.57,705.357 3265.5,686.5C 3259.58,674.317 3253.91,661.984 3248.5,649.5C 3203.05,540.602 3157.05,431.936 3110.5,323.5C 3109.28,320.191 3108.28,316.858 3107.5,313.5 Z"/></g>
<g><path style="opacity:0.982" fill="#000000" d="M 4121.5,313.5 C 4142.83,313.5 4164.17,313.5 4185.5,313.5C 4185.5,438.167 4185.5,562.833 4185.5,687.5C 4164.17,687.5 4142.83,687.5 4121.5,687.5C 4121.5,562.833 4121.5,438.167 4121.5,313.5 Z"/></g>
<g><path style="opacity:0.963" fill="#000000" d="M 4271.5,313.5 C 4294.17,313.5 4316.83,313.5 4339.5,313.5C 4377.9,418.351 4416.9,523.018 4456.5,627.5C 4495.53,522.791 4534.53,418.125 4573.5,313.5C 4594.17,313.5 4614.83,313.5 4635.5,313.5C 4590.41,429.681 4544.75,545.681 4498.5,661.5C 4495.47,670.209 4492.47,678.875 4489.5,687.5C 4465.67,688.143 4442.01,687.476 4418.5,685.5C 4369.68,561.363 4320.68,437.363 4271.5,313.5 Z"/></g>
<g><path style="opacity:0.357" fill="#fcf3ed" d="M 467.5,187.5 C 467.5,188.833 467.5,190.167 467.5,191.5C 329.607,269.439 192.274,348.105 55.5,427.5C 54.8333,427.5 54.1667,427.5 53.5,427.5C 53.5,426.167 53.5,424.833 53.5,423.5C 191.771,345.363 329.771,266.696 467.5,187.5 Z"/></g>
<g><path style="opacity:0.608" fill="#e5ae81" d="M 539.5,151.5 C 539.5,152.167 539.5,152.833 539.5,153.5C 539.5,238.833 539.5,324.167 539.5,409.5C 538.167,366.839 537.5,323.839 537.5,280.5C 537.5,237.161 538.167,194.161 539.5,151.5 Z"/></g>
<g><path style="opacity:0.004" fill="#fe0000" d="M 397.5,333.5 C 397.5,334.833 396.833,335.5 395.5,335.5C 395.5,334.167 396.167,333.5 397.5,333.5 Z"/></g>
<g><path style="opacity:0.349" fill="#e7b68e" d="M 1007.5,143.5 C 1008.16,236.506 1007.5,329.173 1005.5,421.5C 1004.84,328.494 1005.5,235.827 1007.5,143.5 Z"/></g>
<g><path style="opacity:0.807" fill="#e1a36f" d="M 23.5,323.5 C 23.5,324.833 23.5,326.167 23.5,327.5C 23.5,341.5 23.5,355.5 23.5,369.5C 23.6309,370.376 23.2975,371.043 22.5,371.5C 22.1667,363.5 21.8333,355.5 21.5,347.5C 21.5022,339.138 22.1689,331.138 23.5,323.5 Z"/></g>
<g><path style="opacity:0.004" fill="#fe0000" d="M 277.5,343.5 C 277.5,344.833 276.833,345.5 275.5,345.5C 275.5,344.167 276.167,343.5 277.5,343.5 Z"/></g>
<g><path style="opacity:0.004" fill="#fe0000" d="M 67.5,345.5 C 67.5,346.833 66.8333,347.5 65.5,347.5C 65.5,346.167 66.1667,345.5 67.5,345.5 Z"/></g>
<g><path style="opacity:0.004" fill="#fe0000" d="M 167.5,347.5 C 167.5,348.833 166.833,349.5 165.5,349.5C 165.5,348.167 166.167,347.5 167.5,347.5 Z"/></g>
<g><path style="opacity:0.004" fill="#fe0000" d="M 365.5,351.5 C 365.5,352.833 364.833,353.5 363.5,353.5C 363.5,352.167 364.167,351.5 365.5,351.5 Z"/></g>
<g><path style="opacity:0.004" fill="#fe0000" d="M 125.5,371.5 C 125.5,372.833 124.833,373.5 123.5,373.5C 123.5,372.167 124.167,371.5 125.5,371.5 Z"/></g>
<g><path style="opacity:0.004" fill="#fe0000" d="M 217.5,377.5 C 217.5,378.833 216.833,379.5 215.5,379.5C 215.5,378.167 216.167,377.5 217.5,377.5 Z"/></g>
<g><path style="opacity:0.004" fill="#fe0000" d="M 319.5,377.5 C 319.5,378.833 318.833,379.5 317.5,379.5C 317.5,378.167 318.167,377.5 319.5,377.5 Z"/></g>
<g><path style="opacity:0.353" fill="#fcf4ee" d="M 467.5,309.5 C 373.898,361.302 280.564,413.636 187.5,466.5C 178.167,471.833 168.833,477.167 159.5,482.5C 158.388,483.265 157.721,484.265 157.5,485.5C 156.167,485.5 154.833,485.5 153.5,485.5C 153.5,484.167 153.5,482.833 153.5,481.5C 156.343,481.083 159.01,480.083 161.5,478.5C 263.329,421.086 364.996,363.42 466.5,305.5C 467.429,306.689 467.762,308.022 467.5,309.5 Z"/></g>
<g><path style="opacity:0.004" fill="#fe0000" d="M 111.5,379.5 C 111.5,380.833 110.833,381.5 109.5,381.5C 109.5,380.167 110.167,379.5 111.5,379.5 Z"/></g>
<g><path style="opacity:0.004" fill="#fe0000" d="M 417.5,379.5 C 417.5,380.833 416.833,381.5 415.5,381.5C 415.5,380.167 416.167,379.5 417.5,379.5 Z"/></g>
<g><path style="opacity:0.97" fill="#d98944" d="M 467.5,407.5 C 467.5,394.167 467.5,380.833 467.5,367.5C 467.843,365.517 467.176,364.183 465.5,363.5C 466.183,361.824 467.517,361.157 469.5,361.5C 469.833,377.514 469.499,393.514 468.5,409.5C 467.702,409.043 467.369,408.376 467.5,407.5 Z"/></g>
<g><path style="opacity:0.753" fill="#e2a774" d="M 23.5,381.5 C 23.5,382.833 23.5,384.167 23.5,385.5C 23.5,393.5 23.5,401.5 23.5,409.5C 22.1734,405.217 21.5067,400.551 21.5,395.5C 21.5067,390.449 22.1734,385.783 23.5,381.5 Z"/></g>
<g><path style="opacity:0.004" fill="#fe0000" d="M 203.5,385.5 C 203.5,386.833 202.833,387.5 201.5,387.5C 201.5,386.167 202.167,385.5 203.5,385.5 Z"/></g>
<g><path style="opacity:0.004" fill="#fe0000" d="M 97.5,387.5 C 97.5,388.833 96.8333,389.5 95.5,389.5C 95.5,388.167 96.1667,387.5 97.5,387.5 Z"/></g>
<g><path style="opacity:0.334" fill="#fcf3ed" d="M 465.5,363.5 C 467.176,364.183 467.843,365.517 467.5,367.5C 463.314,368.589 459.314,370.256 455.5,372.5C 373.104,420.03 290.437,467.03 207.5,513.5C 206.022,513.762 204.689,513.429 203.5,512.5C 290.888,462.81 378.221,413.143 465.5,363.5 Z"/></g>
<g><path style="opacity:0.004" fill="#fe0000" d="M 83.5,395.5 C 83.5,396.833 82.8333,397.5 81.5,397.5C 81.5,396.167 82.1667,395.5 83.5,395.5 Z"/></g>
<g><path style="opacity:0.004" fill="#fe0000" d="M 69.5,403.5 C 69.5,404.833 68.8333,405.5 67.5,405.5C 67.5,404.167 68.1667,403.5 69.5,403.5 Z"/></g>
<g><path style="opacity:0.004" fill="#fe0000" d="M 273.5,403.5 C 273.5,404.833 272.833,405.5 271.5,405.5C 271.5,404.167 272.167,403.5 273.5,403.5 Z"/></g>
<g><path style="opacity:0.004" fill="#fe0000" d="M 979.5,409.5 C 979.5,410.833 978.833,411.5 977.5,411.5C 977.5,410.167 978.167,409.5 979.5,409.5 Z"/></g>
<g><path style="opacity:0.004" fill="#fe0000" d="M 33.5,413.5 C 34.8333,413.5 35.5,414.167 35.5,415.5C 34.1667,415.5 33.5,414.833 33.5,413.5 Z"/></g>
<g><path style="opacity:0.004" fill="#fe0000" d="M 357.5,413.5 C 357.5,414.833 356.833,415.5 355.5,415.5C 355.5,414.167 356.167,413.5 357.5,413.5 Z"/></g>
<g><path style="opacity:0.004" fill="#fe0000" d="M 143.5,419.5 C 143.5,420.833 142.833,421.5 141.5,421.5C 141.5,420.167 142.167,419.5 143.5,419.5 Z"/></g>
<g><path style="opacity:0.11" fill="#fbf3eb" d="M 489.5,417.5 C 490.167,417.5 490.833,417.5 491.5,417.5C 491.843,419.483 491.176,420.817 489.5,421.5C 489.5,420.167 489.5,418.833 489.5,417.5 Z"/></g>
<g><path style="opacity:0.987" fill="#d47825" d="M 515.5,445.5 C 515.5,446.833 516.167,447.5 517.5,447.5C 534.167,456.833 550.833,466.167 567.5,475.5C 567.5,476.833 568.167,477.5 569.5,477.5C 590.833,489.5 612.167,501.5 633.5,513.5C 633.5,514.833 634.167,515.5 635.5,515.5C 659.842,530.006 684.509,544.006 709.5,557.5C 709.5,558.833 710.167,559.5 711.5,559.5C 718.833,563.5 726.167,567.5 733.5,571.5C 733.5,572.833 734.167,573.5 735.5,573.5C 740.718,575.386 744.718,578.719 747.5,583.5C 745.502,675.827 744.836,768.494 745.5,861.5C 745.5,862.833 745.5,864.167 745.5,865.5C 744.022,865.238 742.689,865.571 741.5,866.5C 726.5,876.336 711.167,885.669 695.5,894.5C 634.167,929.833 572.833,965.167 511.5,1000.5C 505.5,1004.5 499.5,1004.5 493.5,1000.5C 414.451,955.315 335.784,909.648 257.5,863.5C 257.5,862.833 257.5,862.167 257.5,861.5C 258.164,769.827 257.498,678.494 255.5,587.5C 256.023,581.103 259.357,577.103 265.5,575.5C 266.833,575.5 267.5,574.833 267.5,573.5C 287.5,562.167 307.5,550.833 327.5,539.5C 328.833,539.5 329.5,538.833 329.5,537.5C 341.5,530.833 353.5,524.167 365.5,517.5C 366.833,517.5 367.5,516.833 367.5,515.5C 384.167,506.167 400.833,496.833 417.5,487.5C 418.833,487.5 419.5,486.833 419.5,485.5C 445.056,471.623 470.389,457.289 495.5,442.5C 502.645,440.806 509.311,441.806 515.5,445.5 Z M 723.5,595.5 C 723.5,680.833 723.5,766.167 723.5,851.5C 722.022,851.238 720.689,851.571 719.5,852.5C 698.439,865.362 677.105,877.695 655.5,889.5C 654.167,889.5 653.5,890.167 653.5,891.5C 641.5,898.167 629.5,904.833 617.5,911.5C 616.167,911.5 615.5,912.167 615.5,913.5C 594.167,925.5 572.833,937.5 551.5,949.5C 550.167,949.5 549.5,950.167 549.5,951.5C 534.563,959.303 519.896,967.637 505.5,976.5C 504.5,976.833 503.5,977.167 502.5,977.5C 497.995,975.745 493.661,973.745 489.5,971.5C 489.5,970.167 488.833,969.5 487.5,969.5C 470.833,960.167 454.167,950.833 437.5,941.5C 437.5,940.167 436.833,939.5 435.5,939.5C 406.167,922.833 376.833,906.167 347.5,889.5C 347.5,888.167 346.833,887.5 345.5,887.5C 328.833,878.167 312.167,868.833 295.5,859.5C 295.5,858.167 294.833,857.5 293.5,857.5C 288.508,855.339 283.841,852.672 279.5,849.5C 279.5,765.5 279.5,681.5 279.5,597.5C 353.561,554.457 427.895,511.79 502.5,469.5C 573.958,509.728 644.958,550.728 715.5,592.5C 717.99,594.083 720.657,595.083 723.5,595.5 Z"/></g>
<g><path style="opacity:0.004" fill="#fe0000" d="M 515.5,445.5 C 516.833,445.5 517.5,446.167 517.5,447.5C 517.5,446.167 516.833,445.5 515.5,445.5 Z"/></g>
<g><path style="opacity:0.004" fill="#fe0000" d="M 567.5,475.5 C 568.833,475.5 569.5,476.167 569.5,477.5C 569.5,476.167 568.833,475.5 567.5,475.5 Z"/></g>
<g><path style="opacity:0.004" fill="#fe0000" d="M 419.5,485.5 C 419.5,486.833 418.833,487.5 417.5,487.5C 417.5,486.167 418.167,485.5 419.5,485.5 Z"/></g>
<g><path style="opacity:0.004" fill="#fe0000" d="M 633.5,513.5 C 634.833,513.5 635.5,514.167 635.5,515.5C 635.5,514.167 634.833,513.5 633.5,513.5 Z"/></g>
<g><path style="opacity:0.004" fill="#fe0000" d="M 367.5,515.5 C 367.5,516.833 366.833,517.5 365.5,517.5C 365.5,516.167 366.167,515.5 367.5,515.5 Z"/></g>
<g><path style="opacity:0.395" fill="#fcf4ee" d="M -0.5,419.5 C 0.166667,419.5 0.833333,419.5 1.5,419.5C 2.4056,421.417 3.73894,423.083 5.5,424.5C 75.5,465.167 145.5,505.833 215.5,546.5C 225.573,551.536 235.573,556.536 245.5,561.5C 249.719,560.391 253.719,558.725 257.5,556.5C 271.174,547.994 285.174,539.994 299.5,532.5C 362.888,495.477 426.222,458.477 489.5,421.5C 489.479,424.535 488.146,426.868 485.5,428.5C 408.167,473.167 330.833,517.833 253.5,562.5C 250.756,563.303 248.089,564.303 245.5,565.5C 242.911,564.303 240.244,563.303 237.5,562.5C 163.827,519.328 89.8267,476.661 15.5,434.5C 9.76109,431.307 4.42776,427.641 -0.5,423.5C -0.5,422.167 -0.5,420.833 -0.5,419.5 Z"/></g>
<g><path style="opacity:0.004" fill="#fe0000" d="M 227.5,525.5 C 228.833,525.5 229.5,526.167 229.5,527.5C 228.167,527.5 227.5,526.833 227.5,525.5 Z"/></g>
<g><path style="opacity:0.004" fill="#fe0000" d="M 297.5,505.5 C 297.5,506.833 296.833,507.5 295.5,507.5C 295.5,506.167 296.167,505.5 297.5,505.5 Z"/></g>
<g><path style="opacity:0.004" fill="#fe0000" d="M 223.5,489.5 C 223.5,490.833 222.833,491.5 221.5,491.5C 221.5,490.167 222.167,489.5 223.5,489.5 Z"/></g>
<g><path style="opacity:0.004" fill="#fe0000" d="M 349.5,475.5 C 349.5,476.833 348.833,477.5 347.5,477.5C 347.5,476.167 348.167,475.5 349.5,475.5 Z"/></g>
<g><path style="opacity:0.004" fill="#fe0000" d="M 149.5,473.5 C 149.5,474.833 148.833,475.5 147.5,475.5C 147.5,474.167 148.167,473.5 149.5,473.5 Z"/></g>
<g><path style="opacity:0.004" fill="#fe0000" d="M 123.5,465.5 C 124.833,465.5 125.5,466.167 125.5,467.5C 124.167,467.5 123.5,466.833 123.5,465.5 Z"/></g>
<g><path style="opacity:0.004" fill="#fe0000" d="M 387.5,453.5 C 387.5,454.833 386.833,455.5 385.5,455.5C 385.5,454.167 386.167,453.5 387.5,453.5 Z"/></g>
<g><path style="opacity:0.004" fill="#fe0000" d="M 85.5,443.5 C 86.8333,443.5 87.5,444.167 87.5,445.5C 86.1667,445.5 85.5,444.833 85.5,443.5 Z"/></g>
<g><path style="opacity:0.004" fill="#fe0000" d="M 227.5,429.5 C 227.5,430.833 226.833,431.5 225.5,431.5C 225.5,430.167 226.167,429.5 227.5,429.5 Z"/></g>
<g><path style="opacity:0.004" fill="#fe0000" d="M 129.5,427.5 C 129.5,428.833 128.833,429.5 127.5,429.5C 127.5,428.167 128.167,427.5 129.5,427.5 Z"/></g>
<g><path style="opacity:0.894" fill="#e1a26d" d="M 53.5,423.5 C 53.5,424.833 53.5,426.167 53.5,427.5C 52.4138,427.38 51.7472,426.713 51.5,425.5C 51.7472,424.287 52.4138,423.62 53.5,423.5 Z"/></g>
<g><path style="opacity:0.004" fill="#fe0000" d="M 439.5,423.5 C 439.5,424.833 438.833,425.5 437.5,425.5C 437.5,424.167 438.167,423.5 439.5,423.5 Z"/></g>
<g><path style="opacity:0.004" fill="#fe0000" d="M 241.5,421.5 C 241.5,422.833 240.833,423.5 239.5,423.5C 239.5,422.167 240.167,421.5 241.5,421.5 Z"/></g>
<g><path style="opacity:0.004" fill="#fe0000" d="M 241.5,533.5 C 242.833,533.5 243.5,534.167 243.5,535.5C 242.167,535.5 241.5,534.833 241.5,533.5 Z"/></g>
<g><path style="opacity:0.004" fill="#fe0000" d="M 329.5,537.5 C 329.5,538.833 328.833,539.5 327.5,539.5C 327.5,538.167 328.167,537.5 329.5,537.5 Z"/></g>
<g><path style="opacity:0.343" fill="#fbf2eb" d="M 723.5,593.5 C 723.5,594.167 723.5,594.833 723.5,595.5C 720.657,595.083 717.99,594.083 715.5,592.5C 644.958,550.728 573.958,509.728 502.5,469.5C 427.895,511.79 353.561,554.457 279.5,597.5C 279.5,596.167 279.5,594.833 279.5,593.5C 353.974,551.096 428.307,508.429 502.5,465.5C 576.424,507.954 650.09,550.621 723.5,593.5 Z"/></g>
<g><path style="opacity:0.367" fill="#fcf3ed" d="M 515.5,419.5 C 516.167,419.5 516.833,419.5 517.5,419.5C 518.406,421.417 519.739,423.083 521.5,424.5C 596.167,467.833 670.833,511.167 745.5,554.5C 750.609,557.389 755.943,559.722 761.5,561.5C 765.719,560.391 769.719,558.725 773.5,556.5C 851.216,511.982 928.549,466.982 1005.5,421.5C 1005.76,422.978 1005.43,424.311 1004.5,425.5C 929.664,469.419 854.664,513.086 779.5,556.5C 773.288,559.773 766.954,562.773 760.5,565.5C 738.038,553.435 715.704,541.101 693.5,528.5C 638.833,496.5 584.167,464.5 529.5,432.5C 525.686,430.256 521.686,428.589 517.5,427.5C 516.833,424.833 516.167,422.167 515.5,419.5 Z"/></g>
<g><path style="opacity:0.004" fill="#fe0000" d="M 743.5,525.5 C 744.833,525.5 745.5,526.167 745.5,527.5C 744.167,527.5 743.5,526.833 743.5,525.5 Z"/></g>
<g><path style="opacity:0.004" fill="#fe0000" d="M 785.5,521.5 C 785.5,522.833 784.833,523.5 783.5,523.5C 783.5,522.167 784.167,521.5 785.5,521.5 Z"/></g>
<g><path style="opacity:0.004" fill="#fe0000" d="M 837.5,491.5 C 837.5,492.833 836.833,493.5 835.5,493.5C 835.5,492.167 836.167,491.5 837.5,491.5 Z"/></g>
<g><path style="opacity:0.004" fill="#fe0000" d="M 677.5,487.5 C 678.833,487.5 679.5,488.167 679.5,489.5C 678.167,489.5 677.5,488.833 677.5,487.5 Z"/></g>
<g><path style="opacity:0.004" fill="#fe0000" d="M 889.5,461.5 C 889.5,462.833 888.833,463.5 887.5,463.5C 887.5,462.167 888.167,461.5 889.5,461.5 Z"/></g>
<g><path style="opacity:0.004" fill="#fe0000" d="M 625.5,457.5 C 626.833,457.5 627.5,458.167 627.5,459.5C 626.167,459.5 625.5,458.833 625.5,457.5 Z"/></g>
<g><path style="opacity:0.004" fill="#fe0000" d="M 941.5,431.5 C 941.5,432.833 940.833,433.5 939.5,433.5C 939.5,432.167 940.167,431.5 941.5,431.5 Z"/></g>
<g><path style="opacity:0.004" fill="#fe0000" d="M 573.5,427.5 C 574.833,427.5 575.5,428.167 575.5,429.5C 574.167,429.5 573.5,428.833 573.5,427.5 Z"/></g>
<g><path style="opacity:0.004" fill="#fe0000" d="M 709.5,557.5 C 710.833,557.5 711.5,558.167 711.5,559.5C 711.5,558.167 710.833,557.5 709.5,557.5 Z"/></g>
<g><path style="opacity:0.004" fill="#fe0000" d="M 733.5,571.5 C 734.833,571.5 735.5,572.167 735.5,573.5C 735.5,572.167 734.833,571.5 733.5,571.5 Z"/></g>
<g><path style="opacity:0.004" fill="#fe0000" d="M 267.5,573.5 C 267.5,574.833 266.833,575.5 265.5,575.5C 265.5,574.167 266.167,573.5 267.5,573.5 Z"/></g>
<g><path style="opacity:0.298" fill="#e8b58d" d="M 255.5,587.5 C 257.498,678.494 258.164,769.827 257.5,861.5C 256.833,861.5 256.167,861.5 255.5,861.5C 255.5,770.167 255.5,678.833 255.5,587.5 Z"/></g>
<g><path style="opacity:0.941" fill="#db9253" d="M 747.5,583.5 C 747.5,676.167 747.5,768.833 747.5,861.5C 746.833,861.5 746.167,861.5 745.5,861.5C 744.836,768.494 745.502,675.827 747.5,583.5 Z"/></g>
<g><path style="opacity:1" fill="#d57d2e" d="M 279.5,593.5 C 279.5,594.833 279.5,596.167 279.5,597.5C 279.5,681.5 279.5,765.5 279.5,849.5C 279.631,850.376 279.298,851.043 278.5,851.5C 278.167,808.5 277.833,765.5 277.5,722.5C 277.5,679.161 278.167,636.161 279.5,593.5 Z"/></g>
<g><path style="opacity:0.714" fill="#e3ab7b" d="M 723.5,593.5 C 724.833,636.161 725.5,679.161 725.5,722.5C 725.5,765.839 724.833,808.839 723.5,851.5C 723.5,766.167 723.5,680.833 723.5,595.5C 723.5,594.833 723.5,594.167 723.5,593.5 Z"/></g>
<g><path style="opacity:0.004" fill="#fe0000" d="M 293.5,857.5 C 294.833,857.5 295.5,858.167 295.5,859.5C 294.167,859.5 293.5,858.833 293.5,857.5 Z"/></g>
<g><path style="opacity:0.086" fill="#fefffe" d="M 255.5,861.5 C 256.167,861.5 256.833,861.5 257.5,861.5C 257.5,862.167 257.5,862.833 257.5,863.5C 256.167,863.5 255.5,862.833 255.5,861.5 Z"/></g>
<g><path style="opacity:0.329" fill="#faece2" d="M 745.5,861.5 C 746.167,861.5 746.833,861.5 747.5,861.5C 747.843,863.483 747.176,864.817 745.5,865.5C 745.5,864.167 745.5,862.833 745.5,861.5 Z"/></g>
<g><path style="opacity:0.36" fill="#fbf2ec" d="M 257.5,863.5 C 335.784,909.648 414.451,955.315 493.5,1000.5C 499.5,1004.5 505.5,1004.5 511.5,1000.5C 572.833,965.167 634.167,929.833 695.5,894.5C 711.167,885.669 726.5,876.336 741.5,866.5C 742.689,865.571 744.022,865.238 745.5,865.5C 745.5,866.833 745.5,868.167 745.5,869.5C 742.657,869.917 739.99,870.917 737.5,872.5C 722.5,882.336 707.167,891.669 691.5,900.5C 634.507,932.661 577.84,965.328 521.5,998.5C 515.06,1002.05 508.393,1005.05 501.5,1007.5C 420.256,962.21 339.589,915.877 259.5,868.5C 257.995,867.158 257.328,865.492 257.5,863.5 Z"/></g>
<g><path style="opacity:0.004" fill="#fe0000" d="M 551.5,949.5 C 551.5,950.833 550.833,951.5 549.5,951.5C 549.5,950.167 550.167,949.5 551.5,949.5 Z"/></g>
<g><path style="opacity:0.004" fill="#fe0000" d="M 435.5,939.5 C 436.833,939.5 437.5,940.167 437.5,941.5C 436.167,941.5 435.5,940.833 435.5,939.5 Z"/></g>
<g><path style="opacity:0.004" fill="#fe0000" d="M 617.5,911.5 C 617.5,912.833 616.833,913.5 615.5,913.5C 615.5,912.167 616.167,911.5 617.5,911.5 Z"/></g>
<g><path style="opacity:0.004" fill="#fe0000" d="M 655.5,889.5 C 655.5,890.833 654.833,891.5 653.5,891.5C 653.5,890.167 654.167,889.5 655.5,889.5 Z"/></g>
<g><path style="opacity:0.004" fill="#fe0000" d="M 345.5,887.5 C 346.833,887.5 347.5,888.167 347.5,889.5C 346.167,889.5 345.5,888.833 345.5,887.5 Z"/></g>
<g><path style="opacity:0.004" fill="#fe0000" d="M 487.5,969.5 C 488.833,969.5 489.5,970.167 489.5,971.5C 488.167,971.5 487.5,970.833 487.5,969.5 Z"/></g>
</svg>
