<svg width="1587" height="217" viewBox="0 0 1587 217" fill="none" xmlns="http://www.w3.org/2000/svg">
<path fill-rule="evenodd" clip-rule="evenodd" d="M70.6665 3C62.0158 3 55.0031 10.0127 55.0031 18.6634V97.3367C55.0031 97.3605 55.0031 97.3843 55.0032 97.408V58.0004H110.002V113H149.336C157.987 113 165 105.987 165 97.3368V18.6634C165 10.0128 157.987 3 149.336 3H70.6665Z" fill="#FFA663"/>
<path fill-rule="evenodd" clip-rule="evenodd" d="M94.3334 168C102.984 168 109.997 160.987 109.997 152.337V113H54.9986V57.9998H15.6634C7.01273 57.9998 -2.28882e-05 65.0126 -2.28882e-05 73.6632V152.337C-2.28882e-05 160.987 7.01273 168 15.6634 168H94.3334Z" fill="#FF7557"/>
<path d="M1032.95 0.5C1001.18 0.5 978.189 20.0934 978.189 46.2967C978.189 79.9088 1006.13 87.5966 1030.93 94.4205C1050.71 99.8655 1068.5 104.76 1068.5 121.838C1068.5 137.654 1054.28 148.513 1034.13 148.513C1013.51 148.513 997.864 139.307 985.063 127.267L970.604 144.264C985.063 159.136 1009.01 170.467 1034.13 170.467C1069.69 170.467 1091.97 147.805 1091.97 121.602C1091.97 88.7372 1064.48 80.819 1039.75 73.6967C1019.55 67.8757 1001.18 62.5864 1001.18 44.6443C1001.18 31.6607 1013.75 22.4541 1031.29 22.4541C1047.17 22.4541 1063.29 29.3 1073.72 40.6311L1087.23 22.9262C1076.56 9.94263 1053.81 0.5 1032.95 0.5Z" fill="#12110D"/>
<path d="M322.752 2.86065V71.5557H235.993V2.86065H213V168.107H235.993V93.2738H322.752V168.107H345.745V2.86065H322.752Z" fill="#12110D"/>
<path d="M457.118 52.9066V130.572C450.718 141.903 437.68 148.985 424.168 148.985C405.916 148.985 393.827 136.002 393.827 115.7V52.9066H371.781V119.005C371.781 150.166 390.508 170.467 419.191 170.467C435.073 170.467 450.006 162.913 457.118 151.346V168.107H478.926V52.9066H457.118Z" fill="#12110D"/>
<path d="M599.573 71.0836C607.395 60.6967 621.381 50.5459 638.922 50.5459C667.131 50.5459 686.094 69.1951 686.094 98.4672V168.107H664.286V102.244C664.286 82.8869 653.145 70.8475 635.366 70.8475C623.277 70.8475 611.188 79.1098 605.262 89.0246C605.736 91.1487 605.973 93.5088 606.21 95.8689L606.21 95.8705V168.107H584.402V102.244C584.402 82.8869 573.024 70.8475 555.956 70.8475C542.919 70.8475 532.015 78.1656 526.563 88.7885V168.107H504.518V52.9066H526.563V69.1951C532.252 60.9328 543.867 50.5459 562.831 50.5459C579.898 50.5459 592.224 57.3918 599.573 71.0836Z" fill="#12110D"/>
<path fill-rule="evenodd" clip-rule="evenodd" d="M798.454 52.9066V69.6672C792.291 58.8082 776.171 50.5459 759.815 50.5459C727.814 50.5459 703.399 76.7492 703.399 110.507C703.399 144.264 727.814 170.467 759.815 170.467C775.934 170.467 792.053 162.205 798.454 151.346V168.107H820.499V52.9066H798.454ZM764.082 149.93C741.8 149.93 724.733 132.933 724.733 110.507C724.733 87.8443 741.8 71.0836 764.082 71.0836C778.305 71.0836 792.291 79.1098 798.454 90.441V130.808C792.291 141.903 778.305 149.93 764.082 149.93Z" fill="#12110D"/>
<path d="M867.815 69.6672C874.927 58.1 889.861 50.5459 905.506 50.5459C934.425 50.5459 952.915 70.8475 952.915 102.244V168.107H931.107V105.313C931.107 85.0115 919.017 72.0279 900.528 72.0279C887.253 72.0279 874.216 79.1098 867.815 90.441V168.107H845.77V52.9066H867.815V69.6672Z" fill="#12110D"/>
<path d="M1135.48 168.107H1113.43V52.9066H1135.48V168.107Z" fill="#12110D"/>
<path fill-rule="evenodd" clip-rule="evenodd" d="M1251.64 52.9066V69.4312C1245.48 58.5721 1229.36 50.5459 1213 50.5459C1181 50.5459 1156.59 76.2771 1156.59 109.326C1156.59 142.611 1181 168.343 1213 168.343C1229.12 168.343 1245.24 160.316 1251.64 149.693V163.857C1251.64 183.215 1236.71 196.907 1216.8 196.907C1200.44 196.907 1185.51 191.477 1176.73 182.034L1165.59 196.907C1175.55 209.182 1196.88 216.5 1217.27 216.5C1249.98 216.5 1273.69 195.726 1273.69 164.093V52.9066H1251.64ZM1217.27 148.041C1194.99 148.041 1177.92 131.516 1177.92 109.326C1177.92 87.1361 1194.99 70.8475 1217.27 70.8475C1231.49 70.8475 1245.48 78.6377 1251.64 89.7328V129.392C1245.48 140.251 1231.49 148.041 1217.27 148.041Z" fill="#12110D"/>
<path d="M1320 69.6672C1327.11 58.1 1342.05 50.5459 1357.69 50.5459C1386.61 50.5459 1405.1 70.8475 1405.1 102.244V168.107H1383.29V105.313C1383.29 85.0115 1371.2 72.0279 1352.72 72.0279C1339.44 72.0279 1326.4 79.1098 1320 90.441V168.107H1297.96V52.9066H1320V69.6672Z" fill="#12110D"/>
<path fill-rule="evenodd" clip-rule="evenodd" d="M1517.59 52.9066V69.6672C1511.42 58.8082 1495.3 50.5459 1478.95 50.5459C1446.95 50.5459 1422.53 76.7492 1422.53 110.507C1422.53 144.264 1446.95 170.467 1478.95 170.467C1495.07 170.467 1511.19 162.205 1517.59 151.346V168.107H1539.63V52.9066H1517.59ZM1483.21 149.93C1460.93 149.93 1443.86 132.933 1443.86 110.507C1443.86 87.8443 1460.93 71.0836 1483.21 71.0836C1497.44 71.0836 1511.42 79.1098 1517.59 90.441V130.808C1511.42 141.903 1497.44 149.93 1483.21 149.93Z" fill="#12110D"/>
<path d="M1564.9 2.86065H1586.95V168.107H1564.9V2.86065Z" fill="#12110D"/>
<path d="M1124.45 9C1117.59 9 1111.95 14.8468 1111.95 21.5C1111.95 28.3548 1117.59 34 1124.45 34C1131.1 34 1136.95 28.3548 1136.95 21.5C1136.95 14.8468 1131.1 9 1124.45 9Z" fill="#12110D"/>
</svg>
