<svg width="187" height="28" viewBox="0 0 187 28" fill="none" xmlns="http://www.w3.org/2000/svg">
<g clip-path="url(#clip0_2060_275)">
<path fill-rule="evenodd" clip-rule="evenodd" d="M3.08891 0H11.6868L8.59795 12.0864H0L3.08891 0ZM7.02007 12.0866L3.39659 26.3996L16.5964 12.0866H7.02007Z" fill="black"/>
<path d="M19.6271 0H28.225L21.3765 26.7972H12.7786L19.6271 0Z" fill="black"/>
<path fill-rule="evenodd" clip-rule="evenodd" d="M162.338 23.3086C160.47 23.3086 159.013 22.6604 157.967 21.3638C156.929 20.0674 156.41 18.2569 156.41 15.9323C156.41 13.5809 156.929 11.7569 157.967 10.4605C159.004 9.16407 160.461 8.51586 162.338 8.51586C164.815 8.51586 166.509 9.45018 167.421 11.3188H167.623V2.82947H170.479V23.0403H167.944L167.623 20.4921H167.421C166.965 21.3862 166.291 22.0791 165.396 22.5709C164.512 23.0626 163.492 23.3086 162.338 23.3086ZM163.25 20.975C164.565 20.975 165.62 20.586 166.416 19.8082C167.221 19.0303 167.623 18.0021 167.623 16.7235V15.1008C167.623 13.8223 167.221 12.7941 166.416 12.0162C165.62 11.2384 164.565 10.8494 163.25 10.8494C162.044 10.8494 161.087 11.1802 160.38 11.8419C159.675 12.4945 159.321 13.3976 159.321 14.551V17.2734C159.321 18.4179 159.665 19.3209 160.354 19.9825C161.042 20.6441 162.008 20.975 163.25 20.975ZM42.6391 23.0403H39.6484V3.01723H42.6391V11.5602H53.4888V3.01723H56.4796V23.0403H53.4888V14.0547H42.6391V23.0403ZM64.4062 21.2566L58.4516 8.59632H61.5227L63.5076 13.2366L65.7071 18.5073H65.868L68.1211 13.2366L70.1194 8.59632H73.1772L67.2912 21.2566L64.4062 27.627H61.6032L64.4062 21.2566ZM74.8273 27.627H77.657V20.3178H77.8449C78.7836 22.2043 80.4779 23.1476 82.9277 23.1476C84.8053 23.1476 86.2672 22.4994 87.3132 21.203C88.3592 19.9066 88.8824 18.0826 88.8824 15.7312C88.8824 13.3886 88.3592 11.5692 87.3132 10.2727C86.2672 8.96737 84.8053 8.31469 82.9277 8.31469C81.7743 8.31469 80.7506 8.56503 79.8566 9.06572C78.9714 9.55747 78.3008 10.2504 77.8449 11.1445H77.657L77.3217 8.59632H74.8273V27.627ZM84.8857 19.835C84.1794 20.4877 83.2227 20.814 82.0157 20.814C80.7103 20.814 79.6553 20.4251 78.8507 19.6472C78.055 18.8694 77.657 17.8412 77.657 16.5627V14.913C77.657 13.6346 78.055 12.6108 78.8507 11.8419C79.6464 11.064 80.7015 10.6751 82.0157 10.6751C83.2496 10.6751 84.2107 11.0104 84.8991 11.681C85.5966 12.3426 85.9453 13.2366 85.9453 14.3631V17.1125C85.9453 18.2659 85.5921 19.1734 84.8857 19.835ZM90.8274 15.7847C90.8274 13.4512 91.4399 11.6228 92.6648 10.2996C93.8897 8.97632 95.5572 8.31469 97.6672 8.31469C99.6611 8.31469 101.244 8.90032 102.415 10.0716C103.604 11.2607 104.199 12.8656 104.199 14.8863C104.199 15.3601 104.163 15.8786 104.091 16.4419H93.7377V17.2466C93.7377 18.3911 94.1044 19.3165 94.8375 20.0228C95.5706 20.7202 96.5317 21.0688 97.7209 21.0688C98.6597 21.0688 99.4599 20.8498 100.122 20.4117C100.792 19.9735 101.239 19.3834 101.463 18.6414H104.252C103.966 20.054 103.224 21.1851 102.026 22.0344C100.837 22.8838 99.3929 23.3086 97.6941 23.3086C95.5662 23.3086 93.8897 22.6335 92.6648 21.2835C91.4399 19.9334 90.8274 18.1004 90.8274 15.7847ZM93.7377 14.0815V14.4168H101.342V13.9475C101.342 12.9371 101.002 12.1235 100.323 11.5066C99.6432 10.8807 98.7491 10.5678 97.6404 10.5678C96.487 10.5678 95.5482 10.8941 94.8241 11.5468C94.0998 12.1906 93.7377 13.0355 93.7377 14.0815ZM114.566 8.59632H109.564C108.643 8.59632 107.994 8.81091 107.619 9.24007C107.252 9.66924 107.069 10.2772 107.069 11.064V23.0403H109.899V10.9567H114.566V8.59632ZM119.381 23.0403H116.551V8.59632H118.992L119.381 11.2786H119.596C120.419 9.30266 121.876 8.31469 123.968 8.31469C125.005 8.31469 125.89 8.59632 126.623 9.1596C127.357 9.71393 127.87 10.4694 128.165 11.4261H128.394C129.278 9.35183 130.843 8.31469 133.087 8.31469C134.608 8.31469 135.784 8.82433 136.614 9.84358C137.446 10.8539 137.861 12.2755 137.861 14.1083V23.0403H135.032V14.4436C135.032 11.9492 134.053 10.7019 132.095 10.7019C131.004 10.7019 130.154 11.1132 129.547 11.9358C128.939 12.7494 128.635 13.858 128.635 15.2617V23.0403H125.778V14.4973C125.778 11.967 124.817 10.7019 122.895 10.7019C121.831 10.7019 120.977 11.1132 120.333 11.9358C119.699 12.7583 119.381 13.858 119.381 15.2349V23.0403ZM140.464 15.8116C140.464 18.1273 141.086 19.9601 142.329 21.3103C143.58 22.6424 145.292 23.3086 147.465 23.3086C149.646 23.3086 151.359 22.6335 152.601 21.2835C153.845 19.9334 154.465 18.1094 154.465 15.8116C154.465 13.478 153.818 11.6496 152.521 10.3264C151.234 8.98526 149.548 8.31469 147.465 8.31469C145.319 8.31469 143.615 8.98526 142.355 10.3264C141.094 11.6676 140.464 13.496 140.464 15.8116ZM143.347 16.9918V14.7521C143.347 13.5362 143.727 12.5571 144.488 11.815C145.248 11.0729 146.24 10.7019 147.465 10.7019C148.672 10.7019 149.655 11.0774 150.416 11.8284C151.175 12.5706 151.556 13.5451 151.556 14.7521V16.9918C151.556 18.2166 151.175 19.1823 150.416 19.8886C149.665 20.595 148.681 20.9482 147.465 20.9482C146.24 20.9482 145.248 20.5994 144.488 19.902C143.727 19.1957 143.347 18.2256 143.347 16.9918ZM175.079 10.2996C173.855 11.6228 173.243 13.4512 173.243 15.7847C173.243 18.1004 173.855 19.9334 175.079 21.2835C176.304 22.6335 177.981 23.3086 180.109 23.3086C181.807 23.3086 183.252 22.8838 184.441 22.0344C185.639 21.1851 186.381 20.054 186.667 18.6414H183.877C183.654 19.3834 183.207 19.9735 182.537 20.4117C181.875 20.8498 181.075 21.0688 180.136 21.0688C178.947 21.0688 177.985 20.7202 177.253 20.0228C176.519 19.3165 176.153 18.3911 176.153 17.2466V16.4419H186.507C186.578 15.8786 186.613 15.3601 186.613 14.8863C186.613 12.8656 186.019 11.2607 184.83 10.0716C183.659 8.90032 182.076 8.31469 180.082 8.31469C177.973 8.31469 176.304 8.97632 175.079 10.2996ZM176.153 14.4168V14.0815C176.153 13.0355 176.514 12.1906 177.239 11.5468C177.963 10.8941 178.902 10.5678 180.055 10.5678C181.165 10.5678 182.058 10.8807 182.737 11.5066C183.417 12.1235 183.757 12.9371 183.757 13.9475V14.4168H176.153Z" fill="black"/>
</g>
<defs>
<clipPath id="clip0_2060_275">
<rect width="186.667" height="28" fill="white"/>
</clipPath>
</defs>
</svg>
