<svg width="141" height="32" viewBox="0 0 141 32" fill="none" xmlns="http://www.w3.org/2000/svg">
<path fill-rule="evenodd" clip-rule="evenodd" d="M29.4531 3.83129C30.5584 5.87608 31.4426 7.72745 31.4703 7.89324C31.4703 8.1143 31.111 8.25246 30.5584 8.25246C29.6742 8.25246 29.5913 8.16957 27.9886 5.07474L26.3583 1.89702H13.7579L15.1672 4.66026L16.6041 7.39586L23.595 7.56166L25.6122 11.3749C26.7175 13.475 27.5465 15.2987 27.4636 15.4645C27.353 15.6027 25.4188 15.7132 23.0977 15.7132H18.8975L15.1672 8.61168C13.1224 4.68789 11.3815 1.34438 11.3539 1.12332C11.05 -0.0372385 11.1881 -0.0372385 19.5055 0.0180253L27.4636 0.100924L29.4531 3.83129ZM8.97753 3.38917C10.5249 4.71552 9.69597 7.14717 7.67881 7.14717C5.57875 7.14717 4.99847 3.80366 6.96037 3.00232C7.89987 2.61547 8.17619 2.67073 8.97753 3.38917ZM74.6043 7.2577C77.257 7.72745 78.8873 8.44589 80.3519 9.79988C82.148 11.4025 82.673 12.646 82.8111 15.6027C83.0046 19.8304 81.6782 22.3726 78.4729 23.9753C75.9583 25.2464 74.328 25.5227 69.4647 25.5227C63.6343 25.5227 61.1198 24.8042 58.7434 22.4831C57.0578 20.8528 56.5328 19.3607 56.5052 16.2382C56.4775 13.8342 56.5604 13.475 57.3065 11.9828C58.6052 9.44065 61.2303 7.81035 64.9883 7.1748C67.2265 6.81558 72.2832 6.84321 74.6043 7.2577ZM133.848 7.50639C135.451 7.94851 136.805 8.61168 138.048 9.55118C139.015 10.2973 140.342 12.6736 140.342 13.696C140.342 14.3316 140.286 14.3316 137.385 14.3316H134.401L133.931 13.475C133.074 12.0105 131.334 11.4302 127.631 11.4302C124.868 11.4302 124.287 11.5131 123.293 12.0657C121.883 12.8118 121.275 13.6408 121.082 15.1329C120.695 17.8961 122.132 20.0791 124.812 20.8528C128.156 21.8199 132.577 20.8252 133.848 18.808L134.401 17.9514L137.413 17.9238H140.425L140.231 19.0567C139.982 20.6594 139.43 21.5713 137.965 22.87C135.782 24.7766 132.549 25.6608 127.631 25.6608C122.768 25.6608 119.175 24.445 117.158 22.1792C115.694 20.5212 115.196 18.9185 115.196 15.9895C115.196 13.8618 115.307 13.3921 116.053 11.8723C116.523 10.9604 117.296 9.88277 117.794 9.49592C119.092 8.50115 121.496 7.47876 123.21 7.1748C125.282 6.81558 132.135 7.00901 133.848 7.50639ZM55.7867 7.14717V25.3845H50.2602V7.14717H55.7867ZM90.189 7.14717L101.656 18.6146V7.14717H107.183V25.3845H104.503L101.795 25.3569L95.7154 19.4712L89.6363 13.5579L89.5534 19.4712L89.4982 25.3845H83.9717V7.14717H90.189ZM114.091 7.14717V25.3845H108.288V7.14717H114.091ZM5.82744 8.08667C6.10377 8.69458 5.91034 9.0538 4.00371 11.6789C2.84315 13.2539 1.90365 14.6355 1.90365 14.7461C1.90365 15.05 8.0933 26.7661 8.25909 26.7661C8.34199 26.7661 9.17096 25.6608 10.1105 24.3621L11.8237 21.9581L10.1934 18.7804C9.28149 17.0395 8.53541 15.4921 8.53541 15.354C8.53541 14.8842 13.5369 8.25246 13.8961 8.25246C14.2 8.25246 17.9028 14.9119 18.1515 15.9343C18.2067 16.1 16.1067 19.2501 13.454 22.8976C9.41965 28.507 8.56305 29.5294 8.03803 29.4465C7.51302 29.3912 6.76694 28.1754 3.58922 22.0686C0.356242 15.9066 -0.196404 14.6632 0.0522861 14.1934C0.411507 13.475 3.75502 8.86037 4.47346 8.0314C5.1919 7.2577 5.44059 7.2577 5.82744 8.08667ZM33.8743 10.0762C34.4545 10.6565 34.5374 10.9604 34.3993 11.7894C34.2335 12.95 33.3769 13.7789 32.3821 13.7789C31.4426 13.7789 30.365 12.6184 30.365 11.5683C30.365 10.5183 31.4426 9.35775 32.4374 9.35775C32.8519 9.35775 33.4598 9.66171 33.8743 10.0762ZM34.7861 16.9566C35.0901 17.3159 35.0348 17.5369 34.4822 18.3106C34.123 18.808 31.9676 21.7923 29.6742 24.9148L25.5293 30.6347H22.02C18.3173 30.6347 18.0409 30.5241 18.8699 29.4741C19.1739 29.0596 19.6712 28.9767 21.8542 28.9767H24.4793L28.1267 23.9753C30.1439 21.2397 31.8571 18.808 31.94 18.587C32.0505 18.283 31.6084 18.2001 29.4531 18.2001H26.828L22.3516 24.2792H18.3449C15.0566 24.2792 14.2829 24.1963 14.1724 23.8647C14.0066 23.4779 14.2829 23.0358 17.5988 18.5317L19.0633 16.5422H26.7451C33.294 16.5422 34.4822 16.5974 34.7861 16.9566ZM15.858 28.2859C16.7422 29.1425 16.7699 30.4965 15.9409 31.3807C14.7803 32.5966 12.8461 31.9334 12.5145 30.1649C12.3763 29.4188 12.4868 29.1425 13.1776 28.4241C14.2 27.4293 14.9737 27.374 15.858 28.2859ZM65.762 11.8171C64.9606 12.0934 63.9106 12.7289 63.4409 13.1987C62.6948 13.9171 62.5566 14.2763 62.4737 15.8514C62.3632 17.4264 62.4461 17.7856 63.054 18.7251C63.4685 19.3607 64.2698 20.0239 65.0988 20.4383C66.2594 21.0186 66.812 21.1015 69.6029 21.1015C72.5319 21.1015 72.9188 21.0463 74.3556 20.3278C76.3728 19.333 77.2294 17.8133 76.9807 15.6856C76.6215 12.7013 74.7425 11.5131 70.1555 11.3749C67.8344 11.292 66.9502 11.3749 65.762 11.8171Z" fill="black"/>
</svg>
