<svg width="315" height="158" viewBox="0 0 315 158" fill="none" xmlns="http://www.w3.org/2000/svg">
<g clip-path="url(#clip0_1440_573)">
<path fill-rule="evenodd" clip-rule="evenodd" d="M69.0645 126.039C68.2561 126.444 67.9305 127.096 67.9305 127.985V146.123C67.9305 147.013 68.2561 147.583 69.0645 148.069L84.4302 156.787C84.7825 156.962 85.1707 157.053 85.5642 157.053C85.9577 157.053 86.3459 156.962 86.6982 156.787L102.064 148.069C102.878 147.583 103.198 147.013 103.198 146.123V127.985C103.198 126.934 102.707 126.363 102.064 126.039L86.6982 117.321C86.3459 117.146 85.9577 117.055 85.5642 117.055C85.1707 117.055 84.7825 117.146 84.4302 117.321L69.0645 126.039ZM99.0554 133.251C91.7632 133.289 85.86 139.389 85.86 146.912V147.231H85.293V146.912C85.293 139.389 79.3789 133.289 72.0732 133.251C72.0241 133.729 71.9997 134.209 71.9999 134.689C71.9999 140.572 75.6162 145.588 80.6811 147.512C82.2431 148.092 83.8972 148.388 85.5643 148.385C87.231 148.384 88.8843 148.088 90.4474 147.512C95.5097 145.588 99.1286 140.572 99.1286 134.689C99.1289 134.209 99.1044 133.729 99.0554 133.251ZM88.6338 126.745C90.3289 128.434 90.3289 131.171 88.6338 132.86C86.9387 134.549 84.1904 134.549 82.4953 132.86C80.8002 131.171 80.8002 128.434 82.4953 126.745C84.1904 125.056 86.9387 125.056 88.6338 126.745Z" fill="#5F1E5C"/>
<path d="M112.983 126.306C112.982 126.202 113.001 126.099 113.041 126.003C113.081 125.907 113.139 125.819 113.213 125.747C113.288 125.674 113.376 125.616 113.473 125.578C113.57 125.54 113.674 125.522 113.778 125.525H116.648C116.856 125.527 117.054 125.61 117.2 125.756C117.347 125.902 117.43 126.1 117.432 126.306V135.081L125.652 125.849C125.724 125.751 125.817 125.67 125.925 125.614C126.032 125.558 126.152 125.527 126.274 125.525H129.529C129.667 125.52 129.804 125.556 129.921 125.629C130.038 125.702 130.131 125.808 130.188 125.933C130.244 126.059 130.262 126.199 130.238 126.334C130.215 126.47 130.151 126.596 130.055 126.695L121.532 136.251L130.666 147.136C130.745 147.243 130.793 147.37 130.804 147.503C130.815 147.635 130.788 147.768 130.727 147.886C130.666 148.005 130.573 148.104 130.459 148.172C130.345 148.241 130.213 148.276 130.08 148.274H126.529C126.42 148.284 126.311 148.269 126.209 148.229C126.107 148.19 126.016 148.127 125.943 148.047L117.422 137.583V147.493C117.419 147.699 117.336 147.897 117.19 148.043C117.043 148.189 116.845 148.272 116.638 148.274H113.778C113.675 148.275 113.572 148.256 113.476 148.218C113.381 148.179 113.294 148.121 113.221 148.048C113.147 147.976 113.09 147.889 113.051 147.794C113.012 147.698 112.993 147.596 112.994 147.493L112.983 126.306Z" fill="#5F1E5C"/>
<path d="M133.039 126.241C133.052 126.055 133.131 125.88 133.264 125.748C133.396 125.616 133.572 125.537 133.758 125.525H136.401C136.589 125.532 136.767 125.61 136.9 125.743C137.033 125.876 137.11 126.054 137.117 126.241V134.202C137.868 133.551 139.173 132.935 140.966 132.935C145.763 132.935 147.068 136.251 147.068 140.021V147.56C147.061 147.748 146.983 147.927 146.85 148.059C146.716 148.192 146.537 148.27 146.349 148.277H143.706C143.517 148.275 143.335 148.198 143.201 148.064C143.067 147.93 142.992 147.75 142.99 147.56V139.994C142.99 137.916 142.043 136.648 140.25 136.648C138.457 136.648 137.508 137.753 137.117 139.28V147.56C137.117 147.985 136.922 148.277 136.336 148.277H133.758C133.57 148.27 133.391 148.192 133.257 148.059C133.124 147.927 133.046 147.748 133.039 147.56V126.241Z" fill="#5F1E5C"/>
<path d="M155.361 138.786C156.345 138.797 157.323 138.939 158.269 139.208C158.334 137.289 157.781 136.381 156.183 136.381C154.753 136.401 153.329 136.582 151.94 136.921C151.452 137.083 151.159 136.727 151.094 136.273L150.763 134.589C150.728 134.498 150.713 134.4 150.719 134.303C150.725 134.205 150.752 134.11 150.798 134.024C150.845 133.938 150.909 133.863 150.987 133.803C151.065 133.744 151.155 133.703 151.251 133.681C152.926 133.196 154.661 132.944 156.405 132.932C161.104 132.932 162.081 135.365 162.081 139.464V147.561C162.079 147.75 162.004 147.931 161.87 148.065C161.736 148.199 161.554 148.275 161.365 148.277H160.255C159.984 148.277 159.799 148.18 159.601 147.758L159.178 146.75C158.554 147.362 157.815 147.844 157.003 148.169C156.191 148.493 155.322 148.654 154.447 148.642C151.446 148.642 149.357 146.726 149.357 143.507C149.357 140.832 151.544 138.786 155.361 138.786ZM155.459 145.61C156.796 145.61 157.971 144.569 158.172 144.018V141.807C157.467 141.514 156.713 141.357 155.95 141.345C154.219 141.345 153.272 142.156 153.272 143.488C153.272 144.764 154.056 145.61 155.459 145.61Z" fill="#5F1E5C"/>
<path d="M165.475 133.975C165.475 133.786 165.551 133.605 165.685 133.471C165.819 133.337 166.001 133.261 166.191 133.259H167.431C167.572 133.246 167.714 133.285 167.829 133.369C167.944 133.453 168.023 133.577 168.052 133.716L168.594 135.113C169.186 134.406 169.932 133.842 170.775 133.464C171.619 133.087 172.537 132.906 173.461 132.935C178.258 132.935 179.497 136.151 179.497 139.791V147.56C179.49 147.748 179.412 147.926 179.279 148.059C179.145 148.191 178.967 148.269 178.779 148.277H176.136C175.946 148.274 175.765 148.198 175.631 148.064C175.497 147.93 175.421 147.749 175.42 147.56V139.791C175.42 137.843 174.636 136.64 172.81 136.64C172.085 136.622 171.375 136.841 170.787 137.264C170.199 137.687 169.766 138.289 169.555 138.98V147.56C169.555 148.114 169.327 148.277 168.608 148.277H166.194C166.005 148.269 165.827 148.191 165.694 148.058C165.562 147.926 165.484 147.748 165.477 147.56L165.475 133.975Z" fill="#5F1E5C"/>
<path d="M187.213 147.428L197.359 125.557C197.404 125.451 197.479 125.361 197.576 125.297C197.673 125.234 197.786 125.2 197.902 125.201H198.23C198.347 125.194 198.463 125.225 198.561 125.289C198.658 125.354 198.733 125.448 198.772 125.557L208.81 147.428C208.859 147.518 208.883 147.62 208.88 147.722C208.876 147.825 208.845 147.924 208.79 148.011C208.734 148.097 208.656 148.167 208.565 148.214C208.473 148.26 208.37 148.281 208.267 148.274H205.449C204.96 148.274 204.733 148.08 204.505 147.623L202.904 144.11H193.151L191.553 147.623C191.484 147.817 191.355 147.984 191.185 148.101C191.016 148.217 190.813 148.278 190.607 148.274H187.769C187.665 148.282 187.561 148.263 187.468 148.217C187.375 148.172 187.296 148.102 187.239 148.016C187.182 147.929 187.149 147.829 187.145 147.726C187.14 147.622 187.164 147.519 187.213 147.428V147.428ZM201.306 140.507L198.051 133.357H197.953L194.749 140.507H201.306Z" fill="#5F1E5C"/>
<path d="M217.239 132.935C219.588 132.935 221.414 133.943 222.849 135.47C223.174 135.794 223.012 136.219 222.686 136.551L221.316 138.045C220.991 138.402 220.633 138.24 220.337 137.948C219.621 137.264 218.739 136.648 217.336 136.648C214.987 136.648 213.357 138.467 213.357 140.775C213.357 143.083 214.954 144.934 217.304 144.934C218.967 144.934 219.849 144.026 220.5 143.277C220.617 143.147 220.779 143.065 220.954 143.047C221.129 143.029 221.305 143.076 221.446 143.18L222.914 144.415C223.275 144.739 223.438 145.096 223.185 145.496C221.913 147.477 219.892 148.647 217.217 148.647C212.811 148.647 209.257 145.301 209.257 140.783C209.247 136.348 212.768 132.935 217.239 132.935Z" fill="#5F1E5C"/>
<path d="M231.197 138.786C232.179 138.798 233.155 138.939 234.099 139.208C234.165 137.289 233.611 136.381 232.013 136.381C230.583 136.401 229.16 136.582 227.77 136.921C227.282 137.083 226.989 136.727 226.924 136.273L226.596 134.589C226.561 134.498 226.546 134.4 226.553 134.302C226.56 134.205 226.587 134.11 226.634 134.024C226.68 133.938 226.745 133.863 226.823 133.803C226.901 133.744 226.991 133.703 227.087 133.681C228.762 133.196 230.497 132.944 232.241 132.932C236.94 132.932 237.916 135.365 237.916 139.464V147.561C237.915 147.75 237.839 147.931 237.705 148.065C237.571 148.199 237.39 148.275 237.2 148.277H236.091C235.819 148.277 235.632 148.18 235.437 147.758L235.014 146.75C234.39 147.362 233.651 147.844 232.839 148.169C232.026 148.493 231.157 148.654 230.282 148.642C227.282 148.642 225.193 146.726 225.193 143.507C225.193 140.832 227.38 138.786 231.197 138.786ZM231.294 145.61C232.632 145.61 233.806 144.569 234.007 144.018V141.807C233.303 141.515 232.55 141.358 231.788 141.345C230.06 141.345 229.113 142.156 229.113 143.488C229.108 144.764 229.889 145.61 231.294 145.61V145.61Z" fill="#5F1E5C"/>
<path d="M247.946 132.935C249.179 132.941 250.402 133.149 251.567 133.551V126.255C251.58 126.069 251.659 125.894 251.792 125.762C251.924 125.63 252.1 125.551 252.286 125.539H254.929C255.117 125.546 255.295 125.624 255.428 125.757C255.561 125.89 255.638 126.067 255.645 126.255V147.561C255.644 147.75 255.568 147.931 255.434 148.065C255.3 148.199 255.118 148.275 254.929 148.277H253.721C253.361 148.277 253.133 147.985 253.003 147.561L252.612 146.391C252.001 147.096 251.245 147.663 250.395 148.051C249.545 148.44 248.621 148.641 247.685 148.642C243.575 148.642 240.469 145.318 240.469 140.767C240.469 136.381 243.453 132.935 247.946 132.935ZM251.567 137.486C250.622 136.922 249.539 136.629 248.437 136.64C245.957 136.64 244.685 138.654 244.685 140.767C244.685 142.88 245.892 144.926 248.239 144.926C250.197 144.926 251.242 143.691 251.567 142.848V137.486Z" fill="#5F1E5C"/>
<path d="M265.856 132.935C269.771 132.935 272.771 135.827 272.771 139.889C272.771 140.118 272.739 140.637 272.706 140.864C272.687 141.044 272.605 141.211 272.474 141.337C272.343 141.462 272.171 141.537 271.99 141.548H262.332C262.365 143.399 263.897 145.023 266.084 145.023C267.257 145.044 268.401 144.654 269.315 143.921C269.673 143.626 270.064 143.594 270.292 143.921L271.564 145.61C271.633 145.673 271.687 145.752 271.721 145.839C271.756 145.926 271.771 146.019 271.765 146.113C271.758 146.206 271.731 146.297 271.685 146.379C271.639 146.461 271.576 146.531 271.499 146.585C269.94 147.923 267.947 148.654 265.889 148.642C261.385 148.642 258.255 145.066 258.255 140.778C258.255 136.543 261.385 132.935 265.856 132.935ZM268.661 138.881C268.596 137.416 267.421 136.281 265.758 136.281C263.93 136.281 262.758 137.383 262.56 138.881H268.661Z" fill="#5F1E5C"/>
<path d="M275.194 133.976C275.195 133.786 275.27 133.605 275.404 133.471C275.538 133.337 275.72 133.261 275.91 133.259H277.085C277.222 133.246 277.36 133.281 277.473 133.358C277.587 133.436 277.67 133.551 277.706 133.684L278.249 135.113C278.796 134.42 279.498 133.863 280.298 133.485C281.098 133.107 281.975 132.919 282.861 132.935C285.047 132.935 286.116 133.716 287.361 135.211C288.015 134.527 289.515 132.935 292.223 132.935C297.052 132.935 298.191 135.989 298.191 139.889V147.561C298.189 147.657 298.168 147.752 298.13 147.84C298.091 147.928 298.035 148.008 297.965 148.075C297.895 148.141 297.813 148.193 297.723 148.228C297.632 148.263 297.536 148.279 297.44 148.277H294.83C294.64 148.275 294.459 148.199 294.325 148.065C294.191 147.931 294.115 147.75 294.114 147.561V139.791C294.114 137.843 293.395 136.64 291.504 136.64C289.317 136.64 288.696 138.2 288.696 138.2C288.696 138.2 288.761 138.948 288.761 139.629V147.561C288.754 147.748 288.677 147.926 288.544 148.059C288.411 148.192 288.233 148.269 288.045 148.277H285.37C285.275 148.279 285.18 148.262 285.092 148.227C285.004 148.192 284.924 148.139 284.857 148.072C284.789 148.005 284.737 147.925 284.701 147.837C284.666 147.75 284.649 147.655 284.651 147.561V139.791C284.651 137.843 284.108 136.64 282.171 136.64C280.313 136.64 279.627 137.94 279.269 138.981V147.561C279.262 147.748 279.184 147.926 279.052 148.059C278.919 148.192 278.741 148.269 278.553 148.277H275.907C275.72 148.269 275.542 148.191 275.41 148.058C275.278 147.925 275.201 147.748 275.194 147.561V133.976Z" fill="#5F1E5C"/>
<path d="M299.751 134.235C299.555 133.716 299.816 133.259 300.402 133.259H303.535C303.672 133.246 303.809 133.282 303.922 133.359C304.035 133.437 304.117 133.552 304.154 133.684L306.867 142.653H306.934L310.353 133.684C310.581 133.292 310.841 133.259 311.299 133.259H314.072C314.193 133.246 314.315 133.266 314.425 133.318C314.535 133.369 314.628 133.449 314.696 133.55C314.763 133.651 314.801 133.768 314.806 133.889C314.811 134.009 314.782 134.129 314.723 134.235L305.849 155.554C305.792 155.682 305.701 155.793 305.586 155.873C305.471 155.953 305.336 156 305.196 156.008H302.068C301.944 156.019 301.82 155.997 301.709 155.942C301.597 155.888 301.503 155.805 301.435 155.701C301.368 155.597 301.331 155.477 301.327 155.354C301.323 155.23 301.353 155.108 301.414 155L304.447 147.396L299.751 134.235Z" fill="#5F1E5C"/>
</g>
<path d="M25.749 143.206C26.1468 143.718 26.5801 144.081 27.0486 144.293C27.5261 144.496 28.0433 144.598 28.6003 144.598C29.7231 144.598 30.5984 144.191 31.2261 143.378C31.8538 142.565 32.1677 141.305 32.1677 139.598C32.1677 138.042 31.8936 136.906 31.3455 136.19C30.8061 135.474 30.0325 135.116 29.0246 135.116C28.3262 135.116 27.7161 135.275 27.1945 135.593C26.6817 135.903 26.1999 136.349 25.749 136.933L25.749 143.206ZM25.749 134.864C26.306 134.254 26.9293 133.768 27.6189 133.405C28.3085 133.043 29.0954 132.861 29.9795 132.861C30.7664 132.861 31.4737 133.016 32.1014 133.326C32.7379 133.626 33.2773 134.064 33.7193 134.638C34.1614 135.213 34.5018 135.912 34.7405 136.734C34.9792 137.547 35.0985 138.467 35.0985 139.492C35.0985 140.589 34.9615 141.588 34.6874 142.489C34.4222 143.382 34.0376 144.152 33.5337 144.797C33.0297 145.434 32.4197 145.929 31.7035 146.282C30.9874 146.627 30.1873 146.8 29.3031 146.8C28.8699 146.8 28.4765 146.755 28.1228 146.667C27.7692 146.587 27.4421 146.468 27.1415 146.309C26.8409 146.15 26.5624 145.96 26.306 145.739C26.0584 145.518 25.8197 145.266 25.5898 144.983L25.4705 146.03C25.4263 146.234 25.3467 146.38 25.2318 146.468C25.1168 146.556 24.9577 146.601 24.7543 146.601L22.8977 146.601L22.8977 126.973L25.749 126.973L25.749 134.864ZM49.5083 133.074L42.0552 150.447C41.9579 150.65 41.8386 150.809 41.6971 150.924C41.5645 151.039 41.3567 151.096 41.0738 151.096L38.9652 151.096L41.4584 145.686L35.9415 133.074L38.4215 133.074C38.6602 133.074 38.8414 133.131 38.9652 133.246C39.0978 133.352 39.1951 133.48 39.2569 133.631L42.4796 141.309C42.5591 141.53 42.6299 141.751 42.6917 141.972C42.7625 142.184 42.8288 142.405 42.8907 142.635C42.9614 142.405 43.0321 142.18 43.1029 141.959C43.1736 141.738 43.2532 141.517 43.3416 141.296L46.4316 133.631C46.4935 133.471 46.5951 133.339 46.7366 133.233C46.8869 133.127 47.0505 133.074 47.2273 133.074L49.5083 133.074Z" fill="#5F1E5C"/>
<path fill-rule="evenodd" clip-rule="evenodd" d="M2.64414 92.5693L0.00547496 10.743C-0.186085 4.8027 4.67437 -0.0673552 10.6151 0.112493L300.442 8.88666C305.931 9.05281 310.324 13.4938 310.432 18.9836L311.965 97.3533L312.393 108.129C312.577 112.761 307.028 115.26 303.681 112.054L290.568 99.4898C289.588 98.5507 288.277 98.0364 286.92 98.0586L13.1105 102.539C7.48477 102.631 2.82549 98.1928 2.64414 92.5693ZM49.2786 63.4713C49.3924 63.4819 49.4548 63.4277 49.4658 63.3088C49.4768 63.1899 49.4255 63.1251 49.3118 63.1146C49.198 63.104 49.1356 63.1582 49.1246 63.2771C49.1135 63.396 49.1649 63.4607 49.2786 63.4713ZM37.005 35.3464C37.0216 35.168 36.973 35.0736 36.8593 35.063C36.6886 35.0472 36.5951 35.1284 36.5785 35.3068C36.5675 35.4257 36.6472 35.4931 36.8179 35.5089C36.9316 35.5195 36.994 35.4653 37.005 35.3464ZM43.8064 49.2007C43.5221 49.1743 43.2212 49.3263 42.9037 49.6566C42.6431 49.9922 42.3707 50.1468 42.0863 50.1204C41.0682 49.9659 40.5738 50.04 40.603 50.3425C40.8195 50.4825 40.7405 50.7151 40.3662 51.0401C40.1111 51.3163 40.0266 51.6083 40.1128 51.9161C40.2558 52.2292 40.4979 52.4016 40.8391 52.4333C41.0097 52.4492 41.2353 52.7999 41.5158 53.4856C41.8586 54.1171 42.1466 54.4137 42.3796 54.3754C42.5612 54.2723 42.8263 54.5068 43.1747 55.0788C43.5855 55.5967 43.8762 55.8636 44.0468 55.8794C44.3825 55.9705 44.454 56.1271 44.2613 56.3491C44.1255 56.5763 44.0438 56.8386 44.0162 57.1359C44.051 57.379 44.2701 57.4893 44.6738 57.4668C45.1966 57.3954 45.7863 57.8399 46.4428 58.8004C46.7509 59.1888 47.0104 59.4828 47.2213 59.6822C47.4891 59.887 47.6542 59.9623 47.7166 59.9081L47.8706 60.1023L47.8375 60.4591C47.7934 60.9347 48.0079 61.4044 48.481 61.8681C49.1193 62.4071 49.7209 63.0326 50.2857 63.7447C50.9074 64.4621 51.2073 64.9397 51.1852 65.1775C51.1576 65.4747 51.3428 65.6419 51.7409 65.6788C52.0821 65.7105 52.3187 65.9423 52.4507 66.3744C52.5203 66.8606 52.7604 67.3626 53.1712 67.8805C53.428 68.2042 53.5224 68.4228 53.4545 68.5365C53.449 68.5959 53.304 68.6124 53.0197 68.586C52.7353 68.5596 52.562 68.5735 52.4996 68.6277C52.4941 68.6872 52.6197 68.8787 52.8764 69.2024C53.4926 69.9792 53.4145 70.5117 52.6421 70.7998C52.1706 70.9359 51.8357 71.1447 51.6375 71.4261C51.4448 71.6481 51.4824 71.8615 51.7502 72.0662C52.1775 72.4057 52.093 72.6977 51.4967 72.9422C51.2582 73.04 50.9684 73.0731 50.6271 73.0414C50.1722 72.9991 49.8713 73.1511 49.7244 73.4973C49.64 73.7893 49.4473 74.0113 49.1464 74.1632C48.6693 74.3588 48.4363 74.3971 48.4474 74.2782C48.4529 74.2188 48.5236 74.0754 48.6594 73.8482C48.8118 73.4425 48.8283 73.2642 48.7091 73.3131C48.6467 73.3672 48.5503 73.4782 48.42 73.646C48.1594 73.9816 47.8017 74.1283 47.3467 74.0861C46.6643 74.0227 45.9608 73.5676 45.2364 72.7208C44.5744 71.8198 44.1857 71.0641 44.0703 70.4537C44.0007 69.9675 43.7953 69.7086 43.4541 69.6769C43.1698 69.6505 43.2404 69.5071 43.6661 69.2468C43.5176 68.9932 43.358 68.8584 43.1874 68.8426C42.7893 68.8056 42.5133 68.69 42.3592 68.4958C42.2052 68.3016 42.0933 67.9614 42.0238 67.4752C41.9304 66.627 41.5536 66.0523 40.8932 65.7511C40.2329 65.45 40.0046 65.1289 40.2083 64.788C40.2817 64.6149 40.2643 64.4934 40.1561 64.4234C40.0534 64.2939 39.8883 64.2186 39.6609 64.1975C39.0922 64.1447 38.8216 63.9697 38.8492 63.6724C38.8768 63.3751 38.7366 63.0323 38.4285 62.6439C38.1204 62.2555 37.8242 62.0481 37.5398 62.0217C37.3123 62.0005 36.5054 61.1161 35.1189 59.3682L33.108 56.9327L32.7362 58.1575C32.5783 58.6226 32.4718 59.1524 32.4166 59.747C32.4679 59.8117 32.244 60.0608 31.7449 60.4942C31.2568 60.8087 31.155 60.9791 31.4393 61.0055C31.6099 61.0214 31.6676 61.3266 31.6124 61.9211C31.5186 62.9318 31.2423 63.7457 30.7835 64.3628C30.466 64.6931 30.4779 64.8741 30.8191 64.9058C31.1034 64.9322 31.2263 65.1535 31.1877 65.5697C31.1545 65.9264 30.9958 66.0916 30.7115 66.0652C30.3702 66.0335 30.283 66.3552 30.4498 67.0303L30.4249 67.2979C30.4763 67.3626 30.4992 67.4247 30.4937 67.4842C30.3667 68.8516 29.705 70.1095 28.5086 71.2577C28.0095 71.6911 27.305 71.8656 26.3951 71.7811C25.7695 71.723 25.3824 71.5672 25.2339 71.3135C25.1423 71.0651 24.6699 70.9014 23.8169 70.8222C22.6281 70.6518 21.7119 70.3269 21.0681 69.8473C20.8572 69.6479 20.7959 69.0725 20.8842 68.1212C21.0222 66.6348 21.2894 65.6102 21.6858 65.0473C22.0767 64.5439 22.1951 64.1951 22.0411 64.0009C21.9897 63.9362 21.9696 63.8443 21.9806 63.7254C22.054 63.5523 22.1247 63.409 22.1926 63.2953C22.4532 62.9597 22.6304 62.2866 22.7243 61.2758C22.8181 60.2651 23.0724 59.689 23.487 59.5476C23.7934 59.3362 23.9963 58.6954 24.0957 57.6252C24.195 56.555 24.33 56.0278 24.5006 56.0437C24.785 56.0701 24.8071 55.8322 24.5669 55.3302C24.3322 54.7687 24.3653 54.412 24.6662 54.26C24.9103 54.1028 24.9837 53.9297 24.8865 53.7408C24.7893 53.5518 25.0463 52.946 25.6575 51.9234C26.065 51.2416 26.2935 50.6331 26.3432 50.098L26.3846 49.6521C26.4343 49.117 26.5353 48.6467 26.6877 48.2411C26.9759 47.6082 26.9861 47.1893 26.7183 46.9846C26.4395 46.8987 26.4845 46.723 26.8533 46.4574C27.2166 46.2513 27.6094 45.4182 28.0318 43.9582C28.7423 41.8653 29.1169 40.6108 29.1555 40.1946C29.1666 40.0757 29.2969 39.9079 29.5464 39.6912C29.7336 39.5287 29.8741 38.9421 29.9679 37.9313C30.0618 36.9206 30.3271 36.2256 30.7638 35.8464C31.1436 35.4619 31.2309 35.1402 31.0255 34.8812C30.9228 34.7517 30.8769 34.6276 30.888 34.5086C30.9156 34.2114 31.1679 33.9649 31.6449 33.7694C32.1275 33.5143 32.6531 33.4132 33.2218 33.466C34.0748 33.5452 34.5152 33.4362 34.5428 33.1389C34.5648 32.9011 34.7042 32.944 34.961 33.2677C35.2177 33.5913 35.5736 33.7743 36.0285 33.8165C36.4266 33.8535 36.7311 33.9717 36.9421 34.1712C37.2098 34.376 37.4097 34.6944 37.5417 35.1264C37.6792 35.4989 37.7626 35.8365 37.7918 36.1391C37.8266 36.3822 37.8448 36.8036 37.8465 37.4035C37.9051 38.0086 37.9545 38.403 37.9948 38.5866C38.0461 38.6513 38.0635 38.7729 38.047 38.9512C38.0194 39.2485 37.8101 39.6489 37.4192 40.1523C37.0339 40.5962 36.8301 40.9371 36.808 41.175L36.717 42.156L38.5994 41.3413C39.792 40.8523 40.4598 40.7644 40.6028 41.0775C40.7624 41.2123 40.9413 41.1389 41.1395 40.8575C41.4056 40.4624 41.823 40.2913 42.3917 40.3441C43.0173 40.4022 43.3466 40.2528 43.3797 39.8961C43.4018 39.6583 43.7339 39.4792 44.376 39.3589C45.0237 39.1792 45.6034 39.1131 46.1152 39.1606C46.3996 39.187 46.65 39.2702 46.8664 39.4102L47.0287 39.5153C47.0856 39.5205 47.0911 39.4611 47.0453 39.3369C46.8509 38.959 46.9666 38.64 47.3923 38.3796C47.8748 38.1246 48.2445 38.1589 48.5012 38.4826C48.8717 38.8168 49.0992 38.838 49.1837 38.546C49.1947 38.427 49.2571 38.3729 49.3708 38.3834C49.5414 38.3993 49.7808 38.6014 50.0889 38.9898C50.397 39.3782 50.651 39.7316 50.8508 40.05L51.2277 40.6247C51.2222 40.6842 51.4394 41.1241 51.8795 41.9445C52.2334 42.4571 52.3745 43.0999 52.3027 43.8728C52.2365 44.5863 51.9538 45.1597 51.4547 45.5931C50.4565 46.4599 49.6446 46.8643 49.019 46.8062L48.8567 46.7012C48.7027 46.507 48.3816 46.5671 47.8935 46.8816C47.411 47.1366 47.1559 47.4128 47.1283 47.7101C47.1117 47.8884 47.0695 48.0344 47.0016 48.1481C46.9392 48.2022 46.8539 48.1943 46.7457 48.1243C46.5861 47.9896 46.1513 48.0391 45.4413 48.2731C44.7881 48.5123 44.4533 48.721 44.4367 48.8994C44.4146 49.1372 44.2045 49.2377 43.8064 49.2007ZM277.156 45.2787C278.013 44.6218 278.441 44.5024 278.441 44.9204C278.441 45.0995 278.669 45.3085 279.126 45.5474C279.869 45.8459 280.554 46.2938 281.182 46.8909C281.868 47.4283 282.211 47.9059 282.211 48.3239C282.211 48.6822 282.353 48.9509 282.639 49.13C282.81 49.1897 282.867 49.4883 282.81 50.0257C282.81 50.5631 282.867 50.8318 282.982 50.8318C283.21 50.8318 283.324 51.0408 283.324 51.4587C283.324 51.817 283.181 51.9961 282.896 51.9961C282.725 51.9961 282.639 52.2051 282.639 52.6231V53.3396C282.696 53.6979 282.725 53.9666 282.725 54.1457C282.725 54.4443 282.667 54.5935 282.553 54.5935C282.382 54.5935 282.268 54.6234 282.211 54.6831V54.9518C282.211 55.1309 282.153 55.2802 282.039 55.3996C281.982 55.4594 281.896 55.4594 281.782 55.3996C281.382 55.3996 280.954 55.937 280.497 57.0118C280.497 57.0715 280.069 57.1611 279.212 57.2805C278.412 57.4 277.87 57.6089 277.584 57.9075C277.356 58.0269 277.156 58.0866 276.985 58.0866C276.128 58.0866 275.214 57.2805 274.243 55.6683C273.501 54.4741 273.329 53.7576 273.729 53.5188C274.072 53.2799 274.215 52.7724 274.158 51.9961C274.043 51.2199 274.1 50.8318 274.329 50.8318C274.443 50.7721 274.472 50.6228 274.415 50.3839C274.415 50.0854 274.357 49.757 274.243 49.3987C274.186 49.0404 274.186 48.8315 274.243 48.7717C274.414 48.5926 274.557 47.9657 274.672 46.8909C274.672 46.7117 274.871 46.6819 275.271 46.8013C275.443 46.861 275.585 46.8311 275.7 46.7117C275.814 46.5326 275.899 46.3535 275.957 46.1743C276.014 45.9952 276.099 45.8459 276.214 45.7265C276.328 45.5474 276.442 45.4877 276.556 45.5474C276.613 45.6071 276.813 45.5175 277.156 45.2787ZM274.929 39.3673C274.757 39.427 274.614 39.427 274.5 39.3673C274.443 39.1882 274.529 39.0986 274.757 39.0986C274.871 39.0986 274.957 39.1285 275.014 39.1882C275.128 39.2479 275.1 39.3076 274.929 39.3673ZM279.726 37.2177C279.612 37.2774 279.555 37.367 279.555 37.4864C279.555 37.7253 279.212 37.8447 278.527 37.8447H278.355C277.27 37.8447 276.099 38.1731 274.843 38.8299C273.643 39.427 273.044 39.9644 273.044 40.4421V40.6212C273.044 40.8004 273.015 40.9198 272.958 40.9795C272.958 41.0392 272.872 41.0392 272.701 40.9795H272.615C272.387 40.9795 271.759 41.4572 270.731 42.4126C269.703 43.3679 269.103 43.8456 268.932 43.8456C268.532 43.8456 268.332 43.965 268.332 44.2039C268.332 44.801 268.075 45.3682 267.561 45.9056C267.104 46.443 267.104 46.8909 267.561 47.2491C267.904 47.5477 267.932 47.697 267.646 47.697H267.561C267.275 47.697 266.961 48.1448 266.618 49.0405C266.333 49.9361 266.133 50.4138 266.019 50.4735C265.905 50.5929 265.876 50.8019 265.933 51.1005C265.99 51.399 265.933 51.6379 265.762 51.817C265.533 51.8767 265.562 52.3544 265.847 53.2501C266.133 54.0263 266.076 54.7727 265.676 55.4892C265.391 56.0863 265.248 56.6237 265.248 57.1014C265.248 57.9971 265.59 58.8629 266.276 59.6988C266.904 60.3556 267.132 60.893 266.961 61.311C266.961 61.3707 266.933 61.4006 266.875 61.4006V61.4901C266.875 61.9678 267.846 62.7441 269.788 63.8189C270.816 64.3562 271.33 64.7444 271.33 64.9832C271.33 65.1026 271.759 65.2818 272.615 65.5206C273.472 65.7595 274.186 65.8789 274.757 65.8789C275.043 65.8789 275.357 65.9983 275.7 66.2371C275.871 66.3566 276.185 66.267 276.642 65.9684C277.099 65.6699 277.442 65.5505 277.67 65.6102C278.07 65.7296 278.898 65.4609 280.154 64.8041C280.783 64.5055 281.297 64.2965 281.697 64.1771C282.096 64.0577 282.41 63.9383 282.639 63.8189C282.867 63.6994 283.239 63.371 283.753 62.8336C284.438 62.1171 285.066 61.6096 285.637 61.311C286.094 61.1319 286.237 60.8035 286.066 60.3258C286.066 60.2064 286.037 60.1168 285.98 60.0571C285.98 59.8779 286.037 59.8481 286.151 59.9675C286.208 60.0272 286.294 60.0571 286.408 60.0571C286.694 60.0571 287.094 59.9078 287.608 59.6093C288.122 59.251 288.379 59.0121 288.379 58.8927L288.293 58.8032C288.065 58.624 287.922 58.415 287.865 58.1762C287.865 57.9971 288.008 57.9373 288.293 57.9971C288.407 58.0568 288.522 58.0269 288.636 57.9075C288.75 57.7284 288.836 57.5492 288.893 57.3701C289.007 56.773 289.293 56.3252 289.75 56.0266C290.206 55.5489 290.492 54.7727 290.606 53.6979C290.72 52.6231 290.863 51.9364 291.035 51.6379C291.263 51.2199 291.377 50.175 291.377 48.5031C291.377 47.3088 291.32 46.5923 291.206 46.3535C291.149 46.1146 290.72 45.1294 289.921 43.3978C289.35 42.2036 288.693 41.1885 287.95 40.3525C287.208 39.5166 286.551 39.0986 285.98 39.0986C285.466 39.0986 285.038 38.9195 284.695 38.5612C284.409 38.2627 284.095 38.2029 283.753 38.3821C283.467 38.5612 283.267 38.5314 283.153 38.2925C283.039 37.994 282.725 37.8447 282.211 37.8447H281.268C280.868 37.8447 280.611 37.7551 280.497 37.576C280.44 37.3968 280.326 37.2774 280.154 37.2177C279.983 37.158 279.84 37.158 279.726 37.2177ZM218.778 65.1183C218.892 65.1183 218.949 65.0586 218.949 64.9392C218.949 64.8197 218.892 64.76 218.778 64.76C218.663 64.76 218.606 64.8197 218.606 64.9392C218.606 65.0586 218.663 65.1183 218.778 65.1183ZM215.008 43.9807C215.122 43.9807 215.18 43.921 215.18 43.8016C215.18 43.6821 215.122 43.6224 215.008 43.6224C214.894 43.6224 214.837 43.6821 214.837 43.8016C214.837 43.921 214.894 43.9807 215.008 43.9807ZM215.779 38.5172C215.779 38.4574 215.751 38.4276 215.694 38.4276V38.338C215.694 38.0992 215.865 37.8603 216.208 37.6215C216.55 37.3229 216.864 37.1737 217.15 37.1737C217.436 37.1737 217.578 37.3229 217.578 37.6215C217.578 37.92 217.778 38.129 218.178 38.2485C218.635 38.3082 218.949 38.1589 219.12 37.8006C219.235 37.5021 219.549 37.4424 220.063 37.6215C220.577 37.8006 220.834 38.0395 220.834 38.338C220.834 38.6366 221.005 38.965 221.348 39.3233C221.748 39.7412 221.948 40.2189 221.948 40.7563C221.948 41.234 221.776 41.7117 221.434 42.1894C221.091 42.7865 220.948 43.2045 221.005 43.4433C221.234 44.2792 221.348 44.9659 221.348 45.5033C221.348 46.0407 221.262 46.3094 221.091 46.3094C220.748 46.3094 220.691 46.6378 220.919 47.2946C221.091 48.1306 221.176 49.3248 221.176 50.8773C221.176 54.1614 220.948 56.2811 220.491 57.2365C220.263 57.6545 220.263 58.0724 220.491 58.4904C220.72 58.9084 220.634 59.3562 220.234 59.8339C219.834 60.4907 219.777 61.1475 220.063 61.8044C220.12 61.9835 220.148 62.1925 220.148 62.4313C220.148 62.7299 220.006 63.118 219.72 63.5957C219.435 64.0136 219.292 64.4316 219.292 64.8496C219.292 65.5064 219.035 66.1035 218.521 66.6409C218.007 67.1186 217.464 67.3575 216.893 67.3575H216.636C216.579 67.2977 216.522 67.2679 216.465 67.2679C215.951 67.0888 215.151 66.9395 214.066 66.8201C212.981 66.6409 212.21 66.3424 211.753 65.9244C211.353 65.5064 211.153 64.8496 211.153 63.9539C211.153 62.6403 211.296 61.9835 211.581 61.9835C211.753 61.9835 211.781 61.8641 211.667 61.6252C211.667 61.5655 211.638 61.4759 211.581 61.3565C211.581 60.9983 211.696 60.4907 211.924 59.8339C212.21 59.1174 212.438 58.7591 212.609 58.7591H212.695C212.752 58.8188 212.781 58.789 212.781 58.6695L212.695 57.953C212.581 57.2365 212.609 56.9081 212.781 56.9678L212.952 57.0573L213.295 57.2365C213.295 57.1768 213.181 56.9976 212.952 56.6991C212.495 56.3408 212.438 56.0721 212.781 55.893C213.123 55.6541 213.295 55.4452 213.295 55.266C213.295 55.2063 213.181 55.1765 212.952 55.1765C212.724 55.1765 212.609 54.9973 212.609 54.6391C212.609 54.2808 212.781 53.9524 213.123 53.6538C213.466 53.3553 213.58 52.9373 213.466 52.3999C213.295 51.7431 213.38 51.4147 213.723 51.4147C214.123 51.4147 214.123 51.2953 213.723 51.0564C213.38 50.8176 213.352 50.519 213.637 50.1608C213.98 49.7428 214.094 49.2352 213.98 48.6381V48.1007C213.98 47.2648 214.094 46.2198 214.323 44.9659C214.551 43.6523 214.751 42.8462 214.923 42.5476C215.094 42.3088 215.122 42.1297 215.008 42.0102C214.837 42.0102 214.751 41.3833 214.751 40.1293C214.751 39.2337 214.951 38.7859 215.351 38.7859H215.522C215.865 38.965 215.951 38.8754 215.779 38.5172ZM182.644 59.5962C182.757 59.5838 182.824 59.6666 182.843 59.8447C182.856 59.9634 182.806 60.029 182.692 60.0414C182.579 60.0538 182.516 60.0007 182.503 59.882C182.483 59.7039 182.53 59.6087 182.644 59.5962ZM169.424 57.7081C169.437 57.8268 169.386 57.8924 169.273 57.9048C169.159 57.9172 169.096 57.864 169.083 57.7453C169.07 57.6266 169.12 57.561 169.234 57.5486C169.348 57.5362 169.411 57.5894 169.424 57.7081ZM174.964 42.9566C174.977 43.0753 174.926 43.1409 174.813 43.1533C174.699 43.1657 174.636 43.1126 174.623 42.9938C174.61 42.8751 174.66 42.8096 174.774 42.7971C174.888 42.7847 174.951 42.8379 174.964 42.9566ZM173.416 44.5674C173.108 44.9014 172.967 45.1872 172.993 45.4246C173.025 45.7214 172.765 46.2304 172.212 46.9516C171.602 47.679 171.537 48.1366 172.017 48.3244C172.27 48.537 172.321 48.7416 172.171 48.9383C172.02 49.135 171.79 49.4004 171.482 49.7344C171.224 50.0029 171.108 50.2558 171.134 50.4933C171.16 50.7307 170.963 51.2928 170.543 52.1797C170.123 53.0666 169.922 53.599 169.942 53.7771L169.925 54.4097C169.914 54.8314 169.924 55.1906 169.957 55.4874C169.976 55.6655 169.961 55.7873 169.91 55.8529C169.912 56.3933 169.875 56.5776 169.798 56.4057C169.716 56.1745 169.564 56.101 169.343 56.1852C168.795 56.4253 168.56 56.9015 168.638 57.6138C168.683 58.0293 168.549 58.3744 168.234 58.6491C167.85 58.8112 167.677 59.0704 167.716 59.4265C167.761 59.842 167.648 60.1247 167.378 60.2744C167.056 60.4897 167.107 60.6944 167.531 60.8884C167.897 61.0885 167.882 61.2104 167.485 61.2538C167.03 61.3035 166.826 61.5361 166.871 61.9516C166.886 62.6107 166.846 63.0355 166.752 63.226C166.715 63.4103 166.58 63.4852 166.346 63.4506C166.169 63.4099 166.059 63.452 166.015 63.5769C165.971 63.7018 166.016 63.8471 166.149 64.0128C166.314 64.4752 166.41 64.8252 166.436 65.0626C166.449 65.1813 166.516 65.2641 166.636 65.3111C166.806 65.2924 166.941 65.2176 167.042 65.0864C167.426 64.9243 167.872 65.0558 168.378 65.481C168.884 65.9061 169.541 66.1346 170.349 66.1664C170.405 66.1602 170.494 66.1806 170.614 66.2275L170.869 66.1996C171.38 66.1437 172.167 65.457 173.23 64.1395C174.235 62.8282 174.715 61.9648 174.67 61.5493C174.65 61.3713 174.882 60.8654 175.366 60.0316C175.849 59.1979 176.078 58.6623 176.052 58.4249C176.02 58.1281 176.06 57.9735 176.174 57.9611C176.457 57.9301 176.57 57.6474 176.512 57.1132C176.466 56.6977 176.736 56.2778 177.322 55.8533C177.857 55.4945 178.215 54.8247 178.395 53.8439C178.5 53.2317 178.669 52.6727 178.901 52.1668C179.133 51.6609 179.334 51.3986 179.505 51.38C179.618 51.3676 179.681 51.4207 179.694 51.5394L179.629 51.7268L179.658 51.9939C179.552 52.6061 179.62 52.9592 179.86 53.053C180.17 53.2594 180.199 53.5265 179.947 53.8544C179.86 54.1042 179.823 54.2885 179.836 54.4072C179.861 54.6446 179.96 55.0242 180.132 55.546C180.298 56.0085 180.39 56.3287 180.41 56.5068C180.429 56.6849 180.613 57.0552 180.962 57.6177C181.311 58.1802 181.413 58.5895 181.269 58.8456C181.074 59.1672 181.012 59.3842 181.082 59.4967C181.151 59.6093 181.439 59.8781 181.945 60.3033C182.755 60.8755 183.295 61.0867 183.566 60.937C183.894 60.781 184.067 60.7921 184.087 60.9702C184.113 61.2076 184.577 61.5172 185.481 61.8989C186.378 62.2213 187.139 62.3483 187.763 62.28C188.161 62.2366 188.46 62.0837 188.661 61.8214C188.95 61.3093 189.17 61.2252 189.323 61.5689C189.399 61.7407 189.501 61.8798 189.627 61.9861C189.804 62.0269 189.946 62.0113 190.053 61.9396C190.154 61.8084 190.191 61.6241 190.165 61.3867C190.119 60.9712 190.295 60.7417 190.693 60.6983C190.92 60.6735 191.253 60.3066 191.693 59.5978C192.132 58.889 192.494 58.5191 192.778 58.4881C192.999 58.4039 193.106 58.3321 193.099 58.2728C192.973 58.1665 193.158 57.7558 193.654 57.0408C194.22 56.4383 194.484 55.959 194.445 55.6028C194.425 55.4248 194.504 55.3561 194.681 55.3968C194.971 55.4251 195.094 55.2315 195.048 54.816C195.022 54.5786 195.028 54.3678 195.065 54.1835C195.102 53.9992 195.181 53.9305 195.301 53.9775C195.478 54.0182 195.631 54.3619 195.759 55.0087C195.843 55.7803 195.728 56.3035 195.413 56.5781C194.985 56.8652 194.996 57.4947 195.447 58.4665C195.842 59.4445 195.906 60.0381 195.642 60.2472C195.264 60.4687 195.197 61.1669 195.44 62.3416C195.679 63.9974 196.082 64.7942 196.65 64.7321L196.735 64.7228C196.842 64.6511 196.924 64.6121 196.98 64.6059C197.365 64.4437 197.823 64.6939 198.355 65.3565C198.894 66.0785 199.377 66.296 199.806 66.0089C199.963 65.8715 200.098 65.7966 200.212 65.7842C200.325 65.7718 200.385 65.7953 200.392 65.8546C200.355 66.0389 200.393 66.1248 200.506 66.1124C200.677 66.0938 200.952 66.2439 201.331 66.5628C201.527 66.7816 201.846 66.8068 202.287 66.6385C202.722 66.4107 203.056 66.3141 203.29 66.3486C203.467 66.3894 203.596 66.2551 203.677 65.9459C203.808 65.5712 203.854 65.2057 203.815 64.8496C203.833 64.4872 203.751 64.256 203.567 64.1559C203.327 64.062 203.32 63.7325 203.545 63.1672C203.771 62.602 203.853 61.5118 203.791 59.8968C203.629 58.4128 203.664 57.4179 203.896 56.912C204.007 56.3592 204.044 55.9047 204.005 55.5486C203.953 55.0737 204.032 54.2241 204.243 52.9997C204.261 52.6373 204.247 52.2484 204.202 51.8329C204.182 51.6549 204.135 51.4799 204.058 51.308L204.01 50.8628C203.971 50.5067 204.086 49.9835 204.355 49.2934C204.749 48.1691 204.778 47.385 204.443 46.9412C204.05 46.5036 203.967 46.2724 204.194 46.2475C204.422 46.2227 204.48 45.7058 204.37 44.6967C204.259 43.6876 204.125 43.2518 203.968 43.3891C203.911 43.3953 203.791 43.3484 203.608 43.2483C203.259 42.6857 203.198 42.1218 203.423 41.5566C203.937 40.4792 203.825 39.9809 203.087 40.0616C202.69 40.1051 202.472 39.9487 202.433 39.5926C202.387 39.1771 202.137 38.9942 201.683 39.0438C201.172 39.0997 200.904 39.0089 200.878 38.7715C200.845 38.4747 200.46 38.3667 199.722 38.4474C198.984 38.5281 198.599 38.4201 198.566 38.1233C198.527 37.7671 198.025 37.6418 197.06 37.7474C196.095 37.8529 195.339 38.296 194.792 39.0765C194.252 39.9165 193.84 40.352 193.556 40.383C193.272 40.414 193.143 40.5483 193.169 40.7857C193.208 41.1418 193.045 41.49 192.68 41.8303C192.208 42.2423 192.155 42.5484 192.522 42.7486C192.832 42.955 192.893 43.2486 192.705 43.6296C192.567 43.945 192.396 43.9636 192.194 43.6855C191.928 43.3542 191.713 43.2275 191.549 43.3055C191.271 43.3959 191.263 43.8473 191.525 44.6596C191.799 45.5907 191.794 46.0718 191.51 46.1028C191.283 46.1277 191.147 45.9323 191.101 45.5168C191.062 45.1607 190.901 44.9981 190.617 45.0292C190.39 45.054 190.292 45.2148 190.325 45.5116C190.357 45.8084 190.172 46.219 189.77 46.7436C188.393 48.3358 187.737 49.4286 187.802 50.0222C187.828 50.2596 187.699 50.3939 187.415 50.4249C187.131 50.4559 186.881 50.273 186.666 49.8762C186.507 49.4731 186.531 49.1701 186.738 48.9672C187.06 48.7519 187.133 47.8429 186.957 46.2402C186.86 45.3499 186.723 44.8843 186.546 44.8436C186.369 44.8029 186.255 44.5451 186.203 44.0702C186.201 43.5298 186.124 43.0877 185.972 42.744C185.68 42.1753 185.668 41.5458 185.938 40.8556C186.076 40.5402 186.153 40.2014 186.171 39.839C186.056 39.311 185.788 39.2202 185.366 39.5667C185.309 39.5729 185.324 39.4511 185.412 39.2012C185.55 38.8858 185.606 38.6094 185.58 38.372C185.489 37.541 185.002 37.0236 184.117 36.82C183.594 36.7571 183.315 36.5773 183.283 36.2805C183.257 36.0431 183.017 35.9492 182.563 35.9989C182.052 36.0548 181.723 35.9405 181.577 35.6561C181.368 35.3186 181.172 35.37 180.991 35.8104C180.739 36.1382 180.604 36.2131 180.584 36.035L180.205 35.7161C179.092 34.9969 178.571 34.9637 178.643 35.6166C178.688 36.0321 178.609 36.1008 178.407 35.8226C178.254 35.4789 178.121 35.3133 178.008 35.3257C177.837 35.3443 177.592 35.7315 177.273 36.4872C177.01 37.2367 176.793 37.6208 176.623 37.6395L176.538 37.6488L176.453 37.6581C176.226 37.6829 175.971 37.9811 175.689 38.5525C175.407 39.124 175.285 39.5878 175.324 39.9439C175.343 40.122 175.381 40.2079 175.438 40.2017C175.622 40.3018 175.411 40.7452 174.808 41.532C174.154 42.3844 173.857 43.0776 173.915 43.6119C173.948 43.9087 173.781 44.2272 173.416 44.5674ZM145.918 63.4469C145.899 63.2688 145.833 63.1859 145.719 63.1984C145.605 63.2108 145.558 63.306 145.578 63.4841C145.591 63.6028 145.654 63.6559 145.768 63.6435C145.881 63.6311 145.931 63.5656 145.918 63.4469ZM153.845 48.4355C153.965 48.4824 154.107 48.4669 154.271 48.389C154.434 48.311 154.456 48.2486 154.336 48.2016C154.273 48.1484 154.185 48.1281 154.071 48.1405C153.844 48.1653 153.768 48.2636 153.845 48.4355ZM137.462 45.9904C137.575 45.978 137.626 45.9125 137.613 45.7938C137.6 45.675 137.537 45.6219 137.423 45.6343C137.309 45.6467 137.259 45.7123 137.272 45.831C137.285 45.9497 137.348 46.0028 137.462 45.9904ZM163.595 45.3882C163.343 45.716 163.237 46.058 163.276 46.4142C163.315 46.7703 162.986 47.7072 162.29 49.2248C161.651 50.7362 161.351 51.67 161.39 52.0261C161.461 52.6791 161.361 53.0804 161.091 53.2301C160.927 53.3081 160.858 53.4658 160.884 53.7032C160.91 53.9406 160.866 54.0656 160.752 54.078C160.582 54.0966 160.382 54.629 160.151 55.6753C159.971 56.656 159.827 57.1823 159.72 57.2541C159.336 57.4162 159.264 57.8144 159.506 58.4487C159.748 59.0831 159.569 59.5531 158.971 59.8587C158.486 60.152 158.269 60.536 158.321 61.0109C158.36 61.367 158.078 62.2087 157.476 63.5358C156.931 64.8567 156.668 65.6062 156.688 65.7843C156.626 66.2716 156.224 66.7961 155.481 67.3578C154.423 68.1941 152.816 68.7301 150.658 68.9658C150.261 69.0092 150.055 68.9715 150.042 68.8528C149.997 68.4373 149.557 68.0949 148.724 67.8256C148.06 67.5376 147.368 66.9826 146.646 66.1605C145.918 65.279 145.459 64.7585 145.269 64.599C144.889 64.2801 144.775 64.0223 144.926 63.8256C145.026 63.6945 144.899 63.318 144.544 62.696C144.145 62.199 143.97 61.6475 144.018 61.0416C144.08 60.5543 143.991 60.2637 143.751 60.1698C143.504 60.0165 143.313 59.3166 143.177 58.0701C143.04 56.8236 142.868 56.0316 142.659 55.6941C142.38 55.244 142.376 54.9441 142.646 54.7944C142.861 54.6509 142.882 54.3182 142.71 53.7964C142.531 53.2152 142.329 52.937 142.102 52.9618C141.818 52.9928 141.758 53.2396 141.924 53.702C142.026 54.1113 141.803 54.436 141.255 54.6761C140.984 54.8258 140.77 54.9694 140.612 55.1067C140.455 55.244 140.411 55.3689 140.481 55.4814C140.646 55.9439 140.641 56.425 140.466 56.9246C140.341 57.3587 140.112 57.6241 139.777 57.7207C139.507 57.8704 139.208 58.2934 138.882 58.9898C138.556 59.6861 138.415 60.242 138.461 60.6575C138.506 61.073 138.23 61.7038 137.633 62.5499C137.03 63.3366 136.586 63.7455 136.302 63.7765C135.848 63.8261 135.625 64.1508 135.633 64.7506C135.635 65.291 135.425 65.7344 135.003 66.0808C134.574 66.3679 134.227 66.3457 133.961 66.0144C133.828 65.8487 133.655 65.8376 133.441 65.9812C133.334 66.0529 132.948 65.9448 132.285 65.6569C131.678 65.3628 131.29 65.225 131.119 65.2436C130.665 65.2933 130.213 65.1023 129.764 64.6709C129.372 64.2332 129.146 63.7473 129.088 63.2131C129.055 62.9163 129.115 62.6696 129.265 62.4729C129.467 62.2107 129.51 61.8155 129.395 61.2875C129.273 60.7001 129.461 60.3192 129.959 60.1447C130.608 59.7734 130.812 59.2707 130.57 58.6363C130.563 58.577 130.529 58.5207 130.465 58.4676L130.436 58.2005C130.345 57.3695 130.828 56.2656 131.884 54.8888C132.287 54.3643 132.465 53.8943 132.42 53.4788C132.381 53.1227 132.651 52.7028 133.23 52.219C133.809 51.7353 134.029 51.3809 133.889 51.1559C133.75 50.9309 133.756 50.72 133.907 50.5234C134.127 50.4392 134.155 50.1659 133.989 49.7034C133.957 49.4066 134.001 49.2817 134.121 49.3287C134.487 49.5289 134.645 49.3916 134.593 48.9167C134.554 48.5606 134.783 48.025 135.279 47.3101C135.826 46.5295 136.241 46.1238 136.525 46.0928C136.809 46.0618 136.789 45.8837 136.467 45.5585C136.081 45.1803 136.189 44.5978 136.793 43.811C137.138 43.2928 137.352 42.879 137.433 42.5698C137.508 42.2013 137.774 41.7517 138.234 41.221C138.9 40.4874 139.218 39.9723 139.185 39.6755C139.146 39.3193 139.354 39.1164 139.808 39.0668C140.319 39.011 140.334 38.8892 139.854 38.7014C139.431 38.5074 139.5 38.3497 140.061 38.2283C140.339 38.1379 140.818 38.0555 141.499 37.9811C142.01 37.9253 142.664 38.1242 143.46 38.5778C144.314 39.0252 144.841 39.1177 145.042 38.8555C145.143 38.7244 145.25 38.6526 145.363 38.6402C145.817 38.5906 146.39 39.0987 147.081 40.1644C147.36 40.6145 147.67 40.8209 148.01 40.7837C148.124 40.7713 148.381 41.2838 148.782 42.3212C149.176 43.2993 149.401 43.7853 149.458 43.779C149.641 43.8792 149.798 44.5228 149.927 45.7099C150.115 47.4313 150.09 48.5153 149.852 48.9618C149.758 49.1522 149.714 49.2772 149.72 49.3365C149.727 49.3959 149.84 49.3835 150.061 49.2993C150.282 49.2151 150.436 49.3184 150.526 49.6089C150.608 49.8402 150.689 50.3119 150.766 51.0242C150.903 52.2707 151.148 52.9347 151.501 53.0162C151.621 53.0632 151.706 53.0539 151.757 52.9883C151.857 52.8572 151.898 52.7026 151.878 52.5245C151.846 52.2278 152.129 51.9265 152.728 51.6209C153.169 51.4526 153.386 51.3387 153.38 51.2794C153.43 51.2138 153.297 51.0481 152.981 50.7823C152.431 50.482 152.37 50.1883 152.798 49.9013C153.22 49.5549 153.361 49.2692 153.222 49.0441C153.159 48.991 153.117 48.8754 153.098 48.6973C153.059 48.3411 153.155 47.9101 153.387 47.4043C153.619 46.8984 153.849 46.6331 154.076 46.6083C154.41 46.5117 154.571 46.404 154.558 46.2853C154.438 46.2384 154.478 45.8136 154.677 45.0109C154.883 44.2676 154.863 43.8193 154.616 43.6661C154.313 43.519 154.29 43.3112 154.548 43.0428C154.863 42.7682 155.152 42.2561 155.415 41.5066C155.678 40.7571 155.783 40.1449 155.731 39.67C155.679 39.1952 155.852 38.936 156.249 38.8926C156.704 38.843 156.847 38.3168 156.68 37.3139C156.648 37.0171 156.802 36.8501 157.143 36.8129C157.427 36.7819 157.527 36.6507 157.444 36.4195C157.355 36.1289 157.418 35.9119 157.632 35.7684C157.783 35.5717 157.82 35.3874 157.744 35.2155C157.668 35.0437 157.648 34.8656 157.685 34.6813C157.723 34.497 157.855 34.3925 158.082 34.3677C158.536 34.3181 158.876 34.0107 159.102 33.4454C159.29 33.0645 159.437 32.8381 159.545 32.7663C159.645 32.6352 159.762 32.6525 159.895 32.8182C160.028 32.9838 160.206 33.2948 160.428 33.7511C160.65 34.2073 160.821 34.4589 160.941 34.5059C161.061 34.5528 161.14 34.4842 161.177 34.2999C161.214 34.1156 161.315 33.9845 161.479 33.9065C161.636 33.7692 161.838 33.7772 162.085 33.9304C162.395 34.1369 162.82 34.0904 163.362 33.7909C163.784 33.4445 164.036 33.3869 164.119 33.6181C164.125 33.6775 164.085 33.8321 163.997 34.0819C163.929 34.5098 163.98 34.7145 164.151 34.6959C164.207 34.6897 164.289 34.6507 164.396 34.5789C164.781 34.4168 164.986 34.4545 165.012 34.6919C165.044 34.9887 165.231 35.1185 165.572 35.0813C165.969 35.0378 166.182 35.6753 166.211 36.9935C166.242 38.8522 165.588 40.7557 164.25 42.7039C163.961 43.2159 163.849 43.7687 163.914 44.3623C163.953 44.7185 163.846 45.0604 163.595 45.3882ZM108.085 53.1396C108.199 53.1396 108.256 53.2292 108.256 53.4083C108.256 53.5278 108.199 53.5875 108.085 53.5875C107.971 53.5875 107.913 53.5278 107.913 53.4083C107.913 53.2292 107.971 53.1396 108.085 53.1396ZM113.396 48.4822C113.739 48.4822 113.91 48.7808 113.91 49.3779C113.91 50.0944 113.768 50.5124 113.482 50.6318C113.254 50.7512 113.139 51.0498 113.139 51.5275C113.139 51.8857 112.968 52.2141 112.625 52.5127C112.283 52.8112 111.911 52.9605 111.512 52.9605C111.34 52.9605 111.198 52.9307 111.083 52.8709C110.798 52.8112 110.512 52.9008 110.227 53.1396C109.941 53.3785 109.598 53.3486 109.199 53.0501C108.913 52.8709 108.77 52.6918 108.77 52.5127C108.77 52.3335 109.37 51.6469 110.569 50.4527C111.883 49.139 112.825 48.4822 113.396 48.4822ZM114.253 34.5994C113.91 34.5994 113.653 34.7189 113.482 34.9577L113.396 35.0473L113.311 35.5847C113.425 35.5847 113.197 35.8832 112.625 36.4803C111.997 37.0177 111.683 37.4656 111.683 37.8238C111.683 38.1224 111.512 38.2119 111.169 38.0925H111.083C110.855 38.0925 110.312 38.4508 109.456 39.1673C108.656 39.8839 108.199 40.2421 108.085 40.2421C107.856 40.2421 107.485 40.6004 106.971 41.3169C106.343 42.2126 105.772 42.8992 105.258 43.3769C104.515 44.0337 104.144 44.601 104.144 45.0787C104.144 45.5564 103.944 45.8549 103.544 45.9743C103.145 46.0938 102.63 46.5117 102.002 47.2283C101.431 47.9448 101.146 48.4523 101.146 48.7509C101.146 48.93 100.974 49.139 100.631 49.3779C100.403 49.4973 100.289 49.766 100.289 50.184C100.346 50.6019 100.232 50.8109 99.9461 50.8109C99.4892 50.8109 99.0609 51.1692 98.6611 51.8857C98.4326 52.3037 97.9757 52.9307 97.2903 53.7666C96.6621 54.6026 96.2623 55.3489 96.0909 56.0058C95.8625 56.4834 95.634 56.7223 95.4056 56.7223C95.1771 56.7223 94.9201 56.9313 94.6345 57.3493C94.4061 57.7075 94.3204 58.0359 94.3775 58.3345C94.3775 58.5733 94.0348 58.9913 93.3495 59.5884C92.8354 60.0661 92.3785 60.7229 91.9787 61.5589C91.5789 62.3948 91.1791 63.0516 90.7793 63.5293C90.3224 64.1861 90.094 64.634 90.094 64.8728C90.094 65.1714 90.351 65.4998 90.865 65.858C91.7788 66.5746 92.4071 67.112 92.7498 67.4702L93.8635 68.7242L95.6626 68.0972C96.862 67.7389 97.4617 67.4105 97.4617 67.112C97.4617 66.8134 97.8329 66.276 98.5754 65.4998C99.2036 64.8429 100.146 63.798 101.403 62.365L103.202 60.4841L104.829 60.9319C105.857 61.2902 106.628 61.32 107.142 61.0215C107.656 60.7229 107.999 60.7528 108.171 61.111C108.342 61.4096 108.513 61.32 108.685 60.8423C108.799 60.6035 108.856 60.4542 108.856 60.3945C108.913 60.3348 108.999 60.3348 109.113 60.3945C109.227 60.4542 109.398 60.6333 109.627 60.9319C110.141 61.529 110.741 61.6783 111.426 61.3797C111.997 61.1409 112.368 61.0215 112.54 61.0215C112.768 61.0215 112.797 61.2006 112.625 61.5589C112.568 61.7977 112.654 62.1261 112.882 62.5441C113.111 62.9024 113.082 63.2308 112.797 63.5293C112.454 63.8876 112.397 64.3354 112.625 64.8728C112.74 65.4102 112.683 65.6789 112.454 65.6789C112.283 65.6789 112.197 66.2163 112.197 67.2911C112.197 68.3062 112.283 68.8137 112.454 68.8137C112.683 68.8137 112.797 68.963 112.797 69.2616C112.797 69.5004 112.654 69.5601 112.368 69.4407C112.254 69.381 112.14 69.3511 112.026 69.3511C111.683 69.3511 111.997 69.8587 112.968 70.8737C114.396 72.2471 115.652 72.9338 116.738 72.9338H116.909C117.023 72.8741 117.109 72.9039 117.166 73.0233C117.223 73.083 117.252 73.1726 117.252 73.292C117.252 73.8294 117.423 74.0981 117.766 74.0981C118.108 74.0981 118.565 73.7996 119.136 73.2025C119.879 72.5456 120.25 71.8291 120.25 71.0529C120.25 70.6349 120.364 70.2468 120.593 69.8885C120.878 69.5302 120.964 69.0824 120.85 68.545C120.678 67.9479 120.736 67.3807 121.021 66.8433C121.25 66.3656 121.25 66.0372 121.021 65.858C120.907 65.6789 120.85 65.4699 120.85 65.2311C120.907 64.9922 120.85 64.8728 120.678 64.8728C120.393 64.8728 120.25 64.7534 120.25 64.5145C120.25 64.2757 120.45 64.216 120.85 64.3354C121.078 64.3951 121.221 64.3653 121.278 64.2458C121.335 64.1264 121.364 63.8279 121.364 63.3502C121.364 62.5739 121.221 62.1858 120.935 62.1858C120.707 62.0664 120.793 61.8574 121.192 61.5589C121.592 61.2603 121.649 60.9319 121.364 60.5736C121.135 60.1557 121.078 59.887 121.192 59.7675C121.649 59.2899 121.878 57.7971 121.878 55.2892C121.878 54.6921 121.849 54.2741 121.792 54.0353C121.621 52.7217 121.649 51.9454 121.878 51.7066C122.163 51.3483 122.106 51.0498 121.707 50.8109C121.364 50.5721 121.335 50.4527 121.621 50.4527C121.906 50.4527 122.049 50.1242 122.049 49.4674C122.049 48.7509 121.935 48.3329 121.707 48.2135C121.535 48.0344 121.421 47.8254 121.364 47.5865C121.421 47.1686 121.621 47.0491 121.964 47.2283C122.135 47.288 122.249 47.3178 122.306 47.3178C122.363 47.2581 122.392 47.1387 122.392 46.9596C122.392 46.7804 122.363 46.5715 122.306 46.3326C122.306 46.2729 122.249 46.0042 122.135 45.5265C122.021 44.9891 121.964 44.601 121.964 44.3622C121.964 43.7053 121.849 43.3769 121.621 43.3769C121.449 43.3769 121.478 43.2575 121.707 43.0187C122.106 42.4813 122.135 42.2126 121.792 42.2126C121.564 42.2126 121.449 41.8244 121.449 41.0482C121.449 40.272 121.392 39.8838 121.278 39.8838C121.107 39.8838 121.021 39.6749 121.021 39.2569C121.021 38.8986 120.821 38.7195 120.421 38.7195C120.022 38.7195 119.879 38.5404 119.993 38.1821C119.993 37.9432 119.879 37.8238 119.65 37.8238C119.536 37.8835 119.393 37.8238 119.222 37.6447C119.108 37.4656 118.994 37.2267 118.879 36.9282C118.708 36.2713 118.422 35.9429 118.023 35.9429C117.566 35.9429 117.28 35.8235 117.166 35.5847C117.166 35.3458 116.823 35.1667 116.138 35.0473C115.967 35.0473 115.652 34.9876 115.196 34.8681C114.796 34.689 114.482 34.5994 114.253 34.5994ZM68.4706 39.9485C68.5844 39.9385 68.6361 39.8741 68.6256 39.7551C68.6152 39.6361 68.553 39.5817 68.4392 39.5916C68.3255 39.6017 68.2738 39.6661 68.2842 39.7851C68.2947 39.9041 68.3568 39.9585 68.4706 39.9485ZM68.1431 38.1791C68.1327 38.0601 68.0705 38.0056 67.9567 38.0156C67.8429 38.0256 67.7913 38.0901 67.8017 38.2091C67.8174 38.3875 67.8822 38.4718 67.9959 38.4618C68.1097 38.4518 68.1588 38.3575 68.1431 38.1791ZM77.6492 39.6814C77.5865 38.9676 77.6506 38.3925 77.8416 37.9562C78.0895 37.5148 78.1899 37.0264 78.1429 36.4911C78.1063 36.0747 78.1397 35.8021 78.243 35.6731C78.3463 35.5441 78.6024 35.5216 79.0111 35.6056C79.6474 35.6696 79.955 35.5826 79.9341 35.3447C79.9237 35.2257 80.3115 35.0717 81.0976 34.8828L81.4389 34.8528C82.0648 34.7978 82.6236 34.9585 83.1153 35.3348C83.6587 35.6467 83.954 36.0703 84.001 36.6057C84.069 37.3789 84.1598 37.7606 84.2736 37.7506C84.5012 37.7306 84.6725 38.3749 84.7875 39.6835C84.9391 41.4084 84.8857 42.4321 84.6274 42.7545C84.369 43.0769 84.4004 43.4338 84.7215 43.8252C85.0478 44.276 85.1233 44.8089 84.948 45.4237C84.8086 45.7956 84.8115 46.155 84.9567 46.5018C85.0966 46.7893 85.0943 47.0892 84.9498 47.4016C84.7176 48.0214 84.6276 48.6287 84.6799 49.2235C84.6596 49.6449 84.5801 50.3712 84.4414 51.4024C84.3543 52.3691 84.3346 53.4497 84.3823 54.6443C84.4567 56.7957 84.4965 57.9011 84.5017 57.9606C84.5069 58.0201 84.5615 58.315 84.6655 58.8453C84.8211 59.3112 84.9119 59.6928 84.9381 59.9902C84.9747 60.4066 84.9102 60.652 84.7448 60.7265C84.5793 60.8009 84.5201 61.1059 84.5672 61.6412C84.5881 61.8791 84.6505 62.2632 84.7544 62.7936C84.8584 63.3239 84.9208 63.708 84.9417 63.946C84.9992 64.6003 84.9168 64.9672 84.6944 65.0466C84.3635 65.1956 84.2242 65.5675 84.2765 66.1623C84.3909 66.8116 84.3267 67.3867 84.0841 67.8875C83.8362 68.3289 83.5131 68.5671 83.1149 68.6021C82.8304 68.6271 82.5329 68.5034 82.2223 68.231C81.9738 68.013 81.5444 68.0208 80.9343 68.2542C80.4948 68.4727 79.8199 68.6219 78.9096 68.7019C77.5441 68.8219 76.8431 68.6737 76.8065 68.2573C76.7961 68.1384 76.8683 67.9822 77.0233 67.7887C77.2248 67.4713 77.0822 67.1542 76.5957 66.8373C76.104 66.4609 75.8502 66.1835 75.8346 66.0051C75.8084 65.7077 75.9144 65.6084 76.1524 65.7074L76.2377 65.6999C76.5222 65.6749 76.5651 64.5323 76.3665 62.272C76.2881 61.3797 76.2021 60.7279 76.1087 60.3166C76.0204 59.9647 75.94 59.702 75.8674 59.5286C75.8517 59.3501 75.7818 59.2064 75.6575 59.0975C75.5902 58.9835 75.4685 58.9043 75.2926 58.8598C75.1736 58.8103 75.0003 58.7956 74.7727 58.8156C74.2607 58.8606 73.7614 58.7246 73.2749 58.4077C72.7884 58.0908 72.2891 57.9549 71.777 57.9999C70.9805 58.0699 70.5639 57.8967 70.5273 57.4803C70.4908 57.064 70.3822 57.1334 70.2017 57.6888C70.0316 58.3631 69.4267 58.656 68.3869 58.5675C67.6368 58.5136 67.1842 58.5833 67.0292 58.7768C66.9259 58.9057 67.0943 59.1906 67.5344 59.6315C67.845 59.9039 67.7884 60.2385 67.3646 60.6354C66.8839 61.0373 66.7759 61.7661 67.0407 62.8218C67.2538 63.9419 67.2338 64.6929 66.9807 65.0748C66.9343 65.1988 66.8983 65.4417 66.8728 65.8036L66.7805 66.7108C66.8066 67.0082 66.7912 67.1594 66.7343 67.1644C66.5068 67.1844 66.2275 67.2689 65.8966 67.4179C65.6226 67.5618 65.3718 67.6438 65.1442 67.6638C64.9114 67.6243 64.6681 67.4659 64.4144 67.1885C64.026 66.6832 63.7363 66.6487 63.5453 67.085C63.4681 67.5114 63.2458 67.5909 62.8783 67.3235C62.5677 67.0511 62.3555 66.9199 62.2417 66.9299C61.7296 66.9749 61.1787 66.9034 60.5888 66.7155C59.9937 66.4681 59.6857 66.2254 59.6648 65.9875C59.6335 65.6306 59.504 65.4621 59.2764 65.4821C59.1626 65.4921 59.0796 65.1997 59.0273 64.6049C59.0221 64.5454 59.0949 62.1114 59.2456 57.3029C59.2143 56.946 59.3487 56.8443 59.6488 56.9978L59.7341 56.9903C60.1893 56.9503 60.2993 55.5919 60.064 52.9153C60.017 52.3799 60.1357 52.0998 60.4202 52.0748C60.4771 52.0698 60.5029 52.0375 60.4977 51.978C60.5441 51.8541 60.5337 51.7351 60.4663 51.6211C60.2747 51.3982 60.3751 50.9099 60.7676 50.1561C61.0979 49.3478 61.2729 48.4034 61.2926 47.3227C61.2966 46.0636 61.4098 45.3943 61.6321 45.3148C61.8493 45.1758 61.8774 44.8437 61.7166 44.3184C61.5453 43.6741 61.7026 43.1807 62.1885 42.8383C62.6796 42.5554 62.7725 42.3075 62.4671 42.0945C62.1049 41.8866 62.0912 41.0786 62.4261 39.6705C62.8278 37.7171 63.3131 36.7154 63.882 36.6654C64.1665 36.6404 64.433 36.7369 64.6815 36.9548C65.1163 37.3362 65.6467 37.4994 66.2725 37.4444L66.8699 37.3919C68.1216 37.2819 68.7945 37.7622 68.8886 38.8329C68.9618 39.6656 68.7864 40.2804 68.3627 40.6773C68.0474 41.0047 68.0605 41.1534 68.4019 41.1234C68.6294 41.1034 68.7668 41.3611 68.8138 41.8964C68.8922 42.7887 68.7901 44.2362 68.5074 46.2391C68.2051 49.3227 68.067 51.0131 68.0931 51.3105C68.1088 51.489 68.1451 51.5757 68.202 51.5707C68.2536 51.5062 68.3079 51.4715 68.3648 51.4665C68.7991 51.1886 69.9834 50.9646 71.9178 50.7946C73.3971 50.6646 74.3437 50.6713 74.7576 50.8148C75.4044 50.9977 75.8259 50.9007 76.0221 50.5238C76.1771 50.3304 76.3088 50.1989 76.4174 50.1294C76.5829 50.055 76.694 50.0152 76.7509 50.0102C76.8026 49.9457 76.8206 49.8243 76.8049 49.6458C76.8461 49.4624 76.8769 49.16 76.8972 48.7386C76.8188 47.8464 76.9346 47.2068 77.2446 46.8199C77.3479 46.691 77.3917 46.5373 77.3761 46.3588C77.412 46.1159 77.399 45.9672 77.3368 45.9127C77.3316 45.8532 77.2953 45.7665 77.228 45.6526C77.1914 45.2362 77.2555 44.6611 77.4204 43.9273C77.6421 43.1886 77.8615 42.7497 78.0787 42.6107C78.1199 42.4273 77.9956 42.3183 77.7059 42.2838C77.2508 42.3238 77.1524 42.1826 77.4107 41.8602C77.669 41.5378 77.7486 40.8115 77.6492 39.6814ZM236.157 52.8589C236.328 52.8589 236.414 52.9484 236.414 53.1276C236.414 53.247 236.328 53.3067 236.157 53.3067C236.043 53.3067 235.986 53.247 235.986 53.1276C235.986 52.9484 236.043 52.8589 236.157 52.8589ZM249.093 48.3806C249.436 48.7985 249.436 49.0075 249.093 49.0075C248.865 49.0075 248.751 48.8583 248.751 48.5597C248.751 48.3209 248.779 48.2014 248.836 48.2014L249.093 48.3806ZM232.987 65.3981C233.501 65.8161 233.758 66.1147 233.758 66.2938C233.758 66.5923 233.987 66.9208 234.443 67.279C234.958 67.5776 235.329 67.6671 235.557 67.5477C235.843 67.3686 236.043 67.5179 236.157 67.9955C236.157 68.2941 236.385 68.4135 236.842 68.3538C237.299 68.2941 237.585 68.3538 237.699 68.533C237.813 68.7121 238.013 68.7718 238.299 68.7121C238.641 68.6524 238.955 68.6225 239.241 68.6225C239.584 68.6225 239.755 68.7121 239.755 68.8912C239.755 69.1301 239.869 69.2196 240.098 69.1599C240.498 68.9211 241.069 68.9509 241.811 69.2495C242.211 69.3689 242.497 69.4286 242.668 69.4286C242.896 69.4286 243.039 69.3988 243.096 69.339C243.096 69.1002 243.439 68.9808 244.124 68.9808C244.81 68.9808 245.238 68.8315 245.409 68.533C245.524 68.3538 245.638 68.4135 245.752 68.7121C245.923 68.9509 246.123 68.9509 246.352 68.7121C246.409 68.6524 246.666 68.5031 247.123 68.2642L248.322 67.6373C248.722 67.3984 248.893 67.1895 248.836 67.0103C248.836 66.7715 248.922 66.6819 249.093 66.7416C249.322 66.8013 249.436 66.7416 249.436 66.5625C249.436 66.2639 249.693 66.1744 250.207 66.2938C250.721 66.3535 251.035 66.1744 251.149 65.7564C251.378 65.219 251.72 64.801 252.177 64.5025C252.748 64.1442 253.034 63.7262 253.034 63.2485C253.034 62.7111 253.291 62.4425 253.805 62.4425C254.262 62.4425 254.548 62.1738 254.662 61.6364C254.776 61.0393 255.176 60.3824 255.861 59.6659C256.604 58.8897 256.889 58.2925 256.718 57.8746C256.547 57.3969 256.746 56.9491 257.318 56.5311C257.832 56.1728 258.089 55.4264 258.089 54.2919C258.089 52.9783 257.803 52.0229 257.232 51.4258L256.804 50.978C256.746 50.8586 256.718 50.769 256.718 50.7093C256.718 50.5899 256.746 50.5302 256.804 50.5302C256.861 50.4704 256.975 50.3809 257.146 50.2615C257.489 50.0823 257.632 49.8435 257.575 49.5449C257.46 49.0672 257.175 49.0374 256.718 49.4554C256.489 49.6345 256.347 49.7241 256.29 49.7241V49.0075C256.29 48.4701 255.89 48.0522 255.09 47.7536C254.291 47.3953 253.52 47.2162 252.777 47.2162C252.434 47.2162 252.263 47.2759 252.263 47.3953L252.092 47.8432C251.863 48.2014 251.749 48.2014 251.749 47.8432C251.749 47.4252 251.492 47.3356 250.978 47.5745C250.749 47.6342 250.35 47.7237 249.779 47.8432C249.265 47.9029 248.779 47.9924 248.322 48.1119C247.922 48.2313 247.665 48.4104 247.551 48.6493C247.323 48.7687 247.151 48.8284 247.037 48.8284C246.923 48.8284 246.666 48.7687 246.266 48.6493C245.866 48.5298 245.552 48.4701 245.324 48.4701C244.695 48.3507 244.267 48.3507 244.039 48.4701C243.867 48.5896 243.582 48.9478 243.182 49.5449C242.497 50.5003 242.097 50.978 241.983 50.978C241.754 50.978 241.64 51.3064 241.64 51.9632C241.64 52.5603 241.44 52.8589 241.04 52.8589C240.697 52.8589 240.526 53.0679 240.526 53.4858C240.526 53.6053 240.469 53.8142 240.355 54.1128C240.298 54.4114 240.269 54.6203 240.269 54.7398C240.269 55.0383 240.64 55.3369 241.383 55.6354C242.125 55.8743 242.525 56.0833 242.582 56.2624C242.754 56.7401 242.925 56.7998 243.096 56.4415C243.268 56.143 243.496 56.0833 243.782 56.2624C244.124 56.3818 244.124 56.5908 243.782 56.8893L243.696 57.0685L244.981 57.158C246.123 57.158 246.923 56.9789 247.38 56.6206C247.722 56.4415 248.065 56.5012 248.408 56.7998C248.751 57.0983 249.093 57.1879 249.436 57.0685C249.95 56.9491 250.207 56.9491 250.207 57.0685C250.207 57.2476 249.807 57.6357 249.008 58.2328C248.265 58.83 247.78 59.1285 247.551 59.1285C247.323 59.1285 247.066 59.3375 246.78 59.7555C246.495 60.1137 246.237 60.2332 246.009 60.1137H245.838C245.609 60.1137 245.181 60.3526 244.553 60.8303C243.924 61.2482 243.467 61.4572 243.182 61.4572C242.839 61.4572 242.639 61.2781 242.582 60.9198C242.411 60.5019 242.097 60.3526 241.64 60.472H241.468C241.126 60.472 240.64 60.263 240.012 59.845C239.384 59.3673 238.984 59.1285 238.813 59.1285C238.127 59.1285 237.785 58.4418 237.785 57.0685C237.785 55.9937 237.699 55.3966 237.528 55.2772C237.242 55.1577 237.099 54.2024 237.099 52.411C237.099 50.7989 237.214 49.8733 237.442 49.6345C237.613 49.3359 237.699 48.8881 237.699 48.291C237.699 47.9327 237.842 47.6043 238.127 47.3058C238.47 47.0072 238.641 46.649 238.641 46.231C238.641 45.6339 239.013 45.2159 239.755 44.9771C240.498 44.6188 240.869 44.3501 240.869 44.171C240.869 44.0515 240.983 44.0217 241.211 44.0814C241.497 44.1411 241.64 44.0515 241.64 43.8127C241.64 43.5738 241.754 43.4544 241.983 43.4544C242.211 43.3947 242.439 43.4246 242.668 43.544C242.953 43.6037 243.153 43.6037 243.268 43.544C243.439 43.4246 243.467 43.2156 243.353 42.917L243.182 42.4692C243.239 42.4095 243.41 42.4991 243.696 42.7379C244.039 43.0962 244.324 43.126 244.553 42.8275C244.838 42.3498 245.752 42.1109 247.294 42.1109C247.979 42.1109 248.408 42.2005 248.579 42.3796C248.979 42.6782 249.322 42.6782 249.607 42.3796C249.664 42.3199 249.779 42.2901 249.95 42.2901C250.293 42.2901 250.664 42.4991 251.064 42.917C251.521 43.2753 251.749 43.6037 251.749 43.9023C251.749 44.1411 252.177 44.2605 253.034 44.2605C253.891 44.2605 254.319 44.0217 254.319 43.544C254.319 43.2454 254.49 42.917 254.833 42.5588C255.233 42.2005 255.433 41.8124 255.433 41.3944L255.518 40.857C255.576 40.5585 255.69 40.4689 255.861 40.5883C256.09 40.7674 256.204 40.7674 256.204 40.5883C256.261 40.2898 256.004 39.9613 255.433 39.6031C254.976 39.3045 254.89 38.9463 255.176 38.5283C255.347 38.3492 255.261 38.1103 254.919 37.8118C254.633 37.4535 254.49 37.2147 254.49 37.0952C254.49 36.7967 253.805 36.3488 252.434 35.7517C251.064 35.1546 249.836 34.7964 248.751 34.6769C248.636 34.6769 248.208 34.6172 247.465 34.4978C246.78 34.3784 246.238 34.3187 245.838 34.3187C245.038 34.3187 244.638 34.5277 244.638 34.9456C244.638 35.2442 244.467 35.2442 244.124 34.9456C243.839 34.6471 243.153 34.7665 242.068 35.3039C241.04 35.8413 240.526 36.2294 240.526 36.4683C240.526 36.5877 239.441 37.1251 237.271 38.0805C236.699 38.2596 236.414 38.5581 236.414 38.9761C236.414 39.215 236.185 39.5434 235.729 39.9613C235.272 40.3196 235.072 40.648 235.129 40.9466C235.357 41.3645 235.215 41.5735 234.7 41.5735C234.301 41.5735 234.101 41.8422 234.101 42.3796C234.044 42.5588 233.987 42.7678 233.929 43.0066C233.815 42.8872 233.644 42.917 233.415 43.0962C233.187 43.2753 233.016 43.5141 232.901 43.8127C232.787 44.0515 232.759 44.2307 232.816 44.3501C232.987 44.5889 232.816 44.9173 232.302 45.3353C231.731 45.7533 231.531 46.2608 231.702 46.8579C231.93 47.5148 231.873 47.8432 231.531 47.8432C231.302 47.8432 231.245 47.9626 231.359 48.2014C231.474 48.4403 231.416 48.5597 231.188 48.5597C230.96 48.5597 230.645 48.9478 230.246 49.7241C229.846 50.4406 229.646 50.978 229.646 51.3362C229.646 51.5751 229.846 51.6945 230.246 51.6945C230.417 51.6945 230.56 51.7542 230.674 51.8736C230.788 51.9931 230.817 52.1423 230.76 52.3215C230.76 52.4409 230.674 52.5603 230.503 52.6797C230.217 52.8589 230.074 53.4261 230.074 54.3815C230.074 55.516 229.931 56.3818 229.646 56.9789C229.589 57.158 229.56 57.367 229.56 57.6059C229.56 57.8447 229.646 58.1433 229.817 58.5015C229.989 58.8001 230.074 59.0987 230.074 59.3972C230.074 59.9346 230.188 60.4421 230.417 60.9198C230.645 61.3378 230.76 61.7558 230.76 62.1738C230.76 62.7709 231.017 63.2187 231.531 63.5172C232.045 63.8158 232.302 64.1144 232.302 64.4129C232.302 64.6517 232.53 64.9802 232.987 65.3981Z" fill="#5F1E5C"/>
<defs>
<clipPath id="clip0_1440_573">
<rect width="246.871" height="39.9959" fill="white" transform="translate(67.9305 117.023)"/>
</clipPath>
</defs>
</svg>
