<svg width="120" height="32" viewBox="0 0 120 32" fill="none" xmlns="http://www.w3.org/2000/svg">
    <path
        d="M43.5268 13.9911L51.9892 25.2607H46.9873L39.1226 14.9929V25.2607H34.7812V3.34766H39.1226V13.0207L46.6727 3.34766H51.6746L43.5268 13.9911Z"
        fill="#09090B" />
    <path
        d="M64.6528 23.3198C63.0484 24.9164 61.0665 25.699 58.7386 25.699C56.4106 25.699 54.4287 24.9164 52.8243 23.3198C51.2199 21.7233 50.4334 19.7511 50.4334 17.4346C50.4334 15.1181 51.2199 13.1772 52.8243 11.5807C54.4287 9.98418 56.4106 9.17027 58.7386 9.17027C61.0665 9.17027 63.0484 9.98418 64.6528 11.5807C66.2572 13.1772 67.0751 15.1181 67.0751 17.4346C67.0751 19.7511 66.2572 21.7233 64.6528 23.3198ZM55.687 20.5337C56.505 21.3477 57.5117 21.7546 58.7386 21.7546C59.9654 21.7546 60.9721 21.3477 61.7901 20.5337C62.608 19.7198 63.017 18.6868 63.017 17.4346C63.017 16.1824 62.608 15.1494 61.7901 14.3355C60.9721 13.5216 59.9654 13.1146 58.7386 13.1146C57.5117 13.1146 56.505 13.5216 55.687 14.3355C54.9006 15.1494 54.4916 16.1824 54.4916 17.4346C54.4916 18.6868 54.9006 19.7198 55.687 20.5337Z"
        fill="#09090B" />
    <path
        d="M75.6437 20.1268L79.1356 9.60853H83.4769L77.7514 25.2607C76.1155 29.7685 73.473 31.7407 69.4463 31.5216V27.7651C71.6169 27.7964 72.8124 26.8885 73.5674 24.7598L67.1183 9.60853H71.554L75.6437 20.1268Z"
        fill="#09090B" />
    <path
        d="M99.5838 19.0937H87.7238C88.2586 21.0659 89.7372 22.0364 92.1595 22.0364C93.701 22.0364 94.8965 21.5042 95.6829 20.4711L98.9547 22.3494C97.4132 24.572 95.1167 25.699 92.0966 25.699C89.4855 25.699 87.4093 24.9164 85.8363 23.3511C84.2634 21.7859 83.4769 19.8137 83.4769 17.4346C83.4769 15.0868 84.2634 13.1146 85.8049 11.5494C87.3463 9.95287 89.3597 9.17027 91.782 9.17027C94.0785 9.17027 95.9975 9.95287 97.4761 11.5494C98.9861 13.1459 99.7411 15.0868 99.7411 17.4346C99.7411 17.9668 99.6782 18.499 99.5838 19.0937ZM87.6609 15.9633H95.6829C95.211 13.8346 93.6381 12.8016 91.782 12.8016C89.6114 12.8016 88.1328 13.9598 87.6609 15.9633Z"
        fill="#09090B" />
    <path
        d="M110.892 9.17027C113 9.17027 114.825 9.98418 116.303 11.5807C117.813 13.1772 118.568 15.1181 118.568 17.4346C118.568 19.7511 117.813 21.7233 116.303 23.3198C114.825 24.9164 113 25.699 110.892 25.699C108.69 25.699 106.991 24.9477 105.796 23.4137V25.2607H101.738V3.34766H105.796V11.4555C106.991 9.92157 108.69 9.17027 110.892 9.17027ZM107.023 20.6277C107.841 21.4416 108.879 21.8485 110.137 21.8485C111.396 21.8485 112.434 21.4416 113.252 20.6277C114.101 19.7824 114.51 18.7181 114.51 17.4346C114.51 16.1511 114.101 15.0868 113.252 14.2729C112.434 13.4277 111.396 13.0207 110.137 13.0207C108.879 13.0207 107.841 13.4277 107.023 14.2729C106.205 15.0868 105.796 16.1511 105.796 17.4346C105.796 18.7181 106.205 19.7824 107.023 20.6277Z"
        fill="#09090B" />
    <path fill-rule="evenodd" clip-rule="evenodd"
        d="M26.087 14.8261L13.0435 7.21742L0 14.8261V8.30538L13.0435 0.695679L26.087 8.30538V14.8261ZM23.913 22.4348L26.087 21.3479V17L13.0435 9.39133L0 17V21.3479L2.17391 22.4348L13.0435 15.9131L23.913 22.4348ZM13.0435 24.6087L16.3043 26.7826L21.7391 23.5218L13.0435 18.087L4.34783 23.5218L9.78261 26.7826L13.0435 24.6087Z"
        fill="#09090B" />
</svg>
    