<svg width="139" height="32" viewBox="0 0 139 32" fill="none" xmlns="http://www.w3.org/2000/svg">
<path d="M44.1328 21.9995H51.8915V25.705H39.7052V6.19527H44.1328V21.9995ZM1.18408 1.36646H30.8329V30.636H1.18408V1.36646ZM3.80516 28.0562H28.2045V3.94377H3.80516V28.0562ZM9.01571 6.23417L14.1728 15.2742L8.43459 25.7439H12.1304L15.955 18.598L20.0276 25.7439H23.7915L12.7796 6.23174L9.01571 6.23417ZM84.8106 11.2332C83.8663 11.2116 82.9346 11.4523 82.119 11.9286C81.4035 12.3683 80.7834 12.9471 80.2954 13.6306H80.237C79.6292 12.1547 78.1825 11.2283 76.3589 11.2283C73.9275 11.2283 72.6826 12.5583 72.0747 13.4579H71.9872L71.7854 11.5468H68.1966V25.7002H72.4808V17.4552C72.4668 17.0812 72.5254 16.7079 72.6534 16.3562C72.9136 15.6268 73.5798 14.7636 74.708 14.7636C76.0988 14.7636 76.7358 15.9793 76.7358 17.7737V25.705H81.02V17.4382C81.0179 17.0546 81.0762 16.6731 81.1926 16.3076C81.324 15.8702 81.591 15.4858 81.955 15.2101C82.3191 14.9343 82.7613 14.7814 83.218 14.7733C84.6379 14.7733 85.3041 15.9599 85.3041 18.0169V25.7148H89.5859V17.3701C89.5859 13.1443 87.5313 11.2332 84.8106 11.2332ZM118.029 5.6409H122.43V25.6929H118.637L118.435 23.6091H118.376C117.479 25.2017 115.77 26.0114 113.946 26.0114C110.589 26.0114 107.897 23.1472 107.897 18.7463C107.868 13.971 110.849 11.221 114.236 11.221C115.974 11.221 117.333 11.8289 117.97 12.8136H118.029V5.6409ZM118.029 17.5306C118.024 17.2695 118.004 17.009 117.97 16.7501C117.71 15.5636 116.755 14.5788 115.395 14.5788C113.397 14.5788 112.356 16.3732 112.356 18.6028C112.356 21.0051 113.543 22.5101 115.366 22.5101C115.972 22.517 116.56 22.31 117.028 21.9258C117.496 21.5415 117.813 21.0046 117.924 20.4094C118.009 20.0784 118.049 19.7372 118.041 19.3955L118.029 17.5306ZM137.013 17.3263V25.6929H133.22L132.96 24.2754H132.873C131.944 25.4035 130.49 26.0114 128.805 26.0114C125.928 26.0114 124.214 23.9277 124.214 21.6689C124.214 17.9925 127.956 16.913 132.552 16.913V16.0644C132.552 15.3131 132.146 14.2409 129.967 14.2409C128.819 14.2567 127.687 14.5126 126.643 14.9922L125.233 12.4756C126.22 11.9261 128.165 11.2308 130.752 11.2308C135.486 11.2308 137.013 14.0099 137.013 17.3385V17.3263ZM132.697 19.5146C130.266 19.5146 128.294 19.68 128.284 21.4598C128.284 22.5952 129.328 22.9016 130.315 22.9016C130.819 22.9054 131.312 22.7509 131.723 22.46C132.135 22.1691 132.445 21.7563 132.61 21.2798C132.67 21.0339 132.699 20.7816 132.697 20.5285V19.5146ZM106.195 18.3573C106.195 23.4487 102.995 25.9919 99.7954 25.9919C98.1664 25.9919 96.5957 25.3841 95.5964 23.7088H95.555L95.3848 25.6734H91.8106V5.65306H96.1483V13.2221H96.2042C97.0333 12.0064 98.4898 11.2283 100.432 11.2283C103.776 11.2283 106.231 14.0318 106.205 18.3694L106.195 18.3573ZM101.765 18.5323C101.765 16.344 100.792 14.5983 98.7669 14.5983C97.595 14.5983 96.5106 15.4955 96.2237 16.7671C96.1662 17.0331 96.1377 17.3046 96.1386 17.5768V19.6605C96.1361 19.9231 96.1647 20.1851 96.2237 20.441C96.3496 21.0245 96.6697 21.548 97.1316 21.926C97.5936 22.3041 98.1701 22.5143 98.7669 22.5223C100.634 22.5345 101.775 21.0878 101.775 18.5445L101.765 18.5323ZM66.2661 17.3166V25.6831H62.4876L62.2275 24.2656H62.1399C61.2087 25.3938 59.7571 26.0017 58.0722 26.0017C55.1934 26.0163 53.4914 23.9398 53.4914 21.681C53.4914 18.0047 57.2333 16.9252 61.8287 16.9252V16.0644C61.8287 15.3131 61.4227 14.2409 59.2441 14.2409C58.0967 14.2564 56.9652 14.5124 55.9228 14.9922L54.5101 12.4756C55.4997 11.9261 57.4449 11.2308 60.0319 11.2308C64.7562 11.2308 66.2831 14.0099 66.2831 17.3385L66.2661 17.3166ZM61.9503 19.5049C59.5189 19.5049 57.547 19.6702 57.5372 21.45C57.5372 22.5855 58.5803 22.8919 59.5675 22.8919C60.0717 22.896 60.5645 22.7417 60.9764 22.4507C61.3882 22.1598 61.6983 21.7468 61.8628 21.2701C61.9223 21.0242 61.9517 20.7719 61.9503 20.5188V19.5049Z" fill="black"/>
</svg>
