<svg width="154" height="32" viewBox="0 0 154 32" fill="none" xmlns="http://www.w3.org/2000/svg">
<g clip-path="url(#clip0_678_575)">
<path d="M0 24.9796V1.14286H4.23704V21.2245H14.8296V24.8163H0V24.9796ZM22.163 25.3061C21.0222 25.3061 20.0444 25.1429 19.0667 24.6531C18.2519 24.1633 17.437 23.6735 16.9481 22.8571C16.4593 22.0408 16.1333 21.0612 16.1333 19.9184C16.1333 18.9388 16.2963 18.1224 16.6222 17.4694C16.9481 16.8163 17.437 16.3265 18.0889 15.8367C18.7407 15.5102 19.3926 15.1837 20.2074 15.0204C21.0222 14.8571 21.837 14.6939 22.6519 14.5306C23.6296 14.3673 24.6074 14.3673 25.2593 14.2041C25.9111 14.0408 26.4 14.0408 26.7259 13.7143C27.0519 13.551 27.2148 13.2245 27.2148 12.898C27.2148 12.0816 26.8889 11.4286 26.4 10.9388C25.9111 10.449 25.0963 10.2857 24.1185 10.2857C23.1407 10.2857 22.3259 10.449 21.6741 10.9388C21.0222 11.4286 20.6963 11.9184 20.5333 12.5714L16.6222 12.0816C16.9481 10.9388 17.437 10.1224 18.0889 9.30612C18.7407 8.65306 19.7185 8 20.6963 7.67347C21.6741 7.34694 22.8148 7.18367 24.1185 7.18367C24.9333 7.18367 25.7481 7.34694 26.7259 7.5102C27.5407 7.67347 28.3556 8 29.0074 8.4898C29.6593 8.97959 30.3111 9.63265 30.637 10.2857C31.1259 11.102 31.2889 12.0816 31.2889 13.2245V25.1429H27.2148V22.6939H27.0519C26.7259 23.1837 26.4 23.6735 25.9111 24.1633C25.4222 24.6531 24.9333 24.9796 24.1185 25.1429C23.9556 25.1429 23.1407 25.3061 22.163 25.3061ZM23.3037 22.2041C24.1185 22.2041 24.9333 22.0408 25.4222 21.7143C26.0741 21.3878 26.563 20.898 26.8889 20.4082C27.2148 19.9184 27.3778 19.2653 27.3778 18.6122V16.4898C27.2148 16.6531 27.0519 16.6531 26.7259 16.8163C26.4 16.9796 26.0741 16.9796 25.7481 16.9796C25.4222 16.9796 24.9333 17.1429 24.6074 17.1429C24.2815 17.1429 23.9556 17.3061 23.6296 17.3061C22.9778 17.4694 22.4889 17.4694 22 17.7959C21.5111 17.9592 21.1852 18.2857 20.8593 18.6122C20.5333 18.9388 20.3704 19.4286 20.3704 19.9184C20.3704 20.7347 20.6963 21.2245 21.1852 21.7143C21.6741 22.0408 22.3259 22.2041 23.3037 22.2041ZM38.6222 14.5306V24.9796H34.3852V7.02041H38.4593V10.1224H38.6222C39.1111 9.14286 39.763 8.32653 40.5778 7.67347C41.5556 7.02041 42.5333 6.85714 44 6.85714C45.3037 6.85714 46.2815 7.18367 47.2593 7.67347C48.237 8.16326 48.8889 8.97959 49.3778 9.95918C49.8667 10.9388 50.1926 12.2449 50.1926 13.551V24.8163H45.7926V14.2041C45.7926 13.0612 45.4667 12.0816 44.9778 11.4286C44.3259 10.7755 43.5111 10.449 42.3704 10.449C41.7185 10.449 41.0667 10.6122 40.4148 10.9388C39.9259 11.2653 39.437 11.7551 39.1111 12.2449C38.7852 12.898 38.6222 13.551 38.6222 14.5306ZM60.7852 32C59.3185 32 58.0148 31.8367 56.8741 31.3469C55.7333 31.0204 54.9185 30.3673 54.2667 29.7143C53.6148 29.0612 53.1259 28.2449 52.963 27.4286L56.7111 26.449C56.8741 26.7755 57.2 27.102 57.5259 27.4286C57.8518 27.7551 58.3407 28.0816 58.8296 28.2449C59.3185 28.4082 60.1333 28.5714 60.9482 28.5714C62.0889 28.5714 63.0667 28.2449 63.8815 27.7551C64.6963 27.102 65.0222 26.2857 65.0222 24.9796V21.551H64.8593C64.6963 22.0408 64.3704 22.3673 63.8815 22.8571C63.3926 23.3469 62.9037 23.6735 62.2519 24C61.6 24.3265 60.7852 24.4898 59.6444 24.4898C58.3407 24.4898 57.037 24.1633 55.8963 23.5102C54.7556 22.8571 53.9407 21.8776 53.2889 20.5714C52.637 19.2653 52.3111 17.6327 52.3111 15.6735C52.3111 13.7143 52.637 12.0816 53.2889 10.7755C53.9407 9.46939 54.7556 8.32653 55.8963 7.67347C57.037 7.02041 58.1778 6.69388 59.6444 6.69388C60.6222 6.69388 61.6 6.85714 62.2519 7.18367C62.9037 7.5102 63.3926 8 63.8815 8.4898C64.2074 8.97959 64.5333 9.46939 64.8593 9.79592H65.0222V7.02041H69.0963V25.1429C69.0963 26.6122 68.7704 27.9184 67.9556 28.898C67.3037 29.8776 66.163 30.6939 65.0222 31.1837C63.7185 31.6735 62.2519 32 60.7852 32ZM60.7852 21.3878C61.6 21.3878 62.4148 21.2245 63.0667 20.7347C63.7185 20.2449 64.2074 19.7551 64.5333 18.9388C64.8593 18.1224 65.0222 17.1429 65.0222 16C65.0222 14.8571 64.8593 13.8776 64.5333 13.0612C64.2074 12.0816 63.7185 11.4286 63.0667 11.102C62.4148 10.6122 61.763 10.449 60.7852 10.449C59.8074 10.449 58.9926 10.6122 58.5037 11.102C57.8519 11.5918 57.363 12.2449 57.037 13.0612C56.7111 13.8776 56.5481 14.8571 56.5481 16C56.5481 17.1429 56.7111 18.1224 57.037 18.9388C57.363 19.7551 57.8519 20.4082 58.5037 20.898C58.9926 21.0612 59.8074 21.3878 60.7852 21.3878ZM92.563 9.14286H88.163C88 8.4898 87.837 7.83673 87.5111 7.18367C87.1852 6.69388 86.6963 6.20408 86.2074 5.71429C85.7185 5.38775 85.2296 5.06122 84.5778 4.89796C83.9259 4.73469 83.2741 4.57143 82.6222 4.57143C81.3185 4.57143 80.1778 4.89796 79.2 5.55102C78.2222 6.20408 77.4074 7.18367 76.9185 8.32653C76.2667 9.79592 75.9407 11.2653 75.9407 13.0612C75.9407 14.8571 76.2667 16.4898 76.7556 17.6327C77.4074 18.9388 78.0593 19.7551 79.037 20.4082C80.0148 21.0612 81.1556 21.3878 82.4593 21.3878C83.1111 21.3878 83.763 21.2245 84.4148 21.0612C85.0667 20.898 85.5555 20.5714 86.0444 20.2449C86.5333 19.9184 87.0222 19.4286 87.3481 18.9388C87.6741 18.449 88 17.7959 88 17.1429H92.4C92.237 18.2857 91.9111 19.2653 91.4222 20.2449C90.9333 21.2245 90.1185 22.0408 89.3037 22.8571C88.4889 23.6735 87.3482 24.1633 86.2074 24.6531C85.0667 25.1429 83.763 25.3061 82.2963 25.3061C80.1778 25.3061 78.3852 24.8163 76.7556 23.8367C75.1259 22.8571 73.8222 21.551 72.8444 19.5918C71.8667 17.7959 71.3778 15.5102 71.3778 13.0612C71.3778 10.449 71.8667 8.32653 72.8444 6.53061C73.8222 4.73469 75.1259 3.26531 76.7556 2.28571C78.3852 1.30612 80.1778 0.816326 82.2963 0.816326C83.6 0.816326 84.9037 0.979592 86.0444 1.30612C87.1852 1.63265 88.163 2.28571 89.1407 2.93878C89.9556 3.59184 90.7704 4.57143 91.2593 5.55102C91.9111 6.69388 92.4 7.83673 92.563 9.14286ZM99.2444 14.5306V24.9796H95.0074V1.14286H99.0815V10.1224H99.2444C99.7333 9.14286 100.385 8.32653 101.2 7.67347C102.015 7.02041 103.156 6.85714 104.622 6.85714C105.926 6.85714 106.904 7.18367 107.881 7.67347C108.859 8.16326 109.511 8.97959 110 9.95918C110.489 10.9388 110.815 12.2449 110.815 13.551V24.8163H106.578V14.2041C106.578 13.0612 106.252 12.0816 105.6 11.4286C104.948 10.7755 104.133 10.449 102.993 10.449C102.178 10.449 101.526 10.6122 101.037 10.9388C100.385 11.2653 100.059 11.7551 99.7333 12.2449C99.4074 12.898 99.2444 13.551 99.2444 14.5306ZM118.8 25.3061C117.659 25.3061 116.681 25.1429 115.704 24.6531C114.889 24.1633 114.074 23.6735 113.585 22.8571C113.096 22.0408 112.77 21.0612 112.77 19.9184C112.77 18.9388 112.933 18.1224 113.259 17.4694C113.585 16.8163 114.074 16.3265 114.726 15.8367C115.378 15.5102 116.03 15.1837 116.844 15.0204C117.659 14.8571 118.474 14.6939 119.289 14.5306C120.267 14.3673 121.244 14.3673 121.896 14.2041C122.548 14.0408 123.037 14.0408 123.363 13.7143C123.852 13.551 124.015 13.2245 124.015 12.898C124.015 12.0816 123.689 11.4286 123.2 10.9388C122.711 10.449 121.896 10.2857 120.919 10.2857C119.941 10.2857 119.126 10.449 118.474 10.9388C117.822 11.4286 117.496 11.9184 117.333 12.5714L113.422 12.0816C113.748 10.7755 114.237 9.79592 114.889 9.14286C115.541 8.4898 116.519 7.83673 117.496 7.5102C118.474 7.18367 119.615 7.02041 120.919 7.02041C121.733 7.02041 122.548 7.18367 123.526 7.34694C124.341 7.5102 125.156 7.83673 125.807 8.32653C126.459 8.81633 127.111 9.46939 127.437 10.1224C127.926 10.9388 128.089 11.9184 128.089 13.0612V24.9796H124.015V22.5306C123.689 23.0204 123.363 23.5102 122.874 24C122.385 24.4898 121.896 24.8163 121.081 24.9796C120.593 25.1429 119.778 25.3061 118.8 25.3061ZM119.941 22.2041C120.756 22.2041 121.57 22.0408 122.059 21.7143C122.711 21.3878 123.2 20.898 123.526 20.4082C123.852 19.9184 124.015 19.2653 124.015 18.6122V16.4898C123.852 16.6531 123.689 16.6531 123.363 16.8163C123.037 16.9796 122.711 16.9796 122.385 16.9796C122.059 16.9796 121.57 17.1429 121.244 17.1429C120.919 17.1429 120.593 17.3061 120.267 17.3061C119.615 17.4694 119.126 17.4694 118.637 17.7959C118.148 17.9592 117.822 18.2857 117.496 18.6122C117.17 18.9388 117.007 19.4286 117.007 19.9184C117.007 20.7347 117.333 21.2245 117.822 21.7143C118.311 22.0408 118.963 22.2041 119.941 22.2041ZM131.022 24.9796V7.02041H135.259V24.8163H131.022V24.9796ZM133.141 4.57143C132.489 4.57143 131.837 4.40816 131.348 3.91837C130.859 3.42857 130.696 2.93878 130.696 2.28571C130.696 1.63265 130.859 1.14286 131.348 0.653061C132 0.163265 132.489 0 133.141 0C133.793 0 134.444 0.163265 134.933 0.653061C135.422 1.14286 135.585 1.63265 135.585 2.28571C135.585 2.93878 135.422 3.42857 134.933 3.91837C134.444 4.40816 133.793 4.57143 133.141 4.57143ZM142.43 14.5306V24.9796H138.193V7.02041H142.267V10.1224H142.43C142.919 9.14286 143.57 8.32653 144.385 7.67347C145.363 7.02041 146.341 6.85714 147.807 6.85714C149.111 6.85714 150.089 7.18367 151.067 7.67347C152.044 8.16326 152.696 8.97959 153.185 9.95918C153.674 10.9388 154 12.2449 154 13.551V24.8163H149.763V14.2041C149.763 13.0612 149.437 12.0816 148.785 11.4286C148.133 10.7755 147.319 10.449 146.178 10.449C145.526 10.449 144.874 10.6122 144.222 10.9388C143.733 11.2653 143.244 11.7551 142.919 12.2449C142.593 12.898 142.43 13.551 142.43 14.5306Z" fill="white"/>
</g>
<defs>
<clipPath id="clip0_678_575">
<rect width="154" height="32" fill="white"/>
</clipPath>
</defs>
</svg>
