<svg width="754" height="200" viewBox="0 0 754 200" fill="none" xmlns="http://www.w3.org/2000/svg">
<g clip-path="url(#clip0_1059_184)">
<path d="M707.9 0.5H46.1C20.9158 0.5 0.5 20.9158 0.5 46.1V153.9C0.5 179.084 20.9158 199.5 46.1 199.5H707.9C733.084 199.5 753.5 179.084 753.5 153.9V46.1C753.5 20.9158 733.084 0.5 707.9 0.5Z" fill="black" stroke="black"/>
<path fill-rule="evenodd" clip-rule="evenodd" d="M101.332 37.5663H98.796C82.8946 37.5663 71.5286 37.5782 62.891 38.7394C54.4135 39.8792 49.4024 42.0336 45.718 45.718C42.0336 49.4024 39.8792 54.4135 38.7394 62.891C37.5782 71.5286 37.5663 82.8946 37.5663 98.7959V101.332C37.5663 117.233 37.5782 128.599 38.7394 137.237C39.8792 145.714 42.0336 150.725 45.718 154.41C49.4024 158.094 54.4135 160.248 62.891 161.388C71.5286 162.549 82.8946 162.561 98.7959 162.561H101.332C117.233 162.561 128.599 162.549 137.237 161.388C145.714 160.248 150.725 158.094 154.41 154.41C158.094 150.725 160.248 145.714 161.388 137.237C162.549 128.599 162.561 117.233 162.561 101.332V98.796C162.561 82.8946 162.549 71.5286 161.388 62.891C160.248 54.4135 158.094 49.4024 154.41 45.718C150.725 42.0336 145.714 39.8792 137.237 38.7394C128.599 37.5782 117.233 37.5663 101.332 37.5663ZM41.782 41.782C32 51.5641 32 67.308 32 98.7959V101.332C32 132.82 32 148.564 41.782 158.346C51.5641 168.128 67.308 168.128 98.7959 168.128H101.332C132.82 168.128 148.564 168.128 158.346 158.346C168.128 148.564 168.128 132.82 168.128 101.332V98.796C168.128 67.308 168.128 51.5641 158.346 41.782C148.564 32 132.82 32 101.332 32H98.796C67.308 32 51.5641 32 41.782 41.782Z" fill="white"/>
<path d="M125.66 58.1782C116.678 58.1782 109.372 65.4849 109.372 74.467V81.4479H90.7557V74.467C90.7557 65.4849 83.449 58.1782 74.467 58.1782C65.4849 58.1782 58.1782 65.4849 58.1782 74.467C58.1782 83.4491 65.4849 90.7557 74.467 90.7557H81.4479V109.372H74.467C65.4849 109.372 58.1782 116.678 58.1782 125.66C58.1782 134.643 65.4849 141.949 74.467 141.949C83.449 141.949 90.7557 134.643 90.7557 125.66V118.68H109.372V125.66C109.372 134.643 116.678 141.949 125.66 141.949C134.643 141.949 141.949 134.643 141.949 125.66C141.949 116.678 134.643 109.372 125.66 109.372H118.68V90.7557H125.66C134.643 90.7557 141.949 83.4491 141.949 74.467C141.949 65.4849 134.643 58.1782 125.66 58.1782ZM118.68 81.4479V74.467C118.68 70.6042 121.798 67.4861 125.66 67.4861C129.523 67.4861 132.641 70.6042 132.641 74.467C132.641 78.3297 129.523 81.4479 125.66 81.4479H118.68ZM74.467 81.4479C70.6042 81.4479 67.4861 78.3297 67.4861 74.467C67.4861 70.6042 70.6042 67.4861 74.467 67.4861C78.3297 67.4861 81.4479 70.6042 81.4479 74.467V81.4479H74.467ZM90.7557 109.372V90.7557H109.372V109.372H90.7557ZM125.66 132.641C121.798 132.641 118.68 129.523 118.68 125.66V118.68H125.66C129.523 118.68 132.641 121.798 132.641 125.66C132.641 129.523 129.523 132.641 125.66 132.641ZM74.467 132.641C70.6042 132.641 67.4861 129.523 67.4861 125.66C67.4861 121.798 70.6042 118.68 74.467 118.68H81.4479V125.66C81.4479 129.523 78.3297 132.641 74.467 132.641Z" fill="white"/>
<path d="M199.541 52.7329H218.641V125.865H259.73V141.949H199.541V52.7329Z" fill="white"/>
<path d="M282.709 143.457C275.588 143.457 269.85 141.823 265.494 138.556C261.222 135.289 259.085 130.808 259.085 125.111C259.085 119.331 260.886 114.807 264.489 111.54C268.091 108.189 273.662 105.76 281.201 104.252L302.939 99.9798C302.939 91.1839 299.086 86.7859 291.379 86.7859C284.426 86.7859 280.321 90.0111 279.065 96.4615L260.216 95.5819C261.473 88.21 264.782 82.6393 270.143 78.8696C275.504 75.0161 282.583 73.0894 291.379 73.0894C301.432 73.0894 309.013 75.4769 314.123 80.2518C319.233 85.0267 321.788 92.0216 321.788 101.236V124.231C321.788 126.074 322.081 127.331 322.667 128.001C323.254 128.671 324.217 129.006 325.558 129.006H327.442V141.949C325.767 142.452 323.505 142.703 320.657 142.703C312.28 142.703 307.379 139.059 305.955 131.771C304.196 135.373 301.264 138.221 297.159 140.315C293.138 142.41 288.321 143.457 282.709 143.457ZM287.232 130.514C292.007 130.514 295.819 129.132 298.667 126.368C301.515 123.603 302.939 119.834 302.939 115.059V111.792L287.609 115.059C281.494 116.315 278.436 119.08 278.436 123.352C278.436 125.614 279.19 127.373 280.698 128.629C282.206 129.886 284.384 130.514 287.232 130.514Z" fill="white"/>
<path d="M328.875 74.5973H345.838L346.215 85.655C349.734 77.2779 356.393 73.0894 366.195 73.0894C373.399 73.0894 379.012 75.3931 383.033 80.0005C387.054 84.5241 389.064 90.7232 389.064 98.5976V141.949H370.216V104.88C370.216 99.184 369.42 94.9536 367.828 92.1891C366.32 89.4247 363.681 88.0425 359.912 88.0425C355.975 88.0425 352.959 89.5085 350.865 92.4405C348.77 95.3724 347.723 99.5191 347.723 104.88V141.949H328.875V74.5973Z" fill="white"/>
<path d="M424.453 162.305C415.238 162.305 408.034 160.63 402.84 157.279C397.646 153.928 394.254 149.321 392.662 143.457L412.013 142.075C412.767 144.42 414.065 146.179 415.908 147.352C417.835 148.525 420.683 149.111 424.453 149.111C433.752 149.111 438.401 144.63 438.401 135.666V128.504C436.725 131.687 434.128 134.2 430.61 136.043C427.175 137.886 423.28 138.808 418.924 138.808C413.395 138.808 408.495 137.467 404.222 134.787C399.95 132.106 396.599 128.294 394.17 123.352C391.824 118.326 390.651 112.545 390.651 106.011C390.651 99.6447 391.824 93.9902 394.17 89.0477C396.599 84.0215 399.908 80.1261 404.097 77.3617C408.369 74.5135 413.228 73.0894 418.673 73.0894C423.448 73.0894 427.552 74.1784 430.987 76.3565C434.422 78.4507 437.06 81.3408 438.903 85.0267V74.5973H457.375V135.289C457.375 144.085 454.401 150.787 448.453 155.394C442.506 160.002 434.505 162.305 424.453 162.305ZM424.327 124.86C428.683 124.86 432.118 123.142 434.631 119.708C437.228 116.273 438.526 111.54 438.526 105.509C438.526 99.8123 437.228 95.2887 434.631 91.9378C432.034 88.587 428.6 86.9116 424.327 86.9116C419.887 86.9116 416.369 88.6289 413.772 92.0635C411.259 95.4981 410.002 100.105 410.002 105.886C410.002 111.666 411.301 116.273 413.898 119.708C416.495 123.142 419.971 124.86 424.327 124.86Z" fill="white"/>
<path d="M501.474 143.457C496.783 143.457 492.678 142.494 489.16 140.567C485.725 138.556 483.045 135.708 481.118 132.022L480.741 141.949H462.772V52.7329H481.621V84.1469C483.464 80.8799 486.102 78.2411 489.537 76.2306C493.055 74.1363 497.034 73.0892 501.474 73.0892C507.087 73.0892 511.988 74.5552 516.176 77.4872C520.448 80.3354 523.715 84.4401 525.977 89.8015C528.323 95.079 529.496 101.236 529.496 108.273C529.496 115.31 528.323 121.509 525.977 126.87C523.715 132.148 520.448 136.253 516.176 139.185C511.988 142.033 507.087 143.457 501.474 143.457ZM496.197 129.006C500.469 129.006 503.862 127.163 506.375 123.478C508.888 119.792 510.145 114.724 510.145 108.273C510.145 101.823 508.888 96.7545 506.375 93.0685C503.946 89.3826 500.595 87.5397 496.322 87.5397C491.715 87.5397 488.113 89.3826 485.516 93.0685C482.919 96.6707 481.621 101.739 481.621 108.273C481.621 114.724 482.877 119.792 485.39 123.478C487.987 127.163 491.589 129.006 496.197 129.006Z" fill="white"/>
<path d="M552.099 143.457C544.979 143.457 539.24 141.823 534.884 138.556C530.612 135.289 528.476 130.808 528.476 125.111C528.476 119.331 530.277 114.807 533.879 111.54C537.481 108.189 543.052 105.76 550.591 104.252L572.33 99.9798C572.33 91.1839 568.476 86.7859 560.769 86.7859C553.816 86.7859 549.712 90.0111 548.455 96.4615L529.607 95.5819C530.863 88.21 534.172 82.6393 539.533 78.8696C544.895 75.0161 551.973 73.0894 560.769 73.0894C570.822 73.0894 578.403 75.4769 583.513 80.2518C588.623 85.0267 591.178 92.0216 591.178 101.236V124.231C591.178 126.074 591.471 127.331 592.058 128.001C592.644 128.671 593.608 129.006 594.948 129.006H596.833V141.949C595.157 142.452 592.895 142.703 590.047 142.703C581.67 142.703 576.77 139.059 575.345 131.771C573.586 135.373 570.654 138.221 566.55 140.315C562.529 142.41 557.712 143.457 552.099 143.457ZM556.623 130.514C561.398 130.514 565.209 129.132 568.057 126.368C570.906 123.603 572.33 119.834 572.33 115.059V111.792L557 115.059C550.884 116.315 547.827 119.08 547.827 123.352C547.827 125.614 548.581 127.373 550.089 128.629C551.596 129.886 553.775 130.514 556.623 130.514Z" fill="white"/>
<path d="M626.552 143.457C616.5 143.457 608.709 141.405 603.18 137.3C597.735 133.111 594.761 127.582 594.259 120.713L613.358 120.085C614.531 126.786 618.971 130.137 626.678 130.137C630.113 130.137 632.751 129.593 634.594 128.504C636.437 127.331 637.359 125.656 637.359 123.478C637.359 121.97 636.982 120.755 636.228 119.834C635.558 118.912 634.217 118.116 632.207 117.446C630.28 116.692 627.432 116.022 623.662 115.436C616.542 114.263 610.971 112.839 606.95 111.163C602.929 109.404 600.081 107.226 598.405 104.629C596.73 102.032 595.892 98.7233 595.892 94.7023C595.892 88.0844 598.447 82.8487 603.557 78.9952C608.667 75.058 616.081 73.0894 625.798 73.0894C634.929 73.0894 642.05 75.1837 647.16 79.3722C652.354 83.5607 655.37 89.1734 656.207 96.2101L637.359 96.9641C636.94 93.6132 635.683 91.0164 633.589 89.1734C631.579 87.3304 628.898 86.409 625.547 86.409C622.28 86.409 619.725 87.0791 617.882 88.4195C616.123 89.7598 615.243 91.6027 615.243 93.9483C615.243 96.3777 616.165 98.2206 618.008 99.4772C619.851 100.65 623.118 101.571 627.809 102.242C635.013 103.247 640.71 104.629 644.898 106.388C649.087 108.147 652.102 110.367 653.945 113.048C655.788 115.729 656.71 119.08 656.71 123.101C656.71 129.551 654.029 134.577 648.668 138.179C643.307 141.698 635.935 143.457 626.552 143.457Z" fill="white"/>
<path d="M689.429 143.457C682.643 143.457 676.695 142.033 671.585 139.185C666.475 136.253 662.496 132.148 659.648 126.87C656.884 121.509 655.501 115.31 655.501 108.273C655.501 101.236 656.884 95.0792 659.648 89.8017C662.413 84.4403 666.35 80.3356 671.46 77.4874C676.57 74.5554 682.517 73.0894 689.303 73.0894C695.921 73.0894 701.701 74.5554 706.643 77.4874C711.67 80.4193 715.523 84.6498 718.204 90.1786C720.885 95.6237 722.225 102.074 722.225 109.53V113.299H674.978C675.146 118.493 676.528 122.43 679.125 125.111C681.722 127.792 685.282 129.132 689.806 129.132C696.34 129.132 700.528 126.41 702.371 120.964L721.345 122.095C719.502 128.797 715.733 134.033 710.036 137.802C704.424 141.572 697.554 143.457 689.429 143.457ZM702.999 101.739C702.748 96.9641 701.408 93.3201 698.978 90.8069C696.549 88.2938 693.324 87.0372 689.303 87.0372C685.366 87.0372 682.099 88.3357 679.502 90.9326C676.989 93.5295 675.481 97.1316 674.978 101.739H702.999Z" fill="white"/>
</g>
<defs>
<clipPath id="clip0_1059_184">
<rect width="754" height="200" fill="white"/>
</clipPath>
</defs>
</svg>
