<svg width="131" height="28" viewBox="0 0 131 28" fill="none" xmlns="http://www.w3.org/2000/svg">
<g clip-path="url(#clip0_125_513)">
<mask id="mask0_125_513" style="mask-type:luminance" maskUnits="userSpaceOnUse" x="0" y="0" width="131" height="28">
<path d="M130.5 0H0.5V28H130.5V0Z" fill="white"/>
</mask>
<g mask="url(#mask0_125_513)">
<path d="M0.5 21.8572V1H4.07672V18.5714H13.0185V21.7143H0.5V21.8572ZM19.209 22.1428C18.246 22.1428 17.4206 22 16.5953 21.5715C15.9074 21.1429 15.2195 20.7143 14.8068 20C14.3942 19.2857 14.119 18.4286 14.119 17.4286C14.119 16.5714 14.2566 15.8571 14.5317 15.2857C14.8068 14.7143 15.2195 14.2857 15.7699 13.8571C16.3201 13.5714 16.8704 13.2857 17.5582 13.1428C18.246 13 18.9338 12.8572 19.6217 12.7143C20.4471 12.5714 21.2725 12.5714 21.8228 12.4286C22.373 12.2857 22.7857 12.2857 23.0608 12C23.336 11.8571 23.4735 11.5714 23.4735 11.2857C23.4735 10.5714 23.1984 10 22.7857 9.57145C22.373 9.14287 21.6852 8.99999 20.8598 8.99999C20.0344 8.99999 19.3465 9.14287 18.7963 9.57145C18.246 10 17.9709 10.4286 17.8333 11L14.5317 10.5714C14.8068 9.57145 15.2195 8.8571 15.7699 8.14285C16.3201 7.57143 17.1455 7 17.9709 6.71429C18.7963 6.42857 19.7592 6.28571 20.8598 6.28571C21.5476 6.28571 22.2354 6.42857 23.0608 6.57142C23.7486 6.71429 24.4365 7 24.9868 7.42858C25.5371 7.85714 26.0873 8.42857 26.3624 8.99999C26.7751 9.71425 26.9127 10.5714 26.9127 11.5714V22H23.4735V19.8572H23.336C23.0608 20.2857 22.7857 20.7143 22.373 21.1429C21.9603 21.5715 21.5476 21.8572 20.8598 22C20.7223 22 20.0344 22.1428 19.209 22.1428ZM20.172 19.4286C20.8598 19.4286 21.5476 19.2857 21.9603 19C22.5106 18.7143 22.9233 18.2857 23.1984 17.8572C23.4735 17.4286 23.6111 16.8571 23.6111 16.2857V14.4286C23.4735 14.5715 23.336 14.5715 23.0608 14.7143C22.7857 14.8571 22.5106 14.8572 22.2354 14.8572C21.9603 14.8572 21.5476 15 21.2725 15C20.9974 15 20.7223 15.1428 20.4471 15.1428C19.8968 15.2857 19.4841 15.2857 19.0714 15.5714C18.6587 15.7143 18.3836 16 18.1085 16.2857C17.8333 16.5714 17.6958 17 17.6958 17.4286C17.6958 18.1429 17.9709 18.5714 18.3836 19C18.7963 19.2857 19.3465 19.4286 20.172 19.4286ZM33.1032 12.7143V21.8572H29.5265V6.14286H32.9656V8.8571H33.1032C33.5159 8 34.0662 7.28571 34.754 6.71429C35.5794 6.14286 36.4047 6 37.6429 6C38.7434 6 39.5688 6.28571 40.3942 6.71429C41.2195 7.14285 41.7699 7.85714 42.1826 8.71428C42.5953 9.57145 42.8704 10.7143 42.8704 11.8571V21.7143H39.1561V12.4286C39.1561 11.4285 38.881 10.5714 38.4683 10C37.918 9.42856 37.2301 9.14288 36.2672 9.14288C35.7169 9.14288 35.1667 9.28568 34.6164 9.57145C34.2037 9.85714 33.791 10.2857 33.5159 10.7143C33.2408 11.2857 33.1032 11.8571 33.1032 12.7143ZM51.8122 28C50.5741 28 49.4735 27.8571 48.5106 27.4285C47.5476 27.1429 46.8598 26.5714 46.3096 26C45.7592 25.4286 45.3465 24.7143 45.209 24L48.373 23.1429C48.5106 23.4286 48.7857 23.7143 49.0608 24C49.3359 24.2857 49.7486 24.5714 50.1614 24.7143C50.5741 24.8572 51.2619 25 51.9498 25C52.9127 25 53.7381 24.7143 54.4259 24.2857C55.1138 23.7143 55.3889 23 55.3889 21.8572V18.8571H55.2514C55.1138 19.2857 54.8386 19.5714 54.4259 20C54.0132 20.4285 53.6005 20.7143 53.0503 21C52.5 21.2857 51.8122 21.4286 50.8492 21.4286C49.7486 21.4286 48.6481 21.1429 47.6852 20.5714C46.7223 20 46.0344 19.1429 45.4841 18C44.9338 16.8571 44.6587 15.4286 44.6587 13.7143C44.6587 12 44.9338 10.5714 45.4841 9.42856C46.0344 8.28572 46.7223 7.28571 47.6852 6.71429C48.6481 6.14286 49.6111 5.85715 50.8492 5.85715C51.6746 5.85715 52.5 6 53.0503 6.28571C53.6005 6.57142 54.0132 7 54.4259 7.42858C54.7011 7.85714 54.9762 8.28572 55.2514 8.57143H55.3889V6.14286H58.828V22C58.828 23.2857 58.5529 24.4286 57.8651 25.2858C57.3148 26.1429 56.3519 26.8572 55.3889 27.2857C54.2883 27.7143 53.0503 28 51.8122 28ZM51.8122 18.7143C52.5 18.7143 53.1878 18.5714 53.7381 18.1429C54.2883 17.7143 54.7011 17.2857 54.9762 16.5715C55.2514 15.8571 55.3889 15 55.3889 14C55.3889 13 55.2514 12.1429 54.9762 11.4285C54.7011 10.5714 54.2883 10 53.7381 9.71425C53.1878 9.28568 52.6376 9.14288 51.8122 9.14288C50.9868 9.14288 50.299 9.28568 49.8862 9.71425C49.336 10.1428 48.9233 10.7143 48.6481 11.4285C48.373 12.1429 48.2354 13 48.2354 14C48.2354 15 48.373 15.8571 48.6481 16.5715C48.9233 17.2857 49.336 17.8572 49.8862 18.2858C50.299 18.4286 50.9868 18.7143 51.8122 18.7143ZM78.6376 8H74.9233C74.7857 7.42858 74.6481 6.85714 74.373 6.28571C74.0979 5.85714 73.6852 5.42857 73.2725 5C72.8598 4.71428 72.4471 4.42857 71.8968 4.28572C71.3465 4.14285 70.7963 4 70.246 4C69.1455 4 68.1826 4.28572 67.3571 4.85714C66.5317 5.42857 65.8439 6.28571 65.4312 7.28571C64.881 8.57143 64.6058 9.85714 64.6058 11.4285C64.6058 13 64.881 14.4286 65.2937 15.4286C65.8439 16.5714 66.3942 17.2857 67.2196 17.8572C68.045 18.4285 69.008 18.7143 70.1085 18.7143C70.6587 18.7143 71.209 18.5714 71.7592 18.4285C72.3096 18.2857 72.7222 18 73.1349 17.7143C73.5476 17.4286 73.9603 17 74.2354 16.5715C74.5106 16.1429 74.7857 15.5714 74.7857 15H78.5C78.3624 16 78.0873 16.8571 77.6746 17.7143C77.2619 18.5714 76.5741 19.2857 75.8862 20C75.1984 20.7143 74.2355 21.1429 73.2725 21.5715C72.3095 22 71.209 22.1428 69.9709 22.1428C68.1826 22.1428 66.6693 21.7143 65.2937 20.8571C63.918 20 62.8174 18.8571 61.992 17.1428C61.1667 15.5714 60.754 13.5714 60.754 11.4285C60.754 9.14287 61.1667 7.28571 61.992 5.71428C62.8174 4.14285 63.918 2.85715 65.2937 2C66.6693 1.14286 68.1826 0.714285 69.9709 0.714285C71.0714 0.714285 72.172 0.857143 73.1349 1.14286C74.0979 1.42857 74.9233 2 75.7486 2.57143C76.4365 3.14286 77.1244 4 77.5371 4.85714C78.0873 5.85715 78.5 6.85714 78.6376 8ZM84.2777 12.7143V21.8572H80.701V1H84.1402V8.8571H84.2777C84.6904 8 85.2406 7.28571 85.9286 6.71429C86.6166 6.14286 87.5797 6 88.8173 6C89.9181 6 90.7436 6.28571 91.5684 6.71429C92.394 7.14285 92.9444 7.85714 93.3571 8.71428C93.7699 9.57145 94.0451 10.7143 94.0451 11.8571V21.7143H90.4684V12.4286C90.4684 11.4285 90.1932 10.5714 89.6429 10C89.0925 9.42856 88.4045 9.14288 87.4421 9.14288C86.7542 9.14288 86.2038 9.28568 85.791 9.57145C85.2406 9.85714 84.9654 10.2857 84.6904 10.7143C84.4153 11.2857 84.2777 11.8571 84.2777 12.7143ZM100.786 22.1428C99.8225 22.1428 98.9969 22 98.1722 21.5715C97.4842 21.1429 96.7962 20.7143 96.3834 20C95.9706 19.2857 95.6954 18.4286 95.6954 17.4286C95.6954 16.5714 95.8331 15.8571 96.1082 15.2857C96.3834 14.7143 96.7962 14.2857 97.3466 13.8571C97.897 13.5714 98.4474 13.2857 99.1345 13.1428C99.8225 13 100.511 12.8572 101.199 12.7143C102.024 12.5714 102.849 12.5714 103.399 12.4286C103.95 12.2857 104.362 12.2857 104.638 12C105.05 11.8571 105.188 11.5714 105.188 11.2857C105.188 10.5714 104.913 10 104.5 9.57145C104.087 9.14287 103.399 8.99999 102.574 8.99999C101.749 8.99999 101.061 9.14287 100.511 9.57145C99.9601 10 99.6849 10.4286 99.5473 11L96.2458 10.5714C96.521 9.42856 96.9338 8.57143 97.4842 8C98.0346 7.42858 98.8602 6.85714 99.6849 6.57142C100.511 6.28571 101.474 6.14286 102.574 6.14286C103.262 6.14286 103.95 6.28571 104.775 6.42857C105.463 6.57142 106.151 6.85714 106.701 7.28571C107.251 7.71429 107.801 8.28572 108.077 8.8571C108.489 9.57145 108.627 10.4286 108.627 11.4285V21.8572H105.188V19.7143C104.913 20.1428 104.638 20.5714 104.225 21C103.812 21.4286 103.399 21.7143 102.711 21.8572C102.299 22 101.611 22.1428 100.786 22.1428ZM101.749 19.4286C102.437 19.4286 103.124 19.2857 103.537 19C104.087 18.7143 104.5 18.2857 104.775 17.8572C105.05 17.4286 105.188 16.8571 105.188 16.2857V14.4286C105.05 14.5715 104.913 14.5715 104.638 14.7143C104.362 14.8571 104.087 14.8572 103.812 14.8572C103.537 14.8572 103.124 15 102.849 15C102.574 15 102.299 15.1428 102.024 15.1428C101.474 15.2857 101.061 15.2857 100.648 15.5714C100.235 15.7143 99.9601 16 99.6849 16.2857C99.4097 16.5714 99.2721 17 99.2721 17.4286C99.2721 18.1429 99.5473 18.5714 99.9601 19C100.373 19.2857 100.923 19.4286 101.749 19.4286ZM111.103 21.8572V6.14286H114.68V21.7143H111.103V21.8572ZM112.892 4C112.341 4 111.791 3.85714 111.378 3.42857C110.965 3 110.828 2.57143 110.828 2C110.828 1.42857 110.965 1 111.378 0.571428C111.929 0.142857 112.341 0 112.892 0C113.442 0 113.992 0.142857 114.404 0.571428C114.817 1 114.955 1.42857 114.955 2C114.955 2.57143 114.817 3 114.404 3.42857C113.992 3.85714 113.442 4 112.892 4ZM120.733 12.7143V21.8572H117.156V6.14286H120.596V8.8571H120.733C121.146 8 121.695 7.28571 122.383 6.71429C123.209 6.14286 124.035 6 125.272 6C126.373 6 127.199 6.28571 128.024 6.71429C128.849 7.14285 129.399 7.85714 129.812 8.71428C130.225 9.57145 130.5 10.7143 130.5 11.8571V21.7143H126.923V12.4286C126.923 11.4285 126.648 10.5714 126.098 10C125.547 9.42856 124.86 9.14288 123.897 9.14288C123.347 9.14288 122.796 9.28568 122.246 9.57145C121.833 9.85714 121.42 10.2857 121.146 10.7143C120.871 11.2857 120.733 11.8571 120.733 12.7143Z" fill="#14171F"/>
</g>
</g>
<defs>
<clipPath id="clip0_125_513">
<rect width="130" height="28" fill="white" transform="translate(0.5)"/>
</clipPath>
</defs>
</svg>
