<svg width="500" height="123" viewBox="0 0 500 123" fill="none" xmlns="http://www.w3.org/2000/svg">
<path d="M429.36 42.5701C429.36 27.3436 441.703 15 456.93 15C472.157 15 484.5 27.3436 484.5 42.5701V79.9035C484.5 95.13 472.157 107.474 456.93 107.474C441.703 107.474 429.36 95.13 429.36 79.9035V42.5701Z" stroke="#E93F38" stroke-width="30"/>
<path d="M392.5 120.25H363V32.25H349.5V2.75H392.5V16.25V120.25Z" fill="#E93F38"/>
<path d="M217.5 52.75C219.233 40.75 225.187 27.0914 238 16.25C250.825 5.39906 266.5 2.15548 277.5 2.75004C288.5 3.34459 297.223 5.93219 305.5 10.75C316.007 16.8658 322.644 25.7158 326 30.75C332 39.75 333.6 50.25 333.6 50.25H303C303 50.25 300.541 43.6529 295.5 39.75C289.763 35.3078 283.742 32.7003 276.5 32.25C266.645 31.6374 258.036 36.4358 252 44.25C247.164 50.5119 246.127 55.8465 246.5 63.75C246.986 74.0431 251.939 81.0155 260.5 86.75C268.814 92.3184 281.5 92.2941 290.5 87C299.5 81.7059 303 72.75 303 72.75H288V63.75H334.5C334.5 63.75 333.664 79.2392 327 90.75C316 109.75 297 119.81 278.5 120.25C260 120.69 242.5 114.75 228.5 96.75C217.626 82.7691 215.623 65.75 217.5 52.75Z" fill="#E93F38"/>
<circle cx="144" cy="61.75" r="44" stroke="#E93F38" stroke-width="30"/>
<path d="M0.5 2.75H30V16.25V91.25H74.5V120.75H0V104.25L0.5 2.75Z" fill="#E93F38"/>
</svg>
