<svg width="225" height="59" viewBox="0 0 225 59" fill="none" xmlns="http://www.w3.org/2000/svg">
<g clip-path="url(#clip0_2554_986)">
<path d="M88.2998 16.6001C85.5998 16.6001 83.0998 17.8001 81.4998 19.9001C80.0998 17.6001 77.6998 16.6001 74.4998 16.6001C72.1998 16.6001 69.8998 17.5001 68.2998 19.2001L67.3998 17.3001H63.7998V41.2001H69.3998V26.5001C69.4998 23.4001 71.3998 21.8001 73.5998 21.8001C75.8998 21.8001 77.5998 23.5001 77.5998 27.0001V41.2001H83.1998V26.2001C83.4998 23.1001 85.2998 21.8001 87.3998 21.8001C89.6998 21.8001 91.3998 23.5001 91.3998 27.0001V41.2001H96.9998V27.2001C96.8998 19.8001 93.6998 16.6001 88.2998 16.6001Z" fill="black"/>
<path d="M116.5 19.1002C114.6 17.3002 112 16.4002 109.3 16.6002C103.6 16.6002 100 19.6002 100 26.7002V31.8002C100 38.9002 103.6 41.9002 109.3 41.9002C111.9 42.0002 114.5 41.1002 116.5 39.4002L117.4 41.3002H121.2V17.2002H117.4L116.5 19.1002ZM115.6 32.4002C115.2 35.2002 113.3 36.6002 110.6 36.6002C107.4 36.6002 105.7 35.0002 105.7 31.5002V27.0002C105.7 23.5002 107.5 21.9002 110.6 21.9002C113.4 21.9002 115.3 23.3002 115.6 26.1002V32.4002Z" fill="black"/>
<path d="M130.2 31.0001V22.3001H136.2V17.1001H130.2V11.1001H124.6V32.1001C124.6 38.2001 127.5 41.1001 133.1 41.1001H136.5V35.9001H134.3C131.5 35.9001 130.2 34.4001 130.2 31.0001Z" fill="black"/>
<path d="M155.5 8.2002H149.9V41.1002H155.5V8.2002Z" fill="black"/>
<path d="M165.6 8.2002H160V41.1002H165.6V8.2002Z" fill="black"/>
<path d="M175.8 8.2002H170.1V14.2002H175.8V8.2002Z" fill="black"/>
<path d="M175.8 17.2002H170.2V41.1002H175.8V17.2002Z" fill="black"/>
<path d="M145.4 8.2002H139.7V14.2002H145.4V8.2002Z" fill="black"/>
<path d="M145.4 17.2002H139.8V41.1002H145.4V17.2002Z" fill="black"/>
<path d="M189.4 16.6001C182.6 16.6001 178.9 20.5001 178.9 26.8001V31.7001C178.9 38.0001 182.7 41.9001 189.5 41.9001C196.3 41.9001 200 37.9001 200 31.6001V26.7001C200 20.5001 196.3 16.6001 189.4 16.6001ZM194.4 31.4001C194.4 34.8001 192.8 36.6001 189.4 36.6001C186 36.6001 184.5 34.8001 184.5 31.4001V26.9001C184.5 23.5001 186.1 21.7001 189.5 21.7001C192.9 21.7001 194.4 23.5001 194.4 26.9001V31.4001Z" fill="black"/>
<path d="M215 16.6001C212.3 16.5001 209.7 17.5001 207.8 19.3001L206.8 17.2001H203.2V41.1001H208.8V26.5001C208.8 23.9001 210.9 21.8001 213.5 21.8001C213.6 21.8001 213.7 21.8001 213.8 21.8001C216.6 21.8001 218.6 23.5001 218.6 27.2001V41.1001H224.2V27.2001C224.1 19.7001 220.5 16.6001 215 16.6001Z" fill="black"/>
<path d="M48.7 11.7002L30.2 1.0002C27.8 -0.399805 24.8 -0.399805 22.4 1.0002L3.9 11.7002C1.5 13.1002 0 15.7002 0 18.5002V39.9002C0 42.7002 1.5 45.2002 3.9 46.6002L22.4 57.3002C24.8 58.7002 27.8 58.7002 30.2 57.3002L48.7 46.6002C51.1 45.2002 52.6 42.7002 52.6 39.9002V18.5002C52.6 15.7002 51.1 13.1002 48.7 11.7002ZM8.6 42.2002C6.7 42.2002 5.2 40.7002 5.2 38.8002C5.2 38.0002 5.5 37.2002 6 36.6002L23.7 16.2002C24.9 14.8002 27 14.7002 28.4 15.9002C29.8 17.1002 29.9 19.2002 28.7 20.6002L11.2 41.1002C10.5 41.8002 9.6 42.2002 8.6 42.2002ZM46.2 41.4002C44.8 42.6002 42.7 42.4002 41.5 41.0002L33 31.2002L24.5 41.1002C23.3 42.5002 21.1 42.6002 19.8 41.3002C18.5 40.1002 18.3 38.1002 19.4 36.7002L30.4 23.9002L30.5 23.8002C30.6 23.7002 30.6 23.6002 30.7 23.6002C30.8 23.5002 30.9 23.5002 31 23.4002L31.1 23.3002C31.1 23.3002 31.2 23.2002 31.3 23.2002C31.5 23.1002 31.6 23.0002 31.8 23.0002C31.9 23.0002 31.9 23.0002 32 22.9002H32.1C32.2 22.9002 32.2 22.9002 32.3 22.8002C32.4 22.8002 32.4 22.8002 32.5 22.8002C32.6 22.8002 32.6 22.8002 32.7 22.8002H32.8H32.9C33 22.8002 33.1 22.8002 33.2 22.8002H33.3H33.4C33.4 22.8002 33.5 22.8002 33.6 22.8002C33.7 22.8002 33.7 22.8002 33.8 22.8002C33.9 22.8002 33.9 22.8002 34 22.8002C34 22.8002 34 22.8002 34.1 22.8002C34.2 22.8002 34.2 22.8002 34.2 22.8002H34.3C34.3 22.8002 34.4 22.8002 34.4 22.9002C34.6 23.0002 34.8 23.1002 35 23.3002L35.1 23.4002L35.2 23.5002L35.3 23.6002L35.4 23.7002L46.4 36.5002C47.8 38.1002 47.6 40.2002 46.2 41.4002Z" fill="black"/>
<path d="M35.1001 23.3999L35.2001 23.4999C35.2001 23.4999 35.2001 23.4999 35.1001 23.3999Z" fill="black"/>
</g>
<defs>
<clipPath id="clip0_2554_986">
<rect width="224.1" height="58.3" fill="white"/>
</clipPath>
</defs>
</svg>
