<svg width="433" height="120" viewBox="0 0 433 120" fill="none" xmlns="http://www.w3.org/2000/svg">
<g clip-path="url(#clip0_416_404)">
<mask id="mask0_416_404" style="mask-type:luminance" maskUnits="userSpaceOnUse" x="0" y="2" width="433" height="117">
<path d="M432.453 2.20998H0V118.924H432.453V2.20998Z" fill="white"/>
</mask>
<g mask="url(#mask0_416_404)">
<path fill-rule="evenodd" clip-rule="evenodd" d="M87.463 38.4419V89.0672C87.463 90.1519 86.1358 90.6724 85.3968 89.8777L67.1509 70.2251V51.8642L52.1155 35.6685V3.40464C52.1155 2.31991 53.4428 1.79939 54.1818 2.59408L87.463 38.4419ZM61.4047 103.277V52.6512L28.1235 16.8033C27.3845 16.0086 26.0572 16.5291 26.0572 17.6139V49.8779L41.0925 66.0733V84.4345L59.3384 104.087C60.0774 104.882 61.4047 104.361 61.4047 103.277ZM35.3472 117.458V66.8325L3.44097 32.4668C2.21318 31.1436 0 32.0137 0 33.8176V64.0592L15.0353 80.2546V98.6158L33.2812 118.268C34.0202 119.063 35.3472 118.542 35.3472 117.458ZM113.52 99.6014V30.2853H113.524L147.127 66.4791L180.631 30.2853V99.6014H169.398V57.6462L147.123 82.0309L124.753 57.6462V99.6014H113.52ZM195.834 95.6359C195.178 95.167 194.543 94.6664 193.927 94.13V94.142C189.062 89.791 186.63 83.2947 186.63 75.614C186.63 67.9333 188.84 61.8541 193.255 57.3722C194.768 55.8582 196.428 54.5986 198.233 53.5972C201.769 51.6306 205.874 50.649 210.535 50.649C217.444 50.649 223.015 53.0807 227.239 57.9441C231.462 62.8078 233.445 69.5307 233.192 78.1053H197.669C197.835 82.015 199.076 85.027 201.392 87.1329C201.729 87.4349 202.087 87.725 202.469 87.991C205.54 90.0374 209.256 91.0626 213.606 91.0626H213.658C219.141 91.0546 224.247 89.6758 228.967 86.9341V97.2054C224.53 99.3034 219.411 100.42 213.622 100.551C213.237 100.559 212.847 100.563 212.453 100.563C205.958 100.563 200.418 98.9178 195.834 95.6359ZM202.278 62.16C202.869 61.6791 203.485 61.262 204.121 60.9004L210.443 59.2793C210.643 59.2793 210.841 59.2834 211.036 59.2913C213.968 59.4066 216.396 60.3958 218.314 62.2553C218.573 62.4937 218.815 62.7482 219.045 63.0143C220.659 64.8779 221.664 67.377 222.057 70.5122H197.864C198.44 66.8008 199.91 64.0157 202.278 62.16ZM247.673 99.6014H258.235V61.0078H272.925V51.5989H258.235V34.0284H247.673V51.5989H236.731V61.0078H247.673V99.6014ZM278.667 34.0284H289.227L289.22 34.0322V56.6887C292.488 52.6558 297.19 50.6411 303.333 50.6411C309.032 50.6411 313.571 52.4966 316.965 56.2078C320.423 59.8555 322.15 64.7547 322.15 70.8976V99.6014H311.59V72.626C311.59 69.2087 310.884 66.4553 309.46 64.3612C309.256 64.0594 309.038 63.7732 308.808 63.5031C307.132 61.4647 304.748 60.3799 301.662 60.2529C301.454 60.2447 301.243 60.2407 301.032 60.2407C296.106 60.2407 292.478 62.1758 290.144 66.046C289.816 66.5982 289.506 67.1903 289.227 67.8222V99.5975H278.667V34.0284ZM353.033 100.559C360.138 100.559 366.091 98.1591 370.891 93.3591C375.754 88.4957 378.186 82.5754 378.186 75.598C378.186 69.4949 376.32 64.2222 372.598 59.7838C372.07 59.1482 371.497 58.5321 370.891 57.9324C366.392 53.3708 360.876 50.9511 354.351 50.6651C353.914 50.645 353.479 50.637 353.033 50.637C346.818 50.637 341.457 52.5007 336.955 56.2236C336.312 56.7561 335.688 57.3244 335.081 57.9324C330.281 62.7321 327.881 68.6207 327.881 75.598C327.881 82.5754 330.281 88.4957 335.081 93.3591C339.944 98.1591 345.928 100.559 353.033 100.559ZM363.303 86.4496C360.786 89.1514 357.618 90.5857 353.805 90.7526L353.798 90.7485C353.545 90.7605 353.287 90.7644 353.029 90.7644C349.334 90.7644 346.202 89.664 343.632 87.4587C343.266 87.1447 342.912 86.8071 342.566 86.4455C340.048 83.6839 338.71 80.3343 338.549 76.3927C338.538 76.1305 338.534 75.8681 338.534 75.598C338.534 71.3108 339.876 67.7266 342.566 64.8462C345.322 61.9019 348.811 60.4315 353.033 60.4315H353.126C357.245 60.4515 360.638 61.9257 363.303 64.8462C366.057 67.7266 367.431 71.3108 367.431 75.598C367.431 79.3528 366.38 82.5912 364.272 85.313C363.971 85.7024 363.65 86.0798 363.303 86.4496ZM407.873 100.559C400.897 100.559 395.171 98.1272 390.688 93.2638V93.2676C386.21 88.4042 383.971 82.5158 383.971 75.602C383.971 68.6882 386.21 62.7996 390.688 57.9362C395.171 53.0728 400.897 50.6411 407.873 50.6411C413.762 50.6411 418.435 52.4332 421.891 56.0171V34.0442H432.453V99.6014H421.891V95.0875C418.435 98.7353 413.762 100.559 407.873 100.559ZM409.121 90.9591C414.629 90.9591 418.884 88.7183 421.891 84.2402V66.8644C418.816 62.45 414.559 60.2407 409.121 60.2407C404.959 60.2407 401.54 61.7468 398.851 64.7547C396.161 67.699 394.816 71.3146 394.816 75.602C394.816 79.8894 396.163 83.537 398.851 86.5447C401.536 89.4851 404.959 90.9591 409.121 90.9591Z" fill="#000B27"/>
</g>
</g>
<defs>
<clipPath id="clip0_416_404">
<rect width="432.453" height="120" fill="white"/>
</clipPath>
</defs>
</svg>
