<svg width="238" height="51" viewBox="0 0 238 51" fill="none" xmlns="http://www.w3.org/2000/svg">
<g clip-path="url(#clip0_900_3949)">
<path d="M238 23.0726V18.8736H232.802V12.3457L232.627 12.3998L227.745 13.8983L227.649 13.9276V18.8738H219.944V16.1184C219.944 14.8353 220.229 13.8535 220.793 13.1987C221.353 12.5517 222.153 12.2228 223.174 12.2228C223.908 12.2228 224.668 12.3963 225.433 12.7384L225.625 12.8243V8.40213L225.535 8.36887C224.821 8.11157 223.851 7.98199 222.648 7.98199C221.132 7.98199 219.754 8.31297 218.553 8.96893C217.351 9.62581 216.405 10.5635 215.743 11.7558C215.083 12.9467 214.748 14.3221 214.748 15.8442V18.8736H211.129V23.0726H214.748V40.7624H219.944V23.0726H227.649V34.3142C227.649 38.944 229.826 41.2901 234.119 41.2901C234.824 41.2901 235.567 41.2072 236.325 41.0448C237.097 40.8781 237.622 40.7116 237.932 40.5337L238 40.4931V36.2552L237.789 36.3954C237.507 36.5839 237.156 36.738 236.744 36.8525C236.331 36.9692 235.985 37.0276 235.718 37.0276C234.712 37.0276 233.968 36.7557 233.506 36.2192C233.039 35.6778 232.803 34.7311 232.803 33.4067V23.0726H238ZM199.526 37.0283C197.64 37.0283 196.153 36.401 195.106 35.1653C194.051 33.9234 193.517 32.1527 193.517 29.9031C193.517 27.5821 194.051 25.7655 195.106 24.5016C196.154 23.2461 197.627 22.6088 199.484 22.6088C201.285 22.6088 202.719 23.2175 203.747 24.4187C204.779 25.6262 205.303 27.4283 205.303 29.7763C205.303 32.1532 204.81 33.979 203.839 35.2004C202.874 36.4125 201.423 37.0283 199.526 37.0283ZM199.757 18.3463C196.159 18.3463 193.301 19.4039 191.264 21.4898C189.228 23.5759 188.195 26.4628 188.195 30.071C188.195 33.4981 189.203 36.2548 191.191 38.2631C193.179 40.272 195.884 41.2897 199.231 41.2897C202.718 41.2897 205.519 40.2173 207.556 38.1025C209.592 35.9901 210.624 33.1304 210.624 29.6065C210.624 26.1258 209.656 23.3486 207.745 21.3538C205.834 19.3579 203.146 18.3463 199.757 18.3463ZM179.818 18.3463C177.371 18.3463 175.347 18.9743 173.8 20.2125C172.244 21.4582 171.455 23.0918 171.455 25.0687C171.455 26.0963 171.625 27.0091 171.961 27.7833C172.298 28.56 172.82 29.2439 173.513 29.8179C174.202 30.3872 175.264 30.9836 176.671 31.5903C177.855 32.0788 178.737 32.492 179.298 32.8177C179.846 33.1369 180.235 33.4577 180.454 33.7702C180.668 34.076 180.776 34.4946 180.776 35.011C180.776 36.4816 179.678 37.1971 177.419 37.1971C176.582 37.1971 175.626 37.0216 174.579 36.6756C173.54 36.3348 172.559 35.8358 171.67 35.196L171.455 35.0408V40.0591L171.534 40.096C172.269 40.4365 173.196 40.7236 174.288 40.9495C175.379 41.1756 176.369 41.2906 177.23 41.2906C179.886 41.2906 182.024 40.6596 183.585 39.414C185.155 38.1598 185.951 36.4876 185.951 34.4423C185.951 32.9669 185.523 31.7017 184.678 30.6812C183.839 29.6691 182.384 28.7399 180.353 27.9186C178.736 27.2673 177.699 26.7266 177.272 26.3115C176.86 25.9106 176.65 25.3435 176.65 24.6254C176.65 23.9889 176.909 23.4789 177.439 23.0659C177.973 22.6509 178.717 22.4398 179.65 22.4398C180.516 22.4398 181.402 22.577 182.282 22.8458C183.163 23.1147 183.936 23.4748 184.581 23.9152L184.793 24.0607V19.3004L184.712 19.2653C184.116 19.0092 183.331 18.79 182.378 18.6121C181.428 18.4355 180.567 18.3463 179.818 18.3463ZM157.91 37.0283C156.025 37.0283 154.538 36.401 153.49 35.1653C152.436 33.9234 151.903 32.1532 151.903 29.9031C151.903 27.5821 152.436 25.7655 153.491 24.5016C154.539 23.2461 156.011 22.6088 157.869 22.6088C159.67 22.6088 161.104 23.2175 162.131 24.4187C163.164 25.6262 163.688 27.4283 163.688 29.7763C163.688 32.1532 163.195 33.979 162.223 35.2004C161.258 36.4125 159.808 37.0283 157.91 37.0283ZM158.142 18.3463C154.543 18.3463 151.685 19.4039 149.649 21.4898C147.613 23.5759 146.58 26.4628 146.58 30.071C146.58 33.4995 147.588 36.2548 149.576 38.2631C151.564 40.272 154.269 41.2897 157.616 41.2897C161.103 41.2897 163.904 40.2173 165.941 38.1025C167.977 35.9901 169.009 33.1304 169.009 29.6065C169.009 26.1258 168.041 23.3486 166.13 21.3538C164.218 19.3579 161.531 18.3463 158.142 18.3463ZM138.693 22.6643V18.8736H133.561V40.7619H138.693V29.5652C138.693 27.6613 139.123 26.0972 139.972 24.9158C140.811 23.7485 141.928 23.1569 143.292 23.1569C143.754 23.1569 144.273 23.2334 144.835 23.3847C145.391 23.535 145.794 23.6983 146.032 23.8702L146.247 24.027V18.8362L146.164 18.8004C145.686 18.5967 145.01 18.4939 144.155 18.4939C142.865 18.4939 141.711 18.9096 140.722 19.7282C139.854 20.4477 139.227 21.4341 138.748 22.6643H138.693ZM124.37 18.3463C122.015 18.3463 119.915 18.8528 118.129 19.8513C116.339 20.8521 114.954 22.2809 114.012 24.0977C113.075 25.9101 112.598 28.0272 112.598 30.3881C112.598 32.4562 113.06 34.3541 113.972 36.0268C114.885 37.7023 116.177 39.013 117.813 39.9221C119.446 40.8301 121.334 41.2904 123.424 41.2904C125.863 41.2904 127.945 40.8012 129.615 39.8364L129.682 39.7976V35.0805L129.467 35.2385C128.71 35.7912 127.865 36.2324 126.956 36.5502C126.049 36.8678 125.222 37.0283 124.497 37.0283C122.483 37.0283 120.866 36.3961 119.693 35.1498C118.517 33.9019 117.92 32.1495 117.92 29.9444C117.92 27.7255 118.542 25.9281 119.768 24.6019C120.989 23.2796 122.609 22.6088 124.581 22.6088C126.268 22.6088 127.912 23.1819 129.467 24.3136L129.682 24.4705V19.5002L129.613 19.461C129.028 19.1323 128.23 18.8609 127.239 18.6551C126.252 18.4498 125.287 18.3463 124.37 18.3463ZM109.064 18.8738H103.931V40.7619H109.064V18.8738ZM106.55 9.54936C105.705 9.54936 104.969 9.83784 104.363 10.4095C103.756 10.9828 103.447 11.7045 103.447 12.5564C103.447 13.3948 103.752 14.1034 104.354 14.6614C104.952 15.2178 105.691 15.4998 106.55 15.4998C107.409 15.4998 108.151 15.2178 108.756 14.6623C109.366 14.1034 109.675 13.395 109.675 12.5564C109.675 11.7343 109.374 11.0199 108.781 10.4326C108.19 9.84638 107.439 9.54936 106.55 9.54936ZM93.7446 17.2589V40.7619H98.9824V10.2194H91.7331L82.5188 32.9055L73.5769 10.2194H66.0325V40.7617H70.9546V17.2566H71.1236L80.566 40.7619H84.2806L93.5757 17.2589H93.7446Z" fill="white"/>
<path d="M24.1438 24.2344H0V0.0130615H24.1438V24.2344Z" fill="#F1511B"/>
<path d="M50.8013 24.2344H26.658V0.0130615H50.8013V24.2344Z" fill="#80CC28"/>
<path d="M24.1431 50.9869H0V26.7658H24.1431V50.9869Z" fill="#00ADEF"/>
<path d="M50.8013 50.9869H26.658V26.7658H50.8013V50.9869Z" fill="#FBBC09"/>
</g>
<defs>
<clipPath id="clip0_900_3949">
<rect width="238" height="51" fill="white"/>
</clipPath>
</defs>
</svg>
