<svg width="468" height="203" viewBox="0 0 468 203" fill="none" xmlns="http://www.w3.org/2000/svg">
    <g clip-path="url(#clip0_514_180)">
        <path d="M181.539 57.0886H152.533V145.633H181.539V57.0886Z" fill="black"></path>
        <path d="M133.704 57.0886H104.698V145.633H133.704V57.0886Z" fill="black"></path>
        <path d="M85.8703 89.1476H56.8644V145.633H85.8703V89.1476Z" fill="black"></path>
        <path
            d="M112.077 57.0886H104.699L87.9796 113.574H78.4916V145.633H85.8703L102.589 89.1477H112.077V57.0886Z"
            fill="black"></path>
        <path
            d="M159.912 57.0886H152.533L135.814 113.574H126.326V145.633H133.705L150.424 89.1477H159.912V57.0886Z"
            fill="black"></path>
    </g>
    <path
        d="M389.267 146.558C385.831 146.558 382.798 145.86 380.167 144.464C377.537 143.015 375.497 141.002 374.047 138.425C372.651 135.794 371.953 132.761 371.953 129.325C371.953 124.708 372.92 120.547 374.852 116.842C376.839 113.084 379.523 110.185 382.905 108.145C386.288 106.051 390.019 105.005 394.099 105.005C397.535 105.005 400.542 105.729 403.119 107.179C405.749 108.628 407.762 110.668 409.158 113.299C410.608 115.93 411.333 118.963 411.333 122.399C411.333 127.016 410.366 131.177 408.434 134.881C406.501 138.532 403.843 141.404 400.461 143.498C397.132 145.538 393.401 146.558 389.267 146.558ZM389.589 140.277C392.113 140.277 394.421 139.471 396.515 137.861C398.609 136.25 400.246 134.076 401.427 131.338C402.662 128.6 403.28 125.567 403.28 122.238C403.28 118.802 402.447 116.145 400.783 114.265C399.173 112.333 396.864 111.366 393.858 111.366C391.334 111.366 388.999 112.172 386.851 113.782C384.758 115.393 383.093 117.567 381.859 120.305C380.677 123.043 380.087 126.077 380.087 129.405C380.087 132.787 380.892 135.445 382.503 137.378C384.167 139.31 386.529 140.277 389.589 140.277Z"
        fill="black"></path>
    <path
        d="M358.579 99.6092L360.592 90.1872H370.014L367.921 99.6092H358.579ZM349.962 145.27L358.176 106.293H366.229L357.935 145.27H349.962ZM341.185 145.27L342.554 138.747H367.357L365.988 145.27H341.185ZM349.399 112.736L350.768 106.293H363.25L361.881 112.736H349.399Z"
        fill="black"></path>
    <path
        d="M313.851 146.558C311.005 146.558 308.429 145.887 306.12 144.545C303.811 143.203 301.986 141.243 300.644 138.666C299.355 136.036 298.711 132.949 298.711 129.405C298.711 125.11 299.57 121.111 301.288 117.406C303.006 113.648 305.449 110.642 308.616 108.387C311.784 106.132 315.408 105.005 319.488 105.005C322.602 105.005 325.206 105.756 327.299 107.26C329.447 108.709 331.058 110.588 332.131 112.897C332.185 112.521 332.239 112.118 332.292 111.689C332.4 111.259 332.48 110.83 332.534 110.4C332.588 109.971 332.668 109.568 332.775 109.192C332.883 108.763 332.963 108.333 333.017 107.904L337.044 88.8986H345.016L333.017 145.27H325.125L325.447 143.981C325.555 143.498 325.662 143.015 325.769 142.532C325.877 142.049 326.011 141.565 326.172 141.082C324.884 142.585 323.166 143.874 321.018 144.948C318.871 146.021 316.482 146.558 313.851 146.558ZM316.267 140.277C318.683 140.277 320.938 139.498 323.031 137.942C325.179 136.385 326.87 134.264 328.105 131.58C329.393 128.842 330.037 125.862 330.037 122.641C330.037 119.259 329.152 116.547 327.38 114.507C325.662 112.413 323.353 111.367 320.454 111.367C317.877 111.367 315.542 112.145 313.448 113.702C311.408 115.259 309.771 117.38 308.536 120.064C307.355 122.694 306.764 125.62 306.764 128.842C306.764 130.935 307.113 132.868 307.811 134.64C308.563 136.358 309.636 137.727 311.032 138.747C312.482 139.767 314.227 140.277 316.267 140.277Z"
        fill="black"></path>
    <path
        d="M285.539 99.6092L287.553 90.1872H296.975L294.881 99.6092H285.539ZM276.923 145.27L285.137 106.293H293.19L284.895 145.27H276.923ZM268.145 145.27L269.514 138.747H294.317L292.948 145.27H268.145ZM276.359 112.736L277.728 106.293H290.21L288.841 112.736H276.359Z"
        fill="black"></path>
    <path
        d="M210.85 145.27L222.769 88.8986H234.929L238.472 122.56C238.58 123.151 238.633 123.741 238.633 124.332C238.687 124.869 238.741 125.406 238.794 125.942C238.848 126.479 238.875 127.016 238.875 127.553C238.929 128.09 238.982 128.627 239.036 129.164C239.143 129.003 239.224 128.842 239.278 128.681C239.385 128.466 239.465 128.251 239.519 128.036C239.949 127.124 240.378 126.211 240.808 125.298C241.291 124.386 241.774 123.473 242.257 122.56L259.732 88.8986H272.375L260.457 145.27H252.646L261.343 105.166C261.665 103.716 261.987 102.32 262.309 100.978C262.631 99.5822 262.927 98.2938 263.195 97.1126L241.854 138.586H232.835L228.486 97.1932C228.379 97.7837 228.245 98.4011 228.084 99.0454C227.976 99.6896 227.869 100.334 227.762 100.978C227.601 101.676 227.44 102.374 227.279 103.072C227.171 103.77 227.037 104.468 226.876 105.166L218.581 145.27H210.85Z"
        fill="black"></path>
    <defs>
        <clipPath id="clip0_514_180">
            <rect width="124.674" height="88.5443" fill="white"
                transform="translate(56.8646 57.0886)"></rect>
        </clipPath>
    </defs>
</svg>
    