<svg width="477" height="90" viewBox="0 0 477 90" fill="none" xmlns="http://www.w3.org/2000/svg">
<path d="M69.233 1.875L85.3422 30L52.049 88.125C51.384 89.2828 50.1567 90 48.8267 90H18.7565C18.0915 90 17.4544 89.8219 16.8963 89.4984C16.3383 89.175 15.8686 88.7063 15.5338 88.125L0.498763 61.875C-0.166254 60.7172 -0.166254 59.2875 0.498763 58.125L32.7219 1.875C33.0521 1.29375 33.5264 0.825005 34.0845 0.501567C34.6425 0.178128 35.2797 0 35.9447 0H66.0144C67.3444 0 68.5726 0.717187 69.2376 1.875H69.233ZM170.19 58.125L137.967 1.875C137.636 1.29375 137.162 0.825005 136.604 0.501567C136.046 0.178128 135.409 0 134.744 0H104.674C103.344 0 102.116 0.717187 101.451 1.875L85.3422 30L118.635 88.125C119.3 89.2828 120.528 90 121.858 90H151.928C152.592 90 153.229 89.8219 153.788 89.4984C154.346 89.175 154.815 88.7063 155.15 88.125L170.185 61.875C170.85 60.7172 170.85 59.2875 170.185 58.125H170.19Z" fill="#62DE61"/>
<path d="M50.9799 30H85.3469L69.2376 1.875C68.5726 0.717187 67.3449 0 66.0149 0H35.9447C35.2796 0 34.6425 0.178128 34.0845 0.501567L50.9799 30Z" fill="url(#paint0_linear_947_308)"/>
<path d="M50.9799 29.9999L34.0845 0.501465C33.5264 0.824902 33.0567 1.29365 32.7219 1.8749L0.498763 58.1249C-0.166254 59.2874 -0.166254 60.7124 0.498763 61.8749L15.5338 88.1249C15.864 88.7061 16.3383 89.1749 16.8963 89.4983L50.9752 29.9999H50.9799Z" fill="url(#paint1_linear_947_308)"/>
<path d="M85.3423 30H50.9753L16.8964 89.4984C17.4544 89.8219 18.0915 90 18.7566 90H48.8267C50.1568 90 51.384 89.2828 52.0491 88.125L85.3423 30Z" fill="#09AF58"/>
<path d="M170.19 61.875C170.52 61.2938 170.688 60.6469 170.688 60H136.897L120.002 89.4984C120.56 89.8219 121.197 90 121.862 90H151.932C153.262 90 154.49 89.2828 155.155 88.125L170.19 61.875Z" fill="#09AF58"/>
<path d="M104.674 0C104.009 0 103.372 0.178128 102.814 0.501567L136.892 60H170.683C170.683 59.3531 170.516 58.7062 170.185 58.125L137.967 1.875C137.302 0.717187 136.074 0 134.744 0H104.67H104.674Z" fill="url(#paint2_linear_947_308)"/>
<path d="M119.997 89.4983L136.892 59.9999L102.814 0.501465C102.256 0.824902 101.786 1.29365 101.451 1.8749L85.3422 29.9999L118.635 88.1249C118.965 88.7061 119.439 89.1749 119.997 89.4983Z" fill="url(#paint3_linear_947_308)"/>
<path fill-rule="evenodd" clip-rule="evenodd" d="M321.144 29.6287C325.767 29.6287 329.957 30.7052 333.713 32.8586C337.469 35.0122 340.446 37.9516 342.642 41.6766C344.895 45.3435 346.022 49.5928 346.022 54.4237C346.022 59.1963 344.895 63.4451 342.642 67.1701C340.388 70.8951 337.382 73.8345 333.626 75.9881C329.87 78.1415 325.709 79.2187 321.144 79.2187C316.521 79.2187 312.302 78.1416 308.488 75.9881C304.732 73.8345 301.727 70.8951 299.474 67.1701C297.278 63.4451 296.179 59.1963 296.179 54.4237C296.179 49.651 297.278 45.4017 299.474 41.6766C301.727 37.9517 304.732 35.0121 308.488 32.8586C312.244 30.7051 316.463 29.6287 321.144 29.6287ZM321.144 40.105C318.544 40.105 316.261 40.7457 314.296 42.0262C312.331 43.2485 310.771 44.9364 309.616 47.0899C308.518 49.1853 307.968 51.6299 307.968 54.4237C307.968 57.1591 308.518 59.6325 309.616 61.8442C310.771 63.9977 312.331 65.6863 314.296 66.9086C316.261 68.1309 318.544 68.7417 321.144 68.7417C323.687 68.7417 325.912 68.1309 327.819 66.9086C329.784 65.6863 331.315 63.9977 332.413 61.8442C333.568 59.6325 334.147 57.1591 334.147 54.4237C334.147 51.6299 333.569 49.1853 332.413 47.0899C331.315 44.9365 329.784 43.2485 327.819 42.0262C325.912 40.7457 323.687 40.105 321.144 40.105Z" fill="black"/>
<path fill-rule="evenodd" clip-rule="evenodd" d="M430.665 29.6287C435.288 29.6287 439.478 30.7052 443.234 32.8586C443.567 33.0499 443.895 33.2475 444.216 33.4512V30.1523H455.774V78.8983H444.216V75.3401C443.867 75.5632 443.51 75.7796 443.147 75.9881C439.391 78.1415 435.23 79.2187 430.665 79.2187C426.042 79.2187 421.823 78.1416 418.009 75.9881C414.253 73.8345 411.248 70.8951 408.994 67.1701C406.798 63.4451 405.7 59.1963 405.7 54.4237C405.7 49.651 406.798 45.4017 408.994 41.6766C411.248 37.9517 414.253 35.0121 418.009 32.8586C421.765 30.7051 425.984 29.6287 430.665 29.6287ZM430.665 40.105C428.065 40.105 425.782 40.7457 423.817 42.0262C421.852 43.2485 420.292 44.9364 419.136 47.0899C418.038 49.1853 417.489 51.6299 417.489 54.4237C417.489 57.1591 418.038 59.6325 419.136 61.8442C420.292 63.9977 421.852 65.6863 423.817 66.9086C425.782 68.1309 428.065 68.7417 430.665 68.7417C433.207 68.7416 435.432 68.1307 437.339 66.9086C439.304 65.6863 440.836 63.9977 441.934 61.8442C443.089 59.6325 443.667 57.1591 443.667 54.4237C443.667 51.6299 443.089 49.1852 441.934 47.0899C440.836 44.9364 439.304 43.2485 437.339 42.0262C435.432 40.7458 433.208 40.105 430.665 40.105Z" fill="black"/>
<path fill-rule="evenodd" clip-rule="evenodd" d="M400.829 78.1707H390.08V72.94C388.608 74.709 386.76 76.1331 384.532 77.2101C381.642 78.5488 378.493 79.218 375.083 79.218C370.518 79.218 366.444 78.1416 362.861 75.9881C359.278 73.7763 356.447 70.7785 354.366 66.9953C352.286 63.2121 351.246 59.0216 351.245 54.4237C351.245 49.7674 352.286 45.5765 354.366 41.8514C356.447 38.1264 359.278 35.1578 362.861 32.946C366.502 30.7343 370.547 29.6287 374.997 29.6287C378.579 29.6287 381.758 30.3563 384.532 31.8113C386.46 32.7626 388.107 33.9836 389.473 35.4747V12.0801H400.829V78.1707ZM376.297 40.105C373.755 40.105 371.472 40.7457 369.449 42.0262C367.427 43.2485 365.837 44.9364 364.682 47.0899C363.584 49.1852 363.035 51.63 363.035 54.4237C363.035 57.2173 363.584 59.6907 364.682 61.8442C365.837 63.9976 367.427 65.6856 369.449 66.9079C371.472 68.1302 373.755 68.7417 376.297 68.7417C378.898 68.7416 381.18 68.1301 383.145 66.9079C385.11 65.6856 386.641 63.9977 387.739 61.8442C388.895 59.6907 389.473 57.2173 389.473 54.4237C389.473 51.6882 388.895 49.2434 387.739 47.0899C386.641 44.8782 385.11 43.1611 383.145 41.9388C381.18 40.7166 378.898 40.105 376.297 40.105Z" fill="black"/>
<path d="M253.069 56.6753H253.857L272.376 11.1699H289.909V78.8983H276.119V34.8153H275.561L258.159 78.5679H248.768L231.365 34.6498H230.807V78.8983H217.017V11.1699H234.55L253.069 56.6753Z" fill="black"/>
<path d="M476 78.8983H464.442V11.236H476V78.8983Z" fill="black"/>
<defs>
<linearGradient id="paint0_linear_947_308" x1="72.4558" y1="37.5" x2="46.6668" y2="-6.82133" gradientUnits="userSpaceOnUse">
<stop stop-color="#BFF9B4"/>
<stop offset="1" stop-color="#80EE64"/>
</linearGradient>
<linearGradient id="paint1_linear_947_308" x1="4.00988" y1="81.9983" x2="47.0461" y2="8.0486" gradientUnits="userSpaceOnUse">
<stop stop-color="#80EE64"/>
<stop offset="0.18" stop-color="#7BEB63"/>
<stop offset="0.36" stop-color="#6FE562"/>
<stop offset="0.55" stop-color="#5ADA60"/>
<stop offset="0.74" stop-color="#3DCA5D"/>
<stop offset="0.93" stop-color="#18B759"/>
<stop offset="1" stop-color="#09AF58"/>
</linearGradient>
<linearGradient id="paint2_linear_947_308" x1="158.229" y1="67.2469" x2="115.193" y2="-6.70286" gradientUnits="userSpaceOnUse">
<stop stop-color="#BFF9B4"/>
<stop offset="1" stop-color="#80EE64"/>
</linearGradient>
<linearGradient id="paint3_linear_947_308" x1="132.456" y1="82.2515" x2="89.4191" y2="8.29709" gradientUnits="userSpaceOnUse">
<stop stop-color="#80EE64"/>
<stop offset="0.18" stop-color="#7BEB63"/>
<stop offset="0.36" stop-color="#6FE562"/>
<stop offset="0.55" stop-color="#5ADA60"/>
<stop offset="0.74" stop-color="#3DCA5D"/>
<stop offset="0.93" stop-color="#18B759"/>
<stop offset="1" stop-color="#09AF58"/>
</linearGradient>
</defs>
</svg>
