<svg width="124" height="26" viewBox="0 0 124 26" fill="none" xmlns="http://www.w3.org/2000/svg">
<path d="M39.751 6.95775C34.7684 6.95775 30.8928 10.8028 30.8928 16.4789C30.8928 22.155 34.7684 26 39.751 26C44.7338 26 48.6092 22.155 48.6092 16.4789C48.6092 10.8028 44.7338 6.95775 39.751 6.95775ZM39.751 23.4366C36.3923 23.4366 33.6611 20.6902 33.6611 16.4789C33.6611 12.2676 36.3923 9.52111 39.751 9.52111C43.1098 9.52111 45.8411 12.2676 45.8411 16.4789C45.8411 20.6902 43.1098 23.4366 39.751 23.4366ZM64.9599 9.88734H64.7754C63.299 8.01972 61.4905 6.95775 58.87 6.95775C54.0349 6.95775 50.3808 10.8028 50.3808 16.4789C50.3808 22.155 54.0349 26 58.87 26C61.4905 26 63.299 24.938 64.7754 23.0705H64.9599V25.6338H67.7282V0H64.9599V9.88734ZM59.0544 23.4366C55.9172 23.4366 53.149 20.6902 53.149 16.4789C53.149 12.2676 55.9172 9.52111 59.0544 9.52111C62.1918 9.52111 64.9599 12.2676 64.9599 16.4789C64.9599 20.6902 62.1918 23.4366 59.0544 23.4366ZM83.5621 7.32394H86.3303V25.6338H83.5621V23.6197H83.3776C82.9716 24.0958 82.5286 24.4986 81.975 24.8281C81.0523 25.4141 79.7235 26 77.8412 26C73.5967 26 70.4594 22.8873 70.4594 18.3099V7.32394H73.2275V18.3099C73.2275 21.2394 75.4421 23.4366 78.2103 23.4366C81.163 23.4366 83.5621 21.0564 83.5621 18.3099V7.32394ZM89.0615 0H91.8298V25.6338H89.0615V0ZM108.513 9.88734H108.328C106.851 8.01972 105.043 6.95775 102.423 6.95775C97.5874 6.95775 93.9335 10.8028 93.9335 16.4789C93.9335 22.155 97.5874 26 102.423 26C105.043 26 106.851 24.938 108.328 23.0705H108.513V25.6338H111.281V7.32394H108.513V9.88734ZM102.607 23.4366C99.4696 23.4366 96.7015 20.6902 96.7015 16.4789C96.7015 12.2676 99.4696 9.52111 102.607 9.52111C105.744 9.52111 108.513 12.2676 108.513 16.4789C108.513 20.6902 105.744 23.4366 102.607 23.4366ZM123.607 7.32394V9.88734H116.965C116.863 9.88734 116.78 9.9697 116.78 10.0705V25.6338H114.012V9.88734H116.596C116.697 9.88734 116.78 9.80497 116.78 9.70422V7.32394H123.607ZM26.0209 3.84507H28.7891V25.6338H25.8363V4.02817C25.8363 3.92747 25.7533 3.84507 25.6518 3.84507H24.36L16.6091 25.6338H12.18L4.42909 3.84507H2.95273V25.6338H0V0H6.08999L14.0254 22.338H14.7636L22.699 0H25.8363V3.66197C25.8363 3.76267 25.9194 3.84507 26.0209 3.84507Z" fill="black"/>
</svg>
