<?xml version="1.0" encoding="UTF-8" standalone="no"?>
<!-- Created with Inkscape (http://www.inkscape.org/) -->

<svg
   version="1.1"
   id="svg2"
   width="1792.8667"
   height="663.25336"
   viewBox="0 0 1792.8667 663.25336"
   sodipodi:docname="MongoDB_Logo_CMYK_Forest-Green.eps"
   xmlns:inkscape="http://www.inkscape.org/namespaces/inkscape"
   xmlns:sodipodi="http://sodipodi.sourceforge.net/DTD/sodipodi-0.dtd"
   xmlns="http://www.w3.org/2000/svg"
   xmlns:svg="http://www.w3.org/2000/svg">
  <defs
     id="defs6" />
  <sodipodi:namedview
     id="namedview4"
     pagecolor="#ffffff"
     bordercolor="#000000"
     borderopacity="0.25"
     inkscape:showpageshadow="2"
     inkscape:pageopacity="0.0"
     inkscape:pagecheckerboard="0"
     inkscape:deskcolor="#d1d1d1" />
  <g
     id="g8"
     inkscape:groupmode="layer"
     inkscape:label="ink_ext_XXXXXX"
     transform="matrix(1.3333333,0,0,-1.3333333,0,663.25333)">
    <g
       id="g10"
       transform="scale(0.1)">
      <path
         d="m 1814.04,1525.59 v 0 h -0.01 c 0,0 -48.11,41.04 -61.1,61.6 l -0.11,2.21 58.19,1285.61 c 0.18,3.85 5.87,3.85 6.05,0 l 58.2,-1285.61 -0.12,-2.2 c -12.98,-20.56 -61.1,-61.61 -61.1,-61.61 z m 223.73,1960.23 c -108.14,127.63 -201.32,258.14 -220.24,284.93 -1.73,2.44 -5.28,2.44 -7.01,0 -18.91,-26.79 -112.07,-157.31 -220.22,-284.93 -926.909,-1180.85 146.3,-1977.55 146.3,-1977.55 l 8.7,-6.04 c 8.14,-123.26 28.35,-300.41 28.35,-300.41 h 40.39 40.38 c 0,0 20.13,176.38 28.3,299.61 l 8.75,6.84 c 0,0 1073.21,796.7 146.3,1977.55"
         style="fill:#136247;fill-opacity:1;fill-rule:nonzero;stroke:none"
         id="path12" />
      <path
         d="m 3818.29,1788.81 -445.61,1085.57 -1.27,3.11 h -347.49 v -72.7 l 55.79,-0.09 c 17.02,-0.03 32.98,-6.71 44.95,-18.82 11.96,-12.11 18.46,-28.14 18.29,-45.16 l -10.28,-1093.48 c -0.34,-34.45 -27.59,-61.99 -62,-62.7 l -57.09,-0.69 v -72.26 h 338.17 v 72.22 l -34.8,0.72 c -34.22,0.7 -62.06,29.11 -62.06,63.34 V 2677.99 L 3741,1512.35 c 7.09,-17.01 22.96,-27.59 41.4,-27.58 18.43,0 34.29,10.57 41.38,27.59 l 475.02,1139.91 7.07,-1004.17 c 0.26,-34.75 -27.81,-63.38 -62.57,-63.81 l -35.71,-0.44 v -72.26 h 395.75 v 72.28 l -54.19,0.42 c -34.38,0.43 -62.44,28.75 -62.55,63.14 l -3.42,1093.29 c -0.11,34.51 27.87,63.03 62.36,63.55 l 57.82,0.56 v 72.66 H 4265.41 L 3818.29,1788.81"
         style="fill:#136247;fill-opacity:1;fill-rule:nonzero;stroke:none"
         id="path14" />
      <path
         d="m 6934,1601.23 c -11.4,11.38 -16.94,25.75 -16.94,43.92 v 535.82 c 0,101.67 -30.17,182.06 -89.68,238.97 -59.47,56.82 -141.12,85.64 -242.67,85.64 -143.4,0 -256.05,-57.96 -334.81,-172.27 -1.49,-2.17 -3.93,-3.24 -6.52,-2.74 -2.57,0.45 -4.5,2.24 -5.16,4.78 l -37.04,143.11 h -61.91 l -159.34,-91.21 -0.01,-50.19 h 41.12 c 19.26,0 34.76,-5.11 46.05,-15.18 11.11,-9.96 16.75,-25.32 16.75,-45.67 v -631.06 c 0,-18.14 -5.55,-32.51 -16.95,-43.92 -11.4,-11.39 -25.77,-16.94 -43.92,-16.94 h -39.86 v -72.7 h 366.41 v 72.7 h -39.87 c -18.17,0 -32.54,5.54 -43.92,16.94 -11.4,11.38 -16.94,25.75 -16.94,43.92 v 417.67 c 0,53.27 11.58,106.34 34.44,157.77 22.76,51.24 57.09,93.9 102.01,126.81 44.75,32.78 98.83,49.4 160.73,49.4 70.29,0 122.72,-22.14 155.81,-65.81 33.38,-44.14 50.31,-101.13 50.31,-169.37 v -516.47 c 0,-18.14 -5.53,-32.51 -16.93,-43.92 -11.4,-11.39 -25.77,-16.94 -43.92,-16.94 h -39.87 v -72.7 h 366.42 v 72.7 h -39.87 c -18.18,0 -32.55,5.54 -43.92,16.94"
         style="fill:#136247;fill-opacity:1;fill-rule:nonzero;stroke:none"
         id="path16" />
      <path
         d="m 10435,2194.55 c 0,-127.69 -22.9,-236.39 -68.2,-323.11 -45.1,-86.51 -105.4,-151.65 -179.1,-193.61 -73.8,-41.99 -155.8,-63.27 -243.55,-63.27 h -96.86 c -18.17,0 -34.44,7.44 -49.73,22.75 -15.1,15.07 -22.75,31.8 -22.75,49.74 v 1014.99 c 0,18.16 7.44,34.43 22.75,49.73 15.1,15.09 31.84,22.75 49.73,22.75 h 96.86 c 87.75,0 169.75,-21.29 243.55,-63.27 73.7,-41.94 133.9,-107.08 179.1,-193.61 45.3,-86.76 68.2,-195.46 68.2,-323.09 z m -143.7,601 c -102.3,54.37 -216.5,81.94 -339.41,81.94 h -480.44 v -72.71 H 9518 c 18.13,0 34.4,-7.44 49.73,-22.74 15.32,-15.34 22.76,-31.6 22.76,-49.74 V 1656.78 c 0,-17.92 -7.65,-34.65 -22.75,-49.73 -15.31,-15.32 -31.58,-22.76 -49.74,-22.76 h -46.55 v -72.7 h 480.44 c 122.91,0 237.11,27.56 339.41,81.93 102.4,54.44 184.8,133.94 245,236.26 60.3,102.29 90.8,225.02 90.8,364.77 0,139.7 -30.5,262.42 -90.8,364.74 -60.2,102.34 -142.7,181.83 -245,236.26"
         style="fill:#136247;fill-opacity:1;fill-rule:nonzero;stroke:none"
         id="path18" />
      <path
         d="m 11065.3,2273.14 v 428.9 c 0,18.15 7.4,34.42 22.8,49.73 15.1,15.09 31.8,22.75 49.7,22.75 h 132.1 c 94.9,0 165.3,-23.59 209.4,-70.11 44.1,-46.61 66.4,-107.37 66.4,-180.59 0,-75.82 -20.7,-137.25 -61.6,-182.6 -40.8,-45.17 -103.1,-68.08 -185.2,-68.08 z m 22.8,-635.83 c -15.1,15.07 -22.8,31.81 -22.8,49.74 v 483.12 h 277.8 c 97.6,0 173.4,-25.27 225.1,-75.12 51.7,-49.8 77.9,-115.4 77.9,-194.94 0,-48.04 -11.6,-94.5 -34.3,-138.12 -22.7,-43.53 -57.3,-79.36 -102.7,-106.5 -45.5,-27.16 -101.3,-40.93 -166,-40.93 h -205.3 c -18.2,0 -34.5,7.44 -49.7,22.75 z m 670.4,484.95 c -43.6,50.62 -128.7,93.74 -229.3,116.7 138.4,68.73 208.6,166.47 208.6,290.68 0,67.84 -18.2,128.75 -54.1,181.04 -36,52.21 -87.2,93.51 -152.2,122.78 -65,29.21 -141.2,44.03 -226.8,44.03 h -538.9 v -72.71 h 42.7 c 18.1,0 34.4,-7.44 49.7,-22.74 15.3,-15.34 22.8,-31.6 22.8,-49.74 V 1656.78 c 0,-17.92 -7.7,-34.65 -22.8,-49.73 -15.3,-15.32 -31.6,-22.76 -49.7,-22.76 h -46.6 v -72.7 h 585.1 c 89.3,0 172.4,15.1 246.9,44.91 74.7,29.88 134.7,74.42 178.4,132.37 43.7,58.09 65.9,129.16 65.9,211.24 0,86.06 -26.8,160.79 -79.7,222.15"
         style="fill:#136247;fill-opacity:1;fill-rule:nonzero;stroke:none"
         id="path20" />
      <path
         d="m 5612.87,1995.02 c 0,-123.47 -30.24,-222.76 -89.89,-295.1 -59.44,-72.06 -140.26,-108.61 -240.21,-108.61 -99.99,0 -180.8,36.55 -240.21,108.61 -59.65,72.3 -89.89,171.59 -89.89,295.1 0,123.52 30.24,222.81 89.89,295.12 59.4,72.06 140.22,108.59 240.21,108.59 99.96,0 180.78,-36.53 240.21,-108.59 59.65,-72.35 89.89,-171.64 89.89,-295.12 z m -73.95,447 c -76.62,42.17 -162.8,63.56 -256.15,63.56 -93.39,0 -179.57,-21.39 -256.16,-63.57 -76.62,-42.2 -138.19,-102.79 -183.03,-180.07 -44.79,-77.26 -67.5,-167.06 -67.5,-266.92 0,-99.88 22.71,-189.68 67.5,-266.9 44.82,-77.31 106.4,-137.9 183.03,-180.09 76.6,-42.17 162.79,-63.56 256.16,-63.56 93.33,0 179.51,21.38 256.15,63.57 76.64,42.2 138.22,102.78 183.03,180.08 44.79,77.22 67.5,167.02 67.5,266.9 0,99.86 -22.71,189.66 -67.5,266.92 -44.83,77.27 -106.4,137.86 -183.03,180.08"
         style="fill:#136247;fill-opacity:1;fill-rule:nonzero;stroke:none"
         id="path22" />
      <path
         d="m 9142.2,1995.02 c 0,-123.47 -30.25,-222.76 -89.9,-295.1 -59.44,-72.06 -140.26,-108.61 -240.21,-108.61 -99.99,0 -180.8,36.55 -240.21,108.61 -59.65,72.3 -89.89,171.59 -89.89,295.1 0,123.51 30.24,222.81 89.89,295.12 59.4,72.06 140.22,108.59 240.21,108.59 99.96,0 180.78,-36.53 240.21,-108.59 59.65,-72.35 89.9,-171.64 89.9,-295.12 z m -73.95,447 c -76.63,42.17 -162.81,63.56 -256.16,63.56 -93.39,0 -179.57,-21.39 -256.16,-63.57 -76.61,-42.2 -138.19,-102.79 -183.03,-180.07 -44.79,-77.26 -67.5,-167.06 -67.5,-266.92 0,-99.88 22.71,-189.68 67.5,-266.9 44.82,-77.31 106.41,-137.9 183.03,-180.09 76.6,-42.17 162.79,-63.56 256.16,-63.56 93.33,0 179.52,21.38 256.16,63.57 76.63,42.2 138.21,102.78 183.02,180.08 44.79,77.22 67.5,167.02 67.5,266.9 0,99.86 -22.71,189.66 -67.5,266.92 -44.83,77.27 -106.4,137.86 -183.02,180.08"
         style="fill:#136247;fill-opacity:1;fill-rule:nonzero;stroke:none"
         id="path24" />
      <path
         d="m 7492.5,1511.59 h 271.12 c 75.31,0 123.21,-14.6 155.32,-47.34 31.79,-32.4 47.9,-74.57 47.9,-125.34 0,-73.2 -29.16,-133.18 -86.67,-178.27 -57.89,-45.38 -136.1,-68.39 -232.46,-68.39 -84.43,0 -153.58,18.65 -205.49,55.45 -51.36,36.41 -77.41,90.58 -77.41,161.01 0,44.46 12.24,85.18 36.39,121.02 24.77,36.86 53.8,62.89 91.3,81.86 z m 271.63,368.28 v 0 c -37.99,-20.31 -78.52,-30.62 -120.44,-30.62 -66.84,0 -125.97,23.93 -175.76,71.12 -49.72,47.07 -74.93,115.62 -74.93,203.73 0,88.1 25.21,156.66 74.93,203.74 49.8,47.17 108.93,71.1 175.76,71.1 41.87,0 82.39,-10.3 120.44,-30.61 37.91,-20.29 69.44,-51.17 93.71,-91.76 24.24,-40.66 36.54,-91.96 36.54,-152.47 0,-60.55 -12.3,-111.85 -36.54,-152.46 -24.28,-40.66 -55.81,-71.53 -93.71,-91.77 z m -120.44,625.71 c -79.63,0 -153.22,-17.12 -218.72,-50.88 -65.59,-33.82 -117.72,-80.47 -154.94,-138.65 -37.26,-58.24 -56.16,-122.82 -56.16,-191.95 0,-62.36 14.45,-119.41 42.94,-169.57 27.6,-48.68 65.95,-90.23 114.03,-123.57 l -142.53,-193.74 c -17.73,-24.1 -20.35,-55.65 -6.85,-82.35 13.5,-26.7 40.48,-43.28 70.4,-43.28 h 40.94 c -39.92,-26.76 -71.51,-59.2 -94.04,-96.61 -25.87,-42.88 -38.99,-88.11 -38.99,-134.46 0,-85.85 37.97,-156.64 112.84,-210.42 74.34,-53.4 178.28,-80.471 308.92,-80.471 91.39,0 178,14.671 257.42,43.601 79.6,29.02 144.65,72.17 193.32,128.25 48.91,56.39 73.7,124.22 73.7,201.59 0,81.83 -30.01,140.38 -100.37,195.79 -60.19,47.35 -153.92,72.37 -271.04,72.37 h -400.08 c -1.41,0 -2.05,0.97 -2.27,1.38 -0.21,0.42 -0.62,1.52 0.14,2.59 l 103.83,140.42 c 28.29,-12.63 54.16,-21.33 76.93,-25.86 23.55,-4.75 50.64,-7.15 80.51,-7.15 83.63,0 159.58,17.12 225.74,50.87 66.25,33.8 119.05,80.44 156.94,138.63 37.95,58.29 57.19,122.89 57.19,191.99 0,74.19 -35.59,209.27 -133.84,278.16 0.26,0.69 0.75,0.65 0.92,0.61 l 215.47,-24.11 v 98.64 h -344.42 c -53.76,18.7 -110.26,28.18 -167.93,28.18"
         style="fill:#136247;fill-opacity:1;fill-rule:nonzero;stroke:none"
         id="path26" />
      <path
         d="m 12105.4,1638.77 c 8.1,0 14.5,2.22 18.9,6.68 4.5,4.44 6.7,10.89 6.7,19.32 0,7.96 -2.1,14.34 -6.3,19.15 -4.2,4.8 -9.9,7.2 -16.9,7.2 h -3.9 c -1.8,0 -3.5,-0.76 -5,-2.29 -1.6,-1.52 -2.3,-3.22 -2.3,-5.09 v -44.97 z m -50.3,-65.35 v 8.79 l 1.8,1.4 h 5.9 c 1.9,0 3.6,0.76 5.1,2.29 1.6,1.52 2.3,3.21 2.3,5.09 v 92.75 c 0,1.87 -0.7,3.57 -2.3,5.09 -1.5,1.53 -3.2,2.29 -5.1,2.29 h -5.9 l -1.8,1.41 v 8.78 l 1.8,1.41 h 52 c 14.7,0 26.4,-3.29 35.1,-9.84 8.7,-6.56 13,-15.93 13,-28.11 0,-9.37 -3.3,-17.51 -10,-24.42 -6.7,-6.91 -15.2,-11.07 -25.5,-12.47 l 12,-3.51 23.1,-36.54 c 1.9,-2.81 4.1,-4.22 6.7,-4.22 h 6 l 1.4,-1.4 v -8.79 l -1.4,-1.4 h -30.6 l -2.1,1.4 -32.3,53.76 h -7.7 v -36.19 c 0,-1.88 0.7,-3.57 2.3,-5.09 1.5,-1.53 3.2,-2.29 5,-2.29 h 6 l 1.8,-1.4 v -8.79 l -1.8,-1.4 h -53 z m 109.8,-34.96 c 16.5,9.49 29.5,22.61 38.8,39.35 9.4,16.75 14.1,35.66 14.1,56.75 0,21.08 -4.7,39.99 -14.1,56.74 -9.3,16.74 -22.3,29.86 -38.8,39.35 -16.5,9.48 -35.1,14.22 -55.7,14.22 -20.6,0 -39.2,-4.74 -55.7,-14.22 -16.5,-9.49 -29.4,-22.61 -38.8,-39.35 -9.4,-16.75 -14,-35.66 -14,-56.74 0,-21.09 4.6,-40 14,-56.75 9.4,-16.74 22.3,-29.86 38.8,-39.35 16.5,-9.48 35.1,-14.22 55.7,-14.22 20.6,0 39.2,4.74 55.7,14.22 z m -122.8,-14.75 c -19.9,11.36 -35.5,26.81 -46.7,46.37 -11.3,19.56 -16.9,41.05 -16.9,64.48 0,23.42 5.6,44.9 16.9,64.47 11.2,19.55 26.8,35.01 46.7,46.37 19.9,11.36 42.3,17.04 67.1,17.04 24.8,0 47.2,-5.68 67.1,-17.04 19.9,-11.36 35.5,-26.82 46.7,-46.37 11.3,-19.57 16.9,-41.05 16.9,-64.47 0,-23.43 -5.6,-44.92 -16.9,-64.48 -11.2,-19.56 -26.8,-35.01 -46.7,-46.37 -19.9,-11.36 -42.3,-17.04 -67.1,-17.04 -24.8,0 -47.2,5.68 -67.1,17.04"
         style="fill:#136247;fill-opacity:1;fill-rule:nonzero;stroke:none"
         id="path28" />
    </g>
  </g>
</svg>
