<?xml version="1.0" encoding="UTF-8"?>
<svg id="Logos" xmlns="http://www.w3.org/2000/svg" viewBox="0 0 361.11 50">
  <defs>
    <style>
      .cls-1 {
        fill: #3e4dff;
      }

      .cls-1, .cls-2, .cls-3, .cls-4 {
        stroke-width: 0px;
      }

      .cls-2 {
        fill: #000;
      }

      .cls-3 {
        fill: #3d4dff;
      }

      .cls-4 {
        fill: #3d4cff;
      }
    </style>
  </defs>
  <g>
    <path class="cls-2" d="M143.44,46.16c-1.36,0-2.39-.38-3.11-1.13-.72-.75-1.08-1.8-1.08-3.15V7.43c0-1.35.39-2.4,1.17-3.15.78-.75,1.84-1.13,3.2-1.13,1.2,0,2.14.23,2.84.68.7.46,1.35,1.24,1.94,2.35l13.82,25.11h-2.03l13.82-25.11c.6-1.11,1.25-1.89,1.94-2.35.7-.46,1.62-.68,2.78-.68,1.35,0,2.4.38,3.14,1.13.74.75,1.11,1.81,1.11,3.15v34.45c0,1.35-.36,2.4-1.08,3.15s-1.75,1.13-3.11,1.13-2.4-.38-3.14-1.13c-.74-.75-1.11-1.8-1.11-3.15v-24.1h1.32l-11.13,19.81c-.48.75-.99,1.32-1.53,1.7-.54.38-1.25.56-2.12.56s-1.6-.2-2.15-.59c-.56-.4-1.06-.95-1.5-1.67l-11.24-19.87h1.44v24.15c0,1.35-.35,2.4-1.05,3.15-.7.75-1.75,1.13-3.14,1.13Z"/>
    <path class="cls-2" d="M204.87,46.28c-3.15,0-5.89-.62-8.23-1.84-2.33-1.23-4.14-2.99-5.41-5.29-1.28-2.3-1.91-5.02-1.91-8.15,0-2.34.36-4.44,1.08-6.31.72-1.86,1.76-3.46,3.14-4.79,1.38-1.33,3.02-2.34,4.93-3.03s4.05-1.04,6.4-1.04c3.15,0,5.89.62,8.23,1.84,2.33,1.23,4.15,2.97,5.44,5.24,1.3,2.26,1.94,4.96,1.94,8.09,0,2.38-.37,4.5-1.11,6.37-.74,1.86-1.78,3.47-3.14,4.82-1.36,1.35-3,2.37-4.93,3.06-1.94.69-4.08,1.04-6.43,1.04ZM204.87,39.56c1.32,0,2.45-.32,3.41-.95.96-.63,1.71-1.58,2.27-2.83.56-1.25.84-2.85.84-4.79,0-2.89-.6-5.03-1.79-6.4-1.2-1.37-2.77-2.05-4.73-2.05-1.28,0-2.4.3-3.38.89-.98.6-1.73,1.52-2.27,2.77-.54,1.25-.81,2.85-.81,4.79,0,2.9.6,5.05,1.79,6.45,1.2,1.41,2.75,2.11,4.67,2.11Z"/>
    <path class="cls-2" d="M237.71,46.16c-1.16,0-2.17-.31-3.05-.92-.88-.61-1.58-1.54-2.09-2.77l-9.03-20.7c-.44-1.03-.6-1.99-.48-2.89.12-.89.55-1.61,1.29-2.14.74-.54,1.76-.8,3.08-.8,1.08,0,1.95.25,2.63.74.68.5,1.28,1.44,1.79,2.83l7.06,17.85h-1.91l7.36-17.91c.56-1.35,1.18-2.27,1.85-2.77.68-.5,1.62-.74,2.81-.74,1.04,0,1.86.27,2.48.8.62.54,1,1.24,1.14,2.11.14.87-.03,1.83-.51,2.86l-9.21,20.76c-.52,1.27-1.21,2.2-2.06,2.8-.86.59-1.9.89-3.14.89Z"/>
    <path class="cls-2" d="M271.75,46.28c-3.47,0-6.45-.62-8.94-1.87-2.49-1.25-4.41-3.01-5.74-5.3-1.34-2.28-2-4.97-2-8.06s.64-5.66,1.91-7.94c1.28-2.28,3.06-4.07,5.35-5.35,2.29-1.29,4.89-1.93,7.81-1.93,2.11,0,4.03.35,5.74,1.04,1.71.69,3.19,1.69,4.43,2.97,1.24,1.29,2.17,2.86,2.81,4.7.64,1.84.96,3.9.96,6.16,0,.75-.24,1.32-.72,1.7s-1.18.56-2.09.56h-18.78v-4.64h15.07l-.96.83c0-1.63-.24-2.98-.72-4.08-.48-1.09-1.17-1.91-2.06-2.47-.9-.55-2-.83-3.32-.83-1.48,0-2.73.34-3.77,1.01-1.04.68-1.84,1.65-2.39,2.92-.56,1.27-.84,2.8-.84,4.58v.48c0,3.01.71,5.24,2.12,6.66,1.41,1.43,3.52,2.14,6.31,2.14.96,0,2.05-.12,3.29-.36,1.24-.24,2.39-.61,3.47-1.13.92-.44,1.73-.59,2.45-.45s1.28.47,1.68.98c.4.52.63,1.11.69,1.78.06.67-.09,1.34-.45,1.99-.36.65-.96,1.2-1.79,1.64-1.36.75-2.88,1.32-4.58,1.7-1.69.38-3.34.56-4.93.56Z"/>
    <path class="cls-2" d="M307.99,46.16c-1.12,0-2.02-.26-2.72-.77-.7-.51-1.14-1.21-1.32-2.08-.18-.87-.01-1.84.51-2.92l15.31-33.38c.64-1.35,1.4-2.33,2.27-2.95.88-.61,1.89-.92,3.05-.92s2.17.31,3.05.92c.88.62,1.61,1.6,2.21,2.95l15.43,33.38c.52,1.07.71,2.05.57,2.94-.14.89-.55,1.59-1.23,2.08s-1.56.74-2.63.74c-1.36,0-2.4-.32-3.14-.95-.74-.63-1.39-1.63-1.94-2.97l-3.59-8.27,3.71,2.56h-24.94l3.71-2.56-3.53,8.27c-.6,1.39-1.23,2.39-1.88,3-.66.61-1.63.92-2.9.92ZM324.98,13.5l-7.66,18.15-1.62-2.32h18.72l-1.62,2.32-7.72-18.15h-.12Z"/>
    <path class="cls-2" d="M356.51,46.16c-1.52,0-2.67-.42-3.47-1.25-.8-.83-1.2-2-1.2-3.51V7.91c0-1.51.4-2.68,1.2-3.51.8-.83,1.95-1.25,3.47-1.25s2.61.42,3.41,1.25c.8.83,1.2,2,1.2,3.51v33.5c0,1.51-.39,2.68-1.17,3.51-.78.83-1.92,1.25-3.44,1.25Z"/>
  </g>
  <g>
    <g id="Left_Main_Logo" data-name="Left Main Logo">
      <path class="cls-3" d="M30.13,30.09c1.61,3.9,3.66,7.72,6.42,11.05,2.6,3.12,4.13,4.5,6.11,5.94,1,.58-1.08.97-1.6,1.19-5.11,1.67-11.16,1.72-16.37,1.31-9.52-.62-19.66-4.15-23.73-14.01-2.75-6.78.66-13.91,7.57-16.12,8.82-2.87,18.05,1.91,21.58,10.57l.03.07Z"/>
    </g>
    <g id="Middle_Main_Logo" data-name="Middle Main Logo">
      <path class="cls-4" d="M11.9,10.49C17.96.69,31.81-2.59,43.25,2.71c4.25,1.92,7.86,4.88,10.46,8.88,1.93,2.9,3.14,6.13,4.62,9.22,1.93,4.09,5.39,9.58,8.8,13.36,2.44,2.82,5.63,5.86,8.35,8.02,1.73,1.44,2.79,2.51,1.18,4.02-11.98,8.7-31.69,1.86-39.44-14.63-1.77-3.98-3.62-8.68-7.16-12.02-4.19-4.33-10.53-6.39-16.52-6.53-.86-.02-1.7,0-2.54.05-.04,0-.09,0-.13,0-.17.01-.33.03-.5.04"/>
    </g>
    <path id="Right_Main_Logo" data-name="Right Main Logo" class="cls-1" d="M55.17,3.04c1.55-1.22,4.29-1.63,6.43-2.17,7.8-1.8,15.53-.58,19.54,1.47,7.59,3.76,11.18,7.66,15.52,14.45,2.92,4.72,6.08,13.98,10,18,2.98,3,6.18,5.43,9.59,7.71.78.52,1.5.97,2.28,1.43,1.68.99,2.7,1.15,1.49,2.1-8.63,5.95-20.28,4.41-29.5-.14-3.51-1.58-5.54-3.34-8.34-5.63-2.83-2.35-5.52-4.6-7.98-7.24-3.59-3.88-6.43-8.73-9.19-13.38-1.74-3.01-2.98-6.29-4.74-9.33-1-1.72-2.25-3.36-3.46-4.59-1.2-1.31-2.24-1.85-1.66-2.64l.02-.02Z"/>
  </g>
</svg>