<svg width="112" height="32" viewBox="0 0 112 32" fill="none" xmlns="http://www.w3.org/2000/svg">
<g clip-path="url(#clip0_2238_1637)">
<mask id="mask0_2238_1637" style="mask-type:luminance" maskUnits="userSpaceOnUse" x="0" y="0" width="112" height="32">
<path d="M112 0H0V32H112V0Z" fill="white"/>
</mask>
<g mask="url(#mask0_2238_1637)">
<path d="M0 0H111.908V32H0V0Z" fill="black"/>
<path d="M106.883 22.97C106.665 23.0316 106.48 23.0652 106.296 23.0652C105.641 23.0652 105.334 22.7852 105.334 21.9796V15.8968C105.334 12.702 102.788 11.1464 99.7772 11.1464C97.4772 11.1464 96.2412 11.4264 93.7844 12.4164L93.2364 15.6396L96.4312 15.9808L96.8844 14.4028C97.5392 14.0616 98.1884 14 99.0272 14C101.294 14 101.327 15.7068 101.327 17.1336V17.5976C100.611 17.5028 99.8052 17.4748 99.0272 17.4748C95.8324 17.4748 92.5088 18.2804 92.5088 21.7272C92.5088 24.6424 94.8028 25.7336 96.8228 25.7336C99.0888 25.7336 100.516 24.3684 101.322 22.9416C101.506 24.648 102.53 25.7336 104.394 25.7336C105.261 25.7336 106.162 25.4876 106.906 25.0788L106.883 22.97ZM98.2888 22.8804C97.08 22.8804 96.6436 22.1644 96.6436 21.2632C96.6436 19.7412 97.886 19.3384 99.3128 19.3384C99.962 19.3384 100.678 19.4336 101.333 19.5232C101.238 21.8564 99.7156 22.8804 98.2888 22.8804ZM92.9116 4.06836L86.8572 25.4264H82.9128L88.9668 4.06876H92.9116V4.06836ZM84.7816 4.06836L78.7272 25.4264H74.788L80.8424 4.06876H84.7816V4.06836ZM67.9728 11.4268H72.164V16.4512H67.9728V11.4268ZM67.9728 20.396H72.164V25.4264H67.9728V20.396ZM61.874 20.2112L65.0408 20.5192L64.1736 25.4264H51.942L51.5392 23.3168L59.2384 14.4704H54.8628L54.242 16.6416L51.3544 16.328L51.8524 11.4212H64.1456L64.4592 13.5304L56.6924 22.3824H61.2248L61.874 20.2112ZM41.8144 11.1472C36.784 11.1472 34.3 14.532 34.3 18.628C34.3 23.0988 37.282 25.734 41.596 25.734C46.0668 25.734 49.2956 22.9084 49.2956 18.438C49.2956 14.5264 46.8392 11.1472 41.8144 11.1472ZM41.7192 22.662C39.5484 22.662 38.4292 20.7988 38.4292 18.376C38.4292 15.7352 39.6992 14.2188 41.7532 14.2188C43.644 14.2188 45.166 15.4888 45.166 18.3148C45.166 20.9836 43.8008 22.662 41.7192 22.662ZM30.6964 22.3824H32.5596V25.4264H26.69V17.5424C26.69 15.1196 25.8844 14.1904 24.3008 14.1904C22.376 14.1904 21.5984 15.556 21.5984 17.5144V22.3824H23.4616V25.4264H17.5976V17.5424C17.5976 15.1196 16.7916 14.1904 15.2084 14.1904C13.2836 14.1904 12.5056 15.556 12.5056 17.5144V22.3824H15.1748V25.4264H6.6416V22.3824H8.5052V14.4648H6.6416V11.4208H12.5056V13.5304C13.3452 12.0424 14.8056 11.1412 16.7584 11.1412C18.7784 11.1412 20.636 12.1036 21.324 14.1516C22.102 12.2884 23.6852 11.1412 25.89 11.1412C28.402 11.1412 30.702 12.6632 30.702 15.9812V22.3824H30.6964Z" fill="white"/>
</g>
</g>
<defs>
<clipPath id="clip0_2238_1637">
<rect width="112" height="32" fill="white"/>
</clipPath>
</defs>
</svg>
