<svg width="109" height="36" viewBox="0 0 109 36" fill="none" xmlns="http://www.w3.org/2000/svg">
<path d="M20.2668 7.52344C14.3362 7.52344 10.3417 10.9298 10.3417 17.6691V21.7862C10.9543 21.5166 11.616 21.3451 12.2777 21.3206C12.9639 21.2961 13.6255 21.4676 14.2137 21.7862V17.6691C14.2137 13.3315 16.6153 11.0524 20.2668 11.0524C23.9183 11.0524 26.3199 13.3315 26.3199 17.6691V28.1579H30.1919V17.6691C30.1919 10.9298 26.1974 7.52344 20.2668 7.52344Z" fill="#010202"/>
<path d="M32.2505 18.1103C32.2505 11.9592 36.6862 7.49902 43.0823 7.49902C49.4785 7.49902 53.7672 11.9347 53.7672 18.1103V19.4827H36.3676C36.8332 22.8156 39.7495 25.2417 43.0823 25.0702C45.7045 25.0702 47.5425 24.286 48.6698 22.5705H52.9339C51.2185 26.467 47.273 28.9177 43.0088 28.7216C37.3478 28.9667 32.5691 24.5555 32.324 18.8945C32.324 18.625 32.324 18.3799 32.324 18.1103M49.8216 16.0763C49.0864 12.9885 46.2682 10.8809 43.1069 11.0525C39.97 10.8809 37.1763 13.013 36.4901 16.0763H49.8216Z" fill="#010202"/>
<path d="M55.9728 18.1103C55.9728 11.9592 60.433 7.49901 66.8046 7.49901C72.5637 7.27845 77.3914 11.7631 77.612 17.4976C77.612 17.6937 77.612 17.8898 77.612 18.0858C77.612 24.2369 73.1763 28.6971 66.7801 28.6971C60.433 28.7216 55.9728 24.2859 55.9728 18.1103ZM73.6419 18.1103C73.8625 14.4834 71.0933 11.371 67.4663 11.1505C67.2212 11.126 66.9517 11.126 66.7066 11.1505C63.0061 11.0279 59.9183 13.9442 59.7958 17.6447C59.7958 17.7917 59.7958 17.9633 59.7958 18.1103C59.5752 21.7373 62.3445 24.8496 65.9714 25.0701C66.2165 25.0947 66.4861 25.0947 66.7311 25.0701C70.9952 25.1927 73.691 22.2274 73.691 18.1103" fill="#010202"/>
<path d="M99.7413 32.2505H100.207C102.707 32.2505 103.613 31.0987 103.613 28.256V8.87134H107.485V28.0109C107.485 33.0347 105.549 35.5344 100.526 35.5344H99.7413V32.2505Z" fill="#010202"/>
<path d="M97.8053 30.0939H93.9333V25.3152H84.1307C82.2927 25.3887 80.5527 24.4329 79.6705 22.8155C78.9353 21.3206 79.1559 19.5316 80.2586 18.2573L89.032 6.73926C90.2818 5.02381 92.5119 4.33763 94.4969 5.02381C96.4819 5.66098 97.8053 7.49897 97.8053 9.58202V21.8843H100.084V25.3152H97.8053V30.0939ZM83.4445 20.4139C83.2975 20.5609 83.2239 20.757 83.1994 20.9775C83.1994 21.5657 83.6896 22.0558 84.2777 22.0558H93.9333V9.58202C93.9333 8.89583 93.4921 8.67528 93.2471 8.67528H92.855C92.5364 8.67528 92.2423 8.84682 92.0463 9.11639L83.4445 20.4139Z" fill="#010202"/>
<path d="M105.574 0C103.736 0 102.266 1.47039 102.266 3.30837C102.266 5.14636 103.736 6.61675 105.574 6.61675C107.412 6.61675 108.882 5.14636 108.882 3.30837C108.882 1.47039 107.387 0 105.574 0Z" fill="#3F7EC1"/>
<path d="M12.0817 23.2566C11.371 23.2076 10.6603 23.4527 10.1457 23.9428L6.49421 21.5412C6.59224 21.2471 6.64125 20.953 6.61675 20.6344C6.61675 18.7964 5.14636 17.326 3.30837 17.326C1.47039 17.326 0 18.7964 0 20.6344C0 22.4724 1.47039 23.9428 3.30837 23.9428C4.01906 23.9673 4.72975 23.7222 5.24438 23.2566L8.89585 25.7563C8.79782 26.0504 8.74881 26.3444 8.77332 26.663C8.74881 26.9816 8.79782 27.2757 8.89585 27.5698L5.24438 30.0694C4.68074 29.6283 4.01906 29.3832 3.30837 29.3832C1.47039 29.3832 0 30.8536 0 32.6916C0 34.5296 1.47039 36 3.30837 36C5.14636 36 6.61675 34.5296 6.61675 32.6916C6.64125 32.373 6.59224 32.0789 6.49421 31.7849L10.1457 29.2852C10.7093 29.7263 11.3955 29.9714 12.0817 29.9714C13.8952 29.9714 15.3901 28.501 15.3901 26.663C15.3901 24.825 13.9197 23.3056 12.0817 23.2566Z" fill="#3F7EC1"/>
</svg>
