<?xml version="1.0" encoding="UTF-8"?>
<svg width="109px" height="36px" viewBox="0 0 109 36" version="1.1" xmlns="http://www.w3.org/2000/svg" xmlns:xlink="http://www.w3.org/1999/xlink">
    <title>neo4j</title>
    <g id="Page-1" stroke="none" stroke-width="1" fill="none" fill-rule="evenodd">
        <g id="neo4j" fill-rule="nonzero">
            <path d="M20.2668,7.52344 C14.3362,7.52344 10.3417,10.9298 10.3417,17.6691 L10.3417,21.7862 C10.9543,21.5166 11.616,21.3451 12.2777,21.3206 C12.9639,21.2961 13.6255,21.4676 14.2137,21.7862 L14.2137,17.6691 C14.2137,13.3315 16.6153,11.0524 20.2668,11.0524 C23.9183,11.0524 26.3199,13.3315 26.3199,17.6691 L26.3199,28.1579 L30.1919,28.1579 L30.1919,17.6691 C30.1919,10.9298 26.1974,7.52344 20.2668,7.52344 Z" id="Path" fill="#FFFFFF"></path>
            <path d="M32.2505,18.1103 C32.2505,11.9592 36.6862,7.49902 43.0823,7.49902 C49.4785,7.49902 53.7672,11.9347 53.7672,18.1103 L53.7672,19.4827 L36.3676,19.4827 C36.8332,22.8156 39.7495,25.2417 43.0823,25.0702 C45.7045,25.0702 47.5425,24.286 48.6698,22.5705 L52.9339,22.5705 C51.2185,26.467 47.273,28.9177 43.0088,28.7216 C37.3478,28.9667 32.5691,24.5555 32.324,18.8945 C32.324,18.625 32.324,18.3799 32.324,18.1103 M49.8216,16.0763 C49.0864,12.9885 46.2682,10.8809 43.1069,11.0525 C39.97,10.8809 37.1763,13.013 36.4901,16.0763 L49.8216,16.0763 Z" id="Shape" fill="#FFFFFF"></path>
            <path d="M55.9728,18.1103 C55.9728,11.9592 60.433,7.49901 66.8046,7.49901 C72.5637,7.27845 77.3914,11.7631 77.612,17.4976 C77.612,17.6937 77.612,17.8898 77.612,18.0858 C77.612,24.2369 73.1763,28.697201 66.7801,28.697201 C60.433,28.7216 55.9728,24.2859 55.9728,18.1103 Z M73.6419,18.1103 C73.8625,14.4834 71.0933,11.371 67.4663,11.1505 C67.2212,11.126 66.9517,11.126 66.7066,11.1505 C63.0061,11.0279 59.9183,13.9442 59.7958,17.6447 C59.7958,17.7917 59.7958,17.9633 59.7958,18.1103 C59.5752,21.7373 62.3445,24.8496 65.9714,25.0701 C66.2165,25.0947 66.4861,25.0947 66.7311,25.0701 C70.9952,25.1927 73.691,22.2274 73.691,18.1103" id="Shape" fill="#FFFFFF"></path>
            <path d="M99.7413,32.2505 L100.207,32.2505 C102.707,32.2505 103.613,31.0987 103.613,28.256 L103.613,8.87134 L107.485,8.87134 L107.485,28.0109 C107.485,33.0347 105.549,35.5344 100.526,35.5344 L99.7413,35.5344 L99.7413,32.2505 Z" id="Path" fill="#FFFFFF"></path>
            <path d="M97.8053,30.0939 L93.9333,30.0939 L93.9333,25.3152 L84.1307,25.3152 C82.2927,25.3887 80.5527,24.4329 79.6705,22.8155 C78.9353,21.3206 79.1559,19.5316 80.2586,18.2573 L89.032,6.73926 C90.2818,5.02381 92.5119,4.33763 94.4969,5.02381 C96.4819,5.66098 97.8053,7.49897 97.8053,9.58202 L97.8053,21.8843 L100.084,21.8843 L100.084,25.3152 L97.8053,25.3152 L97.8053,30.0939 Z M83.4445,20.4139 C83.2975,20.5609 83.2239,20.757 83.1994,20.9775 C83.1994,21.5657 83.6896,22.0558 84.2777,22.0558 L93.9333,22.0558 L93.9333,9.58202 C93.9333,8.89583 93.4921,8.67528 93.2471,8.67528 L92.855,8.67528 C92.5364,8.67528 92.2423,8.84682 92.0463,9.11639 L83.4445,20.4139 Z" id="Shape" fill="#FFFFFF"></path>
            <path d="M105.574,0 C103.736,0 102.266,1.47039 102.266,3.30837 C102.266,5.14636 103.736,6.61675 105.574,6.61675 C107.412,6.61675 108.882,5.14636 108.882,3.30837 C108.882,1.47039 107.387,0 105.574,0 Z" id="Path" fill="#3F7EC1"></path>
            <path d="M12.0817,23.2566 C11.371,23.2076 10.6603,23.4527 10.1457,23.9428 L6.49421,21.5412 C6.59224,21.2471 6.64125,20.953 6.61675,20.6344 C6.61675,18.7964 5.14636,17.326 3.30837,17.326 C1.47039,17.326 0,18.7964 0,20.6344 C0,22.4724 1.47039,23.9428 3.30837,23.9428 C4.01906,23.9673 4.72975,23.7222 5.24438,23.2566 L8.89585,25.7563 C8.79782,26.0504 8.74881,26.3444 8.77332,26.663 C8.74881,26.9816 8.79782,27.2757 8.89585,27.5698 L5.24438,30.0694 C4.68074,29.6283 4.01906,29.3832 3.30837,29.3832 C1.47039,29.3832 0,30.8536 0,32.6916 C0,34.5296 1.47039,36 3.30837,36 C5.14636,36 6.61675,34.5296 6.61675,32.6916 C6.64125,32.373 6.59224,32.0789 6.49421,31.7849 L10.1457,29.2852 C10.7093,29.7263 11.3955,29.9714 12.0817,29.9714 C13.8952,29.9714 15.3901,28.501 15.3901,26.663 C15.3901,24.825 13.9197,23.3056 12.0817,23.2566 Z" id="Path" fill="#3F7EC1"></path>
        </g>
    </g>
</svg>