<svg width="1730" height="576" viewBox="0 0 1730 576" fill="none" xmlns="http://www.w3.org/2000/svg">
<path d="M21.5261 313.029C26.1909 304.941 32.7507 298.602 40.3067 294.254C48.3971 289.591 57.2408 287.381 65.9629 287.381C75.3168 287.381 84.0632 289.882 91.6192 294.254C99.7097 298.918 106.051 305.476 110.4 313.029C113.34 318.106 115.283 323.473 116.352 328.914C125.779 374.868 158.894 393.886 203.452 378.924C208.846 377.102 214.385 376.204 219.901 376.228C229.254 376.228 238.001 378.73 245.557 383.101C253.647 387.765 259.988 394.323 264.337 401.876C269.002 409.964 271.213 418.805 271.213 427.525C271.213 436.876 268.711 445.62 264.337 453.174C259.673 461.262 253.113 467.601 245.557 471.949C237.466 476.612 228.623 478.822 219.901 478.822C214.167 478.822 208.676 477.875 203.525 476.15C158.845 461.116 125.682 480.207 116.304 526.306C116.304 526.306 116.304 526.282 116.304 526.257C115.21 531.892 113.169 537.187 110.4 541.996C105.735 550.084 99.1752 556.424 91.6192 560.771C83.5287 565.435 74.6851 567.645 65.9629 567.645C56.6091 567.645 47.8626 565.143 40.3067 560.771C32.2162 556.108 25.875 549.55 21.5261 541.996C16.8613 533.908 14.6504 525.067 14.6504 516.348C14.6504 506.997 17.1528 498.253 21.5261 490.699C26.1909 482.611 32.7507 476.272 40.3067 471.924C48.3971 467.261 57.2408 465.051 65.9629 465.051C71.8668 465.051 77.5277 466.046 82.8241 467.892C112.538 477.753 137.125 472.459 152.942 454.097C166.231 438.698 166.207 416.279 152.917 400.881C137.052 382.494 112.368 377.224 82.5326 387.206C77.1147 389.052 71.5023 389.975 65.9629 389.951C56.6091 389.951 47.8626 387.449 40.3067 383.077C32.2162 378.414 25.875 371.856 21.5261 364.302C16.8613 356.214 14.6504 347.373 14.6504 338.654C14.6504 329.327 17.1528 320.583 21.5261 313.029ZM1664.04 110.925C1672.76 110.925 1681.6 108.715 1689.69 104.052C1697.25 99.7041 1703.81 93.3648 1708.47 85.2768C1712.85 77.7231 1715.35 68.9793 1715.35 59.6282C1715.35 50.9087 1713.14 42.0677 1708.47 33.9796C1704.13 26.4259 1697.78 19.8681 1689.69 15.2047C1682.14 10.8328 1673.39 8.33105 1664.04 8.33105C1655.32 8.33105 1646.47 10.5413 1638.38 15.2047C1630.83 19.5523 1624.27 25.8916 1619.6 33.9796C1615.23 41.5333 1612.72 50.2772 1612.72 59.6282C1612.72 68.3478 1614.94 77.1888 1619.6 85.2768C1623.95 92.8305 1630.29 99.3884 1638.38 104.052C1645.94 108.399 1654.68 110.925 1664.04 110.925Z" fill="#014063"/>
<path d="M864.052 289.688C864.052 194.648 796.049 124.77 697.821 124.77C599.594 124.77 530.326 194.648 530.326 289.688C530.326 384.729 600.225 454.607 698.453 454.607C770.854 454.607 827.536 417.47 851.467 358.935H785.358C767.088 385.992 738.759 398.598 698.477 398.598C644.322 398.598 602.776 367.751 593.957 311.742H864.077V289.688H864.052ZM595.828 258.21C607.781 208.492 648.088 180.779 698.453 180.779C748.818 180.779 789.756 207.836 801.709 258.21H595.828ZM1064.3 124.77C966.07 124.77 896.803 194.648 896.803 289.688C896.803 384.729 966.07 454.607 1064.3 454.607C1162.53 454.607 1231.79 384.729 1231.79 289.688C1231.77 194.623 1162.53 124.77 1064.3 124.77ZM1064.9 398.573C1000.69 398.573 957.858 353.251 957.858 289.664C957.858 226.077 1000.67 180.755 1064.9 180.755C1129.12 180.755 1171.95 226.077 1171.95 289.664C1171.95 353.251 1128.51 398.573 1064.9 398.573ZM1574.31 508.746H1581.24C1619.65 508.746 1634.13 491.744 1634.13 447.053V135.457H1693.95V443.264C1693.95 520.695 1663.72 560.334 1586.9 560.334H1574.31V508.746ZM1544.72 349.486V157.486C1544.72 124.114 1524.58 95.7938 1493.09 85.7384C1462.24 75.6587 1428.88 86.3699 1409.35 112.796L1272.71 292.19C1256.33 314.22 1253.2 340.67 1264.52 363.331C1276.47 387.255 1302.93 402.362 1333.15 402.362H1484.9V476.636H1544.72V402.994H1590.06V349.486H1544.72ZM1484.9 348.855H1335.05C1326.86 348.855 1319.94 341.933 1319.94 333.747C1319.94 330.59 1320.57 327.457 1322.46 324.931L1456.58 146.799C1460.34 141.772 1464.76 140.509 1468.53 140.509C1471.06 140.509 1472.93 140.509 1474.19 141.14C1477.35 141.772 1484.9 145.536 1484.9 155.616V348.855ZM497.6 283.398V446.421H437.784V283.398C437.784 215.414 400.636 180.803 343.954 180.803C287.272 180.803 250.124 215.414 250.124 283.398V356.797C240.843 352.814 230.639 350.579 219.9 350.579C209.939 350.579 199.905 352.522 190.308 356.506V284.005C190.308 179.516 252.019 125.377 343.954 125.377C435.889 125.401 498.232 178.277 497.6 283.398Z" fill="black"/>
</svg>
