<svg width="186" height="44" viewBox="0 0 186 44" fill="none" xmlns="http://www.w3.org/2000/svg">
<path d="M56.7335 28.9841V15.6305H60.0079V17.8561H60.136C60.4088 17.1398 60.8351 16.543 61.415 16.0654C62.0119 15.5708 62.8305 15.3236 63.8707 15.3236C65.2522 15.3236 66.3096 15.7756 67.0429 16.6794C67.7763 17.5833 68.1429 18.8708 68.1429 20.5421V28.9841H64.8684V20.8748C64.8684 19.9197 64.6979 19.2034 64.3568 18.7259C64.0158 18.2484 63.453 18.0097 62.6684 18.0097C62.3274 18.0097 61.9948 18.0608 61.6707 18.1631C61.3638 18.2484 61.0824 18.3848 60.8266 18.5725C60.5878 18.743 60.3917 18.9646 60.2383 19.2375C60.0848 19.4933 60.0079 19.8003 60.0079 20.1585V28.9841H56.7335Z" fill="black"/>
<path d="M76.4028 29.291C75.4137 29.291 74.5268 29.129 73.7424 28.8049C72.975 28.4639 72.3183 27.9949 71.7725 27.398C71.2438 26.7841 70.8346 26.0507 70.5447 25.198C70.2548 24.3282 70.1097 23.3561 70.1097 22.2817C70.1097 21.2244 70.2463 20.2693 70.5191 19.4166C70.8091 18.5639 71.2183 17.839 71.747 17.2421C72.2756 16.6282 72.9238 16.1592 73.6912 15.8352C74.4586 15.4941 75.3284 15.3236 76.3005 15.3236C77.3409 15.3236 78.2447 15.5026 79.0122 15.8608C79.7796 16.2189 80.4106 16.7049 80.9051 17.3189C81.3997 17.9329 81.7664 18.6492 82.0051 19.4677C82.2609 20.2693 82.3889 21.1305 82.3889 22.0515V23.1259H73.5122V23.4585C73.5122 24.4305 73.785 25.2151 74.3307 25.812C74.8765 26.3918 75.6866 26.6817 76.7609 26.6817C77.5796 26.6817 78.2447 26.5112 78.7563 26.1702C79.285 25.829 79.754 25.3941 80.1633 24.8654L81.9284 26.8352C81.3827 27.6026 80.6323 28.208 79.6773 28.6515C78.7392 29.0779 77.6478 29.291 76.4028 29.291ZM76.3517 17.7794C75.4819 17.7794 74.7912 18.0693 74.2796 18.6492C73.7679 19.229 73.5122 19.9794 73.5122 20.9003V21.1049H78.9866V20.8748C78.9866 19.9538 78.7563 19.212 78.2958 18.6492C77.8524 18.0693 77.2043 17.7794 76.3517 17.7794Z" fill="black"/>
<path d="M84.5023 15.6305H87.7767V17.8305H87.8792C88.1179 17.0631 88.5698 16.4577 89.2349 16.0143C89.9 15.5538 90.6761 15.3236 91.5628 15.3236C93.2682 15.3236 94.5644 15.929 95.4512 17.1398C96.3551 18.3336 96.8071 20.0476 96.8071 22.2817C96.8071 24.5329 96.3551 26.2639 95.4512 27.4748C94.5644 28.6856 93.2682 29.291 91.5628 29.291C90.6761 29.291 89.9 29.0608 89.2349 28.6003C88.5869 28.1398 88.1349 27.5259 87.8792 26.7585H87.7767V34.1003H84.5023V15.6305ZM90.514 26.5794C91.3667 26.5794 92.0574 26.298 92.5861 25.7352C93.1148 25.1725 93.3792 24.4135 93.3792 23.4585V21.1561C93.3792 20.2011 93.1148 19.4421 92.5861 18.8794C92.0574 18.2995 91.3667 18.0097 90.514 18.0097C89.7295 18.0097 89.073 18.2057 88.5443 18.598C88.0326 18.9902 87.7767 19.5103 87.7767 20.1585V24.4049C87.7767 25.1043 88.0326 25.6415 88.5443 26.0166C89.073 26.3918 89.7295 26.5794 90.514 26.5794Z" fill="black"/>
<path d="M103.094 28.9841C101.968 28.9841 101.107 28.6941 100.51 28.1143C99.9301 27.5174 99.6401 26.6731 99.6401 25.5817V18.2398H97.6704V15.6305H98.6937C99.1883 15.6305 99.5208 15.5197 99.6913 15.298C99.8789 15.0592 99.9727 14.7097 99.9727 14.2492V11.9724H102.915V15.6305H105.652V18.2398H102.915V26.3748H105.447V28.9841H103.094Z" fill="black"/>
<path d="M115.706 26.7585H115.578C115.459 27.0995 115.297 27.4236 115.092 27.7305C114.904 28.0205 114.657 28.2848 114.35 28.5236C114.06 28.7623 113.702 28.95 113.276 29.0864C112.866 29.2228 112.389 29.291 111.843 29.291C110.462 29.291 109.404 28.839 108.671 27.9352C107.938 27.0313 107.571 25.7438 107.571 24.0724V15.6305H110.845V23.7398C110.845 24.6608 111.024 25.3685 111.383 25.8631C111.741 26.3406 112.312 26.5793 113.096 26.5793C113.421 26.5793 113.736 26.5367 114.043 26.4515C114.367 26.3662 114.648 26.2383 114.887 26.0677C115.126 25.8802 115.322 25.6585 115.476 25.4026C115.629 25.1298 115.706 24.8143 115.706 24.4561V15.6305H118.98V28.9841H115.706V26.7585Z" fill="black"/>
<path d="M121.996 28.9841V15.6305H125.271V17.8561H125.398C125.671 17.1398 126.098 16.543 126.678 16.0654C127.274 15.5708 128.093 15.3236 129.133 15.3236C130.515 15.3236 131.572 15.7756 132.305 16.6794C133.039 17.5833 133.405 18.8708 133.405 20.5421V28.9841H130.131V20.8748C130.131 19.9197 129.961 19.2034 129.619 18.7259C129.278 18.2484 128.715 18.0097 127.931 18.0097C127.59 18.0097 127.257 18.0608 126.933 18.1631C126.626 18.2484 126.345 18.3848 126.089 18.5725C125.85 18.743 125.654 18.9646 125.501 19.2375C125.347 19.4933 125.271 19.8003 125.271 20.1585V28.9841H121.996Z" fill="black"/>
<path d="M141.665 29.291C140.676 29.291 139.789 29.129 139.004 28.8049C138.237 28.4639 137.581 27.9949 137.035 27.398C136.506 26.7841 136.097 26.0507 135.807 25.198C135.517 24.3282 135.372 23.3561 135.372 22.2817C135.372 21.2244 135.509 20.2693 135.782 19.4166C136.072 18.5639 136.481 17.839 137.01 17.2421C137.538 16.6282 138.186 16.1592 138.953 15.8352C139.721 15.4941 140.591 15.3236 141.563 15.3236C142.604 15.3236 143.507 15.5026 144.275 15.8608C145.042 16.2189 145.673 16.7049 146.168 17.3189C146.662 17.9329 147.029 18.6492 147.268 19.4677C147.524 20.2693 147.652 21.1305 147.652 22.0515V23.1259H138.775V23.4585C138.775 24.4305 139.047 25.2151 139.593 25.812C140.139 26.3918 140.948 26.6817 142.024 26.6817C142.842 26.6817 143.507 26.5112 144.019 26.1702C144.547 25.829 145.017 25.3941 145.425 24.8654L147.191 26.8352C146.645 27.6026 145.894 28.208 144.94 28.6515C144.002 29.0779 142.911 29.291 141.665 29.291ZM141.614 17.7794C140.745 17.7794 140.053 18.0693 139.542 18.6492C139.03 19.229 138.775 19.9794 138.775 20.9003V21.1049H144.248V20.8748C144.248 19.9538 144.019 19.212 143.558 18.6492C143.115 18.0693 142.466 17.7794 141.614 17.7794Z" fill="black"/>
<path d="M151.284 29.2654C150.585 29.2654 150.065 29.0949 149.724 28.7538C149.399 28.3957 149.237 27.9438 149.237 27.398V26.9375C149.237 26.3918 149.399 25.9398 149.724 25.5816C150.065 25.2236 150.585 25.0444 151.284 25.0444C151.999 25.0444 152.521 25.2236 152.844 25.5816C153.168 25.9398 153.33 26.3918 153.33 26.9375V27.398C153.33 27.9438 153.168 28.3957 152.844 28.7538C152.521 29.0949 151.999 29.2654 151.284 29.2654Z" fill="black"/>
<path d="M166.166 28.9841C165.45 28.9841 164.878 28.7794 164.451 28.3702C164.042 27.9438 163.786 27.381 163.684 26.6817H163.53C163.309 27.5515 162.856 28.208 162.174 28.6515C161.492 29.0779 160.648 29.291 159.642 29.291C158.278 29.291 157.229 28.9329 156.496 28.2166C155.763 27.5003 155.396 26.5453 155.396 25.3515C155.396 23.9702 155.891 22.9469 156.879 22.2817C157.868 21.5995 159.276 21.2585 161.101 21.2585H163.378V20.2864C163.378 19.5359 163.181 18.9561 162.789 18.5469C162.396 18.1375 161.766 17.9329 160.896 17.9329C160.128 17.9329 159.506 18.1034 159.028 18.4444C158.568 18.7685 158.176 19.1608 157.851 19.6213L155.907 17.8817C156.402 17.1143 157.058 16.5003 157.878 16.0398C158.696 15.5623 159.779 15.3236 161.125 15.3236C162.933 15.3236 164.307 15.7329 165.245 16.5515C166.183 17.3702 166.651 18.5469 166.651 20.0817V26.3748H167.981V28.9841H166.166ZM160.742 26.912C161.476 26.912 162.097 26.75 162.609 26.4259C163.122 26.1018 163.378 25.6244 163.378 24.9933V23.2282H161.279C159.574 23.2282 158.722 23.7739 158.722 24.8654V25.3003C158.722 25.8461 158.892 26.2554 159.233 26.5282C159.591 26.7841 160.094 26.912 160.742 26.912Z" fill="black"/>
<path d="M171.501 13.6863C170.819 13.6863 170.325 13.5328 170.017 13.2258C169.727 12.9189 169.583 12.5266 169.583 12.0491V11.5375C169.583 11.06 169.727 10.6677 170.017 10.3607C170.325 10.0537 170.819 9.90027 171.501 9.90027C172.167 9.90027 172.653 10.0537 172.96 10.3607C173.267 10.6677 173.421 11.06 173.421 11.5375V12.0491C173.421 12.5266 173.267 12.9189 172.96 13.2258C172.653 13.5328 172.167 13.6863 171.501 13.6863ZM169.865 15.6304H173.139V28.984H169.865V15.6304Z" fill="black"/>
<path d="M44.0524 22C44.0524 34.1503 34.191 44 22.0263 44C9.86147 44 0 34.1503 0 22C0 9.84973 9.86147 0 22.0263 0C34.191 0 44.0524 9.84973 44.0524 22Z" fill="#5B69C2"/>
<path fill-rule="evenodd" clip-rule="evenodd" d="M26.3042 12.2891C26.8953 12.2891 27.3856 12.443 27.7959 12.7662C28.1872 13.0743 28.5079 13.542 28.7635 14.2018C29.3232 15.6604 29.7744 17.1256 30.107 18.5549C30.5162 20.3214 30.8733 22.1125 31.2198 23.8508C31.3961 24.7352 31.5738 25.6191 31.7551 26.5024C31.8178 26.8118 31.9381 27.3686 32.0387 27.6495C32.1832 27.9626 32.3636 28.0815 32.5005 28.1056C32.7169 28.1434 32.8815 27.9965 32.9351 27.9445C33.2846 27.5601 33.2295 26.9764 33.3234 26.5002C33.5193 25.4779 33.7118 24.4489 33.9012 23.423L34.1495 22.0859C34.2352 21.6294 34.4065 21.3092 34.657 21.0997C34.91 20.888 35.2505 20.7819 35.703 20.7936C36.0368 20.7998 36.3375 20.9534 36.5645 21.1842C36.809 21.4327 36.9637 21.7686 36.9868 22.0826C37.0242 22.6094 36.9589 23.0718 36.8092 23.7952C36.7004 24.3294 36.5977 24.89 36.4906 25.45C36.2234 26.843 35.93 28.255 35.4287 29.4529C35.1092 30.2169 34.5862 30.8579 34.0004 31.222C33.3065 31.6529 32.6385 31.7919 32.0281 31.6671C31.4181 31.5425 30.8564 31.1521 30.383 30.4832C29.7518 29.589 29.3118 28.4954 28.9728 26.9313C28.6385 25.4052 28.3189 23.852 28.0035 22.3186C27.955 22.0825 27.9064 21.8468 27.8579 21.6113C27.6394 20.5414 27.4031 19.4741 27.1975 18.4018C26.9879 17.351 26.8102 16.6471 26.6207 16.2074C26.5431 16.0271 26.4674 15.8964 26.3817 15.813C26.2573 15.6919 26.0637 15.7193 25.9465 15.8392C25.8569 15.931 25.7782 16.0801 25.717 16.3071C25.6425 16.5088 25.3698 17.6639 25.3219 17.8934C25.125 18.851 24.938 19.8106 24.7478 20.7695C24.4621 22.2108 24.1823 23.6273 24.1823 23.6273C23.7901 25.5773 23.3839 27.5895 22.6633 29.4279C22.3807 30.1494 21.967 30.7242 21.4732 31.1152C20.9659 31.5167 20.3735 31.7266 19.7435 31.7072C18.9535 31.692 18.2406 31.2762 17.7933 30.559C17.45 30.0083 16.9863 29.1482 16.7273 28.1711C16.2954 26.5426 15.9323 24.852 15.5789 23.2071C15.4697 22.6891 15.3589 22.1812 15.2479 21.6737C15.0516 20.7796 14.8653 19.8854 14.6754 18.9677C14.636 18.7749 14.5771 18.4905 14.5182 18.1899C14.4155 17.6804 14.3271 17.1652 14.2002 16.6609C14.1331 16.3982 14.0649 16.1166 13.904 15.8933C13.761 15.6949 13.5596 15.6941 13.4059 15.8828C13.2439 16.0815 13.1603 16.3717 13.1089 16.5378C12.9952 16.8365 12.5052 19.2042 12.4215 19.6606C12.2544 20.5659 12.0808 21.504 11.8843 22.4158C11.7896 22.8564 11.5517 23.2053 11.2215 23.4091C10.86 23.6312 10.4189 23.6728 9.9762 23.5137C9.68717 23.4117 9.43768 23.2001 9.26857 22.9331C9.10027 22.6672 9.01283 22.3484 9.03864 22.0375C9.10802 21.1867 9.2564 20.2696 9.52411 19.066C9.95711 17.1038 10.4671 15.5541 11.1248 14.1888C11.4022 13.5843 11.7938 13.1873 12.192 12.9255C12.9379 12.435 13.7111 12.422 13.8226 12.4225C14.2955 12.4408 14.7932 12.5834 15.2316 12.9176C15.5899 13.1908 15.9107 13.5931 16.1356 14.1675C16.6924 15.5874 17.1436 17.0336 17.4764 18.4635C17.9029 20.2982 18.2662 22.146 18.6365 23.9925C18.8013 24.8148 18.9663 25.6372 19.1345 26.4597C19.2362 26.9378 19.3557 27.6305 19.7064 27.9789C20.0194 28.2899 20.2907 27.8916 20.4042 27.618C20.6162 27.1099 20.6782 26.4762 20.7877 25.937C21.2505 23.6468 21.6655 21.3473 22.161 19.0637C22.5514 17.2637 22.9349 15.6595 23.6629 14.2264C23.9594 13.6424 24.3046 13.1232 24.7772 12.7712C25.1783 12.4724 25.6701 12.2891 26.3042 12.2891Z" fill="white"/>
<path fill-rule="evenodd" clip-rule="evenodd" d="M8.75413 27.7578C9.35331 27.7578 9.88782 27.9998 10.2773 28.3877C10.6721 28.7808 10.9174 29.3241 10.9269 29.9156C10.9366 30.4641 10.7103 31.0122 10.3211 31.4297C9.92578 31.8601 9.38395 32.1267 8.81941 32.1393C8.21029 32.1622 7.66721 31.892 7.26316 31.479C6.85836 31.0648 6.62524 30.5084 6.62524 29.9471C6.6276 29.3505 6.86568 28.8042 7.2516 28.4067C7.63533 28.0112 8.16471 27.7628 8.75413 27.7578Z" fill="white"/>
</svg>
