<svg width="540" height="120" viewBox="0 0 540 120" fill="none" xmlns="http://www.w3.org/2000/svg">
<g clip-path="url(#clip0_1176_785)">
<path d="M138.102 31.1949C105.221 31.1949 97.4463 58.6443 97.4463 76.6423C97.4463 101.843 110.446 119.985 136.452 119.985C169.333 119.985 177.108 92.3917 177.108 74.3934C177.108 49.2003 164.109 31.2023 138.102 31.2023V31.1949ZM137.504 109.334C121.06 109.334 115.533 96.434 115.533 75.7386C115.533 53.5391 121.809 41.8391 137.057 41.8391C153.35 41.8391 159.028 54.5874 159.028 75.2829C159.028 97.6271 152.752 109.327 137.504 109.327V109.334ZM228.825 104.988C228.825 107.541 227.031 119.537 208.202 119.537C198.639 119.537 193.552 116.088 190.713 111.59C188.169 107.693 187.276 102.443 187.276 91.4951C187.276 70.5177 187.427 51.254 187.557 43.3503H178.009C178.311 43.1986 183.392 38.8526 188.767 30.3054C194.445 21.7584 197.436 14.7081 197.436 14.7081H204.159V33.4583H213.721C225.979 33.4583 228.371 31.8097 228.371 31.8097C228.371 31.8097 228.22 33.9066 228.22 38.4114C228.22 42.9166 228.371 44.8617 228.371 44.8617C228.371 44.8617 226.13 43.3649 213.721 43.3649H204.159V92.1097C204.159 98.8563 204.606 101.409 205.953 104.106C207.596 107.403 210.738 109.508 216.417 109.508C224.79 109.508 228.825 105.01 228.825 105.01V104.988ZM79.2151 11.3962C87.2857 11.3962 90.7231 11.0925 90.7231 11.0925L89.3754 13.6451C86.5363 19.0467 85.7869 20.3917 85.7869 65.3909L85.6357 118.337C85.6357 118.337 85.0809 118.272 84.0431 118.185L72.7803 90.0777V63.894C72.7803 20.2471 72.182 19.6469 69.0403 13.6523L67.6929 11.0997C67.6929 11.0997 71.4326 11.4034 79.2006 11.4034H79.2151V11.3962ZM66.7849 89.1666L78.3 117.91C77.5146 117.896 76.6786 117.881 75.7777 117.881C68.6009 117.881 64.27 118.33 64.27 118.33L21.971 36.5966C19.7299 32.2506 18.0869 26.6972 17.9356 25.6487V65.3909C17.9356 109.038 18.3824 109.638 21.5242 115.633L22.8717 118.185C22.8717 118.185 19.1318 117.889 11.2125 117.889C3.29311 117.889 0 118.185 0 118.185L1.34751 115.633C4.03534 110.231 5.0874 108.886 5.0874 63.8869C5.0874 18.8876 4.48211 19.6469 1.34751 13.6451L0 11.0925C0 11.0925 3.73989 11.3962 13.9003 11.3962C22.4177 11.3962 26.4531 11.0925 26.4531 11.0925L66.7849 89.1594V89.1666ZM358.194 31.3469C345.194 31.3469 336.971 36.8931 332.937 48.4483C332.937 48.4483 333.686 43.7989 333.686 34.948V31.0503C333.686 16.2049 334.134 0.00723109 334.134 0.00723109L312.163 3.75294L313.509 6.30551C315.903 10.6514 317.249 14.8527 317.249 40.8051V78.602C317.249 110.845 315.903 120 315.903 120L331.294 111.453C331.294 111.453 337.723 119.855 353.56 119.855C372.389 119.855 391.377 109.659 391.377 73.8077C391.377 33.61 365.666 31.3611 358.194 31.3611V31.3469ZM349.077 109.334C338.463 109.334 333.686 104.988 333.686 104.988L332.943 49.0411C334.617 48.1446 336.331 47.3349 338.074 46.6406C338.206 46.5466 338.34 46.4671 338.471 46.3803C338.614 46.2863 338.76 46.1923 338.903 46.1054C339.04 46.0186 339.186 45.9391 339.32 45.8523C339.503 45.7511 339.683 45.65 339.863 45.556C340.049 45.4546 340.243 45.3606 340.437 45.2666C340.617 45.18 340.797 45.1003 340.98 45.0134C341.114 44.9557 341.26 44.8906 341.403 44.8329C341.597 44.7531 341.8 44.6809 341.994 44.6014C342.14 44.5509 342.277 44.5003 342.42 44.4494C342.694 44.3554 342.969 44.2689 343.249 44.1891C343.386 44.1531 343.523 44.1169 343.66 44.0734C343.889 44.0157 344.12 43.9577 344.357 43.9C344.48 43.8711 344.597 43.842 344.72 43.8131C345.057 43.7409 345.403 43.6757 345.757 43.618C345.871 43.5963 345.994 43.5817 346.117 43.56C346.397 43.5169 346.68 43.4806 346.966 43.4443C347.089 43.43 347.206 43.4154 347.326 43.4011C347.717 43.3577 348.12 43.3214 348.531 43.2926C348.609 43.2926 348.697 43.2926 348.774 43.278C349.129 43.2563 349.497 43.2346 349.863 43.2203C349.986 43.2203 350.109 43.2203 350.237 43.2057C350.686 43.1914 351.146 43.184 351.614 43.184C352.083 43.184 352.58 43.1986 353.049 43.2274C353.509 43.2563 353.963 43.2926 354.411 43.3431C354.454 43.3431 354.503 43.3431 354.554 43.3577C354.851 43.3937 355.131 43.4443 355.42 43.4877C355.586 43.5169 355.757 43.5383 355.917 43.5674C356.177 43.618 356.434 43.6757 356.689 43.7337C356.869 43.7771 357.049 43.806 357.22 43.8566C357.466 43.9217 357.703 43.994 357.943 44.0591C358.114 44.1097 358.294 44.1603 358.469 44.218C358.697 44.2906 358.923 44.3771 359.146 44.464C359.317 44.5291 359.483 44.5869 359.657 44.6591C359.871 44.746 360.089 44.84 360.297 44.9411C360.463 45.0134 360.629 45.0931 360.789 45.1654C360.989 45.2666 361.191 45.3751 361.394 45.4763C361.551 45.5631 361.711 45.65 361.863 45.7366C362.057 45.8523 362.243 45.968 362.431 46.0837C362.583 46.1777 362.734 46.2791 362.877 46.3731C363.057 46.496 363.246 46.626 363.417 46.7563C363.563 46.8649 363.7 46.966 363.843 47.0743C364.017 47.2117 364.189 47.3491 364.354 47.4866C364.491 47.6023 364.623 47.718 364.757 47.8337C364.923 47.9783 365.083 48.1303 365.24 48.282C365.371 48.4049 365.494 48.528 365.617 48.658C365.769 48.8171 365.926 48.9689 366.069 49.1351C366.191 49.2654 366.309 49.4029 366.423 49.5329C366.566 49.6994 366.711 49.8657 366.854 50.0391C366.963 50.1766 367.071 50.3211 367.18 50.4586C367.317 50.6394 367.454 50.8129 367.591 50.9937C367.691 51.1383 367.791 51.2829 367.894 51.4274C368.023 51.6154 368.151 51.8034 368.283 51.9989C368.377 52.1434 368.454 52.288 368.543 52.4326C368.994 53.1703 369.414 53.9511 369.794 54.7537C369.874 54.9274 369.96 55.0937 370.04 55.2671C370.134 55.4697 370.22 55.6866 370.306 55.8891C370.386 56.0771 370.466 56.2651 370.546 56.4531C370.631 56.6629 370.703 56.8726 370.783 57.0823C370.854 57.2849 370.934 57.48 371.006 57.6826C371.077 57.892 371.151 58.1017 371.223 58.3189C371.294 58.5286 371.36 58.7309 371.431 58.948C371.497 59.1577 371.56 59.3746 371.626 59.5914C371.691 59.8083 371.754 60.0254 371.814 60.2423C371.871 60.4591 371.929 60.676 371.986 60.8931C372.043 61.1171 372.1 61.3414 372.151 61.5654C372.203 61.7826 372.251 61.9994 372.303 62.2234L372.454 62.9177C372.497 63.1346 372.54 63.3589 372.583 63.5831C372.629 63.8217 372.671 64.0603 372.714 64.2989C372.749 64.5231 372.794 64.74 372.829 64.9643C372.871 65.21 372.909 65.456 372.946 65.7089C372.98 65.926 373.009 66.15 373.037 66.3743C373.074 66.6274 373.103 66.8877 373.131 67.1406C373.16 67.3577 373.183 67.5817 373.211 67.7989C373.24 68.0592 373.269 68.3266 373.291 68.5943C373.311 68.8111 373.334 69.028 373.349 69.2449C373.369 69.5197 373.391 69.7946 373.411 70.0694C373.426 70.2791 373.443 70.4886 373.457 70.6983C373.477 70.9949 373.486 71.284 373.506 71.5806C373.514 71.7757 373.529 71.9711 373.534 72.1663C373.549 72.4989 373.557 72.8243 373.563 73.1569C373.563 73.316 373.577 73.4823 373.577 73.6414C373.586 74.1331 373.594 74.632 373.594 75.1237C373.594 96.7231 366.717 109.32 349.077 109.32V109.334ZM422.76 115.64L424.106 118.192C424.106 118.192 420.366 117.896 410.806 117.896C401.243 117.896 397.503 118.192 397.503 118.192L398.849 115.64C401.689 110.39 402.583 107.389 402.583 77.3943V43.7989C402.583 16.5013 401.689 12.0036 398.849 6.45014L397.503 3.89757L419.474 0C419.474 0 419.026 16.1977 419.026 31.0431V77.3871C419.026 106.333 419.777 110.086 422.766 115.633L422.76 115.64ZM304.083 86.3177L304.054 63.3806C304.054 48.7449 304.48 32.9666 304.48 32.9666L283.468 36.5531L284.498 38.4983C281.443 36.8857 276.485 35.136 269.315 35.136C251.445 35.136 233.286 44.8906 233.286 79.036C233.286 117.484 257.735 119.639 265.021 119.639C278.171 119.639 285.751 113.759 289.471 102.711L288.9 119.349L308.92 115.763L307.629 113.326C305.54 109.522 304.286 105.834 304.083 86.3177ZM271.175 108.445C255.307 108.445 250.162 93.5269 250.162 77.886C250.162 57.0823 256.741 45.18 273.61 45.18C283.763 45.18 288.34 49.2003 288.34 49.2003V101.134C283.907 106.442 279.476 108.452 271.182 108.452H271.175V108.445ZM470.137 31.1949C449.514 31.1949 432.471 44.6954 432.471 76.0423C432.471 105.589 448.32 119.689 471.031 119.689C493.746 119.689 501.671 108.741 501.671 97.7934C501.671 97.7934 496.289 108.141 475.666 108.141C455.043 108.141 449.963 91.9434 449.963 76.194H504.966V74.8417C504.966 57.892 502.126 31.1949 470.137 31.1949ZM465.857 41.0654C467.14 40.8703 468.431 40.7977 469.691 40.7977C471.637 40.7977 473.366 41.0074 474.917 41.398C475.534 41.5571 476.12 41.738 476.68 41.9477C476.963 42.056 477.237 42.1646 477.494 42.2803C486.691 46.3657 487.477 57.9571 487.477 65.3909L449.963 68.2397C450.329 48.9834 457.203 42.902 464.574 41.2969C465 41.2029 465.426 41.1231 465.857 41.0654ZM540 107.989C540 114.533 534.711 119.841 528.189 119.841C521.669 119.841 516.38 114.533 516.38 107.989C516.38 101.445 521.669 96.1374 528.189 96.1374C534.711 96.1374 540 101.445 540 107.989Z" fill="black"/>
</g>
<defs>
<clipPath id="clip0_1176_785">
<rect width="540" height="120" fill="white"/>
</clipPath>
</defs>
</svg>
