<svg width="129" height="44" viewBox="0 0 129 44" fill="none" xmlns="http://www.w3.org/2000/svg">
<g clip-path="url(#clip0_125_548)">
<mask id="mask0_125_548" style="mask-type:luminance" maskUnits="userSpaceOnUse" x="0" y="0" width="129" height="44">
<path d="M128.453 0H0.546509V44H128.453V0Z" fill="white"/>
</mask>
<g mask="url(#mask0_125_548)">
<path d="M3.20021 1.89816L27.6055 0.100028C30.6031 -0.156638 31.3736 0.0164284 33.2583 1.38336L41.049 6.85844C42.3338 7.80004 42.7616 8.0567 42.7616 9.0819V39.1089C42.7616 40.9908 42.0765 42.104 39.6787 42.2741L11.3377 43.9856C9.53822 44.0708 8.68109 43.8141 7.73871 42.6158L2.002 35.174C0.972865 33.8041 0.546509 32.7787 0.546509 31.5806V4.89017C0.546509 3.35164 1.23162 2.0683 3.20021 1.89816Z" fill="white"/>
<path fill-rule="evenodd" clip-rule="evenodd" d="M27.6055 0.100028L3.20021 1.89816C1.23162 2.0683 0.546509 3.35164 0.546509 4.89017V31.5806C0.546509 32.7787 0.972865 33.8041 2.002 35.174L7.73871 42.6158C8.68109 43.8141 9.53822 44.0708 11.3377 43.9856L39.6787 42.2741C42.075 42.104 42.7616 40.9908 42.7616 39.1089V9.0819C42.7616 8.1095 42.3764 7.82937 41.243 6.99924C41.1779 6.95235 41.1125 6.90542 41.0474 6.85844L33.2583 1.38336C31.3736 0.0164284 30.6031 -0.156638 27.6055 0.100028ZM11.9787 8.59057C9.66466 8.74604 9.13981 8.78124 7.82545 7.71497L4.48369 5.06324C4.14406 4.72004 4.31462 4.29177 5.17028 4.2067L28.6316 2.49656C30.6016 2.32496 31.6279 3.0099 32.3984 3.6083L36.4223 6.5167C36.5942 6.60324 37.022 7.1151 36.5074 7.1151L12.2787 8.57004L11.9787 8.59057ZM9.28093 38.8522V13.3616C9.28093 12.2484 9.6235 11.7351 10.6497 11.6486L38.4776 10.0235C39.4214 9.93844 39.8476 10.5368 39.8476 11.6486V36.9691C39.8476 38.0822 39.6757 39.024 38.135 39.1089L11.5054 40.6489C9.96459 40.7341 9.28093 40.2221 9.28093 38.8522ZM35.5679 14.7286C35.7387 15.4986 35.5679 16.2686 34.7962 16.3566L33.5126 16.6103V35.4306C32.3984 36.0289 31.3721 36.3708 30.515 36.3708C29.1447 36.3708 28.8023 35.9424 27.776 34.6606L19.3826 21.487V34.2323L22.0378 34.8321C22.0378 34.8321 22.0378 36.3721 19.8957 36.3721L13.99 36.714C13.818 36.3708 13.99 35.5156 14.5883 35.3454L16.1306 34.9188V18.0667L13.99 17.8936C13.818 17.1236 14.2458 16.0119 15.4455 15.9254L21.782 15.5L30.515 28.8438V17.0386L28.2892 16.7834C28.1172 15.8403 28.8023 15.1554 29.6579 15.0718L35.5679 14.7286Z" fill="#14171F"/>
<path d="M61.4627 31.1679V19.5666H61.664L70.0501 31.1679H72.6906V14.1194H69.7546V25.7089H69.5532L61.1671 14.1194H58.5162V31.1664H61.4642L61.4627 31.1679ZM80.9883 31.4289C84.8623 31.4289 87.2191 28.9004 87.2191 24.7058C87.2191 20.5228 84.8504 17.9826 80.9883 17.9826C77.1392 17.9826 74.7592 20.5346 74.7592 24.7058C74.7592 28.9004 77.104 31.4289 80.9883 31.4289ZM80.9883 28.971C78.9403 28.971 77.7686 27.4117 77.7686 24.7058C77.7686 22.0115 78.9403 20.4407 80.9883 20.4407C83.026 20.4407 84.1977 22.0115 84.1977 24.7058C84.1977 27.4117 83.0376 28.971 80.9883 28.971ZM89.9021 15.0771V18.3258H87.854V20.6651H89.9021V27.7182C89.9021 30.2234 91.0872 31.2281 94.0597 31.2281C94.6273 31.2281 95.1729 31.1694 95.5991 31.0857V28.7934C95.2433 28.8286 95.0184 28.8521 94.6037 28.8521C93.3733 28.8521 92.8277 28.2859 92.8277 27.0099V20.6651H95.5991V18.3258H92.8277V15.0756L89.9021 15.0771ZM97.3589 31.1679H100.285V18.2422H97.3589V31.1679ZM98.8158 16.1052C99.7861 16.1052 100.568 15.3235 100.568 14.3438C100.568 13.3626 99.7876 12.5706 98.8158 12.5706C97.8574 12.5706 97.0633 13.3626 97.0633 14.3438C97.0633 15.3235 97.8574 16.1038 98.8158 16.1038V16.1052ZM108.31 31.4289C112.183 31.4289 114.539 28.9004 114.539 24.7058C114.539 20.5228 112.171 17.9826 108.31 17.9826C104.46 17.9826 102.08 20.5346 102.08 24.7058C102.08 28.9004 104.425 31.4289 108.31 31.4289ZM108.31 28.971C106.261 28.971 105.088 27.4117 105.088 24.7058C105.088 22.0115 106.261 20.4407 108.31 20.4407C110.347 20.4407 111.52 22.0115 111.52 24.7058C111.52 27.4117 110.358 28.971 108.31 28.971ZM116.288 31.1679H119.225V23.6424C119.225 21.7402 120.328 20.5346 122.079 20.5346C123.868 20.5346 124.696 21.5275 124.696 23.5002V31.1679H127.635V22.8035C127.635 19.7191 126.058 17.9826 123.17 17.9826C121.238 17.9826 119.935 18.8684 119.319 20.3102H119.118V18.2422H116.288V31.1679Z" fill="#14171F"/>
</g>
</g>
<defs>
<clipPath id="clip0_125_548">
<rect width="127.907" height="44" fill="white" transform="translate(0.546509)"/>
</clipPath>
</defs>
</svg>
