<svg width="505" height="174" viewBox="0 0 505 174" fill="none" xmlns="http://www.w3.org/2000/svg">
<g clip-path="url(#clip0_738_372)">
<path d="M10.4773 7.50637L106.834 0.395567C118.669 -0.619433 121.711 0.064967 129.152 5.47057L159.911 27.122C164.984 30.8456 166.673 31.8606 166.673 35.9148V154.658C166.673 162.1 163.968 166.502 154.501 167.175L42.6057 173.943C35.5009 174.28 32.1168 173.265 28.3961 168.526L5.74655 139.097C1.68333 133.68 0 129.625 0 124.887V19.3384C0 13.2542 2.70494 8.17917 10.4773 7.50637Z" fill="black"/>
<path fill-rule="evenodd" clip-rule="evenodd" d="M106.834 0.395567L10.4773 7.50637C2.70494 8.17917 0 13.2542 0 19.3384V124.887C0 129.625 1.68333 133.68 5.74655 139.097L28.3961 168.526C32.1168 173.265 35.5009 174.28 42.6057 173.943L154.501 167.175C163.962 166.502 166.673 162.1 166.673 154.658V35.9148C166.673 32.0694 165.152 30.9616 160.677 27.6788C160.42 27.4934 160.162 27.3078 159.905 27.122L129.152 5.47057C121.711 0.064967 118.669 -0.619433 106.834 0.395567ZM45.1365 33.9718C36.0001 34.5866 33.9279 34.7258 28.7386 30.5092L15.5447 20.0228C14.2038 18.6656 14.8772 16.972 18.2555 16.6356L110.885 9.87277C118.663 9.19417 122.715 11.9028 125.757 14.2692L141.644 25.7706C142.323 26.1128 144.012 28.137 141.98 28.137L46.3207 33.8906L45.1365 33.9718ZM34.4851 153.643V52.8392C34.4851 48.437 35.8376 46.407 39.8892 46.0648L149.759 39.6384C153.485 39.302 155.168 41.6684 155.168 46.0648V146.196C155.168 150.598 154.489 154.322 148.406 154.658L43.2675 160.748C37.1843 161.085 34.4851 159.06 34.4851 153.643ZM138.271 58.2448C138.945 61.2898 138.271 64.3348 135.224 64.6828L130.156 65.6862V140.112C125.757 142.478 121.705 143.83 118.321 143.83C112.911 143.83 111.559 142.136 107.507 137.067L74.3685 84.9712V135.373L84.8516 137.745C84.8516 137.745 84.8516 143.835 76.3943 143.835L53.0772 145.187C52.3981 143.83 53.0772 140.448 55.4397 139.775L61.5287 138.088V71.4456L53.0772 70.7612C52.3981 67.7162 54.0872 63.3198 58.8238 62.9776L83.8416 61.2956L118.321 114.064V67.3798L109.533 66.3706C108.854 62.6412 111.559 59.9326 114.937 59.602L138.271 58.2448Z" fill="white"/>
<path d="M240.508 123.255V77.3769H241.303L274.413 123.255H284.838V55.8357H273.246V101.667H272.451L239.341 55.8357H228.875V123.249H240.514L240.508 123.255ZM317.599 124.287C332.894 124.287 342.199 114.288 342.199 97.7001C342.199 81.1585 332.847 71.1129 317.599 71.1129C302.402 71.1129 293.005 81.2049 293.005 97.7001C293.005 114.288 302.263 124.287 317.599 124.287ZM317.599 114.567C309.513 114.567 304.887 108.401 304.887 97.7001C304.887 87.0455 309.513 80.8337 317.599 80.8337C325.644 80.8337 330.27 87.0455 330.27 97.7001C330.27 108.401 325.69 114.567 317.599 114.567ZM352.792 59.6231V72.4701H344.706V81.7211H352.792V109.613C352.792 119.52 357.471 123.493 369.207 123.493C371.448 123.493 373.602 123.261 375.285 122.93V113.865C373.88 114.004 372.992 114.097 371.355 114.097C366.497 114.097 364.343 111.858 364.343 106.812V81.7211H375.285V72.4701H364.343V59.6173L352.792 59.6231ZM382.233 123.255H393.784V72.1395H382.233V123.255ZM387.985 63.6889C391.816 63.6889 394.904 60.5975 394.904 56.7231C394.904 52.8429 391.822 49.7109 387.985 49.7109C384.201 49.7109 381.066 52.8429 381.066 56.7231C381.066 60.5975 384.201 63.6831 387.985 63.6831V63.6889ZM425.471 124.287C440.761 124.287 450.065 114.288 450.065 97.7001C450.065 81.1585 440.714 71.1129 425.471 71.1129C410.269 71.1129 400.871 81.2049 400.871 97.7001C400.871 114.288 410.13 124.287 425.471 124.287ZM425.471 114.567C417.38 114.567 412.748 108.401 412.748 97.7001C412.748 87.0455 417.38 80.8337 425.471 80.8337C433.511 80.8337 438.143 87.0455 438.143 97.7001C438.143 108.401 433.557 114.567 425.471 114.567ZM456.967 123.255H468.565V93.4951C468.565 85.9725 472.918 81.2049 479.831 81.2049C486.896 81.2049 490.164 85.1315 490.164 92.9325V123.255H501.767V90.1775C501.767 77.9801 495.544 71.1129 484.138 71.1129C476.511 71.1129 471.368 74.6161 468.936 80.3175H468.141V72.1395H456.967V123.255Z" fill="white"/>
</g>
<defs>
<clipPath id="clip0_738_372">
<rect width="505" height="174" fill="white"/>
</clipPath>
</defs>
</svg>
