<svg width="139" height="36" viewBox="0 0 139 36" fill="none" xmlns="http://www.w3.org/2000/svg">
<g clip-path="url(#clip0_2060_512)">
<path d="M12.1071 33.898C11.4539 34.5651 10.6743 35.0954 9.81372 35.4576C8.95672 35.8181 8.03596 36.0026 7.10622 36C5.70137 36 4.32801 35.5769 3.15972 34.784C1.99155 33.9913 1.08072 32.8645 0.542439 31.546C0.00388622 30.2252 -0.13761 28.776 0.135296 27.3761C0.408296 25.9758 1.08351 24.6891 2.07565 23.6786L4.17383 25.8105C3.60019 26.4006 3.21094 27.1499 3.05505 27.9642C2.89914 28.7782 2.98346 29.6199 3.29772 30.3868C3.61187 31.1525 4.14169 31.8068 4.82055 32.2674C5.49695 32.7271 6.29553 32.9738 7.1134 32.9757C7.65323 32.9774 8.18786 32.8703 8.6854 32.6609C9.18493 32.4504 9.63741 32.1424 10.0163 31.7548L12.1071 33.898ZM15.0208 0.0250749C13.212 -0.0868134 11.3997 0.176972 9.6979 0.799825C7.99433 1.42349 6.43795 2.39234 5.12633 3.64565C3.81419 4.89563 2.7692 6.39875 2.05455 8.06411C1.33898 9.73133 0.968117 11.5261 0.96426 13.3404C0.96426 13.609 0.96426 13.8736 0.990296 14.131C1.20597 17.1841 2.53283 20.0509 4.7178 22.1849L11.6683 29.18L14.6384 32.163L16.387 33.9193C17.0483 34.5819 17.8343 35.1071 18.6995 35.4645C19.5638 35.8215 20.4903 36.0035 21.4253 36C22.846 36.0006 24.2347 35.5784 25.4146 34.7871C26.5968 33.9941 27.5174 32.8685 28.06 31.5524C28.6038 30.2345 28.7462 28.7853 28.4693 27.3867C28.193 25.9892 27.5094 24.7048 26.5045 23.6951L24.3957 25.8355C24.9757 26.4256 25.3689 27.1737 25.5261 27.9861C25.6836 28.7992 25.5983 29.6406 25.2809 30.4055C24.9642 31.1694 24.4289 31.8227 23.7422 32.2834C23.0569 32.7432 22.2506 32.9894 21.4253 32.9908C20.8803 32.993 20.3402 32.8863 19.8369 32.677C19.333 32.4675 18.8759 32.1597 18.4923 31.7715L17.5047 30.7834L11.7276 24.9852L6.8194 20.0559C5.16019 18.4419 4.14822 16.2726 3.9753 13.9593V13.3441C3.97722 10.6077 5.05926 7.98354 6.98419 6.04682C8.90922 4.11011 11.5201 3.01865 14.2448 3.01179H14.8501C17.4545 3.19661 19.895 4.35675 21.6883 6.26261C23.4813 8.16857 24.4967 10.6812 24.533 13.3031V13.8512C24.3849 16.2041 23.3699 18.4174 21.6853 20.0596L16.3752 25.4086L18.4951 27.5376L23.7905 22.1886C26.0024 20.0143 27.3264 17.0889 27.5032 13.9855V13.2807C27.4877 9.8924 26.1891 6.63697 23.8709 4.17515C21.5526 1.71332 18.3886 0.229611 15.0208 0.0250749Z" fill="#0088FF"/>
<path d="M40.4552 17.6622C40.4552 11.6005 44.5182 8.52043 48.8433 8.52043C53.1686 8.52043 57.2316 11.6005 57.2316 17.6622C57.2316 23.724 53.1686 26.8367 48.8433 26.8367C44.5182 26.8367 40.4552 23.724 40.4552 17.6622ZM37.1786 17.6622C37.1786 25.4278 43.011 29.7857 48.8433 29.7857C54.6758 29.7857 60.5082 25.4278 60.5082 17.6622C60.5082 9.89657 54.6758 5.57143 48.8433 5.57143C43.011 5.57143 37.1786 9.89657 37.1786 17.6622ZM71.2149 15.8928C73.9017 15.8928 75.0484 17.695 75.4417 19.2349L78.2268 18.0554C77.5714 15.6634 75.4089 13.0422 71.2149 13.0422C66.7258 13.0422 63.2853 16.4826 63.2853 21.3975C63.2853 26.1814 66.6603 29.7857 71.2476 29.7857C75.3434 29.7857 77.6042 27.1317 78.3579 24.8708L75.6383 23.6912C75.2778 24.9363 74.1965 26.9351 71.2476 26.9351C68.6919 26.9351 66.4309 25.0018 66.4309 21.3975C66.4309 17.7278 68.7246 15.8928 71.2149 15.8928ZM86.0997 8.55321H83.2817V11.1089C83.2817 12.4851 82.5609 13.5336 80.8571 13.5336H80.0052V16.3188H83.0197V24.9691C83.0197 27.8198 84.7234 29.4581 87.4104 29.4581C88.4589 29.4581 89.2452 29.2615 89.5074 29.1631V26.5419C89.2452 26.6074 88.6882 26.6729 88.295 26.6729C86.6895 26.6729 86.0997 25.952 86.0997 24.5103V16.3188H89.5074V13.5336H86.0997V8.55321ZM100.208 27.0333C97.5871 27.0333 95.2934 25.0674 95.2934 21.3975C95.2934 17.7605 97.5871 15.7945 100.208 15.7945C102.83 15.7945 105.123 17.7605 105.123 21.3975C105.123 25.0674 102.83 27.0333 100.208 27.0333ZM100.208 13.0422C95.49 13.0422 92.1479 16.6137 92.1479 21.3975C92.1479 26.2142 95.49 29.7857 100.208 29.7857C104.927 29.7857 108.269 26.2142 108.269 21.3975C108.269 16.6137 104.927 13.0422 100.208 13.0422ZM128.625 29.2943H132.099L122.859 6.06289H119.156L109.916 29.2943H113.356L115.814 22.8065H126.103L128.625 29.2943ZM120.926 9.40511L124.955 19.8248H116.96L120.926 9.40511ZM138.661 29.2943V6.06289H135.384V29.2943H138.661Z" fill="#0D3B72"/>
</g>
<defs>
<clipPath id="clip0_2060_512">
<rect width="138.75" height="36" fill="white"/>
</clipPath>
</defs>
</svg>
