<svg width="149" height="40" viewBox="0 0 149 40" fill="none" xmlns="http://www.w3.org/2000/svg">
<g clip-path="url(#clip0_125_383)">
<mask id="mask0_125_383" style="mask-type:luminance" maskUnits="userSpaceOnUse" x="0" y="0" width="149" height="40">
<path d="M148.5 0H0.5V40H148.5V0Z" fill="white"/>
</mask>
<g mask="url(#mask0_125_383)">
<mask id="mask1_125_383" style="mask-type:luminance" maskUnits="userSpaceOnUse" x="0" y="0" width="149" height="40">
<path d="M148.5 0H0.5V40H148.5V0Z" fill="white"/>
</mask>
<g mask="url(#mask1_125_383)">
<path d="M46.5861 19.2301C46.5861 25.7701 50.8004 30.3301 56.6401 30.3301C62.4798 30.3301 66.6941 25.7701 66.6941 19.2301C66.6941 12.6901 62.4798 8.13013 56.6401 8.13013C50.8004 8.13013 46.5861 12.6901 46.5861 19.2301ZM62.841 19.2301C62.841 23.9101 60.2824 26.9401 56.6401 26.9401C52.9978 26.9401 50.4391 23.9101 50.4391 19.2301C50.4391 14.5501 52.9978 11.5201 56.6401 11.5201C60.2824 11.5201 62.841 14.5501 62.841 19.2301Z" fill="#14171F"/>
<path d="M77.5445 30.3302C81.9694 30.3302 84.498 26.6102 84.498 22.1402C84.498 17.6702 81.9694 13.9502 77.5445 13.9502C75.4976 13.9502 73.9925 14.7602 72.9991 15.9302V14.2502H69.3869V35.4002H72.9991V28.3502C73.9925 29.5202 75.4976 30.3302 77.5445 30.3302ZM72.9088 21.6902C72.9088 18.7202 74.5945 17.1002 76.822 17.1002C79.4409 17.1002 80.8556 19.1402 80.8556 22.1402C80.8556 25.1402 79.4409 27.1802 76.822 27.1802C74.5945 27.1802 72.9088 25.5302 72.9088 22.6202V21.6902Z" fill="#14171F"/>
<path d="M94.2735 30.3302C97.4342 30.3302 99.9326 28.6802 101.046 25.9202L97.9459 24.7502C97.4643 26.3702 96.0495 27.2702 94.2735 27.2702C91.9557 27.2702 90.3302 25.6202 90.0593 22.9202H101.137V21.7202C101.137 17.4002 98.6984 13.9502 94.123 13.9502C89.5475 13.9502 86.5976 17.5202 86.5976 22.1402C86.5976 27.0002 89.7582 30.3302 94.2735 30.3302ZM94.0929 16.9802C96.3806 16.9802 97.4643 18.4802 97.4944 20.2202H90.2399C90.7817 18.0902 92.2266 16.9802 94.0929 16.9802Z" fill="#14171F"/>
<path d="M103.847 30.0002H107.459V20.7602C107.459 18.5102 109.114 17.3102 110.74 17.3102C112.727 17.3102 113.509 18.7202 113.509 20.6702V30.0002H117.122V19.6202C117.122 16.2302 115.135 13.9502 111.824 13.9502C109.777 13.9502 108.362 14.8802 107.459 15.9302V14.2502H103.847V30.0002Z" fill="#14171F"/>
<path d="M127.701 8.46021L119.514 30.0002H123.337L125.173 25.0802H134.504L136.371 30.0002H140.254L132.066 8.46021H127.701ZM129.809 12.7202L133.24 21.7202H126.437L129.809 12.7202Z" fill="#14171F"/>
<path d="M146.455 8.52271H142.602V30.0627H146.455V8.52271Z" fill="#14171F"/>
<path d="M37.7588 16.3715C38.6694 13.6477 38.3558 10.6639 36.8997 8.18643C34.7098 4.38643 30.3074 2.43143 26.0079 3.35143C24.0952 1.20394 21.3471 -0.0173145 18.4661 0.000185529C14.0713 -0.00981447 10.1719 2.81018 8.81981 6.97768C5.99652 7.55393 3.55954 9.31518 2.13347 11.8114C-0.0727363 15.6015 0.430213 20.379 3.37767 23.629C2.4671 26.3527 2.78066 29.3365 4.23683 31.814C6.42672 35.614 10.8291 37.569 15.1286 36.649C17.0401 38.7965 19.7894 40.0177 22.6703 39.999C27.0677 40.0102 30.9684 37.1877 32.3204 33.0165C35.1437 32.4402 37.5807 30.679 39.0068 28.1827C41.2105 24.3927 40.7063 19.619 37.7601 16.369L37.7588 16.3715ZM22.6728 37.3851C20.9132 37.3876 19.2086 36.774 17.8578 35.6502C17.9193 35.6177 18.0259 35.559 18.0949 35.5165L26.0869 30.9165C26.4958 30.6852 26.7466 30.2515 26.7441 29.7827V18.554L30.1218 20.4977C30.1581 20.5152 30.182 20.5502 30.187 20.5902V29.889C30.182 34.024 26.8219 37.3764 22.6728 37.3851ZM6.51327 30.5065C5.63154 28.989 5.31422 27.2102 5.61649 25.484C5.67544 25.519 5.77954 25.5827 5.85354 25.6252L13.8455 30.2252C14.2506 30.4615 14.7523 30.4615 15.1587 30.2252L24.9154 24.6102V28.4977C24.9179 28.5377 24.8991 28.5765 24.8678 28.6015L16.7892 33.2502C13.1908 35.3152 8.5953 34.0877 6.51452 30.5065H6.51327ZM4.40991 13.1202C5.28788 11.6002 6.67381 10.4377 8.32439 9.83393C8.32439 9.90268 8.32062 10.0239 8.32062 10.1089V19.3102C8.31811 19.7777 8.56896 20.2115 8.97659 20.4427L18.7333 26.0565L15.3556 28.0002C15.3218 28.0227 15.2791 28.0265 15.2415 28.0102L7.16171 23.3577C3.57083 21.2852 2.33916 16.7065 4.40866 13.1215L4.40991 13.1202ZM32.1612 19.5565L22.4044 13.9415L25.7821 11.9989C25.816 11.9764 25.8586 11.9727 25.8962 11.9889L33.976 16.6377C37.5732 18.709 38.8061 23.2952 36.7278 26.8802C35.8486 28.3977 34.4639 29.5602 32.8146 30.1652V20.689C32.8184 20.2215 32.5688 19.789 32.1624 19.5565H32.1612ZM35.5225 14.514C35.4636 14.4777 35.3595 14.4152 35.2855 14.3727L27.2935 9.77268C26.8883 9.53643 26.3866 9.53643 25.9803 9.77268L16.2236 15.3877V11.5002C16.2211 11.4602 16.2399 11.4214 16.2712 11.3964L24.3498 6.75143C27.9482 4.68268 32.5487 5.91393 34.6232 9.50143C35.4999 11.0164 35.8173 12.7902 35.52 14.514H35.5225ZM14.3874 21.4427L11.0085 19.499C10.9721 19.4815 10.9482 19.4465 10.9432 19.4065V10.1077C10.9457 5.96768 14.3159 2.61268 18.4699 2.61518C20.2271 2.61518 21.9278 3.23018 23.2786 4.35018C23.2172 4.38268 23.1118 4.44143 23.0416 4.48393L15.0496 9.08393C14.6407 9.31518 14.3899 9.74768 14.3924 10.2164L14.3874 21.4402V21.4427ZM16.2223 17.5002L20.5682 14.999L24.9142 17.499V22.5002L20.5682 25.0002L16.2223 22.5002V17.5002Z" fill="#14171F"/>
</g>
</g>
</g>
<defs>
<clipPath id="clip0_125_383">
<rect width="148" height="40" fill="white" transform="translate(0.5)"/>
</clipPath>
</defs>
</svg>
