<svg width="271" height="64" viewBox="0 0 271 64" fill="none" xmlns="http://www.w3.org/2000/svg">
<path d="M4.52002 14.4868H41.6064V61.4359C41.6064 62.7096 40.5738 63.7422 39.3001 63.7422H6.82633C5.55258 63.7422 4.52002 62.7096 4.52002 61.4359V14.4868Z" fill="black"/>
<path d="M0 2.30631C0 1.03257 1.03257 0 2.30631 0H43.8198C45.0935 0 46.1261 1.03257 46.1261 2.30631V13.3395C46.1261 14.6132 45.0935 15.6458 43.8198 15.6458H2.30631C1.03257 15.6458 0 14.6132 0 13.3395V2.30631Z" fill="black"/>
<path d="M5.79468 15.6459H40.3314V61.3143C40.3314 61.9512 39.8151 62.4675 39.1783 62.4675H6.94783C6.31094 62.4675 5.79468 61.9512 5.79468 61.3143V15.6459Z" fill="#FF5733"/>
<path d="M1.2749 2.31209C1.2749 1.67522 1.79119 1.15894 2.42806 1.15894H43.8141C44.4509 1.15894 44.9673 1.67522 44.9673 2.31209V13.2178C44.9673 13.8547 44.4509 14.371 43.8141 14.371H2.42806C1.79119 14.371 1.2749 13.8547 1.2749 13.2178V2.31209Z" fill="#FF5733"/>
<path d="M1.2749 2.31209C1.2749 1.67522 1.79119 1.15894 2.42806 1.15894H43.8141C44.4509 1.15894 44.9673 1.67522 44.9673 2.31209V13.2178C44.9673 13.8547 44.4509 14.371 43.8141 14.371H2.42806C1.79119 14.371 1.2749 13.8547 1.2749 13.2178V2.31209Z" fill="url(#paint0_linear_2824_5076)"/>
<path d="M5.79468 15.5299H40.3314V61.314C40.3314 61.9511 39.8151 62.4672 39.1783 62.4672H6.94783C6.31094 62.4672 5.79468 61.9511 5.79468 61.314V15.5299Z" fill="url(#paint1_linear_2824_5076)"/>
<path d="M12.5166 16.457H18.0796V62.1794H12.5166V16.457Z" fill="white"/>
<path d="M34.7686 15.6459H40.3317V61.3143C40.3317 61.9512 39.8153 62.4675 39.1785 62.4675H34.7686V15.6459Z" fill="white" fill-opacity="0.25"/>
<path d="M11.126 16.457H12.5167V62.1794H11.126V16.457Z" fill="white" fill-opacity="0.5"/>
<path d="M9.73511 1.15894H15.414V14.1319H9.73511V1.15894Z" fill="white"/>
<path d="M39.2883 1.15894H43.8142C44.451 1.15894 44.9673 1.67522 44.9673 2.31209V13.2178C44.9673 13.8547 44.451 14.371 43.8142 14.371H39.2883V1.15894Z" fill="white" fill-opacity="0.25"/>
<path d="M8.34448 1.15894H9.73521V14.1319H8.34448V1.15894Z" fill="white" fill-opacity="0.5"/>
<path d="M81.9027 48.4612C78.0347 48.4612 75.1086 47.0486 73.1243 44.2234C71.14 41.3981 70.1477 37.3788 70.1477 32.1657C70.1477 27.087 71.14 23.1183 73.1243 20.2594C75.1086 17.4005 78.0347 15.9711 81.9027 15.9711C85.7032 15.9711 88.5959 17.4005 90.5801 20.2594C92.5982 23.1183 93.6072 27.087 93.6072 32.1657C93.6072 37.3788 92.5982 41.3981 90.5801 44.2234C88.5959 47.0486 85.7032 48.4612 81.9027 48.4612ZM81.9027 43.8198C83.7861 43.8198 85.2661 42.8612 86.3423 40.9441C87.4185 38.9932 87.9567 36.0504 87.9567 32.1153C87.9567 28.4492 87.4185 25.624 86.3423 23.6396C85.2661 21.6216 83.7861 20.6126 81.9027 20.6126C79.9518 20.6126 78.4383 21.6216 77.3621 23.6396C76.3194 25.624 75.7982 28.4492 75.7982 32.1153C75.7982 36.0504 76.3194 38.9932 77.3621 40.9441C78.4383 42.8612 79.9518 43.8198 81.9027 43.8198ZM96.836 56.281L96.7856 24.3459H102.436V27.6252C103.176 26.3135 104.118 25.3549 105.261 24.7495C106.405 24.1441 107.666 23.8414 109.045 23.8414C110.76 23.8414 112.308 24.3122 113.686 25.254C115.099 26.1621 116.226 27.5411 117.067 29.3909C117.908 31.2071 118.328 33.4774 118.328 36.2017C118.328 38.9598 117.891 41.2468 117.016 43.063C116.142 44.8792 114.981 46.2414 113.535 47.1495C112.122 48.0239 110.592 48.4612 108.944 48.4612C107.7 48.4612 106.506 48.2427 105.362 47.8053C104.218 47.368 103.31 46.7122 102.638 45.8378V56.281H96.836ZM107.38 44.0216C108.355 44.0216 109.247 43.7693 110.054 43.2648C110.861 42.7603 111.5 41.9194 111.971 40.7423C112.442 39.5652 112.677 37.9508 112.677 35.899C112.677 33.5783 112.223 31.7454 111.315 30.3999C110.441 29.0545 109.23 28.3651 107.683 28.3315C106.068 28.2978 104.807 28.9369 103.899 30.2486C103.025 31.5266 102.587 33.6288 102.587 36.5549C102.655 41.5328 104.252 44.0216 107.38 44.0216ZM133.312 48.4107C131.058 48.4107 129.04 47.94 127.258 46.9981C125.509 46.0563 124.13 44.6774 123.121 42.8612C122.112 41.045 121.607 38.8589 121.607 36.3026C121.607 33.6792 122.095 31.4427 123.07 29.5927C124.079 27.7429 125.408 26.3303 127.056 25.3549C128.737 24.3459 130.604 23.8414 132.656 23.8414C134.472 23.8414 136.137 24.2618 137.65 25.1026C139.198 25.9435 140.425 27.2216 141.333 28.9369C142.275 30.6185 142.746 32.7207 142.746 35.2432C142.746 35.5796 142.729 35.9832 142.695 36.454C142.695 36.9248 142.679 37.3284 142.645 37.6648H127.106C127.173 39.1446 127.527 40.3554 128.166 41.2972C128.805 42.2053 129.595 42.8779 130.537 43.3153C131.479 43.7526 132.488 43.9711 133.564 43.9711C134.607 43.9711 135.599 43.803 136.541 43.4666C137.482 43.1302 138.357 42.5585 139.164 41.7513L142.09 44.5765C140.946 45.922 139.635 46.8972 138.155 47.5026C136.675 48.108 135.061 48.4107 133.312 48.4107ZM127.207 33.3765H137.196C137.196 31.7284 136.776 30.4671 135.935 29.5927C135.094 28.7183 133.917 28.281 132.404 28.281C131.092 28.281 129.948 28.7014 128.973 29.5423C127.998 30.3495 127.409 31.6275 127.207 33.3765ZM147.64 47.8558V24.3963H153.341V27.6252C154.181 26.4816 155.157 25.5735 156.267 24.9008C157.377 24.1945 158.655 23.8414 160.101 23.8414C161.446 23.8414 162.691 24.1777 163.834 24.8504C165.011 25.4894 165.953 26.5321 166.659 27.9783C167.366 29.4247 167.719 31.3248 167.719 33.6792V47.8558H162.018V33.7801C162.018 31.863 161.715 30.4671 161.11 29.5927C160.504 28.6846 159.664 28.2306 158.587 28.2306C157.746 28.2306 156.923 28.466 156.115 28.9369C155.308 29.3742 154.636 30.0131 154.097 30.854C153.593 31.6949 153.341 32.7039 153.341 33.881V47.8558H147.64ZM172.512 47.8558V16.4252H183.207C185.629 16.4252 187.63 16.8456 189.211 17.6864C190.791 18.5273 191.952 19.654 192.692 21.0666C193.465 22.4456 193.852 23.9759 193.852 25.6576C193.852 27.3057 193.482 28.8192 192.742 30.1981C192.002 31.5436 190.859 32.6365 189.312 33.4774C187.764 34.2846 185.814 34.6882 183.459 34.6882H178.313V47.8558H172.512ZM178.313 29.9459H183.056C184.67 29.9459 185.898 29.5423 186.739 28.7351C187.58 27.9279 188 26.9021 188 25.6576C188 24.4131 187.58 23.3873 186.739 22.5801C185.898 21.7729 184.687 21.3693 183.106 21.3693H178.313V29.9459ZM199.553 47.8558V43.3657H205.304V28.8864H199.856V24.3963H211.056V43.3657H216.303V47.8558H199.553ZM207.928 20.5117C206.919 20.5117 206.061 20.1753 205.355 19.5026C204.682 18.83 204.346 18.0228 204.346 17.081C204.346 16.1057 204.682 15.2984 205.355 14.6594C206.028 13.9867 206.885 13.6504 207.928 13.6504C208.87 13.6504 209.694 13.9867 210.4 14.6594C211.14 15.3321 211.51 16.1393 211.51 17.081C211.51 18.0228 211.14 18.83 210.4 19.5026C209.694 20.1753 208.87 20.5117 207.928 20.5117ZM222.962 56.281L222.912 24.3459H228.562V27.6252C229.302 26.3135 230.244 25.3549 231.387 24.7495C232.531 24.1441 233.792 23.8414 235.171 23.8414C236.886 23.8414 238.434 24.3122 239.813 25.254C241.225 26.1621 242.352 27.5411 243.193 29.3909C244.034 31.2071 244.454 33.4774 244.454 36.2017C244.454 38.9598 244.017 41.2468 243.142 43.063C242.268 44.8792 241.108 46.2414 239.661 47.1495C238.249 48.0239 236.718 48.4612 235.07 48.4612C233.826 48.4612 232.632 48.2427 231.488 47.8053C230.345 47.368 229.437 46.7122 228.764 45.8378V56.281H222.962ZM233.506 44.0216C234.482 44.0216 235.373 43.7693 236.18 43.2648C236.987 42.7603 237.627 41.9194 238.097 40.7423C238.568 39.5652 238.804 37.9508 238.804 35.899C238.804 33.5783 238.35 31.7454 237.441 30.3999C236.567 29.0545 235.356 28.3651 233.809 28.3315C232.195 28.2978 230.933 28.9369 230.025 30.2486C229.151 31.5266 228.713 33.6288 228.713 36.5549C228.781 41.5328 230.378 44.0216 233.506 44.0216ZM259.438 48.4107C257.184 48.4107 255.166 47.94 253.384 46.9981C251.635 46.0563 250.256 44.6774 249.247 42.8612C248.238 41.045 247.733 38.8589 247.733 36.3026C247.733 33.6792 248.221 31.4427 249.196 29.5927C250.205 27.7429 251.534 26.3303 253.182 25.3549C254.864 24.3459 256.73 23.8414 258.782 23.8414C260.598 23.8414 262.263 24.2618 263.777 25.1026C265.324 25.9435 266.551 27.2216 267.459 28.9369C268.401 30.6185 268.872 32.7207 268.872 35.2432C268.872 35.5796 268.855 35.9832 268.822 36.454C268.822 36.9248 268.805 37.3284 268.771 37.6648H253.232C253.3 39.1446 253.653 40.3554 254.292 41.2972C254.931 42.2053 255.721 42.8779 256.663 43.3153C257.605 43.7526 258.614 43.9711 259.69 43.9711C260.733 43.9711 261.725 43.803 262.667 43.4666C263.609 43.1302 264.483 42.5585 265.29 41.7513L268.216 44.5765C267.073 45.922 265.761 46.8972 264.281 47.5026C262.801 48.108 261.187 48.4107 259.438 48.4107ZM253.333 33.3765H263.323C263.323 31.7284 262.902 30.4671 262.061 29.5927C261.22 28.7183 260.043 28.281 258.53 28.281C257.218 28.281 256.074 28.7014 255.099 29.5423C254.124 30.3495 253.535 31.6275 253.333 33.3765Z" fill="black"/>
<defs>
<linearGradient id="paint0_linear_2824_5076" x1="38.8247" y1="7.76494" x2="15.8777" y2="7.76494" gradientUnits="userSpaceOnUse">
<stop stop-color="#D62600"/>
<stop offset="1" stop-color="#FF5733" stop-opacity="0"/>
</linearGradient>
<linearGradient id="paint1_linear_2824_5076" x1="35.4761" y1="38.9985" x2="17.3374" y2="38.9985" gradientUnits="userSpaceOnUse">
<stop stop-color="#D62600"/>
<stop offset="1" stop-color="#FF5733" stop-opacity="0"/>
</linearGradient>
</defs>
</svg>
