<svg width="317" height="48" viewBox="0 0 317 48" fill="none" xmlns="http://www.w3.org/2000/svg">
<path d="M306.908 38.2244C303.588 38.2244 300.872 37.319 299.262 35.9608C298.105 33.5967 297.954 30.6792 299.665 30.6792C300.218 30.6792 300.62 30.981 300.872 31.7355C302.129 35.2566 304.192 36.816 307.512 36.816C310.731 36.816 312.24 35.3069 312.24 33.1943C312.24 30.1762 309.373 29.4719 306.254 28.4156C302.482 27.1581 298.81 25.3472 298.81 21.2728C298.81 17.2487 302.431 14.7839 307.612 14.7839C310.53 14.7839 313.095 15.5888 314.705 16.7457C315.862 19.1099 316.013 21.977 314.302 21.977C313.749 21.977 313.397 21.6752 313.145 20.971C311.938 17.5002 309.826 16.0918 307.059 16.0918C304.393 16.0918 303.035 17.3996 303.035 19.5123C303.035 22.2285 305.148 23.2849 308.065 24.2909C311.737 25.5484 316.667 26.8563 316.667 31.4337C316.667 35.659 312.492 38.2244 306.908 38.2244Z" fill="black"></path>
<path d="M281.165 38.2244C275.833 38.2244 271.457 33.7476 271.457 26.7054C271.457 19.0093 276.738 14.784 282.473 14.784C287.301 14.784 289.364 17.9027 289.364 14.7337V10.2065C289.364 7.94297 288.76 7.13815 286.094 7.38965V6.23272L292.03 4.97519C293.187 4.72368 293.891 5.27699 293.891 6.48423V34.3009C293.891 36.0615 294.947 36.3633 296.406 36.0615V36.7657C295.802 37.6711 294.293 38.2244 292.935 38.2244C291.326 38.2244 290.068 37.4699 289.615 35.9609C289.364 35.3069 288.911 35.1057 288.559 35.1057C287.151 35.1057 285.642 38.2244 281.165 38.2244ZM276.034 24.7939C276.034 30.6792 279.153 35.2566 283.881 35.2566C286.245 35.2566 289.364 34.0494 289.364 29.5223V24.2406C289.364 18.5063 285.44 16.2427 282.271 16.2427C278.298 16.2427 276.034 19.7135 276.034 24.7939Z" fill="black"></path>
<path d="M266.895 38.2244C264.883 38.2244 263.374 37.1178 263.374 34.4015V24.3412C263.374 20.3674 261.462 17.5505 257.891 17.5505C254.269 17.5505 252.106 20.3674 252.106 24.3412V33.9488C252.106 35.8602 252.961 36.5141 255.325 36.7154V37.9226H244.36V36.7154C246.724 36.5141 247.579 35.8602 247.579 33.9488V20.1159C247.579 17.8523 246.975 17.0475 244.309 17.299V16.1421L250.245 14.8845C251.402 14.633 252.106 15.1863 252.106 16.3936C252.106 18.3553 252.659 18.9087 253.313 18.2044C254.118 17.3493 256.13 14.7839 260.406 14.7839C264.329 14.7839 267.901 16.9469 267.901 23.1843V34.3009C267.901 36.0614 268.957 36.4135 270.416 36.0614V36.7657C269.812 37.6711 268.303 38.2244 266.895 38.2244Z" fill="black"></path>
<path d="M226.956 38.2244C223.585 38.2244 220.416 36.6148 220.416 32.6912C220.416 28.7677 223.535 25.9005 234.45 24.5927C235.356 24.4921 235.809 24.1903 235.809 23.0837V22.0776C235.809 18.4559 234.249 16.1924 230.678 16.1924C224.541 16.1924 228.867 22.631 224.239 22.631C222.63 22.631 221.875 21.6249 221.875 20.1662C221.875 16.3433 227.106 14.7839 232.036 14.7839C237.972 14.7839 240.336 17.299 240.336 23.2849V34.3009C240.336 36.0614 241.291 36.3129 242.549 35.8602V36.5141C242.046 37.5202 240.788 38.2244 239.43 38.2244C237.368 38.2244 235.909 36.9669 235.809 34.6027C235.809 34.0997 235.406 34.0997 235.054 34.5524C233.293 36.7154 230.275 38.2244 226.956 38.2244ZM225.195 31.7355C225.195 33.7979 226.553 35.659 229.521 35.659C232.941 35.659 235.809 33.144 235.809 29.7235V27.6611C235.809 26.5042 235.456 25.8502 233.796 26.0515C226.754 26.806 225.195 29.4216 225.195 31.7355Z" fill="black"></path>
<path d="M186.84 36.7154C188.902 36.3633 189.959 35.9106 189.959 34.0494V10.5586C189.959 8.69748 188.902 8.19447 186.84 7.89266V6.68542H198.259V7.89266C196.196 8.19447 195.14 8.69748 195.14 10.5586V19.965C195.14 21.1722 195.794 21.6752 197.001 21.6752H208.721C209.928 21.6752 210.633 21.1722 210.633 19.965V10.5586C210.633 8.69748 209.526 8.19447 207.464 7.89266V6.68542H218.882V7.89266C216.82 8.19447 215.763 8.69748 215.763 10.5586V34.0494C215.763 35.9106 216.82 36.3633 218.882 36.7154V37.9226H207.464V36.7154C209.526 36.3633 210.633 35.9106 210.633 34.0494V24.8945C210.633 23.6873 209.928 23.1843 208.772 23.1843H196.951C195.794 23.1843 195.14 23.6873 195.14 24.8945V34.0494C195.14 35.9106 196.196 36.3633 198.259 36.7154V37.9226H186.84V36.7154Z" fill="black"></path>
<path d="M181.787 38.2244C179.775 38.2244 178.266 37.1178 178.266 34.4015V24.3412C178.266 20.3674 176.355 17.5505 172.783 17.5505C169.162 17.5505 166.999 20.3674 166.999 24.3412V33.9488C166.999 35.8602 167.854 36.5141 170.218 36.7154V37.9226H159.252V36.7154C161.616 36.5141 162.471 35.8602 162.471 33.9488V20.1159C162.471 17.8523 161.868 17.0475 159.202 17.299V16.1421L165.137 14.8845C166.294 14.633 166.999 15.1863 166.999 16.3936C166.999 18.3553 167.552 18.9087 168.206 18.2044C169.011 17.3493 171.023 14.7839 175.298 14.7839C179.222 14.7839 182.793 16.9469 182.793 23.1843V34.3009C182.793 36.0614 183.85 36.4135 185.308 36.0614V36.7657C184.705 37.6711 183.196 38.2244 181.787 38.2244Z" fill="black"></path>
<path d="M148.208 38.2244C141.92 38.2244 136.488 33.8482 136.488 26.5042C136.488 18.959 142.021 14.7839 148.359 14.7839C153.489 14.7839 156.809 17.5505 156.809 21.3734C156.809 24.8945 154.043 25.9509 147.302 26.2527L142.876 26.5042C141.92 26.5545 141.568 27.0072 141.568 28.1138C141.568 31.8361 145.29 35.3069 150.421 35.3069C152.584 35.3069 154.998 34.7033 156.709 32.49L157.664 33.2949C156.709 35.0554 153.59 38.2244 148.208 38.2244ZM141.316 23.2849C141.316 24.9448 141.87 25.1963 142.976 25.146L146.397 25.0454C150.974 24.8945 152.282 24.0897 152.282 21.4237C152.282 18.7074 150.874 16.293 147.453 16.293C143.228 16.293 141.316 20.0153 141.316 23.2849Z" fill="black"></path>
<path d="M108.599 46.3229C110.963 46.0714 111.818 45.4175 111.818 43.506V20.1159C111.818 17.8523 111.215 17.0475 108.549 17.299V16.1421L114.484 14.8845C115.641 14.633 116.345 15.1863 116.345 16.4942V17.1481C116.345 17.7517 116.748 18.0535 117.301 17.4499C118.257 16.3936 120.973 14.7839 124.293 14.7839C129.776 14.7839 134.253 19.1602 134.253 26.2024C134.253 33.9488 128.921 38.2244 123.388 38.2244C120.017 38.2244 118.207 36.6148 117.301 36.6148C116.647 36.6148 116.345 37.2184 116.345 38.9286V43.506C116.345 45.4175 117.2 46.0714 119.816 46.3229V47.4799H108.599V46.3229ZM116.345 28.9186C116.345 34.653 120.319 36.7657 123.388 36.7657C127.311 36.7657 129.675 33.3452 129.675 28.2144C129.675 22.3794 126.557 17.7517 121.979 17.7517C119.514 17.7517 116.345 19.0093 116.345 24.0394V28.9186Z" fill="black"></path>
<path d="M90.5369 38.4255C81.5832 38.4255 74.5913 31.8863 74.5913 22.4297C74.5913 12.7718 81.9353 5.88049 91.0902 5.88049C100.044 5.88049 107.036 12.4197 107.036 21.826C107.036 31.5342 99.6917 38.4255 90.5369 38.4255ZM80.2754 20.3673C80.2754 30.0252 85.557 36.6147 91.8447 36.6147C96.4221 36.6147 101.352 33.2445 101.352 23.8381C101.352 14.2808 96.07 7.69135 89.7823 7.69135C85.2049 7.69135 80.2754 11.0615 80.2754 20.3673Z" fill="black"></path>
<g clip-path="url(#clip0_12_351)">
<path d="M59.2108 12.5335C57.2422 11.3548 55.9271 13.1612 56.0884 15.614L56.072 15.6325C56.0774 13.0712 55.722 10.2423 54.5409 7.95382C54.1225 7.14331 53.2749 5.811 51.5989 6.43875C50.8634 6.71421 50.1963 7.54327 50.5408 9.68345C50.5408 9.68345 50.9236 11.9296 50.8525 14.7531V14.7929C50.374 7.00558 48.5695 4.62966 45.9884 4.78329C45.1627 4.92632 44.0335 5.2733 44.4136 7.66776C44.4136 7.66776 44.8264 10.1655 44.9604 12.1547L44.9686 12.2554H44.9604C43.7464 7.96177 42.1114 7.9035 40.9275 8.07037C39.853 8.22135 38.68 9.30733 39.2733 11.4475C41.1353 18.1621 40.7717 26.2486 40.6322 27.4061C40.2522 26.6142 40.1346 25.9864 39.6069 25.1176C37.4852 21.6292 36.4763 21.3723 35.2377 21.3193C34.0074 21.2664 32.6786 22.0054 32.7661 23.4118C32.8563 24.8183 33.5918 25.0514 34.6362 27.0115C35.451 28.5372 35.6834 30.5369 37.3239 34.171C38.6828 37.18 42.2344 40.4803 48.7034 40.0883C53.9448 39.9188 61.7727 38.1335 60.4111 26.4102C60.072 24.3733 60.3263 22.6676 60.504 20.9194C60.7802 18.2071 61.1848 13.7122 59.2135 12.5308L59.2108 12.5335Z" fill="#FFE165"></path>
<path d="M26.483 21.4014C25.2444 21.4782 24.2437 21.7511 22.1876 25.2765C21.6763 26.1533 21.5724 26.7837 21.2061 27.5809C21.0448 26.4261 20.528 18.3474 22.2614 11.6011C22.8137 9.45299 21.6217 8.3882 20.5444 8.25576C19.3578 8.11008 17.72 8.19749 16.5881 12.5335H16.5744L16.5908 12.409C16.6865 10.4171 17.0529 7.91407 17.0529 7.91407C17.3837 5.51167 16.2518 5.18587 15.4233 5.05609C12.8478 4.95014 11.0924 7.33665 10.7534 15.0551H10.7479C10.6304 12.2606 10.9667 10.0357 10.9667 10.0357C11.2702 7.88758 10.5866 7.07177 9.84566 6.80955C8.15869 6.21093 7.33571 7.55914 6.93379 8.3776C5.79638 10.6873 5.49289 13.5214 5.54758 16.0828L5.53117 16.0642C5.64327 13.6089 4.29533 11.8263 2.34862 13.0394C0.4019 14.2551 0.891313 18.7421 1.21941 21.4491C1.43268 23.1946 1.71703 24.8951 1.41627 26.9373C0.278863 38.6818 8.13955 40.3267 13.3837 40.4035C19.8581 40.6816 23.3469 37.315 24.6484 34.2822C26.2178 30.6217 26.4146 28.6166 27.1993 27.0777C28.2055 25.0991 28.9383 24.8527 29.0011 23.4463C29.064 22.0398 27.7216 21.3246 26.4912 21.3988L26.483 21.4014Z" fill="#FFE165"></path>
<path d="M29.0749 21.42C28.4188 20.7975 27.4317 20.4664 26.4283 20.5247C24.8206 20.6227 23.6805 21.1922 21.9279 23.9734C21.8814 20.7922 22.0646 16.0166 23.1418 11.8157C23.5465 10.237 23.1391 9.20666 22.7235 8.62129C22.2396 7.93791 21.4877 7.48763 20.6565 7.38697C19.8991 7.29427 18.9094 7.28897 17.9442 8.0571C17.9442 8.04651 17.9469 8.03327 17.9469 8.03327C18.2586 5.77654 17.4548 4.48396 15.56 4.1926L15.4561 4.182C14.2887 4.13168 13.288 4.5025 12.4814 5.28123C12.0494 5.69708 11.6748 6.23477 11.3494 6.89961C10.9858 6.3831 10.5183 6.12088 10.1491 5.98844C7.89347 5.18587 6.6467 6.9049 6.10533 8.00148C5.47648 9.27817 5.0855 10.7085 4.86676 12.1679C4.82028 12.1388 4.77654 12.1097 4.73006 12.0832C4.23244 11.8051 3.1962 11.466 1.85099 12.3057C-0.429289 13.7307 -0.139469 17.8256 0.3144 21.5551C0.339008 21.7537 0.363615 21.9497 0.388222 22.1484C0.582347 23.6767 0.765535 25.1203 0.513993 26.8181L0.508525 26.8605C0.0519216 31.5726 0.967863 35.1987 3.23174 37.6435C5.40813 39.9956 8.81761 41.2193 13.3372 41.2855C13.668 41.2987 13.9906 41.304 14.3051 41.3014C22.0263 41.2325 24.796 36.2132 25.4768 34.6239C26.3572 32.5685 26.8138 31.0349 27.1774 29.8006C27.4591 28.847 27.6833 28.0948 28.0004 27.4697C28.3613 26.7598 28.6785 26.299 28.9574 25.891C29.4331 25.1971 29.8432 24.5985 29.8925 23.486C29.928 22.6808 29.6437 21.9656 29.0667 21.42H29.0749ZM13.7637 6.52614C14.1984 6.10763 14.6988 5.92222 15.3331 5.93547C15.8827 6.02288 16.3803 6.15266 16.1533 7.79488C16.1369 7.89818 15.7815 10.3642 15.6858 12.3719C15.6858 12.3851 15.6858 12.3984 15.6858 12.4116C15.1855 14.3717 14.7671 17.1952 14.5429 21.322C13.5723 21.3802 12.6044 21.4809 11.6639 21.6133C11.3604 13.2407 12.0631 8.16305 13.761 6.52614H13.7637ZM7.74583 8.75902C8.42663 7.38168 8.99807 7.45054 9.52849 7.6386C10.264 7.90083 10.1491 9.3232 10.0644 9.91387C10.0507 10.0092 9.72262 12.2262 9.83745 15.0471C9.75269 17.0257 9.76363 19.3063 9.86479 21.9153C8.96526 22.0875 8.1122 22.2861 7.33297 22.5007C6.96386 21.2981 5.33157 13.6592 7.74583 8.76167V8.75902ZM27.4536 24.919C27.1583 25.3481 26.7919 25.8831 26.3791 26.6936C25.9881 27.4591 25.7475 28.2802 25.4385 29.3159C25.0858 30.5051 24.6456 31.9858 23.8062 33.9485C23.2102 35.3364 20.7057 39.8446 13.3919 39.5267C9.31523 39.4685 6.43343 38.4672 4.58241 36.4674C2.67397 34.4067 1.91115 31.2335 2.31307 27.0406C2.59195 25.1229 2.38689 23.4992 2.18729 21.9312C2.16269 21.7352 2.13808 21.5418 2.11347 21.3458C1.89474 19.5367 1.30963 14.7293 2.83255 13.7784C3.24268 13.5214 3.57898 13.4632 3.82779 13.6009C4.25158 13.8366 4.67811 14.6948 4.61796 16.0245C4.61522 16.096 4.62342 16.1649 4.63709 16.2338C4.71365 19.3328 5.28509 22.0292 5.61045 23.041C5.07729 23.2344 4.60702 23.4357 4.2133 23.637C3.77037 23.8648 3.60359 24.3945 3.83872 24.8236C4.00277 25.1229 4.31993 25.2924 4.64803 25.2898C4.78747 25.2898 4.92965 25.2553 5.06362 25.1865C7.27555 24.0502 12.5224 22.8953 17.1458 23.0198C17.6489 23.0278 18.0618 22.6516 18.0755 22.1669C18.0891 21.6822 17.6954 21.2796 17.1951 21.2664C16.9189 21.2584 16.64 21.2584 16.3611 21.2584C16.8232 12.9361 18.0946 10.2211 19.0844 9.41855C19.4945 9.08746 19.8855 9.06097 20.4268 9.12719C20.5772 9.14573 20.9545 9.23049 21.2252 9.61191C21.5178 10.0278 21.5724 10.6423 21.381 11.3892C19.7077 17.9078 20.0851 25.5732 20.2764 27.4326C20.2436 27.4962 20.2136 27.5597 20.178 27.626C19.787 28.3385 19.0597 29.0801 18.193 29.0298C17.6981 29.006 17.2634 29.3715 17.2333 29.8536C17.2033 30.3383 17.5833 30.7541 18.0837 30.7833C19.5492 30.868 20.9299 29.9966 21.7775 28.4524C21.8677 28.2882 21.9443 28.1319 22.0126 27.9809C22.0181 27.9703 22.0236 27.9571 22.029 27.9465C22.1876 27.6021 22.3025 27.2869 22.4036 27.0035C22.5622 26.5638 22.6989 26.1824 22.9723 25.7109C24.9136 22.3788 25.701 22.3311 26.5349 22.2808C27.0243 22.2517 27.511 22.4027 27.7981 22.6781C28.0032 22.8715 28.0934 23.1125 28.0797 23.4145C28.0524 24.0369 27.8747 24.2965 27.4454 24.9216L27.4536 24.919Z" fill="black"></path>
<path d="M61.2997 26.2724C61.0181 24.5799 61.1739 23.1337 61.338 21.6027C61.3598 21.4041 61.3817 21.208 61.4009 21.0094C61.7836 17.2747 61.9969 13.1718 59.6865 11.7891C58.3249 10.9733 57.2942 11.3309 56.802 11.617C56.7555 11.6435 56.7118 11.6752 56.6653 11.7044C56.4165 10.2502 56.0009 8.82786 55.3474 7.56176C54.7869 6.47578 53.5101 4.77794 51.2681 5.62024C50.9017 5.75797 50.4424 6.02814 50.0869 6.55259C49.7479 5.89306 49.3624 5.36331 48.9222 4.9554C48.1019 4.19257 47.093 3.83764 45.9283 3.90915L45.8244 3.91975C43.9351 4.24554 43.1559 5.55137 43.5113 7.80809C43.5113 7.80809 43.5113 7.81869 43.514 7.82663C42.5352 7.07439 41.5454 7.09823 40.7908 7.20418C39.9624 7.32072 39.2187 7.78425 38.7484 8.47557C38.3465 9.06889 37.9555 10.1045 38.3902 11.6752C39.5495 15.8576 39.8229 20.6306 39.8366 23.8118C38.0321 21.0624 36.881 20.5141 35.2733 20.4452C34.2726 20.4028 33.2856 20.7551 32.643 21.3882C32.0771 21.9444 31.8064 22.6649 31.8583 23.4674C31.9294 24.5772 32.3505 25.1706 32.8399 25.8539C33.127 26.2565 33.4524 26.7121 33.8269 27.414C34.1578 28.0338 34.3956 28.7808 34.6964 29.729C35.0846 30.9554 35.5686 32.4811 36.49 34.5206C37.2009 36.0966 40.0663 41.0683 47.7656 40.9968C48.0773 40.9941 48.4 40.9835 48.7281 40.9623C53.2722 40.8166 56.6571 39.5294 58.7897 37.1402C61.0044 34.6557 61.852 31.0137 61.3079 26.3095L61.3024 26.2671L61.2997 26.2724ZM51.4321 9.55096C51.3364 8.95235 51.1915 7.53262 51.9243 7.2598C52.4492 7.06115 53.0234 6.98434 53.7288 8.34843C56.236 13.2036 54.7514 20.8717 54.4042 22.0795C53.6195 21.8782 52.7637 21.6954 51.8614 21.5391C51.9106 18.9301 51.8778 16.6469 51.7575 14.671C51.8177 11.8501 51.4485 9.63837 51.4321 9.55096ZM46.0869 5.65997C46.7239 5.63348 47.227 5.81094 47.6672 6.22415C49.3952 7.83193 50.1963 12.8937 50.0514 21.2716C49.1081 21.1551 48.1402 21.073 47.1669 21.0306C46.8661 16.9065 46.3931 14.0935 45.8545 12.1414C45.8545 12.1282 45.8545 12.1149 45.8545 12.1017C45.7205 10.094 45.3158 7.63592 45.2994 7.54057C45.0397 5.8957 45.5346 5.75797 46.0841 5.65997H46.0869ZM59.5088 26.532C59.99 30.717 59.2874 33.9034 57.4199 35.9986C55.6072 38.0302 52.7445 39.0844 48.6433 39.2168C41.3705 39.6618 38.773 35.2013 38.1524 33.824C37.272 31.8745 36.8044 30.4045 36.4298 29.2205C36.1017 28.1875 35.8447 27.3743 35.4401 26.6141C35.0135 25.8116 34.6362 25.2845 34.3327 24.8607C33.8925 24.2435 33.7094 23.9866 33.6683 23.3641C33.6492 23.0622 33.7367 22.8185 33.9363 22.6225C34.2206 22.3417 34.7019 22.1801 35.194 22.204C36.0279 22.2411 36.8154 22.2728 38.8222 25.5705C39.1066 26.0367 39.2488 26.4155 39.4155 26.8525C39.5249 27.1359 39.6452 27.4511 39.812 27.7928C39.8175 27.8034 39.8202 27.814 39.8257 27.8219C39.8995 27.9729 39.9788 28.1265 40.0717 28.2908C40.9494 29.8191 42.3465 30.6667 43.8093 30.5554C44.3069 30.5184 44.6815 30.0946 44.6432 29.6125C44.605 29.1304 44.1702 28.7728 43.6699 28.8046C42.8032 28.8682 42.0622 28.1398 41.6575 27.4352C41.6193 27.369 41.5892 27.3081 41.5564 27.2445C41.7122 25.3851 41.9446 17.7117 40.1456 11.225C39.9378 10.4807 39.9815 9.86616 40.2659 9.44501C40.5311 9.0583 40.9057 8.96559 41.056 8.9444C41.5947 8.86759 41.9884 8.88878 42.404 9.21192C43.4101 9.9986 44.7335 12.6897 45.3514 21.0014C45.0725 21.0041 44.7936 21.012 44.5202 21.0253C44.0199 21.0465 43.6343 21.457 43.6562 21.9418C43.6781 22.4265 44.0937 22.792 44.6022 22.7787C49.2202 22.5721 54.4917 23.6316 56.7227 24.7309C56.8567 24.7971 56.9989 24.8262 57.141 24.8262C57.4691 24.8236 57.7836 24.6488 57.9422 24.3442C58.1691 23.9124 57.9914 23.3827 57.543 23.1628C57.1465 22.9668 56.6708 22.7761 56.1349 22.5907C56.4411 21.5736 56.9633 18.8666 56.9797 15.7675C56.9934 15.6987 56.9989 15.6298 56.9934 15.5583C56.9059 14.2313 57.3188 13.3651 57.7371 13.1215C57.9832 12.9784 58.3195 13.0314 58.7351 13.2804C60.2771 14.2048 59.785 19.0202 59.599 20.8346C59.5799 21.0306 59.558 21.2239 59.5362 21.4199C59.3666 22.9933 59.1917 24.617 59.5088 26.532Z" fill="black"></path>
<path d="M34.1578 9.596C34.0129 9.596 33.8652 9.56951 33.7258 9.50594C33.2145 9.27815 32.9903 8.69278 33.2254 8.19747C33.9855 6.58969 35.0983 5.10639 36.4408 3.90916C36.8536 3.54099 37.4989 3.56483 37.8789 3.96744C38.259 4.3674 38.2344 4.9925 37.8188 5.36067C36.6732 6.38308 35.7244 7.64918 35.0737 9.02123C34.9042 9.37881 34.5405 9.59335 34.1578 9.596Z" fill="black"></path>
<path d="M30.7291 9.02654C30.2014 9.03184 29.7503 8.63983 29.7065 8.12068C29.5124 5.79774 29.5042 3.44301 29.6874 1.12007C29.7312 0.577076 30.2206 0.17182 30.7783 0.211551C31.3388 0.253931 31.7572 0.725406 31.7161 1.2684C31.5412 3.48804 31.5494 5.73946 31.7353 7.9591C31.7818 8.5021 31.3634 8.97887 30.8029 9.02125C30.7783 9.02125 30.7537 9.0239 30.7291 9.0239V9.02654Z" fill="black"></path>
<path d="M27.2239 9.63841C26.7673 9.6437 26.3463 9.3444 26.2287 8.89676C25.7967 7.25454 24.9792 5.69444 23.8664 4.38861C23.5082 3.96746 23.5711 3.34766 24.0031 3.00067C24.4378 2.65369 25.0776 2.71461 25.4358 3.13311C26.7373 4.66408 27.6942 6.48906 28.1973 8.40939C28.3367 8.93649 28.0059 9.47418 27.4618 9.60927C27.3798 9.63046 27.3005 9.63841 27.2185 9.64105L27.2239 9.63841Z" fill="black"></path>
</g>
<defs>
<clipPath id="clip0_12_351">
<rect width="61.6387" height="41.0925" fill="white" transform="translate(0 0.208862)"></rect>
</clipPath>
</defs>
</svg>
