<svg width="349" height="144" viewBox="0 0 349 144" fill="none" xmlns="http://www.w3.org/2000/svg">
<g clip-path="url(#clip0_375_161)">
<path d="M17.5655 115.441C16.6955 114.848 15.6479 115.892 16.3155 116.706C28.3707 131.41 46.1258 141.252 66.2071 142.843C66.3124 142.852 66.4131 142.861 66.5187 142.866C66.9357 142.898 67.3572 142.921 67.7788 142.944C68.1639 142.967 68.5441 142.985 68.9292 142.999C69.2179 143.013 69.5112 143.022 69.8045 143.031C70.5193 143.049 71.2388 143.068 71.9628 143.068C72.6868 143.068 73.402 143.054 74.1214 143.031C74.4147 143.022 74.7034 143.008 74.9966 142.999C75.3818 142.985 75.7666 142.962 76.1468 142.944C76.5687 142.921 76.9856 142.893 77.4072 142.866C77.5125 142.857 77.6135 142.848 77.7188 142.843C97.801 141.252 115.557 131.412 127.612 116.705C128.28 115.89 127.232 114.847 126.362 115.439C111.529 125.544 92.5936 131.606 71.9674 131.606C51.3424 131.606 32.4 125.545 17.5655 115.441Z" fill="#1D1C1C"/>
<path d="M19.5682 40.7909C29.883 22.9151 44.5936 9.53467 60.7557 1.73039C61.7035 1.27269 61.3239 -0.157243 60.2855 0.0141865C41.5313 3.11034 24.1387 13.5782 12.7215 30.1872C12.662 30.2743 12.6024 30.3569 12.5428 30.444C12.3045 30.7927 12.0754 31.1411 11.8462 31.4943C11.6354 31.8154 11.4292 32.1411 11.223 32.4665C11.0672 32.7143 10.9113 32.9573 10.7555 33.2052C10.3797 33.8149 10.0086 34.4295 9.64651 35.0579C9.28447 35.6817 8.94077 36.3147 8.59703 36.9431C8.45958 37.1998 8.32209 37.4565 8.18919 37.7182C8.01047 38.0574 7.83631 38.4014 7.66217 38.7455C7.47426 39.1214 7.28179 39.4977 7.10307 39.8782C7.05724 39.9701 7.016 40.0663 6.97017 40.1579C-1.69417 58.358 -2.05699 78.6687 4.63864 96.469C5.00941 97.4546 6.43639 97.0689 6.3586 96.0186C5.03224 78.1102 9.25325 58.6711 19.5682 40.7909Z" fill="#1D1C1C"/>
<path d="M136.947 40.1579C136.901 40.0663 136.859 39.9701 136.814 39.8782C136.63 39.5023 136.442 39.1214 136.254 38.7455C136.081 38.4014 135.906 38.062 135.728 37.7182C135.595 37.4612 135.457 37.1998 135.32 36.9431C134.981 36.3101 134.632 35.6817 134.27 35.0579C133.908 34.4341 133.537 33.8149 133.161 33.2052C133.01 32.9573 132.85 32.7098 132.694 32.4665C132.487 32.1411 132.281 31.82 132.07 31.4943C131.841 31.1411 131.608 30.7881 131.374 30.444C131.314 30.3569 131.255 30.2743 131.195 30.1872C119.778 13.5786 102.382 3.11088 83.6317 0.0144383C82.5932 -0.157037 82.2136 1.27286 83.1614 1.73057C99.3232 9.53487 114.033 22.9152 124.344 40.7909C134.659 58.6711 138.88 78.1102 137.554 96.0186C137.476 97.0689 138.903 97.4546 139.274 96.469C145.97 78.6687 145.611 58.358 136.947 40.1579Z" fill="#1D1C1C"/>
<path d="M193.464 74.2362C193.464 70.8437 194.057 67.6797 195.245 64.7442C196.499 61.8084 198.182 59.2642 200.293 57.1113C202.471 54.9583 205.011 53.295 207.915 52.1206C210.884 50.881 214.084 50.2615 217.516 50.2615C220.947 50.2615 224.114 50.881 227.018 52.1206C229.987 53.295 232.527 54.9583 234.639 57.1113C236.817 59.2642 238.499 61.8084 239.687 64.7442C240.941 67.6797 241.568 70.8437 241.568 74.2362C241.568 77.6938 240.941 80.8903 239.687 83.826C238.499 86.6965 236.817 89.208 234.639 91.3609C232.527 93.5139 229.987 95.21 227.018 96.4493C224.114 97.6237 220.947 98.2107 217.516 98.2107C214.084 98.2107 210.884 97.6237 207.915 96.4493C205.011 95.21 202.471 93.5139 200.293 91.3609C198.182 89.208 196.499 86.6965 195.245 83.826C194.057 80.8903 193.464 77.6938 193.464 74.2362ZM202.867 74.2362C202.867 76.3236 203.23 78.3133 203.956 80.2052C204.681 82.0319 205.671 83.6303 206.925 85.0004C208.245 86.3702 209.795 87.4466 211.577 88.2297C213.358 89.0125 215.338 89.4037 217.516 89.4037C219.693 89.4037 221.673 89.0125 223.454 88.2297C225.236 87.4466 226.754 86.3702 228.008 85.0004C229.327 83.6303 230.35 82.0319 231.076 80.2052C231.802 78.3133 232.165 76.3236 232.165 74.2362C232.165 72.1486 231.802 70.1914 231.076 68.3647C230.35 66.4728 229.327 64.8419 228.008 63.4718C226.754 62.1019 225.236 61.0256 223.454 60.2425C221.673 59.4597 219.693 59.0685 217.516 59.0685C215.338 59.0685 213.358 59.4597 211.577 60.2425C209.795 61.0256 208.245 62.1019 206.925 63.4718C205.671 64.8419 204.681 66.4728 203.956 68.3647C203.23 70.1914 202.867 72.1486 202.867 74.2362Z" fill="#1D1C1C"/>
<path d="M274.149 59.4597C273.159 59.199 271.938 59.0685 270.487 59.0685C268.045 59.0685 265.669 59.8185 263.36 61.3191C261.05 62.7542 259.236 64.5809 257.916 66.7991V97.2324H248.513V51.2398H257.619V56.5242C258.741 54.9583 260.49 53.5232 262.865 52.2183C265.241 50.9138 268.144 50.2615 271.575 50.2615C272.103 50.2615 272.697 50.294 273.357 50.3592C274.083 50.3592 274.709 50.4245 275.238 50.555L274.149 59.4597Z" fill="#1D1C1C"/>
<path d="M289.764 97.2325H280.658V27.7545H290.061V55.2522C292.173 53.5558 294.449 52.3165 296.891 51.5337C299.332 50.6856 301.807 50.2616 304.314 50.2616C306.492 50.2616 308.537 50.5223 310.451 51.0444C312.364 51.5661 314.112 52.2837 315.698 53.197C319.259 55.2847 322.13 58.1552 324.307 61.8085C326.551 65.4618 327.674 69.6044 327.674 74.2363C327.674 78.8679 326.584 83.0105 324.408 86.6638C322.228 90.2519 319.36 93.0899 315.796 95.1773C314.213 96.0906 312.398 96.8085 310.353 97.3303C308.308 97.9173 306.229 98.2108 304.116 98.2108C298.441 98.2108 293.658 96.4822 289.764 93.0247V97.2325ZM290.061 82.8475C291.645 84.9352 293.558 86.5661 295.802 87.7405C298.112 88.8493 300.454 89.4038 302.83 89.4038C305.073 89.4038 307.12 89.0126 308.966 88.2298C310.879 87.3814 312.53 86.2726 313.916 84.9024C315.3 83.5326 316.356 81.9342 317.082 80.1076C317.875 78.2809 318.27 76.3237 318.27 74.2363C318.27 72.2139 317.908 70.2892 317.183 68.4625C316.454 66.6359 315.432 65.0378 314.112 63.6677C312.86 62.2326 311.308 61.1235 309.462 60.3406C307.613 59.4926 305.568 59.0685 303.325 59.0685C300.487 59.0685 297.913 59.6884 295.604 60.9277C293.361 62.1673 291.513 63.7329 290.061 65.6248V82.8475Z" fill="#1D1C1C"/>
<path d="M335.144 91.361C335.144 89.4691 335.802 87.8707 337.122 86.5661C338.509 85.196 340.159 84.5112 342.072 84.5112C343.985 84.5112 345.602 85.196 346.921 86.5661C348.308 87.8707 349 89.4691 349 91.361C349 93.253 348.308 94.8838 346.921 96.254C345.602 97.5586 343.985 98.2108 342.072 98.2108C340.159 98.2108 338.509 97.5586 337.122 96.254C335.802 94.8838 335.144 93.253 335.144 91.361Z" fill="#1D1C1C"/>
</g>
<defs>
<clipPath id="clip0_375_161">
<rect width="349" height="144" fill="white"/>
</clipPath>
</defs>
</svg>
