<svg width="198" height="36" viewBox="0 0 198 36" fill="none" xmlns="http://www.w3.org/2000/svg">
<g clip-path="url(#clip0_926_4236)">
<path d="M64.5162 20.2637C68.4432 19.0877 71.3062 15.4577 71.3082 11.1477C71.3062 5.88774 67.0462 1.62774 61.7862 1.62574H45.3832V34.2717H50.8252V20.6697H58.4032L66.6122 34.2717H72.9582L64.5162 20.2637ZM50.8252 15.2267V7.06474H61.7862C64.0382 7.06874 65.8632 8.89274 65.8662 11.1477C65.8632 13.3977 64.0382 15.2227 61.7862 15.2267H50.8252ZM41.5275 5.09924C41.5275 7.31224 39.7345 9.10724 37.5225 9.10724C35.3105 9.10724 33.5165 7.31224 33.5165 5.09924C33.5165 2.88724 35.3105 1.09424 37.5225 1.09424C39.7345 1.09424 41.5275 2.88724 41.5275 5.09924ZM0.000488281 18.0992C0.00148828 8.70724 7.61149 1.09624 17.0045 1.09424C26.3965 1.09624 34.0055 8.70724 34.0075 18.0992C34.0055 27.4892 26.3965 35.1002 17.0045 35.1022C7.61149 35.1002 0.00148828 27.4892 0.000488281 18.0992ZM8.82749 9.92024C6.73149 12.0242 5.44249 14.8962 5.44149 18.0992C5.44249 21.2992 6.73149 24.1732 8.82749 26.2732C10.9285 28.3702 13.8025 29.6592 17.0045 29.6612C20.2055 29.6592 23.0775 28.3702 25.1795 26.2732C27.2765 24.1732 28.5655 21.2992 28.5655 18.0992C28.5655 14.8962 27.2765 12.0242 25.1795 9.92024C23.0775 7.82624 20.2055 6.53824 17.0045 6.53624C13.8025 6.53824 10.9285 7.82624 8.82749 9.92024Z" fill="#D30000"/>
<path d="M187.27 1.625H180.658L172.284 13.745L163.909 1.625H157.297L169.556 19.375V34.271H175V19.388L187.27 1.625Z" fill="#D30000"/>
<path d="M193.708 0.897461C191.484 0.897461 189.68 2.70046 189.68 4.92346C189.68 7.14646 191.484 8.94946 193.708 8.94946C195.929 8.94946 197.734 7.14646 197.734 4.92346C197.734 2.70046 195.929 0.897461 193.708 0.897461ZM193.708 8.30546C191.841 8.30546 190.326 6.79046 190.326 4.92346C190.326 3.05546 191.841 1.54046 193.708 1.54046C195.572 1.54046 197.088 3.05546 197.088 4.92346C197.088 6.79046 195.572 8.30546 193.708 8.30546Z" fill="#D30000"/>
<path d="M195.513 4.03804C195.513 3.37704 194.98 2.84204 194.318 2.84204H192.052V6.94504H192.733V5.23604H193.882L194.705 6.94504H195.466L194.624 5.19704C195.137 5.06204 195.513 4.59504 195.513 4.03804ZM192.733 3.52604H194.318C194.603 3.52604 194.829 3.75504 194.829 4.03804C194.829 4.32204 194.603 4.55204 194.318 4.55204H192.733V3.52604Z" fill="#D30000"/>
<path d="M99.4621 7.064V1.625H76.7661V34.271H99.4621V28.829H82.2051V20.668H98.6311V15.226H82.2051V7.064H99.4621Z" fill="#D30000"/>
<path d="M116.303 34.271V1.625H121.744V28.829H137.44V34.271H116.303Z" fill="#D30000"/>
<path d="M141.875 34.271V1.625H147.318V28.829H163.013V34.271H141.875Z" fill="#D30000"/>
<path d="M105.172 34.271H110.612V1.625H105.172V34.271Z" fill="#D30000"/>
</g>
<defs>
<clipPath id="clip0_926_4236">
<rect width="198" height="36" fill="white"/>
</clipPath>
</defs>
</svg>
