<svg width="893" height="336" viewBox="0 0 893 336" fill="none" xmlns="http://www.w3.org/2000/svg">
    <path
        d="M880.211 24.407C876.685 24.407 873.838 23.322 871.668 21.153C869.499 18.712 868.414 15.729 868.414 12.203C868.414 8.678 869.499 5.83101 871.668 3.66101C873.838 1.22001 876.685 0 880.211 0C883.736 0 886.719 1.22001 889.16 3.66101C891.6 5.83101 892.821 8.678 892.821 12.203C892.821 15.729 891.6 18.712 889.16 21.153C886.719 23.322 883.736 24.407 880.211 24.407ZM870.855 249.356V45.966H889.567V249.356H870.855Z"
        fill="#24059D" />
    <path
        d="M809.137 249.355V202.575C798.832 219.389 786.629 231.728 772.527 239.592C758.697 247.456 742.832 251.389 724.934 251.389C710.832 251.389 697.544 248.812 685.07 243.66C672.866 238.507 662.019 231.185 652.527 221.694C643.036 212.473 635.578 201.626 630.155 189.151C625.002 176.406 622.426 163.118 622.426 149.287C622.426 135.457 625.002 122.304 630.155 109.83C635.578 97.0838 643.036 85.9648 652.527 76.4738C662.019 66.9818 672.866 59.6598 685.07 54.5078C697.544 49.3548 710.832 46.7788 724.934 46.7788C744.459 46.7788 761.273 50.5748 775.375 58.1688C789.748 65.7618 801.002 77.0158 809.137 91.9308V51.6598H827.849V249.355H809.137ZM724.934 65.0838C713.544 65.0838 702.561 67.2528 691.985 71.5918C681.68 75.9308 672.731 81.8968 665.138 89.4908C657.544 97.0838 651.578 106.169 647.239 116.745C642.9 127.05 640.731 137.897 640.731 149.287C640.731 160.677 642.9 171.524 647.239 181.829C651.578 192.134 657.544 201.084 665.138 208.677C672.731 216.27 681.68 222.236 691.985 226.575C702.561 230.914 713.544 233.084 724.934 233.084C736.053 233.084 746.765 230.914 757.07 226.575C767.375 222.236 776.324 216.27 783.917 208.677C791.51 201.084 797.476 192.134 801.815 181.829C806.426 171.524 808.731 160.677 808.731 149.287C808.731 137.897 806.561 127.05 802.222 116.745C797.883 106.169 791.917 97.0838 784.324 89.4908C776.731 81.8968 767.782 75.9308 757.476 71.5918C747.171 67.2528 736.324 65.0838 724.934 65.0838Z"
        fill="#24059D" />
    <path
        d="M609.867 249.761C606.613 249.761 603.765 248.541 601.325 246.1C599.155 243.66 598.07 240.812 598.07 237.558C598.07 234.033 599.155 231.185 601.325 229.016C603.765 226.575 606.613 225.355 609.867 225.355C613.392 225.355 616.375 226.575 618.816 229.016C621.257 231.185 622.477 234.033 622.477 237.558C622.477 240.812 621.257 243.66 618.816 246.1C616.375 248.541 613.392 249.761 609.867 249.761Z"
        fill="#24059D" />
    <path
        d="M533.501 336V222.102C525.366 231.593 515.196 239.187 502.993 244.882C491.061 250.305 478.993 253.017 466.79 253.017C452.959 253.017 439.671 250.305 426.925 244.882C414.451 239.458 403.603 232 394.383 222.509C384.891 212.746 377.434 201.627 372.01 189.153C366.857 176.678 364.281 163.39 364.281 149.288C364.281 135.187 366.857 121.899 372.01 109.424C377.434 96.6778 384.891 85.4238 394.383 75.6618C403.603 65.8988 414.451 58.4408 426.925 53.2888C439.671 47.8648 452.959 45.1528 466.79 45.1528C479.535 45.1528 491.739 48.2718 503.4 54.5088C515.061 60.4748 525.094 68.6108 533.501 78.9158V50.8478H569.705V336H533.501ZM466.79 82.1698C457.84 82.1698 449.298 83.9328 441.162 87.4578C433.027 90.7118 425.976 95.4578 420.01 101.695C414.044 107.933 409.298 115.255 405.773 123.661C402.518 131.797 400.891 140.339 400.891 149.288C400.891 158.238 402.518 166.78 405.773 174.916C409.298 183.051 414.044 190.238 420.01 196.475C425.976 202.712 433.027 207.593 441.162 211.119C449.298 214.644 457.84 216.407 466.79 216.407C475.739 216.407 484.281 214.644 492.417 211.119C500.552 207.593 507.603 202.712 513.569 196.475C519.535 190.238 524.281 183.051 527.806 174.916C531.332 166.78 533.094 158.238 533.094 149.288C533.094 140.339 531.332 131.797 527.806 123.661C524.281 115.255 519.535 107.933 513.569 101.695C507.603 95.4578 500.552 90.7118 492.417 87.4578C484.281 83.9328 475.739 82.1698 466.79 82.1698Z"
        fill="#24059D" />
    <path
        d="M334.333 85.0159C327.824 82.0329 321.994 80.5419 316.841 80.5419C305.994 80.5419 297.045 84.3379 289.994 91.9319C282.401 100.067 278.604 109.423 278.604 119.999V249.355H243.621V119.999C243.621 105.355 247.282 91.9319 254.604 79.7279C262.197 67.5249 272.502 58.0329 285.519 51.2539C295.282 46.6429 305.723 44.3379 316.841 44.3379C325.79 44.3379 334.333 45.9649 342.468 49.2199C350.604 52.4739 359.146 57.7619 368.095 65.0839L334.333 85.0159Z"
        fill="#24059D" />
    <path
        d="M103.321 250.972C89.4913 250.972 76.3383 248.26 63.8643 242.837C51.3892 237.413 40.4063 229.955 30.9153 220.464C21.4233 210.972 13.9663 199.989 8.54225 187.515C3.11825 175.04 0.40625 161.888 0.40625 148.057C0.40625 133.956 3.11825 120.532 8.54225 107.786C13.9663 95.0401 21.4233 83.9221 30.9153 74.4301C40.4063 64.9391 51.3892 57.6171 63.8643 52.4641C76.3383 47.0401 89.4913 44.3291 103.321 44.3291C117.423 44.3291 130.847 47.0401 143.592 52.4641C156.338 57.6171 167.457 64.9391 176.948 74.4301C186.44 83.9221 193.762 95.0401 198.914 107.786C204.338 120.532 207.05 133.956 207.05 148.057C207.05 161.888 204.338 175.04 198.914 187.515C193.762 199.989 186.44 210.972 176.948 220.464C167.457 229.955 156.338 237.413 143.592 242.837C130.847 248.26 117.423 250.972 103.321 250.972ZM103.321 80.5321C85.1523 80.5321 69.5593 87.0401 56.5423 100.057C50.3043 106.295 45.4232 113.617 41.8982 122.023C38.3722 130.43 36.6103 139.108 36.6103 148.057C36.6103 157.006 38.3722 165.549 41.8982 173.684C45.4232 181.82 50.3043 189.006 56.5423 195.244C62.7793 201.481 69.8303 206.362 77.6943 209.888C85.8303 213.413 94.3723 215.176 103.321 215.176C112.27 215.176 120.948 213.413 129.355 209.888C137.762 206.362 144.948 201.481 150.914 195.244C156.881 189.006 161.626 181.82 165.152 173.684C168.677 165.549 170.44 157.006 170.44 148.057C170.44 139.108 168.677 130.43 165.152 122.023C161.626 113.617 156.881 106.295 150.914 100.057C144.948 93.8201 137.762 89.0741 129.355 85.8201C121.22 82.2951 112.542 80.5321 103.321 80.5321Z"
        fill="#24059D" />
</svg>
    