<svg width="167" height="34" viewBox="0 0 167 34" fill="none" xmlns="http://www.w3.org/2000/svg">
<path d="M38.08 7.94373H46.6109C52.7772 7.94373 54.3536 11.5755 54.3536 14.5274C54.3536 17.4792 52.7618 21.111 46.6109 21.111H41.3409V31.4964H38.08V7.94373ZM41.3563 18.3292H45.6681C48.2645 18.3292 50.8454 17.7419 50.8454 14.5428C50.8454 11.3437 48.249 10.7565 45.6681 10.7565H41.3563V18.3292Z" fill="#111111"/>
<path d="M58.6345 7.83545C59.8708 7.83545 60.8754 8.80909 60.8908 9.99909C60.9063 11.2045 59.9326 12.1936 58.6963 12.2245C57.4599 12.2554 56.4399 11.3127 56.3935 10.1073C56.3781 9.50454 56.6099 8.93272 57.0272 8.49999C57.429 8.08272 58.0163 7.83545 58.6345 7.83545ZM57.1199 15.7327H60.149V31.5118H57.1199V15.7327Z" fill="#111111"/>
<path d="M63.6727 15.7328H66.7482V18.1746H66.8255C67.8918 16.32 69.9627 15.2073 72.1418 15.3464C75.2791 15.3464 77.9836 17.1855 77.9836 21.3737V31.5273H74.9545V22.2237C74.9545 19.2564 73.2082 18.1591 71.2609 18.1591C68.7109 18.1591 66.7636 19.7509 66.7636 23.4137V31.5273H63.6727V15.7328Z" fill="#111111"/>
<path d="M83.5935 24.7273C83.5935 27.4782 86.2208 29.2864 89.049 29.2864C90.8263 29.2401 92.4799 28.3592 93.4844 26.9373L95.8181 28.6682C94.1181 30.8473 91.429 32.0682 88.6317 31.9292C83.5008 31.9292 80.3172 28.3437 80.3172 23.6455C80.2244 21.451 81.0744 19.3182 82.6508 17.7573C84.2272 16.1964 86.3908 15.331 88.6472 15.3619C94.3499 15.3619 96.529 19.6119 96.529 23.6764V24.7428H83.5935V24.7273ZM93.299 22.3319C93.2217 19.7046 91.7226 17.7728 88.6317 17.7728C85.989 17.7573 83.779 19.751 83.609 22.3319H93.299Z" fill="#111111"/>
<path d="M110.438 19.9364C109.434 18.7774 107.965 18.1283 106.405 18.1746C103.066 18.1746 101.351 20.8019 101.351 23.7692C101.274 25.1755 101.784 26.5355 102.773 27.5555C103.762 28.5755 105.137 29.1474 106.575 29.1319C108.089 29.1783 109.542 28.5292 110.5 27.3701L112.679 29.4719C111.087 31.1101 108.846 31.991 106.544 31.8983C104.272 32.0064 102.062 31.1874 100.455 29.611C98.8473 28.0501 97.9818 25.8864 98.09 23.6764C97.9818 21.451 98.8473 19.2874 100.455 17.711C102.062 16.1346 104.272 15.2846 106.559 15.3619C108.893 15.3001 111.149 16.2119 112.772 17.8501L110.438 19.9364Z" fill="#111111"/>
<path d="M121.766 15.3309C126.434 15.4082 130.174 19.1482 130.127 23.7073C130.081 28.2663 126.264 31.9291 121.581 31.8982C116.914 31.8673 113.127 28.1736 113.127 23.6145C113.127 21.3891 114.039 19.2718 115.662 17.7109C117.3 16.15 119.494 15.3 121.766 15.3309ZM121.766 29.1163C125.027 29.1163 127.083 26.8445 127.083 23.6145C127.083 20.4 125.027 18.1282 121.766 18.1282C118.505 18.1282 116.434 20.4 116.434 23.6145C116.434 26.8291 118.49 29.1163 121.766 29.1163Z" fill="#111111"/>
<path d="M132.863 15.7328H135.938V18.1746C137.004 16.3046 139.091 15.2073 141.27 15.3464C144.407 15.3464 147.112 17.1855 147.112 21.3737V31.5273H144.036V22.2237C144.036 19.2564 142.29 18.1591 140.358 18.1591C137.793 18.1591 135.861 19.751 135.861 23.4137V31.5273H132.878V15.7328H132.863Z" fill="#111111"/>
<path d="M152.815 24.7273C152.815 27.4782 155.442 29.2864 158.27 29.2864C160.047 29.2246 161.701 28.3592 162.705 26.9373L165.039 28.6682C163.339 30.8319 160.665 32.0373 157.868 31.8828C152.753 31.8828 149.554 28.2973 149.554 23.5992C149.461 21.4046 150.311 19.2564 151.887 17.6955C153.464 16.1192 155.643 15.2692 157.899 15.3155C163.602 15.3155 165.781 19.5655 165.781 23.6301V24.6964L152.815 24.7273ZM162.505 22.3164C162.427 19.6892 160.944 17.7573 157.837 17.7573C155.195 17.7419 152.985 19.7355 152.815 22.3164H162.505Z" fill="#111111"/>
<path fill-rule="evenodd" clip-rule="evenodd" d="M19.6272 0.989128C19.3027 0.602764 18.7618 0.510037 18.329 0.75731L17.9272 0.973674L13.5536 3.46186L14.5736 5.25458L17.4172 3.63186L16.7218 7.43367L18.7463 7.80458L19.4572 3.98731L21.559 6.49095L23.1354 5.16186L19.9518 1.36004H19.9363L19.6272 0.989128ZM13.4918 33.0573C14.5427 33.0573 15.3927 32.2228 15.3927 31.2028C15.3927 30.1828 14.5427 29.3482 13.4918 29.3482C12.4409 29.3482 11.5909 30.1828 11.5909 31.2028C11.5754 32.2228 12.4409 33.0573 13.4918 33.0573ZM16.0418 22.8728L15.3618 26.69L13.3218 26.3191L14.0018 22.5173L11.1581 24.1555L10.1227 22.3628L14.4654 19.8746L14.8672 19.6428C15.3 19.3955 15.8409 19.4882 16.1654 19.8746L16.4745 20.2455L19.7045 24.0319L18.1281 25.3764L16.0418 22.8728ZM17.6954 13.7546L17.0154 17.5719L14.9754 17.2009L15.6554 13.4146L12.8272 15.0373L11.8072 13.2446L16.1345 10.7719V10.7409H16.1654L16.5672 10.5091C17 10.2619 17.5409 10.3546 17.8654 10.7409L18.1745 11.0964L21.389 14.8982L19.8127 16.2428L17.6954 13.7546ZM4.35814 28.8382H4.34268L3.92541 28.7146C3.47723 28.5909 3.18359 28.1582 3.2145 27.6946L3.58541 22.5328L5.54814 22.6719L5.31632 25.8091L8.36086 23.7382L9.45814 25.3609L6.47541 27.3855L9.51996 28.2664L8.97905 30.1519L4.35814 28.8382ZM24.5572 30.9709L24.4181 31.4191C24.279 31.8519 23.8772 32.1455 23.4136 32.1146L22.9809 32.0837L22.95 32.0991L22.9345 32.0837L18.1436 31.7591L18.2672 29.7964L21.4509 30.0128L19.3645 27.0919L20.9563 25.9482L23.089 28.9464L24.0163 25.9173L25.8863 26.4891L24.5572 30.9709ZM30.1827 20.3382L30.4145 20.7555C30.6463 21.1728 30.5536 21.6982 30.1827 22.0073L29.8427 22.3009V22.3164H29.8272L26.1027 25.4691L24.8045 23.9391L27.2463 21.8682L23.5836 21.2191L23.939 19.2409L27.6327 19.89L26.0872 17.1082L27.8336 16.1346L30.1827 20.3382ZM26.3963 11.7146L23.089 13.4919L22.1309 11.73L25.3918 9.98367L22.409 8.76277L23.1663 6.90822L27.71 8.74731L27.7254 8.73186L27.7409 8.76277L28.1581 8.93277C28.6063 9.11822 28.8536 9.58186 28.7763 10.0455L28.699 10.5091L27.849 15.2228L25.8709 14.8673L26.3963 11.7146ZM4.20359 15.8564L7.88177 16.4746L7.54177 18.4528L3.83268 17.8191L5.40905 20.6009L3.66268 21.59L1.28268 17.4019L1.05086 17C0.819047 16.5828 0.911774 16.0573 1.26723 15.7482L1.60723 15.4546V15.4391H1.62268L5.30086 12.2709L6.6145 13.8009L4.20359 15.8564ZM9.75177 7.29458L12.1936 10.0146L10.6945 11.3591L8.19087 8.57731L7.61905 11.7455L5.64086 11.39L6.50632 6.69186L6.59905 6.21277C6.67632 5.74913 7.07814 5.40913 7.54177 5.39367L7.9745 5.37822L7.98996 5.36276L8.00541 5.37822L12.92 5.17731L12.9972 7.1864L9.75177 7.29458Z" fill="#111111"/>
</svg>
