<svg width="574" height="101" viewBox="0 0 574 101" fill="none" xmlns="http://www.w3.org/2000/svg">
<g clip-path="url(#clip0_2200_288)">
<path fill-rule="evenodd" clip-rule="evenodd" d="M51.2136 45.2574L161.275 45.0298C167.322 45.0173 172.234 49.9072 172.247 55.9518C172.247 55.979 172.247 56.0063 172.247 56.0335C172.214 62.1366 167.262 67.0702 161.156 67.0829L51.0945 67.3105C45.0473 67.323 40.135 62.4331 40.1225 56.3885C40.1224 56.3613 40.1224 56.334 40.1226 56.3068C40.1556 50.2037 45.1078 45.2701 51.2136 45.2574Z" fill="#F78EB6"/>
<path fill-rule="evenodd" clip-rule="evenodd" d="M11.1285 13.3575L96.7487 13.1403C102.799 13.1249 107.716 18.0151 107.732 24.0628C107.732 24.0881 107.732 24.1135 107.732 24.1388C107.705 30.2409 102.756 35.1778 96.6516 35.1933L11.0314 35.4106C4.98107 35.4259 0.0638579 30.5358 0.0484972 24.4881C0.0484329 24.4627 0.0484565 24.4374 0.0485681 24.4121C0.0754428 18.3099 5.0237 13.373 11.1285 13.3575Z" fill="#5DDADB"/>
<path fill-rule="evenodd" clip-rule="evenodd" d="M28.501 77.8558L114.121 77.6385C120.171 77.6232 125.089 82.5134 125.104 88.561C125.104 88.5864 125.104 88.6117 125.104 88.6371C125.077 94.7392 120.129 99.6761 114.024 99.6916L28.4038 99.9089C22.3535 99.9242 17.4363 95.034 17.4209 88.9863C17.4209 88.961 17.4209 88.9357 17.421 88.9103C17.4479 82.8082 22.3961 77.8713 28.501 77.8558Z" fill="#3437A2"/>
<path fill-rule="evenodd" clip-rule="evenodd" d="M122.766 13.3358L161.275 13.162C167.325 13.1347 172.252 18.0149 172.279 24.0623C172.279 24.0878 172.279 24.1133 172.279 24.1388C172.264 30.241 167.325 35.1875 161.22 35.2151L122.711 35.3888C116.661 35.4161 111.735 30.5359 111.707 24.4886C111.707 24.4631 111.707 24.4376 111.707 24.4121C111.722 18.3099 116.661 13.3633 122.766 13.3358Z" fill="#3437A2"/>
<path fill-rule="evenodd" clip-rule="evenodd" d="M140.832 77.8151L162.693 77.6791C168.737 77.6415 173.667 82.5083 173.705 88.5493C173.705 88.5785 173.705 88.6078 173.705 88.637C173.694 94.7411 168.76 99.6942 162.654 99.7322L140.793 99.8682C134.749 99.9058 129.819 95.0391 129.782 88.998C129.781 88.9688 129.781 88.9395 129.781 88.9103C129.792 82.8063 134.726 77.8531 140.832 77.8151Z" fill="#5DDADB"/>
<path d="M215.489 99.6533V75.0944C218.893 78.4256 223.821 80.0912 230.274 80.0912C235.379 80.0912 240.077 78.8686 244.367 76.4233C248.657 73.9781 252.06 70.4696 254.577 65.8981C257.095 61.3265 258.353 56.0284 258.353 50.0039C258.353 43.9793 257.095 38.6635 254.577 34.0565C252.06 29.4495 248.657 25.9233 244.367 23.4781C240.077 21.0328 235.379 19.8102 230.274 19.8102C223.112 19.8102 217.794 21.7593 214.319 25.6575V20.8733H191.452V99.6533H215.489ZM224.53 61.3796C221.765 61.3796 219.496 60.3874 217.723 58.4028C215.95 56.4182 215.064 53.6186 215.064 50.0039C215.064 46.3891 215.95 43.5718 217.723 41.5518C219.496 39.5318 221.765 38.5218 224.53 38.5218C227.296 38.5218 229.565 39.5318 231.337 41.5518C233.11 43.5718 233.996 46.3891 233.996 50.0039C233.996 53.6186 233.11 56.4182 231.337 58.4028C229.565 60.3874 227.296 61.3796 224.53 61.3796ZM286.423 80.0912C289.898 80.0912 293.337 79.5951 296.74 78.6028L295.783 60.8481C295.287 61.1316 294.631 61.3796 293.815 61.5923C293 61.8049 292.202 61.9112 291.422 61.9112C289.72 61.9112 288.409 61.4328 287.487 60.476C286.565 59.5191 286.104 58.1193 286.104 56.2765V0.141754H262.066V57.5523C262.066 64.8526 264.211 70.4342 268.501 74.297C272.791 78.1598 278.765 80.0912 286.423 80.0912ZM323.215 80.0912C330.376 80.0912 335.695 78.1421 339.169 74.2439V79.0281H362.037V20.8733H337.999V24.807C334.595 21.4758 329.667 19.8102 323.215 19.8102C318.109 19.8102 313.412 21.0328 309.122 23.4781C304.832 25.9233 301.428 29.4318 298.911 34.0033C296.394 38.5749 295.135 43.873 295.135 49.8975C295.135 55.9221 296.394 61.2379 298.911 65.8449C301.428 70.4519 304.832 73.9781 309.122 76.4233C313.412 78.8686 318.109 80.0912 323.215 80.0912ZM328.958 61.3796C326.193 61.3796 323.924 60.3697 322.151 58.3497C320.378 56.3297 319.492 53.5123 319.492 49.8975C319.492 46.2828 320.378 43.4832 322.151 41.4986C323.924 39.514 326.193 38.5218 328.958 38.5218C331.724 38.5218 333.993 39.514 335.765 41.4986C337.538 43.4832 338.425 46.2828 338.425 49.8975C338.425 53.5123 337.538 56.3297 335.765 58.3497C333.993 60.3697 331.724 61.3796 328.958 61.3796ZM392.872 79.0281V51.7049C392.872 47.6649 393.705 44.7058 395.372 42.8275C397.038 40.9493 399.218 40.0102 401.913 40.0102C406.664 40.0102 409.039 43.3414 409.039 50.0039V79.0281H433.077V45.8575C433.077 37.1396 430.897 30.6189 426.536 26.2954C422.175 21.9719 416.414 19.8102 409.252 19.8102C405.777 19.8102 402.551 20.3772 399.573 21.5112C396.595 22.6453 393.971 24.3463 391.702 26.6144V20.8733H368.834V79.0281H392.872ZM478.484 80.0912C483.589 80.0912 488.287 78.8686 492.577 76.4233C496.867 73.9781 500.27 70.4519 502.788 65.8449C505.305 61.2379 506.564 55.9221 506.564 49.8975C506.564 43.873 505.305 38.5749 502.788 34.0033C500.27 29.4318 496.867 25.9233 492.577 23.4781C488.287 21.0328 483.589 19.8102 478.484 19.8102C472.031 19.8102 467.103 21.4758 463.7 24.807V0.141754H439.662V79.0281H462.53V74.2439C466.004 78.1421 471.322 80.0912 478.484 80.0912ZM472.74 61.3796C469.975 61.3796 467.706 60.3697 465.933 58.3497C464.161 56.3297 463.274 53.5123 463.274 49.8975C463.274 46.2828 464.161 43.4832 465.933 41.4986C467.706 39.514 469.975 38.5218 472.74 38.5218C475.506 38.5218 477.775 39.514 479.548 41.4986C481.32 43.4832 482.207 46.2828 482.207 49.8975C482.207 53.5123 481.32 56.3297 479.548 58.3497C477.775 60.3697 475.506 61.3796 472.74 61.3796ZM538.675 100.716C549.879 100.716 558.547 97.9346 564.681 92.3707C570.814 86.8068 573.881 78.4965 573.881 67.4396V20.8733H549.843V43.9439C549.843 47.9839 549.063 50.943 547.503 52.8212C545.943 54.6995 543.993 55.6386 541.653 55.6386C539.172 55.6386 537.293 54.7881 536.016 53.087C534.74 51.386 534.102 48.5509 534.102 44.5818V20.8733H510.064V48.7281C510.064 57.8004 512.297 64.5868 516.765 69.0876C521.232 73.5883 527.153 75.8386 534.527 75.8386C540.554 75.8386 545.66 73.9958 549.843 70.3102V70.7354C549.843 74.7046 548.762 77.7168 546.599 79.7723C544.436 81.8277 540.98 82.8554 536.229 82.8554C533.109 82.8554 529.829 82.3239 526.39 81.2607C522.951 80.1975 520.097 78.8154 517.828 77.1144L509.745 93.487C513.29 95.826 517.562 97.6156 522.561 98.856C527.56 100.096 532.932 100.716 538.675 100.716Z" fill="#3437A2"/>
</g>
<defs>
<clipPath id="clip0_2200_288">
<rect width="574" height="101" fill="white"/>
</clipPath>
</defs>
</svg>
