<svg width="113" height="36" viewBox="0 0 113 36" fill="none" xmlns="http://www.w3.org/2000/svg">
<g clip-path="url(#clip0_2060_556)">
<path d="M100.636 9.27077C107.632 9.27077 112.201 12.1273 112.201 18.8875C112.201 24.6428 107.839 28.0236 100.925 28.0236C93.0225 28.0236 90.7169 23.9995 90.7169 16.0309V2.02538H96.0668V14.8226C96.0668 20.0144 96.6851 22.4296 101.09 22.4296C104.176 22.4296 106.646 21.1414 106.646 18.5259C106.646 15.7085 104.546 14.8633 99.8546 14.8633H98.3317V9.27077H100.636ZM68.4423 9.27077C73.5465 9.27077 73.5058 13.6972 74.6578 13.6972C75.8098 13.6972 75.9741 9.2692 81.2833 9.2692C85.3998 9.2692 87.4158 11.9661 87.4158 16.8355V27.7012H82.0659V19.0487C82.0659 16.3127 81.0376 14.8633 78.5677 14.8633C76.0978 14.8633 74.9865 16.3127 74.9865 19.0487V27.7012H69.6365V19.0487C69.6365 16.3127 68.6066 14.8633 66.1367 14.8633C63.6684 14.8633 62.5571 16.3127 62.5571 19.0487V27.6605H57.2071V9.59164H61.9811V12.8113C61.9811 13.536 62.0625 13.6972 62.2691 13.6972C63.1738 13.6972 63.3804 9.27077 68.4423 9.27077ZM47.7595 23.5158C46.8548 23.5158 46.5245 28.0236 40.5564 28.0236C35.8654 28.0236 34.0545 25.2469 34.0545 20.0144V9.59164H39.4028V18.5259C39.4028 21.2212 40.2684 22.4296 42.779 22.4296C45.2911 22.4296 47.4715 21.3026 47.4715 15.6694V9.59164H52.8214V27.7028H48.0475V24.4017C48.0475 23.677 47.9645 23.5158 47.7595 23.5158ZM24.6772 27.7012V1.4212H30.0287V27.7012H24.6772ZM9.9188 28.0236H7.6148V22.4296H9.13776C14.1997 22.4296 15.9292 20.941 15.9292 18.4852C15.9292 15.9104 14.076 14.8633 10.9894 14.8633C6.58646 14.8633 5.34993 17.1172 5.34993 22.309V35.1062H0.00158749V21.1022C2.22761e-05 13.1337 3.16959 9.27077 11.0708 9.27077C17.9859 9.27077 21.4842 12.3699 21.4842 18.1252C21.4842 24.4831 16.9153 28.0236 9.9188 28.0236Z" fill="#C5DC8B"/>
</g>
<defs>
<clipPath id="clip0_2060_556">
<rect width="112.696" height="36" fill="white"/>
</clipPath>
</defs>
</svg>
