<svg width="854" height="120" viewBox="0 0 854 120" fill="none" xmlns="http://www.w3.org/2000/svg">
<path d="M21.6559 61.6926C21.298 61.6917 20.9467 61.5964 20.6374 61.4164C20.3281 61.2364 20.0717 60.9781 19.8942 60.6675C19.7166 60.3569 19.6241 60.0049 19.626 59.6472C19.6279 59.2894 19.7242 58.9385 19.905 58.6298L53.0887 1.01813C53.2229 0.786284 53.4015 0.583132 53.6143 0.420275C53.827 0.257419 54.0698 0.138048 54.3287 0.0689769C54.5877 -9.3969e-05 54.8576 -0.0175116 55.1233 0.0177185C55.3889 0.0529487 55.6451 0.140137 55.877 0.274304C56.1089 0.408472 56.3122 0.586991 56.4751 0.799671C56.638 1.01235 56.7574 1.25502 56.8265 1.51384C56.8956 1.77265 56.9131 2.04253 56.8778 2.30807C56.8426 2.57362 56.7553 2.82962 56.6211 3.06147L23.4199 60.6513C23.245 60.9658 22.9893 61.2281 22.6793 61.4112C22.3692 61.5942 22.016 61.6913 21.6559 61.6926ZM31.4565 61.6926C31.0991 61.6903 30.7486 61.5942 30.4401 61.4139C30.1316 61.2336 29.8758 60.9755 29.6985 60.6653C29.5212 60.3551 29.4286 60.0039 29.4298 59.6466C29.431 59.2894 29.5262 58.9387 29.7056 58.6298L57.8511 9.59403C58.1205 9.12579 58.5648 8.78368 59.0865 8.64295C59.6082 8.50223 60.1644 8.57442 60.6328 8.84364C61.1013 9.11287 61.4435 9.55707 61.5843 10.0785C61.7251 10.6 61.6529 11.156 61.3835 11.6242L33.2249 60.6513C33.0489 60.9659 32.7924 61.2281 32.4816 61.4111C32.1709 61.594 31.8171 61.6912 31.4565 61.6926ZM41.6379 61.6926C41.2794 61.6933 40.9273 61.5982 40.618 61.417C40.3864 61.2825 40.1835 61.1038 40.0209 60.8909C39.8584 60.6781 39.7393 60.4354 39.6707 60.1765C39.602 59.9177 39.5849 59.6479 39.6206 59.3825C39.6562 59.1171 39.7438 58.8614 39.8783 58.6298L63.1738 18.5768C63.3019 18.3334 63.4779 18.1183 63.6912 17.9446C63.9046 17.7709 64.151 17.6422 64.4154 17.5661C64.6799 17.4901 64.957 17.4683 65.2301 17.5022C65.5032 17.536 65.7666 17.6247 66.0045 17.7629C66.2424 17.9012 66.4499 18.0861 66.6144 18.3066C66.7789 18.5271 66.8971 18.7786 66.9618 19.0459C67.0266 19.3133 67.0365 19.591 66.9911 19.8623C66.9457 20.1336 66.8458 20.3929 66.6975 20.6246L43.4019 60.66C43.2251 60.9724 42.9688 61.2324 42.659 61.4137C42.3492 61.5951 41.9969 61.6913 41.6379 61.6926ZM51.9988 61.6926C51.6455 61.6939 51.2982 61.6018 50.992 61.4257C50.7588 61.2916 50.5545 61.1128 50.3907 60.8994C50.227 60.686 50.1071 60.4424 50.0379 60.1826C49.9688 59.9227 49.9517 59.6517 49.9877 59.3852C50.0238 59.1187 50.1122 58.862 50.2479 58.6298L68.0194 27.4809C68.1452 27.2362 68.3193 27.0194 68.5312 26.8437C68.743 26.668 68.9883 26.537 69.2522 26.4585C69.516 26.3801 69.7931 26.3559 70.0666 26.3873C70.34 26.4187 70.6043 26.5051 70.8435 26.6414C71.0827 26.7776 71.2918 26.9608 71.4583 27.18C71.6247 27.3992 71.7451 27.6498 71.8121 27.9167C71.8791 28.1836 71.8913 28.4613 71.8481 28.7331C71.8049 29.0048 71.7071 29.265 71.5606 29.498L53.7891 60.6469C53.6118 60.9656 53.3521 61.2308 53.0371 61.4147C52.7222 61.5987 52.3636 61.6947 51.9988 61.6926ZM1.94532 95.8212C1.42125 95.7969 0.926695 95.5717 0.564418 95.1924C0.202141 94.8131 0 94.3089 0 93.7844C0 93.26 0.202141 92.7558 0.564418 92.3765C0.926695 91.9971 1.42125 91.7719 1.94532 91.7477L67.1921 91.6733C67.7162 91.6976 68.2107 91.9228 68.573 92.3021C68.9353 92.6814 69.1374 93.1856 69.1374 93.7101C69.1374 94.2345 68.9353 94.7387 68.573 95.118C68.2107 95.4973 67.7162 95.7225 67.1921 95.7468L1.94969 95.8212H1.94532ZM6.99225 87.4335C6.46818 87.4092 5.97362 87.184 5.61135 86.8047C5.24907 86.4254 5.04693 85.9211 5.04693 85.3967C5.04693 84.8723 5.24907 84.368 5.61135 83.9887C5.97362 83.6094 6.46818 83.3842 6.99225 83.3599L62.2896 83.1893C62.8137 83.2135 63.3082 83.4388 63.6705 83.8181C64.0328 84.1974 64.2349 84.7016 64.2349 85.226C64.2349 85.7505 64.0328 86.2547 63.6705 86.634C63.3082 87.0133 62.8137 87.2385 62.2896 87.2628L6.99225 87.4335ZM57.1989 78.4506L12.1136 78.3281C11.8381 78.3409 11.5628 78.2977 11.3045 78.2011C11.0461 78.1045 10.8101 77.9565 10.6106 77.7661C10.4111 77.5757 10.2523 77.3469 10.1438 77.0934C10.0353 76.8399 9.97934 76.5671 9.97934 76.2914C9.97934 76.0156 10.0353 75.7428 10.1438 75.4893C10.2523 75.2358 10.4111 75.007 10.6106 74.8166C10.8101 74.6262 11.0461 74.4782 11.3045 74.3816C11.5628 74.285 11.8381 74.2418 12.1136 74.2546L57.1989 74.3771C57.723 74.4014 58.2175 74.6266 58.5798 75.0059C58.9421 75.3852 59.1442 75.8894 59.1442 76.4139C59.1442 76.9383 58.9421 77.4425 58.5798 77.8218C58.2175 78.2012 57.723 78.4264 57.1989 78.4506ZM17.4188 69.6778C16.8947 69.6536 16.4002 69.4284 16.0379 69.049C15.6756 68.6697 15.4735 68.1655 15.4735 67.6411C15.4735 67.1166 15.6756 66.6124 16.0379 66.2331C16.4002 65.8538 16.8947 65.6286 17.4188 65.6043L52.0382 65.3986C52.5622 65.4229 53.0568 65.6481 53.4191 66.0274C53.7813 66.4067 53.9835 66.911 53.9835 67.4354C53.9835 67.9598 53.7813 68.4641 53.4191 68.8434C53.0568 69.2227 52.5622 69.4479 52.0382 69.4722L17.4188 69.6778ZM106.933 95.7906C106.572 95.7904 106.219 95.6947 105.907 95.5133C105.596 95.3319 105.338 95.0713 105.16 94.758L72.6549 37.6626C72.4146 37.1952 72.3641 36.6531 72.5139 36.1494C72.6638 35.6457 73.0024 35.2193 73.4592 34.9591C73.916 34.6989 74.4556 34.6251 74.9655 34.753C75.4754 34.8808 75.9163 35.2006 76.196 35.6455L108.701 92.7584C108.968 93.2272 109.038 93.7828 108.895 94.303C108.752 94.8232 108.409 95.2654 107.94 95.5324C107.632 95.7051 107.285 95.7941 106.933 95.7906ZM97.1366 95.6156C96.7766 95.6162 96.4228 95.5214 96.1113 95.3408C95.7999 95.1601 95.542 94.9001 95.3639 94.5873L67.7568 46.1466C67.6103 45.9136 67.5125 45.6534 67.4692 45.3817C67.426 45.1099 67.4383 44.8322 67.5052 44.5653C67.5723 44.2984 67.6926 44.0478 67.8591 43.8286C68.0255 43.6095 68.2346 43.4262 68.4738 43.29C68.713 43.1538 68.9773 43.0673 69.2508 43.0359C69.5243 43.0045 69.8013 43.0287 70.0652 43.1072C70.329 43.1856 70.5743 43.3166 70.7861 43.4923C70.998 43.668 71.1721 43.8848 71.2979 44.1295L98.9094 92.5703C99.1765 93.0398 99.2463 93.596 99.1035 94.1169C98.9607 94.6378 98.617 95.0808 98.1478 95.3487C97.8403 95.5255 97.4914 95.6176 97.1366 95.6156ZM86.6882 95.7425C86.3259 95.7435 85.97 95.6475 85.6574 95.4643C85.3449 95.2812 85.0871 95.0176 84.9111 94.7011L62.6529 54.95C62.406 54.4796 62.3524 53.9314 62.5037 53.4222C62.655 52.9129 62.9991 52.4827 63.4629 52.2233C63.9267 51.9638 64.4735 51.8956 64.9868 52.033C65.5002 52.1705 65.9397 52.5028 66.2116 52.9592L88.4654 92.7103C88.6397 93.0201 88.7299 93.3702 88.7268 93.7257C88.7236 94.0811 88.6274 94.4296 88.4476 94.7363C88.2679 95.0431 88.0108 95.2974 87.7021 95.4739C87.3934 95.6504 87.0439 95.743 86.6882 95.7425ZM76.5506 95.4887C76.19 95.4894 75.8357 95.3941 75.5242 95.2126C75.2126 95.0311 74.955 94.77 74.7778 94.4561L57.4747 63.9372C57.2373 63.4695 57.1894 62.9283 57.3409 62.4261C57.4924 61.9239 57.8316 61.4994 58.2881 61.2408C58.7447 60.9823 59.2833 60.9095 59.7921 61.0376C60.3009 61.1658 60.7408 61.485 61.0202 61.9289L78.3234 92.4477C78.4557 92.6803 78.5408 92.9366 78.5737 93.2022C78.6066 93.4677 78.5867 93.7371 78.5151 93.9949C78.4435 94.2526 78.3217 94.4938 78.1566 94.7043C77.9914 94.9149 77.7863 95.0907 77.553 95.2218C77.2485 95.3983 76.9025 95.4904 76.5506 95.4887ZM183.604 2.28702H143.084V94.7273H154.666V59.098H183.604C198.789 59.098 211.146 46.3566 211.146 30.6925C211.146 15.0284 198.789 2.28702 183.604 2.28702ZM183.604 47.1486H154.666V14.2364H183.604C192.402 14.2364 199.559 21.6178 199.559 30.6925C199.559 39.7672 192.402 47.1486 183.604 47.1486ZM244.159 25.9539C225.376 25.9539 210.095 41.7055 210.095 61.0844C210.095 80.4633 225.376 96.2106 244.159 96.2106C262.941 96.2106 278.213 80.459 278.213 61.0888C278.213 41.7187 262.924 25.9539 244.159 25.9539ZM266.627 61.0888C266.627 73.8695 256.559 84.2787 244.159 84.2787C231.758 84.2787 221.682 73.8827 221.682 61.0888C221.682 48.295 231.749 37.8989 244.159 37.8989C256.568 37.8989 266.614 48.3081 266.614 61.0888H266.627ZM286.513 2.28702H298.095V94.7317H286.513V2.28702ZM363.267 27.4328V34.7486C357.143 29.1096 349.125 25.9714 340.799 25.9539C322.02 25.9539 306.74 41.7055 306.74 61.0844C306.74 80.4633 322.02 96.2106 340.799 96.2106C349.125 96.1931 357.143 93.0549 363.267 87.416V94.7317H374.853V27.4328H363.267ZM363.267 61.0844C363.267 73.8652 353.199 84.2744 340.799 84.2744C328.398 84.2744 318.322 73.8783 318.322 61.0844C318.322 48.2906 328.389 37.8945 340.799 37.8945C353.208 37.8945 363.267 48.3037 363.267 61.0844ZM421.589 26.1158C416.898 26.5685 412.355 27.9995 408.252 30.3162C404.149 32.633 400.577 35.784 397.768 39.5659V27.4328H386.182V94.7361H397.768V63.5172C397.768 49.9533 408.484 38.669 421.65 38.3277H422.167V26.0764L421.589 26.1158ZM499.026 43.8889L471.888 36.2362C466.539 34.3023 465.322 29.4499 465.961 25.5557C467.051 18.9619 473.682 12.3024 486.039 12.3024C493.332 12.3024 498.786 14.2145 502.235 17.9905C506.047 22.1428 506.717 27.7872 506.831 30.0231L506.862 30.6531L518.308 28.3429L518.264 27.8484C517.796 22.9129 516.111 15.7897 510.757 9.90907C505.014 3.56027 496.693 0.353062 486.03 0.353062C466.911 0.353062 456.432 12.0049 454.514 23.543C452.737 34.311 458.309 43.9808 468.416 47.608L496.063 55.4182C504.817 57.6935 509.899 63.6922 509.055 70.7323C508.179 77.9693 501.062 85.272 487.107 85.272C478.611 85.272 472.225 83.0142 468.149 78.5644C465.523 75.7072 463.816 71.9443 463.076 67.3851L462.989 66.8294L451.639 69.1309L451.726 69.6603C452.877 76.4336 455.543 82.1566 459.64 86.6721C465.992 93.6729 475.236 97.2301 487.12 97.2301C508.03 97.2301 519.113 84.2612 520.562 72.2112C521.893 61.2551 515.743 48.2293 499.026 43.8889ZM538.356 2.30452C534.224 2.30452 530.866 5.76988 530.866 10.0316C530.866 14.2933 534.224 17.7586 538.356 17.7586C542.488 17.7586 545.849 14.2933 545.849 10.0316C545.849 5.76988 542.488 2.30452 538.356 2.30452ZM532.565 27.4328H544.151V94.7317H532.565V27.4328ZM611.061 27.4328V34.7486C604.937 29.1096 596.919 25.9714 588.593 25.9539C569.815 25.9539 554.534 41.7055 554.534 61.0801C554.534 80.4546 569.815 96.2106 588.593 96.2106C596.92 96.1919 604.937 93.0522 611.061 87.4116V105.062C611.067 105.449 610.997 105.833 610.854 106.192C610.711 106.552 610.499 106.88 610.229 107.157C609.96 107.435 609.638 107.657 609.283 107.81C608.928 107.963 608.546 108.045 608.159 108.051H567.254V120H608.159C616.147 120 622.648 113.301 622.648 105.062V27.4328H611.061ZM611.061 61.0801C611.061 73.8652 600.994 84.27 588.593 84.27C576.192 84.27 566.12 73.8739 566.12 61.0801C566.12 48.2862 576.188 37.8901 588.593 37.8901C600.998 37.8901 611.061 48.3037 611.061 61.0801ZM665.759 25.9539C661.477 25.9751 657.26 26.9995 653.446 28.9448C649.633 30.8901 646.328 33.7021 643.798 37.1551V27.4328H632.212V94.7273H643.798V57.7153C643.798 46.9867 652.26 38.2577 662.664 38.2577C673.069 38.2577 681.53 47.0086 681.53 57.7153V94.7273H693.458V54.5169C693.449 38.7652 681.027 25.9539 665.759 25.9539ZM757.794 27.4328V34.7486C751.669 29.1085 743.65 25.9703 735.322 25.9539C716.543 25.9539 701.263 41.7055 701.263 61.0844C701.263 80.4633 716.543 96.2106 735.322 96.2106C743.65 96.1942 751.669 93.056 757.794 87.416V94.7317H769.376V27.4328H757.794ZM757.794 61.0844C757.794 73.8652 747.727 84.2744 735.322 84.2744C722.917 84.2744 712.845 73.8783 712.845 61.0844C712.845 48.2906 722.912 37.8945 735.322 37.8945C747.731 37.8945 757.794 48.3037 757.794 61.0844ZM780.381 2.28702H791.967V94.7317H780.381V2.28702ZM837.354 54.5344L818.279 49.2838C815.013 48.1287 814.961 45.394 815.215 43.8714C815.858 40.0429 819.977 36.1837 827.725 36.1837C832.391 36.1837 835.831 37.3213 837.95 39.5659C839.701 41.4386 840.362 43.8451 840.576 45.5341L840.725 46.5973L852.185 45.044L852.049 43.9633C851.401 39.0409 849.528 34.8711 846.464 31.5807C842.086 26.864 835.774 24.4706 827.742 24.4706C813.227 24.4706 805.252 33.2215 803.781 41.9068C802.381 50.2202 806.815 57.6585 814.851 60.4981L834.435 65.88C839.718 67.2276 842.822 70.6142 842.34 74.5127C841.815 78.7394 837.341 83.0055 828.521 83.0055C822.988 83.0055 818.891 81.6316 816.348 78.9188C814.733 77.2036 813.678 74.9196 813.219 72.1237L812.864 69.9841L801.448 72.2331L801.812 74.2896C802.687 79.2995 804.709 83.548 807.848 86.9172C812.663 92.1064 819.666 94.7361 828.521 94.7361C844.345 94.7361 852.749 85.0051 853.865 75.9654C854.885 67.6389 850.18 57.7853 837.354 54.5344Z" fill="black"/>
</svg>
