<svg width="800" height="120" viewBox="0 0 800 120" fill="none" xmlns="http://www.w3.org/2000/svg">
<path d="M2.72485 23.8568V40.3302C2.81373 40.3175 2.9026 40.3111 2.99148 40.2984C14.8497 38.9019 25.2797 48.1701 25.2797 60.1107V116.476H41.6134V52.8867C41.6134 43.1424 49.0153 34.966 58.7532 34.0392C67.8309 33.1695 75.2772 40.1905 75.2772 49.3064V116.47H91.6109V51.1791C91.6109 39.3018 100.562 29.3289 112.382 28.0529C123.415 26.8659 132.976 35.7024 132.976 46.7989V116.47H149.309V46.8751C149.309 33.8805 158.984 22.9744 171.864 21.4128V4.97754L2.72485 23.8568Z" fill="black"/>
<path d="M461.605 30.9678V90.2781H511.266V79.6198H477.926V65.9329H504.448V55.2747H477.926V41.639H511.266V30.9805L461.605 30.9678Z" fill="black"/>
<path d="M595.446 90.2592H595.503C595.503 90.2718 595.503 90.2843 595.503 90.2975C600.92 90.2975 606.269 90.2975 611.72 90.2975C611.72 90.2843 611.72 90.2718 611.72 90.2592H611.777V30.9678H595.452L595.446 90.2592Z" fill="black"/>
<path d="M248.746 30.9678H204.506V90.2592H220.827V70.7261H248.746C259.722 70.7261 268.622 61.8261 268.622 50.8501C268.622 39.8678 259.722 30.9678 248.746 30.9678ZM243.096 60.0483H220.827V41.639H243.096C248.181 41.639 252.301 45.7589 252.301 50.8437C252.301 55.9286 248.181 60.0483 243.096 60.0483Z" fill="black"/>
<path d="M582.223 50.8437C582.223 39.8678 573.326 30.9678 562.349 30.9678H523.708V90.2592H540.029V70.7261H550.789L565.625 90.2592H585.354L569.497 69.3803C576.937 66.5043 582.223 59.2992 582.223 50.8437ZM556.699 60.0421H540.029V41.639H556.699C561.784 41.639 565.904 45.7589 565.904 50.8437C565.904 55.9286 561.784 60.0421 556.699 60.0421Z" fill="black"/>
<path d="M323.489 29.4629H301.251C287.209 29.4629 275.725 40.9467 275.725 54.9887V66.4598C275.725 80.4952 287.209 91.9855 301.251 91.9855H323.489C337.53 91.9855 349.014 80.5015 349.014 66.4598V54.9887C349.014 40.9467 337.53 29.4629 323.489 29.4629ZM332.236 64.9804C332.236 73.3604 325.38 80.2158 317.001 80.2158H307.739C299.359 80.2158 292.503 73.3604 292.503 64.9804V56.4615C292.503 48.0819 299.359 41.226 307.739 41.226H317.001C325.38 41.226 332.236 48.0819 332.236 56.4615V64.9804Z" fill="black"/>
<path d="M675.052 64.5558C675.052 72.0906 669.743 78.2615 663.252 78.2615H656.08C649.583 78.2615 644.274 72.0906 644.274 64.5558V30.9678H628.109V66.4603C628.109 80.4958 638 91.9861 650.092 91.9861H669.24C681.331 91.9861 691.223 80.5021 691.223 66.4603V30.9678H675.057L675.052 64.5558Z" fill="black"/>
<path d="M449.206 90.2578C446.775 70.4647 444.242 50.76 441.81 30.9666C441.62 30.9539 423.039 30.9666 423.039 30.9666L403.899 71.8675L384.76 30.9666C384.76 30.9666 366.185 30.9539 365.989 30.9666C363.557 50.7664 361.025 70.4709 358.593 90.2578H373.79C375.327 77.3332 377.009 64.7578 378.59 51.9153C383.078 61.5012 391.61 79.7264 396.535 90.2578H411.276L429.222 51.9153C430.803 64.7578 432.479 77.3332 434.021 90.2578H449.206Z" fill="black"/>
<path d="M794.486 90.2578C792.057 70.4647 789.52 50.76 787.091 30.9666C786.903 30.9539 768.32 30.9666 768.32 30.9666L749.183 71.8675L730.04 30.9666C730.04 30.9666 711.469 30.9539 711.269 30.9666C708.84 50.7664 706.303 70.4709 703.874 90.2578H719.069C720.606 77.3332 722.291 64.7578 723.869 51.9153C728.36 61.5012 736.891 79.7264 741.817 90.2578H756.554L774.503 51.9153C776.086 64.7578 777.76 77.3332 779.303 90.2578H794.486Z" fill="black"/>
</svg>
