<svg width="304" height="87" viewBox="0 0 304 87" fill="none" xmlns="http://www.w3.org/2000/svg">
<path fill-rule="evenodd" clip-rule="evenodd" d="M32.5735 4.83337C25.6538 4.83337 19.2975 8.57174 15.8745 14.5782L4.97455 33.7046C1.57334 39.6728 1.55845 47.0106 4.9351 52.9927L15.8629 72.3524C19.2753 78.3977 25.6529 82.1667 32.6014 82.1667H54.0746C60.9735 82.1667 67.3139 78.4507 70.7447 72.4725L81.8544 53.1133C85.3226 47.0697 85.3074 39.6136 81.8141 33.5843L70.7324 14.4577C67.2914 8.51871 60.9725 4.83337 54.1025 4.83337H32.5735ZM23.3857 18.8169C25.3001 15.4578 28.8126 13.426 32.5735 13.426H54.1025C57.8365 13.426 61.3278 15.429 63.2517 18.7495L74.3334 37.8762C76.2939 41.2598 76.3026 45.4601 74.356 48.8522L63.2463 68.2115C61.3278 71.5544 57.8242 73.5741 54.0746 73.5741H32.6014C28.825 73.5741 25.3001 71.5256 23.3915 68.1442L12.4637 48.7847C10.5682 45.4267 10.5767 41.293 12.4857 37.9433L23.3857 18.8169ZM51.156 25.4878C49.5894 23.6988 46.8622 23.5125 45.0645 25.0714C43.2668 26.6303 43.0795 29.3441 44.646 31.1329L55.4763 43.5L44.646 55.8672C43.0795 57.656 43.2668 60.3698 45.0645 61.9287C46.8622 63.4876 49.5894 63.3011 51.156 61.5123L63.2221 47.7339C65.3471 45.3073 65.3471 41.6927 63.2221 39.2662L51.156 25.4878Z" fill="url(#paint0_linear_268_256)"/>
<path d="M117.307 58.1903C120.931 58.1903 124.055 56.7832 126.73 53.9409C129.407 51.0985 130.745 47.6088 130.745 43.5C130.745 39.3912 129.407 35.9297 126.73 33.0873C124.055 30.245 120.931 28.8097 117.307 28.8097C116.276 28.8097 115.3 28.9785 114.352 29.2599C113.404 29.5413 112.624 29.8791 112.038 30.245C111.425 30.6107 110.868 31.0329 110.366 31.4831C109.864 31.9335 109.529 32.2431 109.362 32.4119C109.195 32.5808 109.083 32.7214 109.027 32.834V29.3725H101.333V69.7288H109.027V54.166L109.892 55.2073C110.449 55.8826 111.425 56.5299 112.819 57.2054C114.213 57.8807 115.69 58.1903 117.307 58.1903ZM115.886 35.7327C117.781 35.7327 119.398 36.4644 120.736 37.9278C122.075 39.3912 122.743 41.2486 122.743 43.5282C122.743 45.7795 122.075 47.6651 120.736 49.1285C119.398 50.592 117.781 51.3236 115.886 51.3236C113.99 51.3236 112.373 50.592 111.035 49.1285C109.697 47.6651 109.027 45.7795 109.027 43.5282C109.027 41.2486 109.697 39.3912 111.035 37.9278C112.373 36.4644 113.99 35.7327 115.886 35.7327Z" fill="black"/>
<path d="M142.162 43.5282C142.162 41.4175 142.83 39.6445 144.197 38.1811C145.535 36.7458 147.151 36.0142 149.02 36.0142C150.86 36.0142 152.476 36.7458 153.843 38.1811C155.181 39.6445 155.878 41.4175 155.878 43.5282C155.878 45.6389 155.181 47.4118 153.843 48.847C152.476 50.2824 150.86 50.9859 149.02 50.9859C147.151 50.9859 145.535 50.2824 144.197 48.847C142.83 47.4118 142.162 45.6389 142.162 43.5282ZM163.851 43.5C163.851 39.5882 162.373 36.1548 159.419 33.228C156.463 30.3012 153.007 28.8378 149.02 28.8378C145.005 28.8378 141.548 30.3012 138.593 33.228C135.638 36.1548 134.16 39.5882 134.16 43.5C134.16 47.4399 135.638 50.8734 138.593 53.8001C141.548 56.727 145.005 58.1904 149.02 58.1904C153.007 58.1904 156.463 56.727 159.419 53.8001C162.373 50.8734 163.851 47.4399 163.851 43.5Z" fill="black"/>
<path d="M185.835 29.0911H184.691C183.158 29.0911 181.709 29.4568 180.315 30.1323C178.921 30.8359 178.029 31.3987 177.61 31.8208C177.22 32.243 176.886 32.5807 176.663 32.834V29.3725H168.968V57.6274H176.663V44.091C176.663 41.6707 177.276 39.8133 178.447 38.5187C179.617 37.2242 181.235 36.5769 183.242 36.5769C184.385 36.6051 185.25 36.7176 185.807 36.9147L185.835 29.0911Z" fill="black"/>
<path d="M192.986 26.2204C192.986 27.3462 192.68 28.2467 192.066 28.9221C191.453 29.6258 190.7 29.9635 189.836 29.9635H187.271V36.8865H192.122V48.3967C192.122 54.9258 195.049 58.1903 200.959 58.1903C202.855 58.2184 204.584 57.937 206.117 57.346V50.7044L205.782 50.817C205.531 50.9295 205.169 51.0421 204.695 51.1547C204.221 51.2672 203.747 51.2954 203.245 51.2954C202.241 51.2954 201.433 50.9858 200.792 50.3667C200.151 49.7475 199.844 49.0159 199.844 48.1153V36.8865H205.531V29.9635H199.844V21.0422H192.986V26.2204Z" fill="black"/>
<path d="M223.527 46.6801L230.971 57.6275H239.529L228.406 41.502L238.944 29.3726H230.106L220.126 40.911V17.2712H212.403V57.6275H220.126V50.7045L223.527 46.6801Z" fill="black"/>
<path d="M269.206 46.0891L269.485 42.9372C269.485 38.9128 268.147 35.5638 265.499 32.8622C262.822 30.1605 259.504 28.8097 255.517 28.8097C251.503 28.8097 248.074 30.273 245.231 33.1436C242.359 36.0141 240.938 39.4756 240.938 43.5C240.938 47.5525 242.388 51.014 245.286 53.8845C248.185 56.7551 251.67 58.1903 255.796 58.1903C257.246 58.1903 258.641 58.0215 260.006 57.6838C261.372 57.3461 262.488 56.9803 263.351 56.5299C264.187 56.0797 264.997 55.5731 265.777 55.0102C266.53 54.4474 267.032 54.0535 267.254 53.8282L267.785 53.2935L263.798 48.1154L262.99 48.9878C262.488 49.5788 261.595 50.1698 260.368 50.7326C259.143 51.2954 257.803 51.5769 256.355 51.5769C254.347 51.5769 252.674 51.0703 251.364 50.001C250.026 48.9315 249.217 47.637 248.938 46.0891H269.206ZM255.517 35.4513C257.135 35.4513 258.528 35.9578 259.644 36.9147C260.759 37.8996 261.484 39.1379 261.79 40.6295H248.938C249.384 39.1098 250.193 37.8433 251.336 36.8866C252.479 35.9297 253.873 35.4513 255.517 35.4513Z" fill="black"/>
<path d="M281.209 59.3442C280.289 61.4831 278.672 62.5243 276.358 62.5243C275.215 62.5243 274.267 62.3555 273.515 61.9614V68.8564L274.072 69.0534C274.463 69.2222 275.048 69.363 275.884 69.5036C276.693 69.6725 277.529 69.7288 278.365 69.7288C283.05 69.7288 286.646 66.2673 289.21 59.3442L300.334 29.3726H292.36L285.781 48.1154L279.23 29.3726H271.229L282.074 57.3461L281.209 59.3442Z" fill="black"/>
<defs>
<linearGradient id="paint0_linear_268_256" x1="-48.317" y1="0.537064" x2="91.6944" y2="-39.2434" gradientUnits="userSpaceOnUse">
<stop offset="0.171875" stop-color="#1495CC"/>
<stop offset="0.953125" stop-color="#FF0D15"/>
</linearGradient>
</defs>
</svg>
