<svg width="895" height="284" viewBox="0 0 895 284" fill="none" xmlns="http://www.w3.org/2000/svg">
<path d="M0.5 0H62.6309C82.0844 0 91.8539 8.82413 91.8539 26.4724V80.2739C91.8539 97.9222 82.0844 106.746 62.6309 106.746H31.2655V168.858H0.5V0ZM61.0027 75.9903V30.756C61.0027 27.9288 60.4885 26.044 59.3744 25.1017C58.3461 24.0736 56.375 23.4739 53.4613 23.4739H31.2655V83.1867H53.4613C56.2893 83.1867 58.2604 82.7584 59.3744 81.816C60.4028 80.7879 61.0027 78.8175 61.0027 75.9047V75.9903ZM131.703 103.062V168.944H100.938V0H163.069C182.522 0 192.292 8.82413 192.292 26.4724V76.5044C192.292 91.1541 185.779 99.7213 172.753 102.206L200.862 168.858H167.697L141.987 102.977H131.789L131.703 103.062ZM131.703 23.5596V80.2739H153.899C156.727 80.2739 158.698 79.8456 159.812 78.9032C160.841 77.8751 161.441 75.9047 161.441 72.9919V30.756C161.441 27.9288 160.926 26.044 159.812 25.1017C158.784 24.0736 156.813 23.4739 153.899 23.4739H131.703V23.5596ZM233.341 0H265.992C285.445 0 295.215 8.82413 295.215 26.4724V142.386C295.215 160.034 285.445 168.858 265.992 168.858H233.341C213.888 168.858 204.118 160.034 204.118 142.386V26.4724C204.118 8.82413 213.888 0 233.341 0ZM264.449 138.102V30.756C264.449 27.9288 263.935 26.044 262.821 25.1017C261.793 24.0736 259.822 23.4739 256.908 23.4739H242.682C239.683 23.4739 237.626 23.9879 236.512 25.1017C235.484 25.9584 234.884 27.8431 234.884 30.756V138.102C234.884 140.929 235.398 142.9 236.512 144.013C237.54 144.87 239.597 145.384 242.682 145.384H256.908C259.736 145.384 261.707 144.956 262.821 144.013C263.85 142.985 264.449 141.015 264.449 138.102ZM336.693 168.944H309.355V0H343.12L371.486 100.407L399.852 0H433.617V168.944H406.536V50.289L384.084 132.191H359.146L336.693 50.546V168.858V168.944ZM448.7 0H510.831C530.284 0 540.054 8.82413 540.054 26.4724V80.2739C540.054 97.9222 530.284 106.746 510.831 106.746H479.465V168.858H448.7V0ZM509.202 75.9903V30.756C509.202 27.9288 508.688 26.044 507.574 25.1017C506.546 24.0736 504.575 23.4739 501.661 23.4739H479.465V83.1867H501.661C504.489 83.1867 506.46 82.7584 507.574 81.816C508.603 80.7879 509.202 78.8175 509.202 75.9047V75.9903ZM627.551 0V23.5596H597.814V168.944H567.048V23.5596H537.568V0H627.551Z" fill="white"/>
<path d="M723.018 0.257812H692.681C663.63 0.257812 629.351 16.364 629.351 63.1405C629.351 93.9821 651.204 125.509 697.652 125.509H717.876L755.584 168.687H784.892V65.1109C784.892 19.7052 754.127 0.343484 723.104 0.343484L723.018 0.257812ZM755.498 65.1109V126.794L731.502 96.6379H696.881C679.312 96.6379 658.745 87.8994 658.745 63.1405C658.745 33.3269 683.255 30.0714 693.795 30.0714H721.133C737.93 30.0714 755.498 39.4952 755.498 65.0252V65.1109Z" fill="white"/>
<path d="M848.223 136.047C842.482 136.047 837.768 131.335 837.768 125.423V0.257812H806.231V127.908C806.231 149.84 823.8 167.745 845.481 167.745H892.444V136.047H848.309H848.223Z" fill="white"/>
<path d="M585.645 224.8H588.473C594.901 224.8 598.157 227.884 598.157 234.138V261.81C598.157 268.064 594.901 271.148 588.473 271.148H585.645C582.046 271.148 579.818 269.777 578.961 266.95V271.148H568.42V208.18H579.047V228.826C579.989 226.171 582.217 224.886 585.645 224.886V224.8ZM587.445 260.353V235.68C587.445 234.652 587.273 234.052 586.845 233.71C586.502 233.367 585.817 233.11 584.788 233.11H581.96C579.989 233.11 579.047 234.138 579.047 236.28V259.754C579.047 261.81 579.989 262.838 581.96 262.838H584.788C585.817 262.838 586.502 262.667 586.845 262.41C587.188 262.067 587.445 261.381 587.445 260.353ZM613.326 283.999H606.984V275.774H611.783C614.525 275.774 616.239 274.661 616.839 272.519L617.611 269.52H612.554L602.014 224.971H613.069L619.667 260.61L625.752 224.971H636.464L626.095 274.061C624.466 280.743 620.181 284.084 613.24 284.084L613.326 283.999ZM679.741 211.692H690.539V271.148H679.741V245.789H667.487V271.148H656.689V211.692H667.487V237.479H679.741V211.692ZM724.047 271.148L721.819 258.811H708.793L706.736 271.148H695.938L707.936 211.692H722.505L735.017 271.148H724.047ZM710.164 250.587H720.277L715.135 222.144L710.25 250.587H710.164ZM759.012 260.353V247.674C759.012 246.646 758.841 246.046 758.412 245.704C758.069 245.361 757.384 245.104 756.355 245.104H748.728C742.215 245.104 739.044 241.934 739.044 235.68V221.116C739.044 214.862 742.472 211.778 749.242 211.778H759.612C766.382 211.778 769.81 214.862 769.81 221.116V229.426H758.841V222.658C758.841 221.63 758.669 221.03 758.241 220.688C757.898 220.345 757.212 220.088 756.184 220.088H752.585C751.556 220.088 750.785 220.259 750.442 220.688C750.099 221.03 749.842 221.63 749.842 222.658V234.652C749.842 235.68 750.014 236.366 750.442 236.708C750.785 237.051 751.556 237.137 752.585 237.137H760.04C766.639 237.137 769.896 240.221 769.896 246.389V261.896C769.896 268.15 766.468 271.234 759.612 271.234H749.414C742.558 271.234 739.13 268.15 739.13 261.896V253.671H749.928V260.353C749.928 261.381 750.099 262.067 750.528 262.41C750.871 262.752 751.642 262.838 752.67 262.838H756.27C757.298 262.838 757.984 262.667 758.326 262.41C758.669 262.067 758.926 261.381 758.926 260.353H759.012ZM798.947 211.692H809.745V261.81C809.745 268.064 806.317 271.148 799.461 271.148H787.978C781.122 271.148 777.694 268.064 777.694 261.81V211.692H788.492V260.268C788.492 261.296 788.663 261.981 789.092 262.324C789.435 262.667 790.12 262.752 791.149 262.752H796.119C797.147 262.752 797.919 262.581 798.262 262.324C798.604 261.981 798.862 261.296 798.862 260.268V211.692H798.947ZM829.541 248.017V271.148H818.743V211.692H840.596C847.452 211.692 850.88 214.776 850.88 221.03V238.679C850.88 243.819 848.566 246.817 844.024 247.76L853.88 271.234H842.225L833.141 248.102H829.541V248.017ZM829.541 220.002V239.964H837.34C838.368 239.964 839.054 239.792 839.397 239.535C839.739 239.193 839.996 238.507 839.996 237.479V222.572C839.996 221.544 839.825 220.945 839.397 220.602C839.054 220.259 838.368 220.002 837.34 220.002H829.541ZM883.531 271.148L881.303 258.811H868.277L866.22 271.148H855.422L867.42 211.692H881.988L894.5 271.148H883.531ZM869.734 250.587H879.846L874.704 222.144L869.819 250.587H869.734Z" fill="white"/>
</svg>
