<svg width="666" height="110" viewBox="0 0 666 110" fill="none" xmlns="http://www.w3.org/2000/svg">
<path d="M62.3737 105.207C59.5781 109.047 53.8509 109.047 51.0553 105.207L27.7796 73.2344C25.0105 69.4307 26.7073 64.0329 31.1546 62.4977L54.4303 54.4628C55.9102 53.9519 57.5187 53.9519 58.9987 54.4628L82.2744 62.4977C86.7217 64.033 88.4184 69.4307 85.6494 73.2344L62.3737 105.207ZM56.7145 99.3879L78.3862 69.6187L56.7145 62.1375L35.0428 69.6187L56.7145 99.3879Z" fill="#E72564"/>
<path d="M110.86 61.7624C113.648 65.6079 111.878 71.0547 107.362 72.5268L69.7621 84.7833C65.2889 86.2414 60.6796 82.9597 60.5938 78.2556L60.1447 53.6362C60.1162 52.0708 60.6132 50.5411 61.5564 49.2914L76.3907 29.6379C79.2251 25.8826 84.883 25.9369 87.6448 29.7459L110.86 61.7624ZM103.577 65.3465L81.9617 35.5363L68.1497 53.8355L68.5678 76.7583L103.577 65.3465Z" fill="#E723A0"/>
<path d="M84.5326 2.25877C89.0515 0.795229 93.6849 4.16159 93.6894 8.91158L93.7269 48.4589C93.7314 53.1638 89.1859 56.5333 84.6856 55.1613L61.1323 47.9806C59.6347 47.524 58.3334 46.5786 57.4364 45.2954L43.3288 25.1139C40.6333 21.2577 42.4333 15.8935 46.9092 14.4439L84.5326 2.25877ZM85.6907 10.2928L50.6601 21.6382L63.7955 40.429L85.7256 47.1148L85.6907 10.2928Z" fill="#E520E9"/>
<path d="M28.9346 2.27586C24.4156 0.812319 19.7823 4.17868 19.7778 8.92867L19.7402 48.476C19.7358 53.1809 24.2812 56.5504 28.7816 55.1784L52.3348 47.9977C53.8324 47.5411 55.1337 46.5957 56.0307 45.3125L70.1383 25.1309C72.8339 21.2748 71.0339 15.9106 66.5579 14.461L28.9346 2.27586ZM27.7765 10.3099L62.8071 21.6553L49.6717 40.4461L27.7415 47.1319L27.7765 10.3099Z" fill="#E520E9"/>
<path d="M2.58066 61.7555C-0.20768 65.601 1.56213 71.0479 6.07825 72.52L43.6784 84.7765C48.1516 86.2346 52.7608 82.9529 52.8467 78.2488L53.2958 53.6294C53.3243 52.064 52.8273 50.5342 51.8841 49.2846L37.0498 29.631C34.2154 25.8758 28.5575 25.9301 25.7956 29.739L2.58066 61.7555ZM9.8636 65.3396L31.4788 35.5294L45.2908 53.8286L44.8726 76.7515L9.8636 65.3396Z" fill="#E723A0"/>
<path d="M79.5687 81.5866L85.6488 73.2347C86.1993 72.4786 86.5733 71.6595 86.7842 70.8203L74.626 74.7835L67.1038 85.1163C67.9705 85.1766 68.8689 85.0744 69.7619 84.7834L79.5687 81.5866Z" fill="#FF96D1"/>
<path d="M60.167 54.8667L60.3224 63.3836L68.3744 66.1632L68.219 57.6463L60.167 54.8667Z" fill="#FF96D1"/>
<path d="M93.7166 38.12L87.6446 29.7459C87.0975 28.9914 86.4368 28.3842 85.7069 27.9248L85.7191 40.7186L93.2279 51.0742C93.5492 50.2726 93.7273 49.3919 93.7264 48.4587L93.7166 38.12Z" fill="#FF96D1"/>
<path d="M70.4293 50.8148L62.2812 48.3307L67.413 41.5317L75.5611 44.0158L70.4293 50.8148Z" fill="#FF96D1"/>
<path d="M56.7395 44.2983L61.6199 37.3167L56.7395 30.335L51.859 37.3167L56.7395 44.2983Z" fill="#FF96D1"/>
<path d="M44.5547 15.7438C45.2222 15.1823 46.012 14.7344 46.9092 14.4438L56.7071 11.2705L66.5577 14.4608C67.4418 14.7472 68.2215 15.1862 68.8828 15.7363L56.7071 19.6796L44.5547 15.7438Z" fill="#FF96D1"/>
<path d="M51.1787 48.3498L46.0469 41.5508L37.8988 44.0349L43.0306 50.8339L51.1787 48.3498Z" fill="#FF96D1"/>
<path d="M20.2233 51.0523L27.7476 40.6752L27.7598 27.9014C27.0194 28.3627 26.3494 28.9754 25.7957 29.739L19.7501 38.0767L19.7402 48.4757C19.7394 49.3938 19.9118 50.2611 20.2233 51.0523Z" fill="#FF96D1"/>
<path d="M53.2727 54.8623L45.2207 57.6419L45.0653 66.1588L53.1174 63.3792L53.2727 54.8623Z" fill="#FF96D1"/>
<path d="M46.3199 85.1103L38.7916 74.7692L26.6406 70.8083C26.8511 71.6517 27.226 72.4748 27.779 73.2345L33.8488 81.5723L43.6778 84.7762C44.5653 85.0655 45.4581 85.1682 46.3199 85.1103Z" fill="#FF96D1"/>
<path d="M132.08 86.6357V13.3457H165.05C168.41 13.3457 171.42 13.9057 174.08 15.0257C176.81 16.0757 179.12 17.6157 181.01 19.6457C182.9 21.6057 184.335 23.9857 185.315 26.7857C186.295 29.5857 186.785 32.6657 186.785 36.0257C186.785 39.4557 186.295 42.5707 185.315 45.3707C184.335 48.1007 182.9 50.4807 181.01 52.5107C179.12 54.4707 176.81 56.0107 174.08 57.1307C171.42 58.1807 168.41 58.7057 165.05 58.7057H145.94V86.6357H132.08ZM145.94 46.7357H163.79C166.45 46.7357 168.55 46.0357 170.09 44.6357C171.63 43.1657 172.4 41.1007 172.4 38.4407V33.6107C172.4 30.9507 171.63 28.9207 170.09 27.5207C168.55 26.1207 166.45 25.4207 163.79 25.4207H145.94V46.7357Z" fill="black"/>
<path d="M232.106 31.8257H244.706L222.656 96.4007C221.956 98.3607 221.151 100.041 220.241 101.441C219.401 102.911 218.386 104.101 217.196 105.011C216.006 105.921 214.571 106.586 212.891 107.006C211.211 107.426 209.251 107.636 207.011 107.636H198.926V96.9257H208.796L211.316 89.2607L191.681 31.8257H205.016L214.571 60.8057L218.141 74.6657H218.771L222.551 60.8057L232.106 31.8257Z" fill="black"/>
<path d="M286.872 77.5005H286.347C285.367 80.6505 283.512 83.1705 280.782 85.0605C278.052 86.9505 274.867 87.8956 271.227 87.8956C264.297 87.8956 258.977 85.4106 255.267 80.4406C251.627 75.4706 249.807 68.3655 249.807 59.1255C249.807 49.9555 251.627 42.9205 255.267 38.0205C258.977 33.0505 264.297 30.5655 271.227 30.5655C274.867 30.5655 278.052 31.5105 280.782 33.4005C283.512 35.2205 285.367 37.7055 286.347 40.8555H286.872V8.93555H300.312V86.6355H286.872V77.5005ZM275.532 76.7655C278.752 76.7655 281.447 75.9956 283.617 74.4556C285.787 72.9156 286.872 70.7105 286.872 67.8405V50.4105C286.872 47.7505 285.787 45.6155 283.617 44.0055C281.447 42.3955 278.752 41.5905 275.532 41.5905C272.032 41.5905 269.197 42.7805 267.027 45.1605C264.927 47.4705 263.877 50.5855 263.877 54.5055V63.9555C263.877 67.8755 264.927 70.9906 267.027 73.3006C269.197 75.6106 272.032 76.7655 275.532 76.7655Z" fill="black"/>
<path d="M356.131 86.6354C353.191 86.6354 350.846 85.7954 349.096 84.1154C347.416 82.3654 346.366 80.0554 345.946 77.1854H345.316C344.406 80.7554 342.551 83.4504 339.751 85.2704C336.951 87.0204 333.486 87.8954 329.356 87.8954C323.756 87.8954 319.451 86.4254 316.441 83.4854C313.431 80.5454 311.926 76.6254 311.926 71.7254C311.926 66.0554 313.956 61.8554 318.016 59.1254C322.076 56.3254 327.851 54.9254 335.341 54.9254H344.686V50.9354C344.686 47.8554 343.881 45.4754 342.271 43.7954C340.661 42.1154 338.071 41.2754 334.501 41.2754C331.351 41.2754 328.796 41.9754 326.836 43.3754C324.946 44.7054 323.336 46.3154 322.006 48.2054L314.026 41.0654C316.056 37.9154 318.751 35.3954 322.111 33.5054C325.471 31.5454 329.916 30.5654 335.446 30.5654C342.866 30.5654 348.501 32.2454 352.351 35.6054C356.201 38.9654 358.126 43.7954 358.126 50.0954V75.9254H363.586V86.6354H356.131ZM333.871 78.1304C336.881 78.1304 339.436 77.4654 341.536 76.1354C343.636 74.8054 344.686 72.8454 344.686 70.2554V63.0104H336.076C329.076 63.0104 325.576 65.2504 325.576 69.7304V71.5154C325.576 73.7554 326.276 75.4354 327.676 76.5554C329.146 77.6054 331.211 78.1304 333.871 78.1304Z" fill="black"/>
<path d="M374.463 86.6357V31.8257H387.903V40.9607H388.428C389.548 38.0207 391.298 35.5707 393.678 33.6107C396.128 31.5807 399.488 30.5657 403.758 30.5657C409.428 30.5657 413.768 32.4207 416.778 36.1307C419.788 39.8407 421.293 45.1257 421.293 51.9857V86.6357H407.853V53.3507C407.853 49.4307 407.153 46.4907 405.753 44.5307C404.353 42.5707 402.043 41.5907 398.823 41.5907C397.423 41.5907 396.058 41.8007 394.728 42.2207C393.468 42.5707 392.313 43.1307 391.263 43.9007C390.283 44.6007 389.478 45.5107 388.848 46.6307C388.218 47.6807 387.903 48.9407 387.903 50.4107V86.6357H374.463Z" fill="black"/>
<path d="M453.306 86.6355C448.686 86.6355 445.151 85.4456 442.701 83.0656C440.321 80.6156 439.131 77.1505 439.131 72.6705V42.5355H431.046V31.8255H435.246C437.276 31.8255 438.641 31.3705 439.341 30.4605C440.111 29.4805 440.496 28.0455 440.496 26.1555V16.8105H452.571V31.8255H463.806V42.5355H452.571V75.9256H462.966V86.6355H453.306Z" fill="black"/>
<path d="M482.184 23.8457C479.384 23.8457 477.354 23.2157 476.094 21.9557C474.904 20.6957 474.309 19.0857 474.309 17.1257V15.0257C474.309 13.0657 474.904 11.4557 476.094 10.1957C477.354 8.93566 479.384 8.30566 482.184 8.30566C484.914 8.30566 486.909 8.93566 488.169 10.1957C489.429 11.4557 490.059 13.0657 490.059 15.0257V17.1257C490.059 19.0857 489.429 20.6957 488.169 21.9557C486.909 23.2157 484.914 23.8457 482.184 23.8457ZM475.464 31.8257H488.904V86.6357H475.464V31.8257Z" fill="black"/>
<path d="M526.113 87.8954C522.053 87.8954 518.448 87.2304 515.298 85.9004C512.148 84.5704 509.488 82.6454 507.318 80.1254C505.218 77.6054 503.608 74.5954 502.488 71.0954C501.368 67.5254 500.808 63.5354 500.808 59.1254C500.808 54.7154 501.368 50.7604 502.488 47.2604C503.608 43.7604 505.218 40.7854 507.318 38.3354C509.488 35.8154 512.148 33.8904 515.298 32.5604C518.448 31.2304 522.053 30.5654 526.113 30.5654C531.643 30.5654 536.193 31.7904 539.763 34.2404C543.403 36.6904 546.028 40.0854 547.638 44.4254L536.613 49.3604C535.983 47.0504 534.793 45.1604 533.043 43.6904C531.363 42.1504 529.053 41.3804 526.113 41.3804C522.333 41.3804 519.498 42.5704 517.608 44.9504C515.788 47.3304 514.878 50.4454 514.878 54.2954V64.2704C514.878 68.1204 515.788 71.2354 517.608 73.6154C519.498 75.9254 522.333 77.0804 526.113 77.0804C529.333 77.0804 531.818 76.2754 533.568 74.6654C535.318 72.9854 536.683 70.9204 537.663 68.4704L547.953 73.4054C546.133 78.2354 543.368 81.8754 539.658 84.3254C535.948 86.7054 531.433 87.8954 526.113 87.8954Z" fill="black"/>
<path d="M609.329 86.6357L603.449 67.9457H577.409L571.634 86.6357H557.564L582.134 13.3457H599.354L623.714 86.6357H609.329ZM590.639 25.9457H590.114L580.769 56.0807H600.089L590.639 25.9457Z" fill="black"/>
<path d="M631.472 86.6357V75.5057H641.132V24.4757H631.472V13.3457H664.757V24.4757H654.992V75.5057H664.757V86.6357H631.472Z" fill="black"/>
</svg>
