<svg width="383" height="120" viewBox="0 0 383 120" fill="none" xmlns="http://www.w3.org/2000/svg">
<path fill-rule="evenodd" clip-rule="evenodd" d="M339.252 62.3141C339.252 48.9256 349.157 41.1571 361.539 41.1571C370.784 41.1571 379.038 45.62 383 56.6942C381.844 62.3141 374.911 68.5949 371.939 69.587C369.463 64.2978 366.656 61.157 364.015 61.157C360.713 61.157 360.548 63.4713 360.548 66.4462C360.548 68.5534 361.151 71.6569 361.876 75.3914C362.971 81.0321 364.345 88.1123 364.345 95.3721C364.345 108.595 355.1 118.347 340.903 118.347C327.903 118.347 320.719 109.815 317.514 96.1828C309.022 111.42 296.603 118.347 287.085 118.347C272.205 118.347 268.703 107.336 269.056 96.1661C263.077 106.746 251.568 118.347 240.531 118.347C229.263 118.347 225.283 108.528 226.196 97.0928C219.445 109.683 207.234 118.347 195.462 118.347C182.687 118.347 176.365 108.187 178.411 95.5927C169.817 106.169 153.819 118.347 137.187 118.347C118.222 118.347 109.967 108.108 108.989 95.2783C99.8359 109.966 87.4984 118.843 72.8029 118.843C51.5892 118.843 44.0016 99.9557 42.8974 84.5059C35.0354 95.0473 26.1962 105.984 15.353 118.182C14.1974 119.339 13.2069 120 12.0513 120C8.25433 120 0.49526 103.141 0 96.8595C3.2582 91.7977 23.7964 69.2044 40.3318 51.0148C46.1443 44.621 51.4621 38.7712 55.3606 34.4182C45.2341 37.4776 34.793 43.5793 21.6263 53.058C19.3151 54.711 12.8767 39.6695 13.0418 28.0992C28.2298 16.8595 51.3418 9.75209 69.9966 9.75209C96.0803 9.75209 111.103 24.2976 111.103 44.4629C111.103 61.3225 97.0707 79.8347 76.6 80.4961C65.9557 80.7727 59.1338 74.7905 55.6449 67.403C56.0617 78.8282 61.9951 92.8926 77.9207 92.8926C95.2823 92.8926 103.62 82.3995 116.053 66.7502C116.861 65.7334 117.686 64.6953 118.532 63.6364C129.098 50.5786 141.314 39.0083 159.143 39.0083C170.039 39.0083 177.468 45.7852 177.468 56.0333C177.468 68.4298 162.94 85.6197 142.635 85.6197C139.166 85.6197 136.005 85.1623 133.337 84.2582C133.27 84.7793 133.225 85.2922 133.225 85.7853C133.225 91.5703 135.371 95.0414 144.781 95.0414C158.648 95.0414 171.689 86.7769 187.538 67.4382C203.056 48.4298 214.777 40.1654 227.159 40.1654C235.517 40.1654 241.86 44.7007 244.655 52.3389C261.249 28.3432 275.327 11.3412 287.25 0C298.971 4.95869 307.39 14.7108 305.079 16.6942C296.33 24.6281 267.11 56.5291 255.553 75.5371C252.582 80.4961 249.775 85.9504 249.775 88.595C249.775 91.0745 251.261 91.901 252.912 91.901C260.845 91.901 276.74 73.1515 290.469 56.9582C295.598 50.9092 300.423 45.2172 304.419 40.9918C313.664 44.7935 323.074 52.8925 320.762 55.7026C308.546 70.2479 299.301 82.1491 299.301 88.9257C299.301 90.7438 299.962 91.901 302.438 91.901C307.061 91.901 311.352 87.7685 318.451 79.0082C319.937 77.1901 321.753 77.1901 322.909 80.0003C326.045 87.6034 330.668 91.7359 334.3 91.7359C338.592 91.7359 340.738 87.9341 340.738 82.1491C340.738 78.1953 340.256 73.5986 339.841 69.6407C339.528 66.6487 339.252 64.0217 339.252 62.3141ZM72.9683 60.1653C81.7178 60.1653 91.2928 55.3719 91.2928 45.62C91.2928 39.7017 87.6241 34.2455 77.8202 32.5841C77.3029 33.3932 76.7892 34.1974 76.2787 34.9969C71.297 42.7945 66.5987 50.1491 61.8572 57.338C64.6982 58.9355 68.2912 60.1653 72.9683 60.1653ZM161.454 63.1406C161.454 60.496 159.803 58.6779 157.162 58.6779C150.539 58.6779 140.549 67.9841 135.848 76.9709C137.583 77.6422 139.62 78.0166 141.809 78.0166C153.53 78.0166 161.454 69.0912 161.454 63.1406ZM204.872 87.1076C204.872 90.0829 206.523 92.0661 209.989 92.0661C220.72 92.0661 234.092 72.5623 234.092 64.6281C234.092 61.3225 232.276 59.3388 229.305 59.3388C219.565 59.3388 204.872 77.8515 204.872 87.1076ZM342.717 27.4388C338.92 33.7198 333.142 40.8273 330.996 42.976C321.091 38.8438 311.846 30.5793 313.166 28.2652C316.798 21.819 322.741 14.8768 324.888 12.7281C334.792 16.8603 344.038 25.29 342.717 27.4388Z" fill="#FF4438"/>
</svg>
