<svg width="3141" height="856" viewBox="0 0 3141 856" fill="none" xmlns="http://www.w3.org/2000/svg">
<path d="M2711.34 398.242H2865.98C2861.63 355.389 2836.79 326.82 2790.21 326.82C2746.74 326.82 2719.41 354.768 2711.34 398.242ZM2790.21 582.697C2695.81 582.697 2647.37 513.138 2647.37 428.053C2647.37 342.968 2703.26 273.409 2791.45 273.409C2879.65 273.409 2928.71 341.726 2928.71 419.979C2928.71 429.295 2928.09 442.337 2926.85 447.927H2709.47C2712.58 495.748 2739.29 529.286 2787.11 529.286C2826.23 529.286 2849.83 511.275 2859.77 476.496H2923.12C2908.84 539.223 2866.6 582.697 2790.21 582.697V582.697ZM2310.75 425.569C2310.75 336.136 2365.41 273.409 2446.15 273.409C2501.42 273.409 2537.44 305.704 2551.1 349.179C2551.73 351.042 2553.59 351.042 2553.59 349.179V278.378H2611.97V540.465C2611.97 633.624 2560.42 696.351 2457.95 696.351C2378.45 696.351 2328.14 655.982 2320.69 596.36H2384.04C2389.01 621.202 2407.64 642.94 2459.19 642.94C2524.4 642.94 2552.35 601.95 2553.59 542.328L2554.21 504.443C2554.21 502.58 2552.35 502.58 2551.73 504.443C2537.44 549.781 2497.07 577.728 2446.15 577.728C2365.41 577.728 2310.75 515.001 2310.75 425.569V425.569ZM2546.14 425.569C2546.14 368.431 2511.98 326.82 2459.19 326.82C2400.19 326.82 2372.86 368.431 2372.86 425.569C2372.86 482.706 2400.19 524.317 2459.19 524.317C2511.98 524.317 2546.14 482.085 2546.14 425.569ZM2137.48 278.378H2192.75L2192.13 349.179C2192.13 351.042 2194 351.042 2194.62 349.179C2210.14 304.462 2230.02 273.409 2299.58 273.409V332.41C2220.7 329.926 2197.1 374.021 2197.1 436.127V578.349H2137.48V278.378V278.378ZM1870.42 428.053C1870.42 485.191 1898.37 529.286 1953.65 529.286C2008.92 529.286 2036.87 485.191 2036.87 428.053C2036.87 370.916 2008.92 326.82 1953.65 326.82C1898.37 326.82 1870.42 370.916 1870.42 428.053ZM2100.22 428.053C2100.22 513.759 2044.94 582.697 1953.65 582.697C1862.35 582.697 1807.08 513.759 1807.08 428.053C1807.08 342.347 1862.35 273.409 1953.65 273.409C2044.94 273.409 2100.22 342.347 2100.22 428.053ZM1654.3 578.349V329.926H1608.34V278.378H1655.54V270.925C1655.54 198.882 1695.29 156.029 1797.14 160.998V217.514C1733.79 211.303 1713.92 233.661 1713.92 278.378H1797.14V329.926H1713.92V578.349H1654.3V578.349ZM1374.24 398.242H1528.88C1524.53 355.389 1499.69 326.82 1453.11 326.82C1409.64 326.82 1382.31 354.768 1374.24 398.242ZM1453.11 582.697C1358.71 582.697 1310.27 513.138 1310.27 428.053C1310.27 342.968 1366.16 273.409 1454.35 273.409C1542.54 273.409 1591.61 341.726 1591.61 419.979C1591.61 429.295 1590.99 442.337 1589.74 447.927H1372.37C1375.48 495.748 1402.18 529.286 1450.01 529.286C1489.13 529.286 1512.73 511.275 1522.67 476.496H1586.02C1571.73 539.223 1529.5 582.697 1453.11 582.697V582.697ZM1035.14 371.537H1120.84C1181.71 371.537 1215.87 345.452 1215.87 295.146C1215.87 249.809 1191.02 223.725 1125.19 223.725H1035.14V371.537ZM971.169 578.349V169.071H1123.33C1233.26 169.071 1279.84 216.272 1279.84 288.936C1279.84 342.968 1245.68 394.516 1161.21 398.242C1159.35 398.242 1159.35 400.726 1161.21 400.726C1248.78 410.663 1294.74 485.812 1294.74 578.349H1227.67C1227.67 496.37 1191.65 426.19 1104.08 426.19H1035.14V578.349H971.169Z" fill="#080A0A"/>
<g clip-path="url(#clip0_1_13)">
<path d="M297.024 163.897C295.467 163.238 295.851 160.927 297.539 160.833C338.559 158.428 379.87 161.499 404.324 166.874C447.742 176.428 486.836 193.531 513.775 235.312C525.343 253.254 533.753 273.036 536.411 293.362C536.585 294.673 535.578 295.839 534.26 295.839H387.526C386.374 295.839 385.44 294.948 385.36 293.804C382.238 246.278 356.741 189.076 297.024 163.897Z" fill="#080A0A"/>
<path d="M680.675 573.675C682.232 574.335 681.848 576.645 680.161 576.74C639.14 579.144 597.83 576.073 573.375 570.698C529.957 561.144 490.864 544.042 463.925 502.261C452.357 484.318 443.947 464.536 441.288 444.21C441.114 442.899 442.121 441.733 443.44 441.733H590.181C591.332 441.733 592.267 442.624 592.346 443.769C595.468 491.294 620.966 548.497 680.675 573.675Z" fill="#080A0A"/>
<path d="M375.799 309.812C376.726 308.508 375.386 306.806 373.908 307.407C338.574 321.895 184.763 395.482 216.215 495.459C243.871 582.534 390.829 578.883 424.729 576.841C426.417 576.739 426.794 574.436 425.236 573.784C364.578 548.265 339.19 489.736 336.698 442.102C334.894 407.601 343.797 354.817 375.799 309.812V309.812Z" fill="#080A0A"/>
<path d="M602.234 427.76C601.306 429.063 602.647 430.766 604.124 430.165C639.459 415.685 793.277 342.09 761.825 242.113C734.169 155.038 587.203 158.689 553.303 160.724C551.623 160.826 551.239 163.122 552.796 163.781C613.461 189.3 638.85 247.828 641.342 295.47C643.146 329.971 634.243 382.755 602.241 427.76H602.234Z" fill="#080A0A"/>
</g>
<defs>
<clipPath id="clip0_1_13">
<rect width="554.042" height="417.572" fill="white" transform="translate(211.999 160)"/>
</clipPath>
</defs>
</svg>
