<svg width="207" height="48" viewBox="0 0 207 48" fill="none" xmlns="http://www.w3.org/2000/svg">
<g clip-path="url(#clip0_900_4008)">
<path d="M206.47 16.3579V13.5149C206.47 13.0267 206.06 12.6534 205.531 12.6534H195.347V7.13939C195.347 6.6512 194.936 6.27785 194.407 6.27785H190.535C190.006 6.27785 189.595 6.67986 189.595 7.13939V12.6534H183.579C183.05 12.6534 182.639 13.0554 182.639 13.5149V16.3579C182.639 16.8461 183.05 17.2194 183.579 17.2194H189.595V25.6627C189.595 32.1242 192.705 35.1109 199.399 35.1109H204.855C205.384 35.1109 205.795 34.7088 205.795 34.2493V31.4064C205.795 30.9182 205.384 30.5448 204.855 30.5448H200.277C196.639 30.5448 195.347 29.1376 195.347 25.6339V17.2483H205.531C206.06 17.2194 206.47 16.8174 206.47 16.3579Z" fill="black"/>
<path d="M175.86 3.98042H170.577C170.048 3.98042 169.638 4.38244 169.638 4.84197V8.48916C169.638 8.97735 170.048 9.3507 170.577 9.3507H175.86C176.388 9.3507 176.799 8.94869 176.799 8.48916V4.84197C176.769 4.35378 176.359 3.98042 175.86 3.98042Z" fill="black"/>
<path d="M176.564 30.5448V13.5149C176.564 13.0267 176.153 12.6533 175.625 12.6533H163.797C163.269 12.6533 162.858 13.0553 162.858 13.5149V16.3578C162.858 16.846 163.269 17.2194 163.797 17.2194H170.812V30.5448H163.797C163.269 30.5448 162.858 30.9468 162.858 31.4063V34.2493C162.858 34.7375 163.269 35.1108 163.797 35.1108H183.754C184.283 35.1108 184.694 34.7088 184.694 34.2493V31.4063C184.694 30.9181 184.283 30.5448 183.754 30.5448H176.564Z" fill="black"/>
<path d="M158.426 30.5448H152.439V4.84197C152.439 4.35378 152.028 3.98042 151.5 3.98042H139.76C139.232 3.98042 138.821 4.38244 138.821 4.84197V7.68513C138.821 8.17332 139.232 8.54667 139.76 8.54667H146.687V30.5448H138.909C138.381 30.5448 137.97 30.9469 137.97 31.4064V34.2493C137.97 34.7375 138.381 35.1109 138.909 35.1109H158.426C158.955 35.1109 159.365 34.7089 159.365 34.2493V31.4064C159.365 30.9182 158.955 30.5448 158.426 30.5448Z" fill="black"/>
<path d="M126.553 12.2225C124.558 12.2225 123.119 12.6534 122.004 13.6871L120.625 14.9795H119.363L118.893 13.3139C118.776 12.9406 118.424 12.6534 117.983 12.6534H115.342C114.814 12.6534 114.403 13.0554 114.403 13.5149V42.9223C114.403 43.4105 114.814 43.7838 115.342 43.7838H119.216C119.744 43.7838 120.155 43.3818 120.155 42.9223V36.5468L119.656 33.1295L120.948 32.8423L122.327 34.1345C123.413 35.1109 124.734 35.5991 126.7 35.5991C132.394 35.5991 135.828 31.7509 135.828 23.9108C135.798 16.0707 132.394 12.2225 126.553 12.2225ZM124.646 30.8893C121.74 30.8893 120.126 29.4248 120.126 26.6391V21.1251C120.126 18.3395 121.711 16.8749 124.646 16.8749C128.197 16.8749 129.811 19.0576 129.811 23.8535C129.782 28.7067 128.197 30.8893 124.646 30.8893Z" fill="black"/>
<path d="M97.9965 12.2225C90.6007 12.2225 86.6384 16.0707 86.6384 23.8821C86.6384 31.7222 90.5712 35.5704 97.8498 35.5704C103.485 35.5704 107.124 33.273 108.093 29.3386C108.239 28.7929 107.77 28.276 107.183 28.276H103.661C103.279 28.276 102.927 28.5057 102.78 28.8504C102.164 30.5448 100.403 31.3489 98.026 31.3489C94.328 31.3489 92.567 29.3672 92.3321 24.7437H108.386C109.267 16.0996 105.598 12.2225 97.9965 12.2225ZM92.5082 21.24C93.0659 17.8513 94.7976 16.2717 97.9672 16.2717C101.342 16.2717 102.927 18.0237 103.015 21.24H92.5082Z" fill="black"/>
<path d="M75.1923 13.6584L73.8715 14.9508H72.5509L72.1401 13.3139C72.052 12.9117 71.6704 12.6534 71.2301 12.6534H62.7777C62.2495 12.6534 61.8384 13.0554 61.8384 13.5149V16.3579C61.8384 16.8461 62.2495 17.2194 62.7777 17.2194H67.767V30.5448H61.956C61.4276 30.5448 61.0167 30.9468 61.0167 31.4064V34.2493C61.0167 34.7375 61.4276 35.1109 61.956 35.1109H80.2404C80.7686 35.1109 81.1795 34.7089 81.1795 34.2493V31.4064C81.1795 30.9182 80.7686 30.5448 80.2404 30.5448H73.5195V21.1251C73.5195 18.4832 75.1043 17.1046 78.2153 17.1046H83.2634C83.7916 17.1046 84.2025 16.7026 84.2025 16.2431V13.1127C84.2025 12.6245 83.7916 12.2512 83.2634 12.2512H80.2697C78.0685 12.2225 76.337 12.6245 75.1923 13.6584Z" fill="black"/>
<path d="M0 2.98526C0 1.3366 1.36596 0 3.05084 0H17.2881C18.9729 0 20.3389 1.3366 20.3389 2.98526V15.9214H3.05084C1.36596 15.9214 0 14.5848 0 12.9361V2.98526Z" fill="#F26207"/>
<path d="M20.3389 15.9214H37.627C39.3119 15.9214 40.6778 17.258 40.6778 18.9067V28.8576C40.6778 30.5062 39.3119 31.8428 37.627 31.8428H20.3389V15.9214Z" fill="#F26207"/>
<path d="M0 34.828C0 33.1794 1.36596 31.8428 3.05084 31.8428H20.3389V44.7789C20.3389 46.4276 18.9729 47.7642 17.2881 47.7642H3.05084C1.36596 47.7642 0 46.4276 0 44.7789V34.828Z" fill="#F26207"/>
</g>
<defs>
<clipPath id="clip0_900_4008">
<rect width="207" height="48" fill="white"/>
</clipPath>
</defs>
</svg>
