<svg width="137" height="32" viewBox="0 0 137 32" fill="none" xmlns="http://www.w3.org/2000/svg">
<g clip-path="url(#clip0_125_414)">
<mask id="mask0_125_414" style="mask-type:luminance" maskUnits="userSpaceOnUse" x="0" y="0" width="137" height="32">
<path d="M137 0H0V32H137V0Z" fill="white"/>
</mask>
<g mask="url(#mask0_125_414)">
<path d="M136.649 10.9052V9.00988C136.649 8.68441 136.378 8.43555 136.028 8.43555H129.288V4.75954C129.288 4.43408 129.016 4.18518 128.666 4.18518H126.103C125.753 4.18518 125.481 4.45319 125.481 4.75954V8.43555H121.499C121.149 8.43555 120.877 8.70355 120.877 9.00988V10.9052C120.877 11.2307 121.149 11.4795 121.499 11.4795H125.481V17.1084C125.481 21.4161 127.539 23.4072 131.969 23.4072H135.58C135.93 23.4072 136.203 23.1391 136.203 22.8328V20.9375C136.203 20.6121 135.93 20.3631 135.58 20.3631H132.55C130.143 20.3631 129.288 19.425 129.288 17.0892V11.4988H136.028C136.378 11.4795 136.649 11.2115 136.649 10.9052Z" fill="#14171F"/>
<path d="M116.39 2.65356H112.894C112.544 2.65356 112.272 2.92158 112.272 3.22793V5.65939C112.272 5.98485 112.544 6.23375 112.894 6.23375H116.39C116.74 6.23375 117.012 5.96574 117.012 5.65939V3.22793C116.992 2.90247 116.721 2.65356 116.39 2.65356Z" fill="#14171F"/>
<path d="M116.856 20.3632V9.00995C116.856 8.68448 116.584 8.43555 116.235 8.43555H108.407C108.057 8.43555 107.785 8.70355 107.785 9.00995V10.9052C107.785 11.2307 108.057 11.4796 108.407 11.4796H113.049V20.3632H108.407C108.057 20.3632 107.785 20.6312 107.785 20.9375V22.8329C107.785 23.1583 108.057 23.4072 108.407 23.4072H121.615C121.965 23.4072 122.237 23.1392 122.237 22.8329V20.9375C122.237 20.6121 121.965 20.3632 121.615 20.3632H116.856Z" fill="#14171F"/>
<path d="M104.852 20.3632H100.89V3.22793C100.89 2.90247 100.618 2.65356 100.268 2.65356H92.4982C92.1487 2.65356 91.8767 2.92158 91.8767 3.22793V5.12337C91.8767 5.44883 92.1487 5.69773 92.4982 5.69773H97.0827V20.3632H91.9349C91.5855 20.3632 91.3135 20.6312 91.3135 20.9376V22.8328C91.3135 23.1583 91.5855 23.4072 91.9349 23.4072H104.852C105.202 23.4072 105.473 23.1392 105.473 22.8328V20.9376C105.473 20.6121 105.202 20.3632 104.852 20.3632Z" fill="#14171F"/>
<path d="M83.7573 8.14832C82.4369 8.14832 81.4846 8.43558 80.7466 9.12472L79.8339 9.98632H78.9987L78.6876 8.87592C78.6102 8.62705 78.3772 8.43558 78.0854 8.43558H76.3375C75.988 8.43558 75.716 8.70358 75.716 9.00992V28.6148C75.716 28.9403 75.988 29.1892 76.3375 29.1892H78.9014C79.2509 29.1892 79.5229 28.9212 79.5229 28.6148V24.3645L79.1926 22.0863L80.0477 21.8948L80.9604 22.7563C81.6791 23.4072 82.5534 23.7327 83.8546 23.7327C87.6231 23.7327 89.8958 21.1672 89.8958 15.9405C89.876 10.7138 87.6231 8.14832 83.7573 8.14832ZM82.4952 20.5928C80.5719 20.5928 79.5037 19.6165 79.5037 17.7594V14.0834C79.5037 12.2263 80.5527 11.2499 82.4952 11.2499C84.8454 11.2499 85.9136 12.705 85.9136 15.9023C85.8944 19.1378 84.8454 20.5928 82.4952 20.5928Z" fill="#14171F"/>
<path d="M64.858 8.14844C59.9632 8.14844 57.3408 10.7139 57.3408 15.9215C57.3408 21.1482 59.9437 23.7137 64.7609 23.7137C68.4905 23.7137 70.8989 22.1821 71.5402 19.5592C71.6369 19.1954 71.3265 18.8508 70.938 18.8508H68.607C68.3542 18.8508 68.1212 19.0039 68.0239 19.2337C67.6162 20.3633 66.4507 20.8994 64.8775 20.8994C62.4301 20.8994 61.2646 19.5782 61.1091 16.4959H71.7342C72.3172 10.7332 69.889 8.14844 64.858 8.14844ZM61.2257 14.1601C61.5948 11.901 62.7409 10.8479 64.8386 10.8479C67.0722 10.8479 68.1212 12.0159 68.1794 14.1601H61.2257Z" fill="#14171F"/>
<path d="M49.765 9.10559L48.8908 9.96719H48.0168L47.7449 8.87592C47.6866 8.60779 47.434 8.43559 47.1426 8.43559H41.5485C41.199 8.43559 40.9269 8.70359 40.9269 9.00992V10.9053C40.9269 11.2307 41.199 11.4796 41.5485 11.4796H44.8506V20.3632H41.0047C40.655 20.3632 40.383 20.6312 40.383 20.9376V22.8329C40.383 23.1583 40.655 23.4073 41.0047 23.4073H53.106C53.4556 23.4073 53.7275 23.1393 53.7275 22.8329V20.9376C53.7275 20.6121 53.4556 20.3632 53.106 20.3632H48.6578V14.0834C48.6578 12.3221 49.7067 11.4031 51.7657 11.4031H55.1067C55.4563 11.4031 55.7282 11.1351 55.7282 10.8287V8.74179C55.7282 8.41632 55.4563 8.16746 55.1067 8.16746H53.1254C51.6685 8.14832 50.5226 8.41632 49.765 9.10559Z" fill="#14171F"/>
<path d="M0 1.99017C0 0.891067 0.904041 0 2.01916 0H11.4419C12.5569 0 13.461 0.891067 13.461 1.99017V10.6143H2.01916C0.904041 10.6143 0 9.7232 0 8.62407V1.99017Z" fill="#14171F"/>
<path d="M13.461 10.6143H24.9029C26.018 10.6143 26.922 11.5053 26.922 12.6045V19.2384C26.922 20.3375 26.018 21.2285 24.9029 21.2285H13.461V10.6143Z" fill="#14171F"/>
<path d="M0 23.2186C0 22.1196 0.904041 21.2285 2.01916 21.2285H13.461V29.8526C13.461 30.9517 12.5569 31.8428 11.4419 31.8428H2.01916C0.904041 31.8428 0 30.9517 0 29.8526V23.2186Z" fill="#14171F"/>
</g>
</g>
<defs>
<clipPath id="clip0_125_414">
<rect width="137" height="32" fill="white"/>
</clipPath>
</defs>
</svg>
