<svg width="244" height="120" viewBox="0 0 244 120" fill="none" xmlns="http://www.w3.org/2000/svg">
<g clip-path="url(#clip0_375_702)">
<path fill-rule="evenodd" clip-rule="evenodd" d="M96.6863 30.6514H157.272L120.015 104.757H152.632V119.676H95.8098L133.067 45.5703H96.6863V30.6514Z" fill="black"/>
<path fill-rule="evenodd" clip-rule="evenodd" d="M84.5137 30.6514V119.676H69.5881V30.6514H84.5137Z" fill="black"/>
<path fill-rule="evenodd" clip-rule="evenodd" d="M199.024 45.4433C182.673 45.4433 169.418 58.6926 169.418 75.0364C169.418 91.3803 182.673 104.63 199.024 104.63C215.375 104.63 228.63 91.3803 228.63 75.0364C228.63 58.6926 215.375 45.4433 199.024 45.4433ZM154.492 75.0364C154.492 50.4531 174.43 30.5244 199.024 30.5244C223.618 30.5244 243.556 50.4531 243.556 75.0364C243.556 99.6198 223.618 119.548 199.024 119.548C174.43 119.548 154.492 99.6198 154.492 75.0364Z" fill="black"/>
<path fill-rule="evenodd" clip-rule="evenodd" d="M44.8562 45.7309C28.5051 45.7309 15.25 58.9802 15.25 75.3239V119.677H0.324463V75.3239C0.324463 50.7407 20.262 30.812 44.8562 30.812H57.1064V45.7309H44.8562Z" fill="black"/>
<path fill-rule="evenodd" clip-rule="evenodd" d="M243.559 76.793V119.548H228.633V76.793H243.559Z" fill="black"/>
<path fill-rule="evenodd" clip-rule="evenodd" d="M243.559 30.5244V78.1702H228.633V30.5244H243.559Z" fill="black"/>
<path d="M84.1333 0.324219H69.8567V15.8918H84.1333V0.324219Z" fill="black"/>
<path fill-rule="evenodd" clip-rule="evenodd" d="M69.5322 0H84.4578V16.2162H69.5322V0ZM70.1812 0.648649V15.5676H83.8088V0.648649H70.1812Z" fill="black"/>
</g>
<defs>
<clipPath id="clip0_375_702">
<rect width="244" height="120" fill="white"/>
</clipPath>
</defs>
</svg>
