<?xml version="1.0" encoding="UTF-8"?><svg id="Layer_1" xmlns="http://www.w3.org/2000/svg" viewBox="0 0 600 99.74"><defs><style>.cls-1{fill:#ed7625;}.cls-1,.cls-2{stroke-width:0px;}.cls-2{fill:#182640;}</style></defs><path class="cls-2" d="M116.34,93.93c0,1.94.83,3.6,3.88,3.6,2.5,0,3.88-1.11,3.88-3.04,0-4.43-10.25-2.21-10.25-8.31,0-3.04,2.77-4.99,6.37-4.99,4.16,0,6.64,1.94,6.64,5.26h-3.04c0-1.66-1.11-3.04-3.33-3.04-1.94,0-3.33,1.11-3.33,2.77,0,4.16,10.25,1.66,10.25,8.31,0,3.33-3.04,5.26-6.64,5.26-4.98,0-7.2-2.21-7.2-5.81h2.77-.01Z"/><path class="cls-2" d="M168.15,81.73h3.33l-6.1,10.53v7.2h-3.04v-7.2l-6.1-10.53h3.33l4.43,7.76,4.16-7.76h0Z"/><path class="cls-2" d="M203.88,93.93c0,1.94.83,3.6,3.88,3.6,2.5,0,3.88-1.11,3.88-3.04,0-4.43-10.25-2.21-10.25-8.31,0-3.04,2.77-4.99,6.37-4.99,4.16,0,6.64,1.94,6.64,5.26h-3.04c0-1.66-1.11-3.04-3.33-3.04-1.94,0-3.33,1.11-3.33,2.77,0,4.16,10.25,1.66,10.25,8.31,0,3.33-3.04,5.26-6.64,5.26-4.98,0-7.2-2.21-7.2-5.81h2.77-.01Z"/><path class="cls-2" d="M257.62,81.73v2.21h-4.71v15.51h-3.04v-15.51h-4.71v-2.21h12.47Z"/><path class="cls-2" d="M289.2,99.46v-17.73h11.08v2.21h-8.03v4.98h8.03v2.5h-8.03v5.81h8.03v2.21h-11.08Z"/><path class="cls-2" d="M329.64,99.46v-17.73h4.43l4.71,13.03,4.43-13.03h4.43v17.73h-3.04v-13.57l-4.43,13.57h-2.5l-4.99-13.57v13.57h-3.04Z"/><path class="cls-2" d="M378.39,93.93c0,1.94.83,3.6,3.88,3.6,2.5,0,3.88-1.11,3.88-3.04,0-4.43-10.25-2.21-10.25-8.31,0-3.04,2.77-4.99,6.37-4.99,4.16,0,6.64,1.94,6.64,5.26h-3.04c0-1.66-1.11-3.04-3.33-3.04-1.94,0-3.33,1.11-3.33,2.77,0,4.16,10.25,1.66,10.25,8.31,0,3.33-3.04,5.26-6.64,5.26-4.99,0-7.2-2.21-7.2-5.81h2.77-.01Z"/><path class="cls-2" d="M435.74,68.99l-29.08-45.98h-.27v45.71h-8.59V9.72h9.41l28.81,45.15h.27V9.72h8.58v59.28h-9.14Z"/><path class="cls-2" d="M473.69,70.11c-14.96,0-23.82-12.47-23.82-23.54,0-12.18,10.25-23,23.82-23s23.82,10.53,23.82,23.27c.27,10.53-8.59,23.27-23.82,23.27ZM473.69,31.04c-9.41,0-15.51,7.76-15.51,15.78s6.37,15.78,15.51,15.78,15.51-7.48,15.51-15.78c.27-8.03-6.1-15.78-15.51-15.78Z"/><path class="cls-2" d="M518.84,68.99h-5.81l-17.73-44.32h8.87l11.64,31.58h.27l11.36-31.58h8.87l-17.45,44.32h-.01Z"/><path class="cls-2" d="M572.57,68.99v-6.93h-.27c-3.33,5.54-9.14,8.03-14.96,8.03-14.95,0-23.54-11.36-23.54-23,0-10.8,7.48-23.54,23.54-23.54,6.1,0,11.91,2.5,14.96,7.48h.27v-6.37h8.31v44.32h-8.31ZM557.61,31.04c-10.25,0-15.24,8.87-15.24,15.78,0,8.03,6.37,15.51,15.24,15.51s15.51-7.2,15.51-15.51c-.27-9.41-7.2-15.78-15.51-15.78Z"/><path class="cls-2" d="M121.88,51.27c0,1.94.83,10.53,9.41,10.53,5.26,0,9.41-3.6,9.41-9.97s-5.26-8.03-9.41-9.7c-7.76-3.04-9.7-3.88-12.47-6.64-2.77-2.5-3.88-6.93-3.88-11.08,0-6.93,5.26-16.07,16.34-16.07,9.7,0,16.9,6.37,16.9,16.34h-8.58c0-6.64-4.71-8.58-8.31-8.58-4.98,0-7.76,4.71-7.76,8.03,0,5.54,5.26,7.2,7.76,8.03,7.48,2.77,18.01,4.98,18.01,19.11,0,10.25-7.2,17.73-18.01,17.73-8.03,0-18.01-5.26-18.01-18.55h8.58v.83h.02Z"/><path class="cls-2" d="M193.08,68.72v-6.93h-.27c-3.04,5.26-8.87,8.03-14.95,8.03-14.96,0-23.27-11.36-23.27-23,0-10.8,7.48-23.27,23.27-23.27,6.1,0,11.64,2.5,14.95,7.48h.27v-6.37h8.31v44.05h-8.31ZM177.84,31.04c-10.25,0-14.95,8.87-14.95,15.78,0,8.03,6.37,15.51,14.95,15.51s15.24-7.2,15.24-15.51c0-9.41-6.64-15.78-15.24-15.78Z"/><path class="cls-2" d="M270.08,68.72v-24.38c0-3.6-.56-13.3-10.53-13.3s-10.25,9.41-10.25,13.3v24.65h-8.31v-24.65c0-3.6,0-6.1-1.94-9.14-1.94-3.04-5.26-4.16-8.31-4.16-10.8,0-10.8,9.97-10.8,13.03v24.65h-8.31V24.67h7.75v4.71h.27c1.66-1.94,4.43-6.1,12.74-6.1,5.26,0,11.35,2.5,13.57,7.48,1.39-2.21,4.71-7.48,14.4-7.48,7.48,0,12.74,3.04,15.51,8.03,1.66,2.77,2.5,6.37,2.5,10.8v26.59h-8.31.03Z"/><path class="cls-2" d="M288.92,68.72V9.99h8.31v20.78h.27c3.6-4.98,9.14-7.2,14.96-7.2,11.64,0,22.71,9.7,22.71,23.27,0,12.74-9.7,23-22.71,23-4.16,0-10.8-1.39-15.24-7.48h-.27v6.37h-8.03ZM311.92,62.35c8.03,0,14.96-6.93,14.96-15.51s-6.37-15.51-14.96-15.51c-9.14,0-14.95,7.76-14.95,15.51,0,9.7,7.75,15.51,14.95,15.51Z"/><path class="cls-2" d="M380.89,68.72v-6.93h-.27c-3.04,5.26-8.87,8.03-14.96,8.03-14.95,0-23.27-11.36-23.27-23,0-10.8,7.48-23.27,23.27-23.27,6.1,0,11.64,2.5,14.96,7.48h.27v-6.37h8.31v44.05h-8.31ZM365.65,31.04c-10.25,0-14.96,8.87-14.96,15.78,0,8.03,6.37,15.51,14.96,15.51s15.24-7.2,15.24-15.51c0-9.41-6.64-15.78-15.24-15.78Z"/><path class="cls-1" d="M99.73,99.74h-5.54V31.87c0-14.13-11.64-26.31-26.04-26.31H31.86c-14.4,0-26.04,11.63-26.04,25.77s11.64,25.77,26.04,25.77h3.6c6.1,0,11.08,4.98,11.08,11.08s-4.98,11.08-11.08,11.08H0v-5.54h35.18c3.04,0,5.54-2.5,5.54-5.26,0-3.04-2.5-5.26-5.54-5.26h-3.6C14.4,62.89,0,48.77,0,31.33S14.4.02,31.86.02h36.56c17.17,0,31.31,14.68,31.31,31.85v67.87Z"/><path class="cls-1" d="M35.74,52.92c7.76.27,15.24,7.2,15.24,15.51s-6.93,15.51-15.51,15.51H0v5.54h35.18c11.64,0,21.33-9.41,21.33-21.05,0-3.04-.56-5.81-1.94-8.58-1.11-2.5-3.04-4.98-4.98-6.93-2.21-1.94-4.71-3.33-7.48-4.43-3.33-1.11-6.64-.83-10.25-1.11-1.94,0-6.37-1.11-8.87-2.77-2.5-1.66-4.43-3.88-5.54-6.37-.83-2.21-1.39-4.43-1.39-6.93,0-8.58,6.93-15.51,15.51-15.51h36.56c8.58,0,15.51,7.48,15.51,15.78v68.14h5.54V31.87c0-11.64-9.41-21.61-21.05-21.61H31.86c-11.64,0-21.33,9.41-21.33,21.05,0,3.04.56,5.81,1.94,8.58,1.11,2.5,2.77,4.98,4.98,6.93,1.94,1.94,4.71,3.33,7.2,4.43,1.39.56,2.77.83,4.43,1.11,3.88.27,6.37.56,6.64.56h.01Z"/><path class="cls-1" d="M35.18,99.74H0v-5.54h35.18c14.4,0,26.04-11.64,26.04-25.77s-11.64-25.77-26.04-25.77h-3.6c-6.1,0-11.08-4.99-11.08-11.08s4.99-11.08,11.08-11.08h36.56c6.1,0,11.08,5.26,11.08,11.36v67.87h-5.54V31.87c0-3.04-2.5-5.81-5.26-5.81H31.86c-3.04,0-5.26,2.5-5.26,5.26s2.5,5.26,5.54,5.26h3.6c17.45,0,31.58,14.13,31.58,31.31-.27,17.73-14.68,31.85-32.14,31.85h0Z"/><path class="cls-2" d="M595.51,30.72c.23-.33.34-.73.34-1.19s-.11-.84-.33-1.14c-.21-.31-.47-.53-.78-.68-.3-.15-.59-.22-.85-.22h-3.24v6.39h1.4v-2.17h1.39l1.12,2.17h1.54l-1.32-2.49c.28-.16.52-.38.72-.66ZM592.06,28.52h1.33c.17,0,.36.07.58.21.23.14.34.4.34.8s-.11.67-.34.86c-.22.19-.42.29-.61.29h-1.3v-2.15Z"/><path class="cls-2" d="M599.47,28.06c-.36-.84-.85-1.57-1.49-2.21-.63-.64-1.37-1.13-2.21-1.49-.84-.36-1.73-.54-2.69-.54s-1.86.18-2.69.54c-.84.36-1.57.85-2.21,1.49-.63.63-1.13,1.37-1.49,2.21-.36.84-.54,1.73-.54,2.69s.18,1.86.54,2.69c.36.84.85,1.57,1.49,2.21.63.63,1.37,1.13,2.21,1.49.84.36,1.73.54,2.69.54s1.86-.18,2.69-.54c.84-.36,1.57-.85,2.21-1.49.63-.64,1.13-1.37,1.49-2.21.36-.84.54-1.73.54-2.69s-.18-1.86-.54-2.69ZM597.63,33.41c-.47.8-1.11,1.43-1.9,1.9-.8.47-1.68.71-2.65.71s-1.85-.24-2.65-.71c-.79-.47-1.43-1.11-1.9-1.9-.47-.8-.71-1.68-.71-2.65s.24-1.85.71-2.65c.47-.8,1.11-1.43,1.9-1.9.8-.47,1.68-.71,2.65-.71s1.85.24,2.65.71c.8.47,1.43,1.11,1.9,1.9.47.8.71,1.68.71,2.65s-.24,1.85-.71,2.65Z"/></svg>