<svg width="545" height="120" viewBox="0 0 545 120" fill="none" xmlns="http://www.w3.org/2000/svg">
<g clip-path="url(#clip0_375_332)">
<path d="M338.772 77.1273L298.551 25.1455H288.523V94.8273H298.687V41.4273L340.053 94.8273H348.936V25.1455H338.772V77.1273ZM237.484 64.2H273.536V55.1455H237.457V34.1728H278.141V25.1182H227.102V94.8273H278.659V85.7728H237.457L237.484 64.2ZM195.083 55.3637C181.049 51.9819 177.125 49.3091 177.125 42.8182C177.125 36.9819 182.275 33.0273 189.96 33.0273C196.958 33.2324 203.708 35.669 209.226 39.9819L214.676 32.2637C207.69 26.7832 199.024 23.8922 190.151 24.0819C176.362 24.0819 166.743 32.2637 166.743 43.9091C166.743 56.4546 174.918 60.7909 189.796 64.4182C203.04 67.4728 207.1 70.3091 207.1 76.6637C207.1 83.0182 201.65 86.9455 193.23 86.9455C184.847 86.9071 176.781 83.7362 170.612 78.0546L164.481 85.3909C172.382 92.1852 182.459 95.9117 192.876 95.8909C207.809 95.8909 217.401 87.8455 217.401 75.4091C217.319 64.8819 211.106 59.2364 195.083 55.3637ZM533.283 25.1455L512.327 57.8728L491.508 25.1455H479.355L506.85 67.2819V94.8546H517.314V66.9546L545 25.1455H533.283ZM357.166 34.5819H379.974V94.8546H390.438V34.5819H413.246V25.1455H357.193L357.166 34.5819ZM461.642 67.6364C472.161 64.7182 477.992 57.3546 477.992 46.8273C477.992 33.4364 468.21 25.0091 452.432 25.0091H421.476V94.8H431.831V69.7637H449.407L467.065 94.8546H479.164L460.089 68.0728L461.642 67.6364ZM431.804 60.8182V34.3637H451.342C461.533 34.3637 467.365 39.1909 467.365 47.5637C467.365 55.9364 461.125 60.8182 451.451 60.8182H431.804ZM79.0251 6.16367C77.893 4.28328 76.2945 2.72768 74.3847 1.64782C72.4749 0.567952 70.3186 0.000488281 68.1251 0.000488281C65.9315 0.000488281 63.7753 0.567952 61.8655 1.64782C59.9556 2.72768 58.3571 4.28328 57.2251 6.16367L39.2946 36.9C52.9927 43.7446 64.6637 54.0563 73.1487 66.8112C81.6337 79.566 86.6375 94.3203 87.6633 109.609H75.0738C74.0499 96.5038 69.6245 83.8932 62.2355 73.0252C54.8465 62.1573 44.7501 53.4088 32.9453 47.6455L16.3501 76.3637C22.9863 79.3424 28.7678 83.9432 33.1629 89.7431C37.5579 95.5429 40.4255 102.356 41.5018 109.555H12.5896C12.2467 109.53 11.9152 109.421 11.6251 109.236C11.3349 109.052 11.0953 108.798 10.9276 108.498C10.76 108.197 10.6697 107.86 10.6649 107.516C10.6601 107.172 10.7409 106.832 10.9001 106.527L18.9116 92.8909C16.1973 90.6244 13.0952 88.8688 9.75557 87.7091L1.82582 101.345C1.0003 102.763 0.464371 104.33 0.249179 105.956C0.0339863 107.582 0.143818 109.235 0.572292 110.819C1.00077 112.402 1.73934 113.884 2.74511 115.18C3.75089 116.475 5.0038 117.557 6.43107 118.364C8.31159 119.424 10.4311 119.987 12.5896 120H52.1838C52.9192 110.918 51.2987 101.801 47.4795 93.5297C43.6602 85.2589 37.7715 78.1153 30.3838 72.7909L36.6786 61.8819C46.002 68.2907 53.4945 77.022 58.4166 87.2141C63.3387 97.4061 65.5203 108.706 64.7461 120H98.2908C99.072 102.892 95.3532 85.878 87.5061 70.6589C79.659 55.4397 67.9584 42.5482 53.5736 33.2728L66.2993 11.4546C66.5829 10.9791 67.0426 10.6349 67.5785 10.497C68.1144 10.3591 68.683 10.4386 69.1606 10.7182C70.6048 11.5091 124.451 105.545 125.459 106.636C125.637 106.955 125.727 107.315 125.721 107.68C125.715 108.045 125.613 108.402 125.425 108.715C125.237 109.027 124.97 109.285 124.65 109.461C124.331 109.637 123.971 109.726 123.606 109.718H110.635C110.799 113.191 110.799 116.655 110.635 120.109H123.661C125.315 120.12 126.954 119.802 128.485 119.175C130.015 118.547 131.406 117.622 132.577 116.452C133.748 115.283 134.676 113.893 135.306 112.363C135.936 110.832 136.257 109.192 136.25 107.536C136.252 105.35 135.668 103.203 134.561 101.318L79.0251 6.16367Z" fill="black"/>
</g>
<defs>
<clipPath id="clip0_375_332">
<rect width="545" height="120" fill="white"/>
</clipPath>
</defs>
</svg>
