<svg width="432" height="145" viewBox="0 0 432 145" fill="none" xmlns="http://www.w3.org/2000/svg">
<path d="M119.7 75.6247C124.451 80.1602 126.654 85.7684 127.155 92.0689C127.559 97.1363 127.419 102.21 126.369 107.214C126.267 107.7 126.039 108.261 125.682 108.575C120.928 112.759 115.748 116.254 109.687 118.297C104.083 120.187 98.5007 120.384 92.9742 118.031C92.1587 117.684 91.4583 117.075 90.6658 116.662C90.1429 116.39 89.5505 116.25 88.9892 116.051C88.9081 116.604 88.7277 117.163 88.7622 117.708C88.985 121.229 88.282 124.538 86.6205 127.648C83.5645 133.368 78.7801 137.252 73.1354 140.152C70.4665 141.523 67.6802 142.672 64.9128 143.841C64.3226 144.09 63.4942 144.223 62.9265 144.009C55.8661 141.347 49.0948 138.166 44.0022 132.331C40.3282 128.122 38.1798 123.321 38.6604 117.577C38.7014 117.087 38.4838 116.576 38.3864 116.074C37.9176 116.223 37.3857 116.276 36.9893 116.535C30.0442 121.082 22.8215 120.349 15.6006 117.492C10.5049 115.476 5.93577 112.472 1.95036 108.719C1.08726 107.906 0.760865 106.292 0.605576 104.997C-0.248064 97.8784 -0.547467 90.7669 2.13306 83.9043C3.95898 79.2296 6.86372 75.4547 11.4593 73.158C11.9475 72.914 12.3731 72.5446 13.0625 72.0726C11.6894 71.1825 10.5516 70.4685 9.43785 69.7188C4.83841 66.6226 2.37219 62.0922 1.09157 56.8766C-0.548648 50.1964 -0.161153 43.4715 1.07305 36.7712C1.16108 36.2933 1.44001 35.7499 1.803 35.4384C6.68435 31.2485 11.9316 27.65 18.136 25.675C23.7652 23.8832 29.3544 23.742 34.8215 26.2858C35.7237 26.7056 36.5486 27.3043 37.376 27.869C38.2817 28.4873 38.6505 28.0967 38.6871 27.1906C38.7295 26.1427 38.6383 25.0893 38.6819 24.0415C38.9213 18.2969 41.7784 13.8396 45.7436 9.97675C50.5746 5.27031 56.544 2.49168 62.7587 0.174554C63.3113 -0.0314858 64.069 -0.0684582 64.611 0.135727C71.5276 2.7413 78.1191 5.92542 83.1735 11.5384C86.8311 15.6001 89.0529 20.2784 88.762 25.9052C88.7402 26.3275 88.7168 26.7512 88.727 27.1735C88.7494 28.1009 89.0781 28.5091 89.9906 27.8854C96.697 23.3015 103.735 23.6315 110.994 26.3681C116.358 28.3907 121.048 31.461 125.3 35.2416C125.806 35.6916 126.242 36.4113 126.366 37.0708C127.628 43.783 127.959 50.5357 126.235 57.1978C124.674 63.2324 121.585 68.2625 115.702 71.1019C115.289 71.3011 114.922 71.5955 114.304 71.9941C116.195 73.26 117.906 74.4049 119.7 75.6247ZM61.3255 48.632C58.2609 49.4032 56.0217 51.2294 54.7774 54.1077C54.3132 55.1815 53.8582 55.4719 52.6846 55.367C48.1545 54.962 44.6278 56.8944 42.7329 60.9138C41.1254 64.3235 41.3744 67.9274 43.8917 71.0509C44.4501 71.7437 44.4634 72.2525 43.9157 72.9914C41.3296 76.4801 41.11 80.1974 43.2086 83.9705C45.3263 87.7777 48.7821 89.1065 52.9502 88.7396C53.9726 88.6496 54.341 88.981 54.7012 89.828C56.3102 93.6121 59.3682 95.6062 63.3162 95.798C67.2392 95.9884 70.4423 94.2262 72.2054 90.5954C72.936 89.0908 73.7617 88.6888 75.3499 88.8014C78.6875 89.0381 81.5262 87.6895 83.4824 85.0587C86.1713 81.4426 86.3684 77.476 83.8572 73.6732C82.9878 72.3567 83.1257 71.5353 83.9158 70.3596C86.1327 67.061 86.1892 63.5229 84.2161 60.1799C82.1546 56.687 78.9021 54.9473 74.7804 55.3557C73.5232 55.4803 73.048 55.1219 72.5389 54.0354C70.5083 49.7012 65.9127 47.4694 61.3255 48.632ZM67.0769 110.006C66.2295 108.804 65.4021 107.587 64.5223 106.409C64.2633 106.063 63.8884 105.695 63.502 105.6C63.3239 105.556 62.9006 106.106 62.7409 106.456C61.0695 110.121 58.1304 112.232 54.4033 113.468C50.3682 114.807 46.2526 114.403 42.1431 114.157C40.4831 114.057 40.1568 114.351 40.866 115.866C41.6002 117.435 42.3903 119.015 43.4062 120.407C49.4678 128.716 57.5244 132.507 67.8418 130.817C75.3379 129.589 80.8918 125.393 84.9287 119.112C85.8391 117.696 86.3494 116.022 87.1938 114.132C86.2601 114.132 85.8067 114.122 85.3539 114.133C82.7668 114.197 80.1763 114.383 77.5936 114.306C73.6679 114.189 70.1661 112.852 67.0769 110.006ZM42.6009 29.8954C45.1342 29.8629 47.6812 29.6485 50.1981 29.8363C55.2885 30.2159 59.5744 32.1804 62.318 36.7613C62.6834 37.3715 63.1071 37.9468 63.5023 38.5359C63.7863 38.4041 63.9594 38.3712 64.0582 38.2675C64.2381 38.0787 64.4027 37.863 64.524 37.6324C67.2895 32.3753 71.9272 30.1657 77.5806 29.8189C80.1533 29.6612 82.7516 29.8511 85.335 29.9596C86.9806 30.0288 87.144 29.8649 86.4869 28.3331C83.5272 21.4333 78.6079 16.634 71.4604 14.1374C64.9492 11.863 58.6215 12.513 52.5884 15.5192C47.438 18.0856 43.6145 22.1218 41.2436 27.4334C40.9151 28.1692 40.6614 28.9383 40.2873 29.9162C41.2023 29.9162 41.7647 29.9162 42.6009 29.8954ZM10.164 96.4113C11.1543 99.5066 12.6297 102.342 14.6789 104.874C17.9367 108.898 22.1285 111.579 27.0353 113.026C30.2299 113.969 33.5668 114.371 36.9101 113.78C38.8066 113.445 38.9085 112.965 37.8159 111.421C36.6305 109.746 35.3782 108.082 34.4599 106.26C31.7608 100.904 30.8936 95.463 34.3018 90.0087C34.5325 89.6395 34.6183 89.1797 34.7715 88.762C34.2844 88.6397 33.8037 88.467 33.309 88.4044C31.6975 88.2002 30.002 88.2878 28.4811 87.81C23.8229 86.3464 20.8422 82.8802 18.5268 78.7871C17.6984 77.3227 17.1264 75.7153 16.387 74.1978C15.9615 73.3245 15.4108 72.6771 14.5958 73.9068C13.7811 75.1361 12.8499 76.3022 12.1581 77.5967C9.004 83.4979 8.29722 89.6982 10.164 96.4113ZM36.0183 30.1936C31.8898 29.8729 27.8672 30.4421 24.1042 32.1288C17.1443 35.2484 12.3403 40.4378 10.1634 47.7998C7.78064 55.8577 9.46007 63.2384 14.3888 69.9362C15.2996 71.1738 15.7958 71.0798 16.5108 69.6734C17.3923 67.9395 18.1176 66.1147 19.1203 64.456C22.3892 59.0486 26.7081 55.2842 33.5453 55.7014C33.9761 55.7277 34.4176 55.5799 35.1173 55.4729C34.746 54.8376 34.5228 54.446 34.2905 54.0599C32.6714 51.3679 31.7079 48.4785 32.1022 45.3182C32.6714 40.756 34.6706 36.7666 37.3979 33.1281C39.0866 30.8751 39.065 30.7533 36.0183 30.1936ZM100.499 87.2823C97.8682 87.8159 95.2373 88.3495 92.4801 88.9087C92.6666 89.246 92.8388 89.6136 93.0601 89.9489C94.6905 92.4187 95.3862 95.2005 95.2476 98.081C95.0111 102.996 92.8329 107.2 89.9408 111.081C89.4969 111.677 89.2052 112.386 88.8431 113.043C89.6139 113.331 90.3751 113.649 91.1599 113.892C91.5028 113.998 91.8939 113.952 92.2635 113.966C97.2431 114.155 101.855 112.986 106.149 110.413C113.608 105.944 117.519 99.2771 118.176 90.7442C118.625 84.916 116.926 79.5702 113.483 74.8248C113.074 74.2609 112.439 73.8602 111.91 73.3838C111.483 73.9465 110.935 74.4538 110.65 75.0807C108.413 80.0062 105.734 84.5524 100.499 87.2823ZM99.1333 56.3384C101.028 57.5439 103.111 58.5355 104.774 60.0031C107.538 62.4422 109.242 65.6858 110.669 69.0674C110.933 69.6937 111.502 70.1916 111.93 70.7488C112.456 70.2609 113.085 69.846 113.489 69.2729C115.738 66.0894 117.246 62.609 117.864 58.7175C119.023 51.4054 117.269 44.8969 112.634 39.183C109.463 35.2742 105.412 32.5401 100.578 31.1522C97.1149 30.1581 93.5452 29.6671 89.9391 30.4714C88.5646 30.778 88.4848 31.1588 89.2619 32.2781C90.522 34.0931 91.8977 35.8622 92.8953 37.8185C95.6541 43.2285 96.4556 48.7384 92.969 54.2047C92.1713 55.4554 92.8389 55.609 93.8877 55.6985C95.5614 55.8413 97.229 56.0565 99.1333 56.3384ZM67.903 105.686C74.441 109.088 82.2084 107.416 87.2072 101.581C90.2232 98.06 91.8952 91.2953 90.0682 88.4279C85.135 92.3658 79.9254 94.2798 74.1156 89.9009C73.9867 90.3809 73.8702 90.5831 73.8914 90.7697C74.4143 95.3681 72.616 98.7785 68.6289 101.061C67.6741 101.607 66.701 102.129 65.7037 102.592C64.6378 103.087 64.6106 103.701 65.4852 104.337C66.163 104.83 66.951 105.172 67.903 105.686ZM65.5466 41.4582C71.2334 43.6826 74.7752 47.3916 73.8767 54.3613C74.9662 53.6528 75.6054 53.1122 76.3391 52.7805C80.8857 50.7242 84.9628 51.857 88.7812 54.6833C89.2177 55.0063 89.7469 55.204 90.2331 55.4599C90.418 54.8903 90.7222 54.3302 90.7682 53.7496C91.0445 50.2692 90.2362 47.028 88.3375 44.1034C83.1324 36.086 73.0919 34.5112 65.5978 39.6668C64.9588 40.1064 64.6006 40.6572 65.5466 41.4582ZM25.4551 70.0204C24.7469 77.1984 27.7044 82.4921 33.8036 86.1263C34.3928 86.4773 35.1752 86.504 35.8679 86.6812C35.9393 86.0475 36.0988 85.4096 36.068 84.7809C35.8248 79.8199 36.6323 75.3872 41.6694 72.9048C42.7149 72.3895 42.6112 71.7065 41.6006 71.2049C36.696 68.7706 35.7521 64.0836 36.0692 59.2668C36.1079 58.6787 35.9903 58.0802 35.9451 57.4865C35.2921 57.5981 34.5405 57.5384 34.0015 57.8483C29.3683 60.5121 26.348 64.366 25.4551 70.0204ZM36.6654 93.3751C37.2233 97.7959 39.4086 101.283 42.7879 104.097C47.8918 108.347 56.2559 108.545 61.4707 104.496C61.8847 104.175 62.1317 103.638 62.4563 103.202C62.0314 102.936 61.6304 102.617 61.1778 102.413C57.2412 100.635 54.132 98.1289 53.4259 93.5492C53.2642 92.5004 53.2893 91.4228 53.2171 90.16C52.6074 90.4426 52.1986 90.5574 51.8788 90.7929C50.271 91.9769 48.4505 92.3153 46.4988 92.3454C43.4782 92.3921 40.9937 91.11 38.6303 89.4205C38.2334 89.1368 37.4683 88.7655 37.2786 88.923C36.9097 89.2292 36.7077 89.8693 36.6545 90.3932C36.5642 91.2813 36.643 92.1865 36.6654 93.3751ZM46.173 37.9424C39.8896 41.1764 36.4161 46.1566 36.6413 53.392C36.6607 54.0152 37.01 54.6281 37.2061 55.2458C37.7565 55.0014 38.3602 54.8351 38.849 54.5006C43.1408 51.5636 47.5481 50.4974 52.269 53.5304C52.5077 53.6838 52.8269 53.712 53.3303 53.8665C53.3303 53.3006 53.2649 52.8924 53.3415 52.5129C53.6911 50.7812 53.8025 48.931 54.5178 47.3592C55.7454 44.6617 58.1278 43.0339 60.793 41.8282C61.4199 41.5445 61.9899 41.135 62.8818 40.6091C61.8074 39.8447 61.0921 39.2313 60.2861 38.7797C55.813 36.2736 51.1671 36.0965 46.173 37.9424ZM101.791 69.0368C100.697 64.1865 97.9668 60.5215 93.6882 58.0366C93.0631 57.6736 92.2237 57.6794 91.4835 57.5145C91.417 58.2111 91.2568 58.9135 91.2992 59.6035C91.5882 64.3068 90.4954 68.8214 86.06 71.0905C85.6762 71.2868 85.0969 71.7971 85.1554 72.0137C85.2702 72.4384 85.7055 72.8819 86.1221 73.1026C89.0031 74.6285 90.6773 76.9919 91.0111 80.2145C91.1828 81.8724 91.1603 83.5574 91.1221 85.2279C91.0898 86.6392 91.5036 87.0891 92.7574 86.4747C94.068 85.8324 95.3738 85.0648 96.461 84.1025C100.908 80.1661 102.676 75.1969 101.791 69.0368Z" fill="#006839"/>
<path d="M274.04 98.022C274.031 97.833 274.016 97.6777 274.077 97.6358C277.234 95.4922 277.367 92.2899 277.343 88.9026C277.267 78.1206 277.327 67.3378 277.308 56.5554C277.302 52.8542 278.039 48.8805 273.686 46.6086C273.764 46.4908 273.841 46.373 273.918 46.2552C274.422 46.1403 274.925 45.9266 275.429 45.9254C283.251 45.9061 291.075 45.8273 298.896 45.9472C304.023 46.0257 308.614 47.5548 312.219 51.5222C316.561 56.3012 317.216 64.5622 313.615 69.9326C311.698 72.7907 309.206 74.8799 306.044 76.1713C305.061 76.5727 304.641 77.024 305.329 78.0477C308.297 82.4681 311.068 87.0351 314.267 91.2812C315.845 93.3768 318.186 94.9013 320.202 96.6615C320.7 97.0967 321.275 97.4437 322.237 98.1343C321.007 98.4899 320.254 98.8101 319.472 98.9165C315.704 99.4289 312.017 99.0917 308.826 96.8961C307.402 95.9161 306.184 94.4869 305.206 93.0361C302.052 88.3546 299.043 83.5752 296.004 78.8166C295.381 77.8398 294.609 77.3074 293.411 77.338C291.51 77.3866 289.606 77.3741 287.703 77.3508C286.446 77.3354 285.883 77.8847 285.893 79.1658C285.928 83.341 285.904 87.5167 285.923 91.6921C285.933 93.8717 286.668 95.7187 288.481 97.0564C288.757 97.2597 288.941 97.5874 289.338 98.0616C288.79 98.238 288.43 98.4529 288.069 98.4549C283.735 98.4786 279.4 98.4788 275.066 98.4555C274.733 98.4538 274.401 98.2294 274.04 98.022ZM286.395 53.5602C286.228 54.144 285.924 54.7263 285.918 55.3116C285.876 59.5342 285.924 63.7577 285.879 67.9802C285.864 69.3792 286.38 70.0056 287.82 69.9894C291.673 69.9458 295.527 69.9878 299.38 69.9644C301.759 69.9499 303.738 68.7813 305.184 67.1152C307.232 64.7555 307.946 61.8265 306.779 58.8177C305.567 55.6945 303.228 53.5869 299.787 53.4399C295.418 53.2533 291.034 53.424 286.395 53.5602Z" fill="#006839"/>
<path d="M365.129 85.5532C367.767 88.9821 370.292 92.3535 372.928 95.6368C373.617 96.4951 374.647 97.0794 375.786 98.0056C373.229 99.1816 370.94 99.3027 368.57 98.9793C364.555 98.4314 361.987 95.9697 359.935 92.6937C356.967 87.9549 353.939 83.2522 350.843 78.596C350.444 77.9958 349.513 77.4765 348.788 77.4182C346.792 77.2575 344.775 77.3739 342.767 77.3565C341.504 77.3456 340.955 77.9433 340.962 79.2009C340.985 83.4296 340.942 87.6589 340.988 91.8872C341.01 93.9304 341.686 95.7169 343.425 96.981C343.735 97.2063 343.943 97.5714 344.133 98.1825C339.053 98.52 334.025 98.4646 328.997 98.4696C328.939 98.2985 328.881 98.1275 328.823 97.9564C329.125 97.6551 329.399 97.3172 329.734 97.0584C331.539 95.6625 332.369 93.8149 332.369 91.5553C332.37 85.1063 332.381 78.6573 332.384 72.2083C332.386 66.1292 332.362 60.0501 332.393 53.9712C332.409 51.0928 331.964 48.4754 329.153 46.9113C329.045 46.8511 329.02 46.6403 328.845 46.2507C329.432 46.1261 329.939 45.9257 330.447 45.9245C338.27 45.906 346.095 45.8348 353.917 45.9427C359.11 46.0143 363.735 47.5795 367.361 51.6049C371.66 56.377 372.197 64.9693 368.472 70.1965C366.514 72.9444 364.1 75.0399 360.92 76.1964C359.909 76.5642 359.732 77.0793 360.315 77.9825C361.916 80.4632 363.48 82.9677 365.129 85.5532ZM355.141 53.4196C350.92 53.3882 346.698 53.3672 342.477 53.3194C341.184 53.3047 340.894 54.0325 340.9 55.149C340.924 59.4244 340.938 63.7002 340.893 67.9752C340.878 69.3756 341.398 70.0034 342.834 69.9875C346.687 69.9447 350.542 70.0423 354.393 69.9407C357.737 69.8524 360.075 67.9134 361.462 65.0868C363.9 60.1207 361.047 54.828 355.141 53.4196Z" fill="#006839"/>
<path d="M418.565 94.2386C417.713 91.6301 416.924 89.1163 415.941 86.6812C415.736 86.1738 414.813 85.6603 414.215 85.6533C407.928 85.5795 401.639 85.5786 395.352 85.6581C394.778 85.6654 393.94 86.2424 393.693 86.7729C392.872 88.5348 392.192 90.3729 391.595 92.2262C390.984 94.1276 391.162 95.8965 393.005 97.1447C393.176 97.2605 393.32 97.4248 393.451 97.5874C393.51 97.661 393.505 97.7857 393.528 97.8874C392.576 98.6392 380.188 98.7757 378.626 97.9885C378.827 97.6917 378.96 97.3322 379.217 97.1384C381.896 95.1244 383.028 92.1375 384.195 89.1958C386.995 82.1391 389.745 75.0627 392.505 67.9901C394.383 63.1751 396.29 58.3704 398.093 53.5269C399.041 50.9798 398.402 49.0952 396.239 47.3757C395.917 47.1193 395.488 46.9974 395.108 46.8133C395.224 46.6014 395.341 46.3895 395.457 46.1776C395.929 46.0885 396.4 45.9248 396.873 45.9223C400.466 45.9029 404.06 45.9503 407.652 45.8984C408.92 45.8801 409.559 46.4364 409.991 47.5685C413.652 57.1812 417.349 66.7803 421.028 76.3863C422.989 81.5077 424.817 86.6847 426.951 91.7329C427.726 93.5662 429.176 95.1273 430.407 96.7448C430.692 97.1186 431.342 97.2141 432 97.5197C430.26 98.6134 417.787 98.7367 416.338 98.1449C417.076 96.8882 417.818 95.6247 418.565 94.2386ZM397.178 77.1046C397.201 78.2407 398.063 78.1186 398.776 78.1217C402.784 78.1388 406.792 78.146 410.8 78.1221C412.512 78.1119 412.696 77.8316 412.124 76.2726C410.092 70.7357 408.059 65.1995 405.998 59.6731C405.724 58.9371 405.295 58.2589 404.937 57.554C404.789 57.5776 404.64 57.6012 404.492 57.6248C403.559 60.1039 402.627 62.5835 401.692 65.062C400.208 68.9988 398.722 72.9349 397.178 77.1046Z" fill="#006839"/>
<path d="M263.033 86.8764C262.787 88.491 262.525 90.0412 262.177 91.5719C261.768 93.3719 261.252 95.1478 260.844 96.9483C260.613 97.9737 260.122 98.4822 259.007 98.4803C247.486 98.4608 235.964 98.4728 224.443 98.4628C224.045 98.4625 223.647 98.3232 222.952 98.1929C223.327 97.6931 223.496 97.3132 223.787 97.1057C225.988 95.5363 226.686 93.2565 226.693 90.7377C226.725 78.2649 226.731 65.7919 226.688 53.3191C226.68 50.8584 225.966 48.6198 223.735 47.1649C223.563 47.0523 223.42 46.8854 223.288 46.7236C223.229 46.6519 223.232 46.5299 223.147 46.1911C223.684 46.0957 224.204 45.9233 224.725 45.9226C235.454 45.9081 246.183 45.9288 256.911 45.8943C258.247 45.89 258.906 46.323 259.208 47.6803C259.827 50.4594 260.635 53.1959 261.323 55.9604C261.412 56.3177 261.252 56.737 261.207 57.1277C260.834 57.0274 260.35 57.0432 260.106 56.809C257.505 54.3119 254.277 53.4538 250.827 53.3757C246.179 53.2705 241.526 53.3557 236.876 53.3115C235.501 53.2985 234.99 53.9207 235.001 55.2324C235.029 58.5617 235.023 61.8916 235.003 65.2211C234.995 66.4904 235.549 67.012 236.835 66.9953C240.639 66.9459 244.445 66.9607 248.25 66.9652C250.416 66.9678 252.304 66.3492 253.756 64.651C253.949 64.4251 254.241 64.2844 254.729 63.9284C254.889 64.5592 255.103 65.0147 255.107 65.4719C255.135 68.9599 255.139 72.4483 255.102 75.9361C255.098 76.3432 254.798 76.7472 254.635 77.1526C254.302 76.9573 253.91 76.8212 253.646 76.5568C252.244 75.1506 250.55 74.3012 248.591 74.2562C244.682 74.1663 240.77 74.2374 236.859 74.1989C235.491 74.1854 234.987 74.8129 234.996 76.1315C235.028 80.5179 235.03 84.9049 234.996 89.2913C234.985 90.6546 235.586 91.1785 236.912 91.1673C242.196 91.1227 247.486 91.2418 252.765 91.0564C256.053 90.9409 259.003 89.6339 261.531 87.4477C261.913 87.1168 262.491 87.0124 263.033 86.8764Z" fill="#006839"/>
<path d="M164.171 91.3764C166.29 91.0641 168.3 90.9245 170.2 90.391C172.807 89.6593 174.017 87.5108 174.664 85.0558C175.16 83.1759 173.758 79.9011 171.752 78.9827C168.941 77.6953 166.008 76.6168 163.042 75.7362C159.352 74.6411 155.552 73.9467 152.24 71.7902C147.985 69.0201 145.956 64.4585 146.323 59.3018C146.553 56.0835 147.425 53.1879 149.561 50.7354C152.264 47.631 155.82 46.2046 159.773 45.5033C164.374 44.6869 168.795 45.5653 173.23 46.6702C174.461 46.9768 175.817 46.7452 177.096 46.9127C177.553 46.9726 178.252 47.4205 178.329 47.7958C178.92 50.6909 179.389 53.6111 179.888 56.5248C180.061 57.5279 180.213 58.5345 180.374 59.5395C180.232 59.6268 180.089 59.714 179.946 59.8012C178.755 58.8466 177.546 57.9125 176.375 56.9335C172.304 53.5301 167.577 52.1862 162.358 52.62C159.154 52.8862 156.359 53.9944 155.16 57.3745C154.157 60.2026 155.111 63.1582 157.89 64.3225C161.13 65.6797 164.568 66.5698 167.936 67.6113C171.209 68.6232 174.462 69.5393 177.459 71.3829C182.297 74.3587 184.017 81.062 183.342 85.5029C182.711 89.6541 181.043 93.066 177.667 95.5434C174.402 97.9386 170.574 98.7429 166.634 99.0131C161.503 99.3649 156.556 98.2937 151.691 96.797C150.02 96.2831 148.772 95.0675 148.266 93.4921C147.219 90.2336 146.449 86.8862 145.581 83.5712C145.55 83.4541 145.69 83.2923 145.884 82.8371C151.138 87.4887 156.704 91.3671 164.171 91.3764Z" fill="#006839"/>
<path d="M207.156 71.7623C207.156 77.3636 207.15 82.8062 207.159 88.2488C207.164 91.9088 206.785 95.7207 210.988 97.7151C210.01 98.5167 197.111 98.7627 194.827 98.0993C195.263 97.627 195.546 97.1646 195.957 96.9038C197.5 95.9245 198.339 94.5452 198.494 92.7453C198.576 91.7988 198.651 90.8478 198.652 89.8988C198.662 78.0096 198.662 66.1204 198.656 54.2312C198.655 51.9954 198.623 49.7549 196.773 48.0842C196.171 47.5407 195.544 47.0247 194.581 46.1975C195.47 46.0504 195.899 45.9191 196.329 45.9176C200.662 45.9029 204.995 45.8939 209.327 45.933C209.778 45.9371 210.226 46.2616 210.675 46.4375C210.375 46.7608 210.118 47.1421 209.769 47.3972C208.32 48.4553 207.381 49.8412 207.328 51.6365C207.214 55.5428 207.194 59.4522 207.161 63.3605C207.138 66.108 207.156 68.8559 207.156 71.7623Z" fill="#006839"/>
<path d="M73.0204 67.5229C73.0295 70.4635 73.0184 73.2654 73.0416 76.067C73.0496 77.0317 72.8356 77.7195 71.8652 78.2463C69.5035 79.5283 67.2693 81.0487 64.8865 82.2858C64.2308 82.6263 63.088 82.5875 62.4179 82.2409C59.9864 80.9832 57.6248 79.5769 55.3213 78.0952C54.766 77.738 54.2368 76.8889 54.2079 76.2431C54.0853 73.4997 54.0399 70.7398 54.2251 68.0035C54.2808 67.1818 54.9986 66.1474 55.718 65.6764C57.9203 64.2347 60.2339 62.946 62.5884 61.7657C63.2066 61.4558 64.2674 61.4934 64.8889 61.8202C67.3119 63.0946 69.6608 64.516 71.9859 65.9651C72.445 66.2512 72.6769 66.9016 73.0204 67.5229Z" fill="#006839"/>
</svg>
