<svg width="619" height="120" viewBox="0 0 619 120" fill="none" xmlns="http://www.w3.org/2000/svg">
<path d="M58.2372 0.122524C48.2873 0.766528 39.883 4.05095 34.4089 9.42839C30.8347 12.906 28.8705 16.2548 27.6147 21.0205C26.6808 24.5947 26.5842 31.2601 27.4536 34.8666C29.4179 43.3352 35.8257 49.3567 46.6451 52.8987C50.2193 54.0579 60.9098 56.7627 61.9724 56.7627H62.7452V47.7788C62.7452 41.7896 62.6164 38.6984 62.391 38.5696C62.23 38.4408 60.459 37.9256 58.4626 37.4104C51.5395 35.575 47.2891 32.8057 46.1299 29.3281C45.3892 27.0097 45.6469 23.7897 46.7417 21.9221C49.0279 18.0258 52.9885 15.9328 59.6862 15.0956L62.5842 14.7414L62.6808 7.46417C62.7452 0.702128 62.713 0.154724 62.1978 0.0259232C61.8758 -0.0384773 60.1048 0.0259232 58.2372 0.122524Z" fill="black"/>
<path d="M100.742 0.251314C100.484 0.315714 99.1638 0.508915 97.8436 0.734317C94.9134 1.18512 89.6969 2.73073 87.0565 3.92214C82.2587 6.11175 77.493 10.2656 75.0458 14.4516C70.7953 21.6323 70.3123 32.3227 73.8866 39.5678C76.9134 45.718 82.5485 50.0006 91.4358 52.8987C94.3982 53.8647 99.7435 55.2493 109.275 57.5033C120.094 60.0793 124.345 62.2367 126.438 66.2296C127.21 67.6786 127.307 68.226 127.307 70.9308C127.307 73.6034 127.21 74.183 126.438 75.5998C124.602 79.1096 120.899 81.4281 115.328 82.5873C112.688 83.1347 111.4 83.1991 107.343 83.0703C99.7757 82.8127 95.4608 81.4281 92.2086 78.1436C90.1799 76.115 88.6987 73.217 87.9581 69.836C87.6039 68.2582 87.2497 67.3888 86.9599 67.3244C86.7023 67.26 82.5485 67.2922 77.7506 67.3888L69.0243 67.5498L69.0887 69.4818C69.2497 73.9254 71.1173 79.6892 73.6934 83.6177C79.5216 92.5371 89.5359 97.2384 104.896 98.301C123.024 99.5568 137.321 93.5353 143.214 82.2009C145.822 77.1776 146.692 72.8628 146.37 66.777C146.048 61.0775 145.21 58.2761 142.699 54.4443C140.091 50.4837 135.937 47.328 129.786 44.6554C126.953 43.4318 118.967 41.0812 113.364 39.8576C101.16 37.1528 95.5896 35.1885 93.078 32.6769C90.9528 30.5517 90.5986 29.6501 90.5986 26.3335C90.5986 22.8559 91.1138 21.6323 93.6254 19.3138C96.7488 16.3836 100.838 15.1278 107.182 15.0956C112.044 15.0956 114.362 15.5464 117.711 17.1886C121.704 19.1206 124.248 22.2119 125.407 26.4945C125.729 27.6537 126.116 28.7807 126.277 28.9739C126.76 29.6179 143.343 29.5535 143.858 28.9417C144.18 28.5875 144.148 27.8469 143.761 25.6251C141.765 14.0008 134.938 6.14395 123.636 2.34433C118.355 0.573316 116.906 0.380115 108.792 0.251314C104.638 0.186913 100.999 0.186913 100.742 0.251314Z" fill="black"/>
<path d="M155.192 2.76294C154.645 3.31034 154.709 18.1224 155.257 18.1224C155.45 18.1546 159.314 18.1546 163.822 18.1546C170.101 18.1224 172.065 18.0258 172.291 17.736C172.42 17.5106 172.548 14.0974 172.548 10.1368V2.98834L171.808 2.69854C170.681 2.24773 155.643 2.31213 155.192 2.76294Z" fill="black"/>
<path d="M388.774 2.73074C388.677 2.95614 388.645 24.0795 388.677 49.6787L388.774 96.208L397.114 96.3046C401.718 96.3368 405.582 96.2724 405.743 96.1114C406.033 95.8216 406.098 2.98834 405.808 2.69854C405.711 2.60194 401.879 2.47314 397.275 2.40874C390.803 2.34434 388.87 2.44094 388.774 2.73074Z" fill="black"/>
<path d="M416.788 2.73073C416.692 2.95614 416.659 24.0795 416.692 49.6787L416.788 96.208H435.142L435.464 57.5677L452.82 57.4711C465.121 57.4389 470.305 57.3101 470.627 57.0525C470.981 56.7305 471.046 55.1527 470.981 49.0668L470.885 41.4676L453.529 41.371C441.26 41.3388 436.044 41.21 435.722 40.9524C435.368 40.6304 435.303 38.5052 435.368 29.5857L435.464 18.6054L478.291 18.2834V10.7486C478.291 5.08135 478.194 3.08494 477.872 2.79513C477.293 2.18333 417.014 2.15113 416.788 2.73073Z" fill="black"/>
<path d="M486.76 2.69854C486.244 2.98834 486.18 3.69674 486.18 10.3944C486.18 14.999 486.309 17.8326 486.502 17.9614C486.921 18.219 503.182 18.219 503.6 17.9614C503.761 17.8326 503.89 14.6448 503.89 10.3944C503.89 3.37474 503.858 2.98834 503.246 2.66634C502.441 2.21553 487.532 2.24773 486.76 2.69854Z" fill="black"/>
<path d="M15.4107 5.30676C10.7417 7.94718 6.78102 12.2942 4.688 16.9954C3.27119 20.2155 2.78818 22.5661 2.62718 26.9775C2.43398 31.5499 2.88478 34.8344 4.1406 38.151C5.87941 42.82 10.2909 47.4246 15.6361 50.1295C16.5699 50.5803 17.4715 50.9667 17.6647 50.9667C17.8901 50.9667 17.9868 43.464 17.9868 27.6215C17.9868 9.17079 17.8901 4.27635 17.6003 4.27635C17.3749 4.27635 16.3767 4.72716 15.4107 5.30676Z" fill="black"/>
<path d="M203.171 27.4605C191.547 29.1027 182.724 37.4426 179.665 49.7109C178.634 53.8325 178.248 59.3709 178.667 63.5248C179.504 71.929 182.241 78.1759 187.522 83.5211C194.091 90.1865 204.04 93.4066 212.863 91.7321C217.243 90.8949 220.302 89.3171 223.779 86.1293C224.777 85.1955 225.711 84.4549 225.84 84.4549C225.969 84.4549 226.001 87.3851 225.937 90.9593C225.84 97.496 225.84 97.496 224.842 99.589C223.103 103.228 220.076 105.578 216.019 106.351C213.862 106.77 208.226 106.77 206.069 106.351C202.559 105.675 199.404 103.453 198.083 100.684C197.761 100.072 197.246 99.4924 196.86 99.3958C195.862 99.1382 180.373 99.3958 180.083 99.6534C179.761 100.008 180.824 103.711 181.919 106.029C185.235 113.081 192.738 117.911 202.946 119.618C206.037 120.133 216.502 120.133 219.722 119.585C230.026 117.911 237.207 113.016 240.845 105.224C243.454 99.6534 243.389 100.974 243.389 62.7841V29.0705H226.645V32.2583C226.645 34.0294 226.516 35.5428 226.355 35.6394C226.226 35.736 224.938 34.7056 223.554 33.3209C220.785 30.6161 217.822 28.9095 214.248 27.9757C211.833 27.3639 205.908 27.0741 203.171 27.4605ZM214.763 41.7574C220.237 42.9166 224.327 46.9416 226.162 52.8987C226.967 55.5713 227.16 62.1401 226.516 65.1348C224.745 73.378 219.271 78.0149 211.189 78.0149C201.207 78.0149 195.314 70.5444 195.797 58.5337C196.055 52.6411 197.407 49.0669 200.724 45.5248C204.105 41.9184 209.16 40.566 214.763 41.7574Z" fill="black"/>
<path d="M286.216 27.4283C280.13 28.2977 274.624 31.6465 271.371 36.4766C270.76 37.346 270.148 38.0222 269.955 37.9578C269.761 37.9256 269.6 36.058 269.536 33.4819L269.439 29.0705H252.405L252.566 96.208H269.633L269.826 75.4388C269.987 55.1527 270.019 54.6053 270.695 52.5445C272.112 48.2618 274.591 45.4282 278.391 43.625C281.064 42.4014 285.507 42.2082 288.309 43.2708C290.885 44.2368 293.557 46.845 294.62 49.5176L295.393 51.4497L295.715 96.208L304.055 96.3046C309.98 96.369 312.523 96.2724 312.813 96.0148C313.2 95.6928 313.264 92.2795 313.232 75.149C313.167 54.0901 312.974 47.3602 312.33 44.8486C310.076 36.1868 304.184 30.0043 296.23 27.9435C293.976 27.3639 288.631 27.0741 286.216 27.4283Z" fill="black"/>
<path d="M581.332 27.4605C564.523 29.6179 552.835 44.0758 552.835 62.6875C552.835 75.5032 558.083 86.2903 567.325 92.4727C570.448 94.5658 573.636 95.9826 577.629 97.0774C580.108 97.7536 581.042 97.818 587.45 97.818C593.826 97.818 594.824 97.7536 597.271 97.0774C606.835 94.5014 613.726 88.3833 617.107 79.4317C617.557 78.2402 617.847 77.081 617.751 76.8234C617.622 76.5014 615.915 76.4048 609.185 76.4048H600.813L599.396 78.6267C596.659 82.8771 593.15 84.5837 587.289 84.5515C583.65 84.5515 581.074 83.9075 578.37 82.2975C576.309 81.1061 573.604 77.9826 572.348 75.3422C571.221 72.9916 570.062 68.5802 570.384 68.0006C570.513 67.8396 579.851 67.7108 594.534 67.7108C618.266 67.7108 618.491 67.7108 618.845 67.0668C619.264 66.294 618.781 60.2081 618.008 55.9577C615.239 40.8558 606.609 30.8737 593.987 28.0723C590.67 27.3639 584.552 27.0419 581.332 27.4605ZM589.318 41.1456C591.894 41.693 594.148 42.82 595.822 44.4622C598.398 46.9416 600.266 50.9023 600.298 53.8647L600.33 55.3137H570.706L570.803 54.0257C570.964 51.9649 572.735 47.9398 574.377 45.9112C577.726 41.7252 583.489 39.8898 589.318 41.1456Z" fill="black"/>
<path d="M344.498 27.6859C339.797 28.4265 334.87 30.1331 331.747 32.1295C326.563 35.4462 323.6 40.2118 322.119 47.6178C321.797 49.3244 322.087 49.3889 330.201 49.2922L337.543 49.1956L338.058 47.4246C338.767 45.1062 339.411 43.9148 340.538 42.8844C342.663 40.8558 346.044 39.8898 350.777 39.8898C356.284 39.922 359.826 41.4676 361.371 44.591C363.271 48.4228 361.919 51.7717 357.862 53.3495C356.123 53.9935 351.132 54.9917 345.529 55.7967C334.903 57.3101 328.108 59.9505 323.922 64.1365C320.477 67.582 319.06 71.3816 319.06 77.242C319.06 85.4853 322.377 91.3779 328.913 94.8234C333.035 97.013 335.45 97.496 342.244 97.496C348.942 97.496 350.938 97.1418 354.963 95.242C358.441 93.5997 360.76 91.5067 363.4 87.7071C363.754 87.1919 363.915 88.5121 363.851 91.6355C363.819 93.6319 363.883 95.4996 363.98 95.8216C364.205 96.3046 364.881 96.369 371.386 96.369C377.472 96.369 378.631 96.3046 378.953 95.886C379.307 95.4674 379.339 90.6373 379.178 71.3172C378.953 44.269 378.953 44.2368 376.634 39.3746C375.604 37.2816 374.799 36.1224 373.028 34.3513C368.005 29.3603 361.693 27.4283 350.777 27.4927C347.783 27.5249 344.949 27.5893 344.498 27.6859ZM362.37 69.353V75.9218L361.436 77.6606C359.568 81.2671 355.575 84.1651 351.325 85.0667C348.813 85.5819 343.629 85.5175 341.633 84.9057C339.572 84.2939 337.543 82.5551 336.706 80.6553C335.869 78.7876 335.869 75.31 336.706 73.4424C338.284 69.8682 341.278 68.3548 351.357 65.9398C356.316 64.7805 360.856 63.3637 361.404 62.8485C362.241 62.0435 362.37 62.9773 362.37 69.353Z" fill="black"/>
<path d="M154.999 29.4569C154.903 29.6823 154.87 44.7842 154.903 63.0417L154.999 96.208L163.5 96.3046C170.101 96.369 172.065 96.2724 172.291 95.9826C172.581 95.4996 172.645 30.3585 172.355 29.5857C172.194 29.1349 171.099 29.0705 163.661 29.0705C157.124 29.0705 155.096 29.1671 154.999 29.4569Z" fill="black"/>
<path d="M486.405 29.2959C486.116 29.5535 486.116 95.1454 486.373 95.8538C486.534 96.3046 487.597 96.369 494.874 96.369C501.475 96.369 503.246 96.2724 503.536 95.9182C503.794 95.5962 503.858 86.5801 503.826 62.3655L503.729 29.2315L495.164 29.1349C490.463 29.1027 486.534 29.1671 486.405 29.2959Z" fill="black"/>
<path d="M513.067 29.4569C512.971 29.6823 512.938 44.7842 512.971 63.0417L513.067 96.208H530.133L530.455 45.3316L541.114 45.235C549.164 45.1706 551.869 45.074 552.062 44.752C552.223 44.5588 552.287 40.9524 552.191 36.7986L552.03 29.2315L532.613 29.1349C517.253 29.0705 513.164 29.1349 513.067 29.4569Z" fill="black"/>
<path d="M0.21214 67.421C-0.270866 67.7108 0.115539 71.6714 0.920548 75.0524C2.49837 81.6213 6.84541 87.8681 12.3517 91.3779C14.2515 92.6015 17.1817 94.1149 17.6647 94.1149C17.8901 94.1149 17.9867 89.7357 17.9867 80.7519C17.9867 73.4102 17.8901 67.3888 17.7613 67.3888C8.13343 67.26 0.469743 67.2922 0.21214 67.421Z" fill="black"/>
<path d="M32.9599 67.3888L24.2658 67.5498L24.3624 69.4818C25.103 82.6839 34.2479 92.9557 48.5127 96.5622C52.0225 97.4638 58.044 98.301 60.8454 98.301H62.7452L62.6808 90.8305L62.5842 83.3279L59.2354 82.9093C49.5431 81.7179 44.8418 77.7572 43.103 69.3208C42.8132 67.7752 42.298 66.938 41.815 67.1312C41.7184 67.1956 37.7578 67.2922 32.9599 67.3888Z" fill="black"/>
</svg>
