<svg width="410" height="123" viewBox="0 0 410 123" fill="none" xmlns="http://www.w3.org/2000/svg">
<path d="M408.719 29.1475C408.719 36.8646 405.642 44.2655 400.166 49.7223C394.69 55.1791 387.262 58.2447 379.517 58.2447C371.773 58.2447 364.345 55.1791 358.869 49.7223C353.393 44.2655 350.316 36.8646 350.316 29.1475C350.316 21.4304 353.393 14.0295 358.869 8.57267C364.345 3.11588 371.773 0.050293 379.517 0.050293C387.262 0.050293 394.69 3.11588 400.166 8.57267C405.642 14.0295 408.719 21.4304 408.719 29.1475Z" fill="white"/>
<path d="M387.633 21.3657C390.067 21.4716 392.118 19.7734 392.215 17.5726C392.311 15.3717 390.416 13.5018 387.982 13.3959C385.547 13.29 383.496 14.9882 383.399 17.189C383.303 19.3899 385.198 21.2598 387.633 21.3657Z" fill="black"/>
<path d="M373.225 31.0108C373.449 30.0346 373.213 29.2064 372.517 28.5261C372.461 28.4705 372.387 28.4364 372.307 28.43C370.076 28.281 367.706 29.2384 365.784 30.2687C365.739 30.2925 365.689 30.3058 365.638 30.3077C365.587 30.3096 365.536 30.2999 365.49 30.2795C365.443 30.259 365.402 30.2283 365.37 30.1897C365.337 30.1511 365.314 30.1056 365.302 30.0567L364.248 25.7863C364.106 25.2143 364.346 24.787 364.966 24.5043C369.624 22.3774 379.023 20.1114 380.579 27.5952C380.865 28.9822 380.989 30.7767 380.952 32.9787C380.882 36.7123 380.895 38.9286 380.782 42.0129C380.779 42.0973 380.743 42.1773 380.683 42.2364C380.622 42.2955 380.541 42.3294 380.456 42.331C378.169 42.3906 375.11 42.649 373.119 41.3073C373.057 41.2666 372.983 41.2474 372.909 41.2528C372.835 41.2582 372.765 41.2878 372.71 41.3371C369.511 44.2226 362.054 43.0333 362.888 37.3981C363.51 33.2139 369.278 32.0013 372.969 31.2626C373.031 31.2499 373.088 31.2194 373.134 31.1748C373.179 31.1301 373.211 31.0731 373.225 31.0108Z" fill="black"/>
<path d="M391.581 23.3909H384.226C383.989 23.3909 383.797 23.5822 383.797 23.8182V41.8868C383.797 42.1228 383.989 42.3142 384.226 42.3142H391.581C391.818 42.3142 392.01 42.1228 392.01 41.8868V23.8182C392.01 23.5822 391.818 23.3909 391.581 23.3909Z" fill="black"/>
<path fill-rule="evenodd" clip-rule="evenodd" d="M124.305 110.109C124.11 109.718 123.912 109.717 123.71 110.106C122.244 112.955 120.445 115.668 117.845 117.616C105.53 126.856 87.0346 123.4 80.6211 108.602C80.0316 107.241 79.5295 105.844 79.115 104.411C78.9931 103.982 78.8291 103.966 78.623 104.361C75.992 109.441 72.2194 113.504 67.3054 116.549C61.1912 120.339 54.1958 122.324 46.9512 122.758C38.1172 123.284 28.6782 122.751 20.1601 120.207C11.6952 117.679 2.86464 112.517 0.54727 103.715C-1.17829 97.1523 1.2355 89.3272 6.95744 85.3981C8.32503 84.4572 9.70148 83.5296 11.0868 82.6152C11.1301 82.5863 11.166 82.5476 11.1916 82.5023C11.2171 82.457 11.2316 82.4063 11.2339 82.3544C11.2362 82.3025 11.2261 82.2508 11.2046 82.2034C11.1831 82.1561 11.1507 82.1144 11.1101 82.0819C9.1263 80.4762 7.47167 78.4885 6.14619 76.1186C0.643689 66.2661 0.740106 52.0107 6.81447 42.4132C17.7164 25.1861 41.575 23.6357 59.5753 27.5184C67.0461 29.1285 76.0529 33.1603 79.6869 40.3592C79.8775 40.7347 80.0737 40.738 80.2754 40.3691L80.3078 40.3101C81.7632 37.6601 83.4405 34.606 85.6682 32.554C95.2967 23.6953 110.049 23.7814 120.422 31.2487C120.476 31.288 120.54 31.3102 120.607 31.3126C120.673 31.3149 120.739 31.2973 120.794 31.262C128.541 26.392 136.83 25.2557 146.189 26.0243C147.14 26.1016 149.384 26.5378 152.922 27.3329C155.972 28.0153 159.045 29.3041 162.141 31.199C162.195 31.2318 162.257 31.2489 162.319 31.2483C162.381 31.2477 162.442 31.2295 162.494 31.1957C173.542 24.126 187.662 24.0133 198.624 30.6756C205.307 34.7339 209.789 42.4265 211.604 50.1786C211.614 50.2222 211.633 50.2633 211.659 50.2994C211.686 50.3355 211.719 50.366 211.758 50.3889C211.796 50.4118 211.839 50.4267 211.883 50.4327C211.928 50.4387 211.973 50.4357 212.016 50.4238C212.262 50.3553 212.446 50.193 212.568 49.9368C216.926 40.7689 223.63 34.1144 232.68 29.9733C237.953 27.5582 244.702 25.9978 250.497 25.8885C250.928 25.8805 251.376 25.8692 251.837 25.8575C254.465 25.7907 257.516 25.7133 260.169 26.2065C261.22 26.4031 261.755 26.5024 261.775 26.5047C273.079 28.171 282.222 33.3756 289.374 42.2542C290.783 44.0003 291.93 46.0671 293.048 48.0804L293.057 48.0965C293.17 48.3009 293.284 48.5048 293.397 48.7077C293.656 49.1759 293.859 49.1527 294.005 48.6381C294.116 48.2538 294.17 47.8596 294.168 47.4554C294.097 37.3356 294.093 29.1704 294.155 22.9598C294.168 21.585 294.381 19.9782 294.76 18.5703C297.067 9.9788 302.42 4.26957 310.819 1.44256C312.076 1.02039 313.514 0.77422 314.941 0.530083C315.529 0.429377 316.116 0.329015 316.687 0.216788C318.206 -0.0846861 319.955 -0.0648077 321.634 0.233353C326.006 1.00857 330.295 2.07533 333.597 4.35129C335.195 5.45338 336.929 7.17167 338.8 9.50616C342.697 14.3695 344.176 20.823 344.176 26.9353C344.18 50.7065 344.182 74.4766 344.179 98.2455C344.179 98.939 343.91 100.603 343.371 103.238C340.502 117.288 328.596 124.358 314.682 122.3C306.237 121.052 299.604 116.172 296.243 108.456C295.15 105.951 294.444 103.324 294.125 100.574C294.081 100.19 293.928 100.14 293.666 100.425C293.652 100.44 293.638 100.455 293.623 100.47C293.614 100.479 293.606 100.487 293.597 100.496C293.582 100.511 293.566 100.526 293.551 100.542L293.52 100.571C293.413 100.671 293.328 100.774 293.264 100.883C291.522 103.827 289.681 106.456 287.741 108.771C281.421 116.314 270.901 121.31 261.223 122.509C255.149 123.261 248.176 123.202 242.072 121.963C232.996 120.117 223.803 115.241 218.051 107.767C217.948 107.634 217.846 107.502 217.745 107.371C217.622 107.212 217.501 107.055 217.38 106.9C215.851 104.931 214.473 103.155 213.529 101.091C212.598 99.0542 212.233 103.074 212.123 104.285C212.106 104.466 212.095 104.584 212.089 104.61C209.563 114.737 201.487 121.83 190.927 122.595C184.903 123.033 178.403 121.707 173.682 117.835C171.139 115.752 169.065 113.21 167.458 110.208C167.271 109.859 167.079 109.856 166.879 110.198C165.647 112.301 164.186 114.218 162.497 115.95C156.19 122.41 146.352 124.133 137.844 121.585C131.709 119.75 127.196 115.924 124.305 110.109ZM308.769 114.214C304.314 111.518 301.338 107.27 300.291 102.169C300.02 100.859 299.885 98.6602 299.885 95.5726C299.874 74.7786 299.871 53.9802 299.875 33.1774C299.875 32.3464 299.849 31.3705 299.821 30.3287L299.821 30.3248C299.758 27.9579 299.685 25.2507 299.888 23.1261C300.726 14.3138 306.654 7.98945 315.402 6.42244C315.715 6.3669 316.024 6.30182 316.331 6.2371C317.253 6.04321 318.158 5.85265 319.096 5.93213C323.611 6.31643 327.797 7.2838 331.284 10.123C334.438 12.6893 336.46 15.809 337.349 19.4819C337.834 21.4829 338.359 24.5871 338.359 27.1546V96.424C338.359 98.1114 338.06 100.264 337.462 102.881C336.438 107.344 334.192 110.834 330.726 113.35C324.625 117.776 315.199 118.104 308.769 114.214ZM84.4048 100.763C85.1329 105.278 87.0513 109.542 90.6454 112.593C96.6432 117.688 105.048 118.189 111.791 114.591C118.254 111.142 121.177 103.824 121.173 96.7708C121.167 87.1126 121.168 77.4555 121.177 67.7995C121.177 67.2992 121.229 66.7716 121.28 66.2479L121.28 66.2478L121.281 66.247C121.307 65.9769 121.334 65.7078 121.353 65.444C121.397 64.8411 121.702 64.4292 122.267 64.2083C124.601 63.284 127.088 63.8174 127.085 66.8553C127.074 79.8132 127.086 89.6569 127.121 96.3865C127.137 99.1296 127.307 101.234 127.63 102.701C128.98 108.817 132.506 113.079 138.21 115.489C145.315 118.49 154.744 116.685 159.671 110.529C161.531 108.206 162.711 105.927 163.212 103.691C163.839 100.884 164.153 99.1793 164.153 98.5763C164.117 88.112 164.166 77.6487 164.299 67.1866C164.31 66.1993 164.478 65.3148 164.801 64.533C164.829 64.4626 164.882 64.4038 164.951 64.3673C166.075 63.76 167.261 63.5678 168.512 63.7909C168.585 63.806 168.65 63.8432 168.698 63.8969C169.642 64.9305 170.114 66.0823 170.114 67.3522C170.119 77.3837 170.125 87.4141 170.134 97.4433C170.141 105.444 173.871 112.563 181.518 115.605C185.142 117.045 188.891 117.341 192.766 116.492C199.584 115.002 204.009 111.015 206.042 104.533C206.76 102.25 206.86 99.4874 206.866 97.0855C206.888 89.1478 206.884 77.27 206.853 61.452C206.848 58.4681 206.749 56.2629 206.554 54.8361C205.453 46.7327 201.477 38.9739 194.152 34.9024C186.894 30.8706 177.472 30.3571 170.008 33.9151C163.288 37.1187 159.206 42.8434 156.107 49.3566C155.379 50.8871 154.494 51.6955 152.782 51.4205C148.902 50.7977 150.501 47.2065 151.608 44.9438C153.233 41.6243 155.258 38.5985 157.683 35.8664C157.717 35.8282 157.741 35.7827 157.755 35.7335C157.768 35.6842 157.77 35.6326 157.76 35.5826C157.75 35.5326 157.728 35.4855 157.697 35.4451C157.666 35.4047 157.626 35.372 157.58 35.3496C152.869 33.0306 147.722 31.8545 142.552 31.5332C129.675 30.7281 119.391 37.3871 114.028 48.8828C112.878 51.3509 111.212 52.2189 108.546 50.6652C108.506 50.6423 108.472 50.6113 108.445 50.5741C108.418 50.537 108.399 50.4947 108.39 50.4498C107.419 45.8509 112.283 39.8833 115.27 36.2187L115.541 35.8863C115.894 35.4534 115.826 35.0989 115.338 34.8229C100.955 26.6764 84.0789 34.2829 84.0856 51.6988C84.09 65.9708 84.0956 80.2427 84.1022 94.5147C84.1044 97.4521 84.2053 99.5349 84.4048 100.763ZM49.3363 87.5818C49.1545 87.3168 48.4508 86.896 47.2251 86.3196C43.8825 84.7493 40.427 83.5191 36.8584 82.629C33.9311 81.8973 30.5551 81.5061 27.2336 81.1213L27.2335 81.1213L27.2331 81.1212C26.209 81.0026 25.19 80.8845 24.191 80.7572C22.5397 80.5474 20.8995 80.6137 19.2703 80.956C18.8071 81.051 18.2652 80.8599 17.6445 80.3829C12.2495 76.2418 9.12757 70.8506 8.27864 64.2093C6.46996 50.0831 13.3988 38.6768 26.9872 34.1216C37.397 30.6331 48.8143 30.8749 59.3871 33.5219C68.1279 35.7117 79.2692 41.7777 74.7276 52.8858C70.5284 63.1459 57.093 61.2343 48.9473 59.611C44.9775 58.8192 41.3967 57.5173 37.7594 55.9469C35.4354 54.9398 31.7349 55.4467 32.6891 58.9749C33.0316 60.2471 34.7738 61.1449 35.9175 61.612C42.5981 64.3418 49.5502 65.9464 56.7738 66.4256C57.7491 66.4897 59.9833 66.4687 63.4766 66.3627C63.9398 66.3472 64.3665 66.4477 64.7566 66.6642C73.79 71.6435 78.0158 81.3734 76.7025 91.5374C76.5895 92.4098 76.1761 94.0884 75.4624 96.573C71.5059 110.348 58.8451 116.285 45.4563 117.03C35.349 117.593 24.8493 116.586 16.1185 112.415C10.4597 109.712 4.29556 103.759 6.07764 96.8049C7.28343 92.105 10.2137 89.0373 14.8683 87.6017C17.834 86.6873 20.833 86.1341 23.9317 86.6509C25.3492 86.8858 26.8532 87.0381 28.3212 87.1868L28.3214 87.1869H28.3215C29.9798 87.3548 31.5921 87.5182 32.9817 87.7905C37.2662 88.6254 41.4 89.9527 45.3831 91.7726C48.3954 93.1508 51.3611 90.58 49.3363 87.5818ZM213.572 79.3753C214.49 93.6771 221.103 107.214 234.768 113.432C238.997 115.357 243.306 116.576 248.074 116.963C259.374 117.878 269.907 115.966 278.994 108.933C284.54 104.639 288.396 98.4576 290.611 91.8848C293.161 84.3082 293.513 76.7514 292.995 68.5851C292.802 65.587 292.04 62.0024 291.332 59.4813C287.638 46.3788 278.592 36.6355 265.126 33.1603C243.083 27.4687 220.608 37.2815 214.985 60.4752C213.473 66.7233 213.153 72.7958 213.572 79.3753Z" fill="white"/>
<path d="M370.036 37.7031C369.601 35.5563 370.821 34.3935 372.969 34.6917C373.035 34.7005 373.097 34.7297 373.147 34.7754C373.196 34.821 373.23 34.8809 373.245 34.9468C373.504 36.0864 373.3 37.1653 372.633 38.1835C372.586 38.2537 372.513 38.3035 372.43 38.3226C370.989 38.6716 370.191 38.4651 370.036 37.7031Z" fill="white"/>
<path d="M77.6735 70.739C75.8316 68.7347 74.3554 66.1771 71.9881 64.6929C71.4318 64.344 71.4495 64.0094 72.0413 63.6891C74.2756 62.4832 76.2073 60.9107 77.8364 58.9715C78.2243 58.5077 78.4193 58.5784 78.4216 59.1836L78.4515 70.4143C78.4537 71.1961 78.1944 71.3044 77.6735 70.739Z" fill="white"/>
<path d="M254.93 89.0666C252.812 90.5905 250.195 88.9076 250.175 86.466C250.111 78.8529 250.081 71.2399 250.085 63.6268C250.085 62.7191 250.095 61.1852 250.657 60.4564C251.522 59.3333 253.394 59.2505 254.617 59.6712C255.638 60.0191 255.804 60.8705 255.807 61.8246C255.827 70.4249 255.831 79.0252 255.817 87.6255C255.815 88.1622 255.519 88.6425 254.93 89.0666Z" fill="white"/>
</svg>
