<svg width="448" height="233" viewBox="0 0 448 233" fill="none" xmlns="http://www.w3.org/2000/svg">
<g clip-path="url(#clip0_1_724)">
<path d="M402.776 124.297H401.042V154.271H379.519V79.6434L401.042 46V115.632C405.326 110.381 419.759 90.4501 419.759 90.4501H446.331L421.136 117.11L447.198 154.322H420.014L402.776 124.297ZM342.798 119.404L351.621 90.654H372.94L347.949 154.067C340.503 173.131 329.844 186.028 313.931 186.028C307.811 186.028 302.66 184.448 299.957 182.919L308.525 169.665C309.8 169.818 311.126 169.869 312.452 169.869C319.797 169.869 325.305 162.733 328.875 154.271L302.66 90.654H326.784L336.219 119.047C338.055 124.45 339.381 134.747 339.381 134.747C339.381 134.747 341.064 124.807 342.798 119.404ZM277.771 117.926C277.771 109.617 274.099 105.692 267.112 105.692C263.695 105.692 260.125 106.66 257.677 108.138V154.271H236.154V91.2657L257.218 89.5326L256.708 99.8295H257.422C261.961 93.7125 269.662 89.0738 278.842 89.0738C289.859 89.0738 299.396 95.9044 299.396 112.063V154.271H277.771V117.926ZM174.545 151.008L176.483 136.328C183.215 139.641 190.814 141.221 197.189 141.221C201.83 141.221 204.89 139.641 204.89 136.837C204.89 128.783 175.871 130.72 175.871 109.668C175.871 96.2103 188.213 89.1248 203.666 89.1248C211.368 89.1248 219.324 91.2147 224.475 93.0498L222.384 107.476C216.978 105.386 209.634 103.449 203.513 103.449C199.739 103.449 196.679 104.774 196.679 107.221C196.679 115.173 226.311 113.593 226.311 134.136C226.311 147.797 214.173 155.647 197.546 155.647C188.366 155.647 180.92 154.067 174.545 151.008Z" fill="#091C30"/>
<path d="M127.69 62.3722H20.6311C20.6311 55.6651 30.3081 35.391 49.662 1.54987C49.662 1.54987 52.3417 19.3976 57.7011 55.093L90.4082 55.0939L98.4362 1.54987C117.939 35.8397 127.69 56.1138 127.69 62.3722Z" fill="white"/>
<path d="M73.9969 232.052L1.20139 180.996V61.8336C1.20139 61.8336 28.1162 51.8915 74.0902 51.8915C120.064 51.8915 146.782 61.8336 146.782 61.8336V180.996L73.9969 232.052Z" fill="white"/>
<path d="M73.9969 224.876L5.85251 177.281V66.6164C5.85251 66.6164 31.3357 57.3833 73.9969 57.3833V224.876Z" fill="#DBDBDB"/>
<path d="M74.0897 57.3833C74.0582 57.3833 74.0285 57.3842 73.997 57.3833V224.735H73.9979L141.544 177.278V66.6164C141.544 66.6164 116.751 57.3833 74.0897 57.3833Z" fill="#C6C6C6"/>
<path d="M110.869 198.837L105.123 148.853H73.5419C73.5419 188.525 73.5419 213.905 73.5419 224.992L73.9969 225.422C86.2834 217.009 98.5742 208.147 110.869 198.837Z" fill="#3B3B63"/>
<path d="M37.1441 199.231L73.9968 225.422L74.0151 147.331H42.0988L37.1441 199.231Z" fill="#53537A"/>
<path d="M89.7666 184.436C89.7666 193.024 81.6262 197.281 74.1583 197.281C66.6904 197.281 58.3853 193.024 58.3853 184.436" fill="#BC9375"/>
<path d="M74.0755 188.877C68.0802 188.877 65.1649 184.544 65.1649 175.634H68.0235C68.0235 186.065 72.11 186.065 74.0755 186.065C76.0402 186.065 80.1276 186.065 80.1276 175.634H82.9853C82.9853 184.544 80.0699 188.877 74.0755 188.877Z" fill="white"/>
<path d="M73.997 177.809C75.8416 182.587 79.407 184.976 84.6932 184.976C89.869 184.976 95.2699 182.293 97.7294 175.66C101.165 166.383 101.13 153.47 101.13 153.47C101.13 153.47 116.396 134.645 116.396 128.28C116.396 128.28 102.263 128.28 73.997 128.28V177.809Z" fill="#C49A7E"/>
<path d="M30.9825 128.28C30.9825 135.651 46.1165 153.47 46.1165 153.47C46.1165 153.47 46.0793 166.379 49.5183 175.66C51.9723 182.288 57.3787 184.976 62.5555 184.976C67.8416 184.976 71.6554 182.587 73.9969 177.809V128.28H30.9825Z" fill="#D8B7A0"/>
<path d="M114.574 85.8941C102.806 74.0089 99.8624 49.2253 99.8624 49.2253C97.6652 57.0346 92.8894 80.06 92.8894 80.06C92.8894 80.06 83.6135 77.1051 73.6219 77.0896C73.2938 77.0896 73.2938 108.113 73.6219 170.159L83.1341 163.386L84.9025 130.522L95.0308 141.904L108.078 145.66C108.078 145.66 112.96 142.231 112.96 142.244C115.033 139.384 115.72 136.949 116.221 135.685C118.034 131.086 113.965 95.9194 113.965 95.9194C112.52 92.941 114.574 85.8941 114.574 85.8941Z" fill="#3B3B63"/>
<path d="M55.3528 80.0581C55.3528 80.0581 50.5751 57.0336 48.3798 49.2234C48.3798 49.2234 45.4384 74.007 33.6682 85.8922C33.6682 85.8922 35.7222 92.94 34.2775 95.9175C34.2775 95.9175 30.2087 131.086 32.0208 135.677C32.5213 136.942 33.2143 139.377 35.284 142.236C35.284 142.224 40.1687 145.653 40.1687 145.653L53.2133 141.897L63.3397 130.516L65.1128 163.381L74.0065 169.974V76.915C63.9777 76.9315 55.3528 80.0581 55.3528 80.0581Z" fill="#53537A"/>
<path d="M106.339 26.2575C108.291 29.8419 125.077 62.9782 125.077 74.4534L117.632 94.4265C118.891 105.697 121.396 130.185 119.505 134.969C118.338 137.928 113.887 144.016 110.081 148.946L115.285 195.731L108.25 200.721L104.339 166.536C103.801 170.005 102.993 173.709 101.76 177.035C100.13 181.438 97.2503 184.774 93.5666 186.75C93.3508 197.305 83.469 202.999 74.1583 202.999C64.7704 202.999 54.8058 197.309 54.5863 186.759C50.8951 184.779 48.0114 181.442 46.3798 177.035C45.1966 173.837 44.3993 170.297 43.8589 166.944L40.1171 201.349L33.044 196.278L38.1519 149.088C34.3157 144.137 29.7799 137.958 28.6013 134.966C26.7101 130.181 29.1175 105.697 30.3789 94.4247L22.4915 73.7517V73.078C22.4915 61.6029 39.7166 29.8419 41.6719 26.2575L47.2505 16.1947C50.6471 39.5093 52.3441 51.1769 52.3416 51.1977L55.0886 70.0905L58.7025 75.942C62.1751 74.7878 68.07 73.1851 74.0392 73.1851C80.015 73.1851 85.9499 74.7933 89.4373 75.9456L93.0494 70.0914L100.875 16.1947L106.339 26.2575ZM74.1583 195.497C78.2792 195.497 84.148 193.662 85.6131 188.797C85.4559 188.802 85.3043 188.814 85.1471 188.814C84.3452 188.814 83.5955 188.74 82.868 188.642C80.7425 191.554 77.4309 192.437 74.0764 192.437C70.7276 192.437 67.4225 191.546 65.3007 188.639C64.5686 188.741 63.8104 188.814 63.0021 188.814C62.8476 188.814 62.6988 188.802 62.5472 188.797C64.0272 193.662 69.9751 195.497 74.1583 195.497ZM69.3323 187.501C70.6104 188.444 72.1899 188.968 74.0792 188.968C75.9583 188.968 77.5304 188.44 78.8067 187.501C77.789 187.055 76.8681 186.524 76.056 185.945C75.3211 186.159 74.6178 186.154 74.0755 186.154C73.5304 186.154 72.8197 186.154 72.0792 185.94C71.269 186.524 70.3499 187.055 69.3323 187.501ZM98.614 151.206C103.677 145.015 111.3 135.044 112.404 132.253C113.236 129.38 111.816 110.333 110.008 94.3679L109.909 93.4828L111.403 89.5168C106.477 84.3472 103.041 77.2628 100.693 70.5728L100.388 72.6744L92.6113 85.2579L89.5741 83.9838C89.4996 83.9518 81.5704 80.6832 74.0439 80.6832C66.469 80.6832 58.6681 83.9491 58.5918 83.9811L55.55 85.2662L47.764 72.6771L47.5333 71.0643C45.1603 77.6893 41.7203 84.6493 36.818 89.7063L38.2449 93.4856L38.1454 94.3716C36.337 110.333 34.9166 129.38 35.777 132.326C36.8533 135.049 44.4766 145.02 49.537 151.206L50.3816 152.24L50.377 153.564C50.377 153.689 50.3919 165.936 53.5491 174.46C55.8412 180.642 60.9258 181.302 63.0086 181.302C68.2439 181.302 70.4588 176.573 70.5499 176.372C71.7768 173.995 72.3902 170.091 72.3902 164.659H75.5555C75.5555 169.023 76.2153 172.936 77.535 176.397C77.615 176.568 79.8857 181.314 85.1471 181.314C87.2252 181.314 92.3117 180.646 94.6019 174.464C97.7694 165.911 97.7731 153.689 97.7731 153.569L97.7694 152.244L98.614 151.206Z" fill="#333152"/>
<path d="M97.7508 117.917H86.3183H82.5081V118.075C82.5081 123.314 87.1108 127.559 92.5099 127.559C97.9108 127.559 102.514 123.313 102.514 118.075V117.917H97.7508Z" fill="#333152"/>
<path d="M86.3182 117.917V118.075C86.3182 121.192 88.8671 123.717 92.0354 123.717C95.2038 123.717 97.7517 121.192 97.7517 118.075V117.917H86.3182Z" fill="white"/>
<path d="M91.1202 117.917C91.0941 117.917 91.0718 117.93 91.0485 117.934C91.3806 118.003 91.5648 118.744 91.4932 119.238C91.3862 119.992 90.7332 120.515 89.9853 120.528C90.203 121.514 91.0197 122.307 92.1043 122.457C93.4904 122.65 94.7713 121.714 94.9676 120.352C95.109 119.348 94.6187 117.917 93.7992 117.917H91.1202Z" fill="#333152"/>
<path d="M60.9555 117.917H49.5249H45.7137V118.075C45.7137 123.314 50.3174 127.559 55.7156 127.559C61.1165 127.559 65.7202 123.313 65.7202 118.075V117.917H60.9555Z" fill="#333152"/>
<path d="M49.525 117.917V118.075C49.525 121.192 52.0757 123.717 55.2394 123.717C58.4087 123.717 60.9566 121.192 60.9566 118.075V117.917H49.525Z" fill="white"/>
<path d="M57.0059 117.917H54.324C54.3008 117.917 54.2757 117.93 54.2543 117.934C54.5854 118.003 54.7687 118.744 54.6989 119.238C54.591 119.992 53.9417 120.515 53.1891 120.528C53.4096 121.514 54.2263 122.307 55.3091 122.457C56.6942 122.65 57.978 121.714 58.1714 120.352C58.3147 119.348 57.8254 117.917 57.0059 117.917Z" fill="#333152"/>
<path d="M96.601 113.445C97.241 112.754 102.674 106.688 95.4075 106.688C88.841 106.688 84.1164 111.901 82.8643 113.445H96.601Z" fill="#C49A7E"/>
<path d="M65.2561 113.445C64.0049 111.901 59.2803 106.688 52.7119 106.688C45.4487 106.688 50.8822 112.754 51.5184 113.445H65.2561Z" fill="#D8B7A0"/>
<path d="M30.3213 72.4675C30.7529 66.5153 37.046 52.254 43.0487 40.2351L44.6487 51.2242C44.0385 55.333 41.2497 71.4469 33.7688 81.604L30.3213 72.4675Z" fill="#D8B7A0"/>
<path d="M103.63 50.3684L105.104 40.236C111.106 52.254 117.403 66.5162 117.834 72.4684L114.468 81.388C106.385 70.2067 103.849 52.0297 103.63 50.3684Z" fill="#C49A7E"/>
<mask id="mask0_1_724" style="mask-type:alpha" maskUnits="userSpaceOnUse" x="62" y="159" width="24" height="16">
<path d="M68.4709 171.333C65.652 169.229 62.7602 166.573 62.7602 164.536C62.7602 163.198 65.1649 159.073 65.1649 159.073H83.0457C83.0457 159.073 85.3908 162.73 85.3908 164.536C85.3908 166.433 82.472 169.015 79.5595 171.12C78.5681 169.44 77.3068 169.149 76.7239 170.473C76.4231 171.159 76.3638 172.146 76.5108 173.18C74.9247 174.188 73.7658 174.838 73.7658 174.838C73.7658 174.838 72.8706 174.323 71.5909 173.495C71.7973 172.349 71.7576 171.228 71.4253 170.473C70.8374 169.131 69.5509 169.448 68.5518 171.188C68.5244 171.236 68.4974 171.284 68.4709 171.333Z" fill="white"/>
</mask>
<g mask="url(#mask0_1_724)">
<path d="M68.4709 171.333C65.652 169.229 62.7602 166.573 62.7602 164.536C62.7602 163.198 65.1649 159.073 65.1649 159.073H83.0457C83.0457 159.073 85.3908 162.73 85.3908 164.536C85.3908 166.433 82.472 169.015 79.5595 171.12C78.5681 169.44 77.3068 169.149 76.7239 170.473C76.4231 171.159 76.3638 172.146 76.5108 173.18C74.9247 174.188 73.7658 174.838 73.7658 174.838C73.7658 174.838 72.8706 174.323 71.5909 173.495C71.7973 172.349 71.7576 171.228 71.4253 170.473C70.8374 169.131 69.5509 169.448 68.5518 171.188C68.5244 171.236 68.4974 171.284 68.4709 171.333Z" fill="#333152"/>
</g>
</g>
<defs>
<clipPath id="clip0_1_724">
<rect width="448" height="232.646" fill="white"/>
</clipPath>
</defs>
</svg>
