<svg width="763" height="114" viewBox="0 0 763 114" fill="none" xmlns="http://www.w3.org/2000/svg">
<path d="M126.525 89.6707L105.542 112.178C105.087 112.666 104.537 113.055 103.926 113.322C103.315 113.589 102.655 113.727 101.989 113.729H2.51297C2.03956 113.727 1.57708 113.587 1.18173 113.326C0.786373 113.066 0.475168 112.696 0.285928 112.262C0.0966875 111.828 0.0375593 111.348 0.115728 110.881C0.193897 110.414 0.405997 109.979 0.726256 109.631L21.6842 87.123C22.139 86.6353 22.6889 86.2459 23.3 85.9791C23.911 85.7124 24.5703 85.5737 25.2371 85.5718H124.713C125.191 85.5623 125.662 85.6945 126.066 85.9518C126.47 86.2091 126.788 86.58 126.982 87.018C127.176 87.456 127.236 87.9415 127.154 88.4134C127.073 88.8854 126.854 89.3228 126.525 89.6707ZM105.542 44.332C105.085 43.8466 104.535 43.4589 103.924 43.1923C103.313 42.9257 102.655 42.7857 101.989 42.7808H2.51297C2.03856 42.7811 1.57453 42.9198 1.17773 43.1799C0.780927 43.44 0.468576 43.8103 0.27894 44.2453C0.0893039 44.6803 0.030617 45.1613 0.110068 45.6292C0.18952 46.0971 0.403659 46.5316 0.726256 46.8796L21.6842 69.4026C22.1408 69.8879 22.6911 70.2756 23.3018 70.5423C23.9124 70.8089 24.5708 70.9489 25.2371 70.9538H124.713C125.185 70.9492 125.646 70.8078 126.04 70.5465C126.434 70.2852 126.744 69.9153 126.932 69.4815C127.12 69.0478 127.178 68.5688 127.099 68.1027C127.021 67.6365 126.809 67.2031 126.489 66.8549L105.542 44.332ZM2.51297 28.1627H101.989C102.655 28.1608 103.315 28.0222 103.926 27.7554C104.537 27.4886 105.087 27.0993 105.542 26.6115L126.525 4.09884C126.769 3.83775 126.953 3.52618 127.063 3.18618C127.174 2.84617 127.208 2.48605 127.164 2.13128C127.12 1.77651 126.999 1.43576 126.808 1.13316C126.618 0.830549 126.364 0.573473 126.063 0.380116C125.66 0.12245 125.191 -0.00983677 124.713 2.56118e-05H25.2371C24.5703 0.00191775 23.911 0.140544 23.3 0.407342C22.6889 0.67414 22.139 1.06344 21.6842 1.55121L0.726256 24.0639C0.403659 24.4119 0.18952 24.8464 0.110068 25.3143C0.030617 25.7822 0.0893039 26.2632 0.27894 26.6982C0.468576 27.1332 0.780927 27.5035 1.17773 27.7636C1.57453 28.0237 2.03856 28.1624 2.51297 28.1627Z" fill="url(#paint0_linear_410_401)"/>
<path d="M247.796 48.102H194.579V30.5613H261.632V13.036H194.395C189.756 13.0115 185.298 14.8309 182 18.0943C178.703 21.3577 176.836 25.7977 176.81 30.438V48.2099C176.819 50.5094 177.282 52.7846 178.171 54.9052C179.06 57.0258 180.358 58.9502 181.992 60.5684C183.625 62.1866 185.561 63.4668 187.689 64.3357C189.817 65.2046 192.096 65.6453 194.395 65.6324H247.688V83.168H178.083V100.698H247.796C252.433 100.719 256.889 98.8981 260.185 95.6356C263.482 92.3731 265.351 87.9354 265.38 83.2964V65.5245C265.371 63.225 264.908 60.9498 264.019 58.8292C263.13 56.7086 261.832 54.7842 260.199 53.166C258.565 51.5478 256.629 50.2677 254.501 49.3987C252.373 48.5298 250.094 48.0892 247.796 48.102ZM350.891 13.036H297.48C295.179 13.0178 292.897 13.4537 290.765 14.3188C288.634 15.184 286.693 16.4614 285.055 18.0779C283.418 19.6943 282.115 21.6181 281.221 23.7391C280.328 25.86 279.861 28.1365 279.849 30.438V83.2964C279.859 85.5988 280.324 87.8764 281.217 89.9985C282.11 92.1207 283.413 94.0456 285.051 95.6629C286.689 97.2802 288.63 98.558 290.763 99.423C292.896 100.288 295.178 100.723 297.48 100.704H350.901C353.198 100.716 355.475 100.275 357.602 99.4069C359.729 98.5387 361.664 97.2599 363.297 95.6434C364.93 94.027 366.229 92.1047 367.119 89.9862C368.009 87.8677 368.474 85.5945 368.486 83.2964V30.438C368.472 26.9762 367.43 23.5967 365.492 20.7287C363.554 17.8607 360.807 15.6337 357.601 14.3304C355.475 13.4622 353.198 13.0223 350.901 13.036H350.891ZM350.763 83.168H297.603V30.5716H350.742L350.763 83.168ZM537.998 13.036H485.895C481.257 13.0115 476.799 14.8309 473.501 18.0943C470.204 21.3577 468.337 25.7977 468.311 30.438V100.704H486.075V71.9039H537.941V100.704H555.706V30.438C555.685 26.9622 554.631 23.5711 552.678 20.6963C550.725 17.8215 547.962 15.593 544.739 14.2945C542.597 13.4315 540.306 13.002 537.998 13.0309V13.036ZM537.869 54.3684H486.003V30.5665H537.869V54.3684ZM745.415 13.036H693.308C691.011 13.0232 688.734 13.4632 686.607 14.3308C684.48 15.1985 682.545 16.4768 680.912 18.0928C679.279 19.7088 677.981 21.6308 677.09 23.749C676.2 25.8672 675.735 28.1402 675.723 30.438V100.704H693.488V71.9039H745.236V100.704H763V30.438C762.967 25.7996 761.101 21.3626 757.809 18.0954C756.178 16.4777 754.243 15.1982 752.116 14.33C749.99 13.4618 747.712 13.0221 745.415 13.036ZM745.236 54.3684H693.37V30.5665H745.236V54.3684ZM642.212 83.168H635.106L609.702 20.381C608.838 18.2102 607.341 16.3492 605.407 15.0395C603.473 13.7298 601.189 13.0318 598.854 13.036H583.092C581.56 13.0273 580.041 13.3207 578.623 13.8995C577.204 14.4783 575.914 15.3311 574.825 16.4092C573.737 17.4873 572.871 18.7696 572.278 20.1826C571.685 21.5957 571.377 23.1118 571.37 24.6442V100.704H589.135V30.5613H596.24L621.629 93.3534C622.513 95.5159 624.022 97.3652 625.963 98.6646C627.904 99.9639 630.188 100.654 632.524 100.647H648.286C649.818 100.656 651.336 100.362 652.755 99.7836C654.173 99.2048 655.464 98.352 656.552 97.2738C657.641 96.1957 658.506 94.9135 659.099 93.5004C659.692 92.0874 660.001 90.5713 660.007 89.0388V13.036H642.212V83.168ZM401.93 13.036H384.166V83.3015C384.177 85.6052 384.643 87.884 385.538 90.0069C386.432 92.1298 387.737 94.0551 389.377 95.6721C391.017 97.2891 392.96 98.566 395.095 99.4294C397.23 100.293 399.515 100.726 401.817 100.704H455.1V83.168H401.935L401.93 13.036Z" fill="black"/>
<defs>
<linearGradient id="paint0_linear_410_401" x1="10.8047" y1="116.447" x2="115.155" y2="-1.15366" gradientUnits="userSpaceOnUse">
<stop offset="0.08" stop-color="#9945FF"/>
<stop offset="0.3" stop-color="#8752F3"/>
<stop offset="0.5" stop-color="#5497D5"/>
<stop offset="0.6" stop-color="#43B4CA"/>
<stop offset="0.72" stop-color="#28E0B9"/>
<stop offset="0.97" stop-color="#19FB9B"/>
</linearGradient>
</defs>
</svg>
