<svg width="397" height="120" viewBox="0 0 397 120" fill="none" xmlns="http://www.w3.org/2000/svg">
<g clip-path="url(#clip0_1176_801)">
<path d="M3.09406 115.742C0.94533 114.666 0.816406 114.064 0.816406 109.935C0.816406 102.322 1.41805 96.2149 1.58995 93.7633C1.76185 92.0859 2.06267 91.3117 2.79324 91.3117C3.69571 91.3117 3.86761 91.7848 3.86761 92.9891C3.86761 94.3654 3.86761 96.516 4.34033 98.6235C6.61799 109.935 16.717 114.193 26.902 114.193C41.5564 114.193 48.7332 103.656 48.7332 93.8923C48.7332 83.3547 44.3068 77.2471 31.1995 66.4084L24.3236 60.774C8.1221 47.4837 4.46925 38.0213 4.46925 27.6557C4.46925 11.3117 16.6741 0.171875 36.0556 0.171875C41.9861 0.171875 46.4125 0.774026 50.2373 1.67725C53.1166 2.2794 54.3628 2.45144 55.5661 2.45144C56.8124 2.45144 57.0702 2.75252 57.0702 3.52671C57.0702 4.30091 56.4686 9.33316 56.4686 19.6988C56.4686 22.1504 56.1678 23.2256 55.3942 23.2256C54.4918 23.2256 54.3199 22.4514 54.1909 21.2471C54.019 19.3977 53.1166 15.3117 52.2141 13.5912C51.3116 11.9138 47.1861 5.50521 33.1334 5.50521C22.6046 5.50521 14.3534 12.0859 14.3534 23.2256C14.3534 31.9138 18.3071 37.4192 32.9615 48.86L37.2589 52.2149C55.2653 66.4084 59.5198 75.8708 59.5198 88.0859C59.5198 94.3654 57.0702 105.935 46.5415 113.419C39.9663 117.978 31.7582 119.828 23.507 119.828C16.3732 119.828 9.36837 118.796 3.09406 115.742ZM113.195 79.9998C113.195 92.516 113.195 102.753 113.797 108.086C114.27 111.914 114.871 114.322 118.997 114.968C120.845 115.269 123.896 115.57 125.099 115.57C126.002 115.57 126.174 116.172 126.174 116.645C126.174 117.247 125.572 117.72 124.025 117.72C116.719 117.72 108.167 117.247 107.394 117.247C106.792 117.247 97.4664 117.72 93.5128 117.72C91.9657 117.72 91.364 117.419 91.364 116.645C91.364 116.172 91.6649 115.742 92.4384 115.742C93.6417 115.742 95.1888 115.441 96.3921 115.14C99.1424 114.537 99.916 111.914 100.346 108.129C100.947 102.796 100.947 92.559 100.947 80.0428V25.5052L81.6518 25.8063C73.2717 25.9783 70.0486 26.8815 68.0718 29.9353C66.5676 32.2149 66.3958 33.1611 65.923 34.0643C65.6222 35.1396 65.1495 35.2686 64.5478 35.2686C64.247 35.2686 63.6454 34.9676 63.6454 34.1934C63.6454 32.817 66.3957 21.2041 66.5247 20.1289C66.8255 19.3547 67.4271 17.6772 67.8999 17.6772C68.8023 17.6772 70.1775 18.7525 73.8733 19.2256C77.6981 19.6988 82.855 19.8278 84.4021 19.8278H135.069C139.496 19.8278 142.547 19.5267 144.696 19.2256C146.672 18.9246 147.919 18.6235 148.52 18.6235C149.122 18.6235 149.122 19.3977 149.122 20.1289C149.122 24.0859 148.649 33.4192 148.649 34.9246C148.649 35.9998 148.048 36.602 147.446 36.602C146.844 36.602 146.544 36.1289 146.372 34.3224L146.2 32.9461C145.727 28.9891 142.848 26.0643 130.041 25.7633L113.281 25.4622V79.9998H113.195ZM176.798 79.9998C176.798 92.516 176.798 102.753 177.399 108.086C177.872 111.914 178.302 114.322 182.298 114.968C184.275 115.269 187.198 115.57 188.401 115.57C189.174 115.57 189.475 116.172 189.475 116.645C189.475 117.247 188.874 117.72 187.326 117.72C179.849 117.72 171.168 117.247 170.566 117.247C169.793 117.247 161.413 117.72 157.287 117.72C155.912 117.72 155.138 117.419 155.138 116.645C155.138 116.172 155.439 115.57 156.213 115.57C157.416 115.57 159.092 115.269 160.338 114.968C162.917 114.365 163.39 111.914 163.862 108.086C164.464 102.753 164.636 92.516 164.636 79.9998V57.1181C164.636 36.9461 164.636 33.2902 164.335 29.1611C164.034 24.731 162.96 22.7525 160.038 22.1504C158.533 21.8493 156.814 21.6772 155.912 21.6772C155.31 21.6772 154.838 21.0751 154.838 20.602C154.838 19.8278 155.439 19.5267 156.986 19.5267C161.413 19.5267 169.793 19.8278 170.566 19.8278C171.168 19.8278 179.892 19.5267 183.974 19.5267C185.479 19.5267 186.123 19.8278 186.123 20.602C186.123 21.0751 185.522 21.6772 185.049 21.6772C184.146 21.6772 183.201 21.6772 181.697 21.9783C178.044 22.7525 177.27 24.559 176.97 29.1611C176.798 33.2902 176.798 36.9461 176.798 57.1181V79.9998ZM207.825 57.1181C207.825 36.9461 207.825 33.2902 207.525 29.1611C207.224 24.731 206.45 22.5805 202.024 21.9783C200.949 21.8063 198.672 21.6772 197.468 21.6772C196.996 21.6772 196.394 21.0751 196.394 20.602C196.394 19.8278 196.996 19.5267 198.543 19.5267C204.645 19.5267 213.025 19.8278 213.799 19.8278C216.377 19.8278 245.514 19.9998 248.565 19.8278C251.144 19.6557 253.464 19.6557 254.668 19.2256C255.441 19.0536 256.043 18.4514 256.516 18.4514C257.117 18.4514 257.418 19.0536 257.418 19.6557C257.418 20.559 256.816 22.1074 256.344 25.7633C256.215 26.9676 256.043 32.774 255.742 34.3224C255.613 34.9246 255.141 35.6988 254.539 35.6988C253.937 35.6988 253.464 35.0966 253.464 34.1934C253.464 33.1181 252.992 30.9676 252.261 29.2902C251.488 27.6127 248.308 25.4622 243.108 25.4622L221.148 25.1611C220.374 25.1611 220.073 25.4622 220.073 26.5375V61.9353C220.073 62.7095 220.073 63.1396 220.976 63.1396L239.283 62.9676C241.561 62.9676 243.537 62.9676 245.385 62.7955C248.608 62.4945 250.413 62.0213 251.66 60.516C252.261 59.7418 252.863 59.1396 253.336 59.1396C253.937 59.1396 254.109 59.6127 254.109 60.2149C254.109 60.9891 253.207 63.0966 252.906 67.3977C252.605 69.9783 252.433 75.1826 252.433 76.0858C252.433 77.2902 252.132 78.6665 251.23 78.6665C250.456 78.6665 250.327 78.0643 250.327 77.4192C250.155 76.0428 250.027 74.1934 249.425 72.688C248.823 70.8385 246.674 69.1611 242.549 68.559C239.197 68.0859 223.339 68.2579 221.019 68.2579C220.245 68.2579 220.116 68.559 220.116 69.4622V79.9998C220.116 92.817 220.116 103.054 220.718 108.086C221.191 111.914 221.964 114.322 225.617 114.968C227.594 115.269 230.516 115.57 231.719 115.57C232.493 115.57 232.794 116.172 232.794 116.645C232.794 117.247 232.192 117.72 230.645 117.72C223.167 117.72 214.486 117.247 213.842 117.247C213.068 117.247 204.688 117.72 200.563 117.72C199.187 117.72 198.414 117.419 198.414 116.645C198.414 116.172 198.715 115.57 199.488 115.57C200.692 115.57 202.368 115.097 203.614 114.968C206.235 114.494 206.493 111.914 207.138 108.086C207.911 102.753 207.911 92.516 207.911 79.9998V57.1181H207.825ZM275.296 57.1181C275.296 36.9461 275.296 33.2902 274.995 29.1611C274.694 24.731 273.92 22.5805 269.494 21.9783C268.42 21.8063 266.142 21.6772 264.939 21.6772C264.466 21.6772 263.864 21.0751 263.864 20.602C263.864 19.8278 264.466 19.5267 266.013 19.5267C272.115 19.5267 280.796 19.8278 281.57 19.8278C282.472 19.8278 310.535 19.9998 313.586 19.8278C316.165 19.6557 318.614 19.2256 319.688 19.0536C320.29 18.8815 320.892 18.4514 321.536 18.4514C322.009 18.4514 322.138 19.0536 322.138 19.6557C322.138 20.559 321.364 22.1074 321.064 25.7633C320.935 26.9676 320.591 32.774 320.29 34.3224C320.118 34.9246 319.688 35.6988 319.087 35.6988C318.313 35.6988 318.012 35.0966 318.012 34.0213C318.012 33.1181 317.841 30.9676 317.239 29.4192C316.336 27.2686 314.961 26.3654 307.613 25.4622C305.335 25.1611 289.778 24.9891 288.231 24.9891C287.629 24.9891 287.457 25.4622 287.457 26.3654V61.6342C287.457 62.5375 287.457 63.0106 288.231 63.0106C289.907 63.0106 307.613 63.0106 310.664 62.7095C313.844 62.4084 315.864 62.2364 317.239 60.86C318.141 59.9568 318.743 59.1826 319.216 59.1826C319.688 59.1826 319.989 59.4837 319.989 60.2579C319.989 61.0321 319.216 63.1396 318.915 67.4407C318.614 70.0213 318.313 74.9246 318.313 75.8278C318.313 76.9031 318.012 78.2794 317.11 78.2794C316.508 78.2794 316.208 77.8063 316.208 77.0751C316.208 75.8708 316.207 74.4945 315.606 72.817C315.133 70.9676 313.93 69.4622 308.73 68.86C305.077 68.3869 290.724 68.2579 288.446 68.2579C287.672 68.2579 287.543 68.731 287.543 69.1611V79.9998C287.543 84.4299 287.371 99.5267 287.543 102.15C287.844 110.839 290.294 112.516 303.573 112.516C307.097 112.516 313.5 112.516 316.981 111.14C320.505 109.634 322.31 107.312 323.083 102.15C323.384 100.602 323.685 100.172 324.459 100.172C325.232 100.172 325.361 101.247 325.361 102.15C325.361 103.054 324.287 111.914 323.513 114.666C322.611 118.021 321.236 118.021 316.036 118.021C305.98 118.021 298.201 117.72 292.7 117.548C287.071 117.247 283.547 117.247 281.57 117.247C281.269 117.247 278.648 117.247 275.768 117.419C273.19 117.591 270.139 117.72 267.99 117.72C266.615 117.72 265.841 117.419 265.841 116.645C265.841 116.172 266.142 115.57 266.916 115.57C268.119 115.57 269.795 115.097 271.041 114.968C273.62 114.494 273.92 111.914 274.565 108.086C275.339 102.753 275.339 92.516 275.339 79.9998V57.1181H275.296ZM353.939 80.3009C353.939 99.3977 354.24 107.183 356.69 109.462C358.838 111.613 363.995 112.516 374.524 112.516C381.529 112.516 387.502 112.344 390.683 108.559C392.359 106.58 393.433 103.828 393.906 101.247C394.035 100.344 394.507 99.5697 395.281 99.5697C395.883 99.5697 396.183 100.172 396.183 101.548C396.183 102.925 395.281 110.71 394.207 114.537C393.304 117.591 392.831 118.064 385.655 118.064C376.028 118.064 368.551 117.892 362.319 117.591C356.217 117.462 351.662 117.29 347.665 117.29C347.063 117.29 344.743 117.29 342.164 117.462C339.414 117.591 336.535 117.763 334.386 117.763C333.011 117.763 332.237 117.462 332.237 116.688C332.237 116.215 332.538 115.613 333.311 115.613C334.515 115.613 336.191 115.312 337.437 115.011C340.015 114.408 340.359 111.957 340.961 108.129C341.734 102.796 341.734 92.559 341.734 80.0428V57.1611C341.734 36.9891 341.734 33.3332 341.434 29.2041C341.133 24.774 340.359 22.6235 335.933 22.0213C334.858 21.8493 332.581 21.7203 331.335 21.7203C330.862 21.7203 330.26 21.1181 330.26 20.645C330.26 19.8708 330.862 19.5697 332.409 19.5697C338.511 19.5697 346.891 19.8708 347.665 19.8708C348.267 19.8708 358.323 19.5697 362.448 19.5697C363.823 19.5697 364.597 19.8708 364.597 20.645C364.597 21.1181 363.995 21.5482 363.523 21.5482C362.62 21.5482 360.643 21.7203 359.096 21.8493C355.143 22.6235 354.369 24.602 354.068 29.1611C353.896 33.2902 353.896 36.9461 353.896 57.1181L353.939 80.3009Z" fill="#003057"/>
</g>
<defs>
<clipPath id="clip0_1176_801">
<rect width="397" height="120" fill="white"/>
</clipPath>
</defs>
</svg>
