<svg width="1174" height="187" viewBox="0 0 1174 187" fill="none" xmlns="http://www.w3.org/2000/svg">
<g clip-path="url(#clip0_2246_2537)">
<path d="M278.801 181.88C264.721 181.88 252.721 179.32 242.801 174.2C233.041 169.08 224.641 162.2 217.601 153.56L236.321 136.04C242.241 143.24 248.721 148.68 255.761 152.36C262.961 156.04 271.121 157.88 280.241 157.88C290.961 157.88 299.041 155.48 304.481 150.68C309.921 145.88 312.641 139.4 312.641 131.24C312.641 124.68 310.721 119.48 306.881 115.64C303.041 111.8 296.241 108.92 286.481 107L271.601 104.36C255.281 101.32 243.041 95.9596 234.881 88.2796C226.721 80.5996 222.641 70.0396 222.641 56.5996C222.641 49.2396 224.001 42.5996 226.721 36.6796C229.601 30.5996 233.521 25.5596 238.481 21.5596C243.601 17.3996 249.761 14.1996 256.961 11.9596C264.161 9.71961 272.241 8.59961 281.201 8.59961C293.841 8.59961 304.801 10.8396 314.081 15.3196C323.361 19.6396 331.281 25.9596 337.841 34.2796L318.881 51.0796C314.561 45.4796 309.281 40.9996 303.041 37.6396C296.801 34.2796 289.041 32.5996 279.761 32.5996C270.161 32.5996 262.721 34.5196 257.441 38.3596C252.161 42.1996 249.521 47.7996 249.521 55.1596C249.521 62.1996 251.681 67.4796 256.001 70.9996C260.321 74.3596 267.041 76.9196 276.161 78.6796L291.041 81.7996C307.841 84.9996 320.081 90.4396 327.761 98.1196C335.601 105.8 339.521 116.36 339.521 129.8C339.521 137.64 338.161 144.76 335.441 151.16C332.721 157.56 328.721 163.08 323.441 167.72C318.321 172.2 312.001 175.72 304.481 178.28C296.961 180.68 288.401 181.88 278.801 181.88Z" fill="black"/>
<path d="M960.081 178.999C952.561 178.999 946.881 177.079 943.041 173.239C939.361 169.399 937.121 164.359 936.321 158.119H935.121C932.721 165.639 928.321 171.479 921.921 175.639C915.681 179.799 907.681 181.879 897.921 181.879C885.281 181.879 875.201 178.599 867.681 172.039C860.161 165.319 856.401 156.119 856.401 144.439C856.401 132.439 860.801 123.319 869.601 117.079C878.561 110.679 892.241 107.479 910.641 107.479H934.401V97.8793C934.401 81.0793 925.521 72.6793 907.761 72.6793C899.761 72.6793 893.281 74.2793 888.321 77.4793C883.361 80.5193 879.201 84.5993 875.841 89.7193L860.241 76.9993C863.761 70.2793 869.681 64.5193 878.001 59.7193C886.321 54.7593 897.041 52.2793 910.161 52.2793C925.841 52.2793 938.161 56.0393 947.121 63.5593C956.081 71.0793 960.561 81.9593 960.561 96.1993V158.359H976.161V178.999H960.081ZM905.361 162.679C913.841 162.679 920.801 160.759 926.241 156.919C931.681 153.079 934.401 148.119 934.401 142.039V124.039H911.121C892.241 124.039 882.801 129.719 882.801 141.079V145.879C882.801 151.479 884.801 155.719 888.801 158.599C892.801 161.319 898.321 162.679 905.361 162.679Z" fill="black"/>
<path d="M432.744 156.88H431.544C430.264 160.08 428.584 163.2 426.504 166.24C424.584 169.12 422.184 171.68 419.304 173.92C416.424 176 413.064 177.68 409.224 178.96C405.384 180.24 400.904 180.88 395.784 180.88C383.304 180.88 373.224 176.8 365.544 168.64C357.864 160.48 354.024 148.88 354.024 133.84V54.1602H380.184V130C380.184 149.68 388.744 159.52 405.864 159.52C409.224 159.52 412.504 159.12 415.704 158.32C418.904 157.36 421.784 156 424.344 154.24C426.904 152.48 428.904 150.32 430.344 147.76C431.944 145.04 432.744 141.84 432.744 138.16V54.1602H458.904V178H432.744V156.88Z" fill="black"/>
<path d="M479.961 0.400391H506.121V75.2804H507.561C511.241 67.7604 516.121 61.9204 522.201 57.7604C528.281 53.4404 535.881 51.2804 545.001 51.2804C559.561 51.2804 571.161 56.7204 579.801 67.6004C588.441 78.4804 592.761 94.6404 592.761 116.08C592.761 137.52 588.441 153.68 579.801 164.56C571.161 175.44 559.561 180.88 545.001 180.88C535.881 180.88 528.281 178.8 522.201 174.64C516.121 170.32 511.241 164.4 507.561 156.88H506.121V178H479.961V0.400391ZM534.201 159.52C544.121 159.52 551.721 156.48 557.001 150.4C562.441 144.32 565.161 136.24 565.161 126.16V106C565.161 95.9204 562.441 87.8404 557.001 81.7604C551.721 75.6804 544.121 72.6404 534.201 72.6404C530.361 72.6404 526.761 73.1204 523.401 74.0804C520.041 75.0404 517.081 76.4804 514.521 78.4004C511.961 80.3204 509.881 82.7204 508.281 85.6004C506.841 88.3204 506.121 91.6004 506.121 95.4404V136.72C506.121 140.56 506.841 143.92 508.281 146.8C509.881 149.52 511.961 151.84 514.521 153.76C517.081 155.68 520.041 157.12 523.401 158.08C526.761 159.04 530.361 159.52 534.201 159.52Z" fill="black"/>
<path d="M649.321 181.88C637.481 181.88 627.561 179.8 619.561 175.64C611.561 171.48 604.601 165.72 598.681 158.36L615.481 143C620.121 148.6 625.241 153 630.841 156.2C636.601 159.24 643.241 160.76 650.761 160.76C658.441 160.76 664.121 159.32 667.801 156.44C671.641 153.4 673.561 149.24 673.561 143.96C673.561 139.96 672.201 136.6 669.481 133.88C666.921 131 662.361 129.16 655.801 128.36L644.281 126.92C631.481 125.32 621.401 121.64 614.041 115.88C606.841 109.96 603.241 101.24 603.241 89.7203C603.241 83.6403 604.361 78.2803 606.601 73.6403C608.841 68.8403 611.961 64.8403 615.961 61.6403C620.121 58.2803 625.001 55.7203 630.601 53.9603C636.361 52.2003 642.681 51.3203 649.561 51.3203C660.761 51.3203 669.881 53.0803 676.921 56.6003C684.121 60.1203 690.521 65.0003 696.121 71.2403L680.041 86.6003C676.841 82.7603 672.601 79.4803 667.321 76.7603C662.201 73.8803 656.281 72.4403 649.561 72.4403C642.361 72.4403 637.001 73.8803 633.481 76.7603C630.121 79.6403 628.441 83.4003 628.441 88.0403C628.441 92.8403 629.961 96.4403 633.001 98.8403C636.041 101.24 640.921 103 647.641 104.12L659.161 105.56C672.921 107.64 682.921 111.72 689.161 117.8C695.561 123.72 698.761 131.72 698.761 141.8C698.761 147.88 697.561 153.4 695.161 158.36C692.921 163.16 689.641 167.32 685.321 170.84C681.001 174.36 675.801 177.08 669.721 179C663.641 180.92 656.841 181.88 649.321 181.88Z" fill="black"/>
<path d="M748.281 178.999C739.161 178.999 732.281 176.679 727.641 172.039C723.001 167.239 720.681 160.519 720.681 151.879V75.5591H701.241V54.1991H711.801C716.121 54.1991 719.081 53.2391 720.681 51.3191C722.441 49.3991 723.321 46.2791 723.321 41.9591V20.1191H746.841V54.1991H773.001V75.5591H746.841V157.639H771.081V178.999H748.281Z" fill="black"/>
<path d="M1021.34 178.999C1012.22 178.999 1005.34 176.679 1000.7 172.039C996.064 167.239 993.744 160.519 993.744 151.879V75.5591H974.304V54.1991H984.864C989.184 54.1991 992.144 53.2391 993.744 51.3191C995.504 49.3991 996.384 46.2791 996.384 41.9591V20.1191H1019.9V54.1991H1046.06V75.5591H1019.9V157.639H1044.14V178.999H1021.34Z" fill="black"/>
<path d="M788.721 178.999V54.1992H814.881V78.1992H816.081C817.841 71.7992 821.521 66.1992 827.121 61.3992C832.721 56.5992 840.481 54.1992 850.401 54.1992H857.361V79.3992H847.041C836.641 79.3992 828.641 81.0792 823.041 84.4392C817.601 87.7992 814.881 92.7592 814.881 99.3192V178.999H788.721Z" fill="black"/>
<path d="M1107.68 181.88C1098.72 181.88 1090.72 180.36 1083.68 177.32C1076.64 174.28 1070.64 169.96 1065.68 164.36C1060.72 158.6 1056.88 151.72 1054.16 143.72C1051.6 135.56 1050.32 126.52 1050.32 116.6C1050.32 106.68 1051.6 97.7203 1054.16 89.7203C1056.88 81.5603 1060.72 74.6803 1065.68 69.0803C1070.64 63.3203 1076.64 58.9203 1083.68 55.8803C1090.72 52.8403 1098.72 51.3203 1107.68 51.3203C1116.8 51.3203 1124.8 52.9203 1131.68 56.1203C1138.72 59.3203 1144.56 63.8003 1149.2 69.5603C1153.84 75.1603 1157.28 81.7203 1159.52 89.2403C1161.92 96.7603 1163.12 104.84 1163.12 113.48V123.32H1077.44V127.4C1077.44 137 1080.24 144.92 1085.84 151.16C1091.6 157.24 1099.76 160.28 1110.32 160.28C1118 160.28 1124.48 158.6 1129.76 155.24C1135.04 151.88 1139.52 147.32 1143.2 141.56L1158.56 156.68C1153.92 164.36 1147.2 170.52 1138.4 175.16C1129.6 179.64 1119.36 181.88 1107.68 181.88ZM1107.68 71.7203C1103.2 71.7203 1099.04 72.5203 1095.2 74.1203C1091.52 75.7203 1088.32 77.9603 1085.6 80.8403C1083.04 83.7203 1081.04 87.1603 1079.6 91.1603C1078.16 95.1603 1077.44 99.5603 1077.44 104.36V106.04H1135.52V103.64C1135.52 94.0403 1133.04 86.3603 1128.08 80.6003C1123.12 74.6803 1116.32 71.7203 1107.68 71.7203Z" fill="black"/>
<path d="M80.7124 1.71489C74.5059 2.52061 64.7548 5.04638 59.1286 7.3064L54.7332 9.07189L54.5282 30.0152L54.3232 50.9585H92.4859H130.649V29.8311V8.7037L126.538 7.1662C112.126 1.77728 95.4839 -0.202359 80.7124 1.71489ZM41.5031 16.4728C30.6291 23.7281 16.7246 38.5392 11.8838 48.0237L10.3855 50.9585H29.2842H48.1821V31.7014C48.1821 21.1099 48.038 12.4442 47.8615 12.4442C47.685 12.4442 44.8233 14.2575 41.5031 16.4728ZM6.67681 58.4688C-2.34903 75.5576 -2.20259 109.305 6.98663 130.072L8.79088 134.149H28.4865H48.1821V95.6352V57.1208H27.7851C9.14463 57.1208 7.32729 57.2371 6.67681 58.4688ZM54.3478 95.6352V134.149H92.4982H130.649V95.6352V57.1208H92.4982H54.3478V95.6352ZM136.814 95.6228V134.149H157.072H177.329L179.503 128.565C187.661 107.61 188.148 84.9682 180.899 63.7145L178.782 57.506L157.798 57.3011L136.814 57.0962V95.6228ZM54.3478 159.549V178.787L56.4673 179.874C73.8361 188.787 103.485 189.414 125.446 181.333L130.649 179.418V159.865V140.312H92.4982H54.3478V159.549ZM136.814 158.028C136.814 168.246 137.113 175.745 137.52 175.745C142.805 175.745 164.502 155.158 172.632 142.43L173.986 140.312H155.4H136.814V158.028Z" fill="black"/>
</g>
<defs>
<clipPath id="clip0_2246_2537">
<rect width="1174" height="187" fill="white"/>
</clipPath>
</defs>
</svg>
