<svg width="161" height="32" viewBox="0 0 161 32" fill="none" xmlns="http://www.w3.org/2000/svg">
<mask id="mask0_125_521" style="mask-type:luminance" maskUnits="userSpaceOnUse" x="0" y="0" width="161" height="32">
<path d="M160.5 0H0.5V32H160.5V0Z" fill="white"/>
</mask>
<g mask="url(#mask0_125_521)">
<path d="M42.1933 18.9057C42.3582 20.4919 43.7613 23.2111 47.8332 23.2111C51.3821 23.2111 53.0881 20.8885 53.0881 18.6225C53.0881 16.5831 51.7398 14.9119 49.0713 14.3454L47.1453 13.9205C46.4025 13.7789 45.9074 13.3541 45.9074 12.6742C45.9074 11.8811 46.6777 11.2863 47.6407 11.2863C49.1812 11.2863 49.7589 12.3343 49.8691 13.1558L52.9229 12.4477C52.7579 10.9464 51.4647 8.42554 47.6132 8.42554C44.6968 8.42554 42.551 10.4933 42.551 12.9858C42.551 14.9402 43.7338 16.5548 46.3474 17.1495L48.1358 17.5745C49.1812 17.801 49.594 18.3109 49.594 18.9341C49.594 19.6705 49.0162 20.322 47.8057 20.322C46.21 20.322 45.412 19.3022 45.3296 18.1976L42.1933 18.9057Z" fill="#14171F"/>
<path d="M64.7806 22.7862H68.2751C68.2195 22.3046 68.1373 21.3416 68.1373 20.2653V8.85034H64.4779V16.9512C64.4779 18.5658 63.5423 19.6987 61.9195 19.6987C60.2134 19.6987 59.4434 18.4525 59.4434 16.8946V8.85034H55.7841V17.6594C55.7841 20.6901 57.6545 23.1544 60.929 23.1544C62.359 23.1544 63.9279 22.5879 64.6706 21.285C64.6706 21.8514 64.7256 22.5029 64.7806 22.7862Z" fill="#14171F"/>
<path d="M75.7017 28.168V21.4266C76.3617 22.3613 77.7378 23.1262 79.6083 23.1262C83.4328 23.1262 85.9911 20.0104 85.9911 15.79C85.9911 11.6546 83.7078 8.53882 79.7461 8.53882C77.7106 8.53882 76.1972 9.4735 75.5917 10.5499V8.85036H72.0428V28.168H75.7017ZM82.3872 15.8183C82.3872 18.3109 80.9017 19.7554 79.0306 19.7554C77.16 19.7554 75.6467 18.2826 75.6467 15.8183C75.6467 13.3541 77.16 11.9094 79.0306 11.9094C80.9017 11.9094 82.3872 13.3541 82.3872 15.8183Z" fill="#14171F"/>
<path d="M88.0633 18.9907C88.0633 21.1717 89.8239 23.1828 92.7128 23.1828C94.7206 23.1828 96.0139 22.2197 96.7017 21.115C96.7017 21.6533 96.7567 22.418 96.8394 22.7862H100.196C100.113 22.3047 100.031 21.3133 100.031 20.5769V13.7222C100.031 10.9181 98.435 8.42554 94.1433 8.42554C90.5117 8.42554 88.5583 10.8331 88.3383 13.0141L91.5844 13.7222C91.695 12.5043 92.575 11.4563 94.1706 11.4563C95.7117 11.4563 96.4545 12.2777 96.4545 13.2691C96.4545 13.7506 96.2072 14.1471 95.4367 14.2605L92.1078 14.7703C89.8517 15.1102 88.0633 16.4981 88.0633 18.9907ZM93.4828 20.3786C92.3 20.3786 91.7222 19.5855 91.7222 18.7641C91.7222 17.6878 92.465 17.1495 93.4006 17.0079L96.4545 16.5265V17.1495C96.4545 19.6139 95.0239 20.3786 93.4828 20.3786Z" fill="#14171F"/>
<path d="M107.268 22.7863V21.0868C107.983 22.2765 109.414 23.1262 111.285 23.1262C115.137 23.1262 117.668 19.9821 117.668 15.7617C117.668 11.6262 115.384 8.48225 111.423 8.48225C109.414 8.48225 107.928 9.38865 107.323 10.38V2.27905H103.719V22.7863H107.268ZM114.008 15.79C114.008 18.3393 112.523 19.7555 110.652 19.7555C108.809 19.7555 107.268 18.311 107.268 15.79C107.268 13.2408 108.809 11.8529 110.652 11.8529C112.523 11.8529 114.008 13.2408 114.008 15.79Z" fill="#14171F"/>
<path d="M119.74 18.9907C119.74 21.1717 121.501 23.1828 124.389 23.1828C126.397 23.1828 127.691 22.2197 128.378 21.115C128.378 21.6533 128.434 22.418 128.516 22.7862H131.872C131.791 22.3047 131.708 21.3133 131.708 20.5769V13.7222C131.708 10.9181 130.112 8.42554 125.82 8.42554C122.188 8.42554 120.235 10.8331 120.015 13.0141L123.261 13.7222C123.372 12.5043 124.252 11.4563 125.847 11.4563C127.388 11.4563 128.131 12.2777 128.131 13.2691C128.131 13.7506 127.883 14.1471 127.113 14.2605L123.784 14.7703C121.528 15.1102 119.74 16.4981 119.74 18.9907ZM125.16 20.3786C123.977 20.3786 123.399 19.5855 123.399 18.7641C123.399 17.6878 124.142 17.1495 125.077 17.0079L128.131 16.5265V17.1495C128.131 19.6139 126.701 20.3786 125.16 20.3786Z" fill="#14171F"/>
<path d="M134.24 18.9057C134.405 20.4919 135.808 23.2111 139.88 23.2111C143.429 23.2111 145.135 20.8885 145.135 18.6225C145.135 16.5831 143.787 14.9119 141.118 14.3454L139.192 13.9205C138.449 13.7789 137.954 13.3541 137.954 12.6742C137.954 11.8811 138.724 11.2863 139.687 11.2863C141.228 11.2863 141.806 12.3343 141.916 13.1558L144.97 12.4477C144.805 10.9464 143.511 8.42554 139.66 8.42554C136.743 8.42554 134.598 10.4933 134.598 12.9858C134.598 14.9402 135.78 16.5548 138.394 17.1495L140.182 17.5745C141.228 17.801 141.641 18.3109 141.641 18.9341C141.641 19.6705 141.063 20.322 139.852 20.322C138.257 20.322 137.459 19.3022 137.376 18.1976L134.24 18.9057Z" fill="#14171F"/>
<path d="M150.692 14.2321C150.774 12.9575 151.821 11.4846 153.718 11.4846C155.809 11.4846 156.69 12.8442 156.745 14.2321H150.692ZM157.103 17.8577C156.662 19.1039 155.727 19.9821 154.021 19.9821C152.206 19.9821 150.692 18.6508 150.61 16.8097H160.294C160.294 16.753 160.349 16.1865 160.349 15.6483C160.349 11.173 157.846 8.42554 153.663 8.42554C150.197 8.42554 147.006 11.3146 147.006 15.7617C147.006 20.4635 150.279 23.2111 153.994 23.2111C157.323 23.2111 159.469 21.2 160.157 18.7924L157.103 17.8577Z" fill="#14171F"/>
<path d="M18.0438 31.2311C17.2563 32.2509 15.6596 31.6921 15.6407 30.39L15.3632 11.3455H27.8161C30.0717 11.3455 31.3297 14.0244 29.9271 15.8409L18.0438 31.2311Z" fill="#14171F"/>
<path d="M18.0438 31.2311C17.2563 32.2509 15.6596 31.6921 15.6407 30.39L15.3632 11.3455H27.8161C30.0717 11.3455 31.3297 14.0244 29.9271 15.8409L18.0438 31.2311Z" fill="white" fill-opacity="0.2"/>
<path d="M12.9797 0.586498C13.7671 -0.433368 15.3638 0.125444 15.3828 1.42755L15.5044 20.4721H3.20732C0.951688 20.4721 -0.306315 17.7932 1.0963 15.9766L12.9797 0.586498Z" fill="#14171F"/>
</g>
</svg>
