<svg width="288" height="56" viewBox="0 0 288 56" fill="none" xmlns="http://www.w3.org/2000/svg">
<g clip-path="url(#clip0_900_3928)">
<path d="M75.0471 33.085C75.344 35.8609 77.8696 40.6194 85.1989 40.6194C91.587 40.6194 94.6578 36.5548 94.6578 32.5894C94.6578 29.0204 92.2309 26.0958 87.4276 25.1044L83.9607 24.3609C82.6238 24.1131 81.7325 23.3696 81.7325 22.1799C81.7325 20.7919 83.119 19.7511 84.8524 19.7511C87.6254 19.7511 88.6653 21.5851 88.8636 23.0226L94.3604 21.7834C94.0635 19.1562 91.7357 14.7447 84.8029 14.7447C79.5534 14.7447 75.691 18.3632 75.691 22.7251C75.691 26.1453 77.82 28.9709 82.5246 30.0117L85.7437 30.7553C87.6254 31.1518 88.3684 32.0441 88.3684 33.1346C88.3684 34.4234 87.3284 35.5635 85.1494 35.5635C82.2773 35.5635 80.8408 33.7789 80.6925 31.8458L75.0471 33.085Z" fill="#1F1F1F"/>
<path d="M115.706 39.8759H121.996C121.896 39.0332 121.748 37.3479 121.748 35.4643V15.4882H115.161V29.6647C115.161 32.4902 113.477 34.4729 110.556 34.4729C107.485 34.4729 106.099 32.2919 106.099 29.5656V15.4882H99.5122V30.904C99.5122 36.2078 102.879 40.5203 108.773 40.5203C111.347 40.5203 114.171 39.529 115.508 37.2488C115.508 38.2401 115.607 39.3802 115.706 39.8759Z" fill="#1F1F1F"/>
<path d="M135.363 49.294V37.4967C136.551 39.1324 139.028 40.4709 142.395 40.4709C149.279 40.4709 153.884 35.0182 153.884 27.6325C153.884 20.3956 149.774 14.943 142.643 14.943C138.979 14.943 136.255 16.5787 135.165 18.4624V15.4882H128.777V49.294H135.363ZM147.397 27.6821C147.397 32.0442 144.723 34.5721 141.355 34.5721C137.988 34.5721 135.264 31.9946 135.264 27.6821C135.264 23.3697 137.988 20.8416 141.355 20.8416C144.723 20.8416 147.397 23.3697 147.397 27.6821Z" fill="#1F1F1F"/>
<path d="M157.614 33.2337C157.614 37.0505 160.783 40.5699 165.983 40.5699C169.597 40.5699 171.925 38.8845 173.163 36.9513C173.163 37.8932 173.262 39.2315 173.411 39.8759H179.452C179.304 39.0332 179.156 37.2983 179.156 36.0096V24.0139C179.156 19.1066 176.283 14.7447 168.558 14.7447C162.021 14.7447 158.505 18.9579 158.109 22.7747L163.952 24.0139C164.151 21.8825 165.735 20.0485 168.607 20.0485C171.381 20.0485 172.718 21.4859 172.718 23.2209C172.718 24.0635 172.273 24.7575 170.886 24.9558L164.894 25.848C160.833 26.4428 157.614 28.8717 157.614 33.2337ZM167.369 35.6626C165.24 35.6626 164.2 34.2747 164.2 32.8372C164.2 30.9536 165.537 30.0117 167.221 29.7639L172.718 28.9213V30.0117C172.718 34.3243 170.143 35.6626 167.369 35.6626Z" fill="#1F1F1F"/>
<path d="M192.183 39.876V36.9019C193.47 38.9838 196.045 40.4709 199.413 40.4709C206.347 40.4709 210.903 34.9687 210.903 27.583C210.903 20.3459 206.792 14.8439 199.661 14.8439C196.045 14.8439 193.371 16.4301 192.282 18.1649V3.98831H185.795V39.876H192.183ZM204.315 27.6325C204.315 32.0937 201.642 34.5721 198.274 34.5721C194.956 34.5721 192.183 32.0442 192.183 27.6325C192.183 23.1713 194.956 20.7425 198.274 20.7425C201.642 20.7425 204.315 23.1713 204.315 27.6325Z" fill="#1F1F1F"/>
<path d="M214.632 33.2337C214.632 37.0505 217.801 40.5699 223.001 40.5699C226.615 40.5699 228.944 38.8845 230.181 36.9513C230.181 37.8932 230.281 39.2315 230.429 39.8759H236.47C236.323 39.0332 236.174 37.2983 236.174 36.0096V24.0139C236.174 19.1066 233.301 14.7447 225.576 14.7447C219.039 14.7447 215.523 18.9579 215.127 22.7747L220.97 24.0139C221.169 21.8825 222.753 20.0485 225.625 20.0485C228.399 20.0485 229.736 21.4859 229.736 23.2209C229.736 24.0635 229.29 24.7575 227.903 24.9558L221.912 25.848C217.851 26.4428 214.632 28.8717 214.632 33.2337ZM224.388 35.6626C222.258 35.6626 221.218 34.2747 221.218 32.8372C221.218 30.9536 222.555 30.0117 224.239 29.7639L229.736 28.9213V30.0117C229.736 34.3243 227.161 35.6626 224.388 35.6626Z" fill="#1F1F1F"/>
<path d="M240.733 33.085C241.029 35.8609 243.555 40.6194 250.884 40.6194C257.273 40.6194 260.343 36.5548 260.343 32.5894C260.343 29.0204 257.917 26.0958 253.113 25.1044L249.646 24.3609C248.309 24.1131 247.418 23.3696 247.418 22.1799C247.418 20.7919 248.804 19.7511 250.538 19.7511C253.312 19.7511 254.351 21.5851 254.55 23.0226L260.046 21.7834C259.749 19.1562 257.421 14.7447 250.489 14.7447C245.239 14.7447 241.377 18.3632 241.377 22.7251C241.377 26.1453 243.505 28.9709 248.21 30.0117L251.429 30.7553C253.312 31.1518 254.054 32.0441 254.054 33.1346C254.054 34.4234 253.014 35.5635 250.835 35.5635C247.963 35.5635 246.527 33.7789 246.378 31.8458L240.733 33.085Z" fill="#1F1F1F"/>
<path d="M270.346 24.9062C270.494 22.6756 272.377 20.098 275.793 20.098C279.557 20.098 281.142 22.4773 281.241 24.9062H270.346ZM281.885 31.251C281.092 33.4319 279.409 34.9686 276.338 34.9686C273.07 34.9686 270.346 32.6389 270.198 29.417H287.629C287.629 29.3177 287.728 28.3264 287.728 27.3846C287.728 19.5528 283.222 14.7447 275.694 14.7447C269.455 14.7447 263.71 19.8006 263.71 27.5829C263.71 35.8112 269.603 40.6194 276.289 40.6194C282.281 40.6194 286.144 37.1 287.382 32.8867L281.885 31.251Z" fill="#1F1F1F"/>
<path d="M31.5797 54.654C30.1622 56.4386 27.2882 55.4608 27.2541 53.1821L26.7546 19.8541H49.1699C53.2299 19.8541 55.4943 24.5423 52.9697 27.7212L31.5797 54.654Z" fill="url(#paint0_linear_900_3928)"/>
<path d="M31.5797 54.654C30.1622 56.4386 27.2882 55.4608 27.2541 53.1821L26.7546 19.8541H49.1699C53.2299 19.8541 55.4943 24.5423 52.9697 27.7212L31.5797 54.654Z" fill="url(#paint1_linear_900_3928)" fill-opacity="0.2"/>
<path d="M22.4635 1.02634C23.8809 -0.758425 26.755 0.219497 26.7891 2.49818L27.008 35.8262H4.87325C0.813115 35.8262 -1.45129 31.138 1.07342 27.9591L22.4635 1.02634Z" fill="#3ECF8E"/>
</g>
<defs>
<linearGradient id="paint0_linear_900_3928" x1="26.7546" y1="27.2437" x2="46.6751" y2="35.6004" gradientUnits="userSpaceOnUse">
<stop stop-color="#249361"/>
<stop offset="1" stop-color="#3ECF8E"/>
</linearGradient>
<linearGradient id="paint1_linear_900_3928" x1="17.9223" y1="15.1537" x2="27.0043" y2="32.2542" gradientUnits="userSpaceOnUse">
<stop/>
<stop offset="1" stop-opacity="0"/>
</linearGradient>
<clipPath id="clip0_900_3928">
<rect width="288" height="56" fill="white"/>
</clipPath>
</defs>
</svg>
