<svg width="709" height="144" viewBox="0 0 709 144" fill="none" xmlns="http://www.w3.org/2000/svg">
<path fill-rule="evenodd" clip-rule="evenodd" d="M143.959 108L143.959 36C143.959 16.1178 127.846 0 107.97 0L35.9899 0C16.1133 0 7.62939e-05 16.1178 7.62939e-05 36L7.62939e-05 108C7.62939e-05 127.882 16.1133 144 35.9899 144L107.97 144C127.846 144 143.959 127.882 143.959 108Z" fill="url(#paint0_linear_375_566)"/>
<path fill-rule="evenodd" clip-rule="evenodd" d="M96.6718 80.1059C88.6083 67.0097 56.509 61.0694 57.6794 46.0456C58.5908 34.2862 75.0215 35.4244 75.0215 35.4244C75.0215 35.4244 49.1926 32.6697 45.5967 51.2062C41.9061 70.2141 80.2959 77.3975 85.6599 88.6137C94.2363 106.556 66.8037 108.282 66.8037 108.282C96.373 109.651 103.495 91.1866 96.6718 80.1059Z" fill="white"/>
<path opacity="0.5" fill-rule="evenodd" clip-rule="evenodd" d="M50.8512 81.1723C50.7068 84.0097 50.6719 86.5876 50.9857 88.9817C51.2895 91.3709 51.9768 93.4779 53.1372 95.2791C53.725 96.1769 54.3973 97.0393 55.2091 97.8323C56.0359 98.612 56.9274 99.3896 57.9434 100.092C58.4266 100.478 58.9844 100.778 59.5023 101.155C60.0452 101.496 60.603 101.83 61.1658 102.191C61.7386 102.517 62.3213 102.864 62.909 103.228C63.5067 103.559 64.1093 103.928 64.712 104.337C63.8055 104.492 62.8841 104.569 61.9677 104.569C60.0104 104.569 58.053 104.219 56.1455 103.531L55.0996 103.125C54.7559 102.967 54.4272 102.784 54.0835 102.613L53.5755 102.348C53.4112 102.251 53.2568 102.138 53.0924 102.034C52.7737 101.816 52.445 101.614 52.1312 101.378C50.896 100.43 49.7754 99.2527 48.9188 97.8939C48.0522 96.5409 47.4645 95.0131 47.1656 93.4715C46.8718 91.9265 46.8568 90.3696 47.081 88.8896C47.3101 87.4086 47.7533 85.9975 48.3759 84.6923C49.0134 83.3965 49.7953 82.1721 50.8512 81.1723ZM80.7841 38.6899C82.7364 38.6899 84.6987 39.0391 86.6063 39.7277L87.6522 40.1345C87.9909 40.2911 88.3245 40.4743 88.6632 40.6467L89.1712 40.9107C89.3406 41.0077 89.495 41.12 89.6593 41.2249C89.9781 41.4426 90.3068 41.6446 90.6156 41.881C91.8557 42.8291 92.9714 44.0062 93.833 45.3651C94.6996 46.7175 95.2873 48.2463 95.5861 49.7869C95.88 51.3325 95.8899 52.8898 95.6658 54.3693C95.4367 55.8508 94.9984 57.2614 94.3759 58.5666C93.7384 59.8619 92.9564 61.0868 91.9006 62.0861C92.045 59.2497 92.0798 56.6714 91.7661 54.2777C91.4623 51.888 90.775 49.781 89.6145 47.9799C89.0268 47.082 88.3544 46.2196 87.5426 45.4261C86.7109 44.647 85.8243 43.8698 84.8033 43.1674C84.3252 42.7818 83.7674 42.4809 83.2494 42.1036C82.7065 41.7638 82.1487 41.4288 81.5859 41.0683C81.0082 40.7423 80.4304 40.3946 79.8427 40.0301C79.2401 39.7001 78.6424 39.3317 78.0348 38.9219C78.9463 38.7668 79.8627 38.6899 80.7841 38.6899Z" fill="white"/>
<path fill-rule="evenodd" clip-rule="evenodd" d="M292.424 62.0387C301.936 62.0387 309.23 70.5514 309.23 80.7094C309.23 90.8673 301.936 99.38 292.424 99.38C287.78 99.38 284.149 97.1622 282.367 94.9928L282.055 94.5871V113.544H272.257V62.8256H282.055V66.8316C283.7 64.5424 287.49 62.0387 292.424 62.0387ZM204.247 46.9448C215.188 46.9448 221.696 54.8137 222.054 62.3964H211.756C210.611 58.1043 207.25 56.5305 204.247 56.5305C200.599 56.5305 197.739 58.2474 197.667 61.2518C197.596 64.3994 199.884 66.1162 204.032 67.3323L209.968 68.9776C218.192 71.2667 223.126 76.4888 223.126 84.3576C223.126 93.0134 216.118 99.4515 205.462 99.4515C193.305 99.4515 186.368 91.225 185.939 82.8554H196.308C197.024 87.4336 200.957 89.8658 205.462 89.8658C209.61 89.8658 212.685 87.9344 212.685 84.7153C212.685 81.997 210.754 79.9225 205.891 78.5633L200.528 76.9895C192.518 74.7004 187.297 69.693 187.226 61.9672C187.154 52.5961 194.091 46.9448 204.247 46.9448ZM688.331 62.0387C698.599 62.0387 707.093 69.2046 707.016 82.0699L706.996 82.9985H679.105C679.534 87.219 682.681 90.8673 688.76 90.8673C691.964 90.8673 694.794 89.5587 696.087 87.4068L696.34 86.9329H706.567C704.421 94.1579 697.341 99.38 688.259 99.38C677.317 99.38 669.522 91.5111 669.522 80.6378C669.522 69.9791 677.46 62.0387 688.331 62.0387ZM542.512 62.0387C552.881 62.0387 561.32 70.2652 561.32 80.7094C561.32 91.1535 552.881 99.38 542.512 99.38C532.142 99.38 523.703 91.1535 523.703 80.7094C523.703 70.2652 532.142 62.0387 542.512 62.0387ZM612.167 62.0387C616.812 62.0387 620.442 64.2565 622.165 66.4259L622.465 66.8316V62.8256H632.263V98.5931H622.465V94.5871C620.892 96.8763 617.102 99.38 612.167 99.38C602.656 99.38 595.361 90.8673 595.361 80.7094C595.361 70.5514 602.656 62.0387 612.167 62.0387ZM332.902 62.0387C343.17 62.0387 351.664 69.2046 351.587 82.0699L351.567 82.9985H323.676C324.105 87.219 327.252 90.8673 333.331 90.8673C336.535 90.8673 339.365 89.5587 340.658 87.4068L340.911 86.9329H351.138C348.993 94.1579 341.913 99.38 332.83 99.38C321.888 99.38 314.093 91.5111 314.093 80.6378C314.093 69.9791 322.031 62.0387 332.902 62.0387ZM239.575 62.8256V81.9254C239.575 87.2906 241.434 90.4381 245.654 90.4381C250.016 90.4381 253.02 87.219 253.02 80.2801V62.8256H262.817V98.5931H253.02V94.5156C251.16 97.377 247.799 99.38 243.222 99.38C234.569 99.38 229.777 93.0849 229.777 83.5708V62.8256H239.575ZM581.058 52.8822V62.8256H591.142V71.4098H581.058V84.143C581.058 88.5067 582.918 90.2235 587.137 90.2235C588.71 90.2235 589.998 90.0089 591.142 89.5797V98.2354C589.569 98.7362 587.638 99.0223 584.92 99.0223C577.339 99.0223 571.261 94.8018 571.261 86.0745V71.4098H564.038V62.8256H571.261V52.8822H581.058ZM655.219 52.8822V62.8256H665.303V71.4098H655.219V84.143C655.219 88.5067 657.079 90.2235 661.298 90.2235C662.871 90.2235 664.159 90.0089 665.303 89.5797V98.2354C663.729 98.7362 661.799 99.0223 659.081 99.0223C651.5 99.0223 645.422 94.8018 645.422 86.0745V71.4098H638.199V62.8256H645.422V52.8822H655.219ZM503.25 62.0387C511.903 62.0387 517.052 68.3338 517.052 77.6333V98.5931H507.255V79.2787C507.255 74.1281 505.038 70.9806 500.962 70.9806C496.456 70.9806 493.023 74.2712 493.023 81.1386V98.5931H483.226V62.8256H493.023V66.9031C494.883 64.0417 498.602 62.0387 503.25 62.0387ZM460.413 62.0387C469.066 62.0387 474.215 68.3338 474.215 77.6333V98.5931H464.418V79.2787C464.418 74.1281 462.201 70.9806 458.124 70.9806C453.619 70.9806 450.186 74.2712 450.186 81.1386V98.5931H440.389V62.8256H450.186V66.9031C452.046 64.0417 455.764 62.0387 460.413 62.0387ZM377.384 62.3964C378.385 62.3964 379.458 62.4679 380.674 62.8256V72.769C379.172 72.2682 377.813 71.9821 376.24 71.9821C371.591 71.9821 368.516 75.6304 368.516 81.4962V98.5931H358.719V62.8256H368.516V68.5484C369.732 65.0432 373.379 62.3964 377.384 62.3964ZM413.714 47.8032L435.669 98.5931H424.798L419.864 87.0044H398.266L393.332 98.5931H382.605L404.488 47.8032H413.714ZM614.241 70.9806C608.878 70.9806 605.23 75.1296 605.23 80.7094C605.23 86.2891 608.878 90.4381 614.241 90.4381C619.605 90.4381 623.252 86.2891 623.252 80.7094C623.252 75.1296 619.605 70.9806 614.241 70.9806ZM290.279 70.9806C284.915 70.9806 281.268 75.1296 281.268 80.7094C281.268 86.2891 284.915 90.4381 290.279 90.4381C295.643 90.4381 299.29 86.2891 299.29 80.7094C299.29 75.1296 295.643 70.9806 290.279 70.9806ZM542.512 71.1952C537.363 71.1952 533.572 75.2012 533.572 80.7094C533.572 86.2176 537.363 90.2235 542.512 90.2235C547.661 90.2235 551.38 86.2176 551.38 80.7094C551.38 75.2012 547.661 71.1952 542.512 71.1952ZM409.065 61.3949L402.057 77.9195H416.074L409.065 61.3949ZM332.616 69.9791C328.347 69.9791 325.299 72.3546 324.199 75.95L324.034 76.5603H340.84C339.624 71.7675 335.977 69.9791 332.616 69.9791ZM688.045 69.9791C683.776 69.9791 680.727 72.3546 679.628 75.95L679.463 76.5603H696.269C695.053 71.7675 691.406 69.9791 688.045 69.9791Z" fill="black"/>
<defs>
<linearGradient id="paint0_linear_375_566" x1="212.338" y1="75.6018" x2="71.9412" y2="212.359" gradientUnits="userSpaceOnUse">
<stop stop-color="#FF8945"/>
<stop offset="1" stop-color="#FF22A7"/>
</linearGradient>
</defs>
</svg>
