<svg width="563" height="144" viewBox="0 0 563 144" fill="none" xmlns="http://www.w3.org/2000/svg">
<path d="M182.193 42.7559V49.6289H202.197V102.548H209.73V49.6289H229.733V42.7559H182.193Z" fill="black"/>
<path d="M231.291 80.9868C231.291 94.0427 239.949 103.063 253.196 103.063C263.064 103.063 271.035 96.9665 272.767 88.2035H265.58C264.109 93.8735 258.561 96.7918 252.677 96.7918C244.451 96.7918 238.996 91.1218 238.737 82.9629V82.3614H273.024C273.11 81.3304 273.197 80.2995 273.197 79.3544C272.85 66.3816 264.363 58.5637 252.244 58.5637C239.775 58.5637 231.291 67.4986 231.291 80.9868ZM239.17 76.5192C239.862 69.3886 245.837 64.7495 252.33 64.7495C259.341 64.7495 264.885 68.9592 265.578 76.5192H239.17Z" fill="black"/>
<path d="M335.129 58.5637C327.25 58.5637 322.488 62.1719 319.804 66.8971C317.293 61.3128 312.011 58.5637 305.864 58.5637C299.024 58.5637 295.301 61.9143 292.963 65.0931L292.36 59.0792H285.863V102.548H292.963V79.7841C292.963 71.021 297.379 65.0071 304.652 65.0071C311.405 65.0071 315.302 69.4747 315.302 78.0659V102.548H322.402V79.4404C322.402 70.5056 326.904 65.0071 334.265 65.0071C340.929 65.0071 344.739 69.4747 344.739 78.0659V102.548H351.839V77.6362C351.839 63.8043 344.307 58.5637 335.129 58.5637Z" fill="black"/>
<path d="M387.082 58.5637C379.635 58.5637 374.873 62.0862 371.93 66.124L371.328 59.0792H364.831V119.73H371.93V95.847C374.614 100.057 379.635 103.063 387.082 103.063C398.941 103.063 408.296 94.0427 408.296 80.9868C408.296 66.7252 398.941 58.5637 387.082 58.5637ZM386.388 96.7918C377.73 96.7918 371.842 90.0906 371.842 80.815C371.842 71.4504 377.73 64.8352 386.388 64.8352C394.784 64.8352 401.023 71.4504 401.023 80.9868C401.023 90.1766 394.784 96.7918 386.388 96.7918Z" fill="black"/>
<path d="M440.266 103.063C453.166 103.063 462.171 93.9566 462.171 80.9868C462.171 67.6704 453.166 58.5637 440.266 58.5637C427.363 58.5637 418.358 67.6704 418.358 80.9868C418.358 93.9566 427.363 103.063 440.266 103.063ZM440.266 96.7918C431.52 96.7918 425.631 90.0048 425.631 80.9868C425.631 71.6222 431.52 64.8352 440.266 64.8352C449.009 64.8352 454.898 71.6222 454.898 80.9868C454.898 90.0048 449.009 96.7918 440.266 96.7918Z" fill="black"/>
<path d="M494.255 59.0793C486.376 59.0793 482.301 62.3439 480.223 65.6945L479.62 59.0793H473.123V102.548H480.223V80.5573C480.223 73.5985 483.431 65.9524 492.697 65.9524H496.245V59.0793H494.255Z" fill="black"/>
<path d="M543.662 95.7583C541.845 95.7583 540.719 95.0736 540.719 92.9257V74.3716C540.719 64.148 534.575 58.5637 523.318 58.5637C512.667 58.5637 505.656 63.6325 504.615 72.2238H511.715C512.582 67.7565 516.739 64.8352 522.971 64.8352C529.898 64.8352 533.619 68.2719 533.619 73.9419V76.9489H520.981C509.377 76.9489 503.23 81.4996 503.23 90.2624C503.23 98.2524 509.81 103.063 519.508 103.063C527.128 103.063 531.194 99.713 533.966 95.7609C534.051 100.057 536.045 102.548 541.93 102.548H545.828V95.7583H543.662ZM533.619 84.6781C533.619 91.9809 528.86 97.0497 520.029 97.0497C514.14 97.0497 510.418 94.1284 510.418 89.833C510.418 84.8499 513.967 82.8768 520.287 82.8768H533.619V84.6781Z" fill="black"/>
<path d="M555.9 42.7559V102.548H563V42.7559H555.9Z" fill="black"/>
<path d="M95.7787 47.3277C92.4246 22.4381 83.9659 1.63647 70.9135 1.63647C57.8977 1.63647 49.4026 22.4381 46.0482 47.3277C20.9642 50.656 0 59.049 0 72.0001C0 84.9153 20.9642 93.3442 46.0482 96.6726C49.4026 121.562 57.861 142.364 70.9135 142.364C83.9296 142.364 92.4246 121.562 95.7787 96.6726C120.863 93.3442 141.827 84.9513 141.827 72.0001C141.827 59.049 120.863 50.6197 95.7787 47.3277ZM45.2462 89.3649C21.2194 85.9282 7.18247 78.0416 7.18247 71.9638C7.18247 65.8863 21.1829 57.9997 45.2462 54.563C44.6993 60.3152 44.4439 66.1756 44.4439 71.9638C44.4439 77.7523 44.6993 83.6491 45.2462 89.3649ZM70.9135 8.7271C77.0387 8.7271 84.9868 22.6189 88.4506 46.4954C82.6533 45.9528 76.747 45.6998 70.9135 45.6998C65.0802 45.6998 59.1736 45.9891 53.3767 46.4954C56.8401 22.6551 64.7882 8.7271 70.9135 8.7271ZM96.581 89.3649C95.4141 89.5459 90.5288 90.0885 89.3255 90.2331C89.2162 91.463 88.6329 96.2746 88.4506 97.4325C84.9868 121.273 77.0387 135.201 70.9135 135.201C64.7882 135.201 56.8401 121.309 53.3767 97.4325C53.1943 96.2746 52.6474 91.427 52.5014 90.2331C51.9548 84.5896 51.5901 78.5119 51.5901 71.9638C51.5901 65.416 51.9181 59.3746 52.5014 53.6948C58.1893 53.1522 64.3142 52.7902 70.9135 52.7902C77.5127 52.7902 83.6016 53.1158 89.3255 53.6948C90.5651 53.8031 95.4141 54.382 96.581 54.563C120.608 57.9997 134.645 65.8863 134.645 71.9638C134.645 78.0416 120.608 85.9282 96.581 89.3649Z" fill="black"/>
</svg>
