<svg width="796" height="288" viewBox="0 0 796 288" fill="none" xmlns="http://www.w3.org/2000/svg">
    <mask id="mask0_3713_2986" style="mask-type:luminance" maskUnits="userSpaceOnUse" x="316" y="69"
        width="480" height="153">
        <path d="M796 69H316V222H796V69Z" fill="white" />
    </mask>
    <g mask="url(#mask0_3713_2986)">
        <path
            d="M364.546 218.583V88.821H316.234V68.957H436.115V88.821H387.803V218.483H364.546V218.583Z"
            fill="black" />
        <path
            d="M522.373 169.657H440.323C440.722 187.425 451.203 203.994 472.364 203.994C491.23 203.994 498.516 191.817 500.413 184.73H521.375C515.685 205.192 500.014 220.664 471.965 220.664C438.027 220.664 419.262 196.608 419.262 163.968C419.262 131.328 439.325 107.471 471.965 107.471C504.605 107.471 522.572 128.832 522.572 161.872C522.572 164.766 522.572 167.961 522.373 169.657ZM501.212 153.487C501.212 136.718 489.533 124.241 471.266 124.241C454.098 124.241 441.521 135.919 440.323 153.487H501.212Z"
            fill="black" />
        <path
            d="M543.033 181.935H563.696C564.494 194.312 572.08 203.895 591.944 203.895C609.911 203.895 614.702 195.909 614.702 188.223C614.702 174.848 600.428 173.351 586.653 170.456C567.988 166.064 546.727 160.574 546.727 138.415C546.727 120.048 561.599 107.671 587.352 107.671C616.599 107.671 630.673 123.342 632.17 141.809H611.408C609.911 133.624 605.519 124.241 587.751 124.241C573.977 124.241 568.087 129.631 568.087 137.616C568.087 148.696 579.966 149.794 595.038 153.088C614.702 157.679 636.063 163.369 636.063 187.225C636.063 207.887 620.192 220.464 592.143 220.464C559.703 220.464 543.632 203.695 542.934 181.935H543.033Z"
            fill="black" />
        <path
            d="M655.326 181.935H675.988C676.787 194.312 684.373 203.895 704.237 203.895C722.204 203.895 726.995 195.909 726.995 188.223C726.995 174.848 712.721 173.351 698.946 170.456C680.281 166.064 659.02 160.574 659.02 138.415C659.02 120.048 673.892 107.671 699.645 107.671C728.892 107.671 742.966 123.342 744.463 141.809H723.701C722.204 133.624 717.812 124.241 700.044 124.241C686.27 124.241 680.38 129.631 680.38 137.616C680.38 148.696 692.259 149.794 707.331 153.088C726.995 157.679 748.356 163.369 748.356 187.225C748.356 207.887 732.485 220.464 704.436 220.464C671.996 220.464 655.925 203.695 655.227 181.935H655.326Z"
            fill="black" />
        <path d="M774.809 218.583V68.957H795.271V218.583H774.809Z" fill="black" />
    </g>
    <path fill-rule="evenodd" clip-rule="evenodd"
        d="M114.688 3.585L70.682 29.039L127.489 62.5L185.37 28.999L141.403 3.585C133.134 -1.195 122.957 -1.195 114.688 3.585ZM57.324 114.085V169.454L0 136.312V85.404C0 75.844 5.08799 67.001 13.357 62.221L57.364 36.727L173.841 105.361C176.067 106.636 176.067 109.862 173.841 111.137L128.085 137.627L72.391 105.401C65.712 101.537 57.364 106.357 57.324 114.085ZM140.726 70.307L140.76 70.327L140.726 70.347V70.307ZM140.76 70.327L198.726 36.767L242.733 62.221C251.002 67.001 256.09 75.844 256.09 85.404V136.232L139.732 205.623C137.506 206.978 134.684 205.344 134.684 202.755V149.258L190.418 116.993C197.096 113.129 197.136 103.529 190.497 99.625L140.76 70.327ZM198.767 251.273V186.025L256.131 151.808V202.636C256.131 212.196 251.042 221.039 242.773 225.819L198.767 251.273ZM57.324 184.91L0 151.768V202.636C0 212.196 5.08799 221.039 13.357 225.819L57.284 251.233V184.91H57.324ZM141.522 220.123L185.37 193.992V258.961L141.403 284.415C133.134 289.195 122.957 289.195 114.688 284.415L70.682 258.961V184.71V125.676C70.682 123.087 73.464 121.494 75.691 122.768L121.327 149.178V208.611C121.327 219.007 132.617 225.421 141.522 220.123Z"
        fill="black" />
</svg>
    