<svg width="327" height="39" viewBox="0 0 327 39" fill="none" xmlns="http://www.w3.org/2000/svg">
<g clip-path="url(#clip0_926_4247)">
<path d="M0 0.852783V7.57496H9.61126V38.2139H17.9388V7.57496H27.3479V0.852783H0Z" fill="#00AFF4"/>
<path d="M214.319 0.852783V7.57496H223.932V38.2139H232.257V7.57496H241.665V0.852783H214.319Z" fill="#00AFF4"/>
<path d="M30.4077 38.2138H38.8394V22.0066H49.3088V38.2138H57.6363V0.784424H49.1548V15.2844H38.7869V0.784424H30.4077V38.2138Z" fill="#00AFF4"/>
<path d="M159.458 0.784424H151.079V38.2138L159.484 20.2312L159.458 0.784424Z" fill="#00AFF4"/>
<path d="M159.484 20.2312L159.511 38.2138L168.578 18.7625V0.784424L159.484 20.2312Z" fill="#FF3287"/>
<path d="M151.079 38.2137H159.511L159.484 20.2312L151.079 38.2137Z" fill="#C87296"/>
<path d="M176.956 0.784424L168.578 18.7625V38.2138L176.982 20.2312L176.956 0.784424Z" fill="#00AFF4"/>
<path d="M168.578 0.784424V18.7625L176.956 0.784424H168.578Z" fill="#C87296"/>
<path d="M186.076 0.784424L176.982 20.2312L177.009 38.2138L194.454 0.784424H186.076Z" fill="#FF3287"/>
<path d="M168.578 38.2137H177.009L176.982 20.2312L168.578 38.2137Z" fill="#C87296"/>
<path d="M123.275 38.1448H146.905V31.4235H131.603V22.0067H143.271V15.2846H131.501V7.57496H146.905V0.852783H123.275V38.1448Z" fill="#FF3287"/>
<path d="M62.7305 38.1448H86.3589V31.4235H71.0589V22.0067H82.7266V15.2846H70.9565V7.57496H86.3589V0.852783H62.7305V38.1448Z" fill="#00AFF4"/>
<path d="M91.5063 38.2138H98.8287V20.7613C98.8287 19.7881 98.6409 15.0212 98.5999 13.946H98.8287C100.928 18.5019 100.989 18.665 101.871 20.1479L111.369 38.2147H117.963V0.784424H110.641V14.7668C110.641 16.1992 110.641 16.505 110.777 19.0745L110.959 22.8602H110.737C110.589 22.6049 110.034 21.224 109.87 20.9164C109.484 20.1488 108.926 19.1242 108.481 18.3566L99.1644 0.78531H91.5072L91.5063 38.2138Z" fill="#FF3287"/>
<path d="M246.8 0.861572L236.157 38.2129H244.23L246.183 30.5361H257.75L259.651 38.2129H267.721L256.823 0.861572H246.8ZM256.105 24.6675H247.625L251.737 7.56691H251.942L256.105 24.6675Z" fill="#00AFF4"/>
<path d="M267.626 24.6524C267.626 32.3301 269.579 34.3838 271.087 35.8091C273.392 38.0179 276.357 39 280.633 39C282.243 39 286.097 38.6579 288.771 36.5962C291.908 34.1897 292.422 31.5616 292.731 30.0779C292.988 28.4913 293.041 28.1828 293.091 25.4714H284.763C284.763 29.5141 283.761 32.2778 280.436 32.2778C275.957 32.2778 275.957 28.3388 275.957 26.2913V12.0022C275.957 10.9696 276.009 9.12511 277.316 7.90104C278.167 7.13168 279.458 6.72218 280.488 6.72218C284.609 6.72218 284.711 10.8163 284.763 12.6661H293.091C292.988 9.63832 292.577 5.06557 289.159 2.457C286.517 0.451159 283.116 0 280.844 0C272.14 0 267.625 4.76686 267.625 13.3327L267.626 24.6524Z" fill="#00AFF4"/>
<path d="M295.846 38.2138H304.278V0.784424H295.846V38.2138ZM315.997 0.784424L304.589 18.8432L317.08 38.2147H327.001L313.585 18.2298L325.1 0.78531L315.997 0.784424Z" fill="#00AFF4"/>
<path d="M205.731 0.852783C197.858 0.852783 193.877 5.18621 193.877 11.3358C193.877 18.6891 198.229 20.3182 203.917 22.5013C210.161 24.6765 211.868 25.2819 211.868 28.0721C211.868 31.466 208.295 32.277 206.306 32.277C202.726 32.277 200.079 30.3501 198.863 27.2106L193.105 31.4164C196.189 37.4215 199.633 38.9992 206.702 38.9992C208.8 38.9992 212.219 38.4364 214.337 37.1148C219.475 33.9062 219.475 28.9328 219.475 27.2611C219.475 23.7653 217.891 21.3331 217.444 20.7259C216.014 18.6944 213.452 17.1778 211.19 16.3677L205.903 14.6437C203.351 13.8247 200.626 13.6209 200.626 10.9866C200.626 10.593 200.73 7.83821 204.892 7.57319H211.464V0.852783C211.464 0.852783 206.23 0.852783 205.731 0.852783Z" fill="#00AFF4"/>
</g>
<defs>
<clipPath id="clip0_926_4247">
<rect width="327" height="39" fill="white"/>
</clipPath>
</defs>
</svg>
