<svg width="858" height="120" viewBox="0 0 858 120" fill="none" xmlns="http://www.w3.org/2000/svg">
<g clip-path="url(#clip0_610_35)">
<path d="M858 74.8222C858 68.3644 854.195 65.0267 848.309 62.7333C843.672 60.9333 839.604 59.4044 836.506 58.2267C833.42 57.0489 830.793 55.0044 830.793 52.7911C830.793 49.7689 834.678 48.0133 839.822 48.0133C845.895 48.0133 850.669 48.8311 855.279 49.2356H855.417C855.575 49.2368 855.731 49.2062 855.877 49.1455C856.022 49.0848 856.154 48.9953 856.264 48.8824C856.374 48.7695 856.46 48.6354 856.517 48.4884C856.574 48.3413 856.601 48.1843 856.595 48.0267V43.04C856.595 42.3733 856.048 41.8978 855.346 41.7689C852.981 41.2222 846.899 40 840.249 40C827.281 40 821.102 45.3822 821.102 52.7911C821.102 57.4933 823.253 62.1333 829.326 64.5556C835.416 66.9822 847.886 69.7778 847.886 74.8222C847.886 78.7244 846.001 80.8667 839.791 80.8667C833.345 80.8667 826.819 79.9867 824.027 79.6489H823.893C823.548 79.6441 823.214 79.7767 822.966 80.0174C822.717 80.2582 822.574 80.5875 822.569 80.9333V85.7778C822.569 86.52 823.191 86.9867 823.889 87.12C827.241 87.8622 833.496 88.8889 839.653 88.8889C853.612 88.8889 858 81.6133 858 74.8222ZM408.755 74.8222C408.755 68.3644 404.954 65.0267 399.063 62.7333C394.427 60.9333 390.359 59.4044 387.26 58.2267C384.175 57.0489 381.552 55.0044 381.552 52.7911C381.552 49.7689 385.433 48.0133 390.577 48.0133C396.654 48.0133 401.424 48.8311 406.034 49.2356H406.172C406.33 49.2368 406.486 49.2062 406.632 49.1455C406.777 49.0848 406.909 48.9953 407.019 48.8824C407.129 48.7695 407.215 48.6354 407.272 48.4884C407.329 48.3413 407.355 48.1843 407.35 48.0267V43.04C407.35 42.3733 406.803 41.8978 406.105 41.7689C403.731 41.2222 397.65 40 390.999 40C378.036 40 371.852 45.3822 371.852 52.7911C371.852 57.4933 374.004 62.1333 380.076 64.5556C386.167 66.9822 398.637 69.7778 398.637 74.8222C398.637 78.7244 396.756 80.8667 390.546 80.8667C384.1 80.8667 377.569 79.9867 374.777 79.6489H374.644C374.298 79.6441 373.964 79.7767 373.716 80.0174C373.468 80.2582 373.325 80.5875 373.319 80.9333V85.7778C373.319 86.52 373.941 86.9867 374.639 87.12C377.991 87.8622 384.246 88.8889 390.403 88.8889C404.363 88.8889 408.755 81.6133 408.755 74.8222ZM512.248 85.6533V41.8222C512.248 41.0756 511.688 40.5422 510.923 40.5422H504.922C504.148 40.5422 503.593 41.0756 503.593 41.8222V75.0222C503.593 75.4178 503.397 75.6311 503.255 75.6311C503.033 75.6311 502.833 75.4178 502.699 75.0889L483.027 42.7022C482.183 40.9422 481.418 40.5422 479.96 40.5422H472.42C471.696 40.5315 470.997 40.8087 470.477 41.3129C469.957 41.817 469.658 42.5069 469.646 43.2311V87.0044C469.646 87.7378 470.255 88.3511 471.038 88.3511H476.95C477.719 88.3511 478.284 87.7378 478.284 87.0044V55.3467C478.284 54.9467 478.431 54.8044 478.631 54.8044C478.84 54.8044 479.057 54.9511 479.253 55.3467L498.174 85.9289C499.267 88.3511 500.739 88.3511 502.41 88.3511H509.465C510.192 88.3618 510.894 88.0839 511.417 87.5782C511.939 87.0725 512.235 86.3803 512.248 85.6533ZM362.752 87.3422V43.2267C362.737 42.5005 362.434 41.8099 361.911 41.306C361.388 40.8021 360.686 40.5259 359.96 40.5378H354.238C353.702 40.5454 353.178 40.6999 352.724 40.9843C352.269 41.2687 351.901 41.6723 351.66 42.1511L338.288 68.4444C337.932 69.0533 337.79 69.3867 337.519 69.3867C337.225 69.3867 337.083 69.0533 336.741 68.4444L323.359 42.1556C323.118 41.6774 322.751 41.2743 322.297 40.9899C321.844 40.7055 321.321 40.5507 320.785 40.5422H315.064C314.337 40.5303 313.636 40.8065 313.113 41.3104C312.589 41.8144 312.287 42.505 312.272 43.2311V87.3378C312.272 88.0044 312.832 88.3511 313.468 88.3511H320.501C321.132 88.3511 321.621 87.6667 321.621 87.0044V57.9022C321.621 57.4311 321.692 57.2356 321.83 57.2356C321.892 57.2356 322.035 57.4311 322.186 57.6356L333.518 81.6933C333.918 82.4311 334.829 82.84 335.74 82.84H339.363C340.27 82.84 341.173 82.4311 341.582 81.6933L352.838 57.6356C352.989 57.4311 353.127 57.2356 353.18 57.2356C353.332 57.2356 353.403 57.4311 353.403 57.9022V87.0044C353.403 87.6667 353.892 88.3511 354.514 88.3511H361.556C362.187 88.3511 362.752 88.0089 362.752 87.3378V87.3422ZM450.57 61C450.57 52.12 445.013 48.1467 438.176 48.1467C431.343 48.1467 425.777 52.12 425.777 61V67.8889C425.777 76.7733 431.343 80.7333 438.176 80.7333C445.009 80.7333 450.57 76.7733 450.57 67.8889V61ZM460.342 61V67.8889C460.342 82.6933 449.685 88.8844 438.176 88.8844C426.675 88.8844 416.023 82.6933 416.023 67.8844V61C416.023 46.2 426.675 40.0089 438.176 40.0089C449.685 40.0089 460.342 46.1956 460.342 61ZM293.961 61C293.961 52.12 288.404 48.1467 281.566 48.1467C274.733 48.1467 269.168 52.12 269.168 61V67.8889C269.168 76.7733 274.733 80.7333 281.571 80.7333C288.404 80.7333 293.961 76.7733 293.961 67.8889V61ZM303.736 61V67.8889C303.736 82.6933 293.076 88.8844 281.566 88.8844C270.066 88.8844 259.418 82.6933 259.418 67.8844V61C259.418 46.2 270.066 40.0089 281.566 40.0089C293.076 40.0089 303.736 46.1956 303.736 61ZM249.909 87V41.8222C249.909 41.0756 249.274 40.5422 248.513 40.5422H241.623C240.84 40.5422 240.213 41.0756 240.213 41.8222V59.2978H218.128V41.8222C218.128 41.0756 217.496 40.5422 216.741 40.5422H209.841C209.063 40.5422 208.441 41.0756 208.441 41.8222V87.0044C208.441 87.7378 209.063 88.3511 209.841 88.3511H216.741C217.102 88.3535 217.451 88.2137 217.71 87.9618C217.969 87.7098 218.12 87.366 218.128 87.0044V67.5067H240.213V87.0044C240.213 87.7378 240.836 88.3511 241.623 88.3511H248.513C249.269 88.3511 249.909 87.7333 249.909 87ZM721.36 48.3422H707.454V87.0044C707.445 87.3695 707.292 87.716 707.028 87.9684C706.764 88.2207 706.41 88.3583 706.045 88.3511H699.154C698.792 88.3559 698.442 88.2169 698.181 87.9646C697.92 87.7123 697.77 87.3671 697.763 87.0044V48.3422H683.839C683.075 48.3422 682.439 47.88 682.439 47.1422V41.8222C682.439 41.0756 683.075 40.5422 683.839 40.5422H721.36C722.125 40.5422 722.756 41.0756 722.756 41.8222V47.1378C722.756 47.88 722.125 48.3422 721.36 48.3422ZM198.958 48.3422H185.052V87.0044C185.043 87.3687 184.89 87.7146 184.627 87.9668C184.364 88.219 184.012 88.3571 183.648 88.3511H176.757C176.394 88.3559 176.044 88.2169 175.783 87.9646C175.523 87.7123 175.372 87.3671 175.365 87.0044V48.3422H161.437C160.677 48.3422 160.042 47.88 160.042 47.1422V41.8222C160.042 41.0756 160.677 40.5422 161.437 40.5422H198.958C199.727 40.5422 200.359 41.0756 200.359 41.8222V47.1378C200.359 47.88 199.723 48.3422 198.958 48.3422ZM676.273 69.8311V41.8222C676.273 41.0756 675.642 40.5422 674.868 40.5422H667.964C667.2 40.5422 666.577 41.0756 666.577 41.8222V69.8311C666.577 77.5067 662.905 81.1422 655.374 81.1422C647.852 81.1422 644.176 77.5067 644.176 69.8311V41.8222C644.176 41.0756 643.553 40.5422 642.78 40.5422H635.889C635.125 40.5422 634.489 41.0756 634.489 41.8222V69.8311C634.489 84.1733 644.154 88.8844 655.374 88.8844C666.604 88.8844 676.273 84.1733 676.273 69.8311ZM738.796 67.5067H761.113C761.474 67.5115 761.824 67.3739 762.085 67.1236C762.346 66.8733 762.498 66.5304 762.509 66.1689V61.3067C762.498 60.9451 762.346 60.6022 762.085 60.3519C761.824 60.1017 761.474 59.9641 761.113 59.9689H738.796V53.7911C738.796 48.1644 739.018 48.0133 744.291 48.0133H761.948C762.312 48.0158 762.662 47.8756 762.923 47.623C763.184 47.3703 763.335 47.0253 763.344 46.6622V42.3556C763.344 41.4089 762.993 41.0667 761.948 40.9378C759.712 40.6089 755.173 40.0044 746.878 40.0044C735.306 40.0044 729.162 39.9244 729.162 53.7911V75.0844C729.162 88.9511 735.306 88.88 746.878 88.88C755.173 88.88 759.712 88.2756 761.948 87.9378C762.993 87.8044 763.344 87.4667 763.344 86.5156V82.2222C763.335 81.8599 763.183 81.5159 762.922 81.2646C762.661 81.0134 762.311 80.8752 761.948 80.88H744.291C739.018 80.88 738.796 80.7244 738.796 75.0844V67.5067ZM601.018 67.5067H623.335C623.697 67.5127 624.048 67.3756 624.31 67.1252C624.572 66.8748 624.725 66.5312 624.735 66.1689V61.3067C624.725 60.9444 624.572 60.6008 624.31 60.3504C624.048 60.1 623.697 59.9629 623.335 59.9689H601.018V53.7911C601.018 48.1644 601.24 48.0133 606.517 48.0133H624.171C624.535 48.017 624.886 47.8773 625.148 47.6245C625.41 47.3717 625.562 47.0261 625.571 46.6622V42.3556C625.571 41.4089 625.215 41.0667 624.171 40.9378C621.939 40.6089 617.395 40.0044 609.1 40.0044C597.528 40.0044 591.389 39.9244 591.389 53.7911V75.0844C591.389 88.9511 597.528 88.88 609.104 88.88C617.396 88.88 621.939 88.2756 624.171 87.9378C625.215 87.8044 625.571 87.4667 625.571 86.5156V82.2222C625.562 81.8591 625.409 81.5144 625.147 81.263C624.885 81.0117 624.534 80.874 624.171 80.88H606.517C601.24 80.88 601.018 80.7244 601.018 75.0844V67.5067ZM804.093 55.2133C804.093 50.1644 800.034 48.0133 793.059 48.0133C791.592 48.0133 785.243 48.1467 783.999 48.28V62.8711C785.106 62.9422 791.863 63.08 793.059 63.08C800.234 63.08 804.088 61.7467 804.088 55.8267L804.093 55.2133ZM815.385 87.5467C815.385 88.0089 815.109 88.3467 814.553 88.3467H806.035C805.271 88.3467 804.991 87.6667 804.644 87.0044L794.601 70.6844H793.059C791.236 70.6844 785.604 70.4889 783.999 70.4089V87.0044C784.002 87.181 783.969 87.3563 783.903 87.5202C783.838 87.684 783.74 87.8331 783.615 87.9586C783.491 88.084 783.343 88.1834 783.18 88.2508C783.017 88.3182 782.842 88.3523 782.665 88.3511H775.694C775.332 88.3547 774.982 88.2154 774.722 87.9633C774.462 87.7113 774.311 87.3668 774.303 87.0044V42.8889C774.303 41.5422 775.13 41.0667 776.535 40.8711C780.167 40.3378 787.96 40 793.059 40C803.795 40 813.709 43.7067 813.709 55.2089V55.8222C813.709 62.9422 810.019 66.8444 804.302 68.9867L815.242 87C815.389 87.2 815.389 87.3911 815.389 87.5422L815.385 87.5467ZM572.633 55.2133C572.633 50.1644 568.574 48.0133 561.603 48.0133C560.132 48.0133 553.788 48.1467 552.543 48.28V62.8711C553.65 62.9422 560.407 63.08 561.603 63.08C568.778 63.08 572.628 61.7467 572.628 55.8267L572.633 55.2133ZM583.929 87.5467C583.929 88.0089 583.649 88.3467 583.098 88.3467H574.58C573.82 88.3467 573.535 87.6667 573.189 87.0044L563.146 70.6844H561.603C559.781 70.6844 554.148 70.4889 552.543 70.4089V87.0044C552.547 87.1812 552.515 87.3568 552.449 87.5209C552.384 87.685 552.286 87.8343 552.161 87.9599C552.037 88.0855 551.889 88.1848 551.725 88.252C551.562 88.3192 551.386 88.3529 551.209 88.3511H544.239C543.877 88.3535 543.529 88.2137 543.269 87.9618C543.01 87.7098 542.86 87.366 542.852 87.0044V42.8889C542.852 41.5422 543.674 41.0667 545.079 40.8711C548.711 40.3378 556.504 40 561.603 40C572.339 40 582.253 43.7067 582.253 55.2089V55.8222C582.253 62.9422 578.563 66.8444 572.846 68.9867L583.782 87C583.929 87.2 583.929 87.3956 583.929 87.5467Z" fill="#404040"/>
<path d="M123.516 72.5644C120.142 72.5644 117.404 75.2533 117.404 78.5778C117.404 81.8933 120.142 84.5867 123.516 84.5867C126.891 84.5867 129.629 81.8933 129.629 78.5778C129.629 75.2533 126.895 72.5644 123.516 72.5644ZM115.763 88.1689C112.9 88.1689 110.58 90.4533 110.58 93.2667C110.58 96.0844 112.9 98.3689 115.763 98.3689C118.622 98.3689 120.942 96.0844 120.942 93.2667C120.942 90.4533 118.622 88.1689 115.763 88.1689ZM104.249 100.396C103.665 100.39 103.086 100.5 102.544 100.719C102.002 100.938 101.509 101.261 101.092 101.671C100.676 102.08 100.344 102.568 100.116 103.105C99.888 103.643 99.7683 104.22 99.7636 104.804C99.7677 105.388 99.8869 105.966 100.114 106.504C100.342 107.042 100.673 107.53 101.089 107.94C101.505 108.35 101.998 108.673 102.54 108.893C103.081 109.112 103.661 109.222 104.245 109.218C104.829 109.223 105.409 109.113 105.951 108.894C106.493 108.675 106.987 108.351 107.403 107.941C107.82 107.531 108.152 107.043 108.379 106.505C108.607 105.967 108.726 105.389 108.73 104.804C108.726 104.22 108.606 103.643 108.378 103.105C108.15 102.568 107.818 102.08 107.402 101.671C106.985 101.261 106.492 100.938 105.95 100.719C105.408 100.5 104.829 100.39 104.245 100.396H104.249ZM91.3214 108.622C90.8466 108.618 90.3756 108.707 89.9352 108.884C89.4949 109.062 89.0939 109.324 88.7553 109.657C88.4167 109.99 88.147 110.386 87.9618 110.823C87.7766 111.26 87.6795 111.73 87.676 112.204C87.676 114.182 89.3076 115.787 91.3214 115.787C93.3353 115.787 94.9579 114.182 94.9579 112.204C94.9544 111.731 94.8576 111.262 94.673 110.825C94.4883 110.389 94.2195 109.993 93.8818 109.66C93.5441 109.328 93.1442 109.065 92.7049 108.887C92.2656 108.709 91.7955 108.619 91.3214 108.622ZM78.607 112.978C77.7867 112.972 76.9976 113.291 76.4126 113.866C75.8276 114.441 75.4944 115.224 75.4862 116.044C75.4862 117.747 76.8821 119.124 78.607 119.124C80.3319 119.124 81.7323 117.747 81.7323 116.049C81.7294 115.642 81.6462 115.239 81.4875 114.864C81.3288 114.489 81.0977 114.149 80.8075 113.863C80.5172 113.578 80.1734 113.352 79.7959 113.199C79.4183 113.047 79.0143 112.974 78.607 112.978ZM66.7017 114.707C66.3514 114.704 66.004 114.77 65.6793 114.901C65.3545 115.032 65.0588 115.226 64.8091 115.472C64.5593 115.718 64.3604 116.01 64.2237 116.332C64.0869 116.655 64.015 117.001 64.0121 117.351C64.0145 117.702 64.0859 118.048 64.2224 118.371C64.3589 118.694 64.5577 118.987 64.8075 119.233C65.0573 119.479 65.3532 119.674 65.6782 119.805C66.0033 119.937 66.3511 120.003 66.7017 120C67.052 120.002 67.3993 119.936 67.7238 119.804C68.0483 119.672 68.3437 119.478 68.5931 119.232C68.8424 118.986 69.0408 118.693 69.177 118.37C69.3132 118.048 69.3845 117.701 69.3869 117.351C69.381 116.645 69.0949 115.969 68.5915 115.474C68.0881 114.978 67.4084 114.702 66.7017 114.707ZM54.7742 112.978C54.3669 112.974 53.9629 113.051 53.5853 113.204C53.2078 113.356 52.864 113.582 52.5738 113.868C52.2835 114.153 52.0524 114.493 51.8937 114.869C51.735 115.244 51.6518 115.646 51.6489 116.053C51.6489 117.751 53.0493 119.129 54.7742 119.129C56.4991 119.129 57.8994 117.751 57.8994 116.053C57.8965 115.646 57.8134 115.244 57.6547 114.869C57.496 114.493 57.2649 114.153 56.9746 113.868C56.6844 113.582 56.3406 113.356 55.963 113.204C55.5855 113.051 55.1815 112.974 54.7742 112.978ZM42.0598 108.622C40.0593 108.622 38.4322 110.218 38.4322 112.187C38.4322 114.156 40.0593 115.76 42.0598 115.76C44.0647 115.76 45.6874 114.16 45.6874 112.187C45.6874 110.213 44.0647 108.618 42.0598 108.618V108.622ZM29.1231 100.409C27.9456 100.401 26.8129 100.86 25.9736 101.685C25.1343 102.511 24.657 103.636 24.6464 104.813C24.6558 105.991 25.1326 107.117 25.972 107.944C26.8114 108.771 27.9448 109.231 29.1231 109.222C29.7069 109.227 30.2859 109.117 30.8271 108.898C31.3682 108.679 31.8609 108.355 32.2771 107.946C32.6932 107.536 33.0246 107.049 33.2523 106.511C33.48 105.974 33.5996 105.397 33.6043 104.813C33.5937 103.635 33.1158 102.51 32.2755 101.684C31.4352 100.858 30.3014 100.399 29.1231 100.409ZM17.6223 88.1733C14.7594 88.1733 12.4343 90.4622 12.4343 93.28C12.4343 96.0978 14.7594 98.3822 17.6223 98.3822C20.4853 98.3822 22.8104 96.0978 22.8104 93.28C22.8104 90.4622 20.4853 88.1733 17.6223 88.1733ZM9.86478 72.5511C6.49502 72.5511 3.76097 75.24 3.76097 78.56C3.76097 81.88 6.49502 84.5689 9.86478 84.5689C13.2434 84.5689 15.973 81.88 15.973 78.56C15.973 75.24 13.239 72.5511 9.86478 72.5511ZM7.06405 53.0578C3.16082 53.0578 0 56.1689 0 60.0089C0 63.8489 3.16082 66.96 7.0685 66.96C10.9673 66.96 14.1281 63.8489 14.1281 60.0089C14.1281 56.1689 10.9673 53.0578 7.06405 53.0578ZM9.86478 35.4489C6.49502 35.4489 3.76097 38.1378 3.76097 41.4533C3.76097 44.7689 6.49502 47.4578 9.86478 47.4578C13.2345 47.4578 15.9641 44.7689 15.9641 41.4578C15.9641 38.1378 13.2345 35.4489 9.86478 35.4489ZM17.6134 21.6267C14.7505 21.6267 12.4254 23.9156 12.4254 26.7378C12.4254 29.56 14.7505 31.84 17.6134 31.84C20.4809 31.84 22.8015 29.5556 22.8015 26.7333C22.8015 23.9111 20.4809 21.6267 17.6134 21.6267ZM29.132 10.7867C27.9545 10.7784 26.8218 11.2375 25.9825 12.0632C25.1432 12.889 24.6658 14.0139 24.6553 15.1911C24.6647 16.3691 25.1415 17.4951 25.9809 18.3219C26.8203 19.1486 27.9537 19.6083 29.132 19.6C29.7158 19.6047 30.2948 19.4944 30.836 19.2753C31.3771 19.0563 31.8698 18.7328 32.286 18.3234C32.7021 17.914 33.0335 17.4267 33.2612 16.8892C33.4889 16.3518 33.6085 15.7748 33.6131 15.1911C33.6026 14.0131 33.1247 12.8875 32.2844 12.0617C31.4441 11.2358 30.3103 10.7772 29.132 10.7867ZM42.0642 4.24444C41.11 4.23734 40.1919 4.60923 39.5117 5.2784C38.8315 5.94758 38.4448 6.85932 38.4366 7.81333C38.4448 8.76735 38.8315 9.67909 39.5117 10.3483C40.1919 11.0174 41.11 11.3893 42.0642 11.3822C43.0177 11.3881 43.9347 11.0157 44.6139 10.3467C45.2931 9.67764 45.6792 8.76657 45.6874 7.81333C45.6839 7.34115 45.5874 6.87429 45.4034 6.43939C45.2195 6.00449 44.9516 5.61008 44.6152 5.27867C44.2787 4.94727 43.8803 4.68536 43.4426 4.50791C43.0049 4.33045 42.5365 4.24093 42.0642 4.24444ZM54.7653 0.88C53.0404 0.88 51.64 2.25778 51.64 3.95556C51.64 5.65333 53.0404 7.03111 54.7653 7.03111C56.4991 7.03111 57.895 5.65333 57.895 3.95556C57.895 2.25778 56.4946 0.88 54.7653 0.88ZM66.675 0C65.1902 0 63.9899 1.18222 63.9899 2.64C63.9899 4.09778 65.1902 5.28444 66.675 5.28444C68.1554 5.28444 69.3602 4.09778 69.3602 2.64C69.3602 1.18222 68.1599 0 66.675 0ZM78.6204 0.888889C78.2134 0.885372 77.8098 0.96202 77.4325 1.11446C77.0553 1.26689 76.7117 1.49213 76.4215 1.77732C76.1313 2.0625 75.9001 2.40204 75.7412 2.77654C75.5822 3.15105 75.4986 3.55319 75.4951 3.96C75.4951 5.65778 76.8955 7.03111 78.6204 7.03111C80.3408 7.03111 81.7367 5.65333 81.7367 3.96444C81.7308 3.14363 81.3994 2.3587 80.815 1.78205C80.2307 1.20539 79.4414 0.884157 78.6204 0.888889ZM91.3214 4.24889C89.3209 4.24889 87.6938 5.84889 87.6938 7.81333C87.6938 9.78222 89.3165 11.3778 91.3214 11.3778C93.3219 11.3778 94.9446 9.78222 94.9446 7.81333C94.9364 6.8605 94.5502 5.94989 93.8708 5.28155C93.1915 4.6132 92.2745 4.24179 91.3214 4.24889ZM104.236 10.8C103.653 10.7953 103.074 10.9055 102.534 11.1243C101.993 11.3431 101.501 11.6663 101.085 12.0753C100.669 12.4843 100.338 12.9711 100.111 13.508C99.8833 14.0449 99.7638 14.6214 99.7592 15.2044C99.7592 17.6356 101.76 19.6044 104.236 19.6044C105.412 19.6127 106.544 19.1541 107.382 18.3292C108.221 17.5043 108.698 16.3805 108.708 15.2044C108.708 12.7733 106.708 10.8 104.236 10.8ZM115.75 21.6311C114.384 21.6216 113.07 22.1545 112.096 23.1128C111.123 24.0711 110.569 25.3764 110.558 26.7422C110.558 29.5644 112.887 31.8533 115.754 31.8533C117.121 31.8628 118.435 31.3299 119.408 30.3716C120.382 29.4134 120.935 28.108 120.947 26.7422C120.935 25.3764 120.382 24.0711 119.408 23.1128C118.435 22.1545 117.116 21.6216 115.75 21.6311ZM123.512 35.4311C120.147 35.4311 117.413 38.12 117.413 41.4311C117.413 44.7511 120.147 47.44 123.512 47.44C126.886 47.44 129.616 44.7511 129.616 41.4356C129.616 38.12 126.886 35.4311 123.512 35.4311ZM95.5136 69.1867C94.7928 69.1819 94.0996 69.4634 93.5861 69.9692C93.0727 70.475 92.781 71.1638 92.7751 71.8844C92.7751 73.3778 94.0021 74.5822 95.5136 74.5822C97.0296 74.5822 98.2566 73.3778 98.2566 71.8844C98.2536 71.5272 98.1804 71.1741 98.041 70.8452C97.9016 70.5163 97.6987 70.2181 97.444 69.9676C97.1893 69.7171 96.8877 69.5192 96.5565 69.3852C96.2253 69.2512 95.8709 69.1837 95.5136 69.1867ZM88.6674 79.1867C88.3101 79.1837 87.9557 79.2512 87.6245 79.3852C87.2933 79.5192 86.9917 79.7171 86.737 79.9676C86.4823 80.2181 86.2795 80.5163 86.1401 80.8452C86.0006 81.1741 85.9274 81.5272 85.9245 81.8844C85.9245 83.3733 87.1515 84.5822 88.6674 84.5822C90.1834 84.5822 91.4103 83.3733 91.4103 81.8844C91.4074 81.5272 91.3342 81.1741 91.1948 80.8452C91.0553 80.5163 90.8525 80.2181 90.5978 79.9676C90.3431 79.7171 90.0415 79.5192 89.7103 79.3852C89.3791 79.2512 89.0247 79.1837 88.6674 79.1867ZM78.5181 85.6089C76.8732 85.6089 75.5396 86.92 75.5396 88.5378C75.5396 90.1555 76.8732 91.4667 78.5181 91.4667C80.163 91.4667 81.4967 90.1556 81.4967 88.5333C81.4967 86.92 80.163 85.6089 78.5181 85.6089ZM66.515 87.3556C65.9921 87.3509 65.4734 87.4493 64.9886 87.6451C64.5038 87.841 64.0624 88.1305 63.6895 88.497C63.3167 88.8635 63.0198 89.3 62.8158 89.7813C62.6118 90.2626 62.5047 90.7795 62.5006 91.3022C62.5006 93.48 64.2967 95.2444 66.5106 95.2444C68.7245 95.2444 70.5205 93.4755 70.5205 91.3022C70.517 90.7797 70.4104 90.2629 70.2069 89.7816C70.0034 89.3003 69.7069 88.8639 69.3344 88.4973C68.962 88.1307 68.5208 87.8411 68.0363 87.6452C67.5517 87.4493 67.0377 87.3509 66.515 87.3556ZM54.543 85C52.0268 85 49.9907 87 49.9907 89.4756C49.9907 91.9467 52.0268 93.9511 54.543 93.9511C57.0548 93.9511 59.0909 91.9511 59.0909 89.4756C59.0909 87 57.0548 85 54.543 85ZM43.6735 77.4578C40.8861 77.4578 38.6278 79.68 38.6278 82.4267C38.6278 85.1689 40.8861 87.3911 43.6735 87.3911C46.4609 87.3911 48.7193 85.1689 48.7193 82.4267C48.7193 79.6844 46.4609 77.4578 43.6735 77.4578ZM36.5161 67.3689C35.9637 67.3636 35.4156 67.4673 34.9033 67.6741C34.391 67.8808 33.9246 68.1866 33.5306 68.5738C33.1367 68.9611 32.823 69.4222 32.6075 69.9308C32.3921 70.4394 32.2791 70.9855 32.275 71.5378C32.275 73.84 34.1733 75.7022 36.5117 75.7022C38.8501 75.7022 40.7483 73.8356 40.7483 71.5378C40.7389 70.4235 40.2874 69.3584 39.493 68.5767C38.6986 67.795 37.6307 67.3606 36.5161 67.3689ZM34.8357 56.2756C34.408 56.272 33.9838 56.3529 33.5873 56.5134C33.1909 56.6739 32.8299 56.911 32.5252 57.2111C32.2205 57.5112 31.978 57.8684 31.8115 58.2623C31.6449 58.6562 31.5577 59.079 31.5548 59.5067C31.5548 61.2844 33.0219 62.7333 34.8357 62.7333C35.698 62.7392 36.5274 62.4028 37.1417 61.7978C37.756 61.1928 38.105 60.3687 38.1121 59.5067C38.1092 59.0794 38.0221 58.6569 37.8559 58.2633C37.6897 57.8697 37.4475 57.5127 37.1433 57.2127C36.839 56.9127 36.4786 56.6755 36.0827 56.5147C35.6868 56.3539 35.263 56.2726 34.8357 56.2756ZM37.7209 45.4356C37.3618 45.4326 37.0057 45.5004 36.6729 45.6351C36.3401 45.7697 36.037 45.9686 35.7811 46.2204C35.5251 46.4721 35.3213 46.7718 35.1812 47.1023C35.0411 47.4329 34.9675 47.7877 34.9646 48.1467C34.9646 49.64 36.2005 50.8533 37.7209 50.8533C38.0797 50.8563 38.4356 50.7884 38.7682 50.6537C39.1008 50.519 39.4035 50.32 39.6591 50.0682C39.9147 49.8164 40.1181 49.5167 40.2577 49.1862C40.3973 48.8557 40.4704 48.501 40.4727 48.1422C40.4698 47.7835 40.3962 47.4288 40.256 47.0986C40.1159 46.7683 39.912 46.4689 39.656 46.2175C39.4 45.9661 39.0969 45.7676 38.7641 45.6335C38.4313 45.4993 38.0797 45.432 37.7209 45.4356ZM44.5671 35.5378C43.8463 35.533 43.153 35.8145 42.6396 36.3203C42.1262 36.8261 41.8345 37.5149 41.8286 38.2356C41.8286 39.7244 43.0556 40.9289 44.5715 40.9289C46.083 40.9289 47.31 39.7244 47.31 38.2356C47.3042 37.5149 47.0125 36.8261 46.499 36.3203C45.9856 35.8145 45.2924 35.533 44.5715 35.5378H44.5671ZM54.7031 28.6044C53.0626 28.6044 51.729 29.92 51.729 31.5378C51.729 33.1556 53.0626 34.4667 54.7075 34.4667C56.3524 34.4667 57.686 33.1556 57.686 31.5333C57.686 29.9111 56.3479 28.6044 54.7031 28.6044ZM66.7062 24.8222C66.1877 24.8181 65.6736 24.9161 65.1931 25.1107C64.7125 25.3053 64.275 25.5925 63.9056 25.9561C63.5361 26.3197 63.2419 26.7525 63.0397 27.2298C62.8376 27.7071 62.7314 28.2195 62.7274 28.7378C62.7274 30.9022 64.5056 32.6578 66.7062 32.6578C67.2253 32.6625 67.7403 32.5647 68.2216 32.3702C68.703 32.1756 69.1412 31.888 69.5112 31.5239C69.8812 31.1597 70.1757 30.7262 70.3779 30.2482C70.5801 29.7701 70.6859 29.2568 70.6894 28.7378C70.6894 26.5733 68.9067 24.8222 66.7062 24.8222ZM78.7093 26.12C76.2064 26.12 74.1748 28.12 74.1748 30.5822C74.1748 33.0444 76.2064 35.0444 78.7093 35.0444C81.2166 35.0444 83.2438 33.0444 83.2438 30.5822C83.2438 28.12 81.2166 26.12 78.7093 26.12ZM89.5254 32.6622C86.7336 32.6622 84.4708 34.8933 84.4708 37.64C84.4708 40.3867 86.7336 42.6178 89.5254 42.6178C92.3172 42.6178 94.5845 40.3867 94.5845 37.64C94.5845 34.8933 92.3172 32.6622 89.5254 32.6622ZM96.6962 44.3511C96.1447 44.3464 95.5977 44.4505 95.0864 44.6573C94.5752 44.8641 94.1097 45.1696 93.7167 45.5563C93.3236 45.9431 93.0106 46.4035 92.7957 46.9113C92.5807 47.4191 92.468 47.9642 92.4639 48.5156C92.4639 50.8133 94.3578 52.6756 96.6962 52.6756C99.0301 52.6756 100.924 50.8089 100.924 48.5156C100.92 47.9646 100.807 47.4198 100.593 46.9123C100.378 46.4049 100.065 45.9446 99.6728 45.5579C99.2802 45.1712 98.8153 44.8656 98.3045 44.6585C97.7938 44.4515 97.2473 44.347 96.6962 44.3511ZM85.68 62.6356C84.2796 62.6356 83.146 63.7511 83.146 65.1244C83.146 66.4978 84.2796 67.6133 85.68 67.6133C87.0759 67.6133 88.2095 66.5022 88.2095 65.1244C88.2095 63.7467 87.0759 62.6356 85.6755 62.6356H85.68ZM80.7676 70.3333C80.2772 70.3292 79.7908 70.4217 79.3361 70.6056C78.8815 70.7894 78.4675 71.061 78.1179 71.4048C77.7682 71.7485 77.4897 72.1578 77.2983 72.6092C77.1069 73.0606 77.0062 73.5453 77.0022 74.0356C77.0022 76.08 78.6915 77.7378 80.7676 77.7378C82.8437 77.7378 84.5286 76.08 84.5286 74.0356C84.5203 73.0462 84.1196 72.1005 83.4144 71.4063C82.7092 70.7122 81.7572 70.3262 80.7676 70.3333ZM71.0895 75.3689C70.0535 75.3618 69.0569 75.7658 68.3185 76.4924C67.5801 77.219 67.1601 78.2087 67.1507 79.2444C67.1507 81.3867 68.9156 83.1244 71.0895 83.1244C73.2634 83.1244 75.0328 81.3911 75.0328 79.2444C75.0234 78.2079 74.6028 77.2175 73.8634 76.4908C73.124 75.7641 72.1263 75.3606 71.0895 75.3689ZM59.7666 75.0844C59.3112 75.0809 58.8596 75.1671 58.4376 75.3381C58.0155 75.5091 57.6313 75.7615 57.3068 76.0809C56.9823 76.4004 56.724 76.7806 56.5465 77.1998C56.369 77.6191 56.2758 78.0692 56.2724 78.5244C56.2806 79.4431 56.6532 80.3209 57.3084 80.9651C57.9635 81.6093 58.8477 81.9671 59.7666 81.96C60.6855 81.9671 61.5696 81.6093 62.2248 80.9651C62.88 80.3209 63.2526 79.4431 63.2608 78.5244C63.2573 78.0692 63.1642 77.6191 62.9867 77.1998C62.8092 76.7806 62.5508 76.4004 62.2264 76.0809C61.9019 75.7615 61.5177 75.5091 61.0956 75.3381C60.6736 75.1671 60.222 75.0809 59.7666 75.0844ZM51.3511 69.4711C51.0171 69.4682 50.6859 69.531 50.3763 69.6561C50.0666 69.7812 49.7846 69.966 49.5465 70.2C49.3083 70.434 49.1185 70.7126 48.988 71.0199C48.8575 71.3272 48.7889 71.6573 48.786 71.9911C48.786 73.3867 49.9329 74.5156 51.3511 74.5156C51.6854 74.5185 52.017 74.4555 52.3269 74.3301C52.6368 74.2048 52.919 74.0196 53.1573 73.7851C53.3955 73.5506 53.5852 73.2715 53.7154 72.9637C53.8456 72.6558 53.9139 72.3253 53.9162 71.9911C53.9133 71.6573 53.8446 71.3272 53.7141 71.0199C53.5837 70.7126 53.3939 70.434 53.1557 70.2C52.9175 69.966 52.6355 69.7812 52.3259 69.6561C52.0163 69.531 51.685 69.4682 51.3511 69.4711ZM48.008 62.1956C47.7657 62.1938 47.5255 62.2398 47.3009 62.3308C47.0764 62.4219 46.8721 62.5563 46.6995 62.7263C46.527 62.8964 46.3896 63.0987 46.2953 63.3218C46.2009 63.5449 46.1515 63.7844 46.1497 64.0267C46.1497 65.0356 46.9855 65.8578 48.008 65.8578C48.251 65.8607 48.4922 65.8156 48.7178 65.7251C48.9433 65.6345 49.1487 65.5003 49.3222 65.3302C49.4957 65.16 49.6339 64.9573 49.7288 64.7336C49.8237 64.5099 49.8734 64.2696 49.8751 64.0267C49.8734 63.7837 49.8237 63.5435 49.7288 63.3198C49.6339 63.0961 49.4957 62.8933 49.3222 62.7232C49.1487 62.553 48.9433 62.4188 48.7178 62.3283C48.4922 62.2377 48.251 62.1926 48.008 62.1956ZM47.8168 52.7156C47.4868 52.712 47.1594 52.7737 46.8532 52.897C46.5471 53.0203 46.2683 53.2027 46.0329 53.434C45.7975 53.6652 45.61 53.9406 45.4813 54.2445C45.3526 54.5483 45.2852 54.8745 45.2828 55.2044C45.2828 56.5778 46.4165 57.6933 47.8168 57.6933C49.2127 57.6933 50.3419 56.5778 50.3419 55.2044C50.3419 53.8267 49.2127 52.7156 47.8168 52.7156ZM52.7425 42.5689C51.756 42.5618 50.807 42.9462 50.1036 43.6377C49.4002 44.3293 48.9999 45.2715 48.9905 46.2578C48.9905 48.3022 50.6709 49.9556 52.7425 49.9556C53.7298 49.9627 54.6796 49.5777 55.3831 48.8851C56.0866 48.1926 56.4864 47.2492 56.4946 46.2622C56.4864 45.2752 56.0866 44.3318 55.3831 43.6393C54.6796 42.9468 53.7298 42.5618 52.7425 42.5689ZM62.3628 37.1733C60.1845 37.1733 58.4151 38.9111 58.4151 41.0578C58.4151 43.2044 60.18 44.9378 62.3628 44.9378C64.5412 44.9378 66.3061 43.2044 66.3061 41.0578C66.3061 38.9111 64.5412 37.1733 62.3628 37.1733ZM73.7169 38.4133C73.2608 38.4086 72.8082 38.494 72.3851 38.6644C71.962 38.8349 71.5768 39.0871 71.2513 39.4066C70.9259 39.7262 70.6668 40.1068 70.4887 40.5266C70.3107 40.9465 70.2172 41.3973 70.2137 41.8533C70.2137 43.7556 71.783 45.2978 73.7169 45.2978C74.1728 45.3013 74.625 45.215 75.0476 45.0438C75.4702 44.8726 75.8549 44.6198 76.1798 44.3C76.5047 43.9801 76.7634 43.5995 76.9411 43.1797C77.1188 42.7599 77.2121 42.3092 77.2156 41.8533C77.2121 41.3977 77.1188 40.9472 76.941 40.5277C76.7632 40.1081 76.5045 39.7277 76.1795 39.4082C75.8546 39.0887 75.4698 38.8364 75.0473 38.6657C74.6247 38.495 74.1726 38.4092 73.7169 38.4133ZM82.0835 45.7378C81.4098 45.733 80.7618 45.9957 80.2817 46.4682C79.8016 46.9407 79.5287 47.5843 79.5228 48.2578C79.5228 49.6533 80.6698 50.7822 82.0835 50.7822C83.4972 50.7822 84.6486 49.6533 84.6486 48.2578C84.6457 47.9239 84.577 47.5939 84.4465 47.2866C84.3161 46.9793 84.1263 46.7006 83.8881 46.4666C83.6499 46.2326 83.3679 46.0478 83.0583 45.9228C82.7487 45.7977 82.4174 45.7348 82.0835 45.7378ZM85.6088 54.4578C85.3656 54.4554 85.1243 54.5011 84.8987 54.5921C84.6732 54.6831 84.4678 54.8178 84.2943 54.9883C84.1209 55.1588 83.9828 55.3618 83.888 55.5858C83.7931 55.8097 83.7434 56.0502 83.7417 56.2933C83.7417 57.3022 84.5775 58.1244 85.6088 58.1244C86.6313 58.1244 87.4715 57.3022 87.4715 56.2933C87.4698 56.0502 87.4201 55.8097 87.3253 55.5858C87.2304 55.3618 87.0923 55.1588 86.9189 54.9883C86.7454 54.8178 86.5401 54.6831 86.3145 54.5921C86.0889 54.5011 85.8521 54.4554 85.6088 54.4578ZM98.3455 57.3378C96.5272 57.3378 95.0557 58.7911 95.0557 60.5822C95.0557 62.3689 96.5272 63.8178 98.3455 63.8178C100.168 63.8178 101.635 62.3689 101.635 60.5778C101.628 59.7122 101.278 58.8847 100.661 58.2772C100.044 57.6698 99.2113 57.3319 98.3455 57.3378ZM111.931 61.2622C111.479 61.2587 111.031 61.3442 110.612 61.5138C110.194 61.6835 109.812 61.9339 109.49 62.2509C109.168 62.5678 108.912 62.9451 108.736 63.3611C108.56 63.7772 108.467 64.2238 108.464 64.6756C108.464 66.56 110.011 68.0889 111.931 68.0889C113.843 68.0889 115.399 66.56 115.399 64.6756C115.395 64.2238 115.303 63.7772 115.127 63.3611C114.951 62.9451 114.694 62.5678 114.372 62.2509C114.05 61.9339 113.669 61.6835 113.25 61.5138C112.831 61.3442 112.383 61.2587 111.931 61.2622ZM108.49 73.3156C108.062 73.312 107.638 73.3928 107.241 73.5533C106.845 73.7138 106.483 73.9508 106.178 74.2508C105.873 74.5509 105.63 74.9081 105.463 75.302C105.296 75.6959 105.209 76.1188 105.205 76.5467C105.205 78.3333 106.672 79.7778 108.49 79.7778C110.309 79.7778 111.776 78.3333 111.776 76.5467C111.772 76.1185 111.684 75.6952 111.517 75.3009C111.35 74.9067 111.106 74.5494 110.801 74.2493C110.495 73.9492 110.134 73.7122 109.736 73.552C109.339 73.3918 108.919 73.3114 108.49 73.3156ZM102.578 83.4311C102.216 83.4282 101.858 83.4964 101.523 83.632C101.188 83.7675 100.883 83.9677 100.625 84.2211C100.368 84.4745 100.163 84.7762 100.022 85.1089C99.8806 85.4415 99.8065 85.7987 99.8036 86.16C99.8036 87.6667 101.044 88.8889 102.573 88.8889C102.935 88.8918 103.293 88.8235 103.628 88.688C103.963 88.5524 104.268 88.3522 104.526 88.0988C104.783 87.8454 104.988 87.5438 105.129 87.2111C105.27 86.8785 105.344 86.5213 105.347 86.16C105.344 85.7987 105.27 85.4415 105.129 85.1089C104.988 84.7762 104.783 84.4745 104.526 84.2211C104.268 83.9677 103.963 83.7675 103.628 83.632C103.293 83.4964 102.939 83.4282 102.578 83.4311ZM95.4781 90.9467C94.8488 90.9431 94.2438 91.189 93.7955 91.6305C93.3472 92.072 93.0922 92.6731 93.0863 93.3022C93.0863 94.6044 94.1533 95.6622 95.4781 95.6622C95.7904 95.6651 96.1003 95.6065 96.3899 95.4898C96.6796 95.373 96.9435 95.2003 97.1664 94.9815C97.3893 94.7628 97.5669 94.5023 97.6892 94.2149C97.8114 93.9275 97.8758 93.6189 97.8787 93.3067C97.8758 92.9944 97.8114 92.6858 97.6892 92.3984C97.5669 92.111 97.3893 91.8505 97.1664 91.6318C96.9435 91.4131 96.6796 91.2404 96.3899 91.1236C96.1003 91.0068 95.7904 90.9482 95.4781 90.9511V90.9467ZM87.9828 96.4311C87.715 96.4288 87.4494 96.4792 87.2012 96.5797C86.953 96.6801 86.727 96.8284 86.5363 97.0163C86.3455 97.2041 86.1936 97.4277 86.0894 97.6743C85.9852 97.9209 85.9307 98.1856 85.9289 98.4533C85.9289 99.5644 86.8492 100.471 87.9828 100.471C88.2502 100.473 88.5154 100.423 88.7633 100.323C89.0113 100.223 89.237 100.075 89.4277 99.8875C89.6185 99.7001 89.7704 99.477 89.8749 99.231C89.9794 98.9849 90.0343 98.7206 90.0367 98.4533C90.0349 98.1856 89.9804 97.9209 89.8761 97.6743C89.7719 97.4277 89.6201 97.2041 89.4293 97.0163C89.2385 96.8284 89.0126 96.6801 88.7643 96.5797C88.5161 96.4792 88.2505 96.4288 87.9828 96.4311ZM79.5006 99.5289C79.1888 99.5265 78.8797 99.5856 78.5908 99.7027C78.3018 99.8198 78.0388 99.9927 77.8167 100.211C77.5946 100.43 77.4178 100.69 77.2963 100.978C77.1749 101.265 77.1112 101.573 77.1089 101.884C77.1089 103.182 78.1758 104.236 79.5006 104.236C79.8121 104.238 80.1211 104.179 80.4097 104.062C80.6984 103.944 80.9611 103.772 81.1829 103.553C81.4046 103.334 81.581 103.074 81.702 102.787C81.823 102.5 81.8861 102.191 81.8879 101.88C81.8879 100.582 80.8209 99.5289 79.5006 99.5289ZM69.5291 101.129C69.1695 101.127 68.8129 101.195 68.4798 101.33C68.1466 101.466 67.8434 101.666 67.5875 101.918C67.3315 102.171 67.1279 102.471 66.9881 102.803C66.8483 103.134 66.7752 103.489 66.7729 103.849C66.7729 105.347 68.0087 106.564 69.5291 106.564C69.8891 106.568 70.2463 106.5 70.5802 106.366C70.914 106.231 71.2181 106.032 71.4749 105.78C71.7318 105.528 71.9363 105.227 72.0769 104.896C72.2175 104.565 72.2914 104.209 72.2943 103.849C72.292 103.489 72.2185 103.132 72.0782 102.8C71.9379 102.469 71.7334 102.168 71.4765 101.915C71.2196 101.662 70.9154 101.463 70.5812 101.328C70.247 101.193 69.8895 101.125 69.5291 101.129ZM58.1262 100.018C57.6579 100.014 57.1936 100.103 56.7597 100.279C56.3258 100.455 55.9308 100.714 55.5972 101.043C55.2637 101.371 54.9981 101.762 54.8157 102.194C54.6333 102.625 54.5376 103.087 54.5341 103.556C54.5341 105.507 56.1434 107.089 58.1262 107.089C60.1089 107.089 61.7182 105.507 61.7182 103.556C61.7147 103.088 61.619 102.625 61.4365 102.194C61.2541 101.763 60.9884 101.373 60.6548 101.044C60.3212 100.716 59.9262 100.457 59.4923 100.282C59.0584 100.106 58.5942 100.014 58.1262 100.018ZM46.1364 95.7822C45.0206 95.7739 43.9471 96.2088 43.1519 96.9914C42.3567 97.7739 41.9047 98.84 41.8953 99.9555C41.8953 102.262 43.7936 104.133 46.1364 104.133C48.4792 104.133 50.3775 102.262 50.3775 99.9555C50.3734 99.4028 50.2605 98.8563 50.0451 98.3472C49.8298 97.8381 49.5163 97.3764 49.1224 96.9885C48.7286 96.6005 48.2622 96.294 47.7499 96.0862C47.2375 95.8785 46.6893 95.7737 46.1364 95.7778V95.7822ZM35.5114 87.9422C32.764 87.9422 30.5324 90.1378 30.5324 92.8444C30.5324 95.5555 32.764 97.7467 35.5114 97.7467C38.2677 97.7467 40.4949 95.5511 40.4949 92.8444C40.4949 90.1333 38.2632 87.9422 35.5114 87.9422ZM26.7002 76.1111C23.7217 76.1111 21.3077 78.4889 21.3077 81.4178C21.3077 84.3511 23.7217 86.7289 26.7002 86.7289C29.6788 86.7289 32.0972 84.3511 32.0972 81.4178C32.0972 78.4844 29.6832 76.1111 26.7002 76.1111ZM21.6945 63.8C21.1411 63.7953 20.5921 63.8996 20.079 64.1071C19.5659 64.3145 19.0987 64.6209 18.704 65.0089C18.3093 65.3968 17.995 65.8587 17.7789 66.3681C17.5628 66.8775 17.4492 67.4245 17.4445 67.9778C17.4445 70.2889 19.3472 72.1556 21.6945 72.1556C22.8119 72.1638 23.8869 71.7286 24.6837 70.9454C25.4805 70.1621 25.9339 69.0949 25.9445 67.9778C25.9445 65.6667 24.0418 63.8 21.6945 63.8ZM21.4544 51.9022C20.5379 51.8951 19.656 52.252 19.0025 52.8945C18.349 53.537 17.9773 54.4126 17.9691 55.3289C17.9691 57.2267 19.5251 58.76 21.4544 58.76C21.9086 58.7635 22.3591 58.6776 22.7801 58.507C23.201 58.3365 23.5843 58.0847 23.9079 57.7661C24.2316 57.4475 24.4893 57.0683 24.6663 56.6501C24.8434 56.2319 24.9363 55.783 24.9398 55.3289C24.9316 54.4126 24.5599 53.537 23.9064 52.8945C23.2529 52.252 22.371 51.8951 21.4544 51.9022ZM24.8776 40.2222C24.4493 40.2187 24.0245 40.2996 23.6275 40.4604C23.2305 40.6212 22.8691 40.8586 22.564 41.1591C22.2588 41.4596 22.0159 41.8173 21.8492 42.2117C21.6825 42.6062 21.5952 43.0296 21.5923 43.4578C21.5923 45.24 23.0593 46.6889 24.882 46.6889C26.6958 46.6889 28.1673 45.24 28.1673 43.4578C28.1638 43.0294 28.0759 42.6058 27.9087 42.2114C27.7415 41.8169 27.4982 41.4593 27.1927 41.1588C26.8873 40.8584 26.5256 40.621 26.1283 40.4603C25.7311 40.2996 25.3061 40.2187 24.8776 40.2222ZM30.808 31.1333C30.4474 31.1304 30.0898 31.1986 29.7556 31.334C29.4214 31.4694 29.1172 31.6693 28.8603 31.9223C28.6035 32.1754 28.3991 32.4766 28.2588 32.8087C28.1185 33.1408 28.0451 33.4973 28.0428 33.8578C28.0428 35.36 29.2831 36.5778 30.808 36.5778C31.1682 36.5807 31.5254 36.5127 31.8594 36.3776C32.1933 36.2425 32.4973 36.0429 32.7541 35.7903C33.0108 35.5378 33.2153 35.2371 33.3559 34.9055C33.4964 34.5739 33.5702 34.2179 33.5731 33.8578C33.5708 33.4973 33.4974 33.1408 33.3571 32.8087C33.2169 32.4766 33.0125 32.1754 32.7556 31.9223C32.4988 31.6693 32.1946 31.4694 31.8604 31.334C31.5262 31.1986 31.1686 31.1304 30.808 31.1333ZM37.8943 24.36C37.5831 24.3577 37.2745 24.4166 36.9861 24.5335C36.6977 24.6504 36.4352 24.8229 36.2135 25.0412C35.9919 25.2596 35.8154 25.5194 35.6941 25.8059C35.5729 26.0924 35.5093 26.4 35.507 26.7111C35.507 28.0089 36.5739 29.0622 37.8943 29.0622C38.2054 29.0646 38.514 29.0056 38.8024 28.8887C39.0908 28.7718 39.3533 28.5993 39.575 28.381C39.7967 28.1627 39.9732 27.9028 40.0944 27.6163C40.2156 27.3298 40.2792 27.0222 40.2815 26.7111C40.2792 26.4 40.2156 26.0924 40.0944 25.8059C39.9732 25.5194 39.7967 25.2596 39.575 25.0412C39.3533 24.8229 39.0908 24.6504 38.8024 24.5335C38.514 24.4166 38.2054 24.3577 37.8943 24.36ZM45.3895 19.52C44.8479 19.5164 44.327 19.7278 43.9412 20.1078C43.5553 20.4877 43.3359 21.0052 43.3312 21.5467C43.3371 22.0873 43.557 22.6037 43.9427 22.9827C44.3285 23.3617 44.8487 23.5724 45.3895 23.5689C45.9304 23.5724 46.4506 23.3617 46.8363 22.9827C47.2221 22.6037 47.442 22.0873 47.4478 21.5467C47.4431 21.0052 47.2238 20.4877 46.8379 20.1078C46.452 19.7278 45.9311 19.5164 45.3895 19.52ZM53.8806 15.7911C53.57 15.7888 53.262 15.8476 52.9742 15.9643C52.6863 16.0809 52.4243 16.2531 52.203 16.471C51.9818 16.689 51.8056 16.9483 51.6846 17.2343C51.5636 17.5203 51.5001 17.8273 51.4978 18.1378C51.4978 19.4311 52.5647 20.4844 53.8851 20.4844C54.512 20.488 55.1147 20.243 55.5614 19.8032C56.008 19.3634 56.262 18.7645 56.2679 18.1378C56.2656 17.8273 56.2021 17.5203 56.0811 17.2343C55.9601 16.9483 55.7839 16.689 55.5626 16.471C55.3414 16.2531 55.0793 16.0809 54.7915 15.9643C54.5037 15.8476 54.1957 15.7888 53.8851 15.7911H53.8806ZM63.821 13.4356C63.0927 13.4308 62.3922 13.7149 61.873 14.2256C61.3539 14.7363 61.0584 15.4319 61.0514 16.16C61.0514 17.6667 62.2961 18.8844 63.821 18.8844C64.55 18.8904 65.2517 18.6068 65.7718 18.096C66.2919 17.5852 66.588 16.8889 66.595 16.16C66.5921 15.7987 66.5181 15.4415 66.3771 15.1089C66.2361 14.7762 66.0309 14.4746 65.7733 14.2212C65.5157 13.9677 65.2107 13.7676 64.8758 13.632C64.5408 13.4964 64.1824 13.4326 63.821 13.4356ZM75.2462 12.9378C73.259 12.9378 71.6497 14.52 71.6497 16.4711C71.6497 18.4222 73.259 20.0133 75.2462 20.0133C77.2333 20.0133 78.8426 18.4267 78.8426 16.4711C78.8426 14.5156 77.2333 12.9378 75.2462 12.9378ZM86.9025 15.6489C85.7855 15.6418 84.7111 16.0774 83.9146 16.8604C83.118 17.6434 82.6642 18.7099 82.6525 19.8267C82.6525 22.1378 84.5552 24.0133 86.9025 24.0133C87.4565 24.0174 88.006 23.9124 88.5194 23.7042C89.0328 23.496 89.5002 23.1888 89.8948 22.8C90.2895 22.4112 90.6037 21.9486 90.8195 21.4384C91.0353 20.9282 91.1484 20.3806 91.1525 19.8267C91.1419 18.7096 90.6885 17.6423 89.8917 16.8591C89.0949 16.0758 88.0199 15.6406 86.9025 15.6489ZM97.9098 22.2222C95.1535 22.2222 92.9218 24.4222 92.9218 27.1289C92.9218 29.8356 95.158 32.04 97.9098 32.04C100.666 32.04 102.898 29.84 102.898 27.1289C102.898 24.4178 100.666 22.2222 97.9098 22.2222ZM106.659 33.28C103.68 33.28 101.262 35.6578 101.262 38.5867C101.262 41.52 103.676 43.8978 106.659 43.8978C109.642 43.8978 112.056 41.52 112.056 38.5867C112.056 35.6533 109.642 33.28 106.659 33.28ZM111.669 47.8533C109.326 47.8533 107.428 49.72 107.428 52.0311C107.428 54.3422 109.326 56.2044 111.669 56.2044C114.016 56.2044 115.914 54.3378 115.914 52.0267C115.914 49.7156 114.016 47.8489 111.669 47.8489V47.8533ZM133.368 60.0089C133.368 63.8489 130.207 66.96 126.299 66.96C122.401 66.96 119.24 63.8489 119.24 60.0089C119.24 56.1689 122.401 53.0578 126.304 53.0578C130.207 53.0578 133.368 56.1689 133.368 60.0089Z" fill="#FA6400"/>
</g>
<defs>
<clipPath id="clip0_610_35">
<rect width="858" height="120" fill="white"/>
</clipPath>
</defs>
</svg>
