<svg width="596" height="120" viewBox="0 0 596 120" fill="none" xmlns="http://www.w3.org/2000/svg">
<path d="M15.4017 37.7194H3.7312V28.2014H15.4017V10.0537H25.8037V28.2014H42.1679V37.7194H25.8037V75.9184C25.8037 78.6256 26.3111 80.5714 27.326 81.7561C28.4253 82.8559 30.2859 83.4057 32.9075 83.4057H44.1976V92.924H32.2733C26.1843 92.924 21.829 91.5702 19.2073 88.8627C16.6703 86.1556 15.4017 81.8828 15.4017 76.0452V37.7194Z" fill="#13171B"/>
<path d="M77.7117 93.6847C71.4537 93.6847 65.8723 92.2889 60.9671 89.4967C56.1466 86.7048 52.3832 82.8131 49.6772 77.8215C46.9709 72.8298 45.6177 67.0766 45.6177 60.5621C45.6177 54.0476 46.9709 48.2943 49.6772 43.3027C52.3832 38.3111 56.1466 34.4193 60.9671 31.6274C65.8723 28.8354 71.4537 27.4395 77.7117 27.4395C83.9701 27.4395 89.5091 28.8354 94.3296 31.6274C99.2344 34.4193 103.04 38.3111 105.747 43.3027C108.453 48.2943 109.806 54.0476 109.806 60.5621C109.806 67.0766 108.453 72.8298 105.747 77.8215C103.04 82.8131 99.2344 86.7048 94.3296 89.4967C89.5091 92.2889 83.9701 93.6847 77.7117 93.6847ZM77.7117 84.4207C81.9403 84.4207 85.6614 83.4052 88.8749 81.375C92.1731 79.3443 94.7101 76.5101 96.4861 72.8722C98.2621 69.234 99.1501 65.1307 99.1501 60.5621C99.1501 55.9935 98.2621 51.8902 96.4861 48.2523C94.7101 44.6141 92.1731 41.7798 88.8749 39.7496C85.6614 37.719 81.9403 36.7036 77.7117 36.7036C73.4835 36.7036 69.7201 37.719 66.4218 39.7496C63.2083 41.7798 60.7133 44.6141 58.9373 48.2523C57.1617 51.8902 56.2737 55.9935 56.2737 60.5621C56.2737 65.1307 57.1617 69.234 58.9373 72.8722C60.7133 76.5101 63.2083 79.3443 66.4218 81.375C69.7201 83.4052 73.4835 84.4207 77.7117 84.4207Z" fill="#13171B"/>
<path d="M181.045 28.2009V89.7506C181.045 109.294 170.347 119.066 148.951 119.066C140.579 119.066 133.729 117.163 128.401 113.355C123.158 109.548 120.113 104.133 119.267 97.1115H129.923C130.769 101.172 132.925 104.303 136.393 106.502C139.86 108.702 144.3 109.802 149.712 109.802C163.666 109.802 170.643 102.991 170.643 89.37V81.7556C165.992 89.7082 158.592 93.6847 148.444 93.6847C142.439 93.6847 137.069 92.3733 132.333 89.7506C127.682 87.1278 124.003 83.3208 121.297 78.3292C118.675 73.3376 117.364 67.4152 117.364 60.5621C117.364 54.0476 118.675 48.2943 121.297 43.3027C124.003 38.3111 127.724 34.4193 132.46 31.6274C137.196 28.8354 142.524 27.4395 148.444 27.4395C153.687 27.4395 158.169 28.497 161.89 30.6121C165.611 32.6426 168.529 35.5615 170.643 39.3686L172.038 28.2009H181.045ZM149.458 84.4207C153.602 84.4207 157.281 83.4476 160.495 81.5017C163.793 79.4711 166.33 76.6792 168.106 73.1261C169.882 69.4878 170.77 65.3846 170.77 60.8159C170.77 56.1626 169.882 52.017 168.106 48.3791C166.33 44.6565 163.793 41.7798 160.495 39.7496C157.281 37.719 153.602 36.7036 149.458 36.7036C143.031 36.7036 137.83 38.9456 133.856 43.4298C129.965 47.829 128.02 53.5398 128.02 60.5621C128.02 67.5843 129.965 73.3376 133.856 77.8215C137.83 82.221 143.031 84.4207 149.458 84.4207Z" fill="#13171B"/>
<path d="M190.846 60.5621C190.846 53.9628 192.114 48.1676 194.651 43.176C197.273 38.1843 200.909 34.3347 205.56 31.6274C210.212 28.8354 215.539 27.4395 221.544 27.4395C227.464 27.4395 232.707 28.6662 237.274 31.1197C241.841 33.5733 245.435 37.1267 248.056 41.7798C250.678 46.4332 252.074 51.8902 252.243 58.1508C252.243 59.0816 252.158 60.5621 251.989 62.5927H201.755V63.4811C201.924 69.8265 203.869 74.9025 207.59 78.7098C211.311 82.5168 216.174 84.4207 222.178 84.4207C226.83 84.4207 230.762 83.2785 233.976 80.9939C237.274 78.6251 239.473 75.3678 240.572 71.2222H251.101C249.832 77.8215 246.661 83.2361 241.587 87.4664C236.513 91.6121 230.297 93.6847 222.939 93.6847C216.512 93.6847 210.888 92.331 206.068 89.6238C201.247 86.832 197.484 82.9402 194.778 77.9482C192.156 72.8722 190.846 67.0766 190.846 60.5621ZM241.46 53.9628C240.953 48.4638 238.881 44.1911 235.244 41.1453C231.692 38.0996 227.168 36.5767 221.671 36.5767C216.766 36.5767 212.453 38.1843 208.732 41.3992C205.011 44.6141 202.896 48.8021 202.389 53.9628H241.46Z" fill="#13171B"/>
<path d="M265.596 37.7194H253.925V28.2014H265.596V10.0537H275.998V28.2014H292.362V37.7194H275.998V75.9184C275.998 78.6256 276.505 80.5714 277.52 81.7561C278.62 82.8559 280.48 83.4057 283.102 83.4057H294.392V92.924H282.468C276.378 92.924 272.023 91.5702 269.401 88.8627C266.864 86.1556 265.596 81.8828 265.596 76.0452V37.7194Z" fill="#13171B"/>
<path d="M331.419 27.4397C339.284 27.4397 345.627 29.8086 350.447 34.5465C355.268 39.2845 357.678 46.7297 357.678 56.8821V92.9237H347.276V57.5166C347.276 50.833 345.753 45.7566 342.709 42.2878C339.665 38.7343 335.309 36.9577 329.643 36.9577C323.639 36.9577 318.861 39.0729 315.309 43.303C311.841 47.5333 310.108 53.2862 310.108 60.5623V92.9237H299.706V4.08887H310.108V38.8615C312.222 35.4771 315.013 32.7275 318.48 30.6124C322.032 28.4973 326.345 27.4397 331.419 27.4397Z" fill="#13171B"/>
<path d="M366.568 60.5621C366.568 53.9628 367.836 48.1676 370.373 43.176C372.995 38.1843 376.631 34.3347 381.283 31.6274C385.934 28.8354 391.261 27.4395 397.266 27.4395C403.185 27.4395 408.429 28.6662 412.994 31.1197C417.564 33.5733 421.158 37.1267 423.779 41.7798C426.399 46.4332 427.797 51.8902 427.965 58.1508C427.965 59.0816 427.879 60.5621 427.711 62.5927H377.478V63.4811C377.647 69.8265 379.592 74.9025 383.31 78.7098C387.033 82.5168 391.894 84.4207 397.899 84.4207C402.551 84.4207 406.483 83.2785 409.699 80.9939C412.994 78.6251 415.195 75.3678 416.293 71.2222H426.822C425.555 77.8215 422.384 83.2361 417.309 87.4664C412.233 91.6121 406.018 93.6847 398.66 93.6847C392.235 93.6847 386.609 92.331 381.789 89.6238C376.968 86.832 373.206 82.9402 370.5 77.9482C367.879 72.8722 366.568 67.0766 366.568 60.5621ZM417.181 53.9628C416.675 48.4638 414.602 44.1911 410.966 41.1453C407.413 38.0996 402.889 36.5767 397.393 36.5767C392.487 36.5767 388.176 38.1843 384.454 41.3992C380.732 44.6141 378.617 48.8021 378.111 53.9628H417.181Z" fill="#13171B"/>
<path d="M470.604 28.2012V38.3537H465.401C459.227 38.3537 454.789 40.4264 452.083 44.572C449.463 48.7176 448.151 53.8364 448.151 59.9279V92.9237H437.749V28.2012H446.756L448.151 37.9731C450.01 35.0118 452.42 32.6429 455.382 30.8662C458.343 29.0895 462.444 28.2012 467.688 28.2012H470.604Z" fill="#13171B"/>
<path d="M576.553 83.4052V92.9234H570.844C566.699 92.9234 563.741 92.0775 561.964 90.3851C560.188 88.6931 559.258 86.1975 559.172 82.8978C554.183 90.0892 546.952 93.6847 537.483 93.6847C530.294 93.6847 524.499 91.9927 520.102 88.6087C515.791 85.2243 513.632 80.6133 513.632 74.7757C513.632 68.2612 515.832 63.2696 520.229 59.8008C524.712 56.3321 531.182 54.5973 539.639 54.5973H558.666V50.1558C558.666 45.9255 557.23 42.6258 554.351 40.257C551.562 37.8881 547.63 36.7036 542.555 36.7036C538.072 36.7036 534.353 37.719 531.392 39.7496C528.517 41.6955 526.74 44.3182 526.066 47.6175H515.664C516.425 41.2725 519.213 36.3229 524.034 32.7696C528.941 29.2162 535.283 27.4395 543.065 27.4395C551.353 27.4395 557.736 29.47 562.219 33.531C566.785 37.5075 569.068 43.2603 569.068 50.7903V78.7098C569.068 81.8403 570.507 83.4052 573.382 83.4052H576.553ZM558.666 63.354H538.623C528.982 63.354 524.161 66.9498 524.161 74.1412C524.161 77.3561 525.432 79.9365 527.966 81.8823C530.504 83.8282 533.93 84.8013 538.244 84.8013C544.587 84.8013 549.576 83.1517 553.212 79.8521C556.848 76.4677 558.666 72.0262 558.666 66.5268V63.354Z" fill="#13171B"/>
<path d="M587.664 3.20117C589.609 3.20117 591.217 3.83569 592.484 5.10476C593.755 6.37384 594.388 7.98131 594.388 9.92722C594.388 11.8731 593.755 13.4806 592.484 14.7497C591.217 16.0188 589.609 16.6533 587.664 16.6533C585.718 16.6533 584.114 16.0188 582.843 14.7497C581.576 13.4806 580.943 11.8731 580.943 9.92722C580.943 7.98131 581.576 6.37384 582.843 5.10476C584.114 3.83569 585.718 3.20117 587.664 3.20117ZM582.465 28.2018H592.866V92.9244H582.465V28.2018Z" fill="#13171B"/>
<path d="M493.293 83.0683C493.293 88.511 488.829 92.9233 483.322 92.9233C477.816 92.9233 473.355 88.511 473.355 83.0683C473.355 77.6251 477.816 73.2129 483.322 73.2129C488.829 73.2129 493.293 77.6251 493.293 83.0683Z" fill="#0F6FFF"/>
</svg>
