<svg width="156" height="184" viewBox="0 0 156 184" fill="none" xmlns="http://www.w3.org/2000/svg">
<path d="M151.412 0H0V148.733H151.412V0Z" fill="black"/>
<path d="M44.3544 53.1335V105.895H33.6394V53.1335H12.5885V42.2959H65.5001V53.1335H44.3544ZM117.906 116.448V105.895H86.3293V95.3431H75.8039V52.8483H86.3293V42.2959H118.19V52.8483H128.715V95.3431H118.19V105.705H128.715V116.448H117.906ZM117.906 53.1335H86.5189V95.153H117.906V53.1335Z" fill="#FAFAFA"/>
<path d="M16.0909 164.472V172.522H13.4252V177.899H7.9973V172.522H5.33154V164.472H2.66577V156.357H8.06154V164.407H10.7273V172.457H13.3609V156.357H18.7567V164.472H16.0909ZM24.0879 177.899V156.357H37.5131V159.094H29.4837V164.407H34.8474V167.144H29.4837V175.162H37.5131V177.899H24.0879ZM50.8422 177.899V172.522H48.1444V167.144H45.5428V177.899H42.8128V156.357H48.2086V161.735H50.8744V167.112H53.508V156.357H56.238V177.899H50.8422ZM69.5993 159.094V177.899H64.2035V159.094H58.8398V156.357H74.9629V159.094H69.5993ZM91.0217 175.194V177.899H80.2623V175.194H77.5965V156.357H82.9923V175.162H88.2917V156.357H93.6875V175.194H91.0217ZM109.714 177.899V169.849H107.048V167.112H109.714V159.094H104.414V177.899H99.0187V156.357H112.444V159.062H115.11V167.144H112.444V169.785H115.11V177.899H109.714ZM120.441 177.899V156.357H133.866V159.094H125.837V164.407H131.2V167.144H125.837V175.162H133.866V177.899H120.441ZM149.925 175.194V177.899H141.832V175.194H139.166V172.457H141.896V175.162H147.195V169.849H141.832V167.144H139.166V159.062H141.832V156.357H149.925V159.062H152.591V161.799H149.861V159.094H144.562V164.407H149.925V167.112H152.591V175.194H149.925Z" fill="black"/>
</svg>
