<svg width="652" height="96" viewBox="0 0 652 96" fill="none" xmlns="http://www.w3.org/2000/svg">
<path d="M646.444 33.8993C653.827 45.8508 652.209 62.6518 642.899 72.0021C632.968 81.9767 615.233 83.2115 604.813 70.0652C604.637 69.8434 604.461 69.622 603.961 68.9939C603.961 69.8935 603.961 70.397 603.961 70.9005C603.961 77.7098 603.989 84.5191 603.95 91.3281C603.93 94.8151 600.9 96.8889 597.763 95.6285C596.288 95.0358 595.351 93.9492 595.106 92.3626C594.986 91.5827 594.97 90.7812 594.97 89.9894C594.963 69.4483 594.964 48.9072 594.969 28.366C594.969 27.6873 594.971 27.0008 595.067 26.3312C595.411 23.9161 597.261 22.3879 599.666 22.4865C602.001 22.5823 603.843 24.3486 603.939 26.7251C604.018 28.6783 603.955 30.6372 603.955 32.852C616.14 15.835 638.087 20.5017 646.444 33.8993ZM614.295 69.3299C624.73 74.5131 636.223 70.2709 640.29 59.6963C641.958 55.3596 642.185 50.8673 641.478 46.3054C639.324 32.4223 624.006 25.3369 612.802 33.0623C600.148 41.7878 600.593 61.81 614.295 69.3299Z" fill="black"/>
<path d="M301.545 70.9765C294.524 78.8774 285.908 81.492 275.947 78.6308C265.733 75.697 259.511 68.6062 257.284 58.3108C255.358 49.4082 256.338 40.7847 261.649 33.0788C270.81 19.7847 290.705 17.476 301.787 30.4252C302.266 30.9848 302.751 31.5392 303.532 32.4423C303.532 30.5656 303.527 29.0256 303.533 27.4855C303.546 24.4389 305.231 22.5099 307.892 22.4859C310.625 22.4612 312.513 24.4143 312.518 27.4545C312.542 43.0074 312.542 58.5603 312.519 74.1132C312.514 77.1083 310.679 79.0711 308.062 79.064C305.361 79.0566 303.548 77.0364 303.534 74.0059C303.526 72.3257 303.532 70.6454 303.532 68.5374C302.724 69.5376 302.178 70.2138 301.545 70.9765ZM297.362 66.297C303.964 59.16 305.717 50.9613 302.102 41.9536C296.992 29.2208 280.174 25.8188 271.101 35.6019C265.963 41.1421 264.833 47.9323 266.072 55.1162C267.321 62.3595 271.204 67.8687 278.268 70.4243C285.252 72.9509 291.648 71.4493 297.362 66.297Z" fill="black"/>
<path d="M387.726 29.7593C397.553 20.0143 412.805 19.0941 422.691 27.648C428.284 32.488 431.021 38.8328 431.936 46.0537C432.071 47.1215 432.171 48.198 432.208 49.2732C432.316 52.3765 430.576 54.1926 427.479 54.195C415.275 54.2045 403.072 54.198 390.868 54.1975C390.252 54.1975 389.636 54.1975 389.014 54.1975C389.447 61.7855 394.89 70.2077 404.536 71.6151C411.426 72.6203 417.376 70.5658 422.638 66.107C423.526 65.3552 424.784 64.7535 425.921 64.6533C427.548 64.5101 428.876 65.4533 429.465 67.0621C430.068 68.707 429.672 70.1823 428.406 71.4147C423.431 76.2569 417.532 79.103 410.581 79.695C395.532 80.9766 383.199 71.9758 380.371 57.2267C378.421 47.0521 380.55 37.7326 387.726 29.7593ZM406.224 29.5258C396.433 30.4262 388.609 38.4978 389.076 47.2561C400.394 47.2561 411.713 47.2561 423.038 47.2561C422.464 37.2977 415.954 29.6847 406.224 29.5258Z" fill="black"/>
<path d="M531.193 65.6891C521.817 49.0677 529.879 26.4937 550.669 22.3487C569.847 18.5251 587.145 34.2048 584.999 53.6226C583.698 65.3928 577.566 73.8342 566.447 77.8796C555.204 81.9703 544.752 79.9045 535.859 71.6602C534.059 69.9919 532.777 67.7652 531.193 65.6891ZM574.268 59.7153C576.115 55.1079 576.486 50.3818 575.355 45.5513C572.033 31.3625 555.712 25.1268 544.394 33.8049C538.6 38.2474 536.374 44.4296 536.511 51.5767C536.691 61.0097 543.317 69.3404 552.118 71.2211C561.36 73.1958 570 68.7729 574.268 59.7153Z" fill="black"/>
<path d="M487.963 79.6465C474.778 78.1854 465.067 68.5697 462.771 56.321C459.791 40.4201 469.998 25.2799 485.88 22.304C501.764 19.3276 516.794 29.3662 519.67 45.1703C523.197 64.5531 508.497 81.0441 488.797 79.7166C488.571 79.7014 488.344 79.6861 487.963 79.6465ZM483.569 31.3622C482.292 32.0845 480.905 32.6646 479.756 33.5524C472.951 38.8094 470.762 45.9159 471.783 54.1957C473.284 66.3644 485.239 74.2519 496.964 70.8632C505.644 68.3548 511.248 60.0659 511 50.1056C510.639 35.654 497.057 26.2457 483.569 31.3622Z" fill="black"/>
<path d="M372.361 30.3871C373.733 32.8339 373.446 35.0037 371.652 36.4322C369.899 37.8275 367.568 37.6857 365.619 35.952C362.116 32.8352 358.268 30.4092 353.474 30.001C344.106 29.2035 336.359 34.468 333.356 43.5854C329.721 54.6193 334.877 66.5064 345.14 70.3845C352.23 73.0638 358.729 71.5672 364.627 67.0053C365.344 66.4507 366.02 65.8423 366.706 65.2479C368.682 63.5344 370.787 63.5208 372.428 65.2179C374.089 66.9355 374.056 69.3413 372.217 71.1415C369.193 74.1021 365.819 76.5977 361.79 78.0123C342.859 84.6587 324.845 72.0488 323.215 53.8224C321.907 39.1976 330.61 26.1796 344.366 22.7797C354.933 20.168 364.347 22.6955 372.361 30.3871Z" fill="black"/>
<path d="M4.45509 12.7003C1.51919 10.7788 0.36438 8.08257 1.1691 5.24631C2.00898 2.28609 4.50218 0.461515 7.82609 0.459971C28.9474 0.450183 50.0687 0.449175 71.1899 0.460247C74.6389 0.46205 77.332 2.53907 77.9342 5.57018C78.5459 8.64911 77.0676 11.6632 74.2189 12.8372C73.3056 13.2135 72.2381 13.3645 71.2408 13.3659C50.0628 13.3952 28.8847 13.3973 7.70668 13.3617C6.66178 13.36 5.61752 12.9677 4.45509 12.7003Z" fill="#FD3D5C"/>
<path d="M197.595 79.0974C190.117 77.3307 186.288 72.754 186.08 65.0498C185.906 58.5858 186.008 52.114 186.004 45.6457C185.997 34.0133 185.991 22.3808 186.01 10.7484C186.015 8.12768 187.428 6.43196 189.782 6.0479C191.845 5.71131 193.955 6.87756 194.653 8.88103C194.924 9.66011 194.977 10.5442 194.984 11.3816C195.018 15.1736 194.999 18.966 194.999 22.9445C199.177 22.9445 203.246 22.9372 207.316 22.9512C208.049 22.9537 208.797 22.9653 209.512 23.1078C211.678 23.5399 213.041 25.3064 212.864 27.3537C212.688 29.3728 211.017 30.9835 208.857 31.0137C204.772 31.0707 200.686 31.0312 196.601 31.0318C196.102 31.0319 195.604 31.0318 194.999 31.0318C194.999 33.7879 194.999 36.388 194.999 38.988C194.999 46.8186 194.984 54.6493 195.003 62.4799C195.017 68.5164 198.276 71.5856 204.306 71.2403C205.375 71.1791 206.446 70.9843 207.493 70.7494C209.87 70.2159 211.761 71.0985 212.448 73.1336C213.164 75.2565 212.145 77.1605 209.784 78.0818C205.872 79.6082 201.839 79.7601 197.595 79.0974Z" fill="black"/>
<path d="M223.941 77.5553C223.501 76.3576 222.844 75.2536 222.839 74.1469C222.772 58.5435 222.789 42.9398 222.799 27.3361C222.801 24.4907 224.592 22.538 227.171 22.4861C229.826 22.4327 231.712 24.3502 231.779 27.2774C231.834 29.6825 231.79 32.0898 231.79 34.405C234.098 31.8593 236.198 29.224 238.631 26.9432C241.455 24.2948 244.937 22.7616 248.827 22.3025C252.364 21.8852 254.755 23.84 254.613 27.0063C254.513 29.2192 253.165 31.0383 250.938 31.2735C238.737 32.5621 231.964 42.2716 231.805 55.0068C231.726 61.3608 231.786 67.7166 231.794 74.0715C231.797 76.1044 231.119 77.7932 229.187 78.6497C227.296 79.4883 225.528 79.1158 223.941 77.5553Z" fill="black"/>
<path d="M451.682 32.0742C451.682 46.2597 451.674 60.2749 451.692 74.29C451.695 76.2268 451.012 77.7457 449.254 78.6037C447.587 79.4169 445.932 79.2109 444.445 78.0992C443.096 77.0906 442.774 75.6681 442.776 74.0376C442.802 55.1994 442.793 36.3612 442.793 17.523C442.793 13.2673 442.783 9.01169 442.796 4.75612C442.805 1.85667 444.52 0.01171 447.177 5.57357e-05C449.895 -0.0118639 451.678 1.88897 451.68 4.83808C451.686 13.86 451.682 22.8819 451.682 32.0742Z" fill="black"/>
<path d="M112.397 51.8496C120.109 51.8496 127.65 51.8463 135.192 51.8509C139.337 51.8535 142.239 54.4615 142.308 58.2306C142.377 62.0163 139.387 64.7594 135.172 64.7605C122.584 64.7638 109.996 64.7711 97.4086 64.7553C94.0172 64.7511 91.2479 62.3559 90.9173 59.2294C90.5362 55.6263 92.6376 52.587 96.0788 51.9713C97.2907 51.7545 98.5638 51.8572 99.8091 51.8538C103.948 51.8426 108.088 51.8496 112.397 51.8496Z" fill="#FDE500"/>
<path d="M50.397 77.5369C61.8068 77.537 73.0466 77.5252 84.2863 77.5442C87.7232 77.5501 90.3535 79.7848 90.8563 83.0217C91.3325 86.0874 89.4799 89.1423 86.507 90.0797C85.8198 90.2964 85.0605 90.3649 84.3342 90.3658C71.6186 90.3826 58.9028 90.3838 46.1871 90.3753C42.2386 90.3727 39.521 87.7596 39.5131 84.0044C39.5053 80.2659 42.2475 77.585 46.1399 77.5396C47.5021 77.5237 48.8646 77.5369 50.397 77.5369Z" fill="#FE3D5D"/>
<path d="M28.5927 39.0653C21.4387 39.0653 14.455 39.0857 7.47151 39.0563C4.20919 39.0426 1.57206 36.8473 1.04286 33.8206C0.485861 30.6349 2.25919 27.5483 5.30034 26.5519C6.03574 26.311 6.85652 26.2449 7.63824 26.2438C20.2996 26.2257 32.961 26.2278 45.6224 26.2329C49.633 26.2346 52.4056 28.9076 52.3752 32.7163C52.3457 36.4044 49.5452 39.053 45.626 39.0622C40.005 39.0753 34.384 39.0654 28.5927 39.0653Z" fill="#FEA32C"/>
<path d="M122.958 0.454335C127.324 0.454512 131.521 0.407775 135.716 0.469191C139.288 0.521475 141.818 2.86961 142.254 6.37733C142.616 9.29311 140.61 12.2962 137.677 13.1168C136.927 13.3266 136.112 13.3802 135.327 13.3811C122.796 13.3967 110.264 13.3991 97.7324 13.388C93.638 13.3843 90.903 10.8168 90.8805 7.01423C90.8577 3.14488 93.6413 0.470408 97.781 0.460448C106.116 0.440393 114.452 0.454382 122.958 0.454335Z" fill="#FCE400"/>
<path d="M47.0278 64.7639C41.9678 65.3225 38.1385 60.7492 39.9056 56.0189C40.8622 53.4582 42.8498 51.9074 45.5997 51.881C54.3895 51.7968 63.1811 51.8006 71.971 51.8783C75.4531 51.9091 78.0651 54.8386 78.0434 58.3598C78.0213 61.9325 75.3123 64.7307 71.6923 64.7498C63.5257 64.793 55.3588 64.7637 47.0278 64.7639Z" fill="#00C2F5"/>
<path d="M66.1509 29.1589C67.697 27.0005 69.6834 26.1807 72.2236 26.2038C80.4478 26.2787 88.673 26.2283 96.8979 26.2333C100.922 26.2358 103.728 28.8778 103.72 32.6379C103.713 36.4114 100.921 39.0587 96.8826 39.0657C88.6011 39.0802 80.3195 39.0863 72.038 39.0643C66.5276 39.0496 63.6208 34.237 66.1509 29.1589Z" fill="#00FE84"/>
<path d="M118.529 90.3818C115.581 90.3819 112.803 90.4032 110.025 90.3767C106.472 90.3428 103.65 87.5156 103.624 84.0072C103.598 80.5941 106.334 77.6019 109.802 77.5717C118.589 77.4953 127.378 77.4899 136.165 77.5757C139.624 77.6095 142.363 80.6495 142.309 84.038C142.252 87.557 139.442 90.3595 135.878 90.3754C130.152 90.4008 124.426 90.382 118.529 90.3818Z" fill="#00C2F6"/>
<path d="M26.7188 58.5776C26.0178 62.816 23.7598 64.7544 19.6541 64.7599C15.689 64.7652 11.724 64.771 7.75901 64.7582C3.76474 64.7454 0.993859 62.0827 0.997498 58.2878C1.00113 54.5073 3.78337 51.8638 7.79459 51.8526C11.7029 51.8417 15.6113 51.848 19.5197 51.8509C23.9561 51.8542 26.3232 54.0218 26.7188 58.5776Z" fill="#FCA32C"/>
<path d="M138.663 26.8212C141.73 28.7381 142.881 31.4789 141.993 34.551C141.187 37.3412 138.662 39.0596 135.336 39.065C131.307 39.0716 127.277 39.0794 123.247 39.0628C119.377 39.0469 116.536 36.3461 116.504 32.6885C116.472 28.958 119.328 26.2382 123.302 26.2312C127.389 26.2241 131.476 26.1964 135.561 26.2535C136.56 26.2674 137.554 26.5777 138.663 26.8212Z" fill="#FDA32C"/>
<path d="M26.4085 86.0077C25.177 89.0339 23.0458 90.4356 19.8853 90.3937C15.7421 90.3387 11.5976 90.3934 7.45379 90.3762C3.75418 90.3608 1.03924 87.7212 0.998018 84.1388C0.955258 80.4226 3.58876 77.615 7.31183 77.5547C11.3412 77.4894 15.3723 77.5359 19.4027 77.5394C24.6751 77.5441 27.3558 80.7176 26.4085 86.0077Z" fill="#00FD84"/>
</svg>
