<svg width="84" height="52" viewBox="0 0 84 52" fill="none" xmlns="http://www.w3.org/2000/svg">
<path d="M76.6826 6.04276C74.6891 8.41798 72.6971 10.7945 70.701 13.1676C70.1597 13.8111 70.1432 13.8487 70.5682 14.5474C72.5696 17.8376 74.576 21.1247 76.5777 24.4146C76.7065 24.6264 76.8113 24.8529 76.9723 25.1579C76.7124 25.1894 76.5414 25.2277 76.3702 25.2283C74.9807 25.2331 73.591 25.2199 72.2017 25.2372C71.7693 25.2425 71.4853 25.0964 71.267 24.7161C70.0753 22.6413 68.8679 20.5754 67.6646 18.5072C67.5014 18.2268 67.3311 17.9506 67.1078 17.5788C66.6709 18.0845 66.3172 18.5664 65.8907 18.9715C65.147 19.6778 64.9825 20.5258 65.0409 21.5059C65.1017 22.5261 65.0421 23.5529 65.0592 24.5765C65.0669 25.0372 64.9007 25.2438 64.4213 25.2361C63.3063 25.2183 62.1907 25.2196 61.0757 25.2348C60.5931 25.2414 60.4408 25.0193 60.4433 24.5649C60.4546 22.5173 60.4473 20.4695 60.4473 18.4218C60.4471 13.0284 60.4469 7.63491 60.4476 2.24145C60.4478 1.32821 60.4582 1.31847 61.3613 1.31702C62.3303 1.31546 63.2993 1.3138 64.2683 1.31778C65.0039 1.3208 65.0525 1.36629 65.0531 2.095C65.0559 5.40421 65.0547 8.71342 65.055 12.0226C65.055 12.2714 65.055 12.5201 65.055 12.7688C65.1155 12.7949 65.1759 12.821 65.2364 12.8471C67.1033 10.5583 68.9703 8.26945 70.9069 5.94934C72.6933 5.91946 74.4101 5.9172 76.1268 5.9275C76.3123 5.92861 76.4973 6.00258 76.6826 6.04276Z" fill="black"/>
<path d="M42.4568 37.1825C42.6273 35.1937 43.5467 33.653 45.1469 32.4565C46.6343 31.3444 48.3313 30.9082 50.1174 30.8701C52.1429 30.8268 54.1349 31.1315 55.8239 32.3875C57.603 33.7105 58.6502 35.472 58.6884 37.729C58.7249 39.8836 58.743 42.0405 58.6892 44.1943C58.6245 46.7811 57.0884 49.2652 54.2579 50.2637C51.1503 51.3598 48.0721 51.2962 45.235 49.4166C43.5881 48.3256 42.5937 46.7746 42.4604 44.6513C42.4626 42.0962 42.4597 39.6394 42.4568 37.1825ZM46.9998 37.4031C46.9855 39.6812 46.9703 41.9592 46.9603 44.2373C46.9599 44.3237 47.0104 44.4104 47.059 44.5837C47.226 45.5266 47.8393 46.0719 48.6854 46.4101C49.8051 46.8576 50.9513 46.7632 52.0704 46.4758C53.3037 46.159 54.0639 45.2606 54.075 44.1782C54.0968 42.0422 54.1092 39.9054 54.0702 37.7699C54.0497 36.6479 53.4827 35.8366 52.3978 35.441C51.3406 35.0554 50.2619 34.9838 49.1717 35.272C48.0845 35.5593 47.2129 36.0842 46.9998 37.4031Z" fill="black"/>
<path d="M41.1387 44.5437C41.097 46.5138 40.1446 48.0304 38.664 49.2087C37.1739 50.3947 35.4156 50.8808 33.5112 50.9106C31.943 50.9352 30.4165 50.7997 28.9737 50.1275C26.9312 49.1757 25.5651 47.6556 25.0738 45.4288C24.9531 44.882 24.9153 44.3083 24.9098 43.7463C24.891 41.8103 24.9072 39.874 24.903 37.9378C24.8966 34.9716 26.7703 32.5343 29.3102 31.5586C31.9837 30.5316 34.665 30.6152 37.2361 31.7578C39.4893 32.7591 40.8773 34.5522 41.1347 37.1888C41.1338 39.7059 41.1362 42.1248 41.1387 44.5437ZM36.534 37.2494C36.308 36.3465 35.75 35.7451 34.8788 35.4296C33.7795 35.0316 32.6664 35.0247 31.5429 35.3139C30.2839 35.6379 29.5483 36.478 29.5255 37.7755C29.4891 39.856 29.4913 41.938 29.5246 44.0186C29.545 45.2877 30.1461 46.0358 31.3602 46.4374C32.5817 46.8415 33.8232 46.7762 35.0056 46.3556C35.8374 46.0597 36.4607 45.4498 36.5985 44.404C36.6121 44.2964 36.6375 44.1887 36.6376 44.0811C36.6398 42.0269 36.6412 39.9726 36.635 37.9184C36.6344 37.7234 36.5815 37.5286 36.534 37.2494Z" fill="black"/>
<path d="M47.7133 5.91148C47.7637 6.26912 47.8141 6.62676 47.8736 7.04946C48.3857 6.76466 48.8392 6.52383 49.2817 6.26426C50.6982 5.43335 52.2113 5.40216 53.7842 5.64345C56.69 6.08921 58.274 8.27446 58.678 11.052C58.7668 11.6627 58.7946 12.2869 58.7963 12.905C58.8069 16.7256 58.8027 20.5462 58.8015 24.3668C58.8013 25.21 58.781 25.2289 57.9428 25.2308C57.047 25.2329 56.1513 25.2332 55.2556 25.2303C54.4436 25.2276 54.4148 25.2013 54.4144 24.4032C54.4124 20.5278 54.4165 16.6523 54.4107 12.7769C54.4085 11.3238 53.6471 10.229 52.2802 9.88385C50.2402 9.36875 47.9877 10.3657 48.0336 12.9698C48.1002 16.7527 48.0512 20.5376 48.0501 24.3216C48.0498 25.22 48.0385 25.2297 47.1213 25.2311C46.2256 25.2324 45.3298 25.2346 44.4341 25.2304C43.7128 25.2271 43.6637 25.1789 43.6634 24.4394C43.6616 19.3392 43.6622 14.239 43.6629 9.1388C43.663 8.09686 43.6667 7.05493 43.7216 5.96449C45.0874 5.91448 46.4003 5.91298 47.7133 5.91148Z" fill="black"/>
<path d="M41.8964 5.90833C41.8998 12.1235 41.9 18.3386 41.9124 24.5537C41.9134 25.0435 41.7417 25.2504 41.2404 25.2371C40.3818 25.2142 39.5222 25.2336 38.6631 25.2303C37.9216 25.2275 37.8578 25.1698 37.7447 24.4532C37.7258 24.3334 37.6993 24.2148 37.6651 24.0377C37.3032 24.2712 36.9888 24.4798 36.6689 24.6794C34.4155 26.0858 30.9087 25.8609 28.9073 24.1156C27.7591 23.1143 27.2202 21.753 26.9996 20.2699C26.9195 19.7311 26.9155 19.1809 26.8791 18.5342C26.8794 14.3024 26.8775 10.1724 26.8756 6.04238C26.8777 6.02026 26.8797 5.99815 26.9351 5.9463C28.3818 5.91984 29.775 5.92311 31.1682 5.92638C31.1682 5.92638 31.1536 5.92777 31.1553 5.97255C31.1581 9.97834 31.1577 13.9394 31.1643 17.9004C31.1646 18.1077 31.2239 18.3149 31.2558 18.5222C31.2025 20.121 32.4749 21.3427 34.1621 21.2977C34.9462 21.2768 35.7043 21.2113 36.3528 20.7686C37.1368 20.2334 37.515 19.4436 37.5167 18.4897C37.5206 16.1548 37.5179 13.82 37.5192 11.4851C37.5203 9.66101 37.5234 7.83693 37.5783 5.96421C39.0527 5.91316 40.4746 5.91074 41.8964 5.90833Z" fill="black"/>
<path d="M18.9494 44.9303C19.2244 45.9678 19.8693 46.4913 20.9364 46.5098C21.8233 46.5252 22.7107 46.5141 23.6454 46.5674C23.6933 47.9777 23.6935 49.3354 23.6938 50.6931C23.6938 50.6931 23.6936 50.6804 23.6483 50.6879C23.0049 50.6993 22.4065 50.6949 21.8085 50.7094C21.274 50.7224 20.74 50.7562 20.2057 50.7808C19.078 50.6448 17.9872 50.3928 17.0075 49.7813C15.5962 48.9004 14.7905 47.6155 14.496 45.9974C14.428 45.6239 14.4119 45.2409 14.377 44.7628C14.3796 41.7569 14.3794 38.8504 14.3702 35.9439C14.3695 35.7378 14.3017 35.5319 14.2651 35.3259C13.5171 35.3247 12.769 35.3145 12.0212 35.3259C11.619 35.332 11.4039 35.1875 11.4078 34.7577C11.4165 33.7726 11.414 32.7874 11.4098 31.8022C11.4083 31.438 11.5756 31.2672 11.9412 31.2699C12.525 31.2741 13.1094 31.2502 13.6924 31.2706C14.1787 31.2875 14.3876 31.1024 14.3768 30.6002C14.3551 29.5973 14.369 28.5936 14.3723 27.5902C14.3749 26.8129 14.4136 26.7709 15.1656 26.7694C16.3697 26.767 17.5737 26.7716 18.8254 26.8255C18.8716 27.9817 18.8633 29.0857 18.8729 30.1895C18.876 30.5455 18.9258 30.9011 18.9543 31.2569C20.1783 31.2601 21.4022 31.2619 22.6262 31.2674C23.2936 31.2704 23.3614 31.3323 23.3656 31.9754C23.3714 32.8705 23.349 33.7662 23.374 34.6607C23.3881 35.168 23.1727 35.3361 22.6889 35.3293C21.4834 35.3124 20.2775 35.3255 18.9856 35.3586C18.8916 35.4447 18.8771 35.4986 18.877 35.5525C18.873 38.518 18.869 41.4835 18.8709 44.449C18.871 44.6095 18.922 44.7699 18.9494 44.9303Z" fill="black"/>
<path d="M68.0171 35.9802C68.0954 33.8469 69.9297 32.0636 71.6922 31.5116C72.7436 31.1824 73.8582 30.9168 74.9515 30.8876C77.4821 30.8201 79.887 31.2977 81.6065 33.4031C82.5275 34.5309 82.7392 35.9116 82.6837 37.3275C82.6782 37.468 82.3832 37.7089 82.2174 37.7135C81.012 37.7464 79.8048 37.7461 78.5994 37.7121C78.4364 37.7074 78.1692 37.4774 78.1381 37.3156C77.7964 35.5377 77.1099 34.9492 75.2855 35.0496C74.6401 35.085 73.9876 35.2339 73.3677 35.4258C72.7067 35.6305 72.3826 36.1442 72.4041 36.8562C72.4157 37.2397 72.3738 37.628 72.4207 38.0061C72.4464 38.2133 72.6067 38.4039 72.7828 38.6426C74.5328 38.6965 76.2063 38.7098 77.8798 38.7232C79.8163 38.7616 81.4467 39.3703 82.2806 41.2696C82.8066 42.4673 82.7501 43.7643 82.6776 45.0409C82.6713 45.1518 82.4057 45.3461 82.2723 45.3366C80.7812 45.2301 79.4528 44.7165 78.4792 43.5449C78.0701 43.0526 77.6073 42.8868 77.012 42.8901C75.4966 42.8984 73.9809 42.9114 72.4659 42.8856C70.97 42.8601 69.6667 42.3554 68.7487 41.1233C68.2758 40.4886 68.0191 39.7458 68.0203 38.8375C68.0219 37.8196 68.0195 36.8999 68.0171 35.9802Z" fill="black"/>
<path d="M18.2074 6.03303C18.3545 6.20759 18.5723 6.36074 18.6332 6.56147C18.7373 6.90478 18.7432 7.2779 18.7908 7.64201C19.3826 7.26165 19.9693 6.89166 20.5486 6.51057C21.3629 5.97494 22.3029 5.91616 23.2248 5.82614C23.8041 5.76957 24.3937 5.8229 24.9785 5.81545C25.3567 5.81063 25.5596 5.95653 25.5581 6.36083C25.5532 7.64032 25.5557 8.91988 25.5634 10.1994C25.566 10.643 25.3158 10.7448 24.9293 10.752C23.8165 10.7726 22.697 10.7467 21.5931 10.8627C19.9257 11.038 18.9871 12.1423 18.9824 13.8252C18.9727 17.3348 18.9793 20.8445 18.9786 24.3541C18.9784 25.337 18.9775 25.3389 18.0164 25.3412C17.0293 25.3435 16.042 25.3282 15.0553 25.347C14.5775 25.3562 14.364 25.2021 14.365 24.6869C14.3765 18.6913 14.3707 12.6956 14.3788 6.69996C14.3791 6.49388 14.4773 6.28792 14.6145 6.05953C15.8685 6.03578 17.0379 6.0344 18.2074 6.03303Z" fill="black"/>
<path d="M67.6798 46.997C67.6841 48.0883 67.6841 49.13 67.6866 50.1718C67.6873 50.4893 67.6419 50.7732 67.2362 50.7831C65.8015 50.8181 64.403 50.7334 63.0963 50.003C61.5789 49.1549 60.8297 47.838 60.575 46.1854C60.4948 45.6651 60.4543 45.1335 60.4535 44.607C60.4451 38.9413 60.448 33.2755 60.4487 27.6098C60.4488 26.6635 60.4507 26.6616 61.3918 26.659C62.3422 26.6564 63.2926 26.6555 64.2429 26.6586C65.0102 26.6611 65.0535 26.7022 65.0537 27.4652C65.0551 33.1858 65.0543 38.9064 65.0543 44.6269C65.0543 44.7914 65.0525 44.956 65.0551 45.1204C65.0692 45.9861 65.3774 46.3567 66.2277 46.4805C66.533 46.5249 66.8607 46.4561 67.1531 46.5336C67.3502 46.5858 67.5034 46.8037 67.6798 46.997Z" fill="black"/>
<path d="M8.4344 1.40808C8.43943 2.84619 8.44446 4.2843 8.48365 5.80622C9.95527 5.89856 11.3927 5.90708 12.8302 5.9156C12.8319 5.93746 12.8337 5.95932 12.8363 6.06462C12.8374 7.34989 12.8376 8.55172 12.8378 9.75355C12.8364 9.77598 12.835 9.7984 12.7794 9.85248C11.5816 9.88305 10.4379 9.87634 9.29435 9.88489C9.01324 9.887 8.73251 9.93892 8.4516 9.96794C8.4829 11.0874 8.39298 12.1835 7.90078 13.2171C7.18648 14.7171 6.00467 15.6138 4.40217 15.9924C3.99497 16.0886 3.83583 15.9621 3.83804 15.5355C3.84748 13.7137 3.83753 11.8918 3.79832 9.98831C2.80242 9.89871 1.84286 9.89067 0.883308 9.88263C0.883217 8.5935 0.883126 7.30437 0.935427 5.9664C1.5535 5.9181 2.11962 5.93248 2.68471 5.91438C3.07304 5.90194 3.45993 5.8444 3.84746 5.80702C3.84746 5.80702 3.84833 5.82297 3.87327 5.79004C3.91628 4.31039 3.93434 2.86367 3.9524 1.41695C3.9524 1.41695 3.952 1.4289 3.99802 1.42745C5.50749 1.42003 6.97094 1.41405 8.4344 1.40808Z" fill="black"/>
<path d="M82.1669 22.7089C82.1664 23.3852 82.1545 24.0068 82.1695 24.6279C82.1794 25.0393 82.0202 25.2342 81.5943 25.2307C80.4429 25.2213 79.2914 25.2231 78.1401 25.2318C77.7562 25.2347 77.5612 25.0837 77.5631 24.6845C77.5685 23.5148 77.5693 22.3451 77.5623 21.1755C77.5599 20.7758 77.7521 20.6224 78.1358 20.6248C79.2872 20.6321 80.4387 20.6346 81.59 20.6243C82.0182 20.6205 82.178 20.8211 82.1676 21.2286C82.1556 21.7035 82.1661 22.1789 82.1669 22.7089Z" fill="black"/>
<path d="M68.0206 46.1356C68.0207 45.5559 67.9893 45.0228 68.0417 44.4981C68.0592 44.323 68.2871 44.0315 68.4256 44.0275C69.6113 43.9932 70.7987 44.0113 71.9855 44.0201C72.048 44.0206 72.11 44.0789 72.2674 44.1584C71.0775 45.9137 70.6775 47.8217 71.1697 49.8776C70.0265 49.941 68.4025 47.9903 68.0206 46.1356Z" fill="black"/>
<path d="M80.3207 46.5022C80.9974 46.662 81.6324 46.8088 82.3264 46.9693C81.9708 48.1453 81.2642 49.0443 80.1975 49.6504C80.0557 49.731 79.8001 49.6834 79.6241 49.6202C78.3341 49.1569 77.3157 48.3289 76.4988 47.2395C76.2638 46.9261 76.2314 46.7584 76.6982 46.5867C77.1875 46.4066 77.5999 46.0267 78.0678 45.7748C78.2373 45.6836 78.504 45.6292 78.668 45.6976C79.2192 45.9276 79.7441 46.2205 80.3207 46.5022Z" fill="black"/>
<path d="M74.3532 50.906C72.9742 50.73 72.7672 50.6012 72.6098 49.2403C72.5133 48.4054 72.6328 47.541 72.7006 46.6935C72.7328 46.2919 72.9833 46.182 73.3643 46.3857C73.5862 46.5043 73.8475 46.5473 74.0764 46.6554C74.2682 46.7461 74.5216 46.8395 74.6056 47.0042C75.347 48.4575 76.4636 49.5526 77.7952 50.4548C77.8181 50.4703 77.8188 50.5186 77.8475 50.604C76.7223 51.0251 75.5522 50.8803 74.3532 50.906Z" fill="black"/>
<path d="M8.44998 16.0545C8.44929 16.3233 8.41445 16.5487 8.4528 16.761C8.62496 17.7139 8.1693 18.3644 7.4666 18.9127C6.57627 19.6074 5.61935 20.148 4.48171 20.3299C4.04163 20.4003 3.84905 20.2175 3.83835 19.8174C3.8232 19.2511 3.84717 18.6839 3.84199 18.1172C3.83875 17.7627 4.0039 17.5954 4.34921 17.5275C5.4382 17.3132 6.44696 16.895 7.34123 16.2332C7.68336 15.98 7.98545 15.6727 8.40129 15.3058C8.42309 15.6217 8.43631 15.8135 8.44998 16.0545Z" fill="black"/>
<path d="M8.30832 23.3526C8.0454 23.4869 7.82725 23.6294 7.58829 23.7109C6.08371 24.2238 4.93225 23.5768 4.45129 21.9131C4.70312 21.8341 4.9542 21.7423 5.21198 21.6768C6.30452 21.3995 7.3067 20.9284 8.2044 20.2513C8.44516 20.0697 8.5606 20.1389 8.75275 20.3105C9.04283 20.5695 9.35359 20.8252 9.69783 20.9983C10.0457 21.1732 10.1672 21.3707 9.90779 21.6643C9.40326 22.2353 8.86675 22.7781 8.30832 23.3526Z" fill="black"/>
<path d="M10.3205 25.3438C9.69736 25.3042 9.07421 25.2645 8.45106 25.2249C8.44353 25.164 8.436 25.1031 8.42847 25.0422C8.74415 24.8462 9.07003 24.6647 9.37359 24.4515C10.272 23.8204 10.9727 23.0138 11.4066 22.0016C11.6529 21.4268 11.975 21.0838 12.6744 21.1582C13.126 21.2063 13.2806 21.375 13.2761 21.8015C13.2642 22.9512 13.27 24.1011 13.217 25.2971C12.2169 25.3435 11.2687 25.3437 10.3205 25.3438Z" fill="black"/>
<path d="M31.2583 18.4719C31.224 18.3149 31.1646 18.1077 31.1643 17.9004C31.1577 13.9394 31.1581 9.97835 31.1547 5.96527C31.1892 6.07934 31.2583 6.24543 31.2585 6.41162C31.2637 10.415 31.2615 14.4183 31.2583 18.4719Z" fill="black"/>
<path d="M26.8319 6.06146C26.8775 10.1724 26.8794 14.3024 26.8788 18.4834C26.8387 18.4082 26.7682 18.282 26.7681 18.1557C26.7635 14.1846 26.7657 10.2134 26.7678 6.24224C26.7679 6.18834 26.7811 6.13444 26.8319 6.06146Z" fill="black"/>
<path d="M18.9519 44.8821C18.922 44.7699 18.8709 44.6095 18.8708 44.449C18.8689 41.4835 18.873 38.518 18.877 35.5525C18.8771 35.4986 18.8916 35.4447 18.9334 35.3597C18.9631 38.497 18.9588 41.6654 18.9519 44.8821Z" fill="black"/>
<path d="M14.2622 35.3772C14.3017 35.5319 14.3695 35.7378 14.3701 35.9439C14.3794 38.8504 14.3795 41.7569 14.3771 44.7151C14.3343 44.6044 14.2637 44.4422 14.2633 44.2798C14.2569 41.3294 14.259 38.3789 14.2622 35.3772Z" fill="black"/>
<path d="M42.413 37.2037C42.4596 39.6394 42.4625 42.0962 42.461 44.6047C42.4181 44.5848 42.3461 44.5131 42.3462 44.4415C42.3496 42.036 42.3599 39.6304 42.413 37.2037Z" fill="black"/>
<path d="M41.1822 44.5225C41.1362 42.1248 41.1337 39.7059 41.1348 37.2352C41.1758 37.2553 41.2461 37.327 41.246 37.3988C41.2434 39.7663 41.2341 42.1339 41.1822 44.5225Z" fill="black"/>
<path d="M76.7226 6.02324C76.4974 6.00259 76.3123 5.92862 76.1268 5.92751C74.4101 5.9172 72.6934 5.91947 70.9255 5.91691C71.0081 5.88332 71.1417 5.82314 71.2754 5.82269C72.9724 5.81705 74.6694 5.81593 76.3663 5.82865C76.4988 5.82965 76.6305 5.94273 76.7226 6.02324Z" fill="black"/>
<path d="M77.8584 38.6811C76.2063 38.7098 74.5328 38.6965 72.8221 38.6631C74.469 38.6417 76.1529 38.6404 77.8584 38.6811Z" fill="black"/>
<path d="M8.40226 1.37596C6.97097 1.41404 5.50752 1.42001 3.99207 1.42723C4.01673 1.39274 4.09342 1.3258 4.17005 1.32587C5.57007 1.32707 6.97008 1.33632 8.40226 1.37596Z" fill="black"/>
<path d="M18.9616 31.2065C18.9258 30.9011 18.8759 30.5455 18.8729 30.1895C18.8633 29.0857 18.8716 27.9817 18.8776 26.8271C18.9145 26.8911 18.9745 27.0056 18.9747 27.1203C18.978 28.4655 18.9723 29.8108 18.9616 31.2065Z" fill="black"/>
<path d="M41.8655 5.87477C40.4746 5.91076 39.0528 5.91318 37.5803 5.91184C37.7181 5.87818 37.9066 5.82259 38.095 5.82252C39.3415 5.8221 40.5881 5.83359 41.8655 5.87477Z" fill="black"/>
<path d="M12.8054 5.87566C11.3928 5.90709 9.95534 5.89857 8.48474 5.85842C9.8946 5.82977 11.3376 5.83274 12.8054 5.87566Z" fill="black"/>
<path d="M3.91457 1.4458C3.93434 2.86369 3.91628 4.31041 3.8653 5.7905C3.84717 4.37412 3.86195 2.92438 3.91457 1.4458Z" fill="black"/>
<path d="M8.50269 9.97192C8.73259 9.93896 9.01333 9.88703 9.29444 9.88493C10.438 9.87637 11.5817 9.88309 12.7763 9.88606C12.6214 9.9175 12.4158 9.97129 12.2099 9.97262C10.9912 9.98045 9.77242 9.9761 8.50269 9.97192Z" fill="black"/>
<path d="M31.1415 5.88619C29.775 5.92306 28.3818 5.9198 26.9379 5.91305C27.076 5.87915 27.2648 5.82243 27.4535 5.82257C28.674 5.82348 29.8944 5.83679 31.1415 5.88619Z" fill="black"/>
<path d="M23.735 50.668C23.6935 49.3354 23.6933 47.9777 23.6971 46.5689C23.735 46.5741 23.7982 46.6304 23.7981 46.6865C23.795 48.0053 23.785 49.3241 23.735 50.668Z" fill="black"/>
<path d="M47.6852 5.87484C46.4003 5.91299 45.0873 5.91449 43.7238 5.91213C43.9704 5.87832 44.2674 5.82418 44.5648 5.82281C45.5955 5.81804 46.6263 5.8316 47.6852 5.87484Z" fill="black"/>
<path d="M12.8797 9.73155C12.8377 8.55173 12.8375 7.3499 12.8382 6.09747C12.8743 6.12105 12.9402 6.19525 12.9402 6.26939C12.939 7.41611 12.9292 8.56282 12.8797 9.73155Z" fill="black"/>
<path d="M18.1868 5.98973C17.0379 6.03438 15.8685 6.03576 14.6481 6.03476C14.6685 5.99547 14.74 5.92636 14.8114 5.92645C15.9297 5.92785 17.0479 5.93818 18.1868 5.98973Z" fill="black"/>
<path d="M20.2557 50.7848C20.74 50.7562 21.274 50.7224 21.8085 50.7094C22.4065 50.6949 23.0049 50.6993 23.6547 50.6878C23.3187 50.7122 22.9316 50.7628 22.5435 50.7721C21.7979 50.79 21.0517 50.7845 20.2557 50.7848Z" fill="black"/>
<path d="M10.3422 25.386C11.2688 25.3437 12.217 25.3435 13.2158 25.3494C12.7894 25.3873 12.3128 25.4349 11.8353 25.4467C11.3453 25.4588 10.8543 25.4358 10.3422 25.386Z" fill="black"/>
<path d="M0.907471 9.92323C1.84297 9.89068 2.80252 9.89872 3.7973 9.93577C2.86552 9.96446 1.89853 9.96415 0.907471 9.92323Z" fill="black"/>
<path d="M3.79569 5.81073C3.46 5.84441 3.07311 5.90194 2.68478 5.91438C2.1197 5.93249 1.55357 5.91811 0.937134 5.91418C1.4931 5.87997 2.09961 5.84362 2.70663 5.82048C3.05194 5.80731 3.39808 5.81573 3.79569 5.81073Z" fill="black"/>
<path d="M67.9734 36.0009C68.0195 36.8998 68.0219 37.8195 68.0211 38.7911C67.982 38.6443 67.9171 38.4459 67.9154 38.247C67.9089 37.5053 67.9232 36.7635 67.9734 36.0009Z" fill="black"/>
<path d="M47.0226 37.3661C47.0449 39.686 47.0444 42.043 47.0405 44.4485C47.0104 44.4104 46.96 44.3237 46.9603 44.2373C46.9703 41.9592 46.9855 39.6812 47.0226 37.3661Z" fill="black"/>
<path d="M36.5838 44.4426C36.5613 42.1314 36.5535 39.7817 36.5493 37.3829C36.5815 37.5286 36.6344 37.7234 36.635 37.9184C36.6412 39.9726 36.6398 42.0268 36.6376 44.0811C36.6375 44.1887 36.6121 44.2964 36.5838 44.4426Z" fill="black"/>
</svg>
