<svg width="172" height="172" viewBox="0 0 172 172" fill="none" xmlns="http://www.w3.org/2000/svg">
<path d="M96.32 172C64.1656 172 32.0828 172 0 172C0 114.667 0 57.3333 0 0C57.3333 0 114.667 0 172 0C172 57.3333 172 114.667 172 172C146.797 172 121.594 172 96.32 172ZM66.9609 42.6417C66.9609 41.4621 66.9609 40.2826 66.9609 38.9107C67.2424 39.2707 67.404 39.4676 67.5551 39.6722C70.3204 43.4156 73.0822 47.1616 75.8548 50.8996C75.9994 51.0946 76.2288 51.3546 76.4264 51.3614C77.6592 51.4039 78.8942 51.3829 80.1475 51.3829C80.1475 44.5303 80.1475 37.7623 80.1475 31.0052C78.6758 31.0052 77.2533 31.0052 75.7621 31.0052C75.7621 35.1152 75.7621 39.1801 75.7621 43.3989C75.5029 43.0674 75.3397 42.8695 75.1879 42.6631C72.4727 38.9719 69.761 35.2782 67.0398 31.5915C66.8655 31.3553 66.6278 31.0015 66.4065 30.9916C65.1284 30.9341 63.8463 30.9635 62.5462 30.9635C62.5462 37.7989 62.5462 44.5493 62.5462 51.3429C64.0203 51.3429 65.4647 51.3429 66.9609 51.3429C66.9609 48.4653 66.9609 45.6251 66.9609 42.6417ZM129.023 138.532C129.023 140.366 129.023 142.201 129.023 144.025C129.143 144.067 129.209 144.111 129.275 144.111C132.115 144.089 134.961 144.155 137.795 144.007C139.932 143.896 141.888 143.109 143.49 141.619C145.374 139.866 146.198 137.634 146.372 135.116C146.544 132.617 146.306 130.193 144.954 128.012C143.064 124.962 140.148 123.794 136.711 123.706C134.611 123.652 132.508 123.696 130.406 123.696C129.961 123.696 129.515 123.696 129.023 123.696C129.023 128.653 129.023 133.521 129.023 138.532ZM75.6553 135.928C77.5747 134.116 78.0217 131.829 77.6028 129.359C77.0377 126.028 74.1342 123.73 70.5914 123.7C68.0849 123.679 65.5782 123.695 63.0715 123.699C62.8925 123.699 62.7135 123.735 62.5565 123.752C62.5565 130.56 62.5565 137.306 62.5565 144.072C64.0373 144.072 65.4775 144.072 66.9869 144.072C66.9869 142.004 66.9869 139.986 66.9869 137.911C67.7913 137.911 68.5293 137.948 69.2613 137.898C69.7559 137.864 69.9772 138.082 70.1824 138.483C71.0717 140.221 71.9812 141.949 72.9013 143.671C72.9987 143.854 73.2109 144.098 73.3746 144.102C74.867 144.135 76.3604 144.122 77.9643 144.122C76.6782 141.655 75.4552 139.309 74.252 137.001C74.7465 136.628 75.1646 136.313 75.6553 135.928ZM38.217 77.5121C37.9588 77.4701 37.7009 77.3938 37.4423 77.3913C34.6503 77.3643 31.8583 77.3484 29.0662 77.3327C28.9773 77.3322 28.8882 77.3659 28.7815 77.3871C28.7815 84.1831 28.7815 90.9498 28.7815 97.7118C30.2484 97.7118 31.6709 97.7118 33.1573 97.7118C33.1573 95.653 33.1573 93.6351 33.1573 91.5667C33.8152 91.5667 34.415 91.6214 35.0006 91.5533C35.7941 91.4611 36.2194 91.7429 36.5722 92.481C37.4238 94.2627 38.3873 95.991 39.2983 97.7268C40.9005 97.7268 42.4685 97.7268 44.1372 97.7268C42.8787 95.316 41.6523 92.9666 40.4185 90.603C43.3764 88.8427 44.3368 86.1899 43.7905 82.995C43.2714 79.9587 41.2624 78.2472 38.217 77.5121ZM112.077 90.7693C109.823 94.733 104.906 94.3537 102.772 92.3297C100.578 90.2492 100.223 86.0866 102.122 83.5125C103.097 82.1924 104.428 81.4514 106.046 81.2857C108.545 81.0296 110.52 81.9375 111.923 84.0518C112.04 84.2272 112.342 84.4624 112.471 84.4178C113.723 83.9832 114.957 83.4949 116.211 83.0162C116.156 82.8568 116.133 82.7681 116.096 82.6859C116.017 82.5128 115.935 82.3407 115.847 82.1723C114.267 79.1589 111.815 77.4376 108.405 77.0775C105.126 76.7311 102.115 77.3185 99.631 79.618C97.5114 81.5804 96.5027 84.0933 96.4103 86.9501C96.2713 91.2429 97.6369 94.8659 101.629 96.9268C104.948 98.6396 108.454 98.5836 111.844 97.0241C113.969 96.0462 115.306 94.2555 116.23 92.0866C114.922 91.5828 113.66 91.094 112.393 90.6161C112.325 90.5903 112.222 90.6568 112.077 90.7693ZM79.5268 87.2183C79.5268 83.9511 79.5268 80.684 79.5268 77.3721C78.0284 77.3721 76.5839 77.3721 75.0825 77.3721C75.0825 77.6619 75.0825 77.9212 75.0825 78.1805C75.0825 81.7861 75.0861 85.3918 75.0781 88.9975C75.077 89.4727 75.0405 89.951 74.9788 90.4225C74.7008 92.5485 73.4583 93.7207 71.4112 93.8096C69.2649 93.9029 67.8448 92.8181 67.4212 90.7211C67.3228 90.2343 67.3026 89.7253 67.3013 89.2264C67.2918 85.5253 67.2962 81.8241 67.2962 78.1229C67.2962 77.8719 67.2962 77.6209 67.2962 77.3866C65.7664 77.3866 64.3509 77.3866 62.8991 77.3866C62.8991 77.6828 62.8991 77.9198 62.8991 78.1568C62.8991 81.9296 62.8895 85.7025 62.9072 89.4753C62.9108 90.2355 62.9695 91.0027 63.0858 91.7539C63.5877 94.9947 65.519 97.1946 68.6266 97.8148C69.9619 98.0813 71.3839 98.1086 72.7473 98.0008C76.084 97.7371 78.4153 95.7579 79.1094 92.4768C79.4606 90.8166 79.4008 89.0695 79.5268 87.2183ZM32.5607 30.9597C31.2601 30.9597 29.9594 30.9597 28.6577 30.9597C28.6577 35.1762 28.6512 39.2823 28.6646 43.3884C28.6667 44.0061 28.7329 44.6276 28.8188 45.2403C29.2959 48.641 31.3245 50.8427 34.6578 51.5317C36.2394 51.8586 37.8348 51.8328 39.4205 51.497C42.2275 50.9025 44.0429 49.2101 44.8089 46.4679C45.088 45.469 45.2367 44.4035 45.2501 43.3658C45.3004 39.4747 45.2702 35.5825 45.2702 31.6907C45.2702 31.4613 45.2702 31.2319 45.2702 30.9911C43.7564 30.9911 42.3338 30.9911 40.8497 30.9911C40.8497 31.2539 40.8497 31.4862 40.8497 31.7186C40.8497 35.3239 40.8566 38.9292 40.843 42.5344C40.8407 43.1517 40.7964 43.7766 40.6926 44.3845C40.3776 46.2284 39.0649 47.3805 37.2661 47.4424C35.1012 47.5169 33.7253 46.5894 33.2657 44.6566C33.1022 43.9689 33.0532 43.2408 33.0492 42.5306C33.0285 38.9016 33.044 35.2724 33.0299 31.6433C33.0289 31.3951 33.2487 30.9655 32.5607 30.9597ZM40.0129 133.945C40.0031 134.781 40.0267 135.618 39.9768 136.451C39.8657 138.306 38.8506 139.654 37.3232 140.041C34.5146 140.753 32.3092 139.133 32.2639 136.22C32.203 132.305 32.2349 128.388 32.2271 124.471C32.2266 124.222 32.2271 123.972 32.2271 123.738C30.6923 123.738 29.2696 123.738 27.8062 123.738C27.8062 127.525 27.7974 131.27 27.8127 135.016C27.8163 135.897 27.8615 136.782 27.9562 137.658C28.3185 141.01 30.2162 143.328 33.2501 144.131C34.9617 144.584 36.7014 144.607 38.432 144.272C40.8331 143.807 42.6982 142.553 43.5999 140.228C44.0407 139.091 44.3674 137.836 44.3956 136.626C44.4948 132.378 44.4422 128.126 44.4445 123.875C44.4445 123.835 44.4074 123.795 44.3803 123.741C42.9458 123.741 41.5046 123.741 40.0761 123.741C40.048 123.828 40.0218 123.871 40.0217 123.915C40.0175 127.21 40.0153 130.506 40.0129 133.945ZM113.012 33.6841C110.176 29.9557 105.193 30.0176 102.434 31.2427C100.129 32.2662 98.8606 34.0589 98.7898 36.5964C98.719 39.1373 99.8318 41.0208 102.178 42.0638C103.173 42.5063 104.238 42.794 105.272 43.1468C106.172 43.4535 107.106 43.681 107.966 44.0743C108.965 44.5317 109.269 45.2054 109.107 46.1394C108.959 46.9852 108.312 47.5817 107.31 47.7273C105.26 48.0254 103.548 47.3861 102.198 45.8086C101.953 45.5231 101.737 45.2134 101.482 44.8802C100.336 45.5952 99.2127 46.2968 98.0977 46.993C100.662 52.8053 108.316 52.8125 111.525 50.2731C114.547 47.8818 114.653 42.1133 110.489 40.285C109.296 39.7612 108.028 39.4084 106.792 38.9828C105.939 38.6888 105.059 38.4574 104.234 38.0995C103.551 37.8032 103.177 37.2017 103.237 36.4276C103.299 35.6196 103.788 35.0749 104.544 34.9121C105.23 34.7645 105.963 34.7059 106.66 34.7729C107.992 34.901 109.098 35.5395 109.952 36.6287C111.134 35.8078 112.262 35.0242 113.394 34.238C113.261 34.0403 113.168 33.9016 113.012 33.6841ZM108.145 135.953C109.069 135.953 109.994 135.953 110.923 135.953C110.923 134.513 110.923 133.162 110.923 131.723C108.609 131.723 106.333 131.723 104.081 131.723C104.081 130.402 104.081 129.169 104.081 127.852C106.948 127.852 109.773 127.852 112.584 127.852C112.584 126.418 112.584 125.07 112.584 123.736C108.242 123.736 103.952 123.736 99.6654 123.736C99.6654 130.542 99.6654 137.309 99.6654 144.078C104.005 144.078 108.295 144.078 112.595 144.078C112.595 142.682 112.595 141.333 112.595 139.902C109.727 139.902 106.9 139.902 104.086 139.902C104.086 138.541 104.086 137.263 104.086 135.953C105.423 135.953 106.712 135.953 108.145 135.953ZM134.375 77.3273C132.737 77.3273 131.1 77.3273 129.482 77.3273C129.482 78.797 129.482 80.168 129.482 81.5948C131.505 81.5948 133.476 81.5948 135.513 81.5948C135.513 87.0103 135.513 92.3686 135.513 97.7203C137.006 97.7203 138.431 97.7203 139.925 97.7203C139.925 92.3304 139.925 86.9731 139.925 81.5449C142.009 81.5449 144.025 81.5449 146.055 81.5449C146.055 80.1186 146.055 78.7641 146.055 77.3273C142.193 77.3273 138.356 77.3273 134.375 77.3273ZM139.344 46.9417C139.344 43.0572 139.344 39.1726 139.344 35.2064C141.446 35.2064 143.461 35.2064 145.464 35.2064C145.464 33.7502 145.464 32.3767 145.464 30.9969C139.915 30.9969 134.411 30.9969 128.912 30.9969C128.912 32.4259 128.912 33.817 128.912 35.2752C130.936 35.2752 132.905 35.2752 134.916 35.2752C134.916 40.663 134.916 45.9821 134.916 51.3437C136.405 51.3437 137.849 51.3437 139.344 51.3437C139.344 49.8984 139.344 48.4917 139.344 46.9417Z" fill="#0ADAF5"/>
<path d="M66.9609 42.7133C66.9609 45.6251 66.9609 48.4653 66.9609 51.3429C65.4647 51.3429 64.0203 51.3429 62.5462 51.3429C62.5462 44.5493 62.5462 37.7989 62.5462 30.9635C63.8463 30.9635 65.1284 30.9341 66.4065 30.9916C66.6278 31.0015 66.8655 31.3553 67.0398 31.5915C69.761 35.2782 72.4727 38.9719 75.1879 42.6631C75.3397 42.8695 75.5029 43.0674 75.7621 43.3989C75.7621 39.1801 75.7621 35.1152 75.7621 31.0052C77.2533 31.0052 78.6758 31.0052 80.1475 31.0052C80.1475 37.7623 80.1475 44.5303 80.1475 51.3829C78.8942 51.3829 77.6592 51.4039 76.4264 51.3614C76.2288 51.3546 75.9994 51.0946 75.8548 50.8996C73.0822 47.1616 70.3204 43.4156 67.5551 39.6722C67.404 39.4676 67.2424 39.2707 66.9609 38.9107C66.9609 40.2826 66.9609 41.4621 66.9609 42.7133Z" fill="black"/>
<path d="M129.023 138.46C129.023 133.521 129.023 128.653 129.023 123.696C129.515 123.696 129.961 123.696 130.406 123.696C132.508 123.696 134.611 123.652 136.711 123.706C140.148 123.794 143.064 124.962 144.954 128.012C146.306 130.193 146.544 132.617 146.372 135.116C146.198 137.634 145.374 139.866 143.49 141.619C141.888 143.109 139.932 143.896 137.795 144.007C134.961 144.155 132.115 144.089 129.275 144.111C129.209 144.111 129.143 144.067 129.023 144.025C129.023 142.201 129.023 140.366 129.023 138.46ZM133.98 139.869C134.648 139.869 135.316 139.88 135.983 139.867C139.091 139.81 141.078 138.433 141.685 135.879C142.014 134.49 142.003 133.09 141.617 131.707C141.179 130.135 140.201 129.032 138.682 128.433C136.996 127.769 135.238 127.937 133.444 127.946C133.444 128.185 133.444 128.348 133.444 128.512C133.444 132.161 133.439 135.809 133.461 139.458C133.462 139.596 133.711 139.732 133.98 139.869Z" fill="black"/>
<path d="M75.619 135.963C75.1646 136.313 74.7465 136.628 74.252 137.001C75.4552 139.309 76.6782 141.655 77.9643 144.122C76.3604 144.122 74.867 144.135 73.3746 144.102C73.2109 144.098 72.9987 143.854 72.9013 143.671C71.9812 141.949 71.0717 140.221 70.1824 138.483C69.9772 138.082 69.7559 137.864 69.2613 137.898C68.5293 137.948 67.7913 137.911 66.9869 137.911C66.9869 139.986 66.9869 142.004 66.9869 144.072C65.4775 144.072 64.0373 144.072 62.5565 144.072C62.5565 137.306 62.5565 130.56 62.5565 123.752C62.7135 123.735 62.8925 123.699 63.0715 123.699C65.5782 123.695 68.0849 123.679 70.5914 123.7C74.1342 123.73 77.0377 126.028 77.6028 129.359C78.0217 131.829 77.5747 134.116 75.619 135.963ZM68.8586 127.925C68.2452 127.925 67.6318 127.925 67.0131 127.925C67.0131 129.876 67.0131 131.739 67.0131 133.584C68.2765 133.584 69.4946 133.671 70.6951 133.562C72.2992 133.418 73.2501 132.27 73.2195 130.729C73.1898 129.234 72.2118 128.19 70.635 128.008C70.0927 127.946 69.5425 127.95 68.8586 127.925Z" fill="black"/>
<path d="M38.2764 77.5219C41.2624 78.2472 43.2714 79.9587 43.7905 82.995C44.3368 86.1899 43.3764 88.8427 40.4185 90.603C41.6523 92.9666 42.8787 95.316 44.1372 97.7268C42.4685 97.7268 40.9005 97.7268 39.2983 97.7268C38.3873 95.991 37.4238 94.2627 36.5722 92.481C36.2194 91.7429 35.7941 91.4611 35.0006 91.5533C34.415 91.6214 33.8152 91.5667 33.1573 91.5667C33.1573 93.6351 33.1573 95.653 33.1573 97.7118C31.6709 97.7118 30.2484 97.7118 28.7815 97.7118C28.7815 90.9498 28.7815 84.1831 28.7815 77.3871C28.8882 77.3659 28.9773 77.3322 29.0662 77.3327C31.8583 77.3484 34.6503 77.3643 37.4423 77.3913C37.7009 77.3938 37.9588 77.4701 38.2764 77.5219ZM33.133 85.2107C33.133 85.8917 33.133 86.5728 33.133 87.2765C34.2973 87.2765 35.3664 87.2845 36.4352 87.2707C36.6934 87.2673 36.9539 87.2054 37.208 87.1468C38.5872 86.8288 39.3652 85.8958 39.3936 84.538C39.4239 83.0844 38.743 82.0157 37.3396 81.7738C35.9789 81.5392 34.5726 81.5691 33.133 81.4794C33.133 82.7895 33.133 83.9285 33.133 85.2107Z" fill="black"/>
<path d="M112.106 90.7248C112.222 90.6568 112.325 90.5903 112.393 90.6161C113.66 91.094 114.922 91.5828 116.23 92.0866C115.306 94.2555 113.969 96.0462 111.844 97.0241C108.454 98.5836 104.948 98.6396 101.629 96.9268C97.6369 94.8659 96.2713 91.2429 96.4103 86.9501C96.5027 84.0933 97.5114 81.5804 99.631 79.618C102.115 77.3185 105.126 76.7311 108.405 77.0775C111.815 77.4376 114.267 79.1589 115.847 82.1723C115.935 82.3407 116.017 82.5128 116.096 82.6859C116.133 82.7681 116.156 82.8568 116.211 83.0162C114.957 83.4949 113.723 83.9832 112.471 84.4178C112.342 84.4624 112.04 84.2272 111.923 84.0518C110.52 81.9375 108.545 81.0296 106.046 81.2857C104.428 81.4514 103.097 82.1924 102.122 83.5125C100.223 86.0866 100.578 90.2492 102.772 92.3297C104.906 94.3537 109.823 94.733 112.106 90.7248Z" fill="black"/>
<path d="M79.5268 87.29C79.4008 89.0695 79.4606 90.8166 79.1094 92.4768C78.4153 95.7579 76.084 97.7371 72.7473 98.0008C71.3839 98.1086 69.9619 98.0813 68.6266 97.8148C65.519 97.1946 63.5877 94.9947 63.0858 91.7539C62.9695 91.0027 62.9108 90.2355 62.9072 89.4753C62.8895 85.7025 62.8991 81.9296 62.8991 78.1568C62.8991 77.9198 62.8991 77.6828 62.8991 77.3866C64.3509 77.3866 65.7664 77.3866 67.2962 77.3866C67.2962 77.6209 67.2962 77.8719 67.2962 78.1229C67.2962 81.8241 67.2918 85.5253 67.3013 89.2264C67.3026 89.7253 67.3228 90.2343 67.4212 90.7211C67.8448 92.8181 69.2649 93.9029 71.4112 93.8096C73.4583 93.7207 74.7008 92.5485 74.9788 90.4225C75.0405 89.951 75.077 89.4727 75.0781 88.9975C75.0861 85.3918 75.0825 81.7861 75.0825 78.1805C75.0825 77.9212 75.0825 77.6619 75.0825 77.3721C76.5839 77.3721 78.0284 77.3721 79.5268 77.3721C79.5268 80.684 79.5268 83.9511 79.5268 87.29Z" fill="black"/>
<path d="M32.6273 30.9599C33.2487 30.9655 33.0289 31.3951 33.0299 31.6433C33.044 35.2724 33.0285 38.9016 33.0492 42.5306C33.0532 43.2408 33.1022 43.9689 33.2657 44.6566C33.7253 46.5894 35.1012 47.5169 37.2661 47.4424C39.0649 47.3805 40.3776 46.2284 40.6926 44.3845C40.7964 43.7766 40.8407 43.1517 40.843 42.5344C40.8566 38.9292 40.8497 35.3239 40.8497 31.7186C40.8497 31.4862 40.8497 31.2539 40.8497 30.9911C42.3338 30.9911 43.7564 30.9911 45.2702 30.9911C45.2702 31.2319 45.2702 31.4613 45.2702 31.6907C45.2702 35.5825 45.3004 39.4747 45.2501 43.3658C45.2367 44.4035 45.088 45.469 44.8089 46.4679C44.0429 49.2101 42.2275 50.9025 39.4205 51.497C37.8348 51.8328 36.2394 51.8586 34.6578 51.5317C31.3245 50.8427 29.2959 48.641 28.8188 45.2403C28.7329 44.6276 28.6667 44.0061 28.6646 43.3884C28.6512 39.2823 28.6577 35.1762 28.6577 30.9597C29.9594 30.9597 31.2601 30.9597 32.6273 30.9599Z" fill="black"/>
<path d="M40.0129 133.873C40.0153 130.506 40.0175 127.21 40.0217 123.915C40.0218 123.871 40.048 123.828 40.0761 123.741C41.5046 123.741 42.9458 123.741 44.3803 123.741C44.4074 123.795 44.4445 123.835 44.4445 123.875C44.4422 128.126 44.4948 132.378 44.3956 136.626C44.3674 137.836 44.0407 139.091 43.5999 140.228C42.6982 142.553 40.8331 143.807 38.432 144.272C36.7014 144.607 34.9617 144.584 33.2501 144.131C30.2162 143.328 28.3185 141.01 27.9562 137.658C27.8615 136.782 27.8163 135.897 27.8127 135.016C27.7974 131.27 27.8062 127.525 27.8062 123.738C29.2696 123.738 30.6923 123.738 32.2271 123.738C32.2271 123.972 32.2266 124.222 32.2271 124.471C32.2349 128.388 32.203 132.305 32.2639 136.22C32.3092 139.133 34.5146 140.753 37.3232 140.041C38.8506 139.654 39.8657 138.306 39.9768 136.451C40.0267 135.618 40.0031 134.781 40.0129 133.873Z" fill="black"/>
<path d="M113.044 33.7235C113.168 33.9016 113.261 34.0403 113.394 34.238C112.262 35.0242 111.134 35.8078 109.952 36.6287C109.098 35.5395 107.992 34.901 106.66 34.7729C105.963 34.7059 105.23 34.7645 104.544 34.9121C103.788 35.0749 103.299 35.6196 103.237 36.4276C103.177 37.2017 103.551 37.8032 104.234 38.0995C105.059 38.4574 105.939 38.6888 106.792 38.9828C108.028 39.4084 109.296 39.7612 110.489 40.285C114.653 42.1133 114.547 47.8818 111.525 50.2731C108.316 52.8125 100.662 52.8053 98.0977 46.993C99.2127 46.2968 100.336 45.5952 101.482 44.8802C101.737 45.2134 101.953 45.5231 102.198 45.8086C103.548 47.3861 105.26 48.0254 107.31 47.7273C108.312 47.5817 108.959 46.9852 109.107 46.1394C109.269 45.2054 108.965 44.5317 107.966 44.0743C107.106 43.681 106.172 43.4535 105.272 43.1468C104.238 42.794 103.173 42.5063 102.178 42.0638C99.8318 41.0208 98.719 39.1373 98.7898 36.5964C98.8606 34.0589 100.129 32.2662 102.434 31.2427C105.193 30.0176 110.176 29.9557 113.044 33.7235Z" fill="black"/>
<path d="M108.073 135.953C106.712 135.953 105.423 135.953 104.086 135.953C104.086 137.263 104.086 138.541 104.086 139.902C106.9 139.902 109.727 139.902 112.595 139.902C112.595 141.333 112.595 142.682 112.595 144.078C108.295 144.078 104.005 144.078 99.6654 144.078C99.6654 137.309 99.6654 130.542 99.6654 123.736C103.952 123.736 108.242 123.736 112.584 123.736C112.584 125.07 112.584 126.418 112.584 127.852C109.773 127.852 106.948 127.852 104.081 127.852C104.081 129.169 104.081 130.402 104.081 131.723C106.333 131.723 108.609 131.723 110.923 131.723C110.923 133.162 110.923 134.513 110.923 135.953C109.994 135.953 109.069 135.953 108.073 135.953Z" fill="black"/>
<path d="M134.447 77.3273C138.356 77.3273 142.193 77.3273 146.055 77.3273C146.055 78.7641 146.055 80.1186 146.055 81.5449C144.025 81.5449 142.009 81.5449 139.925 81.5449C139.925 86.9731 139.925 92.3304 139.925 97.7203C138.431 97.7203 137.006 97.7203 135.513 97.7203C135.513 92.3686 135.513 87.0103 135.513 81.5948C133.476 81.5948 131.505 81.5948 129.482 81.5948C129.482 80.168 129.482 78.797 129.482 77.3273C131.1 77.3273 132.737 77.3273 134.447 77.3273Z" fill="black"/>
<path d="M139.344 47.0133C139.344 48.4917 139.344 49.8984 139.344 51.3437C137.849 51.3437 136.405 51.3437 134.916 51.3437C134.916 45.9821 134.916 40.663 134.916 35.2752C132.905 35.2752 130.936 35.2752 128.912 35.2752C128.912 33.817 128.912 32.4259 128.912 30.9969C134.411 30.9969 139.915 30.9969 145.464 30.9969C145.464 32.3767 145.464 33.7502 145.464 35.2064C143.461 35.2064 141.446 35.2064 139.344 35.2064C139.344 39.1726 139.344 43.0572 139.344 47.0133Z" fill="black"/>
<path d="M133.912 139.869C133.711 139.732 133.462 139.596 133.461 139.458C133.439 135.809 133.444 132.161 133.444 128.512C133.444 128.348 133.444 128.185 133.444 127.946C135.238 127.937 136.996 127.769 138.682 128.433C140.201 129.032 141.179 130.135 141.617 131.707C142.003 133.09 142.014 134.49 141.685 135.879C141.078 138.433 139.091 139.81 135.983 139.867C135.316 139.88 134.648 139.869 133.912 139.869Z" fill="#0ADAF5"/>
<path d="M68.9273 127.925C69.5425 127.95 70.0927 127.946 70.635 128.008C72.2118 128.19 73.1898 129.234 73.2195 130.729C73.2501 132.27 72.2992 133.418 70.6951 133.562C69.4946 133.671 68.2765 133.584 67.0131 133.584C67.0131 131.739 67.0131 129.876 67.0131 127.925C67.6318 127.925 68.2452 127.925 68.9273 127.925Z" fill="#0ADAF5"/>
<path d="M33.133 85.1392C33.133 83.9285 33.133 82.7895 33.133 81.4794C34.5726 81.5691 35.9789 81.5392 37.3396 81.7738C38.743 82.0157 39.4239 83.0844 39.3936 84.538C39.3652 85.8958 38.5872 86.8288 37.208 87.1468C36.9539 87.2054 36.6934 87.2673 36.4352 87.2707C35.3664 87.2845 34.2973 87.2765 33.133 87.2765C33.133 86.5728 33.133 85.8917 33.133 85.1392Z" fill="#0ADAF5"/>
</svg>
