<svg width="241" height="39" viewBox="0 0 241 39" fill="none" xmlns="http://www.w3.org/2000/svg">
<g clip-path="url(#clip0_926_4232)">
<path d="M173.386 6.71061C165.799 6.71061 159.698 12.3968 159.698 19.4649C159.698 26.5798 165.774 32.2894 173.336 32.266C180.799 32.266 186.948 26.5564 186.973 19.5585C186.999 12.4904 180.898 6.71061 173.386 6.71061ZM115.941 0.47451V32.3245H135.761V38.5268H109.69L109.714 0.47581L115.941 0.47451ZM173.343 0.46151C184.676 0.46151 193.656 8.88421 193.656 19.4584C193.656 30.0794 184.602 38.5242 173.269 38.5242C162.107 38.5008 153.03 30.0092 153.005 19.552C152.98 8.93101 162.008 0.46281 173.343 0.46281V0.46151ZM227.164 0.43811C234.157 0.43811 239.412 4.60461 240.751 11.1111C240.801 11.297 240.777 14.7836 240.751 14.9721C239.934 19.3245 237.429 22.5069 233.263 24.4959L233.083 24.5947C232.88 24.7117 232.644 24.8703 232.644 24.8703L240.454 37.7663L241 38.5606L236.962 38.5216C235.952 38.519 234.942 38.5216 234.182 38.5372C233.463 38.5372 233.065 38.3032 232.719 37.7416L229.762 32.942C228.774 31.3445 227.802 29.7381 226.844 28.1229C226.445 27.4443 226.247 26.6019 226.197 25.8297C226.118 24.557 226.182 23.2687 226.171 21.9895L226.148 21.0327C226.097 20.1669 226.519 19.8627 227.289 19.6989L228.377 19.4909C228.739 19.4181 229.099 19.3349 229.445 19.2309C232.644 18.2481 234.652 15.275 234.157 12.2564C233.636 9.00381 230.883 6.73401 227.413 6.71061L218.481 6.71971C215.983 6.73141 213.99 6.74571 213.775 6.75741V38.4202H207.179V0.43811H227.164ZM8.4845 15.6143L0 0.0351104C2.35529 0.0351104 4.46306 0.0819104 6.57083 0.0117104L6.77405 0.00781038C7.55568 0.0143104 7.96603 0.32891 8.35553 1.04131C12.3223 8.39021 16.3398 15.7144 20.356 23.0633C20.455 23.2414 20.558 23.4143 20.6687 23.5963L21.2236 24.5141C21.5715 23.8823 21.8685 23.4143 22.116 22.9463L30.0885 8.34341L34.0917 1.04001C34.3392 0.61881 34.8356 0.0806104 35.2329 0.0572104C36.5715 0.00938384 37.911 -0.00968724 39.2504 1.03817e-05L42.446 0.0117104C39.6022 5.24421 36.7753 10.4403 33.9523 15.626L21.2249 39C16.9547 31.1506 12.7209 23.387 8.4845 15.6143ZM72.0017 1.03817e-05L84.7304 23.374L93.2266 38.9883L90.0298 39C88.6899 39.0093 87.35 38.9898 86.0109 38.9415C85.6136 38.9181 85.1186 38.3799 84.8698 37.9587L80.8679 30.6566L72.8953 16.0537C72.6478 15.5857 72.3482 15.1177 72.0017 14.4859L71.4467 15.4024C71.3373 15.5844 71.2331 15.7586 71.1341 15.9367C67.1178 23.2856 63.1016 30.6098 59.1336 37.9587C58.7454 38.6711 58.335 38.9857 57.5521 38.9922L57.3489 38.9883C55.2411 38.9181 53.1333 38.9649 50.778 38.9649L59.2626 23.3857C63.4989 15.6143 67.7314 7.84941 72.0017 1.03817e-05Z" fill="url(#paint0_linear_926_4232)"/>
</g>
<defs>
<linearGradient id="paint0_linear_926_4232" x1="241" y1="8.12111e-06" x2="0.0256984" y2="39.1582" gradientUnits="userSpaceOnUse">
<stop stop-color="#314771"/>
<stop offset="1" stop-color="#1D283E"/>
</linearGradient>
<clipPath id="clip0_926_4232">
<rect width="241" height="39" fill="white"/>
</clipPath>
</defs>
</svg>
