<svg width="241" height="119" viewBox="0 0 241 119" fill="none" xmlns="http://www.w3.org/2000/svg">
<path d="M159.902 55.5299H165.733V57.8624C166.857 56.6875 167.815 55.8928 168.61 55.4781C169.457 55.0462 170.519 54.8302 171.798 54.8302C174.649 54.8302 176.903 56.0742 178.562 58.5621C180.393 56.0742 182.873 54.8302 186 54.8302C191.684 54.8302 194.526 58.277 194.526 65.1707V80.7723H188.669V66.7516C188.669 64.3328 188.376 62.6223 187.788 61.6202C187.183 60.6009 186.19 60.0912 184.808 60.0912C183.201 60.0912 182.026 60.6959 181.283 61.9053C180.558 63.1147 180.195 65.0584 180.195 67.7364V80.7723H174.338V66.8294C174.338 62.3372 173.042 60.0912 170.45 60.0912C168.809 60.0912 167.608 60.7045 166.848 61.9312C166.105 63.1579 165.733 65.093 165.733 67.7364V80.7723H159.902V55.5299Z" fill="#100C4A"></path>
<path d="M136.81 55.5298V70.0169C136.81 74.198 138.46 76.2886 141.76 76.2886C145.06 76.2886 146.71 74.198 146.71 70.0169V55.5298H152.541V70.1465C152.541 72.1679 152.29 73.913 151.789 75.3815C151.305 76.6946 150.467 77.8781 149.275 78.9321C147.306 80.6425 144.8 81.4978 141.76 81.4978C138.736 81.4978 136.239 80.6425 134.27 78.9321C133.06 77.8781 132.205 76.6946 131.704 75.3815C131.22 74.2067 130.979 72.4617 130.979 70.1465V55.5298H136.81Z" fill="#100C4A"></path>
<path d="M123.593 36.9999V80.7723H117.762V36.9999H123.593Z" fill="#100C4A"></path>
<path d="M110.376 36.9999V80.7723H104.545V36.9999H110.376Z" fill="#100C4A"></path>
<path d="M98.1426 69.5246H80.0532C80.2087 71.5979 80.8825 73.2479 82.0746 74.4746C83.2668 75.6841 84.7958 76.2888 86.6618 76.2888C88.1131 76.2888 89.3139 75.9432 90.2641 75.2521C91.1971 74.561 92.2597 73.2825 93.4518 71.4165L98.3759 74.1636C97.6157 75.4594 96.8123 76.5738 95.9657 77.5068C95.1191 78.4225 94.212 79.1827 93.2445 79.7874C92.277 80.3749 91.2317 80.8068 90.1086 81.0832C88.9856 81.3597 87.7676 81.4979 86.4545 81.4979C82.688 81.4979 79.6644 80.2885 77.3838 77.8696C75.1032 75.4335 73.9629 72.2027 73.9629 68.177C73.9629 64.1859 75.0686 60.955 77.2802 58.4844C79.5089 56.0483 82.4634 54.8302 86.1435 54.8302C89.8581 54.8302 92.7953 56.0137 94.955 58.3807C97.0974 60.7304 98.1686 63.9872 98.1686 68.1511L98.1426 69.5246ZM92.156 64.7561C91.344 61.6461 89.383 60.0912 86.2731 60.0912C85.5647 60.0912 84.8995 60.2035 84.2775 60.4281C83.6555 60.6354 83.0854 60.9464 82.567 61.3611C82.066 61.7584 81.6341 62.2422 81.2712 62.8124C80.9084 63.3825 80.632 64.0304 80.4419 64.7561H92.156Z" fill="#100C4A"></path>
<path d="M52.5309 55.5298L59.0617 69.7059L65.5667 55.5298H72.1235L59.0099 82.5085L46 55.5298H52.5309Z" fill="#100C4A"></path>
</svg>
