<svg width="389" height="122" viewBox="0 0 389 122" fill="none" xmlns="http://www.w3.org/2000/svg">
<path d="M17.6584 52.1536L34.5782 88.8417L51.4308 52.1536H68.4179L34.4439 121.975L0.738586 52.1536H17.6584ZM135.828 88.3723H88.9634C89.366 93.738 91.112 98.0085 94.2004 101.183C97.2889 104.313 101.25 105.878 106.084 105.878C109.845 105.878 112.955 104.984 115.417 103.195C117.834 101.406 120.587 98.0979 123.676 93.2685L136.433 100.378C134.463 103.732 132.382 106.616 130.188 109.03C127.995 111.4 125.645 113.368 123.138 114.933C120.632 116.453 117.924 117.571 115.014 118.286C112.105 119.002 108.949 119.359 105.547 119.359C95.7895 119.359 87.9561 116.229 82.0478 109.969C76.1391 103.665 73.185 95.3032 73.185 84.8844C73.185 74.5555 76.0495 66.194 81.7791 59.7999C87.5531 53.4952 95.2073 50.3426 104.741 50.3426C114.366 50.3426 121.975 53.4057 127.57 59.5315C133.12 65.6125 135.895 74.0413 135.895 84.8175L135.828 88.3723ZM120.319 76.0313C118.215 67.9824 113.134 63.9583 105.078 63.9583C103.242 63.9583 101.519 64.2488 99.9074 64.8303C98.2958 65.3667 96.819 66.1714 95.476 67.2446C94.1778 68.273 93.0588 69.5251 92.1188 71.0008C91.1789 72.4761 90.4629 74.1529 89.9703 76.0313H120.319ZM167.52 4.19727V117.481H152.412V4.19727H167.52ZM201.762 4.19727V117.481H186.655V4.19727H201.762ZM236.005 52.1536V89.6465C236.005 100.467 240.279 105.878 248.828 105.878C257.378 105.878 261.653 100.467 261.653 89.6465V52.1536H276.76V89.9822C276.76 95.2138 276.11 99.73 274.813 103.531C273.559 106.929 271.388 109.992 268.3 112.719C263.197 117.146 256.707 119.359 248.828 119.359C240.995 119.359 234.527 117.146 229.425 112.719C226.291 109.992 224.075 106.929 222.778 103.531C221.524 100.49 220.897 95.9738 220.897 89.9822V52.1536H236.005ZM295.828 52.1536H310.935V58.1899C313.844 55.1494 316.329 53.0926 318.388 52.0194C320.581 50.9015 323.334 50.3426 326.646 50.3426C334.032 50.3426 339.873 53.562 344.17 60.0009C348.915 53.562 355.338 50.3426 363.44 50.3426C378.166 50.3426 385.53 59.2631 385.53 77.1044V117.481H370.356V81.1955C370.356 74.9355 369.595 70.5088 368.073 67.9156C366.506 65.2772 363.933 63.9583 360.352 63.9583C356.189 63.9583 353.145 65.523 351.22 68.6534C349.34 71.7834 348.4 76.8134 348.4 83.7444V117.481H333.226V81.397C333.226 69.7709 329.869 63.9583 323.155 63.9583C318.903 63.9583 315.792 65.5456 313.822 68.7203C311.897 71.895 310.935 76.9029 310.935 83.7444V117.481H295.828V52.1536Z" fill="#100C4A"/>
</svg>
