<svg width="608" height="120" viewBox="0 0 608 120" fill="none" xmlns="http://www.w3.org/2000/svg">
<path d="M138.779 120L69.3926 0L0.00634766 120H138.779ZM208.762 114.537L266.749 5.45458H241.668L201.667 84.6741L161.667 5.45458H136.585L194.572 114.537H208.762ZM603.941 5.45458V114.537H583.176V5.45458H603.941ZM488.356 73.8231C488.356 65.322 490.14 57.8448 493.71 51.3921C497.279 44.9393 502.254 39.9715 508.636 36.4892C515.015 33.0067 522.478 31.2655 531.023 31.2655C538.592 31.2655 545.406 32.9042 551.463 36.1818C557.517 39.4595 562.33 44.3248 565.899 50.7775C569.468 57.2303 571.306 65.1171 571.415 74.4379V79.2005H510.258C510.689 85.9606 512.69 91.2868 516.259 95.1789C519.937 98.9686 524.857 100.863 531.023 100.863C534.914 100.863 538.483 99.8393 541.728 97.7908C544.972 95.7422 547.406 92.9767 549.028 89.4942L570.28 91.0306C567.684 98.7125 562.817 104.858 555.679 109.467C548.541 114.076 540.321 116.381 531.023 116.381C522.478 116.381 515.015 114.64 508.636 111.157C502.254 107.675 497.279 102.707 493.71 96.2543C490.14 89.8015 488.356 82.3244 488.356 73.8231ZM550.001 66.1412C549.244 59.4835 547.135 54.6185 543.675 51.5458C540.215 48.3706 535.996 46.7829 531.023 46.7829C525.291 46.7829 520.64 48.4728 517.071 51.8529C513.502 55.233 511.284 59.9958 510.42 66.1412H550.001ZM453.326 51.5458C456.786 54.3111 458.949 58.1522 459.815 63.0685L481.229 61.9932C480.47 55.7451 478.254 50.3167 474.578 45.7075C470.9 41.0984 466.141 37.5646 460.302 35.1065C454.57 32.5458 448.244 31.2655 441.322 31.2655C432.777 31.2655 425.316 33.0067 418.935 36.4892C412.553 39.9715 407.58 44.9393 404.011 51.3921C400.442 57.8448 398.657 65.322 398.657 73.8231C398.657 82.3244 400.442 89.8015 404.011 96.2543C407.58 102.707 412.553 107.675 418.935 111.157C425.316 114.64 432.777 116.381 441.322 116.381C448.46 116.381 454.948 115.101 460.789 112.54C466.628 109.877 471.388 106.138 475.063 101.324C478.742 96.5105 480.958 90.8769 481.714 84.4242L460.14 83.5025C459.383 88.9308 457.274 93.1304 453.814 96.1006C450.351 98.9686 446.188 100.403 441.322 100.403C434.617 100.403 429.426 98.0979 425.748 93.4888C422.072 88.8796 420.232 82.3244 420.232 73.8231C420.232 65.322 422.072 58.7668 425.748 54.1576C429.426 49.5485 434.617 47.2438 441.322 47.2438C445.972 47.2438 449.973 48.6778 453.326 51.5458ZM347.989 33.1055H367.311L367.87 48.7775C369.241 44.3414 371.149 40.8965 373.592 38.4427C377.134 34.8845 382.072 33.1055 388.405 33.1055H396.295V49.8798H388.245C383.736 49.8798 380.032 50.4898 377.134 51.7096C374.342 52.9297 372.195 54.8612 370.694 57.5045C369.297 60.1477 368.601 63.5026 368.601 67.569V114.537H347.989V33.1055ZM258.861 51.3921C255.292 57.8448 253.508 65.322 253.508 73.8231C253.508 82.3244 255.292 89.8015 258.861 96.2543C262.431 102.707 267.404 107.675 273.785 111.157C280.167 114.64 287.628 116.381 296.172 116.381C305.473 116.381 313.693 114.076 320.831 109.467C327.967 104.858 332.836 98.7125 335.43 91.0306L314.178 89.4942C312.556 92.9767 310.124 95.7422 306.879 97.7908C303.635 99.8393 300.066 100.863 296.172 100.863C290.009 100.863 285.087 98.9686 281.411 95.1789C277.842 91.2868 275.841 85.9606 275.407 79.2005H336.565V74.4379C336.458 65.1171 334.62 57.2303 331.051 50.7775C327.482 44.3248 322.669 39.4595 316.612 36.1818C310.555 32.9042 303.742 31.2655 296.172 31.2655C287.628 31.2655 280.167 33.0067 273.785 36.4892C267.404 39.9715 262.431 44.9393 258.861 51.3921ZM308.826 51.5458C312.286 54.6185 314.396 59.4835 315.152 66.1412H275.57C276.435 59.9958 278.652 55.233 282.221 51.8529C285.79 48.4728 290.44 46.7829 296.172 46.7829C301.148 46.7829 305.364 48.3706 308.826 51.5458Z" fill="black"/>
</svg>
