<svg width="125" height="28" viewBox="0 0 125 28" fill="none" xmlns="http://www.w3.org/2000/svg">
<g clip-path="url(#clip0_125_496)">
<mask id="mask0_125_496" style="mask-type:luminance" maskUnits="userSpaceOnUse" x="0" y="0" width="125" height="28">
<path d="M124.722 0H0.277771V28H124.722V0Z" fill="white"/>
</mask>
<g mask="url(#mask0_125_496)">
<path d="M62.2977 7C57.443 7 53.9428 10.15 53.9428 14.875C53.9428 19.6 57.8828 22.75 62.7375 22.75C65.6705 22.75 68.2561 21.595 69.8567 19.6481L66.4928 17.7144C65.6045 18.6812 64.2545 19.2456 62.7375 19.2456C60.6311 19.2456 58.8414 18.1519 58.1774 16.4019H70.4987C70.5955 15.9119 70.6526 15.4044 70.6526 14.8707C70.6526 10.15 67.1524 7 62.2977 7ZM58.1378 13.3437C58.6875 11.5981 60.1914 10.5 62.2933 10.5C64.3996 10.5 65.9035 11.5981 66.4488 13.3437H58.1378ZM109.648 7C104.794 7 101.293 10.15 101.293 14.875C101.293 19.6 105.233 22.75 110.088 22.75C113.021 22.75 115.606 21.595 117.208 19.6481L113.843 17.7144C112.955 18.6812 111.605 19.2456 110.088 19.2456C107.982 19.2456 106.192 18.1519 105.528 16.4019H117.849C117.946 15.9119 118.003 15.4044 118.003 14.8707C118.003 10.15 114.502 7 109.648 7ZM105.493 13.3437C106.042 11.5981 107.546 10.5 109.648 10.5C111.755 10.5 113.258 11.5981 113.804 13.3437H105.493ZM88.3298 14.875C88.3298 17.5 90.0539 19.25 92.7269 19.25C94.539 19.25 95.8977 18.4319 96.597 17.0975L99.9738 19.0356C98.5758 21.3544 95.9552 22.75 92.7269 22.75C87.8685 22.75 84.3724 19.6 84.3724 14.875C84.3724 10.15 87.8728 7 92.7269 7C95.9552 7 98.5714 8.39562 99.9738 10.7144L96.597 12.6525C95.8977 11.3181 94.539 10.5 92.7269 10.5C90.0583 10.5 88.3298 12.25 88.3298 14.875ZM124.599 2.1875V22.3125H120.642V2.1875H124.599ZM16.5259 0L32.7741 28H0.277771L16.5259 0ZM57.1484 2.1875L44.9634 23.1875L32.7784 2.1875H37.3473L44.9634 15.3125L52.5796 2.1875H57.1484ZM83.053 7.43752V11.6769C82.6134 11.55 82.1469 11.4625 81.6462 11.4625C79.0911 11.4625 77.2485 13.2125 77.2485 15.8375V22.3125H73.291V7.43752H77.2485V11.4625C77.2485 9.24 79.8473 7.43752 83.053 7.43752Z" fill="#14171F"/>
</g>
</g>
<defs>
<clipPath id="clip0_125_496">
<rect width="124.444" height="28" fill="white" transform="translate(0.277771)"/>
</clipPath>
</defs>
</svg>
