<svg width="562" height="72" viewBox="0 0 562 72" fill="none" xmlns="http://www.w3.org/2000/svg">
<path d="M58.5525 19.5487L68.1389 35.9982L65.1019 41.6853C62.6594 46.2675 57.3564 47.7036 53.3215 39.5905L31.5513 0H0L34.5198 62.5622C36.0468 65.4101 38.3185 67.7907 41.0928 69.4504C43.8672 71.11 47.0402 71.9866 50.2738 71.9866C53.5074 71.9866 56.6804 71.11 59.4548 69.4504C62.2291 67.7907 64.5008 65.4101 66.0278 62.5622C74.2921 47.5849 81.7998 34.4216 90.0641 19.4407L78.9754 0H47.997L58.5525 19.5487ZM186.516 0L167.919 54.3662L149.308 0H133.295L157.936 71.9892H177.887L202.529 0H186.516ZM260.833 13.9299V0H207.994V71.9892H260.833V58.0593H224.13V42.2361H257.518V28.2918H224.13V13.9299H260.833Z" fill="black"/>
<path d="M309.676 22.3095C308.707 15.1285 301.448 13.5052 295.453 13.5052C291.779 13.5052 282.387 14.0811 282.387 20.7761C282.387 25.6606 288.49 27.0931 292.55 27.7662L307.162 30.2535C319.555 32.5499 326.425 38.1003 326.425 49.309C326.425 66.4532 312.396 72 296.909 72C282.967 72 266.709 65.5858 264.489 47.7756H279.591C281.627 56.2992 290.525 58.4048 298.17 58.4048C301.073 58.4048 311.917 57.9189 311.917 51.0331C311.917 46.721 309.107 45.4828 305.624 44.6153C291.3 41.1706 267.879 41.9373 267.879 21.6436C267.869 5.55037 281.991 0 296.033 0C310.073 0 323.91 6.88937 324.685 22.3095H309.676Z" fill="black"/>
<path d="M375.272 22.3095C374.303 15.1285 367.044 13.5052 361.049 13.5052C357.374 13.5052 347.986 14.0811 347.986 20.7761C347.986 25.6606 354.085 27.0931 358.145 27.7662L372.757 30.2535C385.147 32.5499 392.02 38.1003 392.02 49.309C392.02 66.4532 377.992 72 362.504 72C348.562 72 332.304 65.5858 330.085 47.7756H345.187C347.222 56.2992 356.121 58.4048 363.765 58.4048C366.669 58.4048 377.513 57.9189 377.513 51.0331C377.513 46.721 374.703 45.4828 371.219 44.6153C356.895 41.1706 333.475 41.9373 333.475 21.6436C333.464 5.55037 347.586 0 361.629 0C375.668 0 389.506 6.88937 390.28 22.3095H375.272Z" fill="black"/>
<path d="M413.776 58.0593V0H399.305V71.9892H450.32V58.0593H413.776ZM527.16 50.9612H496.541L488.72 71.9892H479.141L506.56 0H517.35L545.428 71.9892H535.078L527.149 50.9612H527.16ZM524.072 42.9632L511.845 10.6328H511.406L499.398 42.9632H524.072ZM562 0V71.9892H551.643V0H562Z" fill="black"/>
</svg>
