<svg width="343" height="93" viewBox="0 0 343 93" fill="none" xmlns="http://www.w3.org/2000/svg">
<g clip-path="url(#clip0_305_2)">
<path d="M300 66L300 85" stroke="#A455F4" stroke-width="10" stroke-linecap="round"/>
<path d="M23.296 56.576C21.9307 56.576 20.8 56.2773 19.904 55.68C19.0507 55.04 18.3467 54.08 17.792 52.8L1.664 16.96C1.06667 15.68 0.896 14.5493 1.152 13.568C1.408 12.544 1.94133 11.7547 2.752 11.2C3.56267 10.6027 4.544 10.304 5.696 10.304C7.14667 10.304 8.256 10.6453 9.024 11.328C9.792 11.968 10.432 12.928 10.944 14.208L25.088 46.912H21.888L36.032 14.144C36.5867 12.864 37.248 11.904 38.016 11.264C38.784 10.624 39.8507 10.304 41.216 10.304C42.368 10.304 43.3067 10.6027 44.032 11.2C44.8 11.7547 45.2693 12.544 45.44 13.568C45.6533 14.5493 45.4827 15.68 44.928 16.96L28.8 52.8C28.2027 54.08 27.4773 55.04 26.624 55.68C25.8133 56.2773 24.704 56.576 23.296 56.576ZM58.076 56.512C56.4973 56.512 55.2813 56.064 54.428 55.168C53.6173 54.2293 53.212 52.928 53.212 51.264V29.376C53.212 27.6693 53.6173 26.368 54.428 25.472C55.2813 24.5333 56.4973 24.064 58.076 24.064C59.612 24.064 60.7853 24.5333 61.596 25.472C62.4493 26.368 62.876 27.6693 62.876 29.376V51.264C62.876 52.928 62.4707 54.2293 61.66 55.168C60.8493 56.064 59.6547 56.512 58.076 56.512ZM58.076 18.816C56.284 18.816 54.8973 18.4107 53.916 17.6C52.9773 16.7467 52.508 15.552 52.508 14.016C52.508 12.4373 52.9773 11.2427 53.916 10.432C54.8973 9.57866 56.284 9.152 58.076 9.152C59.868 9.152 61.2333 9.57866 62.172 10.432C63.1107 11.2427 63.58 12.4373 63.58 14.016C63.58 15.552 63.1107 16.7467 62.172 17.6C61.2333 18.4107 59.868 18.816 58.076 18.816ZM82.561 56.704C79.8303 56.704 77.4197 56.0427 75.329 54.72C73.281 53.3973 71.681 51.4987 70.529 49.024C69.377 46.5493 68.801 43.6267 68.801 40.256C68.801 36.8853 69.377 33.984 70.529 31.552C71.681 29.12 73.281 27.2427 75.329 25.92C77.4197 24.5973 79.8303 23.936 82.561 23.936C85.0357 23.936 87.2117 24.5333 89.089 25.728C91.009 26.9227 92.3103 28.48 92.993 30.4H92.289V15.232C92.289 13.6107 92.6943 12.3947 93.505 11.584C94.3157 10.7307 95.5103 10.304 97.089 10.304C98.625 10.304 99.8197 10.7307 100.673 11.584C101.526 12.3947 101.953 13.6107 101.953 15.232V51.648C101.953 53.2267 101.526 54.4427 100.673 55.296C99.8623 56.1493 98.689 56.576 97.153 56.576C95.617 56.576 94.4223 56.1493 93.569 55.296C92.7583 54.4427 92.353 53.2267 92.353 51.648V47.296L93.057 49.792C92.4597 51.8827 91.1797 53.568 89.217 54.848C87.297 56.0853 85.0783 56.704 82.561 56.704ZM85.441 49.472C86.849 49.472 88.065 49.1307 89.089 48.448C90.113 47.7653 90.9237 46.7627 91.521 45.44C92.1183 44.0747 92.417 42.3467 92.417 40.256C92.417 37.1413 91.777 34.8587 90.497 33.408C89.217 31.9147 87.5317 31.168 85.441 31.168C84.0757 31.168 82.8597 31.488 81.793 32.128C80.769 32.768 79.9583 33.7707 79.361 35.136C78.8063 36.4587 78.529 38.1653 78.529 40.256C78.529 43.3707 79.169 45.696 80.449 47.232C81.729 48.7253 83.393 49.472 85.441 49.472ZM125.72 56.704C122.008 56.704 118.808 56.0427 116.12 54.72C113.474 53.3547 111.426 51.456 109.976 49.024C108.568 46.5493 107.864 43.648 107.864 40.32C107.864 37.0773 108.546 34.24 109.911 31.808C111.277 29.3333 113.176 27.4133 115.608 26.048C118.082 24.64 120.877 23.936 123.992 23.936C126.253 23.936 128.301 24.32 130.136 25.088C131.97 25.8133 133.549 26.88 134.872 28.288C136.194 29.6533 137.197 31.3387 137.88 33.344C138.562 35.3067 138.904 37.504 138.904 39.936C138.904 40.7467 138.648 41.3653 138.136 41.792C137.624 42.176 136.877 42.368 135.896 42.368H115.8V37.376H131.928L130.904 38.272C130.904 36.5227 130.648 35.072 130.136 33.92C129.624 32.7253 128.877 31.8293 127.896 31.232C126.957 30.6347 125.784 30.336 124.376 30.336C122.797 30.336 121.453 30.6987 120.344 31.424C119.234 32.1493 118.381 33.1947 117.784 34.56C117.186 35.9253 116.888 37.568 116.888 39.488V40C116.888 43.2427 117.634 45.632 119.128 47.168C120.664 48.704 122.925 49.472 125.912 49.472C126.936 49.472 128.109 49.344 129.432 49.088C130.754 48.832 131.992 48.4267 133.144 47.872C134.125 47.4027 135 47.2533 135.768 47.424C136.536 47.552 137.133 47.8933 137.56 48.448C137.986 49.0027 138.221 49.6427 138.264 50.368C138.349 51.0933 138.2 51.8187 137.816 52.544C137.432 53.2267 136.792 53.8027 135.896 54.272C134.445 55.0827 132.802 55.68 130.968 56.064C129.176 56.4907 127.426 56.704 125.72 56.704ZM159.628 56.704C156.258 56.704 153.314 56.0427 150.797 54.72C148.322 53.3973 146.402 51.4987 145.036 49.024C143.671 46.5493 142.989 43.6267 142.989 40.256C142.989 37.7387 143.373 35.4773 144.141 33.472C144.909 31.4667 146.018 29.76 147.469 28.352C148.962 26.9013 150.733 25.8133 152.781 25.088C154.829 24.32 157.111 23.936 159.628 23.936C162.999 23.936 165.922 24.5973 168.397 25.92C170.914 27.2427 172.855 29.12 174.221 31.552C175.629 33.984 176.333 36.8853 176.333 40.256C176.333 42.816 175.927 45.0987 175.117 47.104C174.349 49.1093 173.239 50.8373 171.789 52.288C170.338 53.7387 168.567 54.848 166.477 55.616C164.429 56.3413 162.146 56.704 159.628 56.704ZM159.628 49.472C161.037 49.472 162.253 49.1307 163.277 48.448C164.301 47.7653 165.111 46.7627 165.709 45.44C166.306 44.0747 166.605 42.3467 166.605 40.256C166.605 37.1413 165.965 34.8587 164.685 33.408C163.405 31.9147 161.719 31.168 159.628 31.168C158.263 31.168 157.047 31.488 155.981 32.128C154.957 32.768 154.146 33.7707 153.549 35.136C152.994 36.4587 152.717 38.1653 152.717 40.256C152.717 43.3707 153.357 45.696 154.637 47.232C155.917 48.7253 157.581 49.472 159.628 49.472ZM216.663 56.576C215.042 56.576 213.804 56.128 212.951 55.232C212.098 54.336 211.671 53.0773 211.671 51.456V19.072H200.343C199.02 19.072 197.996 18.7093 197.271 17.984C196.546 17.2587 196.183 16.256 196.183 14.976C196.183 13.6533 196.546 12.6507 197.271 11.968C197.996 11.2427 199.02 10.88 200.343 10.88H232.919C234.242 10.88 235.266 11.2427 235.991 11.968C236.716 12.6507 237.079 13.6533 237.079 14.976C237.079 16.256 236.716 17.2587 235.991 17.984C235.266 18.7093 234.242 19.072 232.919 19.072H221.591V51.456C221.591 53.0773 221.164 54.336 220.311 55.232C219.5 56.128 218.284 56.576 216.663 56.576ZM246.086 56.704C243.782 56.704 241.713 56.256 239.878 55.36C238.043 54.464 236.614 53.248 235.59 51.712C234.566 50.176 234.054 48.448 234.054 46.528C234.054 44.224 234.651 42.4107 235.846 41.088C237.041 39.7227 238.982 38.7627 241.67 38.208C244.358 37.6107 247.921 37.312 252.358 37.312H255.75V42.304H252.422C250.246 42.304 248.475 42.432 247.11 42.688C245.787 42.9013 244.827 43.2853 244.23 43.84C243.675 44.3947 243.398 45.1627 243.398 46.144C243.398 47.3387 243.803 48.32 244.614 49.088C245.467 49.856 246.683 50.24 248.262 50.24C249.499 50.24 250.587 49.9627 251.526 49.408C252.507 48.8107 253.275 48.0213 253.83 47.04C254.385 46.016 254.662 44.864 254.662 43.584V36.224C254.662 34.3467 254.235 33.024 253.382 32.256C252.529 31.4453 251.078 31.04 249.03 31.04C247.878 31.04 246.619 31.1893 245.254 31.488C243.931 31.744 242.459 32.192 240.838 32.832C239.899 33.2587 239.067 33.3653 238.342 33.152C237.617 32.896 237.062 32.4693 236.678 31.872C236.294 31.232 236.102 30.5493 236.102 29.824C236.102 29.056 236.315 28.3307 236.742 27.648C237.169 26.9227 237.873 26.3893 238.854 26.048C240.859 25.2373 242.737 24.6827 244.486 24.384C246.278 24.0853 247.921 23.936 249.414 23.936C252.699 23.936 255.387 24.4267 257.478 25.408C259.611 26.3467 261.211 27.8187 262.278 29.824C263.345 31.7867 263.878 34.3253 263.878 37.44V51.648C263.878 53.2267 263.494 54.4427 262.726 55.296C261.958 56.1493 260.849 56.576 259.398 56.576C257.947 56.576 256.817 56.1493 256.006 55.296C255.238 54.4427 254.854 53.2267 254.854 51.648V49.28L255.302 49.664C255.046 51.1147 254.491 52.3733 253.638 53.44C252.827 54.464 251.782 55.2747 250.502 55.872C249.222 56.4267 247.75 56.704 246.086 56.704ZM275.951 68.096C274.372 68.096 273.156 67.6693 272.303 66.816C271.492 66.0053 271.087 64.7893 271.087 63.168V28.928C271.087 27.3493 271.492 26.1547 272.303 25.344C273.156 24.4907 274.33 24.064 275.823 24.064C277.402 24.064 278.596 24.4907 279.407 25.344C280.218 26.1547 280.623 27.3493 280.623 28.928V33.28L279.919 30.784C280.559 28.736 281.839 27.0933 283.759 25.856C285.722 24.576 287.962 23.936 290.479 23.936C293.21 23.936 295.599 24.5973 297.647 25.92C299.738 27.2427 301.359 29.12 302.511 31.552C303.663 33.984 304.239 36.8853 304.239 40.256C304.239 43.6267 303.663 46.5493 302.511 49.024C301.359 51.4987 299.759 53.3973 297.711 54.72C295.663 56.0427 293.252 56.704 290.479 56.704C288.004 56.704 285.807 56.1067 283.887 54.912C281.967 53.6747 280.666 52.0747 279.983 50.112H280.751V63.168C280.751 64.7893 280.324 66.0053 279.471 66.816C278.66 67.6693 277.487 68.096 275.951 68.096ZM287.599 49.472C288.964 49.472 290.159 49.1307 291.183 48.448C292.25 47.7653 293.06 46.7627 293.615 45.44C294.212 44.0747 294.511 42.3467 294.511 40.256C294.511 37.1413 293.871 34.8587 292.591 33.408C291.311 31.9147 289.647 31.168 287.599 31.168C286.234 31.168 285.018 31.488 283.951 32.128C282.927 32.768 282.116 33.7707 281.519 35.136C280.922 36.4587 280.623 38.1653 280.623 40.256C280.623 43.3707 281.263 45.696 282.543 47.232C283.823 48.7253 285.508 49.472 287.599 49.472Z" fill="#121212"/>
<path d="M333 8L333 85" stroke="#EAB20D" stroke-width="10" stroke-linecap="round"/>
<path d="M316 24L316 74" stroke="#F04140" stroke-width="10" stroke-linecap="round"/>
</g>
<defs>
<clipPath id="clip0_305_2">
<rect width="343" height="93" fill="white"/>
</clipPath>
</defs>
</svg>
