<svg width="580" height="90" viewBox="0 0 580 90" fill="none" xmlns="http://www.w3.org/2000/svg">
<path d="M0 30.2645C0 35.2825 4.06953 39.3503 9.08956 39.3503C14.1095 39.3503 18.1791 35.2825 18.1791 30.2645C18.1791 25.2465 14.1095 21.1787 9.08956 21.1787C4.06953 21.1787 0 25.2465 0 30.2645Z" fill="#FFCC33"/>
<path d="M0 75.6938C0 80.7118 4.06953 84.7796 9.08956 84.7796C14.1095 84.7796 18.1791 80.7118 18.1791 75.6938C18.1791 70.6758 14.1095 66.6078 9.08956 66.6078C4.06953 66.6078 0 70.6758 0 75.6938Z" fill="#FFCC33"/>
<path d="M3.40869 52.9792C3.40869 56.1156 5.95219 58.658 9.08974 58.658C12.2273 58.658 14.7708 56.1156 14.7708 52.9792C14.7708 49.8428 12.2273 47.3004 9.08974 47.3004C5.95219 47.3004 3.40869 49.8428 3.40869 52.9792Z" fill="#FFCC33"/>
<path d="M3.40869 7.54902C3.40869 10.6854 5.95219 13.2278 9.08974 13.2278C12.2273 13.2278 14.7708 10.6854 14.7708 7.54902C14.7708 4.41271 12.2273 1.87024 9.08974 1.87024C5.95219 1.87024 3.40869 4.41271 3.40869 7.54902Z" fill="#FFCC33"/>
<path d="M34.881 61.3829C34.881 66.4007 38.9506 70.4687 43.9704 70.4687C48.9905 70.4687 53.0601 66.4007 53.0601 61.3829C53.0601 56.3649 48.9905 52.2969 43.9704 52.2969C38.9506 52.2969 34.881 56.3649 34.881 61.3829Z" fill="#FFCC33"/>
<path d="M38.2897 84.0975C38.2897 87.2337 40.8333 89.7767 43.9707 89.7767C47.1084 89.7767 49.6518 87.2337 49.6518 84.0975C49.6518 80.9613 47.1084 78.4189 43.9707 78.4189C40.8333 78.4189 38.2897 80.9613 38.2897 84.0975Z" fill="#FFCC33"/>
<path d="M38.2897 38.6684C38.2897 41.8048 40.8333 44.3472 43.9707 44.3472C47.1084 44.3472 49.6518 41.8048 49.6518 38.6684C49.6518 35.5322 47.1084 32.9896 43.9707 32.9896C40.8333 32.9896 38.2897 35.5322 38.2897 38.6684Z" fill="#FFCC33"/>
<path d="M38.2897 15.9538C38.2897 19.0901 40.8333 21.6326 43.9707 21.6326C47.1084 21.6326 49.6518 19.0901 49.6518 15.9538C49.6518 12.8175 47.1084 10.275 43.9707 10.275C40.8333 10.275 38.2897 12.8175 38.2897 15.9538Z" fill="#FFCC33"/>
<path d="M69.7621 30.2645C69.7621 35.2825 73.8315 39.3503 78.8515 39.3503C83.8718 39.3503 87.9412 35.2825 87.9412 30.2645C87.9412 25.2465 83.8718 21.1787 78.8515 21.1787C73.8315 21.1787 69.7621 25.2465 69.7621 30.2645Z" fill="#FFCC33"/>
<path d="M73.1727 7.54902C73.1727 10.6854 75.7161 13.2278 78.8538 13.2278C81.991 13.2278 84.5349 10.6854 84.5349 7.54902C84.5349 4.41271 81.991 1.87024 78.8538 1.87024C75.7161 1.87024 73.1727 4.41271 73.1727 7.54902Z" fill="#FFCC33"/>
<path d="M73.1727 52.9792C73.1727 56.1156 75.7161 58.658 78.8538 58.658C81.991 58.658 84.5349 56.1156 84.5349 52.9792C84.5349 49.8428 81.991 47.3004 78.8538 47.3004C75.7161 47.3004 73.1727 49.8428 73.1727 52.9792Z" fill="#FFCC33"/>
<path d="M73.1727 75.6939C73.1727 78.8301 75.7161 81.3727 78.8538 81.3727C81.991 81.3727 84.5349 78.8301 84.5349 75.6939C84.5349 72.5575 81.991 70.0151 78.8538 70.0151C75.7161 70.0151 73.1727 72.5575 73.1727 75.6939Z" fill="#FFCC33"/>
<path fill-rule="evenodd" clip-rule="evenodd" d="M261.306 48.4803C261.306 51.1573 261.247 55.1725 261.184 58.2143L256.62 59.0662V61.2563H270.741V59.0662L266.54 58.2143C266.48 55.1725 266.419 51.1573 266.419 48.4803V39.9025C269.524 37.1039 272.018 35.9479 275.002 35.9479C278.591 35.9479 279.991 37.7123 279.991 43.3093V48.4803C279.991 51.2789 279.931 55.2332 279.87 58.2752L275.427 59.0662V61.2563H289.546V59.0662L285.287 58.2143C285.226 55.1725 285.165 51.2789 285.165 48.4803V42.8227C285.165 34.8528 282.609 31.5676 277.374 31.5676C273.54 31.5676 269.218 33.8796 266.237 37.2255V25.4231L266.48 16.7843L265.627 16.2976L256.316 19.0353V21.1645L261.306 21.7729V48.4803ZM215.073 24.8756C217.324 24.8756 219.15 23.233 219.15 20.982C219.15 18.6093 217.324 17.0884 215.073 17.0884C212.76 17.0884 210.994 18.6093 210.994 20.982C210.994 23.233 212.76 24.8756 215.073 24.8756ZM222.01 59.066L217.751 58.2143C217.688 55.1723 217.628 51.1571 217.628 48.4803V40.4498L217.81 32.1761L216.897 31.5676L207.526 35.2788V37.408L212.395 37.9555C212.517 40.3891 212.577 42.2749 212.577 45.621V48.4803C212.577 51.1571 212.517 55.1723 212.454 58.2143L207.89 59.066V61.2561H222.01V59.066ZM163.134 61.6821H160.517L149.987 30.1075L140.068 61.6821H137.45L126.495 23.6589L121.444 23.0505V20.5562H137.998V23.0505L132.399 23.7196L139.885 51.7048L149.136 23.7805L143.049 23.0505V20.5562H159.604V23.0505L153.457 23.7805L162.526 51.9482L170.255 23.8414L164.716 23.0505V20.5562H178.532V23.0505L173.42 23.7805L163.134 61.6821ZM197.742 40.9364C197.742 37.4689 194.882 34.3662 191.109 34.3662C187.7 34.3662 183.744 37.043 183.074 44.1H194.151C197.073 44.1 197.742 42.7008 197.742 40.9364ZM177.475 47.0811C177.475 37.773 183.866 31.5676 191.473 31.5676C197.803 31.5676 202.794 35.887 202.794 43.2484C202.794 44.6476 202.611 45.8644 202.368 46.6552H182.953C183.074 54.1382 186.97 58.0925 192.812 58.0925C196.708 58.0925 199.081 56.3892 201.272 53.8341L202.733 54.9898C200.481 59.3094 196.586 62.0471 191.047 62.0471C182.831 62.0471 177.475 56.3892 177.475 47.0811ZM244.521 41.3624C244.521 37.043 242.329 34.0619 238.556 34.0619C234.722 34.0619 232.41 37.1646 232.41 41.6058C232.41 46.0468 234.54 49.0888 238.313 49.0888C242.208 49.0888 244.521 45.8644 244.521 41.3624ZM232.165 50.1229C229.245 48.5412 227.479 45.6817 227.479 41.5449C227.479 35.157 232.165 31.5676 238.495 31.5676C241.6 31.5676 244.278 32.3586 246.226 33.9403L253.102 31.5676L254.015 32.1759V36.0088H248.052C248.965 37.4689 249.45 39.3547 249.45 41.5449C249.45 47.9328 244.764 51.5223 238.434 51.5223C236.793 51.5223 235.271 51.2789 233.931 50.853C232.896 52.1915 232.41 53.3472 232.41 54.7466C232.41 56.3892 233.078 57.4234 235.939 57.4234H243.912C250.606 57.4234 253.711 60.3436 253.711 65.2714C253.711 70.5642 248.659 75.7961 238.679 75.7961C229.854 75.7961 226.081 72.7544 226.081 68.435C226.081 65.8189 227.54 63.6897 232.044 61.4995C229.366 60.7695 228.028 59.2485 228.028 56.8758C228.028 54.9898 229.123 52.9215 232.165 50.1229ZM231.07 67.4615C231.07 71.4159 234.115 72.9978 238.922 72.9978C245.556 72.9978 249.147 70.2601 249.147 66.8531C249.147 64.1763 247.442 62.1078 243.06 62.1078H235.939C235.086 62.1078 234.236 62.0471 233.445 61.9862C231.74 63.8113 231.07 65.4539 231.07 67.4615ZM301.822 35.5831V54.4425C301.822 57.5452 303.099 58.8837 305.168 58.8837C306.508 58.8837 307.725 58.3361 309.247 57.2411L310.708 58.8228C309.125 60.8913 306.63 62.0473 303.526 62.0473C299.265 62.0473 296.587 59.8571 296.587 55.1118C296.587 54.4356 296.6 53.8075 296.612 53.1097C296.629 52.2383 296.648 51.2584 296.648 49.9406V35.5831H291.598V32.9063L297.012 32.237L298.595 24.0849H302.247L301.943 32.3588H310.099V35.5831H301.822ZM323.016 62.0471C330.866 62.0471 334.884 57.9709 334.884 53.3472C334.884 49.5145 332.57 46.6552 326.484 44.4041L324.597 43.735C320.459 42.2142 318.998 41.1798 318.998 38.5031C318.998 36.0088 320.945 34.3662 324.658 34.3662C326.119 34.3662 327.52 34.731 328.858 35.4004L329.832 40.2673H332.998L333.24 34.0619C330.623 32.4802 328.006 31.5676 324.72 31.5676C317.903 31.5676 314.13 35.7045 314.13 40.1457C314.13 44.2825 317.051 46.7161 321.494 48.3587L324.293 49.3929C328.127 50.7314 329.953 52.0696 329.953 54.6857C329.953 57.4234 327.763 59.3094 323.138 59.3094C321.251 59.3094 319.668 59.0051 318.206 58.3359L317.051 53.0431H313.703L313.948 59.7353C316.929 61.2561 319.607 62.0471 323.016 62.0471ZM362.209 27.4308C362.209 29.6209 362.697 31.5067 364.948 34.3053C365.496 35.0354 366.043 35.7047 366.591 36.3129C370.365 33.6971 373.043 31.0201 373.043 27.4917C373.043 23.9631 370.729 21.7729 367.747 21.7729C364.644 21.7729 362.209 24.2065 362.209 27.4308ZM392.457 58.7619L392.214 61.4386C390.388 61.8646 389.172 62.0471 387.589 62.0471C384.362 62.0471 382.475 61.317 380.467 59.2487C380.109 58.8318 379.753 58.4441 379.402 58.0641L379.4 58.0618C379.035 57.6666 378.677 57.2785 378.338 56.8758C375.66 59.7962 371.765 62.0471 365.921 62.0471C358.314 62.0471 353.08 57.1193 353.08 50.9748C353.08 45.4994 356.183 41.4233 362.27 38.3815C362.24 38.3208 362.194 38.2751 362.148 38.2297C362.102 38.1839 362.056 38.1383 362.027 38.0774C358.982 34.6094 357.827 31.5067 357.827 28.2824C357.827 22.9289 362.088 19.6436 367.808 19.6436C373.834 19.6436 377.059 22.868 377.059 27.4308C377.059 31.6285 374.259 34.6094 368.051 37.9555C369.33 39.4156 370.79 41.0582 372.921 43.37C374.588 45.2037 376.142 46.866 377.718 48.5527C378.443 49.3282 379.171 50.1091 379.921 50.9139C382.172 47.142 383.876 43.1877 384.971 38.3815L380.164 37.5905V35.157H392.518V37.5905L387.892 38.4424C386.494 43.9784 384.362 48.4803 381.563 52.6781C382.241 53.3838 382.932 54.126 383.656 54.9044L383.659 54.9063L383.663 54.9109L383.665 54.9115C384.563 55.8754 385.512 56.8957 386.554 57.9709L392.457 58.7619ZM376.573 54.9291C374.381 52.4349 372.433 50.2447 370.365 47.933C367.626 44.5869 365.739 42.3967 363.731 40.085C359.531 42.6401 358.375 46.2904 358.375 49.3322C358.375 53.7731 361.66 58.1536 367.565 58.1536C370.974 58.1536 374.259 56.9977 376.573 54.9291ZM417.843 42.3967C417.843 47.6896 417.843 52.9824 417.721 58.0927L412.123 58.7619V61.2563H428.861C440.545 61.2563 445.109 55.6592 445.109 50.1229C445.109 45.1953 441.703 41.2407 433.608 40.085C440.362 38.6856 443.04 34.7921 443.04 30.4726C443.04 24.6931 438.233 20.5562 429.774 20.5562H412.123V23.0505L417.721 23.7196C417.843 28.9518 417.843 34.1837 417.843 39.4156V42.3967ZM426.974 41.6058C435.373 41.6058 439.024 44.4653 439.024 50.1229C439.024 55.4767 435.251 58.3968 427.46 58.3968H423.748C423.626 53.2256 423.626 47.9937 423.626 41.6058H426.974ZM427.948 23.3546C434.154 23.3546 437.32 25.3622 437.32 30.8985C437.32 36.4348 434.154 38.8074 426.79 38.8074H423.626C423.626 34.0012 423.626 28.5868 423.748 23.3546H427.948ZM461.111 20.982C461.111 23.233 459.285 24.8756 457.032 24.8756C454.72 24.8756 452.955 23.233 452.955 20.982C452.955 18.6093 454.72 17.0884 457.032 17.0884C459.285 17.0884 461.111 18.6093 461.111 20.982ZM459.71 58.2143L463.971 59.066V61.2561H449.852V59.066L454.414 58.2143C454.475 55.1723 454.538 51.1571 454.538 48.4803V45.621C454.538 42.2749 454.475 40.3891 454.354 37.9555L449.485 37.408V35.2788L458.858 31.5676L459.77 32.1761L459.588 40.4498V48.4803C459.588 51.1571 459.649 55.1723 459.71 58.2143ZM491.168 61.8646C493.297 61.8646 495.002 61.0736 496.461 58.701L495.245 57.3625C494.575 58.1534 493.905 58.701 492.87 58.701C491.532 58.701 490.68 57.7277 490.68 55.1116V42.1533C490.68 34.4878 487.638 31.5676 481.247 31.5676C475.039 31.5676 470.535 34.4878 469.379 39.1115C469.561 40.6932 470.535 41.6058 472.239 41.6058C473.883 41.6058 474.857 40.5716 475.405 38.6856L476.561 34.731C477.838 34.4269 478.933 34.3662 479.846 34.3662C483.865 34.3662 485.569 35.8263 485.569 41.7274V43.2484C483.134 43.7959 480.577 44.5867 478.691 45.256C470.474 48.2369 468.588 50.9748 468.588 54.4423C468.588 59.4919 472.3 62.0471 476.743 62.0471C480.334 62.0471 482.342 60.4652 485.69 57.1802C486.176 60.0394 488.247 61.8646 491.168 61.8646ZM474.005 53.5299C474.005 51.7046 474.675 49.3929 479.968 47.3245C481.247 46.8377 483.437 46.1077 485.569 45.4992V54.8682C482.099 57.3018 480.941 58.0318 478.873 58.0318C476.073 58.0318 474.005 56.7542 474.005 53.5299ZM520.855 53.3472C520.855 57.9709 516.839 62.0471 508.987 62.0471C505.578 62.0471 502.9 61.2561 499.918 59.7353L499.675 53.0431H503.023L504.179 58.3359C505.639 59.0051 507.222 59.3094 509.108 59.3094C513.733 59.3094 515.924 57.4234 515.924 54.6857C515.924 52.0696 514.1 50.7314 510.266 49.3929L507.467 48.3587C503.023 46.7161 500.1 44.2825 500.1 40.1457C500.1 35.7045 503.873 31.5676 510.691 31.5676C513.978 31.5676 516.594 32.4802 519.211 34.0619L518.968 40.2673H515.802L514.831 35.4004C513.491 34.731 512.09 34.3662 510.63 34.3662C506.918 34.3662 504.971 36.0088 504.971 38.5031C504.971 41.1798 506.43 42.2142 510.57 43.735L512.456 44.4041C518.543 46.6552 520.855 49.5145 520.855 53.3472ZM539.574 34.3662C543.349 34.3662 546.209 37.4689 546.209 40.9364C546.209 42.7008 545.539 44.1 542.618 44.1H531.542C532.21 37.043 536.167 34.3662 539.574 34.3662ZM539.94 31.5676C532.331 31.5676 525.943 37.773 525.943 47.0811C525.943 56.3892 531.297 62.0471 539.513 62.0471C545.051 62.0471 548.948 59.3094 551.199 54.9898L549.74 53.8341C547.547 56.3892 545.175 58.0925 541.278 58.0925C535.436 58.0925 531.542 54.1382 531.42 46.6552H550.835C551.078 45.8644 551.26 44.6476 551.26 43.2484C551.26 35.887 546.27 31.5676 539.94 31.5676ZM578.268 53.3472C578.268 57.9709 574.25 62.0471 566.4 62.0471C562.992 62.0471 560.314 61.2561 557.332 59.7353L557.089 53.0431H560.437L561.593 58.3359C563.052 59.0051 564.635 59.3094 566.522 59.3094C571.147 59.3094 573.337 57.4234 573.337 54.6857C573.337 52.0696 571.514 50.7314 567.678 49.3929L564.878 48.3587C560.437 46.7161 557.514 44.2825 557.514 40.1457C557.514 35.7045 561.287 31.5676 568.105 31.5676C571.39 31.5676 574.007 32.4802 576.625 34.0619L576.382 40.2673H573.216L572.242 35.4004C570.904 34.731 569.504 34.3662 568.044 34.3662C564.332 34.3662 562.382 36.0088 562.382 38.5031C562.382 41.1798 563.844 42.2142 567.981 43.735L569.87 44.4041C575.957 46.6552 578.268 49.5145 578.268 53.3472Z" fill="black"/>
</svg>
