<svg width="512" height="70" viewBox="0 0 512 70" fill="none" xmlns="http://www.w3.org/2000/svg">
<path fill-rule="evenodd" clip-rule="evenodd" d="M114.906 0.820854H113.8C107.984 0.811798 103.264 5.52271 103.264 11.3389V34.8617C103.264 39.5591 99.3822 43.3641 94.7619 43.3641C92.0169 43.3641 89.2764 41.9825 87.6502 39.6633L63.6245 5.35059C61.6315 2.50139 58.3882 0.802734 54.8777 0.802734C49.4012 0.802734 44.4729 5.4593 44.4729 11.2075V34.8663C44.4729 39.5636 40.6226 43.3686 35.9706 43.3686C33.2165 43.3686 30.4805 41.987 28.8544 39.6678L1.97043 1.27383C1.36346 0.408653 0 0.834442 0 1.8944V22.4095C0 23.4468 0.317078 24.4525 0.910492 25.304L27.3641 63.0865C28.9268 65.3196 31.2325 66.9775 33.8914 67.58C40.5456 69.0929 46.6698 63.9698 46.6698 57.4425V33.7973C46.6698 29.1 50.4748 25.295 55.1721 25.295H55.1857C58.0168 25.295 60.6712 26.6765 62.2973 28.9958L86.323 63.3039C88.3206 66.1577 91.3963 67.8518 95.0654 67.8518C100.664 67.8518 105.461 63.1907 105.461 57.447V33.7927C105.461 29.0954 109.266 25.2904 113.963 25.2904H114.901C115.49 25.2904 115.966 24.8148 115.966 24.226V1.88081C115.966 1.29195 115.49 0.816322 114.901 0.816322L114.906 0.820854ZM252.831 18.523H246.951C246.353 18.523 245.869 19.0077 245.869 19.6056V66.7601C245.869 67.358 246.353 67.8427 246.951 67.8427H252.831C253.429 67.8427 253.913 67.358 253.913 66.7601V19.6056C253.913 19.0077 253.429 18.523 252.831 18.523ZM246.757 0.807266H253.021C253.619 0.807266 254.104 1.29195 254.104 1.88988V9.59042C254.104 10.1883 253.619 10.673 253.021 10.673H246.757C246.159 10.673 245.674 10.1883 245.674 9.59042V1.88988C245.674 1.29195 246.159 0.807266 246.757 0.807266ZM288.023 17.1822C281.414 17.1822 276.626 19.4788 273.56 22.8353C272.577 23.8319 270.878 23.1343 270.878 21.7346V19.6056C270.878 19.0077 270.393 18.523 269.796 18.523H264.016C263.418 18.523 262.933 19.0077 262.933 19.6056V66.7601C262.933 67.358 263.418 67.8427 264.016 67.8427H269.8C270.398 67.8427 270.883 67.358 270.883 66.7601V36.9092C270.883 26.5633 272.894 24.2667 283.91 24.2667C294.926 24.2667 296.743 26.0877 296.743 36.429V66.7556C296.743 67.3535 297.228 67.8382 297.825 67.8382H303.705C304.303 67.8382 304.788 67.3535 304.788 66.7556V34.2231C304.788 22.4413 298.084 17.1732 288.028 17.1732V17.1822H288.023ZM348.087 23.5057C349.07 24.5023 350.769 23.8047 350.769 22.405V1.89439C350.769 1.29647 351.254 0.811798 351.852 0.811798H357.636C358.234 0.811798 358.719 1.29647 358.719 1.89439V66.7646C358.719 67.3625 358.234 67.8472 357.636 67.8472H351.852C351.254 67.8472 350.769 67.3625 350.769 66.7646V63.9652C350.828 62.5339 349.093 61.8453 348.087 62.8645C345.311 66.3116 339.948 69.1835 332.763 69.1835C320.125 69.1835 311.886 60.1829 311.886 43.4229C311.886 25.7072 321.077 17.1822 333.049 17.1822C340.233 17.1822 345.406 20.0586 348.087 23.5057ZM320.596 43.2282C320.596 59.4129 322.608 61.8091 335.73 61.8091C348.758 61.8091 350.769 59.4129 350.769 43.2282C350.769 27.0435 348.853 24.5521 335.73 24.5521C322.608 24.5521 320.596 27.0435 320.596 43.2282ZM392.339 40.1706L382.862 38.5444C375.868 37.2987 374.623 35.1924 374.623 31.5505C374.718 26.5678 376.634 24.081 385.924 24.081C394.626 24.081 397.412 26.6539 398.01 32.2073C398.069 32.7554 398.531 33.1767 399.083 33.1767H404.832C405.448 33.1767 405.95 32.6603 405.914 32.0397C405.357 22.5047 396.628 17.1777 386.214 17.1777C374.528 17.1777 366.773 23.4015 366.773 32.3115C366.773 40.4514 373.096 43.9982 380.661 45.4341L391.102 47.3502C396.85 48.4056 398.766 50.3217 398.766 53.9591C398.766 59.8024 396.755 62.2938 386.889 62.2938C377.023 62.2938 374.297 59.4491 373.662 53.6828C373.604 53.1347 373.142 52.7179 372.589 52.7179H366.804C366.197 52.7179 365.704 53.2207 365.717 53.8277C365.994 64.1011 375.307 69.1926 386.405 69.1926C398.472 69.1926 406.802 62.9687 406.802 53.5786C406.802 45.3435 400.478 41.6065 392.339 40.1706ZM434.202 62.1035C444.928 62.1035 446.939 59.8069 446.939 49.4611V19.6192C446.939 19.0213 447.424 18.5366 448.022 18.5366H453.902C454.5 18.5366 454.984 19.0213 454.984 19.6192V66.7737C454.984 67.3716 454.5 67.8563 453.902 67.8563H448.022C447.424 67.8563 446.939 67.3716 446.939 66.7737V64.7172C446.917 63.2541 445.399 62.5248 444.353 63.5485C441.291 66.9005 436.503 69.1971 430.084 69.1971C420.219 69.1971 413.515 63.929 413.515 52.1472V19.6147C413.515 19.0168 413.999 18.5321 414.597 18.5321H420.477C421.075 18.5321 421.559 19.0168 421.559 19.6147V49.9412C421.559 60.2826 423.475 62.1035 434.202 62.1035ZM502.03 18.523V12.1995C502.03 9.71272 504.046 7.69698 506.533 7.69698H510.908C511.506 7.69698 511.991 7.2123 511.991 6.61438V1.88535C511.991 1.28742 511.506 0.802734 510.908 0.802734H507.873C499.253 0.802734 493.985 5.59066 493.985 13.8302V18.523H487.612C481.963 18.5321 477.529 19.3067 474.571 22.8353C473.484 23.8636 471.984 23.0935 471.984 21.5987V19.6102C471.984 19.0122 471.5 18.5276 470.902 18.5276H465.022C464.424 18.5276 463.94 19.0122 463.94 19.6102V66.7646C463.94 67.3625 464.424 67.8472 465.022 67.8472H470.902C471.5 67.8472 471.984 67.3625 471.984 66.7646V37.2036C471.984 27.433 474.476 25.1364 485.202 25.1364H493.985V66.7691C493.985 67.3671 494.47 67.8518 495.068 67.8518H500.947C501.545 67.8518 502.03 67.3671 502.03 66.7691V25.1364H510.917C511.515 25.1364 512 24.6518 512 24.0538V19.6147C512 19.0168 511.515 18.5321 510.917 18.5321H502.03V18.523ZM213.133 55.5445C213.341 56.4097 214.116 57.0212 215.004 57.0212H215.008C215.891 57.0212 216.661 56.4187 216.874 55.5626L230.359 1.62715C230.482 1.14246 230.916 0.802734 231.415 0.802734H238.146C238.866 0.802734 239.392 1.4822 239.21 2.17978L222.247 67.0591C222.124 67.5166 221.712 67.8382 221.236 67.8382H209.228C208.743 67.8382 208.322 67.5075 208.2 67.041L194.108 12.7703C193.89 11.9232 193.125 11.3298 192.246 11.3298H192.124C191.25 11.3298 190.484 11.9232 190.262 12.7703L176.175 67.041C176.052 67.5121 175.631 67.8382 175.146 67.8382H163.138C162.663 67.8382 162.246 67.5166 162.128 67.0591L145.164 2.17978C144.983 1.4822 145.508 0.802734 146.229 0.802734H152.96C153.458 0.802734 153.893 1.14246 154.015 1.62715L167.496 55.5626C167.709 56.4187 168.474 57.0212 169.362 57.0212C170.25 57.0212 171.024 56.4097 171.233 55.5445L184.192 1.63622C184.31 1.147 184.745 0.802734 185.248 0.802734H199.122C199.625 0.802734 200.06 1.147 200.178 1.63622L213.133 55.5445Z" fill="#0B100F"/>
</svg>
