<?xml version="1.0" encoding="UTF-8"?>
<svg id="Layer_1" xmlns="http://www.w3.org/2000/svg" version="1.1" viewBox="0 0 432 132">
  <!-- Generator: Adobe Illustrator 29.3.1, SVG Export Plug-In . SVG Version: 2.1.0 Build 151)  -->
  <defs>
    <style>
      .st0, .st1 {
        fill: #2582ff;
      }

      .st1 {
        fill-rule: evenodd;
      }
    </style>
  </defs>
  <g>
    <path class="st0" d="M96.7,35.7c-1.1-.7-26.6-15.8-32.5-19-2.3-1.3-4.9-1.9-7.5-1.7-2,.1-3.9.7-5.6,1.5h0c-.3.2-27.6,15.7-33,18.5-3.6,1.9-7,6-7,9.4v40.4c-.1,6.9,3.6,9.2,4.7,9.8,2,1.2,31.2,18.5,34.9,20.7,1.7,1,3.7,1.6,5.7,1.6,2,0,4-.5,5.8-1.4,1.3-.8,32.5-18.5,35.8-20.6h.1c4.1-3.1,4.8-8.8,4.8-9.5v-39.3c.1-6.9-5.8-10.3-6-10.4ZM97.2,47.9l-.5,37.3c0,1.6-.5,3.9-2.1,5-3.7,2.3-35.2,20.3-35.5,20.5-1.8.9-4,.9-5.8,0-3.8-2.3-34.7-20.6-35-20.8h-.1c0,0-.2-.2-.2-.2-.3-.2-1.6-1.3-1.6-4.6l.4-40c.4-2.1,1.8-4,3.7-5,5.4-2.8,31.3-17.5,33.1-18.5,1.1-.5,2.3-.8,3.5-.9.6,0,1.2,0,1.8,0,.6.1,1.1.4,1.6.6l4.1,2.4s2.9,1.4.1,3.3c-2.6,1.5-36.3,20.5-36.3,20.5-.8.5-1.3,1.3-1.3,2.3,0,1.7-.2,33.2-.2,33.2l6.7,3.8c.1,0,.3,0,.3-.2l.3-32.6c0-1.6,1.1-2.2,2.2-2.8,1.8-1,36.3-20.3,36.3-20.3,0,0,.8-.8,2.9-.6,1.3,0,6.3,3.7,6.3,3.7.1,0,.2.2.3.3,1.3,1.2,1.1,2.3-.2,3-2.3,1.3-35.5,20.1-35.5,20.1l-1.1.6c-.9.6-.9,1.5-.9,2.4l-.3,32.4,6.6,3.9s.5.3.5-.2.3-32,.3-32c0-1.6.9-2.3,1.9-3,2-1.1,36.4-20.5,36.4-20.5l.9-.4s2-.9,4.2,1.3c.5.5,2.1,1.5,2.1,5.3,0,.1,0,.3,0,.4h0Z"/>
    <path class="st1" d="M85.9,55.2c-1,.5-22.9,13-22.9,13-.8.5-1.2,1.3-1.2,2.2l-.3,26.3s0,.6.9,0c1.2-.7,23-13,23-13,1-.6.9-1.6.9-2.5,0-1.9.3-26,.3-26,0,0,0-.5-.8,0ZM79.4,70.1v6.9c0,.7-.3,1.4-.9,1.8,0,0-6.2,3.5-7.7,4.3-.2,0-.3,0-.5,0-.7,0-1.4-.6-1.4-1.3v-7.1c.1-.6.1-1.1.8-1.5l7.7-4.3s0,0,.1,0c.8-.3,1.8.1,1.8.9v.3Z"/>
  </g>
  <g>
    <polygon class="st0" points="185.2 40.4 170.3 88.2 161.4 88.2 151.7 55.2 150.6 51 149.6 55.2 139.9 88.2 130.9 88.2 116 40.4 124.3 40.4 134.6 76 135.7 80.1 136.7 76 147 40.4 154.8 40.4 165 76 166 80.2 167 76 177.2 40.4 185.2 40.4"/>
    <path class="st0" d="M190,46.1v-8.5h7.5v8.5h-7.5ZM190,88.2v-37.4h7.5v37.4h-7.5Z"/>
    <path class="st0" d="M210.5,60.6c0,1.4.4,2.4,1.3,3.1.8.7,2,1.3,3.4,1.7,1.5.4,3,.7,4.7,1,1.7.3,3.4.6,5.1,1,1.7.4,3.2,1,4.7,1.7,1.4.7,2.6,1.7,3.4,3.1.9,1.3,1.3,3.1,1.3,5.3s-.7,4.4-2,6.2c-1.3,1.8-3.1,3.1-5.4,4.1-2.3,1-5,1.4-8,1.4-4.5,0-8.3-1.1-11.3-3.2-3-2.1-4.9-5.4-5.6-9.9h7.5c.4,2.3,1.4,4.1,3.1,5.4,1.7,1.3,3.8,1.9,6.5,1.9s4.4-.5,5.8-1.5c1.3-1,2-2.3,2-3.9s-.4-2.3-1.3-3.1c-.8-.7-2-1.3-3.4-1.7-1.4-.4-3-.7-4.7-.9-1.7-.3-3.4-.6-5-1-1.7-.4-3.2-1-4.6-1.7-1.4-.7-2.5-1.8-3.4-3.1s-1.3-3.1-1.3-5.3.5-3.8,1.5-5.5c1-1.7,2.6-3.1,4.6-4.1,2.1-1.1,4.7-1.6,7.9-1.6s5.3.5,7.5,1.4c2.2.9,4,2.3,5.5,4.3,1.5,1.9,2.4,4.5,2.7,7.5h-7.5c-.4-2.6-1.4-4.5-2.8-5.6-1.5-1.1-3.4-1.7-5.8-1.7s-3.7.5-4.8,1.4c-1.1.9-1.7,2.1-1.7,3.5Z"/>
    <path class="st0" d="M264.5,75.9c-.7,2.4-1.8,4.1-3.4,5.2-1.6,1.1-3.6,1.7-6,1.7s-5.7-1.2-7.5-3.5c-1.6-2.1-2.4-4.9-2.6-8.5h27.1v-1.8c0-4-.7-7.5-2.1-10.3-1.4-2.9-3.4-5.1-6-6.6-2.6-1.6-5.7-2.4-9.3-2.4s-6.6.8-9.2,2.3c-2.6,1.5-4.7,3.8-6.1,6.7-1.4,2.9-2.1,6.5-2.1,10.8s.7,7.5,2.1,10.5,3.5,5.2,6.2,6.8c2.7,1.6,5.8,2.4,9.5,2.4s8.1-1.1,11.1-3.3c3.1-2.2,5.1-5.5,6.1-9.8h-7.9ZM247.4,59.5c1.7-2.3,4.1-3.5,7.3-3.5s5.5,1.2,7.2,3.4c1.2,1.6,2,3.7,2.3,6.3h-19.1c.4-2.6,1.1-4.7,2.3-6.3Z"/>
    <path class="st0" d="M301.7,37.6v17.4c0,0,0-.1-.1-.2-2.5-3.4-5.9-5.1-10.1-5.1s-8.7,1.7-11.6,5.1c-2.9,3.4-4.3,8.3-4.3,14.6s.6,7.5,1.9,10.5c1.3,3,3.1,5.2,5.5,6.8,2.4,1.6,5.2,2.4,8.5,2.4s5.3-.8,7.3-2.4c1.1-.8,2-1.8,2.8-3v4.5h7.5v-50.6h-7.5ZM299.3,79.3c-1.6,2.3-3.9,3.4-6.9,3.4s-5.2-1.2-6.8-3.4c-1.6-2.3-2.4-5.6-2.4-9.8s.8-7.7,2.3-10c1.6-2.3,3.8-3.4,6.8-3.4s5.2,1.2,6.8,3.5c1.6,2.3,2.4,5.6,2.4,9.9s-.8,7.6-2.3,9.9Z"/>
    <path class="st0" d="M331.8,89.1c-3.6,0-6.7-.8-9.3-2.4-2.6-1.6-4.6-3.8-6-6.8-1.4-2.9-2.1-6.4-2.1-10.5s.7-7.9,2.1-10.8c1.4-2.9,3.5-5.1,6.1-6.7,2.6-1.5,5.7-2.3,9.2-2.3s6.8.8,9.4,2.4c2.6,1.6,4.6,3.9,6,6.8,1.4,2.9,2.1,6.5,2.1,10.6s-.7,7.7-2.1,10.6c-1.4,2.9-3.4,5.2-6,6.7-2.6,1.5-5.7,2.3-9.3,2.3ZM331.8,82.7c3.2,0,5.6-1.1,7.3-3.4,1.7-2.3,2.5-5.6,2.5-9.8s-.8-7.6-2.5-9.9-4.1-3.5-7.3-3.5-5.6,1.1-7.3,3.4c-1.7,2.3-2.5,5.6-2.5,10s.9,7.5,2.6,9.8c1.7,2.3,4.1,3.4,7.3,3.4Z"/>
    <path class="st0" d="M386.2,63.8h-7.5c-.5-2.7-1.5-4.6-3.1-5.9-1.6-1.2-3.5-1.9-5.7-1.9-3.1,0-5.5,1.1-7.2,3.4-1.6,2.3-2.5,5.6-2.5,10s.9,7.5,2.6,9.9c1.7,2.3,4.1,3.5,7.3,3.5s4.1-.6,5.7-1.8c1.5-1.2,2.6-3,3.1-5.4h7.4c-.8,4.7-2.7,8.1-5.7,10.3-3,2.2-6.5,3.2-10.7,3.2s-6.7-.8-9.3-2.4c-2.6-1.6-4.6-3.8-6-6.8-1.4-2.9-2.1-6.4-2.1-10.5s.7-7.9,2.1-10.8c1.4-2.9,3.4-5.1,6-6.7,2.6-1.5,5.6-2.3,9.2-2.3s5.4.5,7.7,1.6c2.3,1.1,4.2,2.6,5.7,4.7,1.5,2.1,2.5,4.7,2.9,7.8Z"/>
    <path class="st0" d="M397.3,60.6c0,1.4.4,2.4,1.3,3.1.8.7,2,1.3,3.4,1.7,1.5.4,3,.7,4.7,1,1.7.3,3.4.6,5.1,1,1.7.4,3.2,1,4.7,1.7,1.4.7,2.6,1.7,3.4,3.1.9,1.3,1.3,3.1,1.3,5.3s-.7,4.4-2,6.2c-1.3,1.8-3.1,3.1-5.4,4.1s-5,1.4-8,1.4c-4.5,0-8.3-1.1-11.3-3.2-3-2.1-4.9-5.4-5.6-9.9h7.5c.4,2.3,1.4,4.1,3.1,5.4s3.8,1.9,6.5,1.9,4.4-.5,5.8-1.5c1.3-1,2-2.3,2-3.9s-.4-2.3-1.3-3.1c-.8-.7-2-1.3-3.4-1.7-1.4-.4-3-.7-4.7-.9-1.7-.3-3.4-.6-5-1-1.7-.4-3.2-1-4.6-1.7-1.4-.7-2.5-1.8-3.4-3.1-.8-1.3-1.3-3.1-1.3-5.3s.5-3.8,1.5-5.5c1-1.7,2.6-3.1,4.6-4.1,2.1-1.1,4.7-1.6,7.9-1.6s5.3.5,7.5,1.4c2.2.9,4,2.3,5.5,4.3,1.5,1.9,2.4,4.5,2.7,7.5h-7.5c-.4-2.6-1.4-4.5-2.8-5.6-1.5-1.1-3.4-1.7-5.8-1.7s-3.7.5-4.8,1.4c-1.1.9-1.7,2.1-1.7,3.5Z"/>
  </g>
</svg>