<svg width="618" height="120" viewBox="0 0 618 120" fill="none" xmlns="http://www.w3.org/2000/svg">
<g clip-path="url(#clip0_947_269)">
<path d="M568.933 72.9033H551.626C551.626 90.1922 565.518 101.687 585.326 101.687C604.792 101.687 618 91.4465 618 76.3C618 58.1534 605.273 55.4958 589.28 52.156C588.426 51.9779 587.562 51.7972 586.692 51.6128C575.08 49.2229 571.323 46.7231 571.323 40.2381C571.323 34.0941 576.676 29.8865 585.326 29.8865C593.863 29.8865 599.668 34.5539 599.668 42.0633H616.975C616.975 26.5922 604.902 16.353 585.326 16.353C566.542 16.353 554.247 27.2756 554.247 41.7223C554.247 59.02 568.249 63.4574 581.457 66.076C595.92 68.9181 600.471 70.7446 600.471 77.6819C600.471 83.8271 594.546 88.1534 585.897 88.1534C575.652 88.1534 568.933 82.6916 568.933 72.9033Z" fill="#2B333B"/>
<path fill-rule="evenodd" clip-rule="evenodd" d="M466.137 59.3245C466.137 33.724 482.078 16.6562 505.984 16.6562C529.89 16.6562 545.829 33.724 545.829 59.3245C545.829 84.9249 529.89 101.991 505.984 101.991C482.078 101.991 466.137 84.9249 466.137 59.3245ZM529.318 59.3245C529.318 41.9156 519.986 30.191 505.975 30.191C491.965 30.191 482.641 41.9156 482.641 59.3245C482.641 76.732 491.973 88.4579 505.975 88.4579C519.977 88.4579 529.318 76.732 529.318 59.3245Z" fill="#2B333B"/>
<path d="M196.342 17.4887H179.267L201.354 100.553H220.93L233.226 50.2575C235.727 39.3337 235.957 34.4441 235.957 34.4441H236.188C236.188 34.4441 236.418 39.3337 239.151 50.2575L252.239 100.553H271.253L292.879 17.4874H275.804L263.962 68.1262C261.691 78.0243 261.461 83.375 261.461 83.375H261.118C261.118 83.375 260.547 78.0243 258.156 68.1262L245.75 17.4887H226.395L214.673 68.1262C212.393 77.802 211.598 83.375 211.598 83.375H211.368C211.368 83.375 210.916 77.6832 208.636 68.1262L196.342 17.4887Z" fill="#2B333B"/>
<path fill-rule="evenodd" clip-rule="evenodd" d="M320.884 39.0862C302.323 39.0862 290.028 51.3742 290.028 70.3784C290.028 89.4925 302.331 101.892 320.884 101.9C339.326 101.9 351.621 89.4925 351.621 70.3784C351.621 51.3742 339.326 39.0862 320.884 39.0862ZM320.884 51.143C329.763 51.143 335.68 58.0904 335.68 70.3784C335.68 82.0942 330.447 89.8348 320.884 89.8348C311.885 89.8348 305.968 82.8963 305.968 70.3784C305.968 58.8836 311.322 51.143 320.884 51.143Z" fill="#2B333B"/>
<path d="M359.245 40.0171H374.383V51.1707H374.724C377.345 45.3678 383.604 39.5649 394.302 39.5649C396.12 39.5649 397.264 39.7948 398.059 40.0171V55.1472H397.607C397.607 55.1472 396.24 54.695 392.483 54.695C380.761 54.695 374.383 61.6322 374.383 74.6023V100.545H359.245V40.0171ZM420.257 17.4886H405.119V100.545H420.257V81.0886L425.951 75.5156L448.039 100.553H465.916L435.292 66.1884L461.69 40.0158H442.796L420.257 62.6554H420.027C420.027 62.6554 420.257 59.8133 420.257 44.1122V17.4886Z" fill="#2B333B"/>
<path d="M0 58.636C0 61.2179 0.679925 63.7998 1.99428 66.0192L25.8296 107.279C28.2751 111.49 31.9907 114.932 36.6124 116.472C45.7206 119.506 55.1461 115.612 59.6326 107.822L65.3867 97.8584L42.685 58.6373L72.4096 7.14215C74.1322 4.15352 76.4437 1.70804 79.1621 -0.239746H42.1858C35.7062 -0.239746 29.7247 3.20236 26.5083 8.81709L1.99428 51.2567C0.679925 53.4735 0 56.0554 0 58.636Z" fill="#6363F1"/>
<path d="M135.939 58.636C135.939 56.0553 135.26 53.4734 133.946 51.2541L109.793 9.4524C105.308 1.70798 95.8823 -2.1876 86.7741 0.801034C82.1524 2.34209 78.4368 5.78419 75.99 9.99556L70.5519 19.3707L93.2536 58.6372L63.5289 110.131C61.8238 113.04 59.5232 115.555 56.7777 117.513H93.7528C100.232 117.513 106.214 114.072 109.432 108.456L133.946 66.0191C135.26 63.7998 135.939 61.2179 135.939 58.636Z" fill="#6363F1"/>
</g>
<defs>
<clipPath id="clip0_947_269">
<rect width="618" height="120" fill="white"/>
</clipPath>
</defs>
</svg>
