<svg width="169" height="54" viewBox="0 0 169 54" fill="none" xmlns="http://www.w3.org/2000/svg">
<path d="M7.84927 53.9369L2.12457 0H12.5784L15.5652 34.0323L18.552 0H28.508L31.3704 34.0323L34.2326 0H44.811L38.9618 53.9369H26.1434L23.4678 27.9416L20.9165 53.9369H7.84927Z" fill="black"/>
<path d="M47.8455 0H64.273C66.8865 0 68.8984 0.606972 70.3088 1.82091C71.7608 2.993 72.7356 4.6674 73.2334 6.84413C73.7311 8.979 73.9801 11.7208 73.9801 15.0697C73.9801 18.1255 73.586 20.5115 72.7978 22.2278C72.0096 23.9441 70.6407 25.137 68.691 25.8068C70.3088 26.1417 71.4703 26.9579 72.1756 28.2556C72.9223 29.5533 73.2955 31.3114 73.2955 33.53L73.1712 53.9369H62.7173V32.8393C62.7173 31.3323 62.427 30.3696 61.8462 29.951C61.2655 29.5323 60.2076 29.3231 58.6727 29.3231V53.9369H47.8455V0ZM61.2861 19.9673C62.7797 19.9673 63.5263 18.3347 63.5263 15.0697C63.5263 13.6464 63.464 12.579 63.3395 11.8674C63.2152 11.1557 62.9871 10.6743 62.6552 10.4232C62.3233 10.1302 61.8462 9.98364 61.224 9.98364H58.735V19.9673H61.2861Z" fill="black"/>
<path d="M77.0019 53.9369V0H87.3311V53.9369H77.0019Z" fill="black"/>
<path d="M96.2022 53.9369V10.3604H89.8553V0H113.252V10.3604H106.905V53.9369H96.2022Z" fill="black"/>
<path d="M116.269 53.9369V0H137.674V10.4232H127.158V20.9091H137.239V31.0812H127.158V43.4509H138.359V53.9369H116.269Z" fill="black"/>
<path d="M140.978 0H157.405C160.018 0 162.031 0.606972 163.441 1.82091C164.893 2.993 165.868 4.6674 166.366 6.84413C166.864 8.979 167.113 11.7208 167.113 15.0697C167.113 18.1255 166.718 20.5115 165.93 22.2278C165.142 23.9441 163.774 25.137 161.824 25.8068C163.441 26.1417 164.603 26.9579 165.309 28.2556C166.054 29.5533 166.428 31.3114 166.428 33.53L166.303 53.9369H155.85V32.8393C155.85 31.3323 155.56 30.3696 154.978 29.951C154.398 29.5323 153.34 29.3231 151.805 29.3231V53.9369H140.978V0ZM154.419 19.9673C155.912 19.9673 156.658 18.3347 156.658 15.0697C156.658 13.6464 156.597 12.579 156.472 11.8674C156.348 11.1557 156.119 10.6743 155.788 10.4232C155.456 10.1302 154.978 9.98364 154.357 9.98364H151.867V19.9673H154.419Z" fill="black"/>
</svg>
