<svg width="594" height="120" viewBox="0 0 594 120" fill="none" xmlns="http://www.w3.org/2000/svg">
<g clip-path="url(#clip0_444_226)">
<mask id="mask0_444_226" style="mask-type:luminance" maskUnits="userSpaceOnUse" x="0" y="0" width="594" height="120">
<path d="M594 0H0V120H594V0Z" fill="white"/>
</mask>
<g mask="url(#mask0_444_226)">
<mask id="mask1_444_226" style="mask-type:luminance" maskUnits="userSpaceOnUse" x="-1" y="0" width="595" height="120">
<path d="M-0.104248 0H593.896V120H-0.104248V0Z" fill="white"/>
</mask>
<g mask="url(#mask1_444_226)">
<path d="M593.76 35.1504H580.9V84.7293H593.76V35.1504Z" fill="black"/>
<path d="M594.253 16.2627H580.433V28.3511H594.253V16.2627Z" fill="black"/>
<path d="M545.883 76.1147C552.126 76.1147 559.03 71.7947 559.03 62.782V60.6694C556.246 62.782 551.734 63.4547 547.042 64.0262C541.472 64.6957 538.682 66.8115 538.682 70.4589C538.682 74.1062 541.763 76.1147 545.883 76.1147ZM550.101 33.8052C562.281 33.8052 571.798 39.2683 571.798 52.5125L571.791 52.522V75.0568H576.205V84.7389H566.606C562.866 84.7389 559.788 81.9536 559.788 78.2178V77.3494H559.497C555.365 82.9136 549.516 85.8915 542.512 85.8915C532.448 85.8883 525.532 80.0399 525.532 70.3452C525.532 61.6104 532.54 57.0157 544.442 56.062C555.188 55.1968 558.938 54.142 558.938 50.302C558.938 45.9789 555.393 43.6799 550.113 43.6799C544.164 43.6799 540.322 45.7862 540.129 51.5462H527.744C527.744 42.0536 536.483 33.8052 550.101 33.8052Z" fill="black"/>
<path d="M516.979 71.8989H504.12V84.7452H516.979V71.8989Z" fill="black"/>
<path d="M499.285 35.1504H504.287H504.281V47.0493H497.465C489.886 47.0493 484.988 51.7483 484.988 61.1399V84.7293H472.028V35.1504H484.609V45.5083H484.991C488.258 38.8862 493.244 35.1504 499.285 35.1504Z" fill="black"/>
<path d="M441.415 43.6894C435.667 43.6894 431.342 47.6146 429.993 54.6188H452.543C451.68 47.2357 447.162 43.6894 441.415 43.6894ZM416.849 59.7915C416.849 44.7283 425.778 33.7988 441.317 33.7988C456.855 33.7988 465.595 44.0557 465.595 59.7915C465.595 60.363 465.598 62.3809 465.494 63.2462H429.693C430.644 71.2009 434.881 75.6125 441.977 75.6125C447.165 75.6125 450.903 72.9346 452.441 68.4188H465.02C462.612 80.0209 453.494 85.8694 441.99 85.8694V85.8851C425.863 85.8851 416.849 74.8546 416.849 59.7915Z" fill="black"/>
<path d="M374.03 59.8101C374.03 67.9574 377.575 75.5427 386.122 75.5427C394.672 75.5427 398.22 67.9732 398.22 59.8101C398.22 51.6469 394.669 44.1753 386.122 44.1753C377.575 44.1753 374.03 51.6627 374.03 59.8101ZM397.648 41.7595H397.939V41.7564V16.2627H410.795V84.748H397.939V78.0374H397.648C394.293 83.6932 388.046 85.9069 382.959 85.9069V85.888C368.754 85.888 360.691 73.9069 360.691 59.7974C360.691 45.688 368.754 33.8048 382.959 33.8048C388.046 33.8048 394.293 36.1037 397.648 41.7595Z" fill="black"/>
<path d="M322.04 43.6894C325.499 36.7894 331.051 33.8147 338.059 33.8147L338.065 33.8115C350.627 33.8115 355.139 41.1063 355.139 51.5526V84.7389H342.286V53.3684C342.286 48.0947 339.496 44.4473 334.134 44.4473C326.258 44.4473 322.229 50.8831 322.229 58.8378V84.742H309.376V35.1473H321.746V43.6894H322.04Z" fill="black"/>
<path d="M274.719 76.1147C280.952 76.1147 287.872 71.7947 287.872 62.782H287.875V60.6694C285.088 62.782 280.573 63.4547 275.881 64.0262C270.311 64.6957 267.54 66.7073 267.54 70.4589H267.524C267.524 74.1062 270.598 76.1147 274.719 76.1147ZM278.959 33.8052C291.142 33.8052 300.655 39.2683 300.655 52.5125L300.649 52.522V75.0568H305.063V84.7389H295.464C291.727 84.7389 288.646 81.9536 288.646 78.2178V77.3494H288.355C284.238 82.9168 278.374 85.8915 271.366 85.8915C261.294 85.8915 254.377 80.0462 254.377 70.3452C254.377 61.6104 261.382 57.0157 273.287 56.062C284.03 55.1968 287.783 54.142 287.783 50.302C287.783 45.9789 284.235 43.6799 278.959 43.6799C273.003 43.6799 269.167 45.7862 268.974 51.5462H256.602C256.602 42.0536 265.341 33.8052 278.959 33.8052Z" fill="black"/>
<path d="M212.993 59.8073C212.993 67.8663 216.643 75.5431 225.085 75.5431C233.527 75.5431 237.18 67.8663 237.18 59.8073C237.18 51.7484 233.632 44.1726 225.085 44.1726C216.538 44.1726 212.993 51.7484 212.993 59.8073ZM213.565 41.7694C216.924 36.1136 223.164 33.8147 228.339 33.8147V33.8115C242.44 33.8115 250.504 45.7926 250.504 59.8042C250.504 73.8157 242.44 85.901 228.339 85.901C223.151 85.901 216.924 83.6873 213.565 78.0315H213.271V103.734H200.418V35.1473H213.271V41.7694H213.565Z" fill="black"/>
<path d="M180.721 35.1504H195.881L178.892 59.0304L197.214 84.7293H182.146L171.021 66.6914L159.792 84.7293H144.658L163.075 58.942L146.086 35.1504H161.243L171.034 50.5925L180.721 35.1504Z" fill="black"/>
<path d="M144.658 85.2061L144.648 85.225L144.633 85.2061H144.658Z" fill="black"/>
<mask id="mask2_444_226" style="mask-type:luminance" maskUnits="userSpaceOnUse" x="2" y="-1" width="121" height="121">
<path d="M2.52441 -0.530762H122.588V119.469H2.52441V-0.530762Z" fill="white"/>
</mask>
<g mask="url(#mask2_444_226)">
<path d="M68.0645 82.4115V64.9717H85.5103L106.261 91.5779V103.148H94.6848L68.0645 82.4115Z" fill="black"/>
<path d="M18.8506 103.148V91.5779L39.6017 64.9717H57.0508V82.4115L30.4272 103.148H18.8506Z" fill="black"/>
<path d="M68.0645 36.5277L94.6848 15.7876H106.261V27.3581L85.5103 53.9675H68.0645V36.5277Z" fill="black"/>
<path d="M57.0508 36.5277V53.9675H39.6017L18.8506 27.3581V15.7876H30.4272L57.0508 36.5277Z" fill="black"/>
</g>
</g>
</g>
</g>
<defs>
<clipPath id="clip0_444_226">
<rect width="594" height="120" fill="white"/>
</clipPath>
</defs>
</svg>
