<svg width="95" height="25" viewBox="0 0 95 25" fill="none" xmlns="http://www.w3.org/2000/svg">
<g clip-path="url(#clip0_2557_159)">
<path d="M22.3087 17.0668L22.2954 17.0257L30.7422 9.54423V5.93945H17.1907V9.54423H25.2851L25.2984 9.57877L16.9341 17.0668V20.6716H30.8783V17.0668H22.3087Z" fill="black"/>
<path d="M39.1961 5.59619C37.633 5.59619 36.3591 5.82428 35.3743 6.28046C34.4572 6.67801 33.6844 7.33303 33.1566 8.16055C32.6518 8.99351 32.3347 9.92038 32.2264 10.8803L36.3382 11.4394C36.4869 10.5918 36.7845 9.99101 37.2306 9.637C37.7379 9.26674 38.363 9.07967 38.9976 9.10816C39.8321 9.10816 40.4374 9.32402 40.8138 9.75571C41.1864 10.1874 41.376 10.7853 41.376 11.5732V11.9661H37.4225C35.41 11.9661 33.9643 12.3978 33.0854 13.2612C32.2062 14.1246 31.7675 15.2643 31.769 16.6803C31.769 18.1309 32.2078 19.2102 33.0854 19.9181C33.9628 20.6262 35.0665 20.978 36.3963 20.9736C38.0457 20.9736 39.3145 20.4247 40.2024 19.3267C40.7268 18.6519 41.1013 17.8796 41.3023 17.0581H41.4518L42.0186 20.6628H45.7445V11.5344C45.7445 9.64779 45.2305 8.18647 44.2028 7.15036C43.1749 6.11426 41.5062 5.59619 39.1961 5.59619ZM40.4992 16.8487C39.9079 17.3257 39.1338 17.5632 38.17 17.5632C37.3756 17.5632 36.8238 17.4286 36.5145 17.1595C36.3638 17.0322 36.2437 16.8744 36.1632 16.6971C36.0826 16.52 36.0433 16.3278 36.0482 16.1342C36.0393 15.9517 36.0691 15.7694 36.1354 15.5983C36.2017 15.4272 36.3034 15.271 36.4341 15.1391C36.5755 15.0108 36.7423 14.9116 36.9245 14.8474C37.1067 14.7832 37.3003 14.7554 37.4939 14.7657H41.3827V15.0139C41.3906 15.3648 41.315 15.7128 41.1619 16.0309C41.0086 16.349 40.7819 16.6288 40.4992 16.8487Z" fill="black"/>
<path d="M68.2725 5.93945H63.8706V20.6736H68.2725V5.93945Z" fill="black"/>
<path d="M94.2606 5.93945C93.0173 5.93945 92.0371 6.36396 91.3202 7.213C90.8055 7.82315 90.4143 8.72471 90.1466 9.91765H90.0172L89.4417 5.93945H85.6821V20.6716H90.0842V13.1166C90.0842 12.164 90.3147 11.4337 90.7758 10.9257C91.2368 10.4177 92.0876 10.1637 93.3281 10.1637H94.9992V5.93945H94.2606Z" fill="black"/>
<path d="M81.3182 6.42114C80.2904 5.8297 78.9943 5.5347 77.4294 5.53614C74.9665 5.53614 73.0387 6.21465 71.6466 7.57165C70.2543 8.92866 69.5583 10.7994 69.5583 13.1839C69.5228 14.6255 69.848 16.054 70.5064 17.3477C71.1091 18.5005 72.0477 19.4573 73.2061 20.0998C74.3721 20.7518 75.7591 21.0785 77.3669 21.0798C78.7577 21.0798 79.9194 20.8726 80.8519 20.4583C81.7287 20.086 82.4922 19.5026 83.0696 18.7638C83.6194 18.0384 84.0277 17.222 84.2744 16.3548L80.4816 15.3273C80.322 15.8912 80.0146 16.4058 79.5892 16.821C79.1607 17.2355 78.4431 17.4427 77.4361 17.4427C76.2389 17.4427 75.3465 17.111 74.7588 16.4476C74.3328 15.9684 74.0651 15.2841 73.9467 14.397H84.3325C84.3749 13.9825 84.3971 13.635 84.3971 13.3544V12.437C84.4222 11.2046 84.159 9.98263 83.6274 8.86246C83.1298 7.84202 82.3248 6.99103 81.3182 6.42114ZM77.3023 9.04809C79.0872 9.04809 80.0993 9.89783 80.3387 11.5973H74.0248C74.1251 11.0303 74.368 10.4958 74.7322 10.041C75.3107 9.37763 76.1674 9.04665 77.3023 9.04809Z" fill="black"/>
<path d="M66.1187 0.00138213C65.7875 -0.00951395 65.4575 0.0441046 65.1481 0.159055C64.8388 0.274006 64.5567 0.447936 64.3182 0.670517C64.0832 0.89523 63.8989 1.16478 63.7771 1.46204C63.6553 1.75931 63.5987 2.07779 63.611 2.39733C63.5991 2.71893 63.6559 3.03945 63.7777 3.33888C63.8996 3.63833 64.0839 3.91026 64.3192 4.1377C64.5546 4.36515 64.8358 4.54324 65.1453 4.66086C65.455 4.77849 65.7863 4.83313 66.1187 4.82136C66.4489 4.83344 66.7783 4.77882 67.0856 4.66101C67.3928 4.54322 67.6713 4.36478 67.9035 4.1371C68.1338 3.90706 68.3135 3.63436 68.4319 3.33537C68.5505 3.03638 68.6052 2.71732 68.5928 2.39733C68.608 2.07925 68.5546 1.76158 68.4357 1.46462C68.317 1.16767 68.1355 0.897954 67.9029 0.672691C67.6702 0.447428 67.3917 0.271572 67.0848 0.156354C66.778 0.0411373 66.4496 -0.0109039 66.1209 0.00354276L66.1187 0.00138213Z" fill="black"/>
<path d="M57.0267 5.53613C55.5276 5.53613 54.3228 5.99157 53.4125 6.90247C52.7385 7.57738 52.2442 8.58472 51.9288 9.92444H51.7882L51.2127 5.94624H47.4531V24.907H51.855V17.0973H52.0158C52.1501 17.618 52.3384 18.1243 52.578 18.6082C52.9504 19.3967 53.5611 20.0575 54.3294 20.5035C55.1261 20.9241 56.0235 21.1334 56.9307 21.1101C58.7737 21.1101 60.177 20.4158 61.1409 19.027C62.1046 17.6384 62.5866 15.7007 62.5866 13.2141C62.5866 10.8123 62.1204 8.93225 61.1877 7.5738C60.2551 6.21536 58.8681 5.53613 57.0267 5.53613ZM57.473 16.2123C56.9598 16.9318 56.1566 17.2916 55.0634 17.2916C54.6127 17.3117 54.1634 17.2276 53.753 17.0463C53.3424 16.865 52.9825 16.5917 52.703 16.249C52.1332 15.5568 51.8492 14.6092 51.8507 13.4062V13.1256C51.8507 11.9038 52.1347 10.9685 52.703 10.3195C53.2711 9.67047 54.0579 9.34955 55.0634 9.35676C56.176 9.35676 56.9843 9.69852 57.4885 10.3821C57.9928 11.0656 58.2449 12.019 58.2449 13.2421C58.248 14.507 57.992 15.4971 57.4773 16.2123H57.473Z" fill="black"/>
<path d="M15.2293 17.0669H0V20.676H15.2293V17.0669Z" fill="black"/>
</g>
<defs>
<clipPath id="clip0_2557_159">
<rect width="95" height="25" fill="white"/>
</clipPath>
</defs>
</svg>
