<svg width="745" height="212" viewBox="0 0 745 212" fill="none" xmlns="http://www.w3.org/2000/svg">
<path d="M246.556 24.0752H7.18066V204.772H737.819V24.0752H497.876V16.8467H745V212H0V16.8467H246.556V24.0752Z" fill="white"/>
<path fill-rule="evenodd" clip-rule="evenodd" d="M149.067 96.2188C155.369 96.2188 160.773 97.5209 165.278 100.125C169.809 102.703 173.286 106.323 175.708 110.984C178.156 115.62 179.38 121.024 179.38 127.195C179.38 133.341 178.156 138.745 175.708 143.406C173.286 148.042 169.809 151.661 165.278 154.266C160.773 156.844 155.369 158.133 149.067 158.133C142.765 158.133 137.349 156.844 132.817 154.266C128.312 151.661 124.836 148.042 122.388 143.406C119.966 138.745 118.755 133.341 118.755 127.195C118.755 121.023 119.966 115.62 122.388 110.984C124.836 106.323 128.312 102.703 132.817 100.125C137.349 97.521 142.765 96.2188 149.067 96.2188ZM149.185 110.359C146.815 110.359 144.81 111.063 143.169 112.469C141.554 113.875 140.317 115.828 139.458 118.328C138.625 120.828 138.208 123.745 138.208 127.078C138.208 130.359 138.625 133.25 139.458 135.75C140.317 138.25 141.554 140.203 143.169 141.609C144.81 143.015 146.815 143.719 149.185 143.719C151.476 143.719 153.416 143.016 155.005 141.609C156.593 140.203 157.804 138.25 158.638 135.75C159.497 133.25 159.927 130.359 159.927 127.078C159.927 123.745 159.497 120.828 158.638 118.328C157.804 115.828 156.593 113.875 155.005 112.469C153.416 111.063 151.476 110.359 149.185 110.359Z" fill="white"/>
<path fill-rule="evenodd" clip-rule="evenodd" d="M273.787 96.2188C278.058 96.2188 281.964 96.8828 285.506 98.2109C289.047 99.5391 292.107 101.505 294.686 104.109C297.264 106.714 299.269 109.93 300.701 113.758C302.133 117.56 302.85 121.922 302.85 126.844V131.609H262.85V132.117C262.85 134.565 263.331 136.714 264.295 138.562C265.258 140.385 266.626 141.805 268.396 142.82C270.167 143.836 272.277 144.344 274.725 144.344C276.417 144.344 277.954 144.109 279.334 143.641C280.714 143.172 281.899 142.482 282.889 141.57C283.878 140.659 284.62 139.539 285.115 138.211L302.654 138.719C301.925 142.651 300.324 146.076 297.85 148.992C295.402 151.883 292.185 154.135 288.201 155.75C284.217 157.339 279.607 158.133 274.373 158.133C268.097 158.133 262.68 156.896 258.123 154.422C253.592 151.922 250.102 148.367 247.654 143.758C245.232 139.122 244.021 133.615 244.021 127.234C244.021 121.036 245.245 115.62 247.693 110.984C250.141 106.323 253.592 102.703 258.045 100.125C262.498 97.5209 267.746 96.2188 273.787 96.2188ZM274.178 110.008C272.042 110.008 270.128 110.49 268.436 111.453C266.743 112.391 265.402 113.68 264.412 115.32C263.473 116.853 262.956 118.584 262.861 120.516H285.076C285.05 118.484 284.568 116.674 283.631 115.086C282.693 113.497 281.404 112.26 279.764 111.375C278.149 110.464 276.287 110.008 274.178 110.008Z" fill="white"/>
<path d="M81.0479 75.9062C85.8916 75.9062 90.3708 76.5833 94.4854 77.9375C98.5999 79.2656 102.22 81.2188 105.345 83.7969C108.47 86.349 111.009 89.487 112.962 93.2109C114.915 96.9349 116.126 101.193 116.595 105.984H97.0635C96.8031 103.979 96.2692 102.169 95.4619 100.555C94.6546 98.9401 93.5869 97.5599 92.2588 96.4141C90.9307 95.2682 89.3551 94.3958 87.5322 93.7969C85.7354 93.1719 83.7432 92.8594 81.5557 92.8594C77.6755 92.8594 74.3291 93.8099 71.5166 95.7109C68.7301 97.612 66.5817 100.359 65.0713 103.953C63.5869 107.547 62.8447 111.896 62.8447 117C62.8447 122.312 63.5999 126.766 65.1104 130.359C66.6468 133.927 68.7952 136.622 71.5557 138.445C74.3421 140.242 77.6364 141.141 81.4385 141.141C83.5739 141.141 85.514 140.867 87.2588 140.32C89.0296 139.773 90.5791 138.979 91.9072 137.938C93.2614 136.87 94.3682 135.581 95.2275 134.07C96.113 132.534 96.7249 130.802 97.0635 128.875L116.595 128.992C116.256 132.534 115.228 136.023 113.509 139.461C111.816 142.898 109.485 146.036 106.517 148.875C103.548 151.688 99.9281 153.927 95.6572 155.594C91.4124 157.26 86.5426 158.094 81.0479 158.094C73.8083 158.094 67.3239 156.505 61.5947 153.328C55.8916 150.125 51.3864 145.464 48.0791 139.344C44.7718 133.224 43.1182 125.776 43.1182 117C43.1182 108.198 44.7979 100.737 48.1572 94.6172C51.5166 88.4974 56.0609 83.849 61.79 80.6719C67.5192 77.4948 73.9385 75.9062 81.0479 75.9062Z" fill="white"/>
<path d="M354.132 75.9062C360.33 75.9062 365.707 76.9609 370.265 79.0703C374.848 81.1536 378.403 84.0833 380.929 87.8594C383.455 91.6354 384.744 96.0104 384.796 100.984H366.28C366.02 98.1198 364.861 95.8932 362.804 94.3047C360.772 92.6901 357.869 91.8828 354.093 91.8828C351.593 91.8828 349.509 92.2083 347.843 92.8594C346.176 93.5104 344.926 94.4089 344.093 95.5547C343.259 96.6745 342.83 97.9635 342.804 99.4219C342.752 100.62 342.986 101.674 343.507 102.586C344.054 103.497 344.835 104.305 345.851 105.008C346.892 105.685 348.142 106.284 349.601 106.805C351.059 107.326 352.7 107.781 354.522 108.172L361.397 109.734C365.356 110.594 368.845 111.74 371.866 113.172C374.913 114.604 377.465 116.31 379.522 118.289C381.606 120.268 383.181 122.547 384.249 125.125C385.317 127.703 385.864 130.594 385.89 133.797C385.864 138.849 384.588 143.185 382.062 146.805C379.535 150.424 375.903 153.198 371.163 155.125C366.45 157.052 360.759 158.016 354.093 158.016C347.4 158.016 341.567 157.013 336.593 155.008C331.619 153.003 327.752 149.956 324.991 145.867C322.231 141.779 320.812 136.609 320.733 130.359H339.249C339.405 132.938 340.095 135.086 341.319 136.805C342.543 138.523 344.223 139.826 346.358 140.711C348.52 141.596 351.02 142.039 353.858 142.039C356.463 142.039 358.676 141.688 360.499 140.984C362.348 140.281 363.767 139.305 364.757 138.055C365.746 136.805 366.254 135.372 366.28 133.758C366.254 132.247 365.785 130.958 364.874 129.891C363.963 128.797 362.556 127.859 360.655 127.078C358.78 126.271 356.384 125.529 353.468 124.852L345.108 122.898C338.181 121.31 332.726 118.745 328.741 115.203C324.757 111.635 322.778 106.818 322.804 100.75C322.778 95.8021 324.106 91.4661 326.788 87.7422C329.47 84.0182 333.181 81.1146 337.921 79.0312C342.66 76.9479 348.064 75.9062 354.132 75.9062Z" fill="white"/>
<path d="M690.565 97H701.386V111.062H690.565V138.133C690.565 139.305 690.748 140.255 691.112 140.984C691.503 141.688 692.063 142.195 692.792 142.508C693.521 142.794 694.394 142.938 695.409 142.938C696.138 142.938 696.907 142.872 697.714 142.742C698.547 142.586 699.172 142.456 699.589 142.352L702.479 156.141C701.568 156.401 700.279 156.727 698.612 157.117C696.972 157.508 695.006 157.755 692.714 157.859C688.235 158.068 684.394 157.547 681.19 156.297C678.013 155.021 675.578 153.042 673.886 150.359C672.323 147.845 671.516 144.724 671.464 140.996V111.062H663.534V97H671.464V82.625H690.565V97Z" fill="white"/>
<path fill-rule="evenodd" clip-rule="evenodd" d="M240.846 157H221.939V147.273H221.354C220.546 149.122 219.4 150.854 217.916 152.469C216.432 154.083 214.57 155.385 212.33 156.375C210.117 157.365 207.499 157.859 204.479 157.859C200.051 157.859 196.028 156.714 192.408 154.422C188.788 152.13 185.898 148.693 183.736 144.109C181.575 139.526 180.494 133.836 180.494 127.039C180.494 119.982 181.614 114.174 183.854 109.617C186.093 105.06 189.023 101.688 192.643 99.5C196.288 97.3125 200.208 96.2188 204.4 96.2188C207.551 96.2188 210.247 96.7657 212.486 97.8594C214.726 98.9271 216.575 100.307 218.033 102C219.492 103.693 220.598 105.451 221.354 107.273H221.744V77H240.846V157ZM211.119 111.141C208.749 111.141 206.744 111.792 205.104 113.094C203.463 114.396 202.213 116.232 201.354 118.602C200.52 120.971 200.104 123.771 200.104 127C200.104 130.229 200.533 133.042 201.393 135.438C202.252 137.833 203.489 139.695 205.104 141.023C206.744 142.325 208.749 142.977 211.119 142.977C213.437 142.977 215.416 142.325 217.057 141.023C218.697 139.695 219.96 137.833 220.846 135.438C221.731 133.042 222.174 130.229 222.174 127C222.174 123.719 221.731 120.893 220.846 118.523C219.986 116.154 218.723 114.331 217.057 113.055C215.416 111.779 213.437 111.141 211.119 111.141Z" fill="white"/>
<path d="M408.157 131.492C408.183 134.747 409.043 137.312 410.735 139.188C412.428 141.062 414.733 142 417.649 142C419.55 142 421.256 141.583 422.767 140.75C424.303 139.891 425.514 138.654 426.399 137.039C427.311 135.398 427.767 133.419 427.767 131.102V97H446.829V157H428.626V145.828H428.001C426.673 149.5 424.407 152.417 421.204 154.578C418.027 156.713 414.186 157.781 409.681 157.781C405.592 157.781 401.998 156.844 398.899 154.969C395.801 153.094 393.392 150.476 391.673 147.117C389.954 143.732 389.082 139.773 389.056 135.242V97H408.157V131.492Z" fill="white"/>
<path d="M523.246 96.2188C528.923 96.2188 533.533 98.0417 537.074 101.688C540.616 105.307 542.387 110.281 542.387 116.609V157H523.285V120.984C523.285 117.99 522.517 115.711 520.98 114.148C519.444 112.56 517.452 111.766 515.004 111.766C512.374 111.766 510.303 112.625 508.793 114.344C507.309 116.036 506.566 118.315 506.566 121.18V157H488.207V120.789C488.207 118.003 487.452 115.802 485.941 114.188C484.431 112.573 482.439 111.766 479.965 111.766C478.298 111.766 476.827 112.169 475.551 112.977C474.275 113.758 473.272 114.878 472.543 116.336C471.84 117.794 471.488 119.513 471.488 121.492V157H452.387V97H470.551V108.016H471.215C472.465 104.37 474.574 101.492 477.543 99.3828C480.512 97.2735 484.053 96.2188 488.168 96.2188C492.335 96.2188 495.902 97.2865 498.871 99.4219C501.84 101.557 503.728 104.422 504.535 108.016H505.16C506.28 104.448 508.468 101.596 511.723 99.4609C514.978 97.2995 518.819 96.2188 523.246 96.2188Z" fill="white"/>
<path d="M618.482 96.2188C624.159 96.2188 628.769 98.0417 632.311 101.688C635.852 105.307 637.623 110.281 637.623 116.609V157H618.521V120.984C618.521 117.99 617.753 115.711 616.217 114.148C614.68 112.56 612.688 111.766 610.24 111.766C607.61 111.766 605.54 112.625 604.029 114.344C602.545 116.036 601.803 118.315 601.803 121.18V157H583.443V120.789C583.443 118.003 582.688 115.802 581.178 114.188C579.667 112.573 577.675 111.766 575.201 111.766C573.535 111.766 572.063 112.169 570.787 112.977C569.511 113.758 568.508 114.878 567.779 116.336C567.076 117.794 566.725 119.513 566.725 121.492V157H547.623V97H565.787V108.016H566.451C567.701 104.37 569.811 101.492 572.779 99.3828C575.748 97.2735 579.29 96.2188 583.404 96.2188C587.571 96.2188 591.139 97.2865 594.107 99.4219C597.076 101.557 598.964 104.422 599.771 108.016H600.396C601.516 104.448 603.704 101.596 606.959 99.4609C610.214 97.2995 614.055 96.2188 618.482 96.2188Z" fill="white"/>
<path d="M661.96 157H642.858V97H661.96V157Z" fill="white"/>
<path d="M652.429 71.7656C655.137 71.7656 657.442 72.6642 659.343 74.4609C661.27 76.2318 662.233 78.3672 662.233 80.8672C662.233 83.3932 661.27 85.5547 659.343 87.3516C657.442 89.1223 655.137 90.0078 652.429 90.0078C649.747 90.0077 647.442 89.1223 645.515 87.3516C643.588 85.5547 642.624 83.3931 642.624 80.8672C642.624 78.3673 643.588 76.2317 645.515 74.4609C647.442 72.6641 649.747 71.7657 652.429 71.7656Z" fill="white"/>
<path fill-rule="evenodd" clip-rule="evenodd" d="M368.774 9.23926C369.957 9.23931 370.968 9.44538 371.809 9.8584C372.659 10.2617 373.358 10.7835 373.905 11.4229C374.453 12.0624 374.869 12.7273 375.152 13.416H375.357V9.53418H382.498V32.292C382.498 34.2106 382.018 35.829 381.061 37.1475C380.103 38.4659 378.763 39.4647 377.043 40.1436C375.323 40.8322 373.334 41.1767 371.076 41.1768C368.936 41.1768 367.103 40.8764 365.578 40.2764C364.053 39.6762 362.855 38.8545 361.985 37.8115C361.115 36.7686 360.593 35.5879 360.417 34.2695L367.205 33.8857C367.332 34.3481 367.567 34.7514 367.909 35.0957C368.261 35.44 368.715 35.7056 369.272 35.8926C369.839 36.0795 370.504 36.1738 371.267 36.1738C372.469 36.1738 373.461 35.8784 374.243 35.2881C375.035 34.7076 375.431 33.6886 375.431 32.2324V28.248H375.182C374.898 28.9466 374.467 29.5711 373.891 30.1221C373.314 30.673 372.595 31.1061 371.735 31.4209C370.885 31.7357 369.908 31.8935 368.804 31.8936C367.162 31.8936 365.656 31.5096 364.287 30.7422C362.929 29.9649 361.839 28.7648 361.018 27.1416C360.206 25.5083 359.801 23.4069 359.801 20.8389C359.801 18.1923 360.221 16.0127 361.062 14.3008C361.902 12.5791 363.002 11.305 364.36 10.4785C365.729 9.65203 367.201 9.23926 368.774 9.23926ZM371.296 14.877C370.407 14.877 369.654 15.1225 369.038 15.6143C368.422 16.1062 367.952 16.8 367.63 17.6953C367.317 18.5807 367.161 19.6288 367.161 20.8389C367.161 22.0491 367.323 23.0873 367.646 23.9531C367.968 24.8189 368.432 25.4829 369.038 25.9453C369.654 26.4078 370.406 26.6396 371.296 26.6396C372.166 26.6396 372.909 26.4077 373.524 25.9453C374.14 25.4829 374.614 24.8189 374.946 23.9531C375.279 23.0873 375.445 22.0491 375.445 20.8389C375.445 19.6091 375.279 18.5515 374.946 17.666C374.624 16.7708 374.15 16.0817 373.524 15.5996C372.909 15.1176 372.166 14.877 371.296 14.877Z" fill="white"/>
<path fill-rule="evenodd" clip-rule="evenodd" d="M429.084 9.23926C430.687 9.23926 432.153 9.48951 433.482 9.99121C434.812 10.493 435.961 11.2358 436.929 12.2197C437.896 13.2036 438.649 14.419 439.187 15.8652C439.724 17.3017 439.993 18.95 439.993 20.8096V22.6104H424.979V22.8018C424.979 23.7266 425.16 24.5387 425.521 25.2373C425.883 25.9259 426.396 26.462 427.061 26.8457C427.725 27.2294 428.517 27.4218 429.436 27.4219C430.071 27.4219 430.648 27.3333 431.166 27.1562C431.684 26.9792 432.129 26.7182 432.5 26.374C432.871 26.0297 433.15 25.6063 433.336 25.1045L439.919 25.2959C439.645 26.7815 439.045 28.0758 438.116 29.1777C437.197 30.2699 435.99 31.1214 434.494 31.7314C432.999 32.3315 431.268 32.6318 429.304 32.6318C426.948 32.6318 424.915 32.164 423.205 31.2295C421.504 30.285 420.194 28.9417 419.275 27.2002C418.366 25.4488 417.912 23.3676 417.912 20.957C417.912 18.6154 418.371 16.5687 419.29 14.8174C420.209 13.0563 421.504 11.6889 423.176 10.7148C424.847 9.73108 426.816 9.23928 429.084 9.23926ZM429.23 14.4482C428.429 14.4483 427.71 14.6311 427.075 14.9951C426.44 15.3493 425.937 15.8363 425.565 16.4561C425.213 17.035 425.021 17.6893 424.985 18.4189H433.321C433.312 17.6515 433.131 16.9674 432.779 16.3672C432.427 15.767 431.943 15.2994 431.327 14.9648C430.721 14.6206 430.022 14.4482 429.23 14.4482Z" fill="white"/>
<path fill-rule="evenodd" clip-rule="evenodd" d="M451.897 9.23926C453.5 9.23926 454.967 9.4895 456.296 9.99121C457.625 10.493 458.775 11.2358 459.742 12.2197C460.71 13.2036 461.462 14.419 462 15.8652C462.538 17.3017 462.806 18.95 462.806 20.8096V22.6104H447.792V22.8018C447.792 23.7266 447.973 24.5387 448.335 25.2373C448.697 25.9259 449.21 26.462 449.874 26.8457C450.539 27.2294 451.33 27.4218 452.249 27.4219C452.884 27.4219 453.461 27.3333 453.979 27.1562C454.497 26.9792 454.942 26.7183 455.313 26.374C455.685 26.0297 455.964 25.6063 456.149 25.1045L462.732 25.2959C462.459 26.7815 461.858 28.0758 460.93 29.1777C460.011 30.2699 458.803 31.1214 457.308 31.7314C455.812 32.3316 454.082 32.6318 452.117 32.6318C449.762 32.6318 447.728 32.1642 446.018 31.2295C444.317 30.285 443.008 28.9416 442.089 27.2002C441.18 25.4488 440.725 23.3676 440.725 20.957C440.725 18.6154 441.185 16.5687 442.104 14.8174C443.022 13.0565 444.317 11.6888 445.988 10.7148C447.66 9.73094 449.63 9.23927 451.897 9.23926ZM452.044 14.4482C451.242 14.4483 450.524 14.6311 449.889 14.9951C449.253 15.3493 448.75 15.8363 448.379 16.4561C448.026 17.035 447.834 17.6893 447.799 18.4189H456.135C456.125 17.6515 455.945 16.9674 455.593 16.3672C455.241 15.767 454.756 15.2994 454.141 14.9648C453.535 14.6206 452.836 14.4482 452.044 14.4482Z" fill="white"/>
<path fill-rule="evenodd" clip-rule="evenodd" d="M295.332 32.2031H287.531L285.552 25.8574H275.182L273.207 32.2031H265.406L275.538 1.97754H285.2L295.332 32.2031ZM276.909 20.3076H283.821L280.479 9.59277H280.244L276.909 20.3076Z" fill="white"/>
<path d="M303.758 32.2031H296.5V1.97754H303.758V32.2031Z" fill="white"/>
<path d="M333.993 7.91016H320.313V14.1094H332.923V20.0566H320.313V26.2705H333.993V32.2031H313.056V1.97754H333.993V7.91016Z" fill="white"/>
<path d="M350.389 9.23926C351.972 9.23928 353.346 9.59818 354.509 10.3164C355.682 11.0248 356.59 12.0188 357.235 13.2979C357.89 14.5671 358.213 16.0528 358.203 17.7549V32.2031H351.033V19.1719C351.043 17.9126 350.726 16.9281 350.081 16.2197C349.446 15.5113 348.561 15.1572 347.427 15.1572C346.674 15.1572 346.009 15.3247 345.433 15.6592C344.866 15.9838 344.426 16.4508 344.113 17.0605C343.81 17.6705 343.653 18.4087 343.644 19.2744V32.2031H336.475V9.53418H343.292V13.6963H343.541C344.04 12.309 344.89 11.2217 346.093 10.4346C347.295 9.63763 348.727 9.23926 350.389 9.23926Z" fill="white"/>
<path d="M392.174 32.2031H385.004V9.53418H392.174V32.2031Z" fill="white"/>
<path d="M408.587 9.23926C410.17 9.23926 411.544 9.59822 412.707 10.3164C413.88 11.0248 414.789 12.0188 415.435 13.2979C416.089 14.567 416.412 16.0528 416.402 17.7549V32.2031H409.232V19.1719C409.242 17.9125 408.924 16.9281 408.279 16.2197C407.644 15.5114 406.76 15.1573 405.626 15.1572C404.873 15.1572 404.209 15.3247 403.632 15.6592C403.065 15.9838 402.624 16.4506 402.312 17.0605C402.009 17.6705 401.853 18.4087 401.843 19.2744V32.2031H394.673V9.53418H401.491V13.6963H401.74C402.239 12.3091 403.089 11.2217 404.291 10.4346C405.493 9.63767 406.925 9.23932 408.587 9.23926Z" fill="white"/>
<path d="M476.852 9.22461C477.184 9.22461 477.526 9.24866 477.878 9.29785C478.23 9.33721 478.557 9.40168 478.86 9.49023V15.7627C478.518 15.6446 478.069 15.5503 477.512 15.4814C476.964 15.4126 476.475 15.3789 476.045 15.3789C475.195 15.3789 474.427 15.5704 473.743 15.9541C473.069 16.3279 472.536 16.8544 472.146 17.5332C471.764 18.2022 471.573 18.9894 471.573 19.8945V32.2031H464.403V9.53418H471.368V13.667H471.603C472.013 12.1714 472.683 11.0591 473.611 10.3311C474.54 9.59315 475.62 9.22462 476.852 9.22461Z" fill="white"/>
<path d="M388.597 0C389.613 6.79296e-05 390.478 0.339724 391.191 1.01855C391.915 1.68754 392.276 2.49406 392.276 3.43848C392.276 4.39287 391.915 5.20977 391.191 5.88867C390.478 6.55763 389.613 6.89251 388.597 6.89258C387.59 6.89258 386.724 6.55773 386.001 5.88867C385.278 5.2098 384.916 4.39281 384.916 3.43848C384.916 2.49414 385.278 1.6875 386.001 1.01855C386.724 0.339656 387.59 0 388.597 0Z" fill="white"/>
</svg>
