<svg width="40" height="40" viewBox="0 0 40 40" fill="none" xmlns="http://www.w3.org/2000/svg">
<g clip-path="url(#clip0_215_518)">
<path d="M13.3333 30C13.3333 29.1159 12.9821 28.2681 12.357 27.643C11.7319 27.0178 10.8841 26.6667 10 26.6667C9.11595 26.6667 8.2681 27.0178 7.64298 27.643C7.01786 28.2681 6.66667 29.1159 6.66667 30C6.66667 30.884 7.01786 31.7319 7.64298 32.357C8.2681 32.9821 9.11595 33.3333 10 33.3333C10.8841 33.3333 11.7319 32.9821 12.357 32.357C12.9821 31.7319 13.3333 30.884 13.3333 30Z" stroke="white" stroke-width="2" stroke-linecap="round" stroke-linejoin="round"/>
<path d="M33.3333 9.99999C33.3333 9.11593 32.9821 8.26809 32.357 7.64297C31.7319 7.01785 30.8841 6.66666 30 6.66666C29.116 6.66666 28.2681 7.01785 27.643 7.64297C27.0179 8.26809 26.6667 9.11593 26.6667 9.99999C26.6667 10.884 27.0179 11.7319 27.643 12.357C28.2681 12.9821 29.116 13.3333 30 13.3333C30.8841 13.3333 31.7319 12.9821 32.357 12.357C32.9821 11.7319 33.3333 10.884 33.3333 9.99999Z" stroke="white" stroke-width="2" stroke-linecap="round" stroke-linejoin="round"/>
<path d="M13.3333 9.99999C13.3333 9.11593 12.9821 8.26809 12.357 7.64297C11.7319 7.01785 10.8841 6.66666 10 6.66666C9.11595 6.66666 8.2681 7.01785 7.64298 7.64297C7.01786 8.26809 6.66667 9.11593 6.66667 9.99999C6.66667 10.884 7.01786 11.7319 7.64298 12.357C8.2681 12.9821 9.11595 13.3333 10 13.3333C10.8841 13.3333 11.7319 12.9821 12.357 12.357C12.9821 11.7319 13.3333 10.884 13.3333 9.99999Z" stroke="white" stroke-width="2" stroke-linecap="round" stroke-linejoin="round"/>
<path d="M33.3333 30C33.3333 29.1159 32.9821 28.2681 32.357 27.643C31.7319 27.0178 30.8841 26.6667 30 26.6667C29.116 26.6667 28.2681 27.0178 27.643 27.643C27.0179 28.2681 26.6667 29.1159 26.6667 30C26.6667 30.884 27.0179 31.7319 27.643 32.357C28.2681 32.9821 29.116 33.3333 30 33.3333C30.8841 33.3333 31.7319 32.9821 32.357 32.357C32.9821 31.7319 33.3333 30.884 33.3333 30Z" stroke="white" stroke-width="2" stroke-linecap="round" stroke-linejoin="round"/>
<path d="M23.3333 20C23.3333 19.1159 22.9821 18.2681 22.357 17.643C21.7319 17.0178 20.8841 16.6667 20 16.6667C19.116 16.6667 18.2681 17.0178 17.643 17.643C17.0179 18.2681 16.6667 19.1159 16.6667 20C16.6667 20.884 17.0179 21.7319 17.643 22.357C18.2681 22.9821 19.116 23.3333 20 23.3333C20.8841 23.3333 21.7319 22.9821 22.357 22.357C22.9821 21.7319 23.3333 20.884 23.3333 20Z" stroke="white" stroke-width="2" stroke-linecap="round" stroke-linejoin="round"/>
<path d="M12.5 12.5L17.5 17.5" stroke="white" stroke-width="2" stroke-linecap="round" stroke-linejoin="round"/>
<path d="M12.5 27.5L17.5 22.5" stroke="white" stroke-width="2" stroke-linecap="round" stroke-linejoin="round"/>
<path d="M22.5 22.5L27.5 27.5" stroke="white" stroke-width="2" stroke-linecap="round" stroke-linejoin="round"/>
<path d="M27.5 12.5L22.5 17.5" stroke="white" stroke-width="2" stroke-linecap="round" stroke-linejoin="round"/>
</g>
<defs>
<clipPath id="clip0_215_518">
<rect width="40" height="40" fill="white"/>
</clipPath>
</defs>
</svg>
