<svg width="40" height="40" viewBox="0 0 40 40" fill="none" xmlns="http://www.w3.org/2000/svg">
<g clip-path="url(#clip0_215_672)">
<path d="M6.66666 8.33334H9.99999" stroke="white" stroke-width="2" stroke-linecap="round" stroke-linejoin="round"/>
<path d="M8.33334 6.66666V9.99999" stroke="white" stroke-width="2" stroke-linecap="round" stroke-linejoin="round"/>
<path d="M19.1667 6.66666L18.3333 9.99999" stroke="white" stroke-width="2" stroke-linecap="round" stroke-linejoin="round"/>
<path d="M30 8.33334H33.3333" stroke="white" stroke-width="2" stroke-linecap="round" stroke-linejoin="round"/>
<path d="M31.6667 6.66666V9.99999" stroke="white" stroke-width="2" stroke-linecap="round" stroke-linejoin="round"/>
<path d="M25 15L23.3333 16.6667" stroke="white" stroke-width="2" stroke-linecap="round" stroke-linejoin="round"/>
<path d="M30 21.6667L33.3333 20.8333" stroke="white" stroke-width="2" stroke-linecap="round" stroke-linejoin="round"/>
<path d="M30 31.6667H33.3333" stroke="white" stroke-width="2" stroke-linecap="round" stroke-linejoin="round"/>
<path d="M31.6667 30V33.3333" stroke="white" stroke-width="2" stroke-linecap="round" stroke-linejoin="round"/>
<path d="M23.3333 27.53L12.47 16.6667L5.15333 32.6333C5.00872 32.9433 4.96299 33.2903 5.02237 33.6272C5.08175 33.9641 5.24334 34.2745 5.48523 34.5164C5.72711 34.7583 6.03757 34.9199 6.37445 34.9793C6.71133 35.0387 7.05833 34.9929 7.36833 34.8483L23.3333 27.53Z" stroke="white" stroke-width="2" stroke-linecap="round" stroke-linejoin="round"/>
</g>
<defs>
<clipPath id="clip0_215_672">
<rect width="40" height="40" fill="white"/>
</clipPath>
</defs>
</svg>
